%TF.GenerationSoftware,KiCad,Pcbnew,10.0.3*%
%TF.CreationDate,2026-09-28T13:52:18+07:00*%
%TF.ProjectId,1,312e6b69-6361-4645-9f70-636258585858,rev?*%
%TF.SameCoordinates,Original*%
%TF.FileFunction,Component,L1,Top*%
%TF.FilePolarity,Positive*%
%FSLAX46Y46*%
G04 Gerber Fmt 4.6, Leading zero omitted, Abs format (unit mm)*
G04 Created by KiCad (PCBNEW 10.0.3) date 2026-09-28 13:52:18*
%MOMM*%
%LPD*%
G01*
G04 APERTURE LIST*
%TA.AperFunction,ComponentMain*%
%ADD10C,0.300000*%
%TD*%
%TA.AperFunction,ComponentOutline,Courtyard*%
%ADD11C,0.100000*%
%TD*%
%TA.AperFunction,ComponentPin*%
%ADD12P,0.360000X4X0.000000*%
%TD*%
%TA.AperFunction,ComponentPin*%
%ADD13C,0.100000*%
%TD*%
%TA.AperFunction,ComponentOutline,Footprint*%
%ADD14C,0.100000*%
%TD*%
%TA.AperFunction,Profile*%
%ADD15C,0.050000*%
%TD*%
G04 APERTURE END LIST*
D10*
%TO.C,R17*%
%TO.CFtp,R_0603_1608Metric_Pad0.98x0.95mm_HandSolder*%
%TO.CVal,10K/25V/0603/1\u0025*%
%TO.CLbN,Resistor_SMD*%
%TO.CMnt,SMD*%
%TO.CRot,-90*%
X94453786Y-86982572D03*
D11*
X95178786Y-85337572D02*
X95178786Y-88627572D01*
X93728786Y-88627572D01*
X93728786Y-85337572D01*
X95178786Y-85337572D01*
D12*
%TO.P,R17,1*%
X94453786Y-86070072D03*
D13*
%TO.P,R17,2*%
X94453786Y-87895072D03*
%TD*%
D10*
%TO.C,R14*%
%TO.CFtp,R_0603_1608Metric_Pad0.98x0.95mm_HandSolder*%
%TO.CVal,10K/25V/0603/1\u0025*%
%TO.CLbN,Resistor_SMD*%
%TO.CMnt,SMD*%
%TO.CRot,180*%
X158087500Y-88800000D03*
D11*
X159732500Y-88075000D02*
X159732500Y-89525000D01*
X156442500Y-89525000D01*
X156442500Y-88075000D01*
X159732500Y-88075000D01*
D12*
%TO.P,R14,1*%
X159000000Y-88800000D03*
D13*
%TO.P,R14,2*%
X157175000Y-88800000D03*
%TD*%
D10*
%TO.C,R20*%
%TO.CFtp,R_0603_1608Metric_Pad0.98x0.95mm_HandSolder*%
%TO.CVal,4K7/25V/0603/1\u0025*%
%TO.CLbN,Resistor_SMD*%
%TO.CMnt,SMD*%
%TO.CRot,180*%
X169468800Y-81559400D03*
D11*
X171113800Y-80834400D02*
X171113800Y-82284400D01*
X167823800Y-82284400D01*
X167823800Y-80834400D01*
X171113800Y-80834400D01*
D12*
%TO.P,R20,1*%
X170381300Y-81559400D03*
D13*
%TO.P,R20,2*%
X168556300Y-81559400D03*
%TD*%
D10*
%TO.C,JP2*%
%TO.CFtp,SolderJumper-2_P1.3mm_Open_Pad1.0x1.5mm*%
%TO.CVal,SolderJumper_2_Open*%
%TO.CLbN,Jumper*%
%TO.CMnt,Other*%
%TO.CRot,180*%
X193179999Y-79019400D03*
D11*
X194824999Y-77774400D02*
X194824999Y-80264400D01*
X191534999Y-80264400D01*
X191534999Y-77774400D01*
X194824999Y-77774400D01*
D12*
%TO.P,JP2,1,A_1*%
X193829998Y-79019400D03*
D13*
%TO.P,JP2,2,B_2*%
X192530000Y-79019400D03*
%TD*%
D10*
%TO.C,C25*%
%TO.CFtp,C_0603_1608Metric_Pad1.08x0.95mm_HandSolder*%
%TO.CVal,0.1uF/25V/0603/1\u0025*%
%TO.CLbN,Capacitor_SMD*%
%TO.CMnt,SMD*%
%TO.CRot,-90*%
X107815000Y-106036600D03*
D11*
X108540000Y-104391600D02*
X108540000Y-107681600D01*
X107090000Y-107681600D01*
X107090000Y-104391600D01*
X108540000Y-104391600D01*
D12*
%TO.P,C25,1*%
X107815000Y-105174099D03*
D13*
%TO.P,C25,2*%
X107815000Y-106899101D03*
%TD*%
D10*
%TO.C,R35*%
%TO.CFtp,R_0603_1608Metric_Pad0.98x0.95mm_HandSolder*%
%TO.CVal,100R/25V/0603/1\u0025*%
%TO.CLbN,Resistor_SMD*%
%TO.CMnt,SMD*%
%TO.CRot,180*%
X162204400Y-102362000D03*
D11*
X163849400Y-101637000D02*
X163849400Y-103087000D01*
X160559400Y-103087000D01*
X160559400Y-101637000D01*
X163849400Y-101637000D01*
D12*
%TO.P,R35,1*%
X163116900Y-102362000D03*
D13*
%TO.P,R35,2*%
X161291900Y-102362000D03*
%TD*%
D10*
%TO.C,C56*%
%TO.CFtp,C_0603_1608Metric_Pad1.08x0.95mm_HandSolder*%
%TO.CVal,0.1uF/25V/0603/1\u0025*%
%TO.CLbN,Capacitor_SMD*%
%TO.CMnt,SMD*%
%TO.CRot,180*%
X135180977Y-79887874D03*
D11*
X136825977Y-79162874D02*
X136825977Y-80612874D01*
X133535977Y-80612874D01*
X133535977Y-79162874D01*
X136825977Y-79162874D01*
D12*
%TO.P,C56,1*%
X136043478Y-79887874D03*
D13*
%TO.P,C56,2*%
X134318476Y-79887874D03*
%TD*%
D10*
%TO.C,R31*%
%TO.CFtp,R_0603_1608Metric_Pad0.98x0.95mm_HandSolder*%
%TO.CVal,10K/25V/0603/1\u0025*%
%TO.CLbN,Resistor_SMD*%
%TO.CMnt,SMD*%
%TO.CRot,180*%
X181597500Y-70597109D03*
D11*
X183242500Y-69872109D02*
X183242500Y-71322109D01*
X179952500Y-71322109D01*
X179952500Y-69872109D01*
X183242500Y-69872109D01*
D12*
%TO.P,R31,1*%
X182510000Y-70597109D03*
D13*
%TO.P,R31,2*%
X180685000Y-70597109D03*
%TD*%
D10*
%TO.C,C23*%
%TO.CFtp,C_0603_1608Metric_Pad1.08x0.95mm_HandSolder*%
%TO.CVal,0.1uF/25V/0603/1\u0025*%
%TO.CLbN,Capacitor_SMD*%
%TO.CMnt,SMD*%
%TO.CRot,-90*%
X94766000Y-106143901D03*
D11*
X95491000Y-104498901D02*
X95491000Y-107788901D01*
X94041000Y-107788901D01*
X94041000Y-104498901D01*
X95491000Y-104498901D01*
D12*
%TO.P,C23,1*%
X94766000Y-105281400D03*
D13*
%TO.P,C23,2*%
X94766000Y-107006402D03*
%TD*%
D10*
%TO.C,R61*%
%TO.CFtp,R_0603_1608Metric_Pad0.98x0.95mm_HandSolder*%
%TO.CVal,135K/25V/0603/1\u0025*%
%TO.CLbN,Resistor_SMD*%
%TO.CMnt,SMD*%
%TO.CRot,0*%
X110150000Y-66115712D03*
D11*
X111795000Y-65390712D02*
X111795000Y-66840712D01*
X108505000Y-66840712D01*
X108505000Y-65390712D01*
X111795000Y-65390712D01*
D12*
%TO.P,R61,1*%
X109237500Y-66115712D03*
D13*
%TO.P,R61,2*%
X111062500Y-66115712D03*
%TD*%
D10*
%TO.C,R32*%
%TO.CFtp,R_0603_1608Metric_Pad0.98x0.95mm_HandSolder*%
%TO.CVal,10K/25V/0603/1\u0025*%
%TO.CLbN,Resistor_SMD*%
%TO.CMnt,SMD*%
%TO.CRot,180*%
X181597500Y-66450000D03*
D11*
X183242500Y-65725000D02*
X183242500Y-67175000D01*
X179952500Y-67175000D01*
X179952500Y-65725000D01*
X183242500Y-65725000D01*
D12*
%TO.P,R32,1*%
X182510000Y-66450000D03*
D13*
%TO.P,R32,2*%
X180685000Y-66450000D03*
%TD*%
D10*
%TO.C,TP8*%
%TO.CFtp,PinHeader_1x01_P1.00mm_Vertical*%
%TO.CVal,TestPoint*%
%TO.CLbN,Connector_PinHeader_1.00mm*%
%TO.CMnt,TH*%
%TO.CRot,180*%
X184787500Y-62144646D03*
D11*
X185922500Y-61149646D02*
X185922500Y-63139646D01*
X183652500Y-63139646D01*
X183652500Y-61149646D01*
X185922500Y-61149646D01*
D12*
%TO.P,TP8,1,1_1*%
X184787500Y-62144646D03*
%TD*%
D10*
%TO.C,R51*%
%TO.CFtp,R_0603_1608Metric_Pad0.98x0.95mm_HandSolder*%
%TO.CVal,10K/25V/0603/1\u0025*%
%TO.CLbN,Resistor_SMD*%
%TO.CMnt,SMD*%
%TO.CRot,90*%
X129082800Y-137871200D03*
D11*
X129807800Y-136226200D02*
X129807800Y-139516200D01*
X128357800Y-139516200D01*
X128357800Y-136226200D01*
X129807800Y-136226200D01*
D12*
%TO.P,R51,1*%
X129082800Y-138783700D03*
D13*
%TO.P,R51,2*%
X129082800Y-136958700D03*
%TD*%
D10*
%TO.C,D17*%
%TO.CFtp,LED_0603_1608Metric_Pad1.05x0.95mm_HandSolder*%
%TO.CVal,LED_Red*%
%TO.CLbN,LED_SMD*%
%TO.CMnt,SMD*%
%TO.CRot,90*%
X125715283Y-137826200D03*
D11*
X126440283Y-136181200D02*
X126440283Y-139471200D01*
X124990283Y-139471200D01*
X124990283Y-136181200D01*
X126440283Y-136181200D01*
D12*
%TO.P,D17,1,K_1*%
X125715283Y-138701199D03*
D13*
%TO.P,D17,2,A_2*%
X125715283Y-136951201D03*
%TD*%
D10*
%TO.C,R42*%
%TO.CFtp,R_0603_1608Metric_Pad0.98x0.95mm_HandSolder*%
%TO.CVal,100R/25V/0603/1\u0025*%
%TO.CLbN,Resistor_SMD*%
%TO.CMnt,SMD*%
%TO.CRot,180*%
X130149600Y-102412800D03*
D11*
X131794600Y-101687800D02*
X131794600Y-103137800D01*
X128504600Y-103137800D01*
X128504600Y-101687800D01*
X131794600Y-101687800D01*
D12*
%TO.P,R42,1*%
X131062100Y-102412800D03*
D13*
%TO.P,R42,2*%
X129237100Y-102412800D03*
%TD*%
D10*
%TO.C,J2*%
%TO.CFtp,PJ-082BH*%
%TO.CVal,PJ-082BH*%
%TO.CLbN,Khach Footprint*%
%TO.CMnt,TH*%
%TO.CRot,180*%
X111488250Y-41947999D03*
D11*
X117283250Y-38852999D02*
X117283250Y-52567999D01*
X105693250Y-52567999D01*
X105693250Y-38852999D01*
X117283250Y-38852999D01*
D12*
%TO.P,J2,1*%
X111488250Y-51197999D03*
D13*
%TO.P,J2,*%
X111488250Y-41947999D03*
%TO.P,J2,2*%
X111488250Y-45197999D03*
%TO.P,J2,SH1,SHIELD_SH1*%
X116338250Y-44697999D03*
%TO.P,J2,SH2,SHIELD__1_SH2*%
X106638250Y-44697999D03*
%TO.P,J2,SH3,SHIELD__2_SH3*%
X116338250Y-49397999D03*
%TO.P,J2,SH4,SHIELD__3_SH4*%
X106638250Y-49397999D03*
%TD*%
D10*
%TO.C,R46*%
%TO.CFtp,R_0603_1608Metric_Pad0.98x0.95mm_HandSolder*%
%TO.CVal,30K/25V/0603/1\u0025*%
%TO.CLbN,Resistor_SMD*%
%TO.CMnt,SMD*%
%TO.CRot,0*%
X134346679Y-73050000D03*
D11*
X135991679Y-72325000D02*
X135991679Y-73775000D01*
X132701679Y-73775000D01*
X132701679Y-72325000D01*
X135991679Y-72325000D01*
D12*
%TO.P,R46,1*%
X133434179Y-73050000D03*
D13*
%TO.P,R46,2*%
X135259179Y-73050000D03*
%TD*%
D10*
%TO.C,C46*%
%TO.CFtp,C_0603_1608Metric_Pad1.08x0.95mm_HandSolder*%
%TO.CVal,0.1uF/25V/0603/1\u0025*%
%TO.CLbN,Capacitor_SMD*%
%TO.CMnt,SMD*%
%TO.CRot,0*%
X143487500Y-79704000D03*
D14*
X142087500Y-79229000D02*
X142087500Y-80179000D01*
X144887500Y-80179000D01*
X144887500Y-79229000D01*
X142087500Y-79229000D01*
D12*
%TO.P,C46,1*%
X142625000Y-79704000D03*
D13*
%TO.P,C46,2*%
X144350000Y-79704000D03*
%TD*%
D10*
%TO.C,R33*%
%TO.CFtp,R_0603_1608Metric_Pad0.98x0.95mm_HandSolder*%
%TO.CVal,10K/25V/0603/1\u0025*%
%TO.CLbN,Resistor_SMD*%
%TO.CMnt,SMD*%
%TO.CRot,180*%
X181597500Y-62150000D03*
D11*
X183242500Y-61425000D02*
X183242500Y-62875000D01*
X179952500Y-62875000D01*
X179952500Y-61425000D01*
X183242500Y-61425000D01*
D12*
%TO.P,R33,1*%
X182510000Y-62150000D03*
D13*
%TO.P,R33,2*%
X180685000Y-62150000D03*
%TD*%
D10*
%TO.C,R29*%
%TO.CFtp,R_0603_1608Metric_Pad0.98x0.95mm_HandSolder*%
%TO.CVal,10K/25V/0603/1\u0025*%
%TO.CLbN,Resistor_SMD*%
%TO.CMnt,SMD*%
%TO.CRot,180*%
X181597500Y-79150000D03*
D11*
X183242500Y-78425000D02*
X183242500Y-79875000D01*
X179952500Y-79875000D01*
X179952500Y-78425000D01*
X183242500Y-78425000D01*
D12*
%TO.P,R29,1*%
X182510000Y-79150000D03*
D13*
%TO.P,R29,2*%
X180685000Y-79150000D03*
%TD*%
D10*
%TO.C,SW1*%
%TO.CFtp,SW_Push_1P1T_NO_E-Switch_TL3301NxxxxxG*%
%TO.CVal,SW2*%
%TO.CLbN,Button_Switch_SMD*%
%TO.CMnt,SMD*%
%TO.CRot,-90*%
X98842000Y-106981400D03*
D11*
X102087000Y-101136400D02*
X102087000Y-112826400D01*
X95597000Y-112826400D01*
X95597000Y-101136400D01*
X102087000Y-101136400D01*
D12*
%TO.P,SW1,1,1_1*%
X101092000Y-102431400D03*
D13*
%TO.P,SW1,2,2_2*%
X101092000Y-111531400D03*
%TO.P,SW1,3,3_3*%
X96592000Y-102431400D03*
%TO.P,SW1,4,4_4*%
X96592000Y-111531400D03*
%TD*%
D10*
%TO.C,C4*%
%TO.CFtp,C_0603_1608Metric_Pad1.08x0.95mm_HandSolder*%
%TO.CVal,0.1uF/25V/0603/1\u0025*%
%TO.CLbN,Capacitor_SMD*%
%TO.CMnt,SMD*%
%TO.CRot,-90*%
X134435624Y-64818255D03*
D11*
X135160624Y-63173255D02*
X135160624Y-66463255D01*
X133710624Y-66463255D01*
X133710624Y-63173255D01*
X135160624Y-63173255D01*
D12*
%TO.P,C4,1*%
X134435624Y-63955754D03*
D13*
%TO.P,C4,2*%
X134435624Y-65680756D03*
%TD*%
D10*
%TO.C,D34*%
%TO.CFtp,LED_0603_1608Metric*%
%TO.CVal,LED_RED*%
%TO.CLbN,LED_SMD*%
%TO.CMnt,SMD*%
%TO.CRot,0*%
X134506258Y-58808263D03*
D11*
X135981258Y-58083263D02*
X135981258Y-59533263D01*
X133031258Y-59533263D01*
X133031258Y-58083263D01*
X135981258Y-58083263D01*
D12*
%TO.P,D34,1,K_1*%
X133718758Y-58808263D03*
D13*
%TO.P,D34,2,A_2*%
X135293758Y-58808263D03*
%TD*%
D10*
%TO.C,J12*%
%TO.CFtp,JST_SH_SM04B-SRSS-TB_1x04-1MP_P1.00mm_Horizontal*%
%TO.CVal,I2C_2*%
%TO.CLbN,Connector_JST*%
%TO.CMnt,SMD*%
%TO.CRot,90*%
X191925000Y-136375000D03*
D11*
X195200000Y-132480000D02*
X195200000Y-134680000D01*
X194999999Y-134680000D01*
X194999999Y-138070000D01*
X195200000Y-138070000D01*
X195200000Y-140270000D01*
X192400000Y-140270000D01*
X192400000Y-139870000D01*
X189750000Y-139870000D01*
X189750000Y-138670000D01*
X188650000Y-138670000D01*
X188650000Y-134080000D01*
X189750000Y-134080000D01*
X189750000Y-132880000D01*
X192400000Y-132880000D01*
X192400000Y-132480000D01*
X195200000Y-132480000D01*
D12*
%TO.P,J12,1,Pin_1_1*%
X189925000Y-137875000D03*
D13*
%TO.P,J12,2,Pin_2_2*%
X189925000Y-136875000D03*
%TO.P,J12,3,Pin_3_3*%
X189925000Y-135875000D03*
%TO.P,J12,4,Pin_4_4*%
X189925000Y-134875000D03*
%TO.P,J12,MP*%
X193800000Y-139175000D03*
X193800000Y-133575000D03*
%TD*%
D10*
%TO.C,R18*%
%TO.CFtp,R_0603_1608Metric_Pad0.98x0.95mm_HandSolder*%
%TO.CVal,10K/25V/0603/1\u0025*%
%TO.CLbN,Resistor_SMD*%
%TO.CMnt,SMD*%
%TO.CRot,-90*%
X107801458Y-102659899D03*
D11*
X108526458Y-101014899D02*
X108526458Y-104304899D01*
X107076458Y-104304899D01*
X107076458Y-101014899D01*
X108526458Y-101014899D01*
D12*
%TO.P,R18,1*%
X107801458Y-101747399D03*
D13*
%TO.P,R18,2*%
X107801458Y-103572399D03*
%TD*%
D10*
%TO.C,TP3*%
%TO.CFtp,PinHeader_1x01_P1.00mm_Vertical*%
%TO.CVal,TestPoint_RES*%
%TO.CLbN,Connector_PinHeader_1.00mm*%
%TO.CMnt,TH*%
%TO.CRot,0*%
X146084758Y-88725664D03*
D11*
X147219758Y-87730664D02*
X147219758Y-89720664D01*
X144949758Y-89720664D01*
X144949758Y-87730664D01*
X147219758Y-87730664D01*
D12*
%TO.P,TP3,1,1_1*%
X146084758Y-88725664D03*
%TD*%
D10*
%TO.C,R19*%
%TO.CFtp,R_0603_1608Metric_Pad0.98x0.95mm_HandSolder*%
%TO.CVal,10K/25V/0603/1\u0025*%
%TO.CLbN,Resistor_SMD*%
%TO.CMnt,SMD*%
%TO.CRot,-90*%
X107899200Y-87087109D03*
D11*
X108624200Y-85442109D02*
X108624200Y-88732109D01*
X107174200Y-88732109D01*
X107174200Y-85442109D01*
X108624200Y-85442109D01*
D12*
%TO.P,R19,1*%
X107899200Y-86174609D03*
D13*
%TO.P,R19,2*%
X107899200Y-87999609D03*
%TD*%
D10*
%TO.C,JP6*%
%TO.CFtp,SolderJumper-2_P1.3mm_Open_Pad1.0x1.5mm*%
%TO.CVal,SolderJumper_2_Open*%
%TO.CLbN,Jumper*%
%TO.CMnt,Other*%
%TO.CRot,180*%
X193167000Y-62128400D03*
D11*
X194812000Y-60883400D02*
X194812000Y-63373400D01*
X191522000Y-63373400D01*
X191522000Y-60883400D01*
X194812000Y-60883400D01*
D12*
%TO.P,JP6,1,A_1*%
X193816999Y-62128400D03*
D13*
%TO.P,JP6,2,B_2*%
X192517001Y-62128400D03*
%TD*%
D10*
%TO.C,C63*%
%TO.CFtp,C_0603_1608Metric_Pad1.08x0.95mm_HandSolder*%
%TO.CVal,0.1uF/25V/0603/1\u0025*%
%TO.CLbN,Capacitor_SMD*%
%TO.CMnt,SMD*%
%TO.CRot,180*%
X107089701Y-73050000D03*
D11*
X108734701Y-72325000D02*
X108734701Y-73775000D01*
X105444701Y-73775000D01*
X105444701Y-72325000D01*
X108734701Y-72325000D01*
D12*
%TO.P,C63,1*%
X107952201Y-73050000D03*
D13*
%TO.P,C63,2*%
X106227201Y-73050000D03*
%TD*%
D10*
%TO.C,C59*%
%TO.CFtp,C_0603_1608Metric_Pad1.08x0.95mm_HandSolder*%
%TO.CVal,0.1uF/25V/0603/1\u0025*%
%TO.CLbN,Capacitor_SMD*%
%TO.CMnt,SMD*%
%TO.CRot,180*%
X135352201Y-67286929D03*
D11*
X136997201Y-66561929D02*
X136997201Y-68011929D01*
X133707201Y-68011929D01*
X133707201Y-66561929D01*
X136997201Y-66561929D01*
D12*
%TO.P,C59,1*%
X136214701Y-67286929D03*
D13*
%TO.P,C59,2*%
X134489701Y-67286929D03*
%TD*%
D10*
%TO.C,U4*%
%TO.CFtp,TCA9534APWR*%
%TO.CVal,TCA9534APWR*%
%TO.CLbN,Khach Footprint*%
%TO.CMnt,SMD*%
%TO.CRot,0*%
X165070000Y-86735000D03*
D11*
X168970000Y-83990000D02*
X168970000Y-89480000D01*
X161170000Y-89480000D01*
X161170000Y-83990000D01*
X168970000Y-83990000D01*
D12*
%TO.P,U4,1,A0_1*%
X162200000Y-84460000D03*
D13*
%TO.P,U4,2,A1_2*%
X162200000Y-85110000D03*
%TO.P,U4,3,A2_3*%
X162200000Y-85760000D03*
%TO.P,U4,4,P0_4*%
X162200000Y-86410000D03*
%TO.P,U4,5,P1_5*%
X162200000Y-87060000D03*
%TO.P,U4,6,P2_6*%
X162200000Y-87710000D03*
%TO.P,U4,7,P3_7*%
X162200000Y-88360000D03*
%TO.P,U4,8,GND_8*%
X162200000Y-89010000D03*
%TO.P,U4,9,P4_9*%
X167940000Y-89010000D03*
%TO.P,U4,10,P5_10*%
X167940000Y-88360000D03*
%TO.P,U4,11,P6_11*%
X167940000Y-87710000D03*
%TO.P,U4,12,P7_12*%
X167940000Y-87060000D03*
%TO.P,U4,13,/INT_13*%
X167940000Y-86410000D03*
%TO.P,U4,14,SCL_14*%
X167940000Y-85760000D03*
%TO.P,U4,15,SDA_15*%
X167940000Y-85110000D03*
%TO.P,U4,16,VCC_16*%
X167940000Y-84460000D03*
%TD*%
D10*
%TO.C,R15*%
%TO.CFtp,R_0603_1608Metric_Pad0.98x0.95mm_HandSolder*%
%TO.CVal,4K7/25V/0603/1\u0025*%
%TO.CLbN,Resistor_SMD*%
%TO.CMnt,SMD*%
%TO.CRot,180*%
X169444700Y-83083400D03*
D11*
X171089700Y-82358400D02*
X171089700Y-83808400D01*
X167799700Y-83808400D01*
X167799700Y-82358400D01*
X171089700Y-82358400D01*
D12*
%TO.P,R15,1*%
X170357200Y-83083400D03*
D13*
%TO.P,R15,2*%
X168532200Y-83083400D03*
%TD*%
D10*
%TO.C,C9*%
%TO.CFtp,C_0805_2012Metric_Pad1.18x1.45mm_HandSolder*%
%TO.CVal,10uF/25V/0805/1\u0025*%
%TO.CLbN,Capacitor_SMD*%
%TO.CMnt,SMD*%
%TO.CRot,0*%
X130762500Y-60191750D03*
D11*
X132637500Y-59216750D02*
X132637500Y-61166750D01*
X128887500Y-61166750D01*
X128887500Y-59216750D01*
X132637500Y-59216750D01*
D12*
%TO.P,C9,1*%
X129725000Y-60191750D03*
D13*
%TO.P,C9,2*%
X131800000Y-60191750D03*
%TD*%
D10*
%TO.C,D12*%
%TO.CFtp,SS34*%
%TO.CVal,SS34*%
%TO.CLbN,Khach Footprint*%
%TO.CMnt,SMD*%
%TO.CRot,180*%
X137795000Y-95783400D03*
D11*
X140330000Y-93629400D02*
X140330000Y-94162800D01*
X140799900Y-94162800D01*
X140799900Y-97404000D01*
X140330000Y-97404000D01*
X140330000Y-97937400D01*
X135260000Y-97937400D01*
X135260000Y-97404000D01*
X134790100Y-97404000D01*
X134790100Y-94162800D01*
X135260000Y-94162800D01*
X135260000Y-93629400D01*
X140330000Y-93629400D01*
D12*
%TO.P,D12,1,K_1*%
X139471400Y-95783400D03*
D13*
%TO.P,D12,2,A_2*%
X136118600Y-95783400D03*
%TD*%
D10*
%TO.C,D1*%
%TO.CFtp,SS54*%
%TO.CVal,SS54*%
%TO.CLbN,Sensor_Pressure*%
%TO.CMnt,SMD*%
%TO.CRot,90*%
X133800000Y-47400000D03*
D11*
X137155000Y-42555000D02*
X137155000Y-52245000D01*
X130445000Y-52245000D01*
X130445000Y-42555000D01*
X137155000Y-42555000D01*
D12*
%TO.P,D1,1,K_1*%
X133800000Y-50900000D03*
D13*
%TO.P,D1,2,A_2*%
X133800000Y-43900000D03*
%TD*%
D10*
%TO.C,H1*%
%TO.CFtp,MountingHole_3.5mm_Pad*%
%TO.CVal,MountingHole*%
%TO.CLbN,MountingHole*%
%TO.CMnt,Other*%
%TO.CRot,0*%
X95200000Y-44600000D03*
D11*
X95489206Y-40863693D02*
X95871859Y-40913235D01*
X96247367Y-41001854D01*
X96611772Y-41128613D01*
X96961231Y-41292177D01*
X97292013Y-41490803D01*
X97600614Y-41722383D01*
X97883761Y-41984459D01*
X98138478Y-42274280D01*
X98362035Y-42588740D01*
X98552072Y-42924518D01*
X98706584Y-43278069D01*
X98823920Y-43645625D01*
X98902842Y-44023300D01*
X98942516Y-44407106D01*
X98944999Y-44600000D01*
X98942516Y-44792893D01*
X98902842Y-45176699D01*
X98823920Y-45554374D01*
X98706584Y-45921930D01*
X98552072Y-46275481D01*
X98362035Y-46611259D01*
X98138478Y-46925719D01*
X97883761Y-47215540D01*
X97600614Y-47477616D01*
X97292013Y-47709196D01*
X96961231Y-47907822D01*
X96611772Y-48071386D01*
X96247367Y-48198145D01*
X95871859Y-48286764D01*
X95489206Y-48336306D01*
X95103512Y-48346240D01*
X94718829Y-48316463D01*
X94339250Y-48247291D01*
X93968796Y-48139458D01*
X93611381Y-47994100D01*
X93270820Y-47812771D01*
X92950708Y-47597384D01*
X92654439Y-47350226D01*
X92385145Y-47073908D01*
X92145693Y-46771367D01*
X91938618Y-46445811D01*
X91766121Y-46100703D01*
X91630013Y-45739658D01*
X91531753Y-45366552D01*
X91472378Y-44985321D01*
X91452517Y-44600000D01*
X91472378Y-44214678D01*
X91531753Y-43833447D01*
X91630013Y-43460341D01*
X91766121Y-43099296D01*
X91938618Y-42754188D01*
X92145693Y-42428632D01*
X92385145Y-42126091D01*
X92654439Y-41849773D01*
X92950708Y-41602615D01*
X93270820Y-41387228D01*
X93611381Y-41205899D01*
X93968796Y-41060541D01*
X94339250Y-40952708D01*
X94718829Y-40883536D01*
X95103512Y-40853759D01*
X95489206Y-40863693D01*
D12*
%TO.P,H1,1*%
X95200000Y-44600000D03*
%TD*%
D10*
%TO.C,JP5*%
%TO.CFtp,SolderJumper-2_P1.3mm_Open_Pad1.0x1.5mm*%
%TO.CVal,SolderJumper_2_Open*%
%TO.CLbN,Jumper*%
%TO.CMnt,Other*%
%TO.CRot,180*%
X193167000Y-66522600D03*
D11*
X194812000Y-65277600D02*
X194812000Y-67767600D01*
X191522000Y-67767600D01*
X191522000Y-65277600D01*
X194812000Y-65277600D01*
D12*
%TO.P,JP5,1,A_1*%
X193816999Y-66522600D03*
D13*
%TO.P,JP5,2,B_2*%
X192517001Y-66522600D03*
%TD*%
D10*
%TO.C,D6*%
%TO.CFtp,LED_0603_1608Metric_Pad1.05x0.95mm_HandSolder*%
%TO.CVal,LED_0*%
%TO.CLbN,LED_SMD*%
%TO.CMnt,SMD*%
%TO.CRot,-90*%
X158445000Y-53132377D03*
D11*
X159170000Y-51487377D02*
X159170000Y-54777377D01*
X157720000Y-54777377D01*
X157720000Y-51487377D01*
X159170000Y-51487377D01*
D12*
%TO.P,D6,1,K_1*%
X158445000Y-52257378D03*
D13*
%TO.P,D6,2,A_2*%
X158445000Y-54007376D03*
%TD*%
D10*
%TO.C,R22*%
%TO.CFtp,R_0603_1608Metric_Pad0.98x0.95mm_HandSolder*%
%TO.CVal,10k/25V/0603/1\u0025*%
%TO.CLbN,Resistor_SMD*%
%TO.CMnt,SMD*%
%TO.CRot,0*%
X143205200Y-88569800D03*
D11*
X144850200Y-87844800D02*
X144850200Y-89294800D01*
X141560200Y-89294800D01*
X141560200Y-87844800D01*
X144850200Y-87844800D01*
D12*
%TO.P,R22,1*%
X142292700Y-88569800D03*
D13*
%TO.P,R22,2*%
X144117700Y-88569800D03*
%TD*%
D10*
%TO.C,C24*%
%TO.CFtp,C_0603_1608Metric_Pad1.08x0.95mm_HandSolder*%
%TO.CVal,0.1uF/25V/0603/1\u0025*%
%TO.CLbN,Capacitor_SMD*%
%TO.CMnt,SMD*%
%TO.CRot,-90*%
X94450600Y-90398501D03*
D11*
X95175600Y-88753501D02*
X95175600Y-92043501D01*
X93725600Y-92043501D01*
X93725600Y-88753501D01*
X95175600Y-88753501D01*
D12*
%TO.P,C24,1*%
X94450600Y-89536000D03*
D13*
%TO.P,C24,2*%
X94450600Y-91261002D03*
%TD*%
D10*
%TO.C,L1*%
%TO.CFtp,4.7uH_2A*%
%TO.CVal,4.7uH/4A*%
%TO.CLbN,Khach Footprint*%
%TO.CMnt,SMD*%
%TO.CRot,-90*%
X125130622Y-75486411D03*
D11*
X128725622Y-71241411D02*
X128725622Y-79731411D01*
X121535622Y-79731411D01*
X121535622Y-71241411D01*
X128725622Y-71241411D01*
D12*
%TO.P,L1,1,1_1*%
X125130622Y-73236411D03*
D13*
%TO.P,L1,2,2_2*%
X125130622Y-77736411D03*
%TD*%
D10*
%TO.C,R4*%
%TO.CFtp,R_0603_1608Metric_Pad0.98x0.95mm_HandSolder*%
%TO.CVal,100K/25V/0603/1\u0025*%
%TO.CLbN,Resistor_SMD*%
%TO.CMnt,SMD*%
%TO.CRot,90*%
X135975000Y-64825000D03*
D11*
X136700000Y-63180000D02*
X136700000Y-66470000D01*
X135250000Y-66470000D01*
X135250000Y-63180000D01*
X136700000Y-63180000D01*
D12*
%TO.P,R4,1*%
X135975000Y-65737500D03*
D13*
%TO.P,R4,2*%
X135975000Y-63912500D03*
%TD*%
D10*
%TO.C,Q4*%
%TO.CFtp,AO3400A*%
%TO.CVal,AO3400A*%
%TO.CLbN,Khach Footprint*%
%TO.CMnt,SMD*%
%TO.CRot,0*%
X134312500Y-101400000D03*
D11*
X136417500Y-99605000D02*
X136417500Y-103195000D01*
X132207500Y-103195000D01*
X132207500Y-99605000D01*
X136417500Y-99605000D01*
D12*
%TO.P,Q4,1,G_1*%
X133057500Y-100450000D03*
D13*
%TO.P,Q4,2,S_2*%
X133057500Y-102350000D03*
%TO.P,Q4,3,D_3*%
X135567500Y-101400000D03*
%TD*%
D10*
%TO.C,D19*%
%TO.CFtp,LED_0603_1608Metric_Pad1.05x0.95mm_HandSolder*%
%TO.CVal,LED_Red*%
%TO.CLbN,LED_SMD*%
%TO.CMnt,SMD*%
%TO.CRot,90*%
X157683200Y-137916200D03*
D11*
X158408200Y-136271200D02*
X158408200Y-139561200D01*
X156958200Y-139561200D01*
X156958200Y-136271200D01*
X158408200Y-136271200D01*
D12*
%TO.P,D19,1,K_1*%
X157683200Y-138791199D03*
D13*
%TO.P,D19,2,A_2*%
X157683200Y-137041201D03*
%TD*%
D10*
%TO.C,J17*%
%TO.CFtp,JST_SH_SM04B-SRSS-TB_1x04-1MP_P1.00mm_Horizontal*%
%TO.CVal,I2C_3*%
%TO.CLbN,Connector_JST*%
%TO.CMnt,SMD*%
%TO.CRot,-90*%
X98000000Y-123825001D03*
D11*
X97525000Y-119930001D02*
X97525000Y-120330001D01*
X100175000Y-120330001D01*
X100175000Y-121530001D01*
X101275000Y-121530001D01*
X101275000Y-126120001D01*
X100175000Y-126120001D01*
X100175000Y-127320001D01*
X97525000Y-127320001D01*
X97525000Y-127720001D01*
X94725000Y-127720001D01*
X94725000Y-125520001D01*
X94925001Y-125520001D01*
X94925001Y-122130001D01*
X94725000Y-122130001D01*
X94725000Y-119930001D01*
X97525000Y-119930001D01*
D12*
%TO.P,J17,1,Pin_1_1*%
X100000000Y-122325001D03*
D13*
%TO.P,J17,2,Pin_2_2*%
X100000000Y-123325001D03*
%TO.P,J17,3,Pin_3_3*%
X100000000Y-124325001D03*
%TO.P,J17,4,Pin_4_4*%
X100000000Y-125325001D03*
%TO.P,J17,MP*%
X96125000Y-121025001D03*
X96125000Y-126625001D03*
%TD*%
D10*
%TO.C,TP6*%
%TO.CFtp,PinHeader_1x01_P1.00mm_Vertical*%
%TO.CVal,TestPoint*%
%TO.CLbN,Connector_PinHeader_1.00mm*%
%TO.CMnt,TH*%
%TO.CRot,180*%
X184787499Y-70535800D03*
D11*
X185922499Y-69540800D02*
X185922499Y-71530800D01*
X183652499Y-71530800D01*
X183652499Y-69540800D01*
X185922499Y-69540800D01*
D12*
%TO.P,TP6,1,1_1*%
X184787499Y-70535800D03*
%TD*%
D10*
%TO.C,R75*%
%TO.CFtp,R_0603_1608Metric_Pad0.98x0.95mm_HandSolder*%
%TO.CVal,1k/25V/0603/1\u0025*%
%TO.CLbN,Resistor_SMD*%
%TO.CMnt,SMD*%
%TO.CRot,0*%
X137710928Y-58806935D03*
D11*
X139355928Y-58081935D02*
X139355928Y-59531935D01*
X136065928Y-59531935D01*
X136065928Y-58081935D01*
X139355928Y-58081935D01*
D12*
%TO.P,R75,1*%
X136798428Y-58806935D03*
D13*
%TO.P,R75,2*%
X138623428Y-58806935D03*
%TD*%
D10*
%TO.C,H3*%
%TO.CFtp,MountingHole_3.5mm_Pad*%
%TO.CVal,MountingHole*%
%TO.CLbN,MountingHole*%
%TO.CMnt,Other*%
%TO.CRot,0*%
X192400000Y-159000000D03*
D11*
X192689206Y-155263693D02*
X193071859Y-155313235D01*
X193447367Y-155401854D01*
X193811772Y-155528613D01*
X194161231Y-155692177D01*
X194492013Y-155890803D01*
X194800614Y-156122383D01*
X195083761Y-156384459D01*
X195338478Y-156674280D01*
X195562035Y-156988740D01*
X195752072Y-157324518D01*
X195906584Y-157678069D01*
X196023920Y-158045625D01*
X196102842Y-158423300D01*
X196142516Y-158807106D01*
X196144999Y-159000000D01*
X196142516Y-159192893D01*
X196102842Y-159576699D01*
X196023920Y-159954374D01*
X195906584Y-160321930D01*
X195752072Y-160675481D01*
X195562035Y-161011259D01*
X195338478Y-161325719D01*
X195083761Y-161615540D01*
X194800614Y-161877616D01*
X194492013Y-162109196D01*
X194161231Y-162307822D01*
X193811772Y-162471386D01*
X193447367Y-162598145D01*
X193071859Y-162686764D01*
X192689206Y-162736306D01*
X192303512Y-162746240D01*
X191918829Y-162716463D01*
X191539250Y-162647291D01*
X191168796Y-162539458D01*
X190811381Y-162394100D01*
X190470820Y-162212771D01*
X190150708Y-161997384D01*
X189854439Y-161750226D01*
X189585145Y-161473908D01*
X189345693Y-161171367D01*
X189138618Y-160845811D01*
X188966121Y-160500703D01*
X188830013Y-160139658D01*
X188731753Y-159766552D01*
X188672378Y-159385321D01*
X188652517Y-159000000D01*
X188672378Y-158614678D01*
X188731753Y-158233447D01*
X188830013Y-157860341D01*
X188966121Y-157499296D01*
X189138618Y-157154188D01*
X189345693Y-156828632D01*
X189585145Y-156526091D01*
X189854439Y-156249773D01*
X190150708Y-156002615D01*
X190470820Y-155787228D01*
X190811381Y-155605899D01*
X191168796Y-155460541D01*
X191539250Y-155352708D01*
X191918829Y-155283536D01*
X192303512Y-155253759D01*
X192689206Y-155263693D01*
D12*
%TO.P,H3,1*%
X192400000Y-159000000D03*
%TD*%
D10*
%TO.C,R45*%
%TO.CFtp,R_0603_1608Metric_Pad0.98x0.95mm_HandSolder*%
%TO.CVal,197K/25V/0603/1\u0025*%
%TO.CLbN,Resistor_SMD*%
%TO.CMnt,SMD*%
%TO.CRot,0*%
X137716707Y-73050000D03*
D11*
X139361707Y-72325000D02*
X139361707Y-73775000D01*
X136071707Y-73775000D01*
X136071707Y-72325000D01*
X139361707Y-72325000D01*
D12*
%TO.P,R45,1*%
X136804207Y-73050000D03*
D13*
%TO.P,R45,2*%
X138629207Y-73050000D03*
%TD*%
D10*
%TO.C,C5*%
%TO.CFtp,C_0603_1608Metric_Pad1.08x0.95mm_HandSolder*%
%TO.CVal,0.1uF/25V/0603/1\u0025*%
%TO.CLbN,Capacitor_SMD*%
%TO.CMnt,SMD*%
%TO.CRot,-90*%
X106813362Y-70365200D03*
D11*
X107538362Y-68720200D02*
X107538362Y-72010200D01*
X106088362Y-72010200D01*
X106088362Y-68720200D01*
X107538362Y-68720200D01*
D12*
%TO.P,C5,1*%
X106813362Y-69502700D03*
D13*
%TO.P,C5,2*%
X106813362Y-71227700D03*
%TD*%
D10*
%TO.C,TP2*%
%TO.CFtp,PinHeader_1x01_P1.00mm_Vertical*%
%TO.CVal,TestPoint_EOC*%
%TO.CLbN,Connector_PinHeader_1.00mm*%
%TO.CMnt,TH*%
%TO.CRot,0*%
X148450000Y-88722200D03*
D11*
X149585000Y-87727200D02*
X149585000Y-89717200D01*
X147315000Y-89717200D01*
X147315000Y-87727200D01*
X149585000Y-87727200D01*
D12*
%TO.P,TP2,1,1_1*%
X148450000Y-88722200D03*
%TD*%
D10*
%TO.C,C52*%
%TO.CFtp,C_0805_2012Metric_Pad1.18x1.45mm_HandSolder*%
%TO.CVal,22uF/25V/0805/1\u0025*%
%TO.CLbN,Capacitor_SMD*%
%TO.CMnt,SMD*%
%TO.CRot,0*%
X130762500Y-77554255D03*
D11*
X132637500Y-76579255D02*
X132637500Y-78529255D01*
X128887500Y-78529255D01*
X128887500Y-76579255D01*
X132637500Y-76579255D01*
D12*
%TO.P,C52,1*%
X129725000Y-77554255D03*
D13*
%TO.P,C52,2*%
X131800000Y-77554255D03*
%TD*%
D10*
%TO.C,JP4*%
%TO.CFtp,SolderJumper-2_P1.3mm_Open_Pad1.0x1.5mm*%
%TO.CVal,SolderJumper_2_Open*%
%TO.CLbN,Jumper*%
%TO.CMnt,Other*%
%TO.CRot,180*%
X193179999Y-70530386D03*
D11*
X194824999Y-69285386D02*
X194824999Y-71775386D01*
X191534999Y-71775386D01*
X191534999Y-69285386D01*
X194824999Y-69285386D01*
D12*
%TO.P,JP4,1,A_1*%
X193829998Y-70530386D03*
D13*
%TO.P,JP4,2,B_2*%
X192530000Y-70530386D03*
%TD*%
D10*
%TO.C,D11*%
%TO.CFtp,SS34*%
%TO.CVal,SS34*%
%TO.CLbN,Khach Footprint*%
%TO.CMnt,SMD*%
%TO.CRot,180*%
X169824400Y-95783400D03*
D11*
X172359400Y-93629400D02*
X172359400Y-94162800D01*
X172829300Y-94162800D01*
X172829300Y-97404000D01*
X172359400Y-97404000D01*
X172359400Y-97937400D01*
X167289400Y-97937400D01*
X167289400Y-97404000D01*
X166819500Y-97404000D01*
X166819500Y-94162800D01*
X167289400Y-94162800D01*
X167289400Y-93629400D01*
X172359400Y-93629400D01*
D12*
%TO.P,D11,1,K_1*%
X171500800Y-95783400D03*
D13*
%TO.P,D11,2,A_2*%
X168148000Y-95783400D03*
%TD*%
D10*
%TO.C,TP4*%
%TO.CFtp,PinHeader_1x01_P1.00mm_Vertical*%
%TO.CVal,TestPoint*%
%TO.CLbN,Connector_PinHeader_1.00mm*%
%TO.CMnt,TH*%
%TO.CRot,180*%
X184787499Y-79044800D03*
D11*
X185922499Y-78049800D02*
X185922499Y-80039800D01*
X183652499Y-80039800D01*
X183652499Y-78049800D01*
X185922499Y-78049800D01*
D12*
%TO.P,TP4,1,1_1*%
X184787499Y-79044800D03*
%TD*%
D10*
%TO.C,R7*%
%TO.CFtp,R_0603_1608Metric_Pad0.98x0.95mm_HandSolder*%
%TO.CVal,100K/25V/0603/1\u0025*%
%TO.CLbN,Resistor_SMD*%
%TO.CMnt,SMD*%
%TO.CRot,90*%
X108340238Y-70365200D03*
D11*
X109065238Y-68720200D02*
X109065238Y-72010200D01*
X107615238Y-72010200D01*
X107615238Y-68720200D01*
X109065238Y-68720200D01*
D12*
%TO.P,R7,1*%
X108340238Y-71277700D03*
D13*
%TO.P,R7,2*%
X108340238Y-69452700D03*
%TD*%
D10*
%TO.C,U10*%
%TO.CFtp,VALVE*%
%TO.CVal,VALVE2*%
%TO.CLbN,Khach Footprint*%
%TO.CMnt,SMD*%
%TO.CRot,180*%
X176283000Y-156760000D03*
D14*
X173716000Y-160600000D02*
X173716000Y-151877500D01*
X159400000Y-151877500D01*
X159400000Y-160600000D01*
X173716000Y-160600000D01*
D12*
%TO.P,U10,1,+_1*%
X172573000Y-155370000D03*
D13*
%TO.P,U10,*%
X162400000Y-157600000D03*
%TO.P,U10,2,-_2*%
X172573000Y-152830000D03*
%TD*%
D10*
%TO.C,C26*%
%TO.CFtp,C_0603_1608Metric_Pad1.08x0.95mm_HandSolder*%
%TO.CVal,0.1uF/25V/0603/1\u0025*%
%TO.CLbN,Capacitor_SMD*%
%TO.CMnt,SMD*%
%TO.CRot,-90*%
X107877200Y-90500101D03*
D11*
X108602200Y-88855101D02*
X108602200Y-92145101D01*
X107152200Y-92145101D01*
X107152200Y-88855101D01*
X108602200Y-88855101D01*
D12*
%TO.P,C26,1*%
X107877200Y-89637600D03*
D13*
%TO.P,C26,2*%
X107877200Y-91362602D03*
%TD*%
D10*
%TO.C,R16*%
%TO.CFtp,R_0603_1608Metric_Pad0.98x0.95mm_HandSolder*%
%TO.CVal,10K/25V/0603/1\u0025*%
%TO.CLbN,Resistor_SMD*%
%TO.CMnt,SMD*%
%TO.CRot,-90*%
X94778754Y-102767370D03*
D11*
X95503754Y-101122370D02*
X95503754Y-104412370D01*
X94053754Y-104412370D01*
X94053754Y-101122370D01*
X95503754Y-101122370D01*
D12*
%TO.P,R16,1*%
X94778754Y-101854870D03*
D13*
%TO.P,R16,2*%
X94778754Y-103679870D03*
%TD*%
D10*
%TO.C,R77*%
%TO.CFtp,R_0603_1608Metric_Pad0.98x0.95mm_HandSolder*%
%TO.CVal,330/25V/0603/1\u0025*%
%TO.CLbN,Resistor_SMD*%
%TO.CMnt,SMD*%
%TO.CRot,0*%
X110150000Y-64463114D03*
D11*
X111795000Y-63738114D02*
X111795000Y-65188114D01*
X108505000Y-65188114D01*
X108505000Y-63738114D01*
X111795000Y-63738114D01*
D12*
%TO.P,R77,1*%
X109237500Y-64463114D03*
D13*
%TO.P,R77,2*%
X111062500Y-64463114D03*
%TD*%
D10*
%TO.C,R40*%
%TO.CFtp,R_0603_1608Metric_Pad0.98x0.95mm_HandSolder*%
%TO.CVal,1K/25V/0603/1\u0025*%
%TO.CLbN,Resistor_SMD*%
%TO.CMnt,SMD*%
%TO.CRot,0*%
X138312500Y-102400000D03*
D11*
X139957500Y-101675000D02*
X139957500Y-103125000D01*
X136667500Y-103125000D01*
X136667500Y-101675000D01*
X139957500Y-101675000D01*
D12*
%TO.P,R40,1*%
X137400000Y-102400000D03*
D13*
%TO.P,R40,2*%
X139225000Y-102400000D03*
%TD*%
D10*
%TO.C,C27*%
%TO.CFtp,C_0603_1608Metric_Pad1.08x0.95mm_HandSolder*%
%TO.CVal,1nF/25V/0603/1\u0025*%
%TO.CLbN,Capacitor_SMD*%
%TO.CMnt,SMD*%
%TO.CRot,-90*%
X149562793Y-84812169D03*
D11*
X150287793Y-83167169D02*
X150287793Y-86457169D01*
X148837793Y-86457169D01*
X148837793Y-83167169D01*
X150287793Y-83167169D01*
D12*
%TO.P,C27,1*%
X149562793Y-83949668D03*
D13*
%TO.P,C27,2*%
X149562793Y-85674670D03*
%TD*%
D10*
%TO.C,C3*%
%TO.CFtp,C_0603_1608Metric_Pad1.08x0.95mm_HandSolder*%
%TO.CVal,0.1uF/25V/0603/1\u0025*%
%TO.CLbN,Capacitor_SMD*%
%TO.CMnt,SMD*%
%TO.CRot,-90*%
X134264400Y-77419200D03*
D11*
X134989400Y-75774200D02*
X134989400Y-79064200D01*
X133539400Y-79064200D01*
X133539400Y-75774200D01*
X134989400Y-75774200D01*
D12*
%TO.P,C3,1*%
X134264400Y-76556699D03*
D13*
%TO.P,C3,2*%
X134264400Y-78281701D03*
%TD*%
D10*
%TO.C,R13*%
%TO.CFtp,R_0603_1608Metric_Pad0.98x0.95mm_HandSolder*%
%TO.CVal,10K/25V/0603/1\u0025*%
%TO.CLbN,Resistor_SMD*%
%TO.CMnt,SMD*%
%TO.CRot,180*%
X158087500Y-87276000D03*
D11*
X159732500Y-86551000D02*
X159732500Y-88001000D01*
X156442500Y-88001000D01*
X156442500Y-86551000D01*
X159732500Y-86551000D01*
D12*
%TO.P,R13,1*%
X159000000Y-87276000D03*
D13*
%TO.P,R13,2*%
X157175000Y-87276000D03*
%TD*%
D10*
%TO.C,C33*%
%TO.CFtp,C_0603_1608Metric_Pad1.08x0.95mm_HandSolder*%
%TO.CVal,0.1uF/25V/0603/1\u0025*%
%TO.CLbN,Capacitor_SMD*%
%TO.CMnt,SMD*%
%TO.CRot,180*%
X146227800Y-109804200D03*
D11*
X147872800Y-109079200D02*
X147872800Y-110529200D01*
X144582800Y-110529200D01*
X144582800Y-109079200D01*
X147872800Y-109079200D01*
D12*
%TO.P,C33,1*%
X147090301Y-109804200D03*
D13*
%TO.P,C33,2*%
X145365299Y-109804200D03*
%TD*%
D10*
%TO.C,C34*%
%TO.CFtp,CP_Elec_6.3x5.4_Nichicon*%
%TO.CVal,100uF/16V*%
%TO.CLbN,Capacitor_SMD*%
%TO.CMnt,SMD*%
%TO.CRot,0*%
X146800000Y-105200000D03*
D11*
X150345000Y-101655000D02*
X150345000Y-104155000D01*
X151495000Y-104155000D01*
X151495000Y-106245000D01*
X150345000Y-106245000D01*
X150345000Y-108745000D01*
X144402072Y-108745000D01*
X143255000Y-107597928D01*
X143255000Y-106245000D01*
X142105000Y-106245000D01*
X142105000Y-104155000D01*
X143255000Y-104155000D01*
X143255000Y-102802072D01*
X144402072Y-101655000D01*
X150345000Y-101655000D01*
D12*
%TO.P,C34,1*%
X144100000Y-105200000D03*
D13*
%TO.P,C34,2*%
X149500000Y-105200000D03*
%TD*%
D10*
%TO.C,C43*%
%TO.CFtp,CP_Elec_6.3x5.4_Nichicon*%
%TO.CVal,100uF/16V*%
%TO.CLbN,Capacitor_SMD*%
%TO.CMnt,SMD*%
%TO.CRot,180*%
X140091500Y-145600005D03*
D11*
X142489428Y-142055005D02*
X143636500Y-143202077D01*
X143636500Y-144555005D01*
X144786500Y-144555005D01*
X144786500Y-146645005D01*
X143636500Y-146645005D01*
X143636500Y-147997933D01*
X142489428Y-149145005D01*
X136546500Y-149145005D01*
X136546500Y-146645005D01*
X135396500Y-146645005D01*
X135396500Y-144555005D01*
X136546500Y-144555005D01*
X136546500Y-142055005D01*
X142489428Y-142055005D01*
D12*
%TO.P,C43,1*%
X142791500Y-145600005D03*
D13*
%TO.P,C43,2*%
X137391500Y-145600005D03*
%TD*%
D10*
%TO.C,U2*%
%TO.CFtp,TPS563203DRLR*%
%TO.CVal,TPS563203DRLR*%
%TO.CLbN,Khach Footprint*%
%TO.CMnt,SMD*%
%TO.CRot,0*%
X131962500Y-62518255D03*
D11*
X132859200Y-61418355D02*
X132859200Y-61654829D01*
X133367200Y-61654829D01*
X133367200Y-63381681D01*
X132859200Y-63381681D01*
X132859200Y-63618155D01*
X131065800Y-63618155D01*
X131065800Y-63381681D01*
X130557800Y-63381681D01*
X130557800Y-61654829D01*
X131065800Y-61654829D01*
X131065800Y-61418355D01*
X132859200Y-61418355D01*
D12*
%TO.P,U2,1,VIN_1*%
X131162400Y-62018129D03*
D13*
%TO.P,U2,2,SW_2*%
X131162400Y-62518255D03*
%TO.P,U2,3,GND_3*%
X131162400Y-63018381D03*
%TO.P,U2,4,BST_4*%
X132762600Y-63018381D03*
%TO.P,U2,5,EN_5*%
X132762600Y-62518255D03*
%TO.P,U2,6,FB_6*%
X132762600Y-62018129D03*
%TD*%
D10*
%TO.C,Q10*%
%TO.CFtp,AO3400A*%
%TO.CVal,AO3400A*%
%TO.CLbN,Khach Footprint*%
%TO.CMnt,SMD*%
%TO.CRot,-90*%
X157091500Y-142087500D03*
D11*
X158886500Y-139982500D02*
X158886500Y-144192500D01*
X155296500Y-144192500D01*
X155296500Y-139982500D01*
X158886500Y-139982500D01*
D12*
%TO.P,Q10,1,G_1*%
X158041500Y-140832500D03*
D13*
%TO.P,Q10,2,S_2*%
X156141500Y-140832500D03*
%TO.P,Q10,3,D_3*%
X157091500Y-143342500D03*
%TD*%
D10*
%TO.C,R74*%
%TO.CFtp,R_0603_1608Metric_Pad0.98x0.95mm_HandSolder*%
%TO.CVal,30K/25V/0603/1\u0025*%
%TO.CLbN,Resistor_SMD*%
%TO.CMnt,SMD*%
%TO.CRot,0*%
X134346679Y-60441750D03*
D11*
X135991679Y-59716750D02*
X135991679Y-61166750D01*
X132701679Y-61166750D01*
X132701679Y-59716750D01*
X135991679Y-59716750D01*
D12*
%TO.P,R74,1*%
X133434179Y-60441750D03*
D13*
%TO.P,R74,2*%
X135259179Y-60441750D03*
%TD*%
D10*
%TO.C,R54*%
%TO.CFtp,R_0603_1608Metric_Pad0.98x0.95mm_HandSolder*%
%TO.CVal,1K/25V/0603/1\u0025*%
%TO.CLbN,Resistor_SMD*%
%TO.CMnt,SMD*%
%TO.CRot,90*%
X124002800Y-137795000D03*
D11*
X124727800Y-136150000D02*
X124727800Y-139440000D01*
X123277800Y-139440000D01*
X123277800Y-136150000D01*
X124727800Y-136150000D01*
D12*
%TO.P,R54,1*%
X124002800Y-138707500D03*
D13*
%TO.P,R54,2*%
X124002800Y-136882500D03*
%TD*%
D10*
%TO.C,D16*%
%TO.CFtp,SS34*%
%TO.CVal,SS34*%
%TO.CLbN,Khach Footprint*%
%TO.CMnt,SMD*%
%TO.CRot,180*%
X125175000Y-132994400D03*
D11*
X127710000Y-130840400D02*
X127710000Y-131373800D01*
X128179900Y-131373800D01*
X128179900Y-134615000D01*
X127710000Y-134615000D01*
X127710000Y-135148400D01*
X122640000Y-135148400D01*
X122640000Y-134615000D01*
X122170100Y-134615000D01*
X122170100Y-131373800D01*
X122640000Y-131373800D01*
X122640000Y-130840400D01*
X127710000Y-130840400D01*
D12*
%TO.P,D16,1,K_1*%
X126851400Y-132994400D03*
D13*
%TO.P,D16,2,A_2*%
X123498600Y-132994400D03*
%TD*%
D10*
%TO.C,C47*%
%TO.CFtp,C_0603_1608Metric_Pad1.08x0.95mm_HandSolder*%
%TO.CVal,0.1uF/25V/0603/1\u0025*%
%TO.CLbN,Capacitor_SMD*%
%TO.CMnt,SMD*%
%TO.CRot,180*%
X164387500Y-81576000D03*
D11*
X166032500Y-80851000D02*
X166032500Y-82301000D01*
X162742500Y-82301000D01*
X162742500Y-80851000D01*
X166032500Y-80851000D01*
D12*
%TO.P,C47,1*%
X165250001Y-81576000D03*
D13*
%TO.P,C47,2*%
X163524999Y-81576000D03*
%TD*%
D10*
%TO.C,D35*%
%TO.CFtp,LED_0603_1608Metric*%
%TO.CVal,LED_RED*%
%TO.CLbN,LED_SMD*%
%TO.CMnt,SMD*%
%TO.CRot,0*%
X106731895Y-64459454D03*
D11*
X108206895Y-63734454D02*
X108206895Y-65184454D01*
X105256895Y-65184454D01*
X105256895Y-63734454D01*
X108206895Y-63734454D01*
D12*
%TO.P,D35,1,K_1*%
X105944395Y-64459454D03*
D13*
%TO.P,D35,2,A_2*%
X107519395Y-64459454D03*
%TD*%
D10*
%TO.C,R36*%
%TO.CFtp,R_0603_1608Metric_Pad0.98x0.95mm_HandSolder*%
%TO.CVal,100R/25V/0603/1\u0025*%
%TO.CLbN,Resistor_SMD*%
%TO.CMnt,SMD*%
%TO.CRot,90*%
X130746558Y-137871200D03*
D11*
X131471558Y-136226200D02*
X131471558Y-139516200D01*
X130021558Y-139516200D01*
X130021558Y-136226200D01*
X131471558Y-136226200D01*
D12*
%TO.P,R36,1*%
X130746558Y-138783700D03*
D13*
%TO.P,R36,2*%
X130746558Y-136958700D03*
%TD*%
D10*
%TO.C,D18*%
%TO.CFtp,SS34*%
%TO.CVal,SS34*%
%TO.CLbN,Khach Footprint*%
%TO.CMnt,SMD*%
%TO.CRot,180*%
X157675000Y-133451600D03*
D11*
X160210000Y-131297600D02*
X160210000Y-131831000D01*
X160679900Y-131831000D01*
X160679900Y-135072200D01*
X160210000Y-135072200D01*
X160210000Y-135605600D01*
X155140000Y-135605600D01*
X155140000Y-135072200D01*
X154670100Y-135072200D01*
X154670100Y-131831000D01*
X155140000Y-131831000D01*
X155140000Y-131297600D01*
X160210000Y-131297600D01*
D12*
%TO.P,D18,1,K_1*%
X159351400Y-133451600D03*
D13*
%TO.P,D18,2,A_2*%
X155998600Y-133451600D03*
%TD*%
D10*
%TO.C,C32*%
%TO.CFtp,CP_Elec_6.3x5.4_Nichicon*%
%TO.CVal,100uF/16V*%
%TO.CLbN,Capacitor_SMD*%
%TO.CMnt,SMD*%
%TO.CRot,0*%
X178400000Y-105200000D03*
D11*
X181945000Y-101655000D02*
X181945000Y-104155000D01*
X183095000Y-104155000D01*
X183095000Y-106245000D01*
X181945000Y-106245000D01*
X181945000Y-108745000D01*
X176002072Y-108745000D01*
X174855000Y-107597928D01*
X174855000Y-106245000D01*
X173705000Y-106245000D01*
X173705000Y-104155000D01*
X174855000Y-104155000D01*
X174855000Y-102802072D01*
X176002072Y-101655000D01*
X181945000Y-101655000D01*
D12*
%TO.P,C32,1*%
X175700000Y-105200000D03*
D13*
%TO.P,C32,2*%
X181100000Y-105200000D03*
%TD*%
D10*
%TO.C,SW2*%
%TO.CFtp,SW_Push_1P1T_NO_E-Switch_TL3301NxxxxxG*%
%TO.CVal,SW2*%
%TO.CLbN,Button_Switch_SMD*%
%TO.CMnt,SMD*%
%TO.CRot,-90*%
X98526600Y-91186000D03*
D11*
X101771600Y-85341000D02*
X101771600Y-97031000D01*
X95281600Y-97031000D01*
X95281600Y-85341000D01*
X101771600Y-85341000D01*
D12*
%TO.P,SW2,1,1_1*%
X100776600Y-86636000D03*
D13*
%TO.P,SW2,2,2_2*%
X100776600Y-95736000D03*
%TO.P,SW2,3,3_3*%
X96276600Y-86636000D03*
%TO.P,SW2,4,4_4*%
X96276600Y-95736000D03*
%TD*%
D10*
%TO.C,U8*%
%TO.CFtp,PUMP*%
%TO.CVal,PUMP*%
%TO.CLbN,Khach Footprint*%
%TO.CMnt,SMD*%
%TO.CRot,180*%
X176266738Y-119758214D03*
D14*
X176844999Y-120037500D02*
X176844999Y-115037500D01*
X153605000Y-115037500D01*
X153605000Y-120037500D01*
X176844999Y-120037500D01*
D12*
%TO.P,U8,1,+_1*%
X174344999Y-117537500D03*
D13*
%TO.P,U8,2,-_2*%
X156105000Y-117537500D03*
%TD*%
D10*
%TO.C,L5*%
%TO.CFtp,4.7uH_2A*%
%TO.CVal,4.7uH/4A*%
%TO.CLbN,Khach Footprint*%
%TO.CMnt,SMD*%
%TO.CRot,-90*%
X125081900Y-62836141D03*
D11*
X128676900Y-58591141D02*
X128676900Y-67081141D01*
X121486900Y-67081141D01*
X121486900Y-58591141D01*
X128676900Y-58591141D01*
D12*
%TO.P,L5,1,1_1*%
X125081900Y-60586141D03*
D13*
%TO.P,L5,2,2_2*%
X125081900Y-65086141D03*
%TD*%
D10*
%TO.C,TP1*%
%TO.CFtp,TestPoint_Pad_D1.0mm*%
%TO.CVal,TestPoint*%
%TO.CLbN,TestPoint*%
%TO.CMnt,Other*%
%TO.CRot,0*%
X170078400Y-78079600D03*
D11*
X170328435Y-77113891D02*
X170517718Y-77183993D01*
X170689006Y-77290758D01*
X170835302Y-77429822D01*
X170950605Y-77595484D01*
X171030204Y-77780969D01*
X171070848Y-77978745D01*
X171073398Y-78079600D01*
X171070848Y-78180454D01*
X171030204Y-78378230D01*
X170950605Y-78563715D01*
X170835302Y-78729377D01*
X170689006Y-78868441D01*
X170517718Y-78975206D01*
X170328435Y-79045308D01*
X170128929Y-79075872D01*
X169927338Y-79065648D01*
X169731946Y-79015058D01*
X169550732Y-78926167D01*
X169391119Y-78802618D01*
X169259645Y-78649470D01*
X169161691Y-78472990D01*
X169101266Y-78280403D01*
X169080847Y-78079600D01*
X169101266Y-77878796D01*
X169161691Y-77686209D01*
X169259645Y-77509729D01*
X169391119Y-77356581D01*
X169550732Y-77233032D01*
X169731946Y-77144141D01*
X169927338Y-77093551D01*
X170128929Y-77083327D01*
X170328435Y-77113891D01*
D12*
%TO.P,TP1,1,1_1*%
X170078400Y-78079600D03*
%TD*%
D10*
%TO.C,R11*%
%TO.CFtp,R_0603_1608Metric_Pad0.98x0.95mm_HandSolder*%
%TO.CVal,4K7/25V/0603/1\u0025*%
%TO.CLbN,Resistor_SMD*%
%TO.CMnt,SMD*%
%TO.CRot,-90*%
X166900000Y-82200000D03*
D11*
X167625000Y-80555000D02*
X167625000Y-83845000D01*
X166175000Y-83845000D01*
X166175000Y-80555000D01*
X167625000Y-80555000D01*
D12*
%TO.P,R11,1*%
X166900000Y-81287500D03*
D13*
%TO.P,R11,2*%
X166900000Y-83112500D03*
%TD*%
D10*
%TO.C,D15*%
%TO.CFtp,LED_0603_1608Metric_Pad1.05x0.95mm_HandSolder*%
%TO.CVal,LED_RED*%
%TO.CLbN,LED_SMD*%
%TO.CMnt,SMD*%
%TO.CRot,-90*%
X161966001Y-71178000D03*
D11*
X162691001Y-69533000D02*
X162691001Y-72823000D01*
X161241001Y-72823000D01*
X161241001Y-69533000D01*
X162691001Y-69533000D01*
D12*
%TO.P,D15,1,K_1*%
X161966001Y-70303001D03*
D13*
%TO.P,D15,2,A_2*%
X161966001Y-72052999D03*
%TD*%
D10*
%TO.C,R55*%
%TO.CFtp,R_0603_1608Metric_Pad0.98x0.95mm_HandSolder*%
%TO.CVal,100R/25V/0603/1\u0025*%
%TO.CLbN,Resistor_SMD*%
%TO.CMnt,SMD*%
%TO.CRot,90*%
X163200000Y-137800000D03*
D11*
X163925000Y-136155000D02*
X163925000Y-139445000D01*
X162475000Y-139445000D01*
X162475000Y-136155000D01*
X163925000Y-136155000D01*
D12*
%TO.P,R55,1*%
X163200000Y-138712500D03*
D13*
%TO.P,R55,2*%
X163200000Y-136887500D03*
%TD*%
D10*
%TO.C,R37*%
%TO.CFtp,R_0603_1608Metric_Pad0.98x0.95mm_HandSolder*%
%TO.CVal,10K/25V/0603/1\u0025*%
%TO.CLbN,Resistor_SMD*%
%TO.CMnt,SMD*%
%TO.CRot,180*%
X162229800Y-100812600D03*
D11*
X163874800Y-100087600D02*
X163874800Y-101537600D01*
X160584800Y-101537600D01*
X160584800Y-100087600D01*
X163874800Y-100087600D01*
D12*
%TO.P,R37,1*%
X163142300Y-100812600D03*
D13*
%TO.P,R37,2*%
X161317300Y-100812600D03*
%TD*%
D10*
%TO.C,C2*%
%TO.CFtp,C_0805_2012Metric_Pad1.18x1.45mm_HandSolder*%
%TO.CVal,10uF/25V/0805/1\u0025*%
%TO.CLbN,Capacitor_SMD*%
%TO.CMnt,SMD*%
%TO.CRot,0*%
X130762500Y-72800000D03*
D11*
X132637500Y-71825000D02*
X132637500Y-73775000D01*
X128887500Y-73775000D01*
X128887500Y-71825000D01*
X132637500Y-71825000D01*
D12*
%TO.P,C2,1*%
X129725000Y-72800000D03*
D13*
%TO.P,C2,2*%
X131800000Y-72800000D03*
%TD*%
D10*
%TO.C,C22*%
%TO.CFtp,C_0603_1608Metric_Pad1.08x0.95mm_HandSolder*%
%TO.CVal,10nF/25V/0603/1\u0025*%
%TO.CLbN,Capacitor_SMD*%
%TO.CMnt,SMD*%
%TO.CRot,0*%
X164387500Y-83100000D03*
D11*
X166032500Y-82375000D02*
X166032500Y-83825000D01*
X162742500Y-83825000D01*
X162742500Y-82375000D01*
X166032500Y-82375000D01*
D12*
%TO.P,C22,1*%
X163525000Y-83100000D03*
D13*
%TO.P,C22,2*%
X165250000Y-83100000D03*
%TD*%
D10*
%TO.C,R56*%
%TO.CFtp,R_0603_1608Metric_Pad0.98x0.95mm_HandSolder*%
%TO.CVal,10K/25V/0603/1\u0025*%
%TO.CLbN,Resistor_SMD*%
%TO.CMnt,SMD*%
%TO.CRot,90*%
X161160000Y-137800000D03*
D11*
X161885000Y-136155000D02*
X161885000Y-139445000D01*
X160435000Y-139445000D01*
X160435000Y-136155000D01*
X161885000Y-136155000D01*
D12*
%TO.P,R56,1*%
X161160000Y-138712500D03*
D13*
%TO.P,R56,2*%
X161160000Y-136887500D03*
%TD*%
D10*
%TO.C,C58*%
%TO.CFtp,C_0603_1608Metric_Pad1.08x0.95mm_HandSolder*%
%TO.CVal,18pF/25V/0603/1\u0025/C0G/NP0*%
%TO.CLbN,Capacitor_SMD*%
%TO.CMnt,SMD*%
%TO.CRot,180*%
X137710928Y-62076565D03*
D11*
X139355928Y-61351565D02*
X139355928Y-62801565D01*
X136065928Y-62801565D01*
X136065928Y-61351565D01*
X139355928Y-61351565D01*
D12*
%TO.P,C58,1*%
X138573428Y-62076565D03*
D13*
%TO.P,C58,2*%
X136848428Y-62076565D03*
%TD*%
D10*
%TO.C,C31*%
%TO.CFtp,C_0603_1608Metric_Pad1.08x0.95mm_HandSolder*%
%TO.CVal,0.1uF/25V/0603/1\u0025*%
%TO.CLbN,Capacitor_SMD*%
%TO.CMnt,SMD*%
%TO.CRot,180*%
X179050000Y-109675000D03*
D11*
X180695000Y-108950000D02*
X180695000Y-110400000D01*
X177405000Y-110400000D01*
X177405000Y-108950000D01*
X180695000Y-108950000D01*
D12*
%TO.P,C31,1*%
X179912501Y-109675000D03*
D13*
%TO.P,C31,2*%
X178187499Y-109675000D03*
%TD*%
D10*
%TO.C,C60*%
%TO.CFtp,C_0805_2012Metric_Pad1.18x1.45mm_HandSolder*%
%TO.CVal,22uF/25V/0805/1\u0025*%
%TO.CLbN,Capacitor_SMD*%
%TO.CMnt,SMD*%
%TO.CRot,0*%
X103000000Y-70600000D03*
D11*
X104875000Y-69625000D02*
X104875000Y-71575000D01*
X101125000Y-71575000D01*
X101125000Y-69625000D01*
X104875000Y-69625000D01*
D12*
%TO.P,C60,1*%
X101962500Y-70600000D03*
D13*
%TO.P,C60,2*%
X104037500Y-70600000D03*
%TD*%
D10*
%TO.C,R34*%
%TO.CFtp,R_0603_1608Metric_Pad0.98x0.95mm_HandSolder*%
%TO.CVal,10K/25V/0603/1\u0025*%
%TO.CLbN,Resistor_SMD*%
%TO.CMnt,SMD*%
%TO.CRot,180*%
X181637501Y-83627280D03*
D11*
X183282501Y-82902280D02*
X183282501Y-84352280D01*
X179992501Y-84352280D01*
X179992501Y-82902280D01*
X183282501Y-82902280D01*
D12*
%TO.P,R34,1*%
X182550001Y-83627280D03*
D13*
%TO.P,R34,2*%
X180725001Y-83627280D03*
%TD*%
D10*
%TO.C,D8*%
%TO.CFtp,LED_0603_1608Metric_Pad1.05x0.95mm_HandSolder*%
%TO.CVal,LED_2*%
%TO.CLbN,LED_SMD*%
%TO.CMnt,SMD*%
%TO.CRot,-90*%
X151800000Y-53132377D03*
D11*
X152525000Y-51487377D02*
X152525000Y-54777377D01*
X151075000Y-54777377D01*
X151075000Y-51487377D01*
X152525000Y-51487377D01*
D12*
%TO.P,D8,1,K_1*%
X151800000Y-52257378D03*
D13*
%TO.P,D8,2,A_2*%
X151800000Y-54007376D03*
%TD*%
D10*
%TO.C,R24*%
%TO.CFtp,R_0603_1608Metric_Pad0.98x0.95mm_HandSolder*%
%TO.CVal,1K/25V/0603/1\u0025*%
%TO.CLbN,Resistor_SMD*%
%TO.CMnt,SMD*%
%TO.CRot,-90*%
X158450000Y-46507377D03*
D11*
X159175000Y-44862377D02*
X159175000Y-48152377D01*
X157725000Y-48152377D01*
X157725000Y-44862377D01*
X159175000Y-44862377D01*
D12*
%TO.P,R24,1*%
X158450000Y-45594877D03*
D13*
%TO.P,R24,2*%
X158450000Y-47419877D03*
%TD*%
D10*
%TO.C,TP7*%
%TO.CFtp,PinHeader_1x01_P1.00mm_Vertical*%
%TO.CVal,TestPoint*%
%TO.CLbN,Connector_PinHeader_1.00mm*%
%TO.CMnt,TH*%
%TO.CRot,180*%
X184787499Y-66548000D03*
D11*
X185922499Y-65553000D02*
X185922499Y-67543000D01*
X183652499Y-67543000D01*
X183652499Y-65553000D01*
X185922499Y-65553000D01*
D12*
%TO.P,TP7,1,1_1*%
X184787499Y-66548000D03*
%TD*%
D10*
%TO.C,C45*%
%TO.CFtp,CP_Elec_6.3x5.4_Nichicon*%
%TO.CVal,100uF/16V*%
%TO.CLbN,Capacitor_SMD*%
%TO.CMnt,SMD*%
%TO.CRot,180*%
X172291500Y-145400005D03*
D11*
X174689428Y-141855005D02*
X175836500Y-143002077D01*
X175836500Y-144355005D01*
X176986500Y-144355005D01*
X176986500Y-146445005D01*
X175836500Y-146445005D01*
X175836500Y-147797933D01*
X174689428Y-148945005D01*
X168746500Y-148945005D01*
X168746500Y-146445005D01*
X167596500Y-146445005D01*
X167596500Y-144355005D01*
X168746500Y-144355005D01*
X168746500Y-141855005D01*
X174689428Y-141855005D01*
D12*
%TO.P,C45,1*%
X174991500Y-145400005D03*
D13*
%TO.P,C45,2*%
X169591500Y-145400005D03*
%TD*%
D10*
%TO.C,C29*%
%TO.CFtp,C_0603_1608Metric_Pad1.08x0.95mm_HandSolder*%
%TO.CVal,10uF/25V/0603/1\u0025*%
%TO.CLbN,Capacitor_SMD*%
%TO.CMnt,SMD*%
%TO.CRot,90*%
X161926695Y-67619364D03*
D11*
X162651695Y-65974364D02*
X162651695Y-69264364D01*
X161201695Y-69264364D01*
X161201695Y-65974364D01*
X162651695Y-65974364D01*
D12*
%TO.P,C29,1*%
X161926695Y-68481865D03*
D13*
%TO.P,C29,2*%
X161926695Y-66756863D03*
%TD*%
D10*
%TO.C,R39*%
%TO.CFtp,R_0603_1608Metric_Pad0.98x0.95mm_HandSolder*%
%TO.CVal,1K/25V/0603/1\u0025*%
%TO.CLbN,Resistor_SMD*%
%TO.CMnt,SMD*%
%TO.CRot,0*%
X170280000Y-102318918D03*
D11*
X171925000Y-101593918D02*
X171925000Y-103043918D01*
X168635000Y-103043918D01*
X168635000Y-101593918D01*
X171925000Y-101593918D01*
D12*
%TO.P,R39,1*%
X169367500Y-102318918D03*
D13*
%TO.P,R39,2*%
X171192500Y-102318918D03*
%TD*%
D10*
%TO.C,R76*%
%TO.CFtp,R_0603_1608Metric_Pad0.98x0.95mm_HandSolder*%
%TO.CVal,30K/25V/0603/1\u0025*%
%TO.CLbN,Resistor_SMD*%
%TO.CMnt,SMD*%
%TO.CRot,0*%
X106584179Y-66115712D03*
D11*
X108229179Y-65390712D02*
X108229179Y-66840712D01*
X104939179Y-66840712D01*
X104939179Y-65390712D01*
X108229179Y-65390712D01*
D12*
%TO.P,R76,1*%
X105671679Y-66115712D03*
D13*
%TO.P,R76,2*%
X107496679Y-66115712D03*
%TD*%
D10*
%TO.C,U5*%
%TO.CFtp,MPRLS0025PA00001A*%
%TO.CVal,MPRLS0025PA00001A*%
%TO.CLbN,Khach Footprint*%
%TO.CMnt,SMD*%
%TO.CRot,0*%
X145670000Y-84900000D03*
D11*
X148415000Y-82155000D02*
X148415000Y-87645000D01*
X142925000Y-87645000D01*
X142925000Y-82155000D01*
X148415000Y-82155000D01*
D12*
%TO.P,U5,1,SS_1*%
X144400000Y-82800000D03*
D13*
%TO.P,U5,2,MOSI/SDA_2*%
X145670000Y-82800000D03*
%TO.P,U5,3,SCLK/SCL_3*%
X146940000Y-82800000D03*
%TO.P,U5,4,VO+_4*%
X147770000Y-83630000D03*
%TO.P,U5,5*%
X147770000Y-84900000D03*
%TO.P,U5,6,VO-_6*%
X147770000Y-86170000D03*
%TO.P,U5,7,MISO_7*%
X146940000Y-87000000D03*
%TO.P,U5,8,EOC_8*%
X145670000Y-87000000D03*
%TO.P,U5,9,RES_9*%
X144400000Y-87000000D03*
%TO.P,U5,10,VSS_10*%
X143570000Y-86170000D03*
%TO.P,U5,11*%
X143570000Y-84900000D03*
%TO.P,U5,12,VDD_12*%
X143570000Y-83630000D03*
%TD*%
D10*
%TO.C,D13*%
%TO.CFtp,LED_0603_1608Metric_Pad1.05x0.95mm_HandSolder*%
%TO.CVal,LED_Red*%
%TO.CLbN,LED_SMD*%
%TO.CMnt,SMD*%
%TO.CRot,0*%
X170280000Y-100750000D03*
D11*
X171925000Y-100025000D02*
X171925000Y-101475000D01*
X168635000Y-101475000D01*
X168635000Y-100025000D01*
X171925000Y-100025000D01*
D12*
%TO.P,D13,1,K_1*%
X169405000Y-100750000D03*
D13*
%TO.P,D13,2,A_2*%
X171155000Y-100750000D03*
%TD*%
D10*
%TO.C,H2*%
%TO.CFtp,MountingHole_3.5mm_Pad*%
%TO.CVal,MountingHole*%
%TO.CLbN,MountingHole*%
%TO.CMnt,Other*%
%TO.CRot,0*%
X192400000Y-44600000D03*
D11*
X192689206Y-40863693D02*
X193071859Y-40913235D01*
X193447367Y-41001854D01*
X193811772Y-41128613D01*
X194161231Y-41292177D01*
X194492013Y-41490803D01*
X194800614Y-41722383D01*
X195083761Y-41984459D01*
X195338478Y-42274280D01*
X195562035Y-42588740D01*
X195752072Y-42924518D01*
X195906584Y-43278069D01*
X196023920Y-43645625D01*
X196102842Y-44023300D01*
X196142516Y-44407106D01*
X196144999Y-44600000D01*
X196142516Y-44792893D01*
X196102842Y-45176699D01*
X196023920Y-45554374D01*
X195906584Y-45921930D01*
X195752072Y-46275481D01*
X195562035Y-46611259D01*
X195338478Y-46925719D01*
X195083761Y-47215540D01*
X194800614Y-47477616D01*
X194492013Y-47709196D01*
X194161231Y-47907822D01*
X193811772Y-48071386D01*
X193447367Y-48198145D01*
X193071859Y-48286764D01*
X192689206Y-48336306D01*
X192303512Y-48346240D01*
X191918829Y-48316463D01*
X191539250Y-48247291D01*
X191168796Y-48139458D01*
X190811381Y-47994100D01*
X190470820Y-47812771D01*
X190150708Y-47597384D01*
X189854439Y-47350226D01*
X189585145Y-47073908D01*
X189345693Y-46771367D01*
X189138618Y-46445811D01*
X188966121Y-46100703D01*
X188830013Y-45739658D01*
X188731753Y-45366552D01*
X188672378Y-44985321D01*
X188652517Y-44600000D01*
X188672378Y-44214678D01*
X188731753Y-43833447D01*
X188830013Y-43460341D01*
X188966121Y-43099296D01*
X189138618Y-42754188D01*
X189345693Y-42428632D01*
X189585145Y-42126091D01*
X189854439Y-41849773D01*
X190150708Y-41602615D01*
X190470820Y-41387228D01*
X190811381Y-41205899D01*
X191168796Y-41060541D01*
X191539250Y-40952708D01*
X191918829Y-40883536D01*
X192303512Y-40853759D01*
X192689206Y-40863693D01*
D12*
%TO.P,H2,1*%
X192400000Y-44600000D03*
%TD*%
D10*
%TO.C,R25*%
%TO.CFtp,R_0603_1608Metric_Pad0.98x0.95mm_HandSolder*%
%TO.CVal,1K/25V/0603/1\u0025*%
%TO.CLbN,Resistor_SMD*%
%TO.CMnt,SMD*%
%TO.CRot,-90*%
X155115455Y-46507377D03*
D11*
X155840455Y-44862377D02*
X155840455Y-48152377D01*
X154390455Y-48152377D01*
X154390455Y-44862377D01*
X155840455Y-44862377D01*
D12*
%TO.P,R25,1*%
X155115455Y-45594877D03*
D13*
%TO.P,R25,2*%
X155115455Y-47419877D03*
%TD*%
D10*
%TO.C,U7*%
%TO.CFtp,PCA9685*%
%TO.CVal,PCA9685*%
%TO.CLbN,Khach Footprint*%
%TO.CMnt,SMD*%
%TO.CRot,-90*%
X154600000Y-69400000D03*
D14*
X158994200Y-65742400D02*
X150205800Y-65742400D01*
X150205800Y-73057600D01*
X158994200Y-73057600D01*
X158994200Y-65742400D01*
D12*
%TO.P,U7,1,A0_1*%
X158816400Y-66479000D03*
D13*
%TO.P,U7,2,A1_2*%
X158181400Y-66479000D03*
%TO.P,U7,3,A2_3*%
X157521000Y-66479000D03*
%TO.P,U7,4,A3_4*%
X156886000Y-66479000D03*
%TO.P,U7,5,A4_5*%
X156225600Y-66479000D03*
%TO.P,U7,6,PWM0_6*%
X155565200Y-66479000D03*
%TO.P,U7,7,PWM1_7*%
X154930200Y-66479000D03*
%TO.P,U7,8,PWM2_8*%
X154269800Y-66479000D03*
%TO.P,U7,9,PWM3_9*%
X153634800Y-66479000D03*
%TO.P,U7,10,PWM4_10*%
X152974400Y-66479000D03*
%TO.P,U7,11,PWM5_11*%
X152314000Y-66479000D03*
%TO.P,U7,12,PWM6_12*%
X151679000Y-66479000D03*
%TO.P,U7,13,PWM7_13*%
X151018600Y-66479000D03*
%TO.P,U7,14,GND_14*%
X150383600Y-66479000D03*
%TO.P,U7,15,PWM8_15*%
X150383600Y-72321000D03*
%TO.P,U7,16,PWM9_16*%
X151018600Y-72321000D03*
%TO.P,U7,17,PWM10_17*%
X151679000Y-72321000D03*
%TO.P,U7,18,PWM11_18*%
X152314000Y-72321000D03*
%TO.P,U7,19,PWM12_19*%
X152974400Y-72321000D03*
%TO.P,U7,20,PWM13_20*%
X153634800Y-72321000D03*
%TO.P,U7,21,PWM14_21*%
X154269800Y-72321000D03*
%TO.P,U7,22,PWM15_22*%
X154930200Y-72321000D03*
%TO.P,U7,23,#OE_23*%
X155565200Y-72321000D03*
%TO.P,U7,24,A5_24*%
X156225600Y-72321000D03*
%TO.P,U7,25,EXTCLK_25*%
X156886000Y-72321000D03*
%TO.P,U7,26,SCL_26*%
X157521000Y-72321000D03*
%TO.P,U7,27,SDA_27*%
X158181400Y-72321000D03*
%TO.P,U7,28,VDD_28*%
X158816400Y-72321000D03*
%TD*%
D10*
%TO.C,R60*%
%TO.CFtp,R_0603_1608Metric_Pad0.98x0.95mm_HandSolder*%
%TO.CVal,270K/25V/0603/1\u0025*%
%TO.CLbN,Resistor_SMD*%
%TO.CMnt,SMD*%
%TO.CRot,0*%
X137710928Y-60441750D03*
D11*
X139355928Y-59716750D02*
X139355928Y-61166750D01*
X136065928Y-61166750D01*
X136065928Y-59716750D01*
X139355928Y-59716750D01*
D12*
%TO.P,R60,1*%
X136798428Y-60441750D03*
D13*
%TO.P,R60,2*%
X138623428Y-60441750D03*
%TD*%
D10*
%TO.C,C42*%
%TO.CFtp,C_0603_1608Metric_Pad1.08x0.95mm_HandSolder*%
%TO.CVal,0.1uF/25V/0603/1\u0025*%
%TO.CLbN,Capacitor_SMD*%
%TO.CMnt,SMD*%
%TO.CRot,90*%
X127419042Y-137871200D03*
D11*
X128144042Y-136226200D02*
X128144042Y-139516200D01*
X126694042Y-139516200D01*
X126694042Y-136226200D01*
X128144042Y-136226200D01*
D12*
%TO.P,C42,1*%
X127419042Y-138733701D03*
D13*
%TO.P,C42,2*%
X127419042Y-137008699D03*
%TD*%
D10*
%TO.C,SW4*%
%TO.CFtp,SW_Push_1P1T_NO_E-Switch_TL3301NxxxxxG*%
%TO.CVal,SW2*%
%TO.CLbN,Button_Switch_SMD*%
%TO.CMnt,SMD*%
%TO.CRot,-90*%
X111963200Y-91287600D03*
D11*
X115208200Y-85442600D02*
X115208200Y-97132600D01*
X108718200Y-97132600D01*
X108718200Y-85442600D01*
X115208200Y-85442600D01*
D12*
%TO.P,SW4,1,1_1*%
X114213200Y-86737600D03*
D13*
%TO.P,SW4,2,2_2*%
X114213200Y-95837600D03*
%TO.P,SW4,3,3_3*%
X109713200Y-86737600D03*
%TO.P,SW4,4,4_4*%
X109713200Y-95837600D03*
%TD*%
D10*
%TO.C,TP5*%
%TO.CFtp,PinHeader_1x01_P1.00mm_Vertical*%
%TO.CVal,TestPoint*%
%TO.CLbN,Connector_PinHeader_1.00mm*%
%TO.CMnt,TH*%
%TO.CRot,180*%
X184787499Y-74701400D03*
D11*
X185922499Y-73706400D02*
X185922499Y-75696400D01*
X183652499Y-75696400D01*
X183652499Y-73706400D01*
X185922499Y-73706400D01*
D12*
%TO.P,TP5,1,1_1*%
X184787499Y-74701400D03*
%TD*%
D10*
%TO.C,R23*%
%TO.CFtp,R_0603_1608Metric_Pad0.98x0.95mm_HandSolder*%
%TO.CVal,10K/25V/0603/1\u0025*%
%TO.CLbN,Resistor_SMD*%
%TO.CMnt,SMD*%
%TO.CRot,90*%
X148564600Y-72237600D03*
D11*
X149289600Y-70592600D02*
X149289600Y-73882600D01*
X147839600Y-73882600D01*
X147839600Y-70592600D01*
X149289600Y-70592600D01*
D12*
%TO.P,R23,1*%
X148564600Y-73150100D03*
D13*
%TO.P,R23,2*%
X148564600Y-71325100D03*
%TD*%
D10*
%TO.C,C55*%
%TO.CFtp,C_0603_1608Metric_Pad1.08x0.95mm_HandSolder*%
%TO.CVal,18pF/25V/0603/1\u0025/C0G/NP0*%
%TO.CLbN,Capacitor_SMD*%
%TO.CMnt,SMD*%
%TO.CRot,180*%
X137716707Y-74722565D03*
D11*
X139361707Y-73997565D02*
X139361707Y-75447565D01*
X136071707Y-75447565D01*
X136071707Y-73997565D01*
X139361707Y-73997565D01*
D12*
%TO.P,C55,1*%
X138579208Y-74722565D03*
D13*
%TO.P,C55,2*%
X136854206Y-74722565D03*
%TD*%
D10*
%TO.C,C44*%
%TO.CFtp,C_0603_1608Metric_Pad1.08x0.95mm_HandSolder*%
%TO.CVal,0.1uF/25V/0603/1\u0025*%
%TO.CLbN,Capacitor_SMD*%
%TO.CMnt,SMD*%
%TO.CRot,90*%
X159308800Y-137871200D03*
D11*
X160033800Y-136226200D02*
X160033800Y-139516200D01*
X158583800Y-139516200D01*
X158583800Y-136226200D01*
X160033800Y-136226200D01*
D12*
%TO.P,C44,1*%
X159308800Y-138733701D03*
D13*
%TO.P,C44,2*%
X159308800Y-137008699D03*
%TD*%
D10*
%TO.C,D7*%
%TO.CFtp,LED_0603_1608Metric_Pad1.05x0.95mm_HandSolder*%
%TO.CVal,LED_1*%
%TO.CLbN,LED_SMD*%
%TO.CMnt,SMD*%
%TO.CRot,-90*%
X155075000Y-53132377D03*
D11*
X155800000Y-51487377D02*
X155800000Y-54777377D01*
X154350000Y-54777377D01*
X154350000Y-51487377D01*
X155800000Y-51487377D01*
D12*
%TO.P,D7,1,K_1*%
X155075000Y-52257378D03*
D13*
%TO.P,D7,2,A_2*%
X155075000Y-54007376D03*
%TD*%
D10*
%TO.C,R44*%
%TO.CFtp,R_0603_1608Metric_Pad0.98x0.95mm_HandSolder*%
%TO.CVal,330/25V/0603/1\u0025*%
%TO.CLbN,Resistor_SMD*%
%TO.CMnt,SMD*%
%TO.CRot,90*%
X160442000Y-71178000D03*
D11*
X161167000Y-69533000D02*
X161167000Y-72823000D01*
X159717000Y-72823000D01*
X159717000Y-69533000D01*
X161167000Y-69533000D01*
D12*
%TO.P,R44,1*%
X160442000Y-72090500D03*
D13*
%TO.P,R44,2*%
X160442000Y-70265500D03*
%TD*%
D10*
%TO.C,R30*%
%TO.CFtp,R_0603_1608Metric_Pad0.98x0.95mm_HandSolder*%
%TO.CVal,10K/25V/0603/1\u0025*%
%TO.CLbN,Resistor_SMD*%
%TO.CMnt,SMD*%
%TO.CRot,180*%
X181597500Y-74720386D03*
D11*
X183242500Y-73995386D02*
X183242500Y-75445386D01*
X179952500Y-75445386D01*
X179952500Y-73995386D01*
X183242500Y-73995386D01*
D12*
%TO.P,R30,1*%
X182510000Y-74720386D03*
D13*
%TO.P,R30,2*%
X180685000Y-74720386D03*
%TD*%
D10*
%TO.C,J9*%
%TO.CFtp,JST_SH_SM04B-SRSS-TB_1x04-1MP_P1.00mm_Horizontal*%
%TO.CVal,I2C_1*%
%TO.CLbN,Connector_JST*%
%TO.CMnt,SMD*%
%TO.CRot,90*%
X191925000Y-123825001D03*
D11*
X195200000Y-119930001D02*
X195200000Y-122130001D01*
X194999999Y-122130001D01*
X194999999Y-125520001D01*
X195200000Y-125520001D01*
X195200000Y-127720001D01*
X192400000Y-127720001D01*
X192400000Y-127320001D01*
X189750000Y-127320001D01*
X189750000Y-126120001D01*
X188650000Y-126120001D01*
X188650000Y-121530001D01*
X189750000Y-121530001D01*
X189750000Y-120330001D01*
X192400000Y-120330001D01*
X192400000Y-119930001D01*
X195200000Y-119930001D01*
D12*
%TO.P,J9,1,Pin_1_1*%
X189925000Y-125325001D03*
D13*
%TO.P,J9,2,Pin_2_2*%
X189925000Y-124325001D03*
%TO.P,J9,3,Pin_3_3*%
X189925000Y-123325001D03*
%TO.P,J9,4,Pin_4_4*%
X189925000Y-122325001D03*
%TO.P,J9,MP*%
X193800000Y-126625001D03*
X193800000Y-121025001D03*
%TD*%
D10*
%TO.C,C30*%
%TO.CFtp,C_0603_1608Metric_Pad1.08x0.95mm_HandSolder*%
%TO.CVal,0.1uF/25V/0603/1\u0025*%
%TO.CLbN,Capacitor_SMD*%
%TO.CMnt,SMD*%
%TO.CRot,90*%
X160442000Y-67622000D03*
D11*
X161167000Y-65977000D02*
X161167000Y-69267000D01*
X159717000Y-69267000D01*
X159717000Y-65977000D01*
X161167000Y-65977000D01*
D12*
%TO.P,C30,1*%
X160442000Y-68484501D03*
D13*
%TO.P,C30,2*%
X160442000Y-66759499D03*
%TD*%
D10*
%TO.C,D33*%
%TO.CFtp,LED_0603_1608Metric*%
%TO.CVal,LED_RED*%
%TO.CLbN,LED_SMD*%
%TO.CMnt,SMD*%
%TO.CRot,0*%
X134480436Y-71435910D03*
D11*
X135955436Y-70710910D02*
X135955436Y-72160910D01*
X133005436Y-72160910D01*
X133005436Y-70710910D01*
X135955436Y-70710910D01*
D12*
%TO.P,D33,1,K_1*%
X133692936Y-71435910D03*
D13*
%TO.P,D33,2,A_2*%
X135267936Y-71435910D03*
%TD*%
D10*
%TO.C,L2*%
%TO.CFtp,4.7uH_2A*%
%TO.CVal,4.7uH/4A*%
%TO.CLbN,Khach Footprint*%
%TO.CMnt,SMD*%
%TO.CRot,-90*%
X97300000Y-68410000D03*
D11*
X100895000Y-64165000D02*
X100895000Y-72655000D01*
X93705000Y-72655000D01*
X93705000Y-64165000D01*
X100895000Y-64165000D01*
D12*
%TO.P,L2,1,1_1*%
X97300000Y-66160000D03*
D13*
%TO.P,L2,2,2_2*%
X97300000Y-70660000D03*
%TD*%
D10*
%TO.C,JP7*%
%TO.CFtp,SolderJumper-2_P1.3mm_Open_Pad1.0x1.5mm*%
%TO.CVal,SolderJumper_2_Open*%
%TO.CLbN,Jumper*%
%TO.CMnt,Other*%
%TO.CRot,180*%
X193217800Y-83718400D03*
D11*
X194862800Y-82473400D02*
X194862800Y-84963400D01*
X191572800Y-84963400D01*
X191572800Y-82473400D01*
X194862800Y-82473400D01*
D12*
%TO.P,JP7,1,A_1*%
X193867799Y-83718400D03*
D13*
%TO.P,JP7,2,B_2*%
X192567801Y-83718400D03*
%TD*%
D10*
%TO.C,U3*%
%TO.CFtp,TPS563203DRLR*%
%TO.CVal,TPS563203DRLR*%
%TO.CLbN,Khach Footprint*%
%TO.CMnt,SMD*%
%TO.CRot,0*%
X104200000Y-68210000D03*
D11*
X105096700Y-67110100D02*
X105096700Y-67346574D01*
X105604700Y-67346574D01*
X105604700Y-69073426D01*
X105096700Y-69073426D01*
X105096700Y-69309900D01*
X103303300Y-69309900D01*
X103303300Y-69073426D01*
X102795300Y-69073426D01*
X102795300Y-67346574D01*
X103303300Y-67346574D01*
X103303300Y-67110100D01*
X105096700Y-67110100D01*
D12*
%TO.P,U3,1,VIN_1*%
X103399900Y-67709874D03*
D13*
%TO.P,U3,2,SW_2*%
X103399900Y-68210000D03*
%TO.P,U3,3,GND_3*%
X103399900Y-68710126D03*
%TO.P,U3,4,BST_4*%
X105000100Y-68710126D03*
%TO.P,U3,5,EN_5*%
X105000100Y-68210000D03*
%TO.P,U3,6,FB_6*%
X105000100Y-67709874D03*
%TD*%
D10*
%TO.C,R26*%
%TO.CFtp,R_0603_1608Metric_Pad0.98x0.95mm_HandSolder*%
%TO.CVal,1K/25V/0603/1\u0025*%
%TO.CLbN,Resistor_SMD*%
%TO.CMnt,SMD*%
%TO.CRot,-90*%
X151800000Y-46507377D03*
D11*
X152525000Y-44862377D02*
X152525000Y-48152377D01*
X151075000Y-48152377D01*
X151075000Y-44862377D01*
X152525000Y-44862377D01*
D12*
%TO.P,R26,1*%
X151800000Y-45594877D03*
D13*
%TO.P,R26,2*%
X151800000Y-47419877D03*
%TD*%
D10*
%TO.C,R59*%
%TO.CFtp,R_0603_1608Metric_Pad0.98x0.95mm_HandSolder*%
%TO.CVal,1K/25V/0603/1\u0025*%
%TO.CLbN,Resistor_SMD*%
%TO.CMnt,SMD*%
%TO.CRot,90*%
X156057600Y-137871200D03*
D11*
X156782600Y-136226200D02*
X156782600Y-139516200D01*
X155332600Y-139516200D01*
X155332600Y-136226200D01*
X156782600Y-136226200D01*
D12*
%TO.P,R59,1*%
X156057600Y-138783700D03*
D13*
%TO.P,R59,2*%
X156057600Y-136958700D03*
%TD*%
D10*
%TO.C,C53*%
%TO.CFtp,C_0805_2012Metric_Pad1.18x1.45mm_HandSolder*%
%TO.CVal,22uF/25V/0805/1\u0025*%
%TO.CLbN,Capacitor_SMD*%
%TO.CMnt,SMD*%
%TO.CRot,0*%
X130762500Y-79664255D03*
D11*
X132637500Y-78689255D02*
X132637500Y-80639255D01*
X128887500Y-80639255D01*
X128887500Y-78689255D01*
X132637500Y-78689255D01*
D12*
%TO.P,C53,1*%
X129725000Y-79664255D03*
D13*
%TO.P,C53,2*%
X131800000Y-79664255D03*
%TD*%
D10*
%TO.C,U9*%
%TO.CFtp,VALVE*%
%TO.CVal,VALVE*%
%TO.CLbN,Khach Footprint*%
%TO.CMnt,SMD*%
%TO.CRot,180*%
X144083000Y-156760000D03*
D14*
X142396000Y-160600000D02*
X142396000Y-151817500D01*
X127200000Y-151817500D01*
X127200000Y-160600000D01*
X142396000Y-160600000D01*
D12*
%TO.P,U9,1,+_1*%
X141253000Y-155310000D03*
D13*
%TO.P,U9,*%
X130200000Y-157600000D03*
%TO.P,U9,2,-_2*%
X141253000Y-152770000D03*
%TD*%
D10*
%TO.C,U11*%
%TO.CFtp,PUMP*%
%TO.CVal,PUMP*%
%TO.CLbN,Khach Footprint*%
%TO.CMnt,SMD*%
%TO.CRot,180*%
X143991738Y-119758214D03*
D14*
X144569999Y-120037500D02*
X144569999Y-115037500D01*
X121330000Y-115037500D01*
X121330000Y-120037500D01*
X144569999Y-120037500D01*
D12*
%TO.P,U11,1,+_1*%
X142069999Y-117537500D03*
D13*
%TO.P,U11,2,-_2*%
X123830000Y-117537500D03*
%TD*%
D10*
%TO.C,SW3*%
%TO.CFtp,SW_Push_1P1T_NO_E-Switch_TL3301NxxxxxG*%
%TO.CVal,SW2*%
%TO.CLbN,Button_Switch_SMD*%
%TO.CMnt,SMD*%
%TO.CRot,-90*%
X111851000Y-106886600D03*
D11*
X115096000Y-101041600D02*
X115096000Y-112731600D01*
X108606000Y-112731600D01*
X108606000Y-101041600D01*
X115096000Y-101041600D01*
D12*
%TO.P,SW3,1,1_1*%
X114101000Y-102336600D03*
D13*
%TO.P,SW3,2,2_2*%
X114101000Y-111436600D03*
%TO.P,SW3,3,3_3*%
X109601000Y-102336600D03*
%TO.P,SW3,4,4_4*%
X109601000Y-111436600D03*
%TD*%
D10*
%TO.C,TP9*%
%TO.CFtp,PinHeader_1x01_P1.00mm_Vertical*%
%TO.CVal,TestPoint*%
%TO.CLbN,Connector_PinHeader_1.00mm*%
%TO.CMnt,TH*%
%TO.CRot,180*%
X184827501Y-83548126D03*
D11*
X185962501Y-82553126D02*
X185962501Y-84543126D01*
X183692501Y-84543126D01*
X183692501Y-82553126D01*
X185962501Y-82553126D01*
D12*
%TO.P,TP9,1,1_1*%
X184827501Y-83548126D03*
%TD*%
D10*
%TO.C,C28*%
%TO.CFtp,C_0603_1608Metric_Pad1.08x0.95mm_HandSolder*%
%TO.CVal,10uF/25V/0603/1\u0025*%
%TO.CLbN,Capacitor_SMD*%
%TO.CMnt,SMD*%
%TO.CRot,0*%
X143487500Y-81100000D03*
D11*
X145132500Y-80375000D02*
X145132500Y-81825000D01*
X141842500Y-81825000D01*
X141842500Y-80375000D01*
X145132500Y-80375000D01*
D12*
%TO.P,C28,1*%
X142625000Y-81100000D03*
D13*
%TO.P,C28,2*%
X144350000Y-81100000D03*
%TD*%
D10*
%TO.C,U1*%
%TO.CFtp,TPS563203DRLR*%
%TO.CVal,TPS563203DRLR*%
%TO.CLbN,Khach Footprint*%
%TO.CMnt,SMD*%
%TO.CRot,0*%
X131962500Y-75164255D03*
D11*
X132859200Y-74064355D02*
X132859200Y-74300829D01*
X133367200Y-74300829D01*
X133367200Y-76027681D01*
X132859200Y-76027681D01*
X132859200Y-76264155D01*
X131065800Y-76264155D01*
X131065800Y-76027681D01*
X130557800Y-76027681D01*
X130557800Y-74300829D01*
X131065800Y-74300829D01*
X131065800Y-74064355D01*
X132859200Y-74064355D01*
D12*
%TO.P,U1,1,VIN_1*%
X131162400Y-74664129D03*
D13*
%TO.P,U1,2,SW_2*%
X131162400Y-75164255D03*
%TO.P,U1,3,GND_3*%
X131162400Y-75664381D03*
%TO.P,U1,4,BST_4*%
X132762600Y-75664381D03*
%TO.P,U1,5,EN_5*%
X132762600Y-75164255D03*
%TO.P,U1,6,FB_6*%
X132762600Y-74664129D03*
%TD*%
D10*
%TO.C,D14*%
%TO.CFtp,LED_0603_1608Metric_Pad1.05x0.95mm_HandSolder*%
%TO.CVal,LED_Red*%
%TO.CLbN,LED_SMD*%
%TO.CMnt,SMD*%
%TO.CRot,0*%
X138312500Y-100750000D03*
D11*
X139957500Y-100025000D02*
X139957500Y-101475000D01*
X136667500Y-101475000D01*
X136667500Y-100025000D01*
X139957500Y-100025000D01*
D12*
%TO.P,D14,1,K_1*%
X137437500Y-100750000D03*
D13*
%TO.P,D14,2,A_2*%
X139187500Y-100750000D03*
%TD*%
D10*
%TO.C,J3*%
%TO.CFtp,JST_EH_B4B-EH-A_1x04_P2.50mm_Vertical*%
%TO.CVal,I2C_5*%
%TO.CLbN,Connector_JST*%
%TO.CMnt,TH*%
%TO.CRot,-90*%
X191925000Y-88850000D03*
D11*
X194020000Y-85855000D02*
X194020000Y-99345000D01*
X189230000Y-99345000D01*
X189230000Y-85855000D01*
X194020000Y-85855000D01*
D12*
%TO.P,J3,1,Pin_1_1*%
X191925000Y-88850000D03*
D13*
%TO.P,J3,2,Pin_2_2*%
X191925000Y-91350000D03*
%TO.P,J3,3,Pin_3_3*%
X191925000Y-93850000D03*
%TO.P,J3,4,Pin_4_4*%
X191925000Y-96350000D03*
%TD*%
D10*
%TO.C,J1*%
%TO.CFtp,JST_SH_SM04B-SRSS-TB_1x04-1MP_P1.00mm_Horizontal*%
%TO.CVal,I2C_4*%
%TO.CLbN,Connector_JST*%
%TO.CMnt,SMD*%
%TO.CRot,-90*%
X98000000Y-136375000D03*
D11*
X97525000Y-132480000D02*
X97525000Y-132880000D01*
X100175000Y-132880000D01*
X100175000Y-134080000D01*
X101275000Y-134080000D01*
X101275000Y-138670000D01*
X100175000Y-138670000D01*
X100175000Y-139870000D01*
X97525000Y-139870000D01*
X97525000Y-140270000D01*
X94725000Y-140270000D01*
X94725000Y-138070000D01*
X94925001Y-138070000D01*
X94925001Y-134680000D01*
X94725000Y-134680000D01*
X94725000Y-132480000D01*
X97525000Y-132480000D01*
D12*
%TO.P,J1,1,Pin_1_1*%
X100000000Y-134875000D03*
D13*
%TO.P,J1,2,Pin_2_2*%
X100000000Y-135875000D03*
%TO.P,J1,3,Pin_3_3*%
X100000000Y-136875000D03*
%TO.P,J1,4,Pin_4_4*%
X100000000Y-137875000D03*
%TO.P,J1,MP*%
X96125000Y-133575000D03*
X96125000Y-139175000D03*
%TD*%
D10*
%TO.C,C62*%
%TO.CFtp,C_0603_1608Metric_Pad1.08x0.95mm_HandSolder*%
%TO.CVal,18pF/25V/0603/1\u0025/C0G/NP0*%
%TO.CLbN,Capacitor_SMD*%
%TO.CMnt,SMD*%
%TO.CRot,180*%
X110150000Y-67768310D03*
D11*
X111795000Y-67043310D02*
X111795000Y-68493310D01*
X108505000Y-68493310D01*
X108505000Y-67043310D01*
X111795000Y-67043310D01*
D12*
%TO.P,C62,1*%
X111012500Y-67768310D03*
D13*
%TO.P,C62,2*%
X109287500Y-67768310D03*
%TD*%
D10*
%TO.C,R10*%
%TO.CFtp,R_0603_1608Metric_Pad0.98x0.95mm_HandSolder*%
%TO.CVal,2K2/25V/0603/1\u0025*%
%TO.CLbN,Resistor_SMD*%
%TO.CMnt,SMD*%
%TO.CRot,180*%
X169457763Y-79972450D03*
D11*
X171102763Y-79247450D02*
X171102763Y-80697450D01*
X167812763Y-80697450D01*
X167812763Y-79247450D01*
X171102763Y-79247450D01*
D12*
%TO.P,R10,1*%
X170370263Y-79972450D03*
D13*
%TO.P,R10,2*%
X168545263Y-79972450D03*
%TD*%
D10*
%TO.C,R1*%
%TO.CFtp,R_0603_1608Metric_Pad0.98x0.95mm_HandSolder*%
%TO.CVal,100K/25V/0603/1\u0025*%
%TO.CLbN,Resistor_SMD*%
%TO.CMnt,SMD*%
%TO.CRot,90*%
X135788776Y-77394945D03*
D11*
X136513776Y-75749945D02*
X136513776Y-79039945D01*
X135063776Y-79039945D01*
X135063776Y-75749945D01*
X136513776Y-75749945D01*
D12*
%TO.P,R1,1*%
X135788776Y-78307445D03*
D13*
%TO.P,R1,2*%
X135788776Y-76482445D03*
%TD*%
D10*
%TO.C,C8*%
%TO.CFtp,C_0805_2012Metric_Pad1.18x1.45mm_HandSolder*%
%TO.CVal,10uF/25V/0805/1\u0025*%
%TO.CLbN,Capacitor_SMD*%
%TO.CMnt,SMD*%
%TO.CRot,0*%
X130762500Y-58018255D03*
D11*
X132637500Y-57043255D02*
X132637500Y-58993255D01*
X128887500Y-58993255D01*
X128887500Y-57043255D01*
X132637500Y-57043255D01*
D12*
%TO.P,C8,1*%
X129725000Y-58018255D03*
D13*
%TO.P,C8,2*%
X131800000Y-58018255D03*
%TD*%
D10*
%TO.C,C15*%
%TO.CFtp,C_0805_2012Metric_Pad1.18x1.45mm_HandSolder*%
%TO.CVal,10uF/25V/0805/1\u0025*%
%TO.CLbN,Capacitor_SMD*%
%TO.CMnt,SMD*%
%TO.CRot,0*%
X103000000Y-63710000D03*
D11*
X104875000Y-62735000D02*
X104875000Y-64685000D01*
X101125000Y-64685000D01*
X101125000Y-62735000D01*
X104875000Y-62735000D01*
D12*
%TO.P,C15,1*%
X101962500Y-63710000D03*
D13*
%TO.P,C15,2*%
X104037500Y-63710000D03*
%TD*%
D10*
%TO.C,C54*%
%TO.CFtp,C_0805_2012Metric_Pad1.18x1.45mm_HandSolder*%
%TO.CVal,22uF/25V/0805/1\u0025*%
%TO.CLbN,Capacitor_SMD*%
%TO.CMnt,SMD*%
%TO.CRot,0*%
X130762500Y-64908255D03*
D11*
X132637500Y-63933255D02*
X132637500Y-65883255D01*
X128887500Y-65883255D01*
X128887500Y-63933255D01*
X132637500Y-63933255D01*
D12*
%TO.P,C54,1*%
X129725000Y-64908255D03*
D13*
%TO.P,C54,2*%
X131800000Y-64908255D03*
%TD*%
D10*
%TO.C,H4*%
%TO.CFtp,MountingHole_3.5mm_Pad*%
%TO.CVal,MountingHole*%
%TO.CLbN,MountingHole*%
%TO.CMnt,Other*%
%TO.CRot,0*%
X95200000Y-159000000D03*
D11*
X95489206Y-155263693D02*
X95871859Y-155313235D01*
X96247367Y-155401854D01*
X96611772Y-155528613D01*
X96961231Y-155692177D01*
X97292013Y-155890803D01*
X97600614Y-156122383D01*
X97883761Y-156384459D01*
X98138478Y-156674280D01*
X98362035Y-156988740D01*
X98552072Y-157324518D01*
X98706584Y-157678069D01*
X98823920Y-158045625D01*
X98902842Y-158423300D01*
X98942516Y-158807106D01*
X98944999Y-159000000D01*
X98942516Y-159192893D01*
X98902842Y-159576699D01*
X98823920Y-159954374D01*
X98706584Y-160321930D01*
X98552072Y-160675481D01*
X98362035Y-161011259D01*
X98138478Y-161325719D01*
X97883761Y-161615540D01*
X97600614Y-161877616D01*
X97292013Y-162109196D01*
X96961231Y-162307822D01*
X96611772Y-162471386D01*
X96247367Y-162598145D01*
X95871859Y-162686764D01*
X95489206Y-162736306D01*
X95103512Y-162746240D01*
X94718829Y-162716463D01*
X94339250Y-162647291D01*
X93968796Y-162539458D01*
X93611381Y-162394100D01*
X93270820Y-162212771D01*
X92950708Y-161997384D01*
X92654439Y-161750226D01*
X92385145Y-161473908D01*
X92145693Y-161171367D01*
X91938618Y-160845811D01*
X91766121Y-160500703D01*
X91630013Y-160139658D01*
X91531753Y-159766552D01*
X91472378Y-159385321D01*
X91452517Y-159000000D01*
X91472378Y-158614678D01*
X91531753Y-158233447D01*
X91630013Y-157860341D01*
X91766121Y-157499296D01*
X91938618Y-157154188D01*
X92145693Y-156828632D01*
X92385145Y-156526091D01*
X92654439Y-156249773D01*
X92950708Y-156002615D01*
X93270820Y-155787228D01*
X93611381Y-155605899D01*
X93968796Y-155460541D01*
X94339250Y-155352708D01*
X94718829Y-155283536D01*
X95103512Y-155253759D01*
X95489206Y-155263693D01*
D12*
%TO.P,H4,1*%
X95200000Y-159000000D03*
%TD*%
D10*
%TO.C,Q8*%
%TO.CFtp,AO3400A*%
%TO.CVal,AO3400A*%
%TO.CLbN,Khach Footprint*%
%TO.CMnt,SMD*%
%TO.CRot,-90*%
X124965100Y-142360005D03*
D11*
X126760100Y-140255005D02*
X126760100Y-144465005D01*
X123170100Y-144465005D01*
X123170100Y-140255005D01*
X126760100Y-140255005D01*
D12*
%TO.P,Q8,1,G_1*%
X125915100Y-141105005D03*
D13*
%TO.P,Q8,2,S_2*%
X124015100Y-141105005D03*
%TO.P,Q8,3,D_3*%
X124965100Y-143615005D03*
%TD*%
D10*
%TO.C,JP3*%
%TO.CFtp,SolderJumper-2_P1.3mm_Open_Pad1.0x1.5mm*%
%TO.CVal,SolderJumper_2_Open*%
%TO.CLbN,Jumper*%
%TO.CMnt,Other*%
%TO.CRot,180*%
X193179999Y-74726800D03*
D11*
X194824999Y-73481800D02*
X194824999Y-75971800D01*
X191534999Y-75971800D01*
X191534999Y-73481800D01*
X194824999Y-73481800D01*
D12*
%TO.P,JP3,1,A_1*%
X193829998Y-74726800D03*
D13*
%TO.P,JP3,2,B_2*%
X192530000Y-74726800D03*
%TD*%
D10*
%TO.C,C61*%
%TO.CFtp,C_0805_2012Metric_Pad1.18x1.45mm_HandSolder*%
%TO.CVal,22uF/25V/0805/1\u0025*%
%TO.CLbN,Capacitor_SMD*%
%TO.CMnt,SMD*%
%TO.CRot,0*%
X103000000Y-72710000D03*
D11*
X104875000Y-71735000D02*
X104875000Y-73685000D01*
X101125000Y-73685000D01*
X101125000Y-71735000D01*
X104875000Y-71735000D01*
D12*
%TO.P,C61,1*%
X101962500Y-72710000D03*
D13*
%TO.P,C61,2*%
X104037500Y-72710000D03*
%TD*%
D10*
%TO.C,C57*%
%TO.CFtp,C_0805_2012Metric_Pad1.18x1.45mm_HandSolder*%
%TO.CVal,22uF/25V/0805/1\u0025*%
%TO.CLbN,Capacitor_SMD*%
%TO.CMnt,SMD*%
%TO.CRot,0*%
X130762500Y-67018255D03*
D11*
X132637500Y-66043255D02*
X132637500Y-67993255D01*
X128887500Y-67993255D01*
X128887500Y-66043255D01*
X132637500Y-66043255D01*
D12*
%TO.P,C57,1*%
X129725000Y-67018255D03*
D13*
%TO.P,C57,2*%
X131800000Y-67018255D03*
%TD*%
D10*
%TO.C,R73*%
%TO.CFtp,R_0603_1608Metric_Pad0.98x0.95mm_HandSolder*%
%TO.CVal,550/25V/0603/1\u0025*%
%TO.CLbN,Resistor_SMD*%
%TO.CMnt,SMD*%
%TO.CRot,0*%
X137716707Y-71422699D03*
D11*
X139361707Y-70697699D02*
X139361707Y-72147699D01*
X136071707Y-72147699D01*
X136071707Y-70697699D01*
X139361707Y-70697699D01*
D12*
%TO.P,R73,1*%
X136804207Y-71422699D03*
D13*
%TO.P,R73,2*%
X138629207Y-71422699D03*
%TD*%
D10*
%TO.C,C16*%
%TO.CFtp,C_0805_2012Metric_Pad1.18x1.45mm_HandSolder*%
%TO.CVal,10uF/25V/0805/1\u0025*%
%TO.CLbN,Capacitor_SMD*%
%TO.CMnt,SMD*%
%TO.CRot,0*%
X103000000Y-65865712D03*
D11*
X104875000Y-64890712D02*
X104875000Y-66840712D01*
X101125000Y-66840712D01*
X101125000Y-64890712D01*
X104875000Y-64890712D01*
D12*
%TO.P,C16,1*%
X101962500Y-65865712D03*
D13*
%TO.P,C16,2*%
X104037500Y-65865712D03*
%TD*%
D10*
%TO.C,Q3*%
%TO.CFtp,AO3400A*%
%TO.CVal,AO3400A*%
%TO.CLbN,Khach Footprint*%
%TO.CMnt,SMD*%
%TO.CRot,0*%
X166255000Y-101250000D03*
D11*
X168360000Y-99455000D02*
X168360000Y-103045000D01*
X164150000Y-103045000D01*
X164150000Y-99455000D01*
X168360000Y-99455000D01*
D12*
%TO.P,Q3,1,G_1*%
X165000000Y-100300000D03*
D13*
%TO.P,Q3,2,S_2*%
X165000000Y-102200000D03*
%TO.P,Q3,3,D_3*%
X167510000Y-101250000D03*
%TD*%
D10*
%TO.C,F1*%
%TO.CFtp,DAT_FUSE*%
%TO.CVal,2A*%
%TO.CLbN,Sensor_Pressure*%
%TO.CMnt,TH*%
%TO.CRot,90*%
X125300000Y-53370000D03*
D14*
X121495000Y-54100000D02*
X125305000Y-54100000D01*
X125305000Y-41920000D01*
X121495000Y-41920000D01*
X121495000Y-54100000D01*
D12*
%TO.P,F1,1*%
X123400000Y-51600000D03*
D13*
%TO.P,F1,2*%
X123400000Y-44420000D03*
%TD*%
D10*
%TO.C,R38*%
%TO.CFtp,R_0603_1608Metric_Pad0.98x0.95mm_HandSolder*%
%TO.CVal,10K/25V/0603/1\u0025*%
%TO.CLbN,Resistor_SMD*%
%TO.CMnt,SMD*%
%TO.CRot,180*%
X130124200Y-100939600D03*
D11*
X131769200Y-100214600D02*
X131769200Y-101664600D01*
X128479200Y-101664600D01*
X128479200Y-100214600D01*
X131769200Y-100214600D01*
D12*
%TO.P,R38,1*%
X131036700Y-100939600D03*
D13*
%TO.P,R38,2*%
X129211700Y-100939600D03*
%TD*%
D10*
%TO.C,C1*%
%TO.CFtp,C_0805_2012Metric_Pad1.18x1.45mm_HandSolder*%
%TO.CVal,10uF/25V/0805/1\u0025*%
%TO.CLbN,Capacitor_SMD*%
%TO.CMnt,SMD*%
%TO.CRot,0*%
X130762500Y-70664255D03*
D11*
X132637500Y-69689255D02*
X132637500Y-71639255D01*
X128887500Y-71639255D01*
X128887500Y-69689255D01*
X132637500Y-69689255D01*
D12*
%TO.P,C1,1*%
X129725000Y-70664255D03*
D13*
%TO.P,C1,2*%
X131800000Y-70664255D03*
%TD*%
D15*
X89200000Y-42600000D02*
X89200000Y-42600000D01*
G75*
G02*
X93200000Y-38600000I4000000J0D01*
G01*
X194200000Y-38600000D01*
G75*
G02*
X198200000Y-42600000I0J-4000000D01*
G01*
X198200000Y-161000000D01*
G75*
G02*
X194200000Y-165000000I-4000000J0D01*
G01*
X93200000Y-165000000D01*
G75*
G02*
X89200000Y-161000000I0J4000000D01*
G01*
X89200000Y-42600000D01*
M02*
