0
SECTION
2
ENTITIES
0
LWPOLYLINE
8
CUT
90
8
70
1
10
3.0
20
-0.0
10
287.0
20
-0.0
10
290.0
20
-3.0
10
290.0
20
-197.0
10
287.0
20
-200.0
10
3.0
20
-200.0
10
0.0
20
-197.0
10
0.0
20
-3.0
0
CIRCLE
8
CUT
10
10.05
20
-10.06
30
0.0
40
2.975
0
CIRCLE
8
CUT
10
279.95
20
-10.06
30
0.0
40
2.975
0
CIRCLE
8
CUT
10
10.05
20
-189.94
30
0.0
40
2.975
0
CIRCLE
8
CUT
10
279.95
20
-189.94
30
0.0
40
2.975
0
CIRCLE
8
CUT
10
261.96
20
-60.06
30
0.0
40
6.23
0
LWPOLYLINE
8
CUT
90
8
70
1
10
31.46727272727273
20
-16.715
10
36.79272727272728
20
-16.715
10
39.370000000000005
20
-19.292272727272728
10
39.370000000000005
20
-19.807727272727274
10
36.79272727272728
20
-22.385
10
31.46727272727273
20
-22.385
10
28.89
20
-19.807727272727274
10
28.89
20
-19.292272727272728
0
LWPOLYLINE
8
CUT
90
8
70
1
10
63.46727272727272
20
-16.715
10
68.79272727272726
20
-16.715
10
71.36999999999999
20
-19.292272727272728
10
71.36999999999999
20
-19.807727272727274
10
68.79272727272726
20
-22.385
10
63.46727272727272
20
-22.385
10
60.88999999999999
20
-19.807727272727274
10
60.88999999999999
20
-19.292272727272728
0
LWPOLYLINE
8
CUT
90
8
70
1
10
31.32545454545454
20
-49.86
10
36.63454545454545
20
-49.86
10
39.08
20
-52.305454545454545
10
39.08
20
-52.79454545454545
10
36.63454545454545
20
-55.239999999999995
10
31.32545454545454
20
-55.239999999999995
10
28.879999999999995
20
-52.79454545454545
10
28.879999999999995
20
-52.305454545454545
0
LWPOLYLINE
8
CUT
90
8
70
1
10
63.33545454545454
20
-49.86
10
68.64454545454544
20
-49.86
10
71.08999999999999
20
-52.305454545454545
10
71.08999999999999
20
-52.79454545454545
10
68.64454545454544
20
-55.239999999999995
10
63.33545454545454
20
-55.239999999999995
10
60.88999999999999
20
-52.79454545454545
10
60.88999999999999
20
-52.305454545454545
0
LWPOLYLINE
8
CUT
90
8
70
1
10
31.32545454545454
20
-68.84
10
36.63454545454545
20
-68.84
10
39.08
20
-71.28545454545454
10
39.08
20
-71.77454545454546
10
36.63454545454545
20
-74.22
10
31.32545454545454
20
-74.22
10
28.879999999999995
20
-71.77454545454546
10
28.879999999999995
20
-71.28545454545454
0
LWPOLYLINE
8
CUT
90
8
70
1
10
63.33545454545454
20
-68.84
10
68.64454545454544
20
-68.84
10
71.08999999999999
20
-71.28545454545454
10
71.08999999999999
20
-71.77454545454546
10
68.64454545454544
20
-74.22
10
63.33545454545454
20
-74.22
10
60.88999999999999
20
-71.77454545454546
10
60.88999999999999
20
-71.28545454545454
0
LWPOLYLINE
8
CUT
90
8
70
1
10
31.177272727272726
20
-101.69500000000001
10
36.78272727272727
20
-101.69500000000001
10
39.36
20
-104.27227272727274
10
39.36
20
-104.78772727272727
10
36.78272727272727
20
-107.365
10
31.177272727272726
20
-107.365
10
28.599999999999998
20
-104.78772727272727
10
28.599999999999998
20
-104.27227272727274
0
LWPOLYLINE
8
CUT
90
8
70
1
10
63.18727272727272
20
-101.69500000000001
10
68.79272727272726
20
-101.69500000000001
10
71.36999999999999
20
-104.27227272727274
10
71.36999999999999
20
-104.78772727272727
10
68.79272727272726
20
-107.365
10
63.18727272727272
20
-107.365
10
60.60999999999999
20
-104.78772727272727
10
60.60999999999999
20
-104.27227272727274
0
LWPOLYLINE
8
CUT
90
8
70
1
10
34.86227272727273
20
-120.67500000000001
10
39.33772727272727
20
-120.67500000000001
10
41.915
20
-123.25227272727274
10
41.915
20
-123.76772727272727
10
39.33772727272727
20
-126.345
10
34.86227272727273
20
-126.345
10
32.285000000000004
20
-123.76772727272727
10
32.285000000000004
20
-123.25227272727274
0
LWPOLYLINE
8
CUT
90
8
70
1
10
60.63227272727273
20
-120.67500000000001
10
65.10772727272727
20
-120.67500000000001
10
67.685
20
-123.25227272727274
10
67.685
20
-123.76772727272727
10
65.10772727272727
20
-126.345
10
60.63227272727273
20
-126.345
10
58.055
20
-123.76772727272727
10
58.055
20
-123.25227272727274
0
LWPOLYLINE
8
CUT
90
8
70
1
10
34.86227272727273
20
-169.685
10
39.33772727272727
20
-169.685
10
41.915
20
-172.26227272727272
10
41.915
20
-172.7777272727273
10
39.33772727272727
20
-175.35500000000002
10
34.86227272727273
20
-175.35500000000002
10
32.285000000000004
20
-172.7777272727273
10
32.285000000000004
20
-172.26227272727272
0
LWPOLYLINE
8
CUT
90
8
70
1
10
60.63227272727273
20
-169.685
10
65.10772727272727
20
-169.685
10
67.685
20
-172.26227272727272
10
67.685
20
-172.7777272727273
10
65.10772727272727
20
-175.35500000000002
10
60.63227272727273
20
-175.35500000000002
10
58.055
20
-172.7777272727273
10
58.055
20
-172.26227272727272
0
LWPOLYLINE
8
CUT
90
8
70
1
10
106.66045454545454
20
-20.959999999999997
10
111.39954545454546
20
-20.959999999999997
10
113.845
20
-23.405454545454543
10
113.845
20
-23.894545454545455
10
111.39954545454546
20
-26.34
10
106.66045454545454
20
-26.34
10
104.215
20
-23.894545454545455
10
104.215
20
-23.405454545454543
0
LWPOLYLINE
8
CUT
90
8
70
1
10
128.88227272727272
20
-20.965
10
133.0777272727273
20
-20.965
10
135.655
20
-23.542272727272728
10
135.655
20
-24.057727272727274
10
133.0777272727273
20
-26.635
10
128.88227272727272
20
-26.635
10
126.30499999999999
20
-24.057727272727274
10
126.30499999999999
20
-23.542272727272728
0
LWPOLYLINE
8
CUT
90
8
70
1
10
106.02
20
-45.61
10
106.38000000000001
20
-45.61
10
108.18
20
-47.41
10
108.18
20
-49.19
10
106.38000000000001
20
-50.989999999999995
10
106.02
20
-50.989999999999995
10
104.22
20
-49.19
10
104.22
20
-47.41
0
LWPOLYLINE
8
CUT
90
8
70
1
10
111.84272727272727
20
-45.61
10
112.17727272727274
20
-45.61
10
113.85000000000001
20
-47.28272727272727
10
113.85000000000001
20
-49.31727272727272
10
112.17727272727274
20
-50.989999999999995
10
111.84272727272727
20
-50.989999999999995
10
110.17
20
-49.31727272727272
10
110.17
20
-47.28272727272727
0
LWPOLYLINE
8
CUT
90
8
70
1
10
127.98272727272727
20
-45.61
10
128.31727272727272
20
-45.61
10
129.99
20
-47.28272727272727
10
129.99
20
-49.31727272727272
10
128.31727272727272
20
-50.989999999999995
10
127.98272727272727
20
-50.989999999999995
10
126.31
20
-49.31727272727272
10
126.31
20
-47.28272727272727
0
LWPOLYLINE
8
CUT
90
8
70
1
10
133.49
20
-45.61
10
133.84999999999997
20
-45.61
10
135.64999999999998
20
-47.41
10
135.64999999999998
20
-49.19
10
133.84999999999997
20
-50.989999999999995
10
133.49
20
-50.989999999999995
10
131.69
20
-49.19
10
131.69
20
-47.41
0
LWPOLYLINE
8
CUT
90
8
70
1
10
106.66045454545454
20
-73.09
10
111.39954545454546
20
-73.09
10
113.845
20
-75.53545454545454
10
113.845
20
-76.02454545454546
10
111.39954545454546
20
-78.47
10
106.66045454545454
20
-78.47
10
104.215
20
-76.02454545454546
10
104.215
20
-75.53545454545454
0
LWPOLYLINE
8
CUT
90
8
70
1
10
128.75045454545455
20
-73.09
10
133.20954545454546
20
-73.09
10
135.655
20
-75.53545454545454
10
135.655
20
-76.02454545454546
10
133.20954545454546
20
-78.47
10
128.75045454545455
20
-78.47
10
126.30499999999999
20
-76.02454545454546
10
126.30499999999999
20
-75.53545454545454
0
LWPOLYLINE
8
CUT
90
8
70
1
10
106.79227272727273
20
-97.44500000000001
10
111.26772727272727
20
-97.44500000000001
10
113.845
20
-100.02227272727274
10
113.845
20
-100.53772727272727
10
111.26772727272727
20
-103.115
10
106.79227272727273
20
-103.115
10
104.215
20
-100.53772727272727
10
104.215
20
-100.02227272727274
0
LWPOLYLINE
8
CUT
90
8
70
1
10
128.88227272727272
20
-97.44500000000001
10
133.0777272727273
20
-97.44500000000001
10
135.655
20
-100.02227272727274
10
135.655
20
-100.53772727272727
10
133.0777272727273
20
-103.115
10
128.88227272727272
20
-103.115
10
126.30499999999999
20
-100.53772727272727
10
126.30499999999999
20
-100.02227272727274
0
LWPOLYLINE
8
CUT
90
8
70
1
10
115.75136363636364
20
-106.235
10
116.18863636363636
20
-106.235
10
118.375
20
-108.42136363636364
10
118.375
20
-111.69863636363637
10
116.18863636363636
20
-113.885
10
115.75136363636364
20
-113.885
10
113.565
20
-111.69863636363637
10
113.565
20
-108.42136363636364
0
LWPOLYLINE
8
CUT
90
8
70
1
10
123.80818181818182
20
-106.235
10
124.27181818181819
20
-106.235
10
126.59
20
-108.55318181818181
10
126.59
20
-111.28681818181819
10
124.27181818181819
20
-113.605
10
123.80818181818182
20
-113.605
10
121.49000000000001
20
-111.28681818181819
10
121.49000000000001
20
-108.55318181818181
0
LWPOLYLINE
8
CUT
90
8
70
1
10
104.96045454545455
20
-120.68
10
109.41954545454544
20
-120.68
10
111.865
20
-123.12545454545455
10
111.865
20
-123.61454545454546
10
109.41954545454544
20
-126.06
10
104.96045454545455
20
-126.06
10
102.515
20
-123.61454545454546
10
102.515
20
-123.12545454545455
0
LWPOLYLINE
8
CUT
90
8
70
1
10
130.45045454545453
20
-120.68
10
135.18954545454545
20
-120.68
10
137.635
20
-123.12545454545455
10
137.635
20
-123.61454545454546
10
135.18954545454545
20
-126.06
10
130.45045454545453
20
-126.06
10
128.005
20
-123.61454545454546
10
128.005
20
-123.12545454545455
0
LWPOLYLINE
8
CUT
90
8
70
1
10
105.09227272727273
20
-169.685
10
109.28772727272727
20
-169.685
10
111.865
20
-172.26227272727272
10
111.865
20
-172.7777272727273
10
109.28772727272727
20
-175.35500000000002
10
105.09227272727273
20
-175.35500000000002
10
102.515
20
-172.7777272727273
10
102.515
20
-172.26227272727272
0
LWPOLYLINE
8
CUT
90
8
70
1
10
130.5822727272727
20
-169.685
10
135.05772727272728
20
-169.685
10
137.635
20
-172.26227272727272
10
137.635
20
-172.7777272727273
10
135.05772727272728
20
-175.35500000000002
10
130.5822727272727
20
-175.35500000000002
10
128.005
20
-172.7777272727273
10
128.005
20
-172.26227272727272
0
LWPOLYLINE
8
CUT
90
8
70
1
10
45.80136363636364
20
-106.235
10
46.23863636363637
20
-106.235
10
48.425000000000004
20
-108.42136363636364
10
48.425000000000004
20
-111.41863636363637
10
46.23863636363637
20
-113.605
10
45.80136363636364
20
-113.605
10
43.615
20
-111.41863636363637
10
43.615
20
-108.42136363636364
0
LWPOLYLINE
8
CUT
90
8
70
1
10
54.48
20
-106.235
10
54.839999999999996
20
-106.235
10
56.63999999999999
20
-108.035
10
56.63999999999999
20
-112.08500000000001
10
54.839999999999996
20
-113.885
10
54.48
20
-113.885
10
52.68
20
-112.08500000000001
10
52.68
20
-108.035
0
LWPOLYLINE
8
CUT
90
8
70
1
10
120.25545454545454
20
-51.28
10
123.86454545454546
20
-51.28
10
126.31
20
-53.72545454545455
10
126.31
20
-54.21454545454545
10
123.86454545454546
20
-56.66
10
120.25545454545454
20
-56.66
10
117.81
20
-54.21454545454545
10
117.81
20
-53.72545454545455
0
LWPOLYLINE
8
CUT
90
8
70
1
10
194.17545454545453
20
-51.28
10
197.78454545454545
20
-51.28
10
200.23
20
-53.72545454545455
10
200.23
20
-54.21454545454545
10
197.78454545454545
20
-56.66
10
194.17545454545453
20
-56.66
10
191.73
20
-54.21454545454545
10
191.73
20
-53.72545454545455
0
LWPOLYLINE
8
CUT
90
8
70
1
10
120.25545454545454
20
-63.17
10
123.86454545454546
20
-63.17
10
126.31
20
-65.61545454545455
10
126.31
20
-66.10454545454544
10
123.86454545454546
20
-68.55
10
120.25545454545454
20
-68.55
10
117.81
20
-66.10454545454544
10
117.81
20
-65.61545454545455
0
LWPOLYLINE
8
CUT
90
8
70
1
10
194.3072727272727
20
-63.175000000000004
10
197.65272727272728
20
-63.175000000000004
10
200.23
20
-65.75227272727273
10
200.23
20
-66.26772727272727
10
197.65272727272728
20
-68.845
10
194.3072727272727
20
-68.845
10
191.73
20
-66.26772727272727
10
191.73
20
-65.75227272727273
0
LWPOLYLINE
8
CUT
90
8
70
1
10
180.01545454545453
20
-72.235
10
180.50454545454545
20
-72.235
10
182.95
20
-74.68045454545455
10
182.95
20
-79.13954545454544
10
180.50454545454545
20
-81.585
10
180.01545454545453
20
-81.585
10
177.57
20
-79.13954545454544
10
177.57
20
-74.68045454545455
0
LWPOLYLINE
8
CUT
90
8
70
1
10
211.44545454545454
20
-72.235
10
211.93454545454546
20
-72.235
10
214.38
20
-74.68045454545455
10
214.38
20
-79.13954545454544
10
211.93454545454546
20
-81.585
10
211.44545454545454
20
-81.585
10
209.0
20
-79.13954545454544
10
209.0
20
-74.68045454545455
0
LWPOLYLINE
8
CUT
90
8
70
1
10
227.02545454545455
20
-72.235
10
227.51454545454547
20
-72.235
10
229.96
20
-74.68045454545455
10
229.96
20
-79.13954545454544
10
227.51454545454547
20
-81.585
10
227.02545454545455
20
-81.585
10
224.58
20
-79.13954545454544
10
224.58
20
-74.68045454545455
0
LWPOLYLINE
8
CUT
90
8
70
1
10
258.4654545454545
20
-72.515
10
258.95454545454544
20
-72.515
10
261.4
20
-74.96045454545455
10
261.4
20
-79.13954545454544
10
258.95454545454544
20
-81.585
10
258.4654545454545
20
-81.585
10
256.02
20
-79.13954545454544
10
256.02
20
-74.96045454545455
0
LWPOLYLINE
8
CUT
90
8
70
1
10
180.01545454545453
20
-86.405
10
180.50454545454545
20
-86.405
10
182.95
20
-88.85045454545454
10
182.95
20
-93.30954545454546
10
180.50454545454545
20
-95.755
10
180.01545454545453
20
-95.755
10
177.57
20
-93.30954545454546
10
177.57
20
-88.85045454545454
0
LWPOLYLINE
8
CUT
90
8
70
1
10
211.44545454545454
20
-86.405
10
211.93454545454546
20
-86.405
10
214.38
20
-88.85045454545454
10
214.38
20
-93.30954545454546
10
211.93454545454546
20
-95.755
10
211.44545454545454
20
-95.755
10
209.0
20
-93.30954545454546
10
209.0
20
-88.85045454545454
0
LWPOLYLINE
8
CUT
90
8
70
1
10
227.02545454545455
20
-86.685
10
227.51454545454547
20
-86.685
10
229.96
20
-89.13045454545454
10
229.96
20
-93.30954545454546
10
227.51454545454547
20
-95.755
10
227.02545454545455
20
-95.755
10
224.58
20
-93.30954545454546
10
224.58
20
-89.13045454545454
0
LWPOLYLINE
8
CUT
90
8
70
1
10
258.4654545454545
20
-86.405
10
258.95454545454544
20
-86.405
10
261.4
20
-88.85045454545454
10
261.4
20
-93.30954545454546
10
258.95454545454544
20
-95.755
10
258.4654545454545
20
-95.755
10
256.02
20
-93.30954545454546
10
256.02
20
-88.85045454545454
0
LWPOLYLINE
8
CUT
90
8
70
1
10
186.24045454545453
20
-126.91
10
190.69954545454547
20
-126.91
10
193.145
20
-129.35545454545453
10
193.145
20
-129.84454545454545
10
190.69954545454547
20
-132.29
10
186.24045454545453
20
-132.29
10
183.795
20
-129.84454545454545
10
183.795
20
-129.35545454545453
0
LWPOLYLINE
8
CUT
90
8
70
1
10
221.36045454545453
20
-126.91
10
225.81954545454548
20
-126.91
10
228.26500000000001
20
-129.35545454545453
10
228.26500000000001
20
-129.84454545454545
10
225.81954545454548
20
-132.29
10
221.36045454545453
20
-132.29
10
218.915
20
-129.84454545454545
10
218.915
20
-129.35545454545453
0
LWPOLYLINE
8
CUT
90
8
70
1
10
160.78136363636364
20
-150.425
10
161.21863636363636
20
-150.425
10
163.405
20
-152.61136363636365
10
163.405
20
-155.60863636363638
10
161.21863636363636
20
-157.79500000000002
10
160.78136363636364
20
-157.79500000000002
10
158.595
20
-155.60863636363638
10
158.595
20
-152.61136363636365
0
LWPOLYLINE
8
CUT
90
8
70
1
10
168.8381818181818
20
-150.43
10
169.3018181818182
20
-150.43
10
171.62
20
-152.74818181818182
10
171.62
20
-155.19181818181818
10
169.3018181818182
20
-157.51
10
168.8381818181818
20
-157.51
10
166.51999999999998
20
-155.19181818181818
10
166.51999999999998
20
-152.74818181818182
0
LWPOLYLINE
8
CUT
90
8
70
1
10
186.3722727272727
20
-155.525
10
190.5677272727273
20
-155.525
10
193.145
20
-158.10227272727272
10
193.145
20
-158.6177272727273
10
190.5677272727273
20
-161.19500000000002
10
186.3722727272727
20
-161.19500000000002
10
183.795
20
-158.6177272727273
10
183.795
20
-158.10227272727272
0
LWPOLYLINE
8
CUT
90
8
70
1
10
221.2122727272727
20
-155.525
10
225.4077272727273
20
-155.525
10
227.985
20
-158.10227272727272
10
227.985
20
-158.6177272727273
10
225.4077272727273
20
-161.19500000000002
10
221.2122727272727
20
-161.19500000000002
10
218.635
20
-158.6177272727273
10
218.635
20
-158.10227272727272
0
LWPOLYLINE
8
CUT
90
8
70
1
10
248.68272727272725
20
-167.7
10
249.19727272727275
20
-167.7
10
251.77
20
-170.27272727272725
10
251.77
20
-173.62727272727273
10
249.19727272727275
20
-176.2
10
248.68272727272725
20
-176.2
10
246.10999999999999
20
-173.62727272727273
10
246.10999999999999
20
-170.27272727272725
0
LWPOLYLINE
8
CUT
90
8
70
1
10
266.8027272727273
20
-167.7
10
267.3172727272727
20
-167.7
10
269.89
20
-170.27272727272725
10
269.89
20
-173.62727272727273
10
267.3172727272727
20
-176.2
10
266.8027272727273
20
-176.2
10
264.23
20
-173.62727272727273
10
264.23
20
-170.27272727272725
0
LWPOLYLINE
8
CUT
90
8
70
1
10
237.77045454545453
20
-125.31
10
242.22954545454547
20
-125.31
10
244.675
20
-127.75545454545454
10
244.675
20
-128.24454545454546
10
242.22954545454547
20
-130.69
10
237.77045454545453
20
-130.69
10
235.325
20
-128.24454545454546
10
235.325
20
-127.75545454545454
0
LWPOLYLINE
8
CUT
90
8
70
1
10
261.7704545454545
20
-125.31
10
266.2295454545455
20
-125.31
10
268.675
20
-127.75545454545454
10
268.675
20
-128.24454545454546
10
266.2295454545455
20
-130.69
10
261.7704545454545
20
-130.69
10
259.325
20
-128.24454545454546
10
259.325
20
-127.75545454545454
0
LWPOLYLINE
8
CUT
90
8
70
1
10
237.77045454545453
20
-145.31
10
242.22954545454547
20
-145.31
10
244.675
20
-147.75545454545454
10
244.675
20
-148.24454545454546
10
242.22954545454547
20
-150.69
10
237.77045454545453
20
-150.69
10
235.325
20
-148.24454545454546
10
235.325
20
-147.75545454545454
0
LWPOLYLINE
8
CUT
90
8
70
1
10
261.7704545454545
20
-145.31
10
266.2295454545455
20
-145.31
10
268.675
20
-147.75545454545454
10
268.675
20
-148.24454545454546
10
266.2295454545455
20
-150.69
10
261.7704545454545
20
-150.69
10
259.325
20
-148.24454545454546
10
259.325
20
-147.75545454545454
0
ENDSEC
0
EOF