%TF.GenerationSoftware,KiCad,Pcbnew,10.0.3*%
%TF.CreationDate,2026-09-28T13:47:48+07:00*%
%TF.ProjectId,1,312e6b69-6361-4645-9f70-636258585858,rev?*%
%TF.SameCoordinates,Original*%
%TF.FileFunction,Soldermask,Top*%
%TF.FilePolarity,Negative*%
%FSLAX46Y46*%
G04 Gerber Fmt 4.6, Leading zero omitted, Abs format (unit mm)*
G04 Created by KiCad (PCBNEW 10.0.3) date 2026-09-28 13:47:48*
%MOMM*%
%LPD*%
G01*
G04 APERTURE LIST*
G04 Aperture macros list*
%AMRoundRect*
0 Rectangle with rounded corners*
0 $1 Rounding radius*
0 $2 $3 $4 $5 $6 $7 $8 $9 X,Y pos of 4 corners*
0 Add a 4 corners polygon primitive as box body*
4,1,4,$2,$3,$4,$5,$6,$7,$8,$9,$2,$3,0*
0 Add four circle primitives for the rounded corners*
1,1,$1+$1,$2,$3*
1,1,$1+$1,$4,$5*
1,1,$1+$1,$6,$7*
1,1,$1+$1,$8,$9*
0 Add four rect primitives between the rounded corners*
20,1,$1+$1,$2,$3,$4,$5,0*
20,1,$1+$1,$4,$5,$6,$7,0*
20,1,$1+$1,$6,$7,$8,$9,0*
20,1,$1+$1,$8,$9,$2,$3,0*%
G04 Aperture macros list end*
%ADD10C,0.200000*%
%ADD11C,0.000000*%
%ADD12RoundRect,0.237500X-0.237500X0.250000X-0.237500X-0.250000X0.237500X-0.250000X0.237500X0.250000X0*%
%ADD13RoundRect,0.237500X0.250000X0.237500X-0.250000X0.237500X-0.250000X-0.237500X0.250000X-0.237500X0*%
%ADD14R,1.000000X1.500000*%
%ADD15RoundRect,0.237500X-0.237500X0.300000X-0.237500X-0.300000X0.237500X-0.300000X0.237500X0.300000X0*%
%ADD16RoundRect,0.237500X0.300000X0.237500X-0.300000X0.237500X-0.300000X-0.237500X0.300000X-0.237500X0*%
%ADD17RoundRect,0.237500X-0.250000X-0.237500X0.250000X-0.237500X0.250000X0.237500X-0.250000X0.237500X0*%
%ADD18R,0.850000X0.850000*%
%ADD19RoundRect,0.237500X0.237500X-0.250000X0.237500X0.250000X-0.237500X0.250000X-0.237500X-0.250000X0*%
%ADD20RoundRect,0.237500X0.237500X-0.287500X0.237500X0.287500X-0.237500X0.287500X-0.237500X-0.287500X0*%
%ADD21C,1.600000*%
%ADD22RoundRect,0.102000X1.125000X1.125000X-1.125000X1.125000X-1.125000X-1.125000X1.125000X-1.125000X0*%
%ADD23O,3.804000X1.604000*%
%ADD24O,1.604000X2.804000*%
%ADD25RoundRect,0.237500X-0.300000X-0.237500X0.300000X-0.237500X0.300000X0.237500X-0.300000X0.237500X0*%
%ADD26RoundRect,0.250000X-0.450000X0.800000X-0.450000X-0.800000X0.450000X-0.800000X0.450000X0.800000X0*%
%ADD27RoundRect,0.218750X-0.218750X-0.256250X0.218750X-0.256250X0.218750X0.256250X-0.218750X0.256250X0*%
%ADD28RoundRect,0.150000X0.625000X-0.150000X0.625000X0.150000X-0.625000X0.150000X-0.625000X-0.150000X0*%
%ADD29RoundRect,0.250000X0.650000X-0.350000X0.650000X0.350000X-0.650000X0.350000X-0.650000X-0.350000X0*%
%ADD30RoundRect,0.076750X-0.810250X-0.230250X0.810250X-0.230250X0.810250X0.230250X-0.810250X0.230250X0*%
%ADD31RoundRect,0.250000X-0.337500X-0.475000X0.337500X-0.475000X0.337500X0.475000X-0.337500X0.475000X0*%
%ADD32R,2.159000X2.743200*%
%ADD33R,3.150000X2.200000*%
%ADD34C,7.000000*%
%ADD35RoundRect,0.237500X-0.237500X0.287500X-0.237500X-0.287500X0.237500X-0.287500X0.237500X0.287500X0*%
%ADD36R,1.800000X2.000000*%
%ADD37RoundRect,0.198500X-0.508500X-0.198500X0.508500X-0.198500X0.508500X0.198500X-0.508500X0.198500X0*%
%ADD38RoundRect,0.150000X-0.625000X0.150000X-0.625000X-0.150000X0.625000X-0.150000X0.625000X0.150000X0*%
%ADD39RoundRect,0.250000X-0.650000X0.350000X-0.650000X-0.350000X0.650000X-0.350000X0.650000X0.350000X0*%
%ADD40C,6.000000*%
%ADD41R,2.286000X1.905000*%
%ADD42O,2.286000X1.905000*%
%ADD43RoundRect,0.250000X-1.500000X-0.550000X1.500000X-0.550000X1.500000X0.550000X-1.500000X0.550000X0*%
%ADD44RoundRect,0.250000X1.500000X0.550000X-1.500000X0.550000X-1.500000X-0.550000X1.500000X-0.550000X0*%
%ADD45R,0.711200X0.228600*%
%ADD46RoundRect,0.198500X-0.198500X0.508500X-0.198500X-0.508500X0.198500X-0.508500X0.198500X0.508500X0*%
%ADD47C,5.000000*%
%ADD48C,0.500000*%
%ADD49RoundRect,0.237500X0.237500X-0.300000X0.237500X0.300000X-0.237500X0.300000X-0.237500X-0.300000X0*%
%ADD50RoundRect,0.102000X-0.350000X-0.325000X0.350000X-0.325000X0.350000X0.325000X-0.350000X0.325000X0*%
%ADD51RoundRect,0.102000X-0.325000X-0.350000X0.325000X-0.350000X0.325000X0.350000X-0.325000X0.350000X0*%
%ADD52RoundRect,0.237500X-0.287500X-0.237500X0.287500X-0.237500X0.287500X0.237500X-0.287500X0.237500X0*%
%ADD53RoundRect,0.102000X-0.177800X0.736600X-0.177800X-0.736600X0.177800X-0.736600X0.177800X0.736600X0*%
%ADD54RoundRect,0.250000X-0.725000X0.600000X-0.725000X-0.600000X0.725000X-0.600000X0.725000X0.600000X0*%
%ADD55O,1.950000X1.700000*%
%ADD56R,3.810000X5.000000*%
G04 APERTURE END LIST*
D10*
X96250000Y-64650000D02*
X99111181Y-64650000D01*
X99411181Y-64933585D01*
X99411181Y-67233585D01*
X99665662Y-67488066D01*
X100330078Y-67486842D01*
X100660967Y-67844307D01*
X102217389Y-68145585D01*
X103674806Y-68146620D01*
X103674806Y-68220585D01*
X102864806Y-68220585D01*
X102421181Y-68333585D01*
X102121004Y-68633762D01*
X96544330Y-68602762D01*
X96250978Y-68384308D01*
X96250000Y-64650000D01*
G36*
X99411181Y-64933585D02*
G01*
X99411181Y-67233585D01*
X99665662Y-67488066D01*
X100330078Y-67486842D01*
X100660967Y-67844307D01*
X102217389Y-68145585D01*
X103674806Y-68146620D01*
X103674806Y-68220585D01*
X102864806Y-68220585D01*
X102421181Y-68333585D01*
X102121004Y-68633762D01*
X96544330Y-68602762D01*
X96250978Y-68384308D01*
X96250000Y-64650000D01*
X99111181Y-64650000D01*
X99411181Y-64933585D01*
G37*
X123899843Y-59050039D02*
X126874419Y-59032974D01*
X127174419Y-59332974D01*
X127174419Y-61632974D01*
X127428900Y-61887455D01*
X128093316Y-61886231D01*
X128424205Y-62243696D01*
X129603238Y-62475000D01*
X131438044Y-62475000D01*
X131438044Y-62600000D01*
X130628044Y-62600000D01*
X130184419Y-62732974D01*
X130053614Y-62863779D01*
X124099851Y-62830682D01*
X123900790Y-62370796D01*
X123899843Y-59050039D01*
G36*
X127174419Y-59332974D02*
G01*
X127174419Y-61632974D01*
X127428900Y-61887455D01*
X128093316Y-61886231D01*
X128424205Y-62243696D01*
X129603238Y-62475000D01*
X131438044Y-62475000D01*
X131438044Y-62600000D01*
X130628044Y-62600000D01*
X130184419Y-62732974D01*
X130053614Y-62863779D01*
X124099851Y-62830682D01*
X123900790Y-62370796D01*
X123899843Y-59050039D01*
X126874419Y-59032974D01*
X127174419Y-59332974D01*
G37*
X123901107Y-71658858D02*
X126878955Y-71641774D01*
X127178955Y-71941774D01*
X127178955Y-74241774D01*
X127433436Y-74496255D01*
X128097852Y-74495031D01*
X128428741Y-74852496D01*
X129342580Y-75081256D01*
X131442580Y-75081256D01*
X131442580Y-75225000D01*
X130632580Y-75225000D01*
X130188955Y-75300000D01*
X130017153Y-75513576D01*
X124023735Y-75480258D01*
X123901595Y-75235313D01*
X123901107Y-71658858D01*
G36*
X127178955Y-71941774D02*
G01*
X127178955Y-74241774D01*
X127433436Y-74496255D01*
X128097852Y-74495031D01*
X128428741Y-74852496D01*
X129342580Y-75081256D01*
X131442580Y-75081256D01*
X131442580Y-75225000D01*
X130632580Y-75225000D01*
X130188955Y-75300000D01*
X130017153Y-75513576D01*
X124023735Y-75480258D01*
X123901595Y-75235313D01*
X123901107Y-71658858D01*
X126878955Y-71641774D01*
X127178955Y-71941774D01*
G37*
D11*
%TO.C,JP2*%
G36*
X193329999Y-79769400D02*
G01*
X193029999Y-79769400D01*
X193029999Y-78269400D01*
X193329999Y-78269400D01*
X193329999Y-79769400D01*
G37*
%TO.C,JP6*%
G36*
X193317000Y-62878400D02*
G01*
X193017000Y-62878400D01*
X193017000Y-61378400D01*
X193317000Y-61378400D01*
X193317000Y-62878400D01*
G37*
%TO.C,JP5*%
G36*
X193317000Y-67272600D02*
G01*
X193017000Y-67272600D01*
X193017000Y-65772600D01*
X193317000Y-65772600D01*
X193317000Y-67272600D01*
G37*
%TO.C,JP4*%
G36*
X193329999Y-71280386D02*
G01*
X193029999Y-71280386D01*
X193029999Y-69780386D01*
X193329999Y-69780386D01*
X193329999Y-71280386D01*
G37*
%TO.C,JP7*%
G36*
X193367800Y-84468400D02*
G01*
X193067800Y-84468400D01*
X193067800Y-82968400D01*
X193367800Y-82968400D01*
X193367800Y-84468400D01*
G37*
%TO.C,JP3*%
G36*
X193329999Y-75476800D02*
G01*
X193029999Y-75476800D01*
X193029999Y-73976800D01*
X193329999Y-73976800D01*
X193329999Y-75476800D01*
G37*
%TD*%
D12*
%TO.C,R17*%
X94453786Y-86070072D03*
X94453786Y-87895072D03*
%TD*%
D13*
%TO.C,R14*%
X159000000Y-88800000D03*
X157175000Y-88800000D03*
%TD*%
%TO.C,R20*%
X170381300Y-81559400D03*
X168556300Y-81559400D03*
%TD*%
D14*
%TO.C,JP2*%
X193829998Y-79019400D03*
X192530000Y-79019400D03*
%TD*%
D15*
%TO.C,C25*%
X107815000Y-105174099D03*
X107815000Y-106899101D03*
%TD*%
D13*
%TO.C,R35*%
X163116900Y-102362000D03*
X161291900Y-102362000D03*
%TD*%
D16*
%TO.C,C56*%
X136043478Y-79887874D03*
X134318476Y-79887874D03*
%TD*%
D13*
%TO.C,R31*%
X182510000Y-70597109D03*
X180685000Y-70597109D03*
%TD*%
D15*
%TO.C,C23*%
X94766000Y-105281400D03*
X94766000Y-107006402D03*
%TD*%
D17*
%TO.C,R61*%
X109237500Y-66115712D03*
X111062500Y-66115712D03*
%TD*%
D13*
%TO.C,R32*%
X182510000Y-66450000D03*
X180685000Y-66450000D03*
%TD*%
D18*
%TO.C,TP8*%
X184787500Y-62144646D03*
%TD*%
D19*
%TO.C,R51*%
X129082800Y-138783700D03*
X129082800Y-136958700D03*
%TD*%
D20*
%TO.C,D17*%
X125715283Y-138701199D03*
X125715283Y-136951201D03*
%TD*%
D13*
%TO.C,R42*%
X131062100Y-102412800D03*
X129237100Y-102412800D03*
%TD*%
D21*
%TO.C,J2*%
X111488250Y-41947999D03*
D22*
X111488250Y-51197999D03*
D23*
X111488250Y-45197999D03*
D24*
X116338250Y-44697999D03*
X106638250Y-44697999D03*
X116338250Y-49397999D03*
X106638250Y-49397999D03*
%TD*%
D17*
%TO.C,R46*%
X133434179Y-73050000D03*
X135259179Y-73050000D03*
%TD*%
D25*
%TO.C,C46*%
X142625000Y-79704000D03*
X144350000Y-79704000D03*
%TD*%
D13*
%TO.C,R33*%
X182510000Y-62150000D03*
X180685000Y-62150000D03*
%TD*%
%TO.C,R29*%
X182510000Y-79150000D03*
X180685000Y-79150000D03*
%TD*%
D26*
%TO.C,SW1*%
X101092000Y-102431400D03*
X101092000Y-111531400D03*
X96592000Y-102431400D03*
X96592000Y-111531400D03*
%TD*%
D15*
%TO.C,C4*%
X134435624Y-63955754D03*
X134435624Y-65680756D03*
%TD*%
D27*
%TO.C,D34*%
X133718758Y-58808263D03*
X135293758Y-58808263D03*
%TD*%
D28*
%TO.C,J12*%
X189925000Y-137875000D03*
X189925000Y-136875000D03*
X189925000Y-135875000D03*
X189925000Y-134875000D03*
D29*
X193800000Y-139175000D03*
X193800000Y-133575000D03*
%TD*%
D12*
%TO.C,R18*%
X107801458Y-101747399D03*
X107801458Y-103572399D03*
%TD*%
D18*
%TO.C,TP3*%
X146084758Y-88725664D03*
%TD*%
D12*
%TO.C,R19*%
X107899200Y-86174609D03*
X107899200Y-87999609D03*
%TD*%
D14*
%TO.C,JP6*%
X193816999Y-62128400D03*
X192517001Y-62128400D03*
%TD*%
D16*
%TO.C,C63*%
X107952201Y-73050000D03*
X106227201Y-73050000D03*
%TD*%
%TO.C,C59*%
X136214701Y-67286929D03*
X134489701Y-67286929D03*
%TD*%
D30*
%TO.C,U4*%
X162200000Y-84460000D03*
X162200000Y-85110000D03*
X162200000Y-85760000D03*
X162200000Y-86410000D03*
X162200000Y-87060000D03*
X162200000Y-87710000D03*
X162200000Y-88360000D03*
X162200000Y-89010000D03*
X167940000Y-89010000D03*
X167940000Y-88360000D03*
X167940000Y-87710000D03*
X167940000Y-87060000D03*
X167940000Y-86410000D03*
X167940000Y-85760000D03*
X167940000Y-85110000D03*
X167940000Y-84460000D03*
%TD*%
D13*
%TO.C,R15*%
X170357200Y-83083400D03*
X168532200Y-83083400D03*
%TD*%
D31*
%TO.C,C9*%
X129725000Y-60191750D03*
X131800000Y-60191750D03*
%TD*%
D32*
%TO.C,D12*%
X139471400Y-95783400D03*
X136118600Y-95783400D03*
%TD*%
D33*
%TO.C,D1*%
X133800000Y-50900000D03*
X133800000Y-43900000D03*
%TD*%
D34*
%TO.C,H1*%
X95200000Y-44600000D03*
%TD*%
D14*
%TO.C,JP5*%
X193816999Y-66522600D03*
X192517001Y-66522600D03*
%TD*%
D35*
%TO.C,D6*%
X158445000Y-52257378D03*
X158445000Y-54007376D03*
%TD*%
D17*
%TO.C,R22*%
X142292700Y-88569800D03*
X144117700Y-88569800D03*
%TD*%
D15*
%TO.C,C24*%
X94450600Y-89536000D03*
X94450600Y-91261002D03*
%TD*%
D36*
%TO.C,L1*%
X125130622Y-73236411D03*
X125130622Y-77736411D03*
%TD*%
D19*
%TO.C,R4*%
X135975000Y-65737500D03*
X135975000Y-63912500D03*
%TD*%
D37*
%TO.C,Q4*%
X133057500Y-100450000D03*
X133057500Y-102350000D03*
X135567500Y-101400000D03*
%TD*%
D20*
%TO.C,D19*%
X157683200Y-138791199D03*
X157683200Y-137041201D03*
%TD*%
D38*
%TO.C,J17*%
X100000000Y-122325001D03*
X100000000Y-123325001D03*
X100000000Y-124325001D03*
X100000000Y-125325001D03*
D39*
X96125000Y-121025001D03*
X96125000Y-126625001D03*
%TD*%
D18*
%TO.C,TP6*%
X184787499Y-70535800D03*
%TD*%
D17*
%TO.C,R75*%
X136798428Y-58806935D03*
X138623428Y-58806935D03*
%TD*%
D34*
%TO.C,H3*%
X192400000Y-159000000D03*
%TD*%
D17*
%TO.C,R45*%
X136804207Y-73050000D03*
X138629207Y-73050000D03*
%TD*%
D15*
%TO.C,C5*%
X106813362Y-69502700D03*
X106813362Y-71227700D03*
%TD*%
D18*
%TO.C,TP2*%
X148450000Y-88722200D03*
%TD*%
D31*
%TO.C,C52*%
X129725000Y-77554255D03*
X131800000Y-77554255D03*
%TD*%
D14*
%TO.C,JP4*%
X193829998Y-70530386D03*
X192530000Y-70530386D03*
%TD*%
D32*
%TO.C,D11*%
X171500800Y-95783400D03*
X168148000Y-95783400D03*
%TD*%
D18*
%TO.C,TP4*%
X184787499Y-79044800D03*
%TD*%
D19*
%TO.C,R7*%
X108340238Y-71277700D03*
X108340238Y-69452700D03*
%TD*%
D40*
%TO.C,U10*%
X162400000Y-157600000D03*
D41*
X172573000Y-155370000D03*
D42*
X172573000Y-152830000D03*
%TD*%
D15*
%TO.C,C26*%
X107877200Y-89637600D03*
X107877200Y-91362602D03*
%TD*%
D12*
%TO.C,R16*%
X94778754Y-101854870D03*
X94778754Y-103679870D03*
%TD*%
D17*
%TO.C,R77*%
X109237500Y-64463114D03*
X111062500Y-64463114D03*
%TD*%
%TO.C,R40*%
X137400000Y-102400000D03*
X139225000Y-102400000D03*
%TD*%
D15*
%TO.C,C27*%
X149562793Y-83949668D03*
X149562793Y-85674670D03*
%TD*%
%TO.C,C3*%
X134264400Y-76556699D03*
X134264400Y-78281701D03*
%TD*%
D13*
%TO.C,R13*%
X159000000Y-87276000D03*
X157175000Y-87276000D03*
%TD*%
D16*
%TO.C,C33*%
X147090301Y-109804200D03*
X145365299Y-109804200D03*
%TD*%
D43*
%TO.C,C34*%
X144100000Y-105200000D03*
X149500000Y-105200000D03*
%TD*%
D44*
%TO.C,C43*%
X142791500Y-145600005D03*
X137391500Y-145600005D03*
%TD*%
D45*
%TO.C,U2*%
X131162400Y-62018129D03*
X131162400Y-62518255D03*
X131162400Y-63018381D03*
X132762600Y-63018381D03*
X132762600Y-62518255D03*
X132762600Y-62018129D03*
%TD*%
D46*
%TO.C,Q10*%
X158041500Y-140832500D03*
X156141500Y-140832500D03*
X157091500Y-143342500D03*
%TD*%
D17*
%TO.C,R74*%
X133434179Y-60441750D03*
X135259179Y-60441750D03*
%TD*%
D19*
%TO.C,R54*%
X124002800Y-138707500D03*
X124002800Y-136882500D03*
%TD*%
D32*
%TO.C,D16*%
X126851400Y-132994400D03*
X123498600Y-132994400D03*
%TD*%
D16*
%TO.C,C47*%
X165250001Y-81576000D03*
X163524999Y-81576000D03*
%TD*%
D27*
%TO.C,D35*%
X105944395Y-64459454D03*
X107519395Y-64459454D03*
%TD*%
D19*
%TO.C,R36*%
X130746558Y-138783700D03*
X130746558Y-136958700D03*
%TD*%
D32*
%TO.C,D18*%
X159351400Y-133451600D03*
X155998600Y-133451600D03*
%TD*%
D43*
%TO.C,C32*%
X175700000Y-105200000D03*
X181100000Y-105200000D03*
%TD*%
D26*
%TO.C,SW2*%
X100776600Y-86636000D03*
X100776600Y-95736000D03*
X96276600Y-86636000D03*
X96276600Y-95736000D03*
%TD*%
D47*
%TO.C,U8*%
X174344999Y-117537500D03*
X156105000Y-117537500D03*
%TD*%
D36*
%TO.C,L5*%
X125081900Y-60586141D03*
X125081900Y-65086141D03*
%TD*%
D48*
%TO.C,TP1*%
X170078400Y-78079600D03*
%TD*%
D12*
%TO.C,R11*%
X166900000Y-81287500D03*
X166900000Y-83112500D03*
%TD*%
D35*
%TO.C,D15*%
X161966001Y-70303001D03*
X161966001Y-72052999D03*
%TD*%
D19*
%TO.C,R55*%
X163200000Y-138712500D03*
X163200000Y-136887500D03*
%TD*%
D13*
%TO.C,R37*%
X163142300Y-100812600D03*
X161317300Y-100812600D03*
%TD*%
D31*
%TO.C,C2*%
X129725000Y-72800000D03*
X131800000Y-72800000D03*
%TD*%
D25*
%TO.C,C22*%
X163525000Y-83100000D03*
X165250000Y-83100000D03*
%TD*%
D19*
%TO.C,R56*%
X161160000Y-138712500D03*
X161160000Y-136887500D03*
%TD*%
D16*
%TO.C,C58*%
X138573428Y-62076565D03*
X136848428Y-62076565D03*
%TD*%
%TO.C,C31*%
X179912501Y-109675000D03*
X178187499Y-109675000D03*
%TD*%
D31*
%TO.C,C60*%
X101962500Y-70600000D03*
X104037500Y-70600000D03*
%TD*%
D13*
%TO.C,R34*%
X182550001Y-83627280D03*
X180725001Y-83627280D03*
%TD*%
D35*
%TO.C,D8*%
X151800000Y-52257378D03*
X151800000Y-54007376D03*
%TD*%
D12*
%TO.C,R24*%
X158450000Y-45594877D03*
X158450000Y-47419877D03*
%TD*%
D18*
%TO.C,TP7*%
X184787499Y-66548000D03*
%TD*%
D44*
%TO.C,C45*%
X174991500Y-145400005D03*
X169591500Y-145400005D03*
%TD*%
D49*
%TO.C,C29*%
X161926695Y-68481865D03*
X161926695Y-66756863D03*
%TD*%
D17*
%TO.C,R39*%
X169367500Y-102318918D03*
X171192500Y-102318918D03*
%TD*%
%TO.C,R76*%
X105671679Y-66115712D03*
X107496679Y-66115712D03*
%TD*%
D50*
%TO.C,U5*%
X144400000Y-82800000D03*
X145670000Y-82800000D03*
X146940000Y-82800000D03*
D51*
X147770000Y-83630000D03*
X147770000Y-84900000D03*
X147770000Y-86170000D03*
D50*
X146940000Y-87000000D03*
X145670000Y-87000000D03*
X144400000Y-87000000D03*
D51*
X143570000Y-86170000D03*
X143570000Y-84900000D03*
X143570000Y-83630000D03*
%TD*%
D52*
%TO.C,D13*%
X169405000Y-100750000D03*
X171155000Y-100750000D03*
%TD*%
D34*
%TO.C,H2*%
X192400000Y-44600000D03*
%TD*%
D12*
%TO.C,R25*%
X155115455Y-45594877D03*
X155115455Y-47419877D03*
%TD*%
D53*
%TO.C,U7*%
X158816400Y-66479000D03*
X158181400Y-66479000D03*
X157521000Y-66479000D03*
X156886000Y-66479000D03*
X156225600Y-66479000D03*
X155565200Y-66479000D03*
X154930200Y-66479000D03*
X154269800Y-66479000D03*
X153634800Y-66479000D03*
X152974400Y-66479000D03*
X152314000Y-66479000D03*
X151679000Y-66479000D03*
X151018600Y-66479000D03*
X150383600Y-66479000D03*
X150383600Y-72321000D03*
X151018600Y-72321000D03*
X151679000Y-72321000D03*
X152314000Y-72321000D03*
X152974400Y-72321000D03*
X153634800Y-72321000D03*
X154269800Y-72321000D03*
X154930200Y-72321000D03*
X155565200Y-72321000D03*
X156225600Y-72321000D03*
X156886000Y-72321000D03*
X157521000Y-72321000D03*
X158181400Y-72321000D03*
X158816400Y-72321000D03*
%TD*%
D17*
%TO.C,R60*%
X136798428Y-60441750D03*
X138623428Y-60441750D03*
%TD*%
D49*
%TO.C,C42*%
X127419042Y-138733701D03*
X127419042Y-137008699D03*
%TD*%
D26*
%TO.C,SW4*%
X114213200Y-86737600D03*
X114213200Y-95837600D03*
X109713200Y-86737600D03*
X109713200Y-95837600D03*
%TD*%
D18*
%TO.C,TP5*%
X184787499Y-74701400D03*
%TD*%
D19*
%TO.C,R23*%
X148564600Y-73150100D03*
X148564600Y-71325100D03*
%TD*%
D16*
%TO.C,C55*%
X138579208Y-74722565D03*
X136854206Y-74722565D03*
%TD*%
D49*
%TO.C,C44*%
X159308800Y-138733701D03*
X159308800Y-137008699D03*
%TD*%
D35*
%TO.C,D7*%
X155075000Y-52257378D03*
X155075000Y-54007376D03*
%TD*%
D19*
%TO.C,R44*%
X160442000Y-72090500D03*
X160442000Y-70265500D03*
%TD*%
D13*
%TO.C,R30*%
X182510000Y-74720386D03*
X180685000Y-74720386D03*
%TD*%
D28*
%TO.C,J9*%
X189925000Y-125325001D03*
X189925000Y-124325001D03*
X189925000Y-123325001D03*
X189925000Y-122325001D03*
D29*
X193800000Y-126625001D03*
X193800000Y-121025001D03*
%TD*%
D49*
%TO.C,C30*%
X160442000Y-68484501D03*
X160442000Y-66759499D03*
%TD*%
D27*
%TO.C,D33*%
X133692936Y-71435910D03*
X135267936Y-71435910D03*
%TD*%
D36*
%TO.C,L2*%
X97300000Y-66160000D03*
X97300000Y-70660000D03*
%TD*%
D14*
%TO.C,JP7*%
X193867799Y-83718400D03*
X192567801Y-83718400D03*
%TD*%
D45*
%TO.C,U3*%
X103399900Y-67709874D03*
X103399900Y-68210000D03*
X103399900Y-68710126D03*
X105000100Y-68710126D03*
X105000100Y-68210000D03*
X105000100Y-67709874D03*
%TD*%
D12*
%TO.C,R26*%
X151800000Y-45594877D03*
X151800000Y-47419877D03*
%TD*%
D19*
%TO.C,R59*%
X156057600Y-138783700D03*
X156057600Y-136958700D03*
%TD*%
D31*
%TO.C,C53*%
X129725000Y-79664255D03*
X131800000Y-79664255D03*
%TD*%
D40*
%TO.C,U9*%
X130200000Y-157600000D03*
D41*
X141253000Y-155310000D03*
D42*
X141253000Y-152770000D03*
%TD*%
D47*
%TO.C,U11*%
X142069999Y-117537500D03*
X123830000Y-117537500D03*
%TD*%
D26*
%TO.C,SW3*%
X114101000Y-102336600D03*
X114101000Y-111436600D03*
X109601000Y-102336600D03*
X109601000Y-111436600D03*
%TD*%
D18*
%TO.C,TP9*%
X184827501Y-83548126D03*
%TD*%
D25*
%TO.C,C28*%
X142625000Y-81100000D03*
X144350000Y-81100000D03*
%TD*%
D45*
%TO.C,U1*%
X131162400Y-74664129D03*
X131162400Y-75164255D03*
X131162400Y-75664381D03*
X132762600Y-75664381D03*
X132762600Y-75164255D03*
X132762600Y-74664129D03*
%TD*%
D52*
%TO.C,D14*%
X137437500Y-100750000D03*
X139187500Y-100750000D03*
%TD*%
D54*
%TO.C,J3*%
X191925000Y-88850000D03*
D55*
X191925000Y-91350000D03*
X191925000Y-93850000D03*
X191925000Y-96350000D03*
%TD*%
D38*
%TO.C,J1*%
X100000000Y-134875000D03*
X100000000Y-135875000D03*
X100000000Y-136875000D03*
X100000000Y-137875000D03*
D39*
X96125000Y-133575000D03*
X96125000Y-139175000D03*
%TD*%
D16*
%TO.C,C62*%
X111012500Y-67768310D03*
X109287500Y-67768310D03*
%TD*%
D13*
%TO.C,R10*%
X170370263Y-79972450D03*
X168545263Y-79972450D03*
%TD*%
D19*
%TO.C,R1*%
X135788776Y-78307445D03*
X135788776Y-76482445D03*
%TD*%
D31*
%TO.C,C8*%
X129725000Y-58018255D03*
X131800000Y-58018255D03*
%TD*%
%TO.C,C15*%
X101962500Y-63710000D03*
X104037500Y-63710000D03*
%TD*%
%TO.C,C54*%
X129725000Y-64908255D03*
X131800000Y-64908255D03*
%TD*%
D34*
%TO.C,H4*%
X95200000Y-159000000D03*
%TD*%
D46*
%TO.C,Q8*%
X125915100Y-141105005D03*
X124015100Y-141105005D03*
X124965100Y-143615005D03*
%TD*%
D14*
%TO.C,JP3*%
X193829998Y-74726800D03*
X192530000Y-74726800D03*
%TD*%
D31*
%TO.C,C61*%
X101962500Y-72710000D03*
X104037500Y-72710000D03*
%TD*%
%TO.C,C57*%
X129725000Y-67018255D03*
X131800000Y-67018255D03*
%TD*%
D17*
%TO.C,R73*%
X136804207Y-71422699D03*
X138629207Y-71422699D03*
%TD*%
D31*
%TO.C,C16*%
X101962500Y-65865712D03*
X104037500Y-65865712D03*
%TD*%
D37*
%TO.C,Q3*%
X165000000Y-100300000D03*
X165000000Y-102200000D03*
X167510000Y-101250000D03*
%TD*%
D56*
%TO.C,F1*%
X123400000Y-51600000D03*
X123400000Y-44420000D03*
%TD*%
D13*
%TO.C,R38*%
X131036700Y-100939600D03*
X129211700Y-100939600D03*
%TD*%
D31*
%TO.C,C1*%
X129725000Y-70664255D03*
X131800000Y-70664255D03*
%TD*%
M02*
