%TF.GenerationSoftware,KiCad,Pcbnew,10.0.6*%
%TF.CreationDate,2026-10-09T11:04:39-05:00*%
%TF.ProjectId,1,312e6b69-6361-4645-9f70-636258585858,1.05*%
%TF.SameCoordinates,Original*%
%TF.FileFunction,Legend,Top*%
%TF.FilePolarity,Positive*%
%FSLAX46Y46*%
G04 Gerber Fmt 4.6, Leading zero omitted, Abs format (unit mm)*
G04 Created by KiCad (PCBNEW 10.0.6) date 2026-10-09 11:04:39*
%MOMM*%
%LPD*%
G01*
G04 APERTURE LIST*
%ADD10C,0.100000*%
%ADD11C,0.150000*%
%ADD12C,0.270000*%
%ADD13C,0.120000*%
%ADD14C,0.200000*%
%ADD15C,0.127000*%
%ADD16C,0.025400*%
%ADD17C,0.152400*%
%ADD18C,0.254000*%
G04 APERTURE END LIST*
D10*
X93577475Y-125461116D02*
X92577475Y-125461116D01*
X92672713Y-125032545D02*
X92625094Y-124984926D01*
X92625094Y-124984926D02*
X92577475Y-124889688D01*
X92577475Y-124889688D02*
X92577475Y-124651593D01*
X92577475Y-124651593D02*
X92625094Y-124556355D01*
X92625094Y-124556355D02*
X92672713Y-124508736D01*
X92672713Y-124508736D02*
X92767951Y-124461117D01*
X92767951Y-124461117D02*
X92863189Y-124461117D01*
X92863189Y-124461117D02*
X93006046Y-124508736D01*
X93006046Y-124508736D02*
X93577475Y-125080164D01*
X93577475Y-125080164D02*
X93577475Y-124461117D01*
X93482236Y-123461117D02*
X93529856Y-123508736D01*
X93529856Y-123508736D02*
X93577475Y-123651593D01*
X93577475Y-123651593D02*
X93577475Y-123746831D01*
X93577475Y-123746831D02*
X93529856Y-123889688D01*
X93529856Y-123889688D02*
X93434617Y-123984926D01*
X93434617Y-123984926D02*
X93339379Y-124032545D01*
X93339379Y-124032545D02*
X93148903Y-124080164D01*
X93148903Y-124080164D02*
X93006046Y-124080164D01*
X93006046Y-124080164D02*
X92815570Y-124032545D01*
X92815570Y-124032545D02*
X92720332Y-123984926D01*
X92720332Y-123984926D02*
X92625094Y-123889688D01*
X92625094Y-123889688D02*
X92577475Y-123746831D01*
X92577475Y-123746831D02*
X92577475Y-123651593D01*
X92577475Y-123651593D02*
X92625094Y-123508736D01*
X92625094Y-123508736D02*
X92672713Y-123461117D01*
X93672713Y-123270641D02*
X93672713Y-122508736D01*
X92577475Y-122365878D02*
X92577475Y-121746831D01*
X92577475Y-121746831D02*
X92958427Y-122080164D01*
X92958427Y-122080164D02*
X92958427Y-121937307D01*
X92958427Y-121937307D02*
X93006046Y-121842069D01*
X93006046Y-121842069D02*
X93053665Y-121794450D01*
X93053665Y-121794450D02*
X93148903Y-121746831D01*
X93148903Y-121746831D02*
X93386998Y-121746831D01*
X93386998Y-121746831D02*
X93482236Y-121794450D01*
X93482236Y-121794450D02*
X93529856Y-121842069D01*
X93529856Y-121842069D02*
X93577475Y-121937307D01*
X93577475Y-121937307D02*
X93577475Y-122223021D01*
X93577475Y-122223021D02*
X93529856Y-122318259D01*
X93529856Y-122318259D02*
X93482236Y-122365878D01*
X93802531Y-138946115D02*
X92802531Y-138946115D01*
X92897769Y-138517544D02*
X92850150Y-138469925D01*
X92850150Y-138469925D02*
X92802531Y-138374687D01*
X92802531Y-138374687D02*
X92802531Y-138136592D01*
X92802531Y-138136592D02*
X92850150Y-138041354D01*
X92850150Y-138041354D02*
X92897769Y-137993735D01*
X92897769Y-137993735D02*
X92993007Y-137946116D01*
X92993007Y-137946116D02*
X93088245Y-137946116D01*
X93088245Y-137946116D02*
X93231102Y-137993735D01*
X93231102Y-137993735D02*
X93802531Y-138565163D01*
X93802531Y-138565163D02*
X93802531Y-137946116D01*
X93707292Y-136946116D02*
X93754912Y-136993735D01*
X93754912Y-136993735D02*
X93802531Y-137136592D01*
X93802531Y-137136592D02*
X93802531Y-137231830D01*
X93802531Y-137231830D02*
X93754912Y-137374687D01*
X93754912Y-137374687D02*
X93659673Y-137469925D01*
X93659673Y-137469925D02*
X93564435Y-137517544D01*
X93564435Y-137517544D02*
X93373959Y-137565163D01*
X93373959Y-137565163D02*
X93231102Y-137565163D01*
X93231102Y-137565163D02*
X93040626Y-137517544D01*
X93040626Y-137517544D02*
X92945388Y-137469925D01*
X92945388Y-137469925D02*
X92850150Y-137374687D01*
X92850150Y-137374687D02*
X92802531Y-137231830D01*
X92802531Y-137231830D02*
X92802531Y-137136592D01*
X92802531Y-137136592D02*
X92850150Y-136993735D01*
X92850150Y-136993735D02*
X92897769Y-136946116D01*
X93897769Y-136755640D02*
X93897769Y-135993735D01*
X93135864Y-135327068D02*
X93802531Y-135327068D01*
X92754912Y-135565163D02*
X93469197Y-135803258D01*
X93469197Y-135803258D02*
X93469197Y-135184211D01*
X104097419Y-50646115D02*
X103097419Y-50646115D01*
X103097419Y-50646115D02*
X103097419Y-50408020D01*
X103097419Y-50408020D02*
X103145038Y-50265163D01*
X103145038Y-50265163D02*
X103240276Y-50169925D01*
X103240276Y-50169925D02*
X103335514Y-50122306D01*
X103335514Y-50122306D02*
X103525990Y-50074687D01*
X103525990Y-50074687D02*
X103668847Y-50074687D01*
X103668847Y-50074687D02*
X103859323Y-50122306D01*
X103859323Y-50122306D02*
X103954561Y-50169925D01*
X103954561Y-50169925D02*
X104049800Y-50265163D01*
X104049800Y-50265163D02*
X104097419Y-50408020D01*
X104097419Y-50408020D02*
X104097419Y-50646115D01*
X104002180Y-49074687D02*
X104049800Y-49122306D01*
X104049800Y-49122306D02*
X104097419Y-49265163D01*
X104097419Y-49265163D02*
X104097419Y-49360401D01*
X104097419Y-49360401D02*
X104049800Y-49503258D01*
X104049800Y-49503258D02*
X103954561Y-49598496D01*
X103954561Y-49598496D02*
X103859323Y-49646115D01*
X103859323Y-49646115D02*
X103668847Y-49693734D01*
X103668847Y-49693734D02*
X103525990Y-49693734D01*
X103525990Y-49693734D02*
X103335514Y-49646115D01*
X103335514Y-49646115D02*
X103240276Y-49598496D01*
X103240276Y-49598496D02*
X103145038Y-49503258D01*
X103145038Y-49503258D02*
X103097419Y-49360401D01*
X103097419Y-49360401D02*
X103097419Y-49265163D01*
X103097419Y-49265163D02*
X103145038Y-49122306D01*
X103145038Y-49122306D02*
X103192657Y-49074687D01*
X103716466Y-48646115D02*
X103716466Y-47884211D01*
X104097419Y-46884211D02*
X104097419Y-47455639D01*
X104097419Y-47169925D02*
X103097419Y-47169925D01*
X103097419Y-47169925D02*
X103240276Y-47265163D01*
X103240276Y-47265163D02*
X103335514Y-47360401D01*
X103335514Y-47360401D02*
X103383133Y-47455639D01*
X103192657Y-46503258D02*
X103145038Y-46455639D01*
X103145038Y-46455639D02*
X103097419Y-46360401D01*
X103097419Y-46360401D02*
X103097419Y-46122306D01*
X103097419Y-46122306D02*
X103145038Y-46027068D01*
X103145038Y-46027068D02*
X103192657Y-45979449D01*
X103192657Y-45979449D02*
X103287895Y-45931830D01*
X103287895Y-45931830D02*
X103383133Y-45931830D01*
X103383133Y-45931830D02*
X103525990Y-45979449D01*
X103525990Y-45979449D02*
X104097419Y-46550877D01*
X104097419Y-46550877D02*
X104097419Y-45931830D01*
X103097419Y-45646115D02*
X104097419Y-45312782D01*
X104097419Y-45312782D02*
X103097419Y-44979449D01*
X104097419Y-43884210D02*
X103097419Y-43884210D01*
X104097419Y-43408020D02*
X103097419Y-43408020D01*
X103097419Y-43408020D02*
X104097419Y-42836592D01*
X104097419Y-42836592D02*
X103097419Y-42836592D01*
X104097419Y-42360401D02*
X103097419Y-42360401D01*
X103097419Y-42360401D02*
X103097419Y-41979449D01*
X103097419Y-41979449D02*
X103145038Y-41884211D01*
X103145038Y-41884211D02*
X103192657Y-41836592D01*
X103192657Y-41836592D02*
X103287895Y-41788973D01*
X103287895Y-41788973D02*
X103430752Y-41788973D01*
X103430752Y-41788973D02*
X103525990Y-41836592D01*
X103525990Y-41836592D02*
X103573609Y-41884211D01*
X103573609Y-41884211D02*
X103621228Y-41979449D01*
X103621228Y-41979449D02*
X103621228Y-42360401D01*
X103097419Y-41360401D02*
X103906942Y-41360401D01*
X103906942Y-41360401D02*
X104002180Y-41312782D01*
X104002180Y-41312782D02*
X104049800Y-41265163D01*
X104049800Y-41265163D02*
X104097419Y-41169925D01*
X104097419Y-41169925D02*
X104097419Y-40979449D01*
X104097419Y-40979449D02*
X104049800Y-40884211D01*
X104049800Y-40884211D02*
X104002180Y-40836592D01*
X104002180Y-40836592D02*
X103906942Y-40788973D01*
X103906942Y-40788973D02*
X103097419Y-40788973D01*
X103097419Y-40455639D02*
X103097419Y-39884211D01*
X104097419Y-40169925D02*
X103097419Y-40169925D01*
X196947419Y-95871115D02*
X195947419Y-95871115D01*
X196042657Y-95442544D02*
X195995038Y-95394925D01*
X195995038Y-95394925D02*
X195947419Y-95299687D01*
X195947419Y-95299687D02*
X195947419Y-95061592D01*
X195947419Y-95061592D02*
X195995038Y-94966354D01*
X195995038Y-94966354D02*
X196042657Y-94918735D01*
X196042657Y-94918735D02*
X196137895Y-94871116D01*
X196137895Y-94871116D02*
X196233133Y-94871116D01*
X196233133Y-94871116D02*
X196375990Y-94918735D01*
X196375990Y-94918735D02*
X196947419Y-95490163D01*
X196947419Y-95490163D02*
X196947419Y-94871116D01*
X196852180Y-93871116D02*
X196899800Y-93918735D01*
X196899800Y-93918735D02*
X196947419Y-94061592D01*
X196947419Y-94061592D02*
X196947419Y-94156830D01*
X196947419Y-94156830D02*
X196899800Y-94299687D01*
X196899800Y-94299687D02*
X196804561Y-94394925D01*
X196804561Y-94394925D02*
X196709323Y-94442544D01*
X196709323Y-94442544D02*
X196518847Y-94490163D01*
X196518847Y-94490163D02*
X196375990Y-94490163D01*
X196375990Y-94490163D02*
X196185514Y-94442544D01*
X196185514Y-94442544D02*
X196090276Y-94394925D01*
X196090276Y-94394925D02*
X195995038Y-94299687D01*
X195995038Y-94299687D02*
X195947419Y-94156830D01*
X195947419Y-94156830D02*
X195947419Y-94061592D01*
X195947419Y-94061592D02*
X195995038Y-93918735D01*
X195995038Y-93918735D02*
X196042657Y-93871116D01*
X197042657Y-93680640D02*
X197042657Y-92918735D01*
X195947419Y-92204449D02*
X195947419Y-92680639D01*
X195947419Y-92680639D02*
X196423609Y-92728258D01*
X196423609Y-92728258D02*
X196375990Y-92680639D01*
X196375990Y-92680639D02*
X196328371Y-92585401D01*
X196328371Y-92585401D02*
X196328371Y-92347306D01*
X196328371Y-92347306D02*
X196375990Y-92252068D01*
X196375990Y-92252068D02*
X196423609Y-92204449D01*
X196423609Y-92204449D02*
X196518847Y-92156830D01*
X196518847Y-92156830D02*
X196756942Y-92156830D01*
X196756942Y-92156830D02*
X196852180Y-92204449D01*
X196852180Y-92204449D02*
X196899800Y-92252068D01*
X196899800Y-92252068D02*
X196947419Y-92347306D01*
X196947419Y-92347306D02*
X196947419Y-92585401D01*
X196947419Y-92585401D02*
X196899800Y-92680639D01*
X196899800Y-92680639D02*
X196852180Y-92728258D01*
X196947419Y-125396115D02*
X195947419Y-125396115D01*
X196042657Y-124967544D02*
X195995038Y-124919925D01*
X195995038Y-124919925D02*
X195947419Y-124824687D01*
X195947419Y-124824687D02*
X195947419Y-124586592D01*
X195947419Y-124586592D02*
X195995038Y-124491354D01*
X195995038Y-124491354D02*
X196042657Y-124443735D01*
X196042657Y-124443735D02*
X196137895Y-124396116D01*
X196137895Y-124396116D02*
X196233133Y-124396116D01*
X196233133Y-124396116D02*
X196375990Y-124443735D01*
X196375990Y-124443735D02*
X196947419Y-125015163D01*
X196947419Y-125015163D02*
X196947419Y-124396116D01*
X196852180Y-123396116D02*
X196899800Y-123443735D01*
X196899800Y-123443735D02*
X196947419Y-123586592D01*
X196947419Y-123586592D02*
X196947419Y-123681830D01*
X196947419Y-123681830D02*
X196899800Y-123824687D01*
X196899800Y-123824687D02*
X196804561Y-123919925D01*
X196804561Y-123919925D02*
X196709323Y-123967544D01*
X196709323Y-123967544D02*
X196518847Y-124015163D01*
X196518847Y-124015163D02*
X196375990Y-124015163D01*
X196375990Y-124015163D02*
X196185514Y-123967544D01*
X196185514Y-123967544D02*
X196090276Y-123919925D01*
X196090276Y-123919925D02*
X195995038Y-123824687D01*
X195995038Y-123824687D02*
X195947419Y-123681830D01*
X195947419Y-123681830D02*
X195947419Y-123586592D01*
X195947419Y-123586592D02*
X195995038Y-123443735D01*
X195995038Y-123443735D02*
X196042657Y-123396116D01*
X197042657Y-123205640D02*
X197042657Y-122443735D01*
X196947419Y-121681830D02*
X196947419Y-122253258D01*
X196947419Y-121967544D02*
X195947419Y-121967544D01*
X195947419Y-121967544D02*
X196090276Y-122062782D01*
X196090276Y-122062782D02*
X196185514Y-122158020D01*
X196185514Y-122158020D02*
X196233133Y-122253258D01*
X196947419Y-137621115D02*
X195947419Y-137621115D01*
X196042657Y-137192544D02*
X195995038Y-137144925D01*
X195995038Y-137144925D02*
X195947419Y-137049687D01*
X195947419Y-137049687D02*
X195947419Y-136811592D01*
X195947419Y-136811592D02*
X195995038Y-136716354D01*
X195995038Y-136716354D02*
X196042657Y-136668735D01*
X196042657Y-136668735D02*
X196137895Y-136621116D01*
X196137895Y-136621116D02*
X196233133Y-136621116D01*
X196233133Y-136621116D02*
X196375990Y-136668735D01*
X196375990Y-136668735D02*
X196947419Y-137240163D01*
X196947419Y-137240163D02*
X196947419Y-136621116D01*
X196852180Y-135621116D02*
X196899800Y-135668735D01*
X196899800Y-135668735D02*
X196947419Y-135811592D01*
X196947419Y-135811592D02*
X196947419Y-135906830D01*
X196947419Y-135906830D02*
X196899800Y-136049687D01*
X196899800Y-136049687D02*
X196804561Y-136144925D01*
X196804561Y-136144925D02*
X196709323Y-136192544D01*
X196709323Y-136192544D02*
X196518847Y-136240163D01*
X196518847Y-136240163D02*
X196375990Y-136240163D01*
X196375990Y-136240163D02*
X196185514Y-136192544D01*
X196185514Y-136192544D02*
X196090276Y-136144925D01*
X196090276Y-136144925D02*
X195995038Y-136049687D01*
X195995038Y-136049687D02*
X195947419Y-135906830D01*
X195947419Y-135906830D02*
X195947419Y-135811592D01*
X195947419Y-135811592D02*
X195995038Y-135668735D01*
X195995038Y-135668735D02*
X196042657Y-135621116D01*
X197042657Y-135430640D02*
X197042657Y-134668735D01*
X196042657Y-134478258D02*
X195995038Y-134430639D01*
X195995038Y-134430639D02*
X195947419Y-134335401D01*
X195947419Y-134335401D02*
X195947419Y-134097306D01*
X195947419Y-134097306D02*
X195995038Y-134002068D01*
X195995038Y-134002068D02*
X196042657Y-133954449D01*
X196042657Y-133954449D02*
X196137895Y-133906830D01*
X196137895Y-133906830D02*
X196233133Y-133906830D01*
X196233133Y-133906830D02*
X196375990Y-133954449D01*
X196375990Y-133954449D02*
X196947419Y-134525877D01*
X196947419Y-134525877D02*
X196947419Y-133906830D01*
X105697306Y-121729961D02*
X105792544Y-121777580D01*
X105792544Y-121777580D02*
X105935401Y-121777580D01*
X105935401Y-121777580D02*
X106078258Y-121729961D01*
X106078258Y-121729961D02*
X106173496Y-121634723D01*
X106173496Y-121634723D02*
X106221115Y-121539485D01*
X106221115Y-121539485D02*
X106268734Y-121349009D01*
X106268734Y-121349009D02*
X106268734Y-121206152D01*
X106268734Y-121206152D02*
X106221115Y-121015676D01*
X106221115Y-121015676D02*
X106173496Y-120920438D01*
X106173496Y-120920438D02*
X106078258Y-120825200D01*
X106078258Y-120825200D02*
X105935401Y-120777580D01*
X105935401Y-120777580D02*
X105840163Y-120777580D01*
X105840163Y-120777580D02*
X105697306Y-120825200D01*
X105697306Y-120825200D02*
X105649687Y-120872819D01*
X105649687Y-120872819D02*
X105649687Y-121206152D01*
X105649687Y-121206152D02*
X105840163Y-121206152D01*
X105221115Y-120777580D02*
X105221115Y-121777580D01*
X105221115Y-121777580D02*
X104649687Y-120777580D01*
X104649687Y-120777580D02*
X104649687Y-121777580D01*
X104173496Y-120777580D02*
X104173496Y-121777580D01*
X104173496Y-121777580D02*
X103935401Y-121777580D01*
X103935401Y-121777580D02*
X103792544Y-121729961D01*
X103792544Y-121729961D02*
X103697306Y-121634723D01*
X103697306Y-121634723D02*
X103649687Y-121539485D01*
X103649687Y-121539485D02*
X103602068Y-121349009D01*
X103602068Y-121349009D02*
X103602068Y-121206152D01*
X103602068Y-121206152D02*
X103649687Y-121015676D01*
X103649687Y-121015676D02*
X103697306Y-120920438D01*
X103697306Y-120920438D02*
X103792544Y-120825200D01*
X103792544Y-120825200D02*
X103935401Y-120777580D01*
X103935401Y-120777580D02*
X104173496Y-120777580D01*
X106221115Y-122583533D02*
X105459211Y-122583533D01*
X105840163Y-122202580D02*
X105840163Y-122964485D01*
X105078258Y-123202580D02*
X104459211Y-123202580D01*
X104459211Y-123202580D02*
X104792544Y-122821628D01*
X104792544Y-122821628D02*
X104649687Y-122821628D01*
X104649687Y-122821628D02*
X104554449Y-122774009D01*
X104554449Y-122774009D02*
X104506830Y-122726390D01*
X104506830Y-122726390D02*
X104459211Y-122631152D01*
X104459211Y-122631152D02*
X104459211Y-122393057D01*
X104459211Y-122393057D02*
X104506830Y-122297819D01*
X104506830Y-122297819D02*
X104554449Y-122250200D01*
X104554449Y-122250200D02*
X104649687Y-122202580D01*
X104649687Y-122202580D02*
X104935401Y-122202580D01*
X104935401Y-122202580D02*
X105030639Y-122250200D01*
X105030639Y-122250200D02*
X105078258Y-122297819D01*
X104173496Y-123202580D02*
X103840163Y-122202580D01*
X103840163Y-122202580D02*
X103506830Y-123202580D01*
X103268734Y-123202580D02*
X102649687Y-123202580D01*
X102649687Y-123202580D02*
X102983020Y-122821628D01*
X102983020Y-122821628D02*
X102840163Y-122821628D01*
X102840163Y-122821628D02*
X102744925Y-122774009D01*
X102744925Y-122774009D02*
X102697306Y-122726390D01*
X102697306Y-122726390D02*
X102649687Y-122631152D01*
X102649687Y-122631152D02*
X102649687Y-122393057D01*
X102649687Y-122393057D02*
X102697306Y-122297819D01*
X102697306Y-122297819D02*
X102744925Y-122250200D01*
X102744925Y-122250200D02*
X102840163Y-122202580D01*
X102840163Y-122202580D02*
X103125877Y-122202580D01*
X103125877Y-122202580D02*
X103221115Y-122250200D01*
X103221115Y-122250200D02*
X103268734Y-122297819D01*
X106268734Y-123625200D02*
X106125877Y-123577580D01*
X106125877Y-123577580D02*
X105887782Y-123577580D01*
X105887782Y-123577580D02*
X105792544Y-123625200D01*
X105792544Y-123625200D02*
X105744925Y-123672819D01*
X105744925Y-123672819D02*
X105697306Y-123768057D01*
X105697306Y-123768057D02*
X105697306Y-123863295D01*
X105697306Y-123863295D02*
X105744925Y-123958533D01*
X105744925Y-123958533D02*
X105792544Y-124006152D01*
X105792544Y-124006152D02*
X105887782Y-124053771D01*
X105887782Y-124053771D02*
X106078258Y-124101390D01*
X106078258Y-124101390D02*
X106173496Y-124149009D01*
X106173496Y-124149009D02*
X106221115Y-124196628D01*
X106221115Y-124196628D02*
X106268734Y-124291866D01*
X106268734Y-124291866D02*
X106268734Y-124387104D01*
X106268734Y-124387104D02*
X106221115Y-124482342D01*
X106221115Y-124482342D02*
X106173496Y-124529961D01*
X106173496Y-124529961D02*
X106078258Y-124577580D01*
X106078258Y-124577580D02*
X105840163Y-124577580D01*
X105840163Y-124577580D02*
X105697306Y-124529961D01*
X105268734Y-123577580D02*
X105268734Y-124577580D01*
X105268734Y-124577580D02*
X105030639Y-124577580D01*
X105030639Y-124577580D02*
X104887782Y-124529961D01*
X104887782Y-124529961D02*
X104792544Y-124434723D01*
X104792544Y-124434723D02*
X104744925Y-124339485D01*
X104744925Y-124339485D02*
X104697306Y-124149009D01*
X104697306Y-124149009D02*
X104697306Y-124006152D01*
X104697306Y-124006152D02*
X104744925Y-123815676D01*
X104744925Y-123815676D02*
X104792544Y-123720438D01*
X104792544Y-123720438D02*
X104887782Y-123625200D01*
X104887782Y-123625200D02*
X105030639Y-123577580D01*
X105030639Y-123577580D02*
X105268734Y-123577580D01*
X104316353Y-123863295D02*
X103840163Y-123863295D01*
X104411591Y-123577580D02*
X104078258Y-124577580D01*
X104078258Y-124577580D02*
X103744925Y-123577580D01*
X106268734Y-125000200D02*
X106125877Y-124952580D01*
X106125877Y-124952580D02*
X105887782Y-124952580D01*
X105887782Y-124952580D02*
X105792544Y-125000200D01*
X105792544Y-125000200D02*
X105744925Y-125047819D01*
X105744925Y-125047819D02*
X105697306Y-125143057D01*
X105697306Y-125143057D02*
X105697306Y-125238295D01*
X105697306Y-125238295D02*
X105744925Y-125333533D01*
X105744925Y-125333533D02*
X105792544Y-125381152D01*
X105792544Y-125381152D02*
X105887782Y-125428771D01*
X105887782Y-125428771D02*
X106078258Y-125476390D01*
X106078258Y-125476390D02*
X106173496Y-125524009D01*
X106173496Y-125524009D02*
X106221115Y-125571628D01*
X106221115Y-125571628D02*
X106268734Y-125666866D01*
X106268734Y-125666866D02*
X106268734Y-125762104D01*
X106268734Y-125762104D02*
X106221115Y-125857342D01*
X106221115Y-125857342D02*
X106173496Y-125904961D01*
X106173496Y-125904961D02*
X106078258Y-125952580D01*
X106078258Y-125952580D02*
X105840163Y-125952580D01*
X105840163Y-125952580D02*
X105697306Y-125904961D01*
X104697306Y-125047819D02*
X104744925Y-125000200D01*
X104744925Y-125000200D02*
X104887782Y-124952580D01*
X104887782Y-124952580D02*
X104983020Y-124952580D01*
X104983020Y-124952580D02*
X105125877Y-125000200D01*
X105125877Y-125000200D02*
X105221115Y-125095438D01*
X105221115Y-125095438D02*
X105268734Y-125190676D01*
X105268734Y-125190676D02*
X105316353Y-125381152D01*
X105316353Y-125381152D02*
X105316353Y-125524009D01*
X105316353Y-125524009D02*
X105268734Y-125714485D01*
X105268734Y-125714485D02*
X105221115Y-125809723D01*
X105221115Y-125809723D02*
X105125877Y-125904961D01*
X105125877Y-125904961D02*
X104983020Y-125952580D01*
X104983020Y-125952580D02*
X104887782Y-125952580D01*
X104887782Y-125952580D02*
X104744925Y-125904961D01*
X104744925Y-125904961D02*
X104697306Y-125857342D01*
X103792544Y-124952580D02*
X104268734Y-124952580D01*
X104268734Y-124952580D02*
X104268734Y-125952580D01*
X105697306Y-134379961D02*
X105792544Y-134427580D01*
X105792544Y-134427580D02*
X105935401Y-134427580D01*
X105935401Y-134427580D02*
X106078258Y-134379961D01*
X106078258Y-134379961D02*
X106173496Y-134284723D01*
X106173496Y-134284723D02*
X106221115Y-134189485D01*
X106221115Y-134189485D02*
X106268734Y-133999009D01*
X106268734Y-133999009D02*
X106268734Y-133856152D01*
X106268734Y-133856152D02*
X106221115Y-133665676D01*
X106221115Y-133665676D02*
X106173496Y-133570438D01*
X106173496Y-133570438D02*
X106078258Y-133475200D01*
X106078258Y-133475200D02*
X105935401Y-133427580D01*
X105935401Y-133427580D02*
X105840163Y-133427580D01*
X105840163Y-133427580D02*
X105697306Y-133475200D01*
X105697306Y-133475200D02*
X105649687Y-133522819D01*
X105649687Y-133522819D02*
X105649687Y-133856152D01*
X105649687Y-133856152D02*
X105840163Y-133856152D01*
X105221115Y-133427580D02*
X105221115Y-134427580D01*
X105221115Y-134427580D02*
X104649687Y-133427580D01*
X104649687Y-133427580D02*
X104649687Y-134427580D01*
X104173496Y-133427580D02*
X104173496Y-134427580D01*
X104173496Y-134427580D02*
X103935401Y-134427580D01*
X103935401Y-134427580D02*
X103792544Y-134379961D01*
X103792544Y-134379961D02*
X103697306Y-134284723D01*
X103697306Y-134284723D02*
X103649687Y-134189485D01*
X103649687Y-134189485D02*
X103602068Y-133999009D01*
X103602068Y-133999009D02*
X103602068Y-133856152D01*
X103602068Y-133856152D02*
X103649687Y-133665676D01*
X103649687Y-133665676D02*
X103697306Y-133570438D01*
X103697306Y-133570438D02*
X103792544Y-133475200D01*
X103792544Y-133475200D02*
X103935401Y-133427580D01*
X103935401Y-133427580D02*
X104173496Y-133427580D01*
X106221115Y-135233533D02*
X105459211Y-135233533D01*
X105840163Y-134852580D02*
X105840163Y-135614485D01*
X105078258Y-135852580D02*
X104459211Y-135852580D01*
X104459211Y-135852580D02*
X104792544Y-135471628D01*
X104792544Y-135471628D02*
X104649687Y-135471628D01*
X104649687Y-135471628D02*
X104554449Y-135424009D01*
X104554449Y-135424009D02*
X104506830Y-135376390D01*
X104506830Y-135376390D02*
X104459211Y-135281152D01*
X104459211Y-135281152D02*
X104459211Y-135043057D01*
X104459211Y-135043057D02*
X104506830Y-134947819D01*
X104506830Y-134947819D02*
X104554449Y-134900200D01*
X104554449Y-134900200D02*
X104649687Y-134852580D01*
X104649687Y-134852580D02*
X104935401Y-134852580D01*
X104935401Y-134852580D02*
X105030639Y-134900200D01*
X105030639Y-134900200D02*
X105078258Y-134947819D01*
X104173496Y-135852580D02*
X103840163Y-134852580D01*
X103840163Y-134852580D02*
X103506830Y-135852580D01*
X103268734Y-135852580D02*
X102649687Y-135852580D01*
X102649687Y-135852580D02*
X102983020Y-135471628D01*
X102983020Y-135471628D02*
X102840163Y-135471628D01*
X102840163Y-135471628D02*
X102744925Y-135424009D01*
X102744925Y-135424009D02*
X102697306Y-135376390D01*
X102697306Y-135376390D02*
X102649687Y-135281152D01*
X102649687Y-135281152D02*
X102649687Y-135043057D01*
X102649687Y-135043057D02*
X102697306Y-134947819D01*
X102697306Y-134947819D02*
X102744925Y-134900200D01*
X102744925Y-134900200D02*
X102840163Y-134852580D01*
X102840163Y-134852580D02*
X103125877Y-134852580D01*
X103125877Y-134852580D02*
X103221115Y-134900200D01*
X103221115Y-134900200D02*
X103268734Y-134947819D01*
X106268734Y-136275200D02*
X106125877Y-136227580D01*
X106125877Y-136227580D02*
X105887782Y-136227580D01*
X105887782Y-136227580D02*
X105792544Y-136275200D01*
X105792544Y-136275200D02*
X105744925Y-136322819D01*
X105744925Y-136322819D02*
X105697306Y-136418057D01*
X105697306Y-136418057D02*
X105697306Y-136513295D01*
X105697306Y-136513295D02*
X105744925Y-136608533D01*
X105744925Y-136608533D02*
X105792544Y-136656152D01*
X105792544Y-136656152D02*
X105887782Y-136703771D01*
X105887782Y-136703771D02*
X106078258Y-136751390D01*
X106078258Y-136751390D02*
X106173496Y-136799009D01*
X106173496Y-136799009D02*
X106221115Y-136846628D01*
X106221115Y-136846628D02*
X106268734Y-136941866D01*
X106268734Y-136941866D02*
X106268734Y-137037104D01*
X106268734Y-137037104D02*
X106221115Y-137132342D01*
X106221115Y-137132342D02*
X106173496Y-137179961D01*
X106173496Y-137179961D02*
X106078258Y-137227580D01*
X106078258Y-137227580D02*
X105840163Y-137227580D01*
X105840163Y-137227580D02*
X105697306Y-137179961D01*
X105268734Y-136227580D02*
X105268734Y-137227580D01*
X105268734Y-137227580D02*
X105030639Y-137227580D01*
X105030639Y-137227580D02*
X104887782Y-137179961D01*
X104887782Y-137179961D02*
X104792544Y-137084723D01*
X104792544Y-137084723D02*
X104744925Y-136989485D01*
X104744925Y-136989485D02*
X104697306Y-136799009D01*
X104697306Y-136799009D02*
X104697306Y-136656152D01*
X104697306Y-136656152D02*
X104744925Y-136465676D01*
X104744925Y-136465676D02*
X104792544Y-136370438D01*
X104792544Y-136370438D02*
X104887782Y-136275200D01*
X104887782Y-136275200D02*
X105030639Y-136227580D01*
X105030639Y-136227580D02*
X105268734Y-136227580D01*
X104316353Y-136513295D02*
X103840163Y-136513295D01*
X104411591Y-136227580D02*
X104078258Y-137227580D01*
X104078258Y-137227580D02*
X103744925Y-136227580D01*
X106268734Y-137650200D02*
X106125877Y-137602580D01*
X106125877Y-137602580D02*
X105887782Y-137602580D01*
X105887782Y-137602580D02*
X105792544Y-137650200D01*
X105792544Y-137650200D02*
X105744925Y-137697819D01*
X105744925Y-137697819D02*
X105697306Y-137793057D01*
X105697306Y-137793057D02*
X105697306Y-137888295D01*
X105697306Y-137888295D02*
X105744925Y-137983533D01*
X105744925Y-137983533D02*
X105792544Y-138031152D01*
X105792544Y-138031152D02*
X105887782Y-138078771D01*
X105887782Y-138078771D02*
X106078258Y-138126390D01*
X106078258Y-138126390D02*
X106173496Y-138174009D01*
X106173496Y-138174009D02*
X106221115Y-138221628D01*
X106221115Y-138221628D02*
X106268734Y-138316866D01*
X106268734Y-138316866D02*
X106268734Y-138412104D01*
X106268734Y-138412104D02*
X106221115Y-138507342D01*
X106221115Y-138507342D02*
X106173496Y-138554961D01*
X106173496Y-138554961D02*
X106078258Y-138602580D01*
X106078258Y-138602580D02*
X105840163Y-138602580D01*
X105840163Y-138602580D02*
X105697306Y-138554961D01*
X104697306Y-137697819D02*
X104744925Y-137650200D01*
X104744925Y-137650200D02*
X104887782Y-137602580D01*
X104887782Y-137602580D02*
X104983020Y-137602580D01*
X104983020Y-137602580D02*
X105125877Y-137650200D01*
X105125877Y-137650200D02*
X105221115Y-137745438D01*
X105221115Y-137745438D02*
X105268734Y-137840676D01*
X105268734Y-137840676D02*
X105316353Y-138031152D01*
X105316353Y-138031152D02*
X105316353Y-138174009D01*
X105316353Y-138174009D02*
X105268734Y-138364485D01*
X105268734Y-138364485D02*
X105221115Y-138459723D01*
X105221115Y-138459723D02*
X105125877Y-138554961D01*
X105125877Y-138554961D02*
X104983020Y-138602580D01*
X104983020Y-138602580D02*
X104887782Y-138602580D01*
X104887782Y-138602580D02*
X104744925Y-138554961D01*
X104744925Y-138554961D02*
X104697306Y-138507342D01*
X103792544Y-137602580D02*
X104268734Y-137602580D01*
X104268734Y-137602580D02*
X104268734Y-138602580D01*
X187130639Y-121400200D02*
X186987782Y-121352580D01*
X186987782Y-121352580D02*
X186749687Y-121352580D01*
X186749687Y-121352580D02*
X186654449Y-121400200D01*
X186654449Y-121400200D02*
X186606830Y-121447819D01*
X186606830Y-121447819D02*
X186559211Y-121543057D01*
X186559211Y-121543057D02*
X186559211Y-121638295D01*
X186559211Y-121638295D02*
X186606830Y-121733533D01*
X186606830Y-121733533D02*
X186654449Y-121781152D01*
X186654449Y-121781152D02*
X186749687Y-121828771D01*
X186749687Y-121828771D02*
X186940163Y-121876390D01*
X186940163Y-121876390D02*
X187035401Y-121924009D01*
X187035401Y-121924009D02*
X187083020Y-121971628D01*
X187083020Y-121971628D02*
X187130639Y-122066866D01*
X187130639Y-122066866D02*
X187130639Y-122162104D01*
X187130639Y-122162104D02*
X187083020Y-122257342D01*
X187083020Y-122257342D02*
X187035401Y-122304961D01*
X187035401Y-122304961D02*
X186940163Y-122352580D01*
X186940163Y-122352580D02*
X186702068Y-122352580D01*
X186702068Y-122352580D02*
X186559211Y-122304961D01*
X185559211Y-121447819D02*
X185606830Y-121400200D01*
X185606830Y-121400200D02*
X185749687Y-121352580D01*
X185749687Y-121352580D02*
X185844925Y-121352580D01*
X185844925Y-121352580D02*
X185987782Y-121400200D01*
X185987782Y-121400200D02*
X186083020Y-121495438D01*
X186083020Y-121495438D02*
X186130639Y-121590676D01*
X186130639Y-121590676D02*
X186178258Y-121781152D01*
X186178258Y-121781152D02*
X186178258Y-121924009D01*
X186178258Y-121924009D02*
X186130639Y-122114485D01*
X186130639Y-122114485D02*
X186083020Y-122209723D01*
X186083020Y-122209723D02*
X185987782Y-122304961D01*
X185987782Y-122304961D02*
X185844925Y-122352580D01*
X185844925Y-122352580D02*
X185749687Y-122352580D01*
X185749687Y-122352580D02*
X185606830Y-122304961D01*
X185606830Y-122304961D02*
X185559211Y-122257342D01*
X184654449Y-121352580D02*
X185130639Y-121352580D01*
X185130639Y-121352580D02*
X185130639Y-122352580D01*
X187130639Y-122750200D02*
X186987782Y-122702580D01*
X186987782Y-122702580D02*
X186749687Y-122702580D01*
X186749687Y-122702580D02*
X186654449Y-122750200D01*
X186654449Y-122750200D02*
X186606830Y-122797819D01*
X186606830Y-122797819D02*
X186559211Y-122893057D01*
X186559211Y-122893057D02*
X186559211Y-122988295D01*
X186559211Y-122988295D02*
X186606830Y-123083533D01*
X186606830Y-123083533D02*
X186654449Y-123131152D01*
X186654449Y-123131152D02*
X186749687Y-123178771D01*
X186749687Y-123178771D02*
X186940163Y-123226390D01*
X186940163Y-123226390D02*
X187035401Y-123274009D01*
X187035401Y-123274009D02*
X187083020Y-123321628D01*
X187083020Y-123321628D02*
X187130639Y-123416866D01*
X187130639Y-123416866D02*
X187130639Y-123512104D01*
X187130639Y-123512104D02*
X187083020Y-123607342D01*
X187083020Y-123607342D02*
X187035401Y-123654961D01*
X187035401Y-123654961D02*
X186940163Y-123702580D01*
X186940163Y-123702580D02*
X186702068Y-123702580D01*
X186702068Y-123702580D02*
X186559211Y-123654961D01*
X186130639Y-122702580D02*
X186130639Y-123702580D01*
X186130639Y-123702580D02*
X185892544Y-123702580D01*
X185892544Y-123702580D02*
X185749687Y-123654961D01*
X185749687Y-123654961D02*
X185654449Y-123559723D01*
X185654449Y-123559723D02*
X185606830Y-123464485D01*
X185606830Y-123464485D02*
X185559211Y-123274009D01*
X185559211Y-123274009D02*
X185559211Y-123131152D01*
X185559211Y-123131152D02*
X185606830Y-122940676D01*
X185606830Y-122940676D02*
X185654449Y-122845438D01*
X185654449Y-122845438D02*
X185749687Y-122750200D01*
X185749687Y-122750200D02*
X185892544Y-122702580D01*
X185892544Y-122702580D02*
X186130639Y-122702580D01*
X185178258Y-122988295D02*
X184702068Y-122988295D01*
X185273496Y-122702580D02*
X184940163Y-123702580D01*
X184940163Y-123702580D02*
X184606830Y-122702580D01*
X187083020Y-125083533D02*
X186321116Y-125083533D01*
X186702068Y-124702580D02*
X186702068Y-125464485D01*
X185940163Y-125702580D02*
X185321116Y-125702580D01*
X185321116Y-125702580D02*
X185654449Y-125321628D01*
X185654449Y-125321628D02*
X185511592Y-125321628D01*
X185511592Y-125321628D02*
X185416354Y-125274009D01*
X185416354Y-125274009D02*
X185368735Y-125226390D01*
X185368735Y-125226390D02*
X185321116Y-125131152D01*
X185321116Y-125131152D02*
X185321116Y-124893057D01*
X185321116Y-124893057D02*
X185368735Y-124797819D01*
X185368735Y-124797819D02*
X185416354Y-124750200D01*
X185416354Y-124750200D02*
X185511592Y-124702580D01*
X185511592Y-124702580D02*
X185797306Y-124702580D01*
X185797306Y-124702580D02*
X185892544Y-124750200D01*
X185892544Y-124750200D02*
X185940163Y-124797819D01*
X185035401Y-125702580D02*
X184702068Y-124702580D01*
X184702068Y-124702580D02*
X184368735Y-125702580D01*
X184130639Y-125702580D02*
X183511592Y-125702580D01*
X183511592Y-125702580D02*
X183844925Y-125321628D01*
X183844925Y-125321628D02*
X183702068Y-125321628D01*
X183702068Y-125321628D02*
X183606830Y-125274009D01*
X183606830Y-125274009D02*
X183559211Y-125226390D01*
X183559211Y-125226390D02*
X183511592Y-125131152D01*
X183511592Y-125131152D02*
X183511592Y-124893057D01*
X183511592Y-124893057D02*
X183559211Y-124797819D01*
X183559211Y-124797819D02*
X183606830Y-124750200D01*
X183606830Y-124750200D02*
X183702068Y-124702580D01*
X183702068Y-124702580D02*
X183987782Y-124702580D01*
X183987782Y-124702580D02*
X184083020Y-124750200D01*
X184083020Y-124750200D02*
X184130639Y-124797819D01*
X186559211Y-127204961D02*
X186654449Y-127252580D01*
X186654449Y-127252580D02*
X186797306Y-127252580D01*
X186797306Y-127252580D02*
X186940163Y-127204961D01*
X186940163Y-127204961D02*
X187035401Y-127109723D01*
X187035401Y-127109723D02*
X187083020Y-127014485D01*
X187083020Y-127014485D02*
X187130639Y-126824009D01*
X187130639Y-126824009D02*
X187130639Y-126681152D01*
X187130639Y-126681152D02*
X187083020Y-126490676D01*
X187083020Y-126490676D02*
X187035401Y-126395438D01*
X187035401Y-126395438D02*
X186940163Y-126300200D01*
X186940163Y-126300200D02*
X186797306Y-126252580D01*
X186797306Y-126252580D02*
X186702068Y-126252580D01*
X186702068Y-126252580D02*
X186559211Y-126300200D01*
X186559211Y-126300200D02*
X186511592Y-126347819D01*
X186511592Y-126347819D02*
X186511592Y-126681152D01*
X186511592Y-126681152D02*
X186702068Y-126681152D01*
X186083020Y-126252580D02*
X186083020Y-127252580D01*
X186083020Y-127252580D02*
X185511592Y-126252580D01*
X185511592Y-126252580D02*
X185511592Y-127252580D01*
X185035401Y-126252580D02*
X185035401Y-127252580D01*
X185035401Y-127252580D02*
X184797306Y-127252580D01*
X184797306Y-127252580D02*
X184654449Y-127204961D01*
X184654449Y-127204961D02*
X184559211Y-127109723D01*
X184559211Y-127109723D02*
X184511592Y-127014485D01*
X184511592Y-127014485D02*
X184463973Y-126824009D01*
X184463973Y-126824009D02*
X184463973Y-126681152D01*
X184463973Y-126681152D02*
X184511592Y-126490676D01*
X184511592Y-126490676D02*
X184559211Y-126395438D01*
X184559211Y-126395438D02*
X184654449Y-126300200D01*
X184654449Y-126300200D02*
X184797306Y-126252580D01*
X184797306Y-126252580D02*
X185035401Y-126252580D01*
X187130639Y-133750200D02*
X186987782Y-133702580D01*
X186987782Y-133702580D02*
X186749687Y-133702580D01*
X186749687Y-133702580D02*
X186654449Y-133750200D01*
X186654449Y-133750200D02*
X186606830Y-133797819D01*
X186606830Y-133797819D02*
X186559211Y-133893057D01*
X186559211Y-133893057D02*
X186559211Y-133988295D01*
X186559211Y-133988295D02*
X186606830Y-134083533D01*
X186606830Y-134083533D02*
X186654449Y-134131152D01*
X186654449Y-134131152D02*
X186749687Y-134178771D01*
X186749687Y-134178771D02*
X186940163Y-134226390D01*
X186940163Y-134226390D02*
X187035401Y-134274009D01*
X187035401Y-134274009D02*
X187083020Y-134321628D01*
X187083020Y-134321628D02*
X187130639Y-134416866D01*
X187130639Y-134416866D02*
X187130639Y-134512104D01*
X187130639Y-134512104D02*
X187083020Y-134607342D01*
X187083020Y-134607342D02*
X187035401Y-134654961D01*
X187035401Y-134654961D02*
X186940163Y-134702580D01*
X186940163Y-134702580D02*
X186702068Y-134702580D01*
X186702068Y-134702580D02*
X186559211Y-134654961D01*
X185559211Y-133797819D02*
X185606830Y-133750200D01*
X185606830Y-133750200D02*
X185749687Y-133702580D01*
X185749687Y-133702580D02*
X185844925Y-133702580D01*
X185844925Y-133702580D02*
X185987782Y-133750200D01*
X185987782Y-133750200D02*
X186083020Y-133845438D01*
X186083020Y-133845438D02*
X186130639Y-133940676D01*
X186130639Y-133940676D02*
X186178258Y-134131152D01*
X186178258Y-134131152D02*
X186178258Y-134274009D01*
X186178258Y-134274009D02*
X186130639Y-134464485D01*
X186130639Y-134464485D02*
X186083020Y-134559723D01*
X186083020Y-134559723D02*
X185987782Y-134654961D01*
X185987782Y-134654961D02*
X185844925Y-134702580D01*
X185844925Y-134702580D02*
X185749687Y-134702580D01*
X185749687Y-134702580D02*
X185606830Y-134654961D01*
X185606830Y-134654961D02*
X185559211Y-134607342D01*
X184654449Y-133702580D02*
X185130639Y-133702580D01*
X185130639Y-133702580D02*
X185130639Y-134702580D01*
X187130639Y-135100200D02*
X186987782Y-135052580D01*
X186987782Y-135052580D02*
X186749687Y-135052580D01*
X186749687Y-135052580D02*
X186654449Y-135100200D01*
X186654449Y-135100200D02*
X186606830Y-135147819D01*
X186606830Y-135147819D02*
X186559211Y-135243057D01*
X186559211Y-135243057D02*
X186559211Y-135338295D01*
X186559211Y-135338295D02*
X186606830Y-135433533D01*
X186606830Y-135433533D02*
X186654449Y-135481152D01*
X186654449Y-135481152D02*
X186749687Y-135528771D01*
X186749687Y-135528771D02*
X186940163Y-135576390D01*
X186940163Y-135576390D02*
X187035401Y-135624009D01*
X187035401Y-135624009D02*
X187083020Y-135671628D01*
X187083020Y-135671628D02*
X187130639Y-135766866D01*
X187130639Y-135766866D02*
X187130639Y-135862104D01*
X187130639Y-135862104D02*
X187083020Y-135957342D01*
X187083020Y-135957342D02*
X187035401Y-136004961D01*
X187035401Y-136004961D02*
X186940163Y-136052580D01*
X186940163Y-136052580D02*
X186702068Y-136052580D01*
X186702068Y-136052580D02*
X186559211Y-136004961D01*
X186130639Y-135052580D02*
X186130639Y-136052580D01*
X186130639Y-136052580D02*
X185892544Y-136052580D01*
X185892544Y-136052580D02*
X185749687Y-136004961D01*
X185749687Y-136004961D02*
X185654449Y-135909723D01*
X185654449Y-135909723D02*
X185606830Y-135814485D01*
X185606830Y-135814485D02*
X185559211Y-135624009D01*
X185559211Y-135624009D02*
X185559211Y-135481152D01*
X185559211Y-135481152D02*
X185606830Y-135290676D01*
X185606830Y-135290676D02*
X185654449Y-135195438D01*
X185654449Y-135195438D02*
X185749687Y-135100200D01*
X185749687Y-135100200D02*
X185892544Y-135052580D01*
X185892544Y-135052580D02*
X186130639Y-135052580D01*
X185178258Y-135338295D02*
X184702068Y-135338295D01*
X185273496Y-135052580D02*
X184940163Y-136052580D01*
X184940163Y-136052580D02*
X184606830Y-135052580D01*
X187083020Y-137433533D02*
X186321116Y-137433533D01*
X186702068Y-137052580D02*
X186702068Y-137814485D01*
X185940163Y-138052580D02*
X185321116Y-138052580D01*
X185321116Y-138052580D02*
X185654449Y-137671628D01*
X185654449Y-137671628D02*
X185511592Y-137671628D01*
X185511592Y-137671628D02*
X185416354Y-137624009D01*
X185416354Y-137624009D02*
X185368735Y-137576390D01*
X185368735Y-137576390D02*
X185321116Y-137481152D01*
X185321116Y-137481152D02*
X185321116Y-137243057D01*
X185321116Y-137243057D02*
X185368735Y-137147819D01*
X185368735Y-137147819D02*
X185416354Y-137100200D01*
X185416354Y-137100200D02*
X185511592Y-137052580D01*
X185511592Y-137052580D02*
X185797306Y-137052580D01*
X185797306Y-137052580D02*
X185892544Y-137100200D01*
X185892544Y-137100200D02*
X185940163Y-137147819D01*
X185035401Y-138052580D02*
X184702068Y-137052580D01*
X184702068Y-137052580D02*
X184368735Y-138052580D01*
X184130639Y-138052580D02*
X183511592Y-138052580D01*
X183511592Y-138052580D02*
X183844925Y-137671628D01*
X183844925Y-137671628D02*
X183702068Y-137671628D01*
X183702068Y-137671628D02*
X183606830Y-137624009D01*
X183606830Y-137624009D02*
X183559211Y-137576390D01*
X183559211Y-137576390D02*
X183511592Y-137481152D01*
X183511592Y-137481152D02*
X183511592Y-137243057D01*
X183511592Y-137243057D02*
X183559211Y-137147819D01*
X183559211Y-137147819D02*
X183606830Y-137100200D01*
X183606830Y-137100200D02*
X183702068Y-137052580D01*
X183702068Y-137052580D02*
X183987782Y-137052580D01*
X183987782Y-137052580D02*
X184083020Y-137100200D01*
X184083020Y-137100200D02*
X184130639Y-137147819D01*
X186559211Y-139554961D02*
X186654449Y-139602580D01*
X186654449Y-139602580D02*
X186797306Y-139602580D01*
X186797306Y-139602580D02*
X186940163Y-139554961D01*
X186940163Y-139554961D02*
X187035401Y-139459723D01*
X187035401Y-139459723D02*
X187083020Y-139364485D01*
X187083020Y-139364485D02*
X187130639Y-139174009D01*
X187130639Y-139174009D02*
X187130639Y-139031152D01*
X187130639Y-139031152D02*
X187083020Y-138840676D01*
X187083020Y-138840676D02*
X187035401Y-138745438D01*
X187035401Y-138745438D02*
X186940163Y-138650200D01*
X186940163Y-138650200D02*
X186797306Y-138602580D01*
X186797306Y-138602580D02*
X186702068Y-138602580D01*
X186702068Y-138602580D02*
X186559211Y-138650200D01*
X186559211Y-138650200D02*
X186511592Y-138697819D01*
X186511592Y-138697819D02*
X186511592Y-139031152D01*
X186511592Y-139031152D02*
X186702068Y-139031152D01*
X186083020Y-138602580D02*
X186083020Y-139602580D01*
X186083020Y-139602580D02*
X185511592Y-138602580D01*
X185511592Y-138602580D02*
X185511592Y-139602580D01*
X185035401Y-138602580D02*
X185035401Y-139602580D01*
X185035401Y-139602580D02*
X184797306Y-139602580D01*
X184797306Y-139602580D02*
X184654449Y-139554961D01*
X184654449Y-139554961D02*
X184559211Y-139459723D01*
X184559211Y-139459723D02*
X184511592Y-139364485D01*
X184511592Y-139364485D02*
X184463973Y-139174009D01*
X184463973Y-139174009D02*
X184463973Y-139031152D01*
X184463973Y-139031152D02*
X184511592Y-138840676D01*
X184511592Y-138840676D02*
X184559211Y-138745438D01*
X184559211Y-138745438D02*
X184654449Y-138650200D01*
X184654449Y-138650200D02*
X184797306Y-138602580D01*
X184797306Y-138602580D02*
X185035401Y-138602580D01*
X188110401Y-89679961D02*
X188205639Y-89727580D01*
X188205639Y-89727580D02*
X188348496Y-89727580D01*
X188348496Y-89727580D02*
X188491353Y-89679961D01*
X188491353Y-89679961D02*
X188586591Y-89584723D01*
X188586591Y-89584723D02*
X188634210Y-89489485D01*
X188634210Y-89489485D02*
X188681829Y-89299009D01*
X188681829Y-89299009D02*
X188681829Y-89156152D01*
X188681829Y-89156152D02*
X188634210Y-88965676D01*
X188634210Y-88965676D02*
X188586591Y-88870438D01*
X188586591Y-88870438D02*
X188491353Y-88775200D01*
X188491353Y-88775200D02*
X188348496Y-88727580D01*
X188348496Y-88727580D02*
X188253258Y-88727580D01*
X188253258Y-88727580D02*
X188110401Y-88775200D01*
X188110401Y-88775200D02*
X188062782Y-88822819D01*
X188062782Y-88822819D02*
X188062782Y-89156152D01*
X188062782Y-89156152D02*
X188253258Y-89156152D01*
X187634210Y-88727580D02*
X187634210Y-89727580D01*
X187634210Y-89727580D02*
X187062782Y-88727580D01*
X187062782Y-88727580D02*
X187062782Y-89727580D01*
X186586591Y-88727580D02*
X186586591Y-89727580D01*
X186586591Y-89727580D02*
X186348496Y-89727580D01*
X186348496Y-89727580D02*
X186205639Y-89679961D01*
X186205639Y-89679961D02*
X186110401Y-89584723D01*
X186110401Y-89584723D02*
X186062782Y-89489485D01*
X186062782Y-89489485D02*
X186015163Y-89299009D01*
X186015163Y-89299009D02*
X186015163Y-89156152D01*
X186015163Y-89156152D02*
X186062782Y-88965676D01*
X186062782Y-88965676D02*
X186110401Y-88870438D01*
X186110401Y-88870438D02*
X186205639Y-88775200D01*
X186205639Y-88775200D02*
X186348496Y-88727580D01*
X186348496Y-88727580D02*
X186586591Y-88727580D01*
X189246115Y-91491866D02*
X188484211Y-91491866D01*
X188865163Y-91110913D02*
X188865163Y-91872818D01*
X188103258Y-92110913D02*
X187484211Y-92110913D01*
X187484211Y-92110913D02*
X187817544Y-91729961D01*
X187817544Y-91729961D02*
X187674687Y-91729961D01*
X187674687Y-91729961D02*
X187579449Y-91682342D01*
X187579449Y-91682342D02*
X187531830Y-91634723D01*
X187531830Y-91634723D02*
X187484211Y-91539485D01*
X187484211Y-91539485D02*
X187484211Y-91301390D01*
X187484211Y-91301390D02*
X187531830Y-91206152D01*
X187531830Y-91206152D02*
X187579449Y-91158533D01*
X187579449Y-91158533D02*
X187674687Y-91110913D01*
X187674687Y-91110913D02*
X187960401Y-91110913D01*
X187960401Y-91110913D02*
X188055639Y-91158533D01*
X188055639Y-91158533D02*
X188103258Y-91206152D01*
X187198496Y-92110913D02*
X186865163Y-91110913D01*
X186865163Y-91110913D02*
X186531830Y-92110913D01*
X186293734Y-92110913D02*
X185674687Y-92110913D01*
X185674687Y-92110913D02*
X186008020Y-91729961D01*
X186008020Y-91729961D02*
X185865163Y-91729961D01*
X185865163Y-91729961D02*
X185769925Y-91682342D01*
X185769925Y-91682342D02*
X185722306Y-91634723D01*
X185722306Y-91634723D02*
X185674687Y-91539485D01*
X185674687Y-91539485D02*
X185674687Y-91301390D01*
X185674687Y-91301390D02*
X185722306Y-91206152D01*
X185722306Y-91206152D02*
X185769925Y-91158533D01*
X185769925Y-91158533D02*
X185865163Y-91110913D01*
X185865163Y-91110913D02*
X186150877Y-91110913D01*
X186150877Y-91110913D02*
X186246115Y-91158533D01*
X186246115Y-91158533D02*
X186293734Y-91206152D01*
D11*
X133061905Y-40954819D02*
X133061905Y-39954819D01*
X133061905Y-39954819D02*
X133300000Y-39954819D01*
X133300000Y-39954819D02*
X133442857Y-40002438D01*
X133442857Y-40002438D02*
X133538095Y-40097676D01*
X133538095Y-40097676D02*
X133585714Y-40192914D01*
X133585714Y-40192914D02*
X133633333Y-40383390D01*
X133633333Y-40383390D02*
X133633333Y-40526247D01*
X133633333Y-40526247D02*
X133585714Y-40716723D01*
X133585714Y-40716723D02*
X133538095Y-40811961D01*
X133538095Y-40811961D02*
X133442857Y-40907200D01*
X133442857Y-40907200D02*
X133300000Y-40954819D01*
X133300000Y-40954819D02*
X133061905Y-40954819D01*
X134585714Y-40954819D02*
X134014286Y-40954819D01*
X134300000Y-40954819D02*
X134300000Y-39954819D01*
X134300000Y-39954819D02*
X134204762Y-40097676D01*
X134204762Y-40097676D02*
X134109524Y-40192914D01*
X134109524Y-40192914D02*
X134014286Y-40240533D01*
X146761905Y-47454819D02*
X146761905Y-48264342D01*
X146761905Y-48264342D02*
X146809524Y-48359580D01*
X146809524Y-48359580D02*
X146857143Y-48407200D01*
X146857143Y-48407200D02*
X146952381Y-48454819D01*
X146952381Y-48454819D02*
X147142857Y-48454819D01*
X147142857Y-48454819D02*
X147238095Y-48407200D01*
X147238095Y-48407200D02*
X147285714Y-48359580D01*
X147285714Y-48359580D02*
X147333333Y-48264342D01*
X147333333Y-48264342D02*
X147333333Y-47454819D01*
X148333333Y-48454819D02*
X147761905Y-48454819D01*
X148047619Y-48454819D02*
X148047619Y-47454819D01*
X148047619Y-47454819D02*
X147952381Y-47597676D01*
X147952381Y-47597676D02*
X147857143Y-47692914D01*
X147857143Y-47692914D02*
X147761905Y-47740533D01*
X148714286Y-47550057D02*
X148761905Y-47502438D01*
X148761905Y-47502438D02*
X148857143Y-47454819D01*
X148857143Y-47454819D02*
X149095238Y-47454819D01*
X149095238Y-47454819D02*
X149190476Y-47502438D01*
X149190476Y-47502438D02*
X149238095Y-47550057D01*
X149238095Y-47550057D02*
X149285714Y-47645295D01*
X149285714Y-47645295D02*
X149285714Y-47740533D01*
X149285714Y-47740533D02*
X149238095Y-47883390D01*
X149238095Y-47883390D02*
X148666667Y-48454819D01*
X148666667Y-48454819D02*
X149285714Y-48454819D01*
X176071428Y-40354819D02*
X176071428Y-39354819D01*
X176071428Y-39354819D02*
X176404761Y-40069104D01*
X176404761Y-40069104D02*
X176738094Y-39354819D01*
X176738094Y-39354819D02*
X176738094Y-40354819D01*
X177166666Y-40069104D02*
X177642856Y-40069104D01*
X177071428Y-40354819D02*
X177404761Y-39354819D01*
X177404761Y-39354819D02*
X177738094Y-40354819D01*
X178023809Y-40307200D02*
X178166666Y-40354819D01*
X178166666Y-40354819D02*
X178404761Y-40354819D01*
X178404761Y-40354819D02*
X178499999Y-40307200D01*
X178499999Y-40307200D02*
X178547618Y-40259580D01*
X178547618Y-40259580D02*
X178595237Y-40164342D01*
X178595237Y-40164342D02*
X178595237Y-40069104D01*
X178595237Y-40069104D02*
X178547618Y-39973866D01*
X178547618Y-39973866D02*
X178499999Y-39926247D01*
X178499999Y-39926247D02*
X178404761Y-39878628D01*
X178404761Y-39878628D02*
X178214285Y-39831009D01*
X178214285Y-39831009D02*
X178119047Y-39783390D01*
X178119047Y-39783390D02*
X178071428Y-39735771D01*
X178071428Y-39735771D02*
X178023809Y-39640533D01*
X178023809Y-39640533D02*
X178023809Y-39545295D01*
X178023809Y-39545295D02*
X178071428Y-39450057D01*
X178071428Y-39450057D02*
X178119047Y-39402438D01*
X178119047Y-39402438D02*
X178214285Y-39354819D01*
X178214285Y-39354819D02*
X178452380Y-39354819D01*
X178452380Y-39354819D02*
X178595237Y-39402438D01*
X178880952Y-39354819D02*
X179452380Y-39354819D01*
X179166666Y-40354819D02*
X179166666Y-39354819D01*
X179785714Y-39831009D02*
X180119047Y-39831009D01*
X180261904Y-40354819D02*
X179785714Y-40354819D01*
X179785714Y-40354819D02*
X179785714Y-39354819D01*
X179785714Y-39354819D02*
X180261904Y-39354819D01*
X181261904Y-40354819D02*
X180928571Y-39878628D01*
X180690476Y-40354819D02*
X180690476Y-39354819D01*
X180690476Y-39354819D02*
X181071428Y-39354819D01*
X181071428Y-39354819D02*
X181166666Y-39402438D01*
X181166666Y-39402438D02*
X181214285Y-39450057D01*
X181214285Y-39450057D02*
X181261904Y-39545295D01*
X181261904Y-39545295D02*
X181261904Y-39688152D01*
X181261904Y-39688152D02*
X181214285Y-39783390D01*
X181214285Y-39783390D02*
X181166666Y-39831009D01*
X181166666Y-39831009D02*
X181071428Y-39878628D01*
X181071428Y-39878628D02*
X180690476Y-39878628D01*
X183166666Y-39307200D02*
X182309524Y-40592914D01*
X184261905Y-40354819D02*
X184261905Y-39354819D01*
X184261905Y-39354819D02*
X184595238Y-40069104D01*
X184595238Y-40069104D02*
X184928571Y-39354819D01*
X184928571Y-39354819D02*
X184928571Y-40354819D01*
X185404762Y-39354819D02*
X185404762Y-40164342D01*
X185404762Y-40164342D02*
X185452381Y-40259580D01*
X185452381Y-40259580D02*
X185500000Y-40307200D01*
X185500000Y-40307200D02*
X185595238Y-40354819D01*
X185595238Y-40354819D02*
X185785714Y-40354819D01*
X185785714Y-40354819D02*
X185880952Y-40307200D01*
X185880952Y-40307200D02*
X185928571Y-40259580D01*
X185928571Y-40259580D02*
X185976190Y-40164342D01*
X185976190Y-40164342D02*
X185976190Y-39354819D01*
X186357143Y-39354819D02*
X187023809Y-40354819D01*
X187023809Y-39354819D02*
X186357143Y-40354819D01*
X176428570Y-49802438D02*
X176333332Y-49754819D01*
X176333332Y-49754819D02*
X176190475Y-49754819D01*
X176190475Y-49754819D02*
X176047618Y-49802438D01*
X176047618Y-49802438D02*
X175952380Y-49897676D01*
X175952380Y-49897676D02*
X175904761Y-49992914D01*
X175904761Y-49992914D02*
X175857142Y-50183390D01*
X175857142Y-50183390D02*
X175857142Y-50326247D01*
X175857142Y-50326247D02*
X175904761Y-50516723D01*
X175904761Y-50516723D02*
X175952380Y-50611961D01*
X175952380Y-50611961D02*
X176047618Y-50707200D01*
X176047618Y-50707200D02*
X176190475Y-50754819D01*
X176190475Y-50754819D02*
X176285713Y-50754819D01*
X176285713Y-50754819D02*
X176428570Y-50707200D01*
X176428570Y-50707200D02*
X176476189Y-50659580D01*
X176476189Y-50659580D02*
X176476189Y-50326247D01*
X176476189Y-50326247D02*
X176285713Y-50326247D01*
X176904761Y-50754819D02*
X176904761Y-49754819D01*
X176904761Y-49754819D02*
X177476189Y-50754819D01*
X177476189Y-50754819D02*
X177476189Y-49754819D01*
X177952380Y-50754819D02*
X177952380Y-49754819D01*
X177952380Y-49754819D02*
X178190475Y-49754819D01*
X178190475Y-49754819D02*
X178333332Y-49802438D01*
X178333332Y-49802438D02*
X178428570Y-49897676D01*
X178428570Y-49897676D02*
X178476189Y-49992914D01*
X178476189Y-49992914D02*
X178523808Y-50183390D01*
X178523808Y-50183390D02*
X178523808Y-50326247D01*
X178523808Y-50326247D02*
X178476189Y-50516723D01*
X178476189Y-50516723D02*
X178428570Y-50611961D01*
X178428570Y-50611961D02*
X178333332Y-50707200D01*
X178333332Y-50707200D02*
X178190475Y-50754819D01*
X178190475Y-50754819D02*
X177952380Y-50754819D01*
X180428571Y-50707200D02*
X180571428Y-50754819D01*
X180571428Y-50754819D02*
X180809523Y-50754819D01*
X180809523Y-50754819D02*
X180904761Y-50707200D01*
X180904761Y-50707200D02*
X180952380Y-50659580D01*
X180952380Y-50659580D02*
X180999999Y-50564342D01*
X180999999Y-50564342D02*
X180999999Y-50469104D01*
X180999999Y-50469104D02*
X180952380Y-50373866D01*
X180952380Y-50373866D02*
X180904761Y-50326247D01*
X180904761Y-50326247D02*
X180809523Y-50278628D01*
X180809523Y-50278628D02*
X180619047Y-50231009D01*
X180619047Y-50231009D02*
X180523809Y-50183390D01*
X180523809Y-50183390D02*
X180476190Y-50135771D01*
X180476190Y-50135771D02*
X180428571Y-50040533D01*
X180428571Y-50040533D02*
X180428571Y-49945295D01*
X180428571Y-49945295D02*
X180476190Y-49850057D01*
X180476190Y-49850057D02*
X180523809Y-49802438D01*
X180523809Y-49802438D02*
X180619047Y-49754819D01*
X180619047Y-49754819D02*
X180857142Y-49754819D01*
X180857142Y-49754819D02*
X180999999Y-49802438D01*
X181428571Y-50754819D02*
X181428571Y-49754819D01*
X181428571Y-49754819D02*
X181666666Y-49754819D01*
X181666666Y-49754819D02*
X181809523Y-49802438D01*
X181809523Y-49802438D02*
X181904761Y-49897676D01*
X181904761Y-49897676D02*
X181952380Y-49992914D01*
X181952380Y-49992914D02*
X181999999Y-50183390D01*
X181999999Y-50183390D02*
X181999999Y-50326247D01*
X181999999Y-50326247D02*
X181952380Y-50516723D01*
X181952380Y-50516723D02*
X181904761Y-50611961D01*
X181904761Y-50611961D02*
X181809523Y-50707200D01*
X181809523Y-50707200D02*
X181666666Y-50754819D01*
X181666666Y-50754819D02*
X181428571Y-50754819D01*
X182380952Y-50469104D02*
X182857142Y-50469104D01*
X182285714Y-50754819D02*
X182619047Y-49754819D01*
X182619047Y-49754819D02*
X182952380Y-50754819D01*
X184761905Y-50707200D02*
X184904762Y-50754819D01*
X184904762Y-50754819D02*
X185142857Y-50754819D01*
X185142857Y-50754819D02*
X185238095Y-50707200D01*
X185238095Y-50707200D02*
X185285714Y-50659580D01*
X185285714Y-50659580D02*
X185333333Y-50564342D01*
X185333333Y-50564342D02*
X185333333Y-50469104D01*
X185333333Y-50469104D02*
X185285714Y-50373866D01*
X185285714Y-50373866D02*
X185238095Y-50326247D01*
X185238095Y-50326247D02*
X185142857Y-50278628D01*
X185142857Y-50278628D02*
X184952381Y-50231009D01*
X184952381Y-50231009D02*
X184857143Y-50183390D01*
X184857143Y-50183390D02*
X184809524Y-50135771D01*
X184809524Y-50135771D02*
X184761905Y-50040533D01*
X184761905Y-50040533D02*
X184761905Y-49945295D01*
X184761905Y-49945295D02*
X184809524Y-49850057D01*
X184809524Y-49850057D02*
X184857143Y-49802438D01*
X184857143Y-49802438D02*
X184952381Y-49754819D01*
X184952381Y-49754819D02*
X185190476Y-49754819D01*
X185190476Y-49754819D02*
X185333333Y-49802438D01*
X186333333Y-50659580D02*
X186285714Y-50707200D01*
X186285714Y-50707200D02*
X186142857Y-50754819D01*
X186142857Y-50754819D02*
X186047619Y-50754819D01*
X186047619Y-50754819D02*
X185904762Y-50707200D01*
X185904762Y-50707200D02*
X185809524Y-50611961D01*
X185809524Y-50611961D02*
X185761905Y-50516723D01*
X185761905Y-50516723D02*
X185714286Y-50326247D01*
X185714286Y-50326247D02*
X185714286Y-50183390D01*
X185714286Y-50183390D02*
X185761905Y-49992914D01*
X185761905Y-49992914D02*
X185809524Y-49897676D01*
X185809524Y-49897676D02*
X185904762Y-49802438D01*
X185904762Y-49802438D02*
X186047619Y-49754819D01*
X186047619Y-49754819D02*
X186142857Y-49754819D01*
X186142857Y-49754819D02*
X186285714Y-49802438D01*
X186285714Y-49802438D02*
X186333333Y-49850057D01*
X187238095Y-50754819D02*
X186761905Y-50754819D01*
X186761905Y-50754819D02*
X186761905Y-49754819D01*
X180690476Y-51454819D02*
X180690476Y-52169104D01*
X180690476Y-52169104D02*
X180642857Y-52311961D01*
X180642857Y-52311961D02*
X180547619Y-52407200D01*
X180547619Y-52407200D02*
X180404762Y-52454819D01*
X180404762Y-52454819D02*
X180309524Y-52454819D01*
X181690476Y-52454819D02*
X181119048Y-52454819D01*
X181404762Y-52454819D02*
X181404762Y-51454819D01*
X181404762Y-51454819D02*
X181309524Y-51597676D01*
X181309524Y-51597676D02*
X181214286Y-51692914D01*
X181214286Y-51692914D02*
X181119048Y-51740533D01*
X182261905Y-51883390D02*
X182166667Y-51835771D01*
X182166667Y-51835771D02*
X182119048Y-51788152D01*
X182119048Y-51788152D02*
X182071429Y-51692914D01*
X182071429Y-51692914D02*
X182071429Y-51645295D01*
X182071429Y-51645295D02*
X182119048Y-51550057D01*
X182119048Y-51550057D02*
X182166667Y-51502438D01*
X182166667Y-51502438D02*
X182261905Y-51454819D01*
X182261905Y-51454819D02*
X182452381Y-51454819D01*
X182452381Y-51454819D02*
X182547619Y-51502438D01*
X182547619Y-51502438D02*
X182595238Y-51550057D01*
X182595238Y-51550057D02*
X182642857Y-51645295D01*
X182642857Y-51645295D02*
X182642857Y-51692914D01*
X182642857Y-51692914D02*
X182595238Y-51788152D01*
X182595238Y-51788152D02*
X182547619Y-51835771D01*
X182547619Y-51835771D02*
X182452381Y-51883390D01*
X182452381Y-51883390D02*
X182261905Y-51883390D01*
X182261905Y-51883390D02*
X182166667Y-51931009D01*
X182166667Y-51931009D02*
X182119048Y-51978628D01*
X182119048Y-51978628D02*
X182071429Y-52073866D01*
X182071429Y-52073866D02*
X182071429Y-52264342D01*
X182071429Y-52264342D02*
X182119048Y-52359580D01*
X182119048Y-52359580D02*
X182166667Y-52407200D01*
X182166667Y-52407200D02*
X182261905Y-52454819D01*
X182261905Y-52454819D02*
X182452381Y-52454819D01*
X182452381Y-52454819D02*
X182547619Y-52407200D01*
X182547619Y-52407200D02*
X182595238Y-52359580D01*
X182595238Y-52359580D02*
X182642857Y-52264342D01*
X182642857Y-52264342D02*
X182642857Y-52073866D01*
X182642857Y-52073866D02*
X182595238Y-51978628D01*
X182595238Y-51978628D02*
X182547619Y-51931009D01*
X182547619Y-51931009D02*
X182452381Y-51883390D01*
X186685714Y-94257200D02*
X186828571Y-94304819D01*
X186828571Y-94304819D02*
X187066666Y-94304819D01*
X187066666Y-94304819D02*
X187161904Y-94257200D01*
X187161904Y-94257200D02*
X187209523Y-94209580D01*
X187209523Y-94209580D02*
X187257142Y-94114342D01*
X187257142Y-94114342D02*
X187257142Y-94019104D01*
X187257142Y-94019104D02*
X187209523Y-93923866D01*
X187209523Y-93923866D02*
X187161904Y-93876247D01*
X187161904Y-93876247D02*
X187066666Y-93828628D01*
X187066666Y-93828628D02*
X186876190Y-93781009D01*
X186876190Y-93781009D02*
X186780952Y-93733390D01*
X186780952Y-93733390D02*
X186733333Y-93685771D01*
X186733333Y-93685771D02*
X186685714Y-93590533D01*
X186685714Y-93590533D02*
X186685714Y-93495295D01*
X186685714Y-93495295D02*
X186733333Y-93400057D01*
X186733333Y-93400057D02*
X186780952Y-93352438D01*
X186780952Y-93352438D02*
X186876190Y-93304819D01*
X186876190Y-93304819D02*
X187114285Y-93304819D01*
X187114285Y-93304819D02*
X187257142Y-93352438D01*
X187685714Y-94304819D02*
X187685714Y-93304819D01*
X187685714Y-93304819D02*
X187923809Y-93304819D01*
X187923809Y-93304819D02*
X188066666Y-93352438D01*
X188066666Y-93352438D02*
X188161904Y-93447676D01*
X188161904Y-93447676D02*
X188209523Y-93542914D01*
X188209523Y-93542914D02*
X188257142Y-93733390D01*
X188257142Y-93733390D02*
X188257142Y-93876247D01*
X188257142Y-93876247D02*
X188209523Y-94066723D01*
X188209523Y-94066723D02*
X188161904Y-94161961D01*
X188161904Y-94161961D02*
X188066666Y-94257200D01*
X188066666Y-94257200D02*
X187923809Y-94304819D01*
X187923809Y-94304819D02*
X187685714Y-94304819D01*
X188638095Y-94019104D02*
X189114285Y-94019104D01*
X188542857Y-94304819D02*
X188876190Y-93304819D01*
X188876190Y-93304819D02*
X189209523Y-94304819D01*
X186709524Y-96757200D02*
X186852381Y-96804819D01*
X186852381Y-96804819D02*
X187090476Y-96804819D01*
X187090476Y-96804819D02*
X187185714Y-96757200D01*
X187185714Y-96757200D02*
X187233333Y-96709580D01*
X187233333Y-96709580D02*
X187280952Y-96614342D01*
X187280952Y-96614342D02*
X187280952Y-96519104D01*
X187280952Y-96519104D02*
X187233333Y-96423866D01*
X187233333Y-96423866D02*
X187185714Y-96376247D01*
X187185714Y-96376247D02*
X187090476Y-96328628D01*
X187090476Y-96328628D02*
X186900000Y-96281009D01*
X186900000Y-96281009D02*
X186804762Y-96233390D01*
X186804762Y-96233390D02*
X186757143Y-96185771D01*
X186757143Y-96185771D02*
X186709524Y-96090533D01*
X186709524Y-96090533D02*
X186709524Y-95995295D01*
X186709524Y-95995295D02*
X186757143Y-95900057D01*
X186757143Y-95900057D02*
X186804762Y-95852438D01*
X186804762Y-95852438D02*
X186900000Y-95804819D01*
X186900000Y-95804819D02*
X187138095Y-95804819D01*
X187138095Y-95804819D02*
X187280952Y-95852438D01*
X188280952Y-96709580D02*
X188233333Y-96757200D01*
X188233333Y-96757200D02*
X188090476Y-96804819D01*
X188090476Y-96804819D02*
X187995238Y-96804819D01*
X187995238Y-96804819D02*
X187852381Y-96757200D01*
X187852381Y-96757200D02*
X187757143Y-96661961D01*
X187757143Y-96661961D02*
X187709524Y-96566723D01*
X187709524Y-96566723D02*
X187661905Y-96376247D01*
X187661905Y-96376247D02*
X187661905Y-96233390D01*
X187661905Y-96233390D02*
X187709524Y-96042914D01*
X187709524Y-96042914D02*
X187757143Y-95947676D01*
X187757143Y-95947676D02*
X187852381Y-95852438D01*
X187852381Y-95852438D02*
X187995238Y-95804819D01*
X187995238Y-95804819D02*
X188090476Y-95804819D01*
X188090476Y-95804819D02*
X188233333Y-95852438D01*
X188233333Y-95852438D02*
X188280952Y-95900057D01*
X189185714Y-96804819D02*
X188709524Y-96804819D01*
X188709524Y-96804819D02*
X188709524Y-95804819D01*
X183454819Y-93447618D02*
X183454819Y-92828571D01*
X183454819Y-92828571D02*
X183835771Y-93161904D01*
X183835771Y-93161904D02*
X183835771Y-93019047D01*
X183835771Y-93019047D02*
X183883390Y-92923809D01*
X183883390Y-92923809D02*
X183931009Y-92876190D01*
X183931009Y-92876190D02*
X184026247Y-92828571D01*
X184026247Y-92828571D02*
X184264342Y-92828571D01*
X184264342Y-92828571D02*
X184359580Y-92876190D01*
X184359580Y-92876190D02*
X184407200Y-92923809D01*
X184407200Y-92923809D02*
X184454819Y-93019047D01*
X184454819Y-93019047D02*
X184454819Y-93304761D01*
X184454819Y-93304761D02*
X184407200Y-93399999D01*
X184407200Y-93399999D02*
X184359580Y-93447618D01*
X183454819Y-92542856D02*
X184454819Y-92209523D01*
X184454819Y-92209523D02*
X183454819Y-91876190D01*
X183454819Y-91638094D02*
X183454819Y-91019047D01*
X183454819Y-91019047D02*
X183835771Y-91352380D01*
X183835771Y-91352380D02*
X183835771Y-91209523D01*
X183835771Y-91209523D02*
X183883390Y-91114285D01*
X183883390Y-91114285D02*
X183931009Y-91066666D01*
X183931009Y-91066666D02*
X184026247Y-91019047D01*
X184026247Y-91019047D02*
X184264342Y-91019047D01*
X184264342Y-91019047D02*
X184359580Y-91066666D01*
X184359580Y-91066666D02*
X184407200Y-91114285D01*
X184407200Y-91114285D02*
X184454819Y-91209523D01*
X184454819Y-91209523D02*
X184454819Y-91495237D01*
X184454819Y-91495237D02*
X184407200Y-91590475D01*
X184407200Y-91590475D02*
X184359580Y-91638094D01*
X183454819Y-89638094D02*
X183454819Y-89447618D01*
X183454819Y-89447618D02*
X183502438Y-89352380D01*
X183502438Y-89352380D02*
X183597676Y-89257142D01*
X183597676Y-89257142D02*
X183788152Y-89209523D01*
X183788152Y-89209523D02*
X184121485Y-89209523D01*
X184121485Y-89209523D02*
X184311961Y-89257142D01*
X184311961Y-89257142D02*
X184407200Y-89352380D01*
X184407200Y-89352380D02*
X184454819Y-89447618D01*
X184454819Y-89447618D02*
X184454819Y-89638094D01*
X184454819Y-89638094D02*
X184407200Y-89733332D01*
X184407200Y-89733332D02*
X184311961Y-89828570D01*
X184311961Y-89828570D02*
X184121485Y-89876189D01*
X184121485Y-89876189D02*
X183788152Y-89876189D01*
X183788152Y-89876189D02*
X183597676Y-89828570D01*
X183597676Y-89828570D02*
X183502438Y-89733332D01*
X183502438Y-89733332D02*
X183454819Y-89638094D01*
X183454819Y-88780951D02*
X184264342Y-88780951D01*
X184264342Y-88780951D02*
X184359580Y-88733332D01*
X184359580Y-88733332D02*
X184407200Y-88685713D01*
X184407200Y-88685713D02*
X184454819Y-88590475D01*
X184454819Y-88590475D02*
X184454819Y-88399999D01*
X184454819Y-88399999D02*
X184407200Y-88304761D01*
X184407200Y-88304761D02*
X184359580Y-88257142D01*
X184359580Y-88257142D02*
X184264342Y-88209523D01*
X184264342Y-88209523D02*
X183454819Y-88209523D01*
X183454819Y-87876189D02*
X183454819Y-87304761D01*
X184454819Y-87590475D02*
X183454819Y-87590475D01*
X111454819Y-126147618D02*
X111454819Y-125528571D01*
X111454819Y-125528571D02*
X111835771Y-125861904D01*
X111835771Y-125861904D02*
X111835771Y-125719047D01*
X111835771Y-125719047D02*
X111883390Y-125623809D01*
X111883390Y-125623809D02*
X111931009Y-125576190D01*
X111931009Y-125576190D02*
X112026247Y-125528571D01*
X112026247Y-125528571D02*
X112264342Y-125528571D01*
X112264342Y-125528571D02*
X112359580Y-125576190D01*
X112359580Y-125576190D02*
X112407200Y-125623809D01*
X112407200Y-125623809D02*
X112454819Y-125719047D01*
X112454819Y-125719047D02*
X112454819Y-126004761D01*
X112454819Y-126004761D02*
X112407200Y-126099999D01*
X112407200Y-126099999D02*
X112359580Y-126147618D01*
X111454819Y-125242856D02*
X112454819Y-124909523D01*
X112454819Y-124909523D02*
X111454819Y-124576190D01*
X111454819Y-124338094D02*
X111454819Y-123719047D01*
X111454819Y-123719047D02*
X111835771Y-124052380D01*
X111835771Y-124052380D02*
X111835771Y-123909523D01*
X111835771Y-123909523D02*
X111883390Y-123814285D01*
X111883390Y-123814285D02*
X111931009Y-123766666D01*
X111931009Y-123766666D02*
X112026247Y-123719047D01*
X112026247Y-123719047D02*
X112264342Y-123719047D01*
X112264342Y-123719047D02*
X112359580Y-123766666D01*
X112359580Y-123766666D02*
X112407200Y-123814285D01*
X112407200Y-123814285D02*
X112454819Y-123909523D01*
X112454819Y-123909523D02*
X112454819Y-124195237D01*
X112454819Y-124195237D02*
X112407200Y-124290475D01*
X112407200Y-124290475D02*
X112359580Y-124338094D01*
X111454819Y-122338094D02*
X111454819Y-122147618D01*
X111454819Y-122147618D02*
X111502438Y-122052380D01*
X111502438Y-122052380D02*
X111597676Y-121957142D01*
X111597676Y-121957142D02*
X111788152Y-121909523D01*
X111788152Y-121909523D02*
X112121485Y-121909523D01*
X112121485Y-121909523D02*
X112311961Y-121957142D01*
X112311961Y-121957142D02*
X112407200Y-122052380D01*
X112407200Y-122052380D02*
X112454819Y-122147618D01*
X112454819Y-122147618D02*
X112454819Y-122338094D01*
X112454819Y-122338094D02*
X112407200Y-122433332D01*
X112407200Y-122433332D02*
X112311961Y-122528570D01*
X112311961Y-122528570D02*
X112121485Y-122576189D01*
X112121485Y-122576189D02*
X111788152Y-122576189D01*
X111788152Y-122576189D02*
X111597676Y-122528570D01*
X111597676Y-122528570D02*
X111502438Y-122433332D01*
X111502438Y-122433332D02*
X111454819Y-122338094D01*
X111454819Y-121480951D02*
X112264342Y-121480951D01*
X112264342Y-121480951D02*
X112359580Y-121433332D01*
X112359580Y-121433332D02*
X112407200Y-121385713D01*
X112407200Y-121385713D02*
X112454819Y-121290475D01*
X112454819Y-121290475D02*
X112454819Y-121099999D01*
X112454819Y-121099999D02*
X112407200Y-121004761D01*
X112407200Y-121004761D02*
X112359580Y-120957142D01*
X112359580Y-120957142D02*
X112264342Y-120909523D01*
X112264342Y-120909523D02*
X111454819Y-120909523D01*
X111454819Y-120576189D02*
X111454819Y-120004761D01*
X112454819Y-120290475D02*
X111454819Y-120290475D01*
X111454819Y-138847618D02*
X111454819Y-138228571D01*
X111454819Y-138228571D02*
X111835771Y-138561904D01*
X111835771Y-138561904D02*
X111835771Y-138419047D01*
X111835771Y-138419047D02*
X111883390Y-138323809D01*
X111883390Y-138323809D02*
X111931009Y-138276190D01*
X111931009Y-138276190D02*
X112026247Y-138228571D01*
X112026247Y-138228571D02*
X112264342Y-138228571D01*
X112264342Y-138228571D02*
X112359580Y-138276190D01*
X112359580Y-138276190D02*
X112407200Y-138323809D01*
X112407200Y-138323809D02*
X112454819Y-138419047D01*
X112454819Y-138419047D02*
X112454819Y-138704761D01*
X112454819Y-138704761D02*
X112407200Y-138799999D01*
X112407200Y-138799999D02*
X112359580Y-138847618D01*
X111454819Y-137942856D02*
X112454819Y-137609523D01*
X112454819Y-137609523D02*
X111454819Y-137276190D01*
X111454819Y-137038094D02*
X111454819Y-136419047D01*
X111454819Y-136419047D02*
X111835771Y-136752380D01*
X111835771Y-136752380D02*
X111835771Y-136609523D01*
X111835771Y-136609523D02*
X111883390Y-136514285D01*
X111883390Y-136514285D02*
X111931009Y-136466666D01*
X111931009Y-136466666D02*
X112026247Y-136419047D01*
X112026247Y-136419047D02*
X112264342Y-136419047D01*
X112264342Y-136419047D02*
X112359580Y-136466666D01*
X112359580Y-136466666D02*
X112407200Y-136514285D01*
X112407200Y-136514285D02*
X112454819Y-136609523D01*
X112454819Y-136609523D02*
X112454819Y-136895237D01*
X112454819Y-136895237D02*
X112407200Y-136990475D01*
X112407200Y-136990475D02*
X112359580Y-137038094D01*
X111454819Y-135038094D02*
X111454819Y-134847618D01*
X111454819Y-134847618D02*
X111502438Y-134752380D01*
X111502438Y-134752380D02*
X111597676Y-134657142D01*
X111597676Y-134657142D02*
X111788152Y-134609523D01*
X111788152Y-134609523D02*
X112121485Y-134609523D01*
X112121485Y-134609523D02*
X112311961Y-134657142D01*
X112311961Y-134657142D02*
X112407200Y-134752380D01*
X112407200Y-134752380D02*
X112454819Y-134847618D01*
X112454819Y-134847618D02*
X112454819Y-135038094D01*
X112454819Y-135038094D02*
X112407200Y-135133332D01*
X112407200Y-135133332D02*
X112311961Y-135228570D01*
X112311961Y-135228570D02*
X112121485Y-135276189D01*
X112121485Y-135276189D02*
X111788152Y-135276189D01*
X111788152Y-135276189D02*
X111597676Y-135228570D01*
X111597676Y-135228570D02*
X111502438Y-135133332D01*
X111502438Y-135133332D02*
X111454819Y-135038094D01*
X111454819Y-134180951D02*
X112264342Y-134180951D01*
X112264342Y-134180951D02*
X112359580Y-134133332D01*
X112359580Y-134133332D02*
X112407200Y-134085713D01*
X112407200Y-134085713D02*
X112454819Y-133990475D01*
X112454819Y-133990475D02*
X112454819Y-133799999D01*
X112454819Y-133799999D02*
X112407200Y-133704761D01*
X112407200Y-133704761D02*
X112359580Y-133657142D01*
X112359580Y-133657142D02*
X112264342Y-133609523D01*
X112264342Y-133609523D02*
X111454819Y-133609523D01*
X111454819Y-133276189D02*
X111454819Y-132704761D01*
X112454819Y-132990475D02*
X111454819Y-132990475D01*
X119431009Y-50919047D02*
X119431009Y-51252380D01*
X119954819Y-51252380D02*
X118954819Y-51252380D01*
X118954819Y-51252380D02*
X118954819Y-50776190D01*
X119954819Y-49871428D02*
X119954819Y-50442856D01*
X119954819Y-50157142D02*
X118954819Y-50157142D01*
X118954819Y-50157142D02*
X119097676Y-50252380D01*
X119097676Y-50252380D02*
X119192914Y-50347618D01*
X119192914Y-50347618D02*
X119240533Y-50442856D01*
X119050057Y-48728570D02*
X119002438Y-48680951D01*
X119002438Y-48680951D02*
X118954819Y-48585713D01*
X118954819Y-48585713D02*
X118954819Y-48347618D01*
X118954819Y-48347618D02*
X119002438Y-48252380D01*
X119002438Y-48252380D02*
X119050057Y-48204761D01*
X119050057Y-48204761D02*
X119145295Y-48157142D01*
X119145295Y-48157142D02*
X119240533Y-48157142D01*
X119240533Y-48157142D02*
X119383390Y-48204761D01*
X119383390Y-48204761D02*
X119954819Y-48776189D01*
X119954819Y-48776189D02*
X119954819Y-48157142D01*
X119669104Y-47776189D02*
X119669104Y-47299999D01*
X119954819Y-47871427D02*
X118954819Y-47538094D01*
X118954819Y-47538094D02*
X119954819Y-47204761D01*
X181454819Y-126147618D02*
X181454819Y-125528571D01*
X181454819Y-125528571D02*
X181835771Y-125861904D01*
X181835771Y-125861904D02*
X181835771Y-125719047D01*
X181835771Y-125719047D02*
X181883390Y-125623809D01*
X181883390Y-125623809D02*
X181931009Y-125576190D01*
X181931009Y-125576190D02*
X182026247Y-125528571D01*
X182026247Y-125528571D02*
X182264342Y-125528571D01*
X182264342Y-125528571D02*
X182359580Y-125576190D01*
X182359580Y-125576190D02*
X182407200Y-125623809D01*
X182407200Y-125623809D02*
X182454819Y-125719047D01*
X182454819Y-125719047D02*
X182454819Y-126004761D01*
X182454819Y-126004761D02*
X182407200Y-126099999D01*
X182407200Y-126099999D02*
X182359580Y-126147618D01*
X181454819Y-125242856D02*
X182454819Y-124909523D01*
X182454819Y-124909523D02*
X181454819Y-124576190D01*
X181454819Y-124338094D02*
X181454819Y-123719047D01*
X181454819Y-123719047D02*
X181835771Y-124052380D01*
X181835771Y-124052380D02*
X181835771Y-123909523D01*
X181835771Y-123909523D02*
X181883390Y-123814285D01*
X181883390Y-123814285D02*
X181931009Y-123766666D01*
X181931009Y-123766666D02*
X182026247Y-123719047D01*
X182026247Y-123719047D02*
X182264342Y-123719047D01*
X182264342Y-123719047D02*
X182359580Y-123766666D01*
X182359580Y-123766666D02*
X182407200Y-123814285D01*
X182407200Y-123814285D02*
X182454819Y-123909523D01*
X182454819Y-123909523D02*
X182454819Y-124195237D01*
X182454819Y-124195237D02*
X182407200Y-124290475D01*
X182407200Y-124290475D02*
X182359580Y-124338094D01*
X181454819Y-122338094D02*
X181454819Y-122147618D01*
X181454819Y-122147618D02*
X181502438Y-122052380D01*
X181502438Y-122052380D02*
X181597676Y-121957142D01*
X181597676Y-121957142D02*
X181788152Y-121909523D01*
X181788152Y-121909523D02*
X182121485Y-121909523D01*
X182121485Y-121909523D02*
X182311961Y-121957142D01*
X182311961Y-121957142D02*
X182407200Y-122052380D01*
X182407200Y-122052380D02*
X182454819Y-122147618D01*
X182454819Y-122147618D02*
X182454819Y-122338094D01*
X182454819Y-122338094D02*
X182407200Y-122433332D01*
X182407200Y-122433332D02*
X182311961Y-122528570D01*
X182311961Y-122528570D02*
X182121485Y-122576189D01*
X182121485Y-122576189D02*
X181788152Y-122576189D01*
X181788152Y-122576189D02*
X181597676Y-122528570D01*
X181597676Y-122528570D02*
X181502438Y-122433332D01*
X181502438Y-122433332D02*
X181454819Y-122338094D01*
X181454819Y-121480951D02*
X182264342Y-121480951D01*
X182264342Y-121480951D02*
X182359580Y-121433332D01*
X182359580Y-121433332D02*
X182407200Y-121385713D01*
X182407200Y-121385713D02*
X182454819Y-121290475D01*
X182454819Y-121290475D02*
X182454819Y-121099999D01*
X182454819Y-121099999D02*
X182407200Y-121004761D01*
X182407200Y-121004761D02*
X182359580Y-120957142D01*
X182359580Y-120957142D02*
X182264342Y-120909523D01*
X182264342Y-120909523D02*
X181454819Y-120909523D01*
X181454819Y-120576189D02*
X181454819Y-120004761D01*
X182454819Y-120290475D02*
X181454819Y-120290475D01*
X181454819Y-138497618D02*
X181454819Y-137878571D01*
X181454819Y-137878571D02*
X181835771Y-138211904D01*
X181835771Y-138211904D02*
X181835771Y-138069047D01*
X181835771Y-138069047D02*
X181883390Y-137973809D01*
X181883390Y-137973809D02*
X181931009Y-137926190D01*
X181931009Y-137926190D02*
X182026247Y-137878571D01*
X182026247Y-137878571D02*
X182264342Y-137878571D01*
X182264342Y-137878571D02*
X182359580Y-137926190D01*
X182359580Y-137926190D02*
X182407200Y-137973809D01*
X182407200Y-137973809D02*
X182454819Y-138069047D01*
X182454819Y-138069047D02*
X182454819Y-138354761D01*
X182454819Y-138354761D02*
X182407200Y-138449999D01*
X182407200Y-138449999D02*
X182359580Y-138497618D01*
X181454819Y-137592856D02*
X182454819Y-137259523D01*
X182454819Y-137259523D02*
X181454819Y-136926190D01*
X181454819Y-136688094D02*
X181454819Y-136069047D01*
X181454819Y-136069047D02*
X181835771Y-136402380D01*
X181835771Y-136402380D02*
X181835771Y-136259523D01*
X181835771Y-136259523D02*
X181883390Y-136164285D01*
X181883390Y-136164285D02*
X181931009Y-136116666D01*
X181931009Y-136116666D02*
X182026247Y-136069047D01*
X182026247Y-136069047D02*
X182264342Y-136069047D01*
X182264342Y-136069047D02*
X182359580Y-136116666D01*
X182359580Y-136116666D02*
X182407200Y-136164285D01*
X182407200Y-136164285D02*
X182454819Y-136259523D01*
X182454819Y-136259523D02*
X182454819Y-136545237D01*
X182454819Y-136545237D02*
X182407200Y-136640475D01*
X182407200Y-136640475D02*
X182359580Y-136688094D01*
X181454819Y-134688094D02*
X181454819Y-134497618D01*
X181454819Y-134497618D02*
X181502438Y-134402380D01*
X181502438Y-134402380D02*
X181597676Y-134307142D01*
X181597676Y-134307142D02*
X181788152Y-134259523D01*
X181788152Y-134259523D02*
X182121485Y-134259523D01*
X182121485Y-134259523D02*
X182311961Y-134307142D01*
X182311961Y-134307142D02*
X182407200Y-134402380D01*
X182407200Y-134402380D02*
X182454819Y-134497618D01*
X182454819Y-134497618D02*
X182454819Y-134688094D01*
X182454819Y-134688094D02*
X182407200Y-134783332D01*
X182407200Y-134783332D02*
X182311961Y-134878570D01*
X182311961Y-134878570D02*
X182121485Y-134926189D01*
X182121485Y-134926189D02*
X181788152Y-134926189D01*
X181788152Y-134926189D02*
X181597676Y-134878570D01*
X181597676Y-134878570D02*
X181502438Y-134783332D01*
X181502438Y-134783332D02*
X181454819Y-134688094D01*
X181454819Y-133830951D02*
X182264342Y-133830951D01*
X182264342Y-133830951D02*
X182359580Y-133783332D01*
X182359580Y-133783332D02*
X182407200Y-133735713D01*
X182407200Y-133735713D02*
X182454819Y-133640475D01*
X182454819Y-133640475D02*
X182454819Y-133449999D01*
X182454819Y-133449999D02*
X182407200Y-133354761D01*
X182407200Y-133354761D02*
X182359580Y-133307142D01*
X182359580Y-133307142D02*
X182264342Y-133259523D01*
X182264342Y-133259523D02*
X181454819Y-133259523D01*
X181454819Y-132926189D02*
X181454819Y-132354761D01*
X182454819Y-132640475D02*
X181454819Y-132640475D01*
D12*
X96885714Y-148918674D02*
X96285714Y-148061531D01*
X95857143Y-148918674D02*
X95857143Y-147118674D01*
X95857143Y-147118674D02*
X96542857Y-147118674D01*
X96542857Y-147118674D02*
X96714286Y-147204388D01*
X96714286Y-147204388D02*
X96800000Y-147290102D01*
X96800000Y-147290102D02*
X96885714Y-147461531D01*
X96885714Y-147461531D02*
X96885714Y-147718674D01*
X96885714Y-147718674D02*
X96800000Y-147890102D01*
X96800000Y-147890102D02*
X96714286Y-147975817D01*
X96714286Y-147975817D02*
X96542857Y-148061531D01*
X96542857Y-148061531D02*
X95857143Y-148061531D01*
X97657143Y-148918674D02*
X97657143Y-147118674D01*
X98428572Y-148918674D02*
X98428572Y-147975817D01*
X98428572Y-147975817D02*
X98342857Y-147804388D01*
X98342857Y-147804388D02*
X98171429Y-147718674D01*
X98171429Y-147718674D02*
X97914286Y-147718674D01*
X97914286Y-147718674D02*
X97742857Y-147804388D01*
X97742857Y-147804388D02*
X97657143Y-147890102D01*
X99971428Y-148832960D02*
X99800000Y-148918674D01*
X99800000Y-148918674D02*
X99457143Y-148918674D01*
X99457143Y-148918674D02*
X99285714Y-148832960D01*
X99285714Y-148832960D02*
X99200000Y-148661531D01*
X99200000Y-148661531D02*
X99200000Y-147975817D01*
X99200000Y-147975817D02*
X99285714Y-147804388D01*
X99285714Y-147804388D02*
X99457143Y-147718674D01*
X99457143Y-147718674D02*
X99800000Y-147718674D01*
X99800000Y-147718674D02*
X99971428Y-147804388D01*
X99971428Y-147804388D02*
X100057143Y-147975817D01*
X100057143Y-147975817D02*
X100057143Y-148147245D01*
X100057143Y-148147245D02*
X99200000Y-148318674D01*
X101085714Y-148918674D02*
X100914285Y-148832960D01*
X100914285Y-148832960D02*
X100828571Y-148747245D01*
X100828571Y-148747245D02*
X100742857Y-148575817D01*
X100742857Y-148575817D02*
X100742857Y-148061531D01*
X100742857Y-148061531D02*
X100828571Y-147890102D01*
X100828571Y-147890102D02*
X100914285Y-147804388D01*
X100914285Y-147804388D02*
X101085714Y-147718674D01*
X101085714Y-147718674D02*
X101342857Y-147718674D01*
X101342857Y-147718674D02*
X101514285Y-147804388D01*
X101514285Y-147804388D02*
X101600000Y-147890102D01*
X101600000Y-147890102D02*
X101685714Y-148061531D01*
X101685714Y-148061531D02*
X101685714Y-148575817D01*
X101685714Y-148575817D02*
X101600000Y-148747245D01*
X101600000Y-148747245D02*
X101514285Y-148832960D01*
X101514285Y-148832960D02*
X101342857Y-148918674D01*
X101342857Y-148918674D02*
X101085714Y-148918674D01*
X103057142Y-147975817D02*
X103314285Y-148061531D01*
X103314285Y-148061531D02*
X103399999Y-148147245D01*
X103399999Y-148147245D02*
X103485713Y-148318674D01*
X103485713Y-148318674D02*
X103485713Y-148575817D01*
X103485713Y-148575817D02*
X103399999Y-148747245D01*
X103399999Y-148747245D02*
X103314285Y-148832960D01*
X103314285Y-148832960D02*
X103142856Y-148918674D01*
X103142856Y-148918674D02*
X102457142Y-148918674D01*
X102457142Y-148918674D02*
X102457142Y-147118674D01*
X102457142Y-147118674D02*
X103057142Y-147118674D01*
X103057142Y-147118674D02*
X103228571Y-147204388D01*
X103228571Y-147204388D02*
X103314285Y-147290102D01*
X103314285Y-147290102D02*
X103399999Y-147461531D01*
X103399999Y-147461531D02*
X103399999Y-147632960D01*
X103399999Y-147632960D02*
X103314285Y-147804388D01*
X103314285Y-147804388D02*
X103228571Y-147890102D01*
X103228571Y-147890102D02*
X103057142Y-147975817D01*
X103057142Y-147975817D02*
X102457142Y-147975817D01*
X104514285Y-148918674D02*
X104342856Y-148832960D01*
X104342856Y-148832960D02*
X104257142Y-148747245D01*
X104257142Y-148747245D02*
X104171428Y-148575817D01*
X104171428Y-148575817D02*
X104171428Y-148061531D01*
X104171428Y-148061531D02*
X104257142Y-147890102D01*
X104257142Y-147890102D02*
X104342856Y-147804388D01*
X104342856Y-147804388D02*
X104514285Y-147718674D01*
X104514285Y-147718674D02*
X104771428Y-147718674D01*
X104771428Y-147718674D02*
X104942856Y-147804388D01*
X104942856Y-147804388D02*
X105028571Y-147890102D01*
X105028571Y-147890102D02*
X105114285Y-148061531D01*
X105114285Y-148061531D02*
X105114285Y-148575817D01*
X105114285Y-148575817D02*
X105028571Y-148747245D01*
X105028571Y-148747245D02*
X104942856Y-148832960D01*
X104942856Y-148832960D02*
X104771428Y-148918674D01*
X104771428Y-148918674D02*
X104514285Y-148918674D01*
X106657142Y-148918674D02*
X106657142Y-147975817D01*
X106657142Y-147975817D02*
X106571427Y-147804388D01*
X106571427Y-147804388D02*
X106399999Y-147718674D01*
X106399999Y-147718674D02*
X106057142Y-147718674D01*
X106057142Y-147718674D02*
X105885713Y-147804388D01*
X106657142Y-148832960D02*
X106485713Y-148918674D01*
X106485713Y-148918674D02*
X106057142Y-148918674D01*
X106057142Y-148918674D02*
X105885713Y-148832960D01*
X105885713Y-148832960D02*
X105799999Y-148661531D01*
X105799999Y-148661531D02*
X105799999Y-148490102D01*
X105799999Y-148490102D02*
X105885713Y-148318674D01*
X105885713Y-148318674D02*
X106057142Y-148232960D01*
X106057142Y-148232960D02*
X106485713Y-148232960D01*
X106485713Y-148232960D02*
X106657142Y-148147245D01*
X107514284Y-148918674D02*
X107514284Y-147718674D01*
X107514284Y-148061531D02*
X107599998Y-147890102D01*
X107599998Y-147890102D02*
X107685713Y-147804388D01*
X107685713Y-147804388D02*
X107857141Y-147718674D01*
X107857141Y-147718674D02*
X108028570Y-147718674D01*
X109399999Y-148918674D02*
X109399999Y-147118674D01*
X109399999Y-148832960D02*
X109228570Y-148918674D01*
X109228570Y-148918674D02*
X108885713Y-148918674D01*
X108885713Y-148918674D02*
X108714284Y-148832960D01*
X108714284Y-148832960D02*
X108628570Y-148747245D01*
X108628570Y-148747245D02*
X108542856Y-148575817D01*
X108542856Y-148575817D02*
X108542856Y-148061531D01*
X108542856Y-148061531D02*
X108628570Y-147890102D01*
X108628570Y-147890102D02*
X108714284Y-147804388D01*
X108714284Y-147804388D02*
X108885713Y-147718674D01*
X108885713Y-147718674D02*
X109228570Y-147718674D01*
X109228570Y-147718674D02*
X109399999Y-147804388D01*
X111457141Y-147718674D02*
X111885713Y-148918674D01*
X111885713Y-148918674D02*
X112314284Y-147718674D01*
X113942856Y-148918674D02*
X112914285Y-148918674D01*
X113428570Y-148918674D02*
X113428570Y-147118674D01*
X113428570Y-147118674D02*
X113257142Y-147375817D01*
X113257142Y-147375817D02*
X113085713Y-147547245D01*
X113085713Y-147547245D02*
X112914285Y-147632960D01*
X114714285Y-148747245D02*
X114799999Y-148832960D01*
X114799999Y-148832960D02*
X114714285Y-148918674D01*
X114714285Y-148918674D02*
X114628571Y-148832960D01*
X114628571Y-148832960D02*
X114714285Y-148747245D01*
X114714285Y-148747245D02*
X114714285Y-148918674D01*
X115914285Y-147118674D02*
X116085714Y-147118674D01*
X116085714Y-147118674D02*
X116257142Y-147204388D01*
X116257142Y-147204388D02*
X116342857Y-147290102D01*
X116342857Y-147290102D02*
X116428571Y-147461531D01*
X116428571Y-147461531D02*
X116514285Y-147804388D01*
X116514285Y-147804388D02*
X116514285Y-148232960D01*
X116514285Y-148232960D02*
X116428571Y-148575817D01*
X116428571Y-148575817D02*
X116342857Y-148747245D01*
X116342857Y-148747245D02*
X116257142Y-148832960D01*
X116257142Y-148832960D02*
X116085714Y-148918674D01*
X116085714Y-148918674D02*
X115914285Y-148918674D01*
X115914285Y-148918674D02*
X115742857Y-148832960D01*
X115742857Y-148832960D02*
X115657142Y-148747245D01*
X115657142Y-148747245D02*
X115571428Y-148575817D01*
X115571428Y-148575817D02*
X115485714Y-148232960D01*
X115485714Y-148232960D02*
X115485714Y-147804388D01*
X115485714Y-147804388D02*
X115571428Y-147461531D01*
X115571428Y-147461531D02*
X115657142Y-147290102D01*
X115657142Y-147290102D02*
X115742857Y-147204388D01*
X115742857Y-147204388D02*
X115914285Y-147118674D01*
X118142857Y-147118674D02*
X117285714Y-147118674D01*
X117285714Y-147118674D02*
X117200000Y-147975817D01*
X117200000Y-147975817D02*
X117285714Y-147890102D01*
X117285714Y-147890102D02*
X117457143Y-147804388D01*
X117457143Y-147804388D02*
X117885714Y-147804388D01*
X117885714Y-147804388D02*
X118057143Y-147890102D01*
X118057143Y-147890102D02*
X118142857Y-147975817D01*
X118142857Y-147975817D02*
X118228571Y-148147245D01*
X118228571Y-148147245D02*
X118228571Y-148575817D01*
X118228571Y-148575817D02*
X118142857Y-148747245D01*
X118142857Y-148747245D02*
X118057143Y-148832960D01*
X118057143Y-148832960D02*
X117885714Y-148918674D01*
X117885714Y-148918674D02*
X117457143Y-148918674D01*
X117457143Y-148918674D02*
X117285714Y-148832960D01*
X117285714Y-148832960D02*
X117200000Y-148747245D01*
%TO.C,U12*%
D13*
X143150000Y-49150000D02*
X145850000Y-49150000D01*
X145850000Y-51850000D01*
X143150000Y-51850000D01*
X143150000Y-49150000D01*
D14*
X142850000Y-49800000D02*
G75*
G02*
X142650000Y-49800000I-100000J0D01*
G01*
X142650000Y-49800000D02*
G75*
G02*
X142850000Y-49800000I100000J0D01*
G01*
%TO.C,R17*%
D13*
X93931286Y-86727848D02*
X93931286Y-87237296D01*
X94976286Y-86727848D02*
X94976286Y-87237296D01*
%TO.C,R14*%
X158342224Y-88277500D02*
X157832776Y-88277500D01*
X158342224Y-89322500D02*
X157832776Y-89322500D01*
%TO.C,R20*%
X169723524Y-81036900D02*
X169214076Y-81036900D01*
X169723524Y-82081900D02*
X169214076Y-82081900D01*
%TO.C,JP2*%
X191779999Y-78019400D02*
X194579999Y-78019400D01*
X191779999Y-80019400D02*
X191779999Y-78019400D01*
X194579999Y-78019400D02*
X194579999Y-80019400D01*
X194579999Y-80019400D02*
X191779999Y-80019400D01*
%TO.C,C25*%
X107305000Y-105890333D02*
X107305000Y-106182867D01*
X108325000Y-105890333D02*
X108325000Y-106182867D01*
%TO.C,R35*%
X162459124Y-101839500D02*
X161949676Y-101839500D01*
X162459124Y-102884500D02*
X161949676Y-102884500D01*
%TO.C,C56*%
X135327244Y-79377874D02*
X135034710Y-79377874D01*
X135327244Y-80397874D02*
X135034710Y-80397874D01*
%TO.C,C32*%
X174762500Y-102752500D02*
X175550000Y-102752500D01*
X175156250Y-102358750D02*
X175156250Y-103146250D01*
X175790000Y-102254437D02*
X175790000Y-103540000D01*
X175790000Y-102254437D02*
X176854437Y-101190000D01*
X175790000Y-106945563D02*
X175790000Y-105660000D01*
X175790000Y-106945563D02*
X176854437Y-108010000D01*
X176854437Y-101190000D02*
X182610000Y-101190000D01*
X176854437Y-108010000D02*
X182610000Y-108010000D01*
X182610000Y-101190000D02*
X182610000Y-103540000D01*
X182610000Y-108010000D02*
X182610000Y-105660000D01*
%TO.C,R31*%
X181852224Y-70074609D02*
X181342776Y-70074609D01*
X181852224Y-71119609D02*
X181342776Y-71119609D01*
%TO.C,C23*%
X94256000Y-105997634D02*
X94256000Y-106290168D01*
X95276000Y-105997634D02*
X95276000Y-106290168D01*
%TO.C,R61*%
X109895276Y-65593212D02*
X110404724Y-65593212D01*
X109895276Y-66638212D02*
X110404724Y-66638212D01*
%TO.C,R32*%
X181852224Y-65927500D02*
X181342776Y-65927500D01*
X181852224Y-66972500D02*
X181342776Y-66972500D01*
%TO.C,R81*%
X148262742Y-49477500D02*
X148737258Y-49477500D01*
X148262742Y-50522500D02*
X148737258Y-50522500D01*
%TO.C,TP8*%
X184137500Y-61494646D02*
X185437500Y-61494646D01*
X185437500Y-62794646D01*
X184137500Y-62794646D01*
X184137500Y-61494646D01*
D14*
X183837500Y-62144646D02*
G75*
G02*
X183637500Y-62144646I-100000J0D01*
G01*
X183637500Y-62144646D02*
G75*
G02*
X183837500Y-62144646I100000J0D01*
G01*
%TO.C,R51*%
D13*
X128560300Y-138125924D02*
X128560300Y-137616476D01*
X129605300Y-138125924D02*
X129605300Y-137616476D01*
%TO.C,D17*%
X124980283Y-137026200D02*
X124980283Y-139486200D01*
X124980283Y-139486200D02*
X126450283Y-139486200D01*
X126450283Y-139486200D02*
X126450283Y-137026200D01*
%TO.C,R42*%
X130404324Y-101890300D02*
X129894876Y-101890300D01*
X130404324Y-102935300D02*
X129894876Y-102935300D01*
%TO.C,J2*%
D15*
X106488250Y-39197999D02*
X106488250Y-43077999D01*
X106488250Y-46317999D02*
X106488250Y-47777999D01*
X106488250Y-52197999D02*
X106488250Y-51017999D01*
X106488250Y-52197999D02*
X110043250Y-52197999D01*
X112933250Y-52197999D02*
X116488250Y-52197999D01*
X116488250Y-39197999D02*
X116488250Y-43077999D01*
X116488250Y-47777999D02*
X116488250Y-46317999D01*
X116488250Y-52197999D02*
X116488250Y-51017999D01*
D14*
X111588250Y-52847999D02*
G75*
G02*
X111388250Y-52847999I-100000J0D01*
G01*
X111388250Y-52847999D02*
G75*
G02*
X111588250Y-52847999I100000J0D01*
G01*
%TO.C,R46*%
D13*
X134091955Y-72527500D02*
X134601403Y-72527500D01*
X134091955Y-73572500D02*
X134601403Y-73572500D01*
%TO.C,C46*%
X143341233Y-78940000D02*
X143633767Y-78940000D01*
X143341233Y-79960000D02*
X143633767Y-79960000D01*
%TO.C,R33*%
X181852224Y-61627500D02*
X181342776Y-61627500D01*
X181852224Y-62672500D02*
X181342776Y-62672500D01*
%TO.C,R29*%
X181852224Y-78627500D02*
X181342776Y-78627500D01*
X181852224Y-79672500D02*
X181342776Y-79672500D01*
%TO.C,SW1*%
X95742000Y-103881400D02*
X95742000Y-110081400D01*
X95742000Y-103881400D02*
X95842000Y-103881400D01*
X95742000Y-110081400D02*
X95842000Y-110081400D01*
X100342000Y-103881400D02*
X97342000Y-103881400D01*
X100342000Y-110081400D02*
X97342000Y-110081400D01*
X101842000Y-110081400D02*
X101942000Y-110081400D01*
X101942000Y-103881400D02*
X101842000Y-103881400D01*
X101942000Y-103881400D02*
X101942000Y-110081400D01*
%TO.C,C4*%
X133925624Y-64671988D02*
X133925624Y-64964522D01*
X134945624Y-64671988D02*
X134945624Y-64964522D01*
%TO.C,D34*%
X133021258Y-58073263D02*
X133021258Y-59543263D01*
X133021258Y-59543263D02*
X135306258Y-59543263D01*
X135306258Y-58073263D02*
X133021258Y-58073263D01*
%TO.C,J12*%
X190140000Y-133265000D02*
X190140000Y-134315000D01*
X190140000Y-138435000D02*
X189150000Y-138435000D01*
X190140000Y-139485000D02*
X190140000Y-138435000D01*
X192640000Y-133265000D02*
X190140000Y-133265000D01*
X192640000Y-139485000D02*
X190140000Y-139485000D01*
X194610000Y-138315000D02*
X194610000Y-134435000D01*
%TO.C,R18*%
X107278958Y-102405175D02*
X107278958Y-102914623D01*
X108323958Y-102405175D02*
X108323958Y-102914623D01*
%TO.C,TP3*%
X145434758Y-88075664D02*
X146734758Y-88075664D01*
X146734758Y-89375664D01*
X145434758Y-89375664D01*
X145434758Y-88075664D01*
D14*
X147234758Y-88725664D02*
G75*
G02*
X147034758Y-88725664I-100000J0D01*
G01*
X147034758Y-88725664D02*
G75*
G02*
X147234758Y-88725664I100000J0D01*
G01*
%TO.C,R19*%
D13*
X107376700Y-86832385D02*
X107376700Y-87341833D01*
X108421700Y-86832385D02*
X108421700Y-87341833D01*
%TO.C,JP6*%
X191767000Y-61128400D02*
X194567000Y-61128400D01*
X191767000Y-63128400D02*
X191767000Y-61128400D01*
X194567000Y-61128400D02*
X194567000Y-63128400D01*
X194567000Y-63128400D02*
X191767000Y-63128400D01*
%TO.C,C63*%
X107235968Y-72540000D02*
X106943434Y-72540000D01*
X107235968Y-73560000D02*
X106943434Y-73560000D01*
%TO.C,C59*%
X135498468Y-66776929D02*
X135205934Y-66776929D01*
X135498468Y-67796929D02*
X135205934Y-67796929D01*
%TO.C,U4*%
D15*
X163240000Y-84235000D02*
X163240000Y-89235000D01*
X163240000Y-84235000D02*
X166880000Y-84235000D01*
X163240000Y-89235000D02*
X166870000Y-89235000D01*
X166880000Y-84255000D02*
X166880000Y-89235000D01*
D14*
X160980000Y-84460000D02*
G75*
G02*
X160780000Y-84460000I-100000J0D01*
G01*
X160780000Y-84460000D02*
G75*
G02*
X160980000Y-84460000I100000J0D01*
G01*
%TO.C,R15*%
D13*
X169699424Y-82560900D02*
X169189976Y-82560900D01*
X169699424Y-83605900D02*
X169189976Y-83605900D01*
%TO.C,C9*%
X130501248Y-59456750D02*
X131023752Y-59456750D01*
X130501248Y-60926750D02*
X131023752Y-60926750D01*
%TO.C,C67*%
X146088748Y-54390000D02*
X147511252Y-54390000D01*
X146088748Y-56210000D02*
X147511252Y-56210000D01*
%TO.C,D12*%
X141305000Y-94133400D02*
X135795000Y-94133400D01*
X141305000Y-97433400D02*
X135795000Y-97433400D01*
X141305000Y-97433400D02*
X141305000Y-94133400D01*
%TO.C,D1*%
X130550000Y-52310000D02*
X130550000Y-43800000D01*
X137050000Y-52310000D02*
X130550000Y-52310000D01*
X137050000Y-52310000D02*
X137050000Y-43800000D01*
%TO.C,JP5*%
X191767000Y-65522600D02*
X194567000Y-65522600D01*
X191767000Y-67522600D02*
X191767000Y-65522600D01*
X194567000Y-65522600D02*
X194567000Y-67522600D01*
X194567000Y-67522600D02*
X191767000Y-67522600D01*
%TO.C,D6*%
X157710000Y-51472377D02*
X157710000Y-53932377D01*
X159180000Y-51472377D02*
X157710000Y-51472377D01*
X159180000Y-53932377D02*
X159180000Y-51472377D01*
%TO.C,R22*%
X142950476Y-88047300D02*
X143459924Y-88047300D01*
X142950476Y-89092300D02*
X143459924Y-89092300D01*
%TO.C,C24*%
X93940600Y-90252234D02*
X93940600Y-90544768D01*
X94960600Y-90252234D02*
X94960600Y-90544768D01*
%TO.C,L1*%
X122420622Y-72951411D02*
X123620622Y-72951411D01*
X122420622Y-78021411D02*
X122420622Y-72951411D01*
X123620622Y-78021411D02*
X122420622Y-78021411D01*
X126640622Y-72951411D02*
X127840622Y-72951411D01*
X127840622Y-72951411D02*
X127840622Y-78021411D01*
X127840622Y-78021411D02*
X126640622Y-78021411D01*
%TO.C,R4*%
X135452500Y-65079724D02*
X135452500Y-64570276D01*
X136497500Y-65079724D02*
X136497500Y-64570276D01*
%TO.C,Q4*%
D15*
X133412500Y-102950000D02*
X135212500Y-102950000D01*
X135212500Y-99850000D02*
X133412500Y-99850000D01*
D14*
X132102500Y-100450000D02*
G75*
G02*
X131902500Y-100450000I-100000J0D01*
G01*
X131902500Y-100450000D02*
G75*
G02*
X132102500Y-100450000I100000J0D01*
G01*
%TO.C,D19*%
D13*
X156948200Y-137116200D02*
X156948200Y-139576200D01*
X156948200Y-139576200D02*
X158418200Y-139576200D01*
X158418200Y-139576200D02*
X158418200Y-137116200D01*
%TO.C,R79*%
X139477500Y-50262742D02*
X139477500Y-50737258D01*
X140522500Y-50262742D02*
X140522500Y-50737258D01*
%TO.C,J17*%
X95315000Y-121885001D02*
X95315000Y-125765001D01*
X97285000Y-120715001D02*
X99785001Y-120715001D01*
X97285000Y-126935001D02*
X99785001Y-126935001D01*
X99785001Y-120715001D02*
X99785001Y-121765001D01*
X99785001Y-121765001D02*
X100775000Y-121765001D01*
X99785001Y-126935001D02*
X99785001Y-125885001D01*
%TO.C,C64*%
X147859420Y-51990000D02*
X148140580Y-51990000D01*
X147859420Y-53010000D02*
X148140580Y-53010000D01*
%TO.C,TP6*%
X184137499Y-69885800D02*
X185437499Y-69885800D01*
X185437499Y-71185800D01*
X184137499Y-71185800D01*
X184137499Y-69885800D01*
D14*
X183837499Y-70535800D02*
G75*
G02*
X183637499Y-70535800I-100000J0D01*
G01*
X183637499Y-70535800D02*
G75*
G02*
X183837499Y-70535800I100000J0D01*
G01*
%TO.C,R75*%
D13*
X137456204Y-58284435D02*
X137965652Y-58284435D01*
X137456204Y-59329435D02*
X137965652Y-59329435D01*
%TO.C,R45*%
X137461983Y-72527500D02*
X137971431Y-72527500D01*
X137461983Y-73572500D02*
X137971431Y-73572500D01*
%TO.C,C5*%
X106303362Y-70218933D02*
X106303362Y-70511467D01*
X107323362Y-70218933D02*
X107323362Y-70511467D01*
%TO.C,TP2*%
X147800000Y-88072200D02*
X149100000Y-88072200D01*
X149100000Y-89372200D01*
X147800000Y-89372200D01*
X147800000Y-88072200D01*
D14*
X149600000Y-88722200D02*
G75*
G02*
X149400000Y-88722200I-100000J0D01*
G01*
X149400000Y-88722200D02*
G75*
G02*
X149600000Y-88722200I100000J0D01*
G01*
%TO.C,C52*%
D13*
X130501248Y-76819255D02*
X131023752Y-76819255D01*
X130501248Y-78289255D02*
X131023752Y-78289255D01*
%TO.C,JP4*%
X191779999Y-69530386D02*
X194579999Y-69530386D01*
X191779999Y-71530386D02*
X191779999Y-69530386D01*
X194579999Y-69530386D02*
X194579999Y-71530386D01*
X194579999Y-71530386D02*
X191779999Y-71530386D01*
%TO.C,D11*%
X173334400Y-94133400D02*
X167824400Y-94133400D01*
X173334400Y-97433400D02*
X167824400Y-97433400D01*
X173334400Y-97433400D02*
X173334400Y-94133400D01*
%TO.C,TP4*%
X184137499Y-78394800D02*
X185437499Y-78394800D01*
X185437499Y-79694800D01*
X184137499Y-79694800D01*
X184137499Y-78394800D01*
D14*
X183837499Y-79044800D02*
G75*
G02*
X183637499Y-79044800I-100000J0D01*
G01*
X183637499Y-79044800D02*
G75*
G02*
X183837499Y-79044800I100000J0D01*
G01*
%TO.C,R7*%
D13*
X107817738Y-70619924D02*
X107817738Y-70110476D01*
X108862738Y-70619924D02*
X108862738Y-70110476D01*
%TO.C,U10*%
X156150000Y-150350000D02*
X156150000Y-164850010D01*
X156150001Y-150350000D02*
X156150001Y-164850010D01*
X168649999Y-150350000D02*
X156150000Y-150350000D01*
X168649999Y-150350000D02*
X168650000Y-160390249D01*
X168650000Y-150350000D02*
X156150001Y-150350000D01*
X168650000Y-150350000D02*
X168650001Y-160390249D01*
X168650000Y-150350000D02*
X175603001Y-150350000D01*
X168650000Y-161359700D02*
X168650000Y-164850010D01*
X168650000Y-164850010D02*
X156150000Y-164850010D01*
X168650001Y-161359700D02*
X168650001Y-164850010D01*
X168650001Y-164850010D02*
X156150001Y-164850010D01*
X175603001Y-157740000D02*
X175603001Y-150370000D01*
X175603001Y-157770000D02*
X168623002Y-157770000D01*
X156150000Y-150350000D02*
X168650000Y-150350000D01*
X168650000Y-164850000D01*
X156150000Y-164850000D01*
X156150000Y-150350000D01*
%TO.C,C26*%
X107367200Y-90353834D02*
X107367200Y-90646368D01*
X108387200Y-90353834D02*
X108387200Y-90646368D01*
%TO.C,R16*%
X94256254Y-102512646D02*
X94256254Y-103022094D01*
X95301254Y-102512646D02*
X95301254Y-103022094D01*
%TO.C,C65*%
X139765000Y-43761252D02*
X139765000Y-43238748D01*
X141235000Y-43761252D02*
X141235000Y-43238748D01*
%TO.C,R77*%
X109895276Y-63940614D02*
X110404724Y-63940614D01*
X109895276Y-64985614D02*
X110404724Y-64985614D01*
%TO.C,R40*%
X138057776Y-101877500D02*
X138567224Y-101877500D01*
X138057776Y-102922500D02*
X138567224Y-102922500D01*
%TO.C,C27*%
X149052793Y-84665902D02*
X149052793Y-84958436D01*
X150072793Y-84665902D02*
X150072793Y-84958436D01*
%TO.C,C3*%
X133754400Y-77272933D02*
X133754400Y-77565467D01*
X134774400Y-77272933D02*
X134774400Y-77565467D01*
%TO.C,R13*%
X158342224Y-86753500D02*
X157832776Y-86753500D01*
X158342224Y-87798500D02*
X157832776Y-87798500D01*
%TO.C,C33*%
X146946267Y-108990000D02*
X146653733Y-108990000D01*
X146946267Y-110010000D02*
X146653733Y-110010000D01*
%TO.C,C34*%
X142362500Y-103352500D02*
X143150000Y-103352500D01*
X142756250Y-102958750D02*
X142756250Y-103746250D01*
X143390000Y-102854437D02*
X143390000Y-104140000D01*
X143390000Y-102854437D02*
X144454437Y-101790000D01*
X143390000Y-107545563D02*
X143390000Y-106260000D01*
X143390000Y-107545563D02*
X144454437Y-108610000D01*
X144454437Y-101790000D02*
X150210000Y-101790000D01*
X144454437Y-108610000D02*
X150210000Y-108610000D01*
X150210000Y-101790000D02*
X150210000Y-104140000D01*
X150210000Y-108610000D02*
X150210000Y-106260000D01*
%TO.C,D36*%
X142340000Y-40150000D02*
X142340000Y-44450000D01*
X142340000Y-40150000D02*
X148150000Y-40150000D01*
X142340000Y-44450000D02*
X148150000Y-44450000D01*
%TO.C,C43*%
X136681500Y-142190005D02*
X136681500Y-144540005D01*
X136681500Y-149010005D02*
X136681500Y-146660005D01*
X142437063Y-142190005D02*
X136681500Y-142190005D01*
X142437063Y-149010005D02*
X136681500Y-149010005D01*
X143501500Y-143254442D02*
X142437063Y-142190005D01*
X143501500Y-143254442D02*
X143501500Y-144540005D01*
X143501500Y-147945568D02*
X142437063Y-149010005D01*
X143501500Y-147945568D02*
X143501500Y-146660005D01*
X144135250Y-147841255D02*
X144135250Y-147053755D01*
X144529000Y-147447505D02*
X143741500Y-147447505D01*
%TO.C,U2*%
D16*
X131314800Y-61667355D02*
X131314800Y-61858255D01*
X131314800Y-63369155D02*
X131314800Y-63178255D01*
X131314800Y-63369155D02*
X132610200Y-63369155D01*
X132610200Y-61667355D02*
X131314800Y-61667355D01*
X132610200Y-61858255D02*
X132610200Y-61667355D01*
X132610200Y-63369155D02*
X132610200Y-63178255D01*
X132267300Y-61667355D02*
G75*
G02*
X131657700Y-61667355I-304800J0D01*
G01*
D17*
X130256000Y-62018129D02*
G75*
G02*
X130255748Y-62018129I-126J0D01*
G01*
X130255748Y-62018129D02*
G75*
G02*
X130256000Y-62018129I126J0D01*
G01*
%TO.C,Q10*%
D15*
X155541500Y-141187500D02*
X155541500Y-142987500D01*
X158641500Y-142987500D02*
X158641500Y-141187500D01*
D14*
X158141500Y-139777500D02*
G75*
G02*
X157941500Y-139777500I-100000J0D01*
G01*
X157941500Y-139777500D02*
G75*
G02*
X158141500Y-139777500I100000J0D01*
G01*
%TO.C,R74*%
D13*
X134091955Y-59919250D02*
X134601403Y-59919250D01*
X134091955Y-60964250D02*
X134601403Y-60964250D01*
%TO.C,R54*%
X123480300Y-138049724D02*
X123480300Y-137540276D01*
X124525300Y-138049724D02*
X124525300Y-137540276D01*
%TO.C,D16*%
X128685000Y-131344400D02*
X123175000Y-131344400D01*
X128685000Y-134644400D02*
X123175000Y-134644400D01*
X128685000Y-134644400D02*
X128685000Y-131344400D01*
%TO.C,C47*%
X164533767Y-81066000D02*
X164241233Y-81066000D01*
X164533767Y-82086000D02*
X164241233Y-82086000D01*
%TO.C,D35*%
X105246895Y-63724454D02*
X105246895Y-65194454D01*
X105246895Y-65194454D02*
X107531895Y-65194454D01*
X107531895Y-63724454D02*
X105246895Y-63724454D01*
%TO.C,R36*%
X130224058Y-138125924D02*
X130224058Y-137616476D01*
X131269058Y-138125924D02*
X131269058Y-137616476D01*
%TO.C,D18*%
X161185000Y-131801600D02*
X155675000Y-131801600D01*
X161185000Y-135101600D02*
X155675000Y-135101600D01*
X161185000Y-135101600D02*
X161185000Y-131801600D01*
%TO.C,SW2*%
X95426600Y-88086000D02*
X95426600Y-94286000D01*
X95426600Y-88086000D02*
X95526600Y-88086000D01*
X95426600Y-94286000D02*
X95526600Y-94286000D01*
X100026600Y-88086000D02*
X97026600Y-88086000D01*
X100026600Y-94286000D02*
X97026600Y-94286000D01*
X101526600Y-94286000D02*
X101626600Y-94286000D01*
X101626600Y-88086000D02*
X101526600Y-88086000D01*
X101626600Y-88086000D02*
X101626600Y-94286000D01*
%TO.C,U8*%
D14*
X162938999Y-129348500D02*
X162938999Y-133412500D01*
X164551309Y-133412500D02*
X162938999Y-133412500D01*
X167551309Y-133412500D02*
X165498739Y-133412500D01*
X167637999Y-129348500D02*
X167637999Y-133258370D01*
D18*
X170685999Y-116492520D02*
X170685999Y-118934500D01*
X171567969Y-117537500D02*
X169923999Y-117537500D01*
D14*
X153224999Y-117537500D02*
G75*
G02*
X153326739Y-115978214I12000039J-14D01*
G01*
X153437078Y-115291410D02*
G75*
G02*
X154151974Y-112912788I11787860J-2246104D01*
G01*
X154539819Y-112076096D02*
G75*
G02*
X160042439Y-106714329I10685179J-5461408D01*
G01*
X158530037Y-127496289D02*
G75*
G02*
X153224994Y-117537500I6694961J9958795D01*
G01*
X160956826Y-106322211D02*
G75*
G02*
X167276346Y-105714135I4268172J-11215293D01*
G01*
X167721310Y-105800020D02*
G75*
G02*
X169184184Y-106209451I-2496372J-11737494D01*
G01*
X170369280Y-106696081D02*
G75*
G02*
X176630522Y-121267667I-5144282J-10841423D01*
G01*
X175043713Y-124436257D02*
G75*
G02*
X159319322Y-127983694I-9818714J6898758D01*
G01*
X176523429Y-121580455D02*
G75*
G02*
X175218645Y-124180317I-11298391J4042941D01*
G01*
%TO.C,L5*%
D13*
X122371900Y-60301141D02*
X123571900Y-60301141D01*
X122371900Y-65371141D02*
X122371900Y-60301141D01*
X123571900Y-65371141D02*
X122371900Y-65371141D01*
X126591900Y-60301141D02*
X127791900Y-60301141D01*
X127791900Y-60301141D02*
X127791900Y-65371141D01*
X127791900Y-65371141D02*
X126591900Y-65371141D01*
%TO.C,TP1*%
X173100000Y-80650000D02*
G75*
G02*
X171700000Y-80650000I-700000J0D01*
G01*
X171700000Y-80650000D02*
G75*
G02*
X173100000Y-80650000I700000J0D01*
G01*
%TO.C,R11*%
X166377500Y-81945276D02*
X166377500Y-82454724D01*
X167422500Y-81945276D02*
X167422500Y-82454724D01*
%TO.C,D15*%
X161415000Y-69518000D02*
X161415000Y-71978000D01*
X162885000Y-69518000D02*
X161415000Y-69518000D01*
X162885000Y-71978000D02*
X162885000Y-69518000D01*
%TO.C,R55*%
X162677500Y-138054724D02*
X162677500Y-137545276D01*
X163722500Y-138054724D02*
X163722500Y-137545276D01*
%TO.C,R37*%
X162484524Y-100290100D02*
X161975076Y-100290100D01*
X162484524Y-101335100D02*
X161975076Y-101335100D01*
%TO.C,C2*%
X130501248Y-72065000D02*
X131023752Y-72065000D01*
X130501248Y-73535000D02*
X131023752Y-73535000D01*
%TO.C,C22*%
X164241233Y-82590000D02*
X164533767Y-82590000D01*
X164241233Y-83610000D02*
X164533767Y-83610000D01*
%TO.C,R56*%
X160637500Y-138054724D02*
X160637500Y-137545276D01*
X161682500Y-138054724D02*
X161682500Y-137545276D01*
%TO.C,C58*%
X137857195Y-61566565D02*
X137564661Y-61566565D01*
X137857195Y-62586565D02*
X137564661Y-62586565D01*
%TO.C,C31*%
X179196267Y-109165000D02*
X178903733Y-109165000D01*
X179196267Y-110185000D02*
X178903733Y-110185000D01*
%TO.C,C60*%
X102738748Y-69865000D02*
X103261252Y-69865000D01*
X102738748Y-71335000D02*
X103261252Y-71335000D01*
%TO.C,R34*%
X181892225Y-83104780D02*
X181382777Y-83104780D01*
X181892225Y-84149780D02*
X181382777Y-84149780D01*
%TO.C,D8*%
X151065000Y-51472377D02*
X151065000Y-53932377D01*
X152535000Y-51472377D02*
X151065000Y-51472377D01*
X152535000Y-53932377D02*
X152535000Y-51472377D01*
%TO.C,R24*%
X157927500Y-46252653D02*
X157927500Y-46762101D01*
X158972500Y-46252653D02*
X158972500Y-46762101D01*
%TO.C,TP7*%
X184137499Y-65898000D02*
X185437499Y-65898000D01*
X185437499Y-67198000D01*
X184137499Y-67198000D01*
X184137499Y-65898000D01*
D14*
X183837499Y-66548000D02*
G75*
G02*
X183637499Y-66548000I-100000J0D01*
G01*
X183637499Y-66548000D02*
G75*
G02*
X183837499Y-66548000I100000J0D01*
G01*
%TO.C,C45*%
D13*
X168881500Y-141990005D02*
X168881500Y-144340005D01*
X168881500Y-148810005D02*
X168881500Y-146460005D01*
X174637063Y-141990005D02*
X168881500Y-141990005D01*
X174637063Y-148810005D02*
X168881500Y-148810005D01*
X175701500Y-143054442D02*
X174637063Y-141990005D01*
X175701500Y-143054442D02*
X175701500Y-144340005D01*
X175701500Y-147745568D02*
X174637063Y-148810005D01*
X175701500Y-147745568D02*
X175701500Y-146460005D01*
X176335250Y-147641255D02*
X176335250Y-146853755D01*
X176729000Y-147247505D02*
X175941500Y-147247505D01*
%TO.C,C29*%
X161640000Y-67765631D02*
X161640000Y-67473097D01*
X162660000Y-67765631D02*
X162660000Y-67473097D01*
%TO.C,R39*%
X170025276Y-101796418D02*
X170534724Y-101796418D01*
X170025276Y-102841418D02*
X170534724Y-102841418D01*
%TO.C,R76*%
X106329455Y-65593212D02*
X106838903Y-65593212D01*
X106329455Y-66638212D02*
X106838903Y-66638212D01*
%TO.C,U5*%
D15*
X143170000Y-82400000D02*
X143170000Y-83025000D01*
X143170000Y-82400000D02*
X143795000Y-82400000D01*
X143170000Y-87400000D02*
X143170000Y-86775000D01*
X143170000Y-87400000D02*
X143795000Y-87400000D01*
X147545000Y-82400000D02*
X148170000Y-82400000D01*
X148170000Y-82400000D02*
X148170000Y-83025000D01*
X148170000Y-87400000D02*
X147545000Y-87400000D01*
X148170000Y-87400000D02*
X148170000Y-86775000D01*
D14*
X144370000Y-82000000D02*
G75*
G02*
X144170000Y-82000000I-100000J0D01*
G01*
X144170000Y-82000000D02*
G75*
G02*
X144370000Y-82000000I100000J0D01*
G01*
%TO.C,D13*%
D13*
X168620000Y-100015000D02*
X168620000Y-101485000D01*
X168620000Y-101485000D02*
X171080000Y-101485000D01*
X171080000Y-100015000D02*
X168620000Y-100015000D01*
%TO.C,R25*%
X154592955Y-46252653D02*
X154592955Y-46762101D01*
X155637955Y-46252653D02*
X155637955Y-46762101D01*
%TO.C,U7*%
D17*
X149697800Y-67139400D02*
X149697800Y-71660600D01*
X149697800Y-71660600D02*
X149875600Y-71660600D01*
X149875600Y-67139400D02*
X149697800Y-67139400D01*
X159324400Y-71660600D02*
X159502200Y-71660600D01*
X159502200Y-67139400D02*
X159324400Y-67139400D01*
X159502200Y-69095200D02*
X159502200Y-67139400D01*
X159502200Y-69704800D02*
X159502200Y-69095200D01*
X159502200Y-71660600D02*
X159502200Y-69704800D01*
X159502200Y-69704800D02*
G75*
G02*
X159502200Y-69095200I0J304800D01*
G01*
D10*
X158846400Y-65450000D02*
G75*
G02*
X158786400Y-65450000I-30000J0D01*
G01*
X158786400Y-65450000D02*
G75*
G02*
X158846400Y-65450000I30000J0D01*
G01*
%TO.C,R60*%
D13*
X137456204Y-59919250D02*
X137965652Y-59919250D01*
X137456204Y-60964250D02*
X137965652Y-60964250D01*
%TO.C,C42*%
X126909042Y-138017467D02*
X126909042Y-137724933D01*
X127929042Y-138017467D02*
X127929042Y-137724933D01*
%TO.C,SW4*%
X108863200Y-88187600D02*
X108863200Y-94387600D01*
X108863200Y-88187600D02*
X108963200Y-88187600D01*
X108863200Y-94387600D02*
X108963200Y-94387600D01*
X113463200Y-88187600D02*
X110463200Y-88187600D01*
X113463200Y-94387600D02*
X110463200Y-94387600D01*
X114963200Y-94387600D02*
X115063200Y-94387600D01*
X115063200Y-88187600D02*
X114963200Y-88187600D01*
X115063200Y-88187600D02*
X115063200Y-94387600D01*
%TO.C,TP5*%
X184137499Y-74051400D02*
X185437499Y-74051400D01*
X185437499Y-75351400D01*
X184137499Y-75351400D01*
X184137499Y-74051400D01*
D14*
X183837499Y-74701400D02*
G75*
G02*
X183637499Y-74701400I-100000J0D01*
G01*
X183637499Y-74701400D02*
G75*
G02*
X183837499Y-74701400I100000J0D01*
G01*
%TO.C,R23*%
D13*
X148042100Y-72492324D02*
X148042100Y-71982876D01*
X149087100Y-72492324D02*
X149087100Y-71982876D01*
%TO.C,J18*%
X176090000Y-46110000D02*
X176090000Y-48610000D01*
X176090000Y-48610000D02*
X178590000Y-48610000D01*
X176390000Y-46000000D02*
X176890000Y-46000000D01*
X176390000Y-46810000D02*
X177390000Y-46810000D01*
X176890000Y-44790000D02*
X186110000Y-44790000D01*
X176890000Y-46000000D02*
X176890000Y-44790000D01*
X177390000Y-46810000D02*
X177390000Y-48310000D01*
X185610000Y-46810000D02*
X185610000Y-48310000D01*
X186110000Y-44790000D02*
X186110000Y-46000000D01*
X186110000Y-46000000D02*
X186610000Y-46000000D01*
X186610000Y-46810000D02*
X185610000Y-46810000D01*
X176390000Y-44290000D02*
X186610000Y-44290000D01*
X186610000Y-48310000D01*
X176390000Y-48310000D01*
X176390000Y-44290000D01*
%TO.C,C55*%
X137862974Y-74212565D02*
X137570440Y-74212565D01*
X137862974Y-75232565D02*
X137570440Y-75232565D01*
%TO.C,C44*%
X158798800Y-138017467D02*
X158798800Y-137724933D01*
X159818800Y-138017467D02*
X159818800Y-137724933D01*
%TO.C,D7*%
X154340000Y-51472377D02*
X154340000Y-53932377D01*
X155810000Y-51472377D02*
X154340000Y-51472377D01*
X155810000Y-53932377D02*
X155810000Y-51472377D01*
%TO.C,R44*%
X160127500Y-71432724D02*
X160127500Y-70923276D01*
X161172500Y-71432724D02*
X161172500Y-70923276D01*
%TO.C,R30*%
X181852224Y-74197886D02*
X181342776Y-74197886D01*
X181852224Y-75242886D02*
X181342776Y-75242886D01*
%TO.C,J9*%
X190140000Y-120715001D02*
X190140000Y-121765001D01*
X190140000Y-125885001D02*
X189150000Y-125885001D01*
X190140000Y-126935001D02*
X190140000Y-125885001D01*
X192640000Y-120715001D02*
X190140000Y-120715001D01*
X192640000Y-126935001D02*
X190140000Y-126935001D01*
X194610000Y-125765001D02*
X194610000Y-121885001D01*
%TO.C,C30*%
X160140000Y-67768267D02*
X160140000Y-67475733D01*
X161160000Y-67768267D02*
X161160000Y-67475733D01*
%TO.C,D33*%
X132995436Y-70700910D02*
X132995436Y-72170910D01*
X132995436Y-72170910D02*
X135280436Y-72170910D01*
X135280436Y-70700910D02*
X132995436Y-70700910D01*
%TO.C,L2*%
X94590000Y-65875000D02*
X95790000Y-65875000D01*
X94590000Y-70945000D02*
X94590000Y-65875000D01*
X95790000Y-70945000D02*
X94590000Y-70945000D01*
X98810000Y-65875000D02*
X100010000Y-65875000D01*
X100010000Y-65875000D02*
X100010000Y-70945000D01*
X100010000Y-70945000D02*
X98810000Y-70945000D01*
%TO.C,JP7*%
X191817800Y-82718400D02*
X194617800Y-82718400D01*
X191817800Y-84718400D02*
X191817800Y-82718400D01*
X194617800Y-82718400D02*
X194617800Y-84718400D01*
X194617800Y-84718400D02*
X191817800Y-84718400D01*
%TO.C,U3*%
D16*
X103552300Y-67359100D02*
X103552300Y-67550000D01*
X103552300Y-69060900D02*
X103552300Y-68870000D01*
X103552300Y-69060900D02*
X104847700Y-69060900D01*
X104847700Y-67359100D02*
X103552300Y-67359100D01*
X104847700Y-67550000D02*
X104847700Y-67359100D01*
X104847700Y-69060900D02*
X104847700Y-68870000D01*
X104504800Y-67359100D02*
G75*
G02*
X103895200Y-67359100I-304800J0D01*
G01*
D17*
X102493500Y-67709874D02*
G75*
G02*
X102493248Y-67709874I-126J0D01*
G01*
X102493248Y-67709874D02*
G75*
G02*
X102493500Y-67709874I126J0D01*
G01*
%TO.C,R26*%
D13*
X151277500Y-46252653D02*
X151277500Y-46762101D01*
X152322500Y-46252653D02*
X152322500Y-46762101D01*
%TO.C,R59*%
X155535100Y-138125924D02*
X155535100Y-137616476D01*
X156580100Y-138125924D02*
X156580100Y-137616476D01*
%TO.C,C53*%
X130501248Y-78929255D02*
X131023752Y-78929255D01*
X130501248Y-80399255D02*
X131023752Y-80399255D01*
%TO.C,U9*%
X123950000Y-150350000D02*
X123950000Y-164850010D01*
X123950001Y-150350000D02*
X123950001Y-164850010D01*
X136449999Y-150350000D02*
X123950000Y-150350000D01*
X136449999Y-150350000D02*
X136450000Y-160390249D01*
X136450000Y-150350000D02*
X123950001Y-150350000D01*
X136450000Y-150350000D02*
X136450001Y-160390249D01*
X136450000Y-150350000D02*
X143403001Y-150350000D01*
X136450000Y-161359700D02*
X136450000Y-164850010D01*
X136450000Y-164850010D02*
X123950000Y-164850010D01*
X136450001Y-161359700D02*
X136450001Y-164850010D01*
X136450001Y-164850010D02*
X123950001Y-164850010D01*
X143403001Y-157740000D02*
X143403001Y-150370000D01*
X143403001Y-157770000D02*
X136423002Y-157770000D01*
X123950000Y-150350000D02*
X136450000Y-150350000D01*
X136450000Y-164850000D01*
X123950000Y-164850000D01*
X123950000Y-150350000D01*
%TO.C,U11*%
D14*
X130663999Y-129348500D02*
X130663999Y-133412500D01*
X132276309Y-133412500D02*
X130663999Y-133412500D01*
X135276309Y-133412500D02*
X133223739Y-133412500D01*
X135362999Y-129348500D02*
X135362999Y-133258370D01*
D18*
X138410999Y-116492520D02*
X138410999Y-118934500D01*
X139292969Y-117537500D02*
X137648999Y-117537500D01*
D14*
X120949999Y-117537500D02*
G75*
G02*
X121051739Y-115978214I12000039J-14D01*
G01*
X121162078Y-115291410D02*
G75*
G02*
X121876974Y-112912788I11787860J-2246104D01*
G01*
X122264819Y-112076096D02*
G75*
G02*
X127767439Y-106714329I10685179J-5461408D01*
G01*
X126255037Y-127496289D02*
G75*
G02*
X120949994Y-117537500I6694961J9958795D01*
G01*
X128681826Y-106322211D02*
G75*
G02*
X135001346Y-105714135I4268172J-11215293D01*
G01*
X135446310Y-105800020D02*
G75*
G02*
X136909184Y-106209451I-2496372J-11737494D01*
G01*
X138094280Y-106696081D02*
G75*
G02*
X144355522Y-121267667I-5144282J-10841423D01*
G01*
X142768713Y-124436257D02*
G75*
G02*
X127044322Y-127983694I-9818714J6898758D01*
G01*
X144248429Y-121580455D02*
G75*
G02*
X142943645Y-124180317I-11298391J4042941D01*
G01*
%TO.C,SW3*%
D13*
X108751000Y-103786600D02*
X108751000Y-109986600D01*
X108751000Y-103786600D02*
X108851000Y-103786600D01*
X108751000Y-109986600D02*
X108851000Y-109986600D01*
X113351000Y-103786600D02*
X110351000Y-103786600D01*
X113351000Y-109986600D02*
X110351000Y-109986600D01*
X114851000Y-109986600D02*
X114951000Y-109986600D01*
X114951000Y-103786600D02*
X114851000Y-103786600D01*
X114951000Y-103786600D02*
X114951000Y-109986600D01*
%TO.C,TP9*%
X184177501Y-82898126D02*
X185477501Y-82898126D01*
X185477501Y-84198126D01*
X184177501Y-84198126D01*
X184177501Y-82898126D01*
D14*
X183877501Y-83548126D02*
G75*
G02*
X183677501Y-83548126I-100000J0D01*
G01*
X183677501Y-83548126D02*
G75*
G02*
X183877501Y-83548126I100000J0D01*
G01*
%TO.C,C28*%
D13*
X143341233Y-80590000D02*
X143633767Y-80590000D01*
X143341233Y-81610000D02*
X143633767Y-81610000D01*
%TO.C,U1*%
D16*
X131314800Y-74313355D02*
X131314800Y-74504255D01*
X131314800Y-76015155D02*
X131314800Y-75824255D01*
X131314800Y-76015155D02*
X132610200Y-76015155D01*
X132610200Y-74313355D02*
X131314800Y-74313355D01*
X132610200Y-74504255D02*
X132610200Y-74313355D01*
X132610200Y-76015155D02*
X132610200Y-75824255D01*
X132267300Y-74313355D02*
G75*
G02*
X131657700Y-74313355I-304800J0D01*
G01*
D17*
X130256000Y-74664129D02*
G75*
G02*
X130255748Y-74664129I-126J0D01*
G01*
X130255748Y-74664129D02*
G75*
G02*
X130256000Y-74664129I126J0D01*
G01*
%TO.C,D14*%
D13*
X136652500Y-100015000D02*
X136652500Y-101485000D01*
X136652500Y-101485000D02*
X139112500Y-101485000D01*
X139112500Y-100015000D02*
X136652500Y-100015000D01*
%TO.C,J3*%
X189315000Y-85940000D02*
X189315000Y-88440000D01*
X191115000Y-86240000D02*
X191115000Y-87240001D01*
X191115000Y-87240001D02*
X189615000Y-87240000D01*
X191115000Y-97960000D02*
X189615000Y-97960000D01*
X191115000Y-98960000D02*
X191115000Y-97960000D01*
X191815000Y-85940000D02*
X189315000Y-85940000D01*
X191925000Y-86240000D02*
X191925000Y-86740000D01*
X191925000Y-86740000D02*
X193135000Y-86740000D01*
X191925000Y-98460000D02*
X191925000Y-98960001D01*
X193135000Y-86740000D02*
X193135000Y-98460000D01*
X193135000Y-98460000D02*
X191925000Y-98460000D01*
X193635000Y-98960000D02*
X189615000Y-98960000D01*
X189615000Y-86240000D01*
X193635000Y-86240000D01*
X193635000Y-98960000D01*
%TO.C,R80*%
X140977500Y-53462742D02*
X140977500Y-53937258D01*
X142022500Y-53462742D02*
X142022500Y-53937258D01*
%TO.C,J1*%
X95315000Y-134435000D02*
X95315000Y-138315000D01*
X97285000Y-133265000D02*
X99785001Y-133265000D01*
X97285000Y-139485000D02*
X99785001Y-139485000D01*
X99785001Y-133265000D02*
X99785001Y-134315000D01*
X99785001Y-134315000D02*
X100775000Y-134315000D01*
X99785001Y-139485000D02*
X99785001Y-138435000D01*
%TO.C,C62*%
X110296267Y-67258310D02*
X110003733Y-67258310D01*
X110296267Y-68278310D02*
X110003733Y-68278310D01*
%TO.C,R10*%
X169712487Y-79449950D02*
X169203039Y-79449950D01*
X169712487Y-80494950D02*
X169203039Y-80494950D01*
%TO.C,R78*%
X138762742Y-45977500D02*
X139237258Y-45977500D01*
X138762742Y-47022500D02*
X139237258Y-47022500D01*
%TO.C,R1*%
X135266276Y-77649669D02*
X135266276Y-77140221D01*
X136311276Y-77649669D02*
X136311276Y-77140221D01*
%TO.C,C8*%
X130501248Y-57283255D02*
X131023752Y-57283255D01*
X130501248Y-58753255D02*
X131023752Y-58753255D01*
%TO.C,C15*%
X102738748Y-62975000D02*
X103261252Y-62975000D01*
X102738748Y-64445000D02*
X103261252Y-64445000D01*
%TO.C,C54*%
X130501248Y-64173255D02*
X131023752Y-64173255D01*
X130501248Y-65643255D02*
X131023752Y-65643255D01*
%TO.C,Q8*%
D15*
X123415100Y-141460005D02*
X123415100Y-143260005D01*
X126515100Y-143260005D02*
X126515100Y-141460005D01*
D14*
X126015100Y-140050005D02*
G75*
G02*
X125815100Y-140050005I-100000J0D01*
G01*
X125815100Y-140050005D02*
G75*
G02*
X126015100Y-140050005I100000J0D01*
G01*
%TO.C,C66*%
D13*
X143740000Y-46740580D02*
X143740000Y-46459420D01*
X144760000Y-46740580D02*
X144760000Y-46459420D01*
%TO.C,JP3*%
X191779999Y-73726800D02*
X194579999Y-73726800D01*
X191779999Y-75726800D02*
X191779999Y-73726800D01*
X194579999Y-73726800D02*
X194579999Y-75726800D01*
X194579999Y-75726800D02*
X191779999Y-75726800D01*
%TO.C,C61*%
X102738748Y-71975000D02*
X103261252Y-71975000D01*
X102738748Y-73445000D02*
X103261252Y-73445000D01*
%TO.C,C57*%
X130501248Y-66283255D02*
X131023752Y-66283255D01*
X130501248Y-67753255D02*
X131023752Y-67753255D01*
%TO.C,R73*%
X137461983Y-70900199D02*
X137971431Y-70900199D01*
X137461983Y-71945199D02*
X137971431Y-71945199D01*
%TO.C,C16*%
X102738748Y-65130712D02*
X103261252Y-65130712D01*
X102738748Y-66600712D02*
X103261252Y-66600712D01*
%TO.C,Q3*%
D15*
X165355000Y-102800000D02*
X167155000Y-102800000D01*
X167155000Y-99700000D02*
X165355000Y-99700000D01*
D14*
X164045000Y-100300000D02*
G75*
G02*
X163845000Y-100300000I-100000J0D01*
G01*
X163845000Y-100300000D02*
G75*
G02*
X164045000Y-100300000I100000J0D01*
G01*
%TO.C,F1*%
D13*
X121535000Y-41560000D02*
X125265000Y-41560000D01*
X125265000Y-54460000D01*
X121535000Y-54460000D01*
X121535000Y-41560000D01*
D14*
X123500000Y-54860000D02*
G75*
G02*
X123300000Y-54860000I-100000J0D01*
G01*
X123300000Y-54860000D02*
G75*
G02*
X123500000Y-54860000I100000J0D01*
G01*
%TO.C,R38*%
D13*
X130378924Y-100417100D02*
X129869476Y-100417100D01*
X130378924Y-101462100D02*
X129869476Y-101462100D01*
%TO.C,C1*%
X130501247Y-69929255D02*
X131023753Y-69929255D01*
X130501247Y-71399255D02*
X131023753Y-71399255D01*
%TD*%
M02*
