M48
; DRILL file KiCad 10.0.6 date 2026-10-09T11:04:39
; FORMAT={-:-/ absolute / metric / decimal}
; #@! TF.CreationDate,2026-10-09T11:04:39-05:00
; #@! TF.GenerationSoftware,Kicad,Pcbnew,10.0.6
; #@! TF.FileFunction,Plated,1,2,PTH
FMAT,2
METRIC
; #@! TA.AperFunction,Plated,PTH,ViaDrill
T1C0.300
; #@! TA.AperFunction,Plated,PTH,ComponentDrill
T2C0.500
; #@! TA.AperFunction,Plated,PTH,ComponentDrill
T3C0.800
; #@! TA.AperFunction,Plated,PTH,ComponentDrill
T4C0.950
; #@! TA.AperFunction,Plated,PTH,ComponentDrill
T5C1.000
; #@! TA.AperFunction,Plated,PTH,ComponentDrill
T6C1.500
; #@! TA.AperFunction,Plated,PTH,ComponentDrill
T7C3.500
; #@! TA.AperFunction,Plated,PTH,ComponentDrill
T8C4.000
%
G90
G05
T1
X92.2Y-129.45
X92.7Y-65.95
X92.7Y-66.95
X92.7Y-67.95
X95.9Y-60.9
X96.45Y-115.375
X97.175Y-99.65
X97.55Y-54.4
X98.625Y-137.9
X100.55Y-128.175
X100.55Y-129.175
X100.55Y-130.175
X101.067Y-98.806
X101.075Y-68.2
X101.3Y-124.325
X101.325Y-125.375
X101.643Y-67.127
X101.675Y-68.2
X102.275Y-67.075
X102.514Y-95.834
X102.875Y-67.075
X104.875Y-152.975
X105.05Y-54.6
X105.05Y-55.6
X105.05Y-56.6
X105.919Y-70.985
X105.919Y-71.585
X106.15Y-112.325
X106.525Y-92.15
X107.1Y-114.6
X107.1Y-115.6
X107.1Y-116.6
X107.2Y-93.158
X107.825Y-46.575
X109.315Y-70.99
X109.315Y-71.665
X110.95Y-82.4
X111.062Y-155.55
X111.15Y-139.475
X111.775Y-155.55
X112.0Y-82.4
X112.487Y-155.55
X113.2Y-155.55
X113.912Y-155.55
X114.2Y-84.95
X114.925Y-74.525
X122.775Y-91.725
X126.0Y-109.1
X126.025Y-109.9
X126.025Y-110.65
X127.325Y-40.325
X128.875Y-61.5
X129.07Y-75.2
X129.125Y-74.075
X129.235Y-103.378
X129.5Y-61.45
X129.5Y-62.625
X129.575Y-97.175
X129.7Y-75.2
X129.8Y-74.05
X130.1Y-61.45
X130.1Y-62.625
X130.1Y-121.4
X130.1Y-122.4
X130.1Y-123.4
X130.44Y-74.07
X131.625Y-142.55
X131.759Y-136.959
X132.7Y-84.025
X132.975Y-77.927
X133.0Y-78.627
X133.412Y-84.025
X133.604Y-65.405
X133.604Y-66.03
X134.125Y-84.025
X134.838Y-84.025
X135.0Y-138.4
X135.55Y-84.025
X135.8Y-138.4
X136.125Y-123.125
X136.6Y-138.4
X136.754Y-77.978
X136.754Y-78.653
X136.875Y-65.25
X136.9Y-66.0
X137.4Y-138.4
X137.5Y-48.4
X140.0Y-52.3
X140.275Y-160.825
X140.5Y-41.4
X140.8Y-46.5
X141.5Y-55.5
X141.8Y-70.7
X141.8Y-71.7
X141.8Y-72.7
X142.2Y-49.8
X142.291Y-87.833
X142.6Y-93.0
X142.625Y-82.685
X142.7Y-48.0
X143.0Y-55.8
X143.1Y-51.7
X144.7Y-55.8
X145.1Y-159.925
X145.3Y-45.825
X145.67Y-83.605
X145.796Y-79.756
X145.812Y-159.925
X145.9Y-91.008
X145.925Y-62.7
X146.4Y-51.3
X146.45Y-90.15
X146.525Y-159.925
X146.75Y-50.725
X146.812Y-78.74
X146.94Y-83.575
X147.237Y-159.925
X147.32Y-81.28
X147.828Y-77.724
X147.95Y-159.925
X148.0Y-92.6
X148.336Y-80.264
X148.675Y-95.825
X148.844Y-76.708
X149.05Y-91.8
X149.352Y-79.248
X149.5Y-42.3
X149.5Y-55.3
X149.75Y-52.5
X149.86Y-75.692
X150.3Y-50.0
X150.368Y-78.232
X150.5Y-79.95
X151.05Y-70.225
X151.213Y-79.95
X151.384Y-77.216
X151.925Y-79.95
X152.0Y-157.95
X152.15Y-69.15
X152.637Y-79.95
X153.0Y-84.475
X153.35Y-79.95
X154.931Y-63.088
X155.95Y-109.75
X155.95Y-110.75
X155.95Y-111.75
X155.975Y-63.5
X157.518Y-74.03
X157.525Y-76.3
X158.225Y-75.609
X158.375Y-77.15
X158.525Y-73.975
X158.525Y-82.225
X158.775Y-85.375
X158.8Y-86.2
X159.25Y-68.95
X159.25Y-69.9
X159.25Y-70.85
X160.325Y-77.15
X161.29Y-103.251
X161.95Y-77.175
X162.45Y-73.9
X163.525Y-44.75
X163.7Y-84.6
X163.725Y-85.4
X163.725Y-86.15
X163.75Y-73.9
X163.975Y-144.6
X164.312Y-136.887
X164.412Y-84.6
X164.438Y-85.4
X164.438Y-86.15
X165.125Y-84.6
X165.15Y-85.4
X165.15Y-86.15
X165.45Y-77.025
X165.525Y-70.775
X165.55Y-73.9
X165.75Y-108.2
X165.838Y-84.6
X165.862Y-85.4
X165.862Y-86.15
X166.55Y-84.6
X166.575Y-85.4
X166.575Y-86.15
X167.095Y-78.595
X167.375Y-77.05
X167.6Y-73.9
X167.6Y-138.0
X167.675Y-78.595
X168.4Y-138.0
X168.5Y-93.65
X168.545Y-78.595
X168.975Y-56.675
X169.2Y-138.0
X169.55Y-73.95
X170.0Y-138.0
X170.85Y-89.55
X171.125Y-51.375
X171.325Y-83.075
X171.5Y-74.45
X171.65Y-89.55
X171.838Y-51.375
X172.45Y-89.55
X172.55Y-51.375
X172.55Y-75.725
X172.875Y-67.625
X173.25Y-89.55
X173.262Y-51.375
X173.925Y-159.35
X173.975Y-51.375
X174.075Y-40.95
X174.45Y-83.075
X174.637Y-159.35
X174.9Y-86.65
X175.35Y-159.35
X175.775Y-87.475
X175.925Y-84.075
X176.062Y-159.35
X176.775Y-159.35
X177.35Y-88.925
X178.1Y-86.225
X179.7Y-91.225
X180.175Y-88.35
X180.75Y-49.75
X181.1Y-86.25
X181.3Y-98.025
X181.725Y-93.2
X182.925Y-90.975
X183.55Y-115.05
X184.525Y-92.325
X185.25Y-95.15
X185.275Y-144.7
X185.537Y-151.0
X185.562Y-151.8
X185.562Y-152.55
X185.85Y-97.1
X186.05Y-94.375
X186.25Y-68.55
X186.25Y-76.4
X186.4Y-58.4
X186.562Y-87.0
X186.699Y-124.331
X186.75Y-65.2
X186.775Y-71.8
X186.963Y-68.55
X186.963Y-76.4
X186.975Y-93.175
X187.112Y-58.4
X187.275Y-87.0
X187.675Y-68.55
X187.675Y-76.4
X187.725Y-81.0
X187.825Y-58.4
X187.987Y-87.0
X188.0Y-82.5
X188.387Y-68.55
X188.387Y-76.4
X188.4Y-99.65
X188.5Y-95.6
X188.525Y-64.5
X188.537Y-58.4
X188.7Y-87.0
X188.775Y-73.225
X189.1Y-68.55
X189.1Y-76.4
X189.15Y-72.2
X189.25Y-58.4
X189.412Y-87.0
X189.45Y-81.125
X189.65Y-129.55
X189.65Y-130.55
X189.65Y-131.55
X189.9Y-120.3
X189.925Y-64.175
X190.0Y-113.25
X190.0Y-117.5
X190.05Y-110.1
X190.3Y-102.25
X190.3Y-105.05
X190.3Y-107.4
X190.45Y-129.55
X190.45Y-130.55
X190.45Y-131.55
X190.5Y-139.7
X190.5Y-146.05
X191.275Y-124.325
X191.425Y-122.325
X192.2Y-99.6
X192.325Y-123.325
X193.2Y-108.1
X193.25Y-102.75
X193.3Y-105.9
X193.3Y-111.8
X193.35Y-114.8
X193.55Y-119.0
X195.05Y-109.225
T2
X146.085Y-88.726
X148.45Y-88.722
X184.787Y-66.548
X184.787Y-70.536
X184.787Y-74.701
X184.787Y-79.045
X184.787Y-62.145
X184.828Y-83.548
T4
X179.0Y-46.0
X181.5Y-46.0
X184.0Y-46.0
X191.925Y-88.85
X191.925Y-91.35
X191.925Y-93.85
X191.925Y-96.35
T5
X141.253Y-152.79
X141.253Y-155.29
X173.453Y-152.79
X173.453Y-155.29
T6
X111.488Y-51.198
T7
X95.2Y-44.6
X95.2Y-159.0
X192.4Y-44.6
X192.4Y-159.0
T8
X123.83Y-117.537
X142.07Y-117.537
X156.105Y-117.537
X174.345Y-117.537
T3
X106.638Y-45.298G85X106.638Y-44.098
G05
X106.638Y-49.998G85X106.638Y-48.798
G05
X112.588Y-45.198G85X110.388Y-45.198
G05
X116.338Y-45.298G85X116.338Y-44.098
G05
X116.338Y-49.998G85X116.338Y-48.798
G05
M30
