%TF.GenerationSoftware,KiCad,Pcbnew,10.0.3*%
%TF.CreationDate,2026-09-28T13:48:06+07:00*%
%TF.ProjectId,1,312e6b69-6361-4645-9f70-636258585858,rev?*%
%TF.SameCoordinates,Original*%
%TF.FileFunction,Drillmap*%
%TF.FilePolarity,Positive*%
%FSLAX45Y45*%
G04 Gerber Fmt 4.5, Leading zero omitted, Abs format (unit mm)*
G04 Created by KiCad (PCBNEW 10.0.3) date 2026-09-28 13:48:06*
%MOMM*%
%LPD*%
G01*
G04 APERTURE LIST*
%ADD10C,0.050000*%
%ADD11C,0.200000*%
%ADD12C,0.100000*%
%ADD13C,0.150000*%
%ADD14C,0.350000*%
%ADD15C,0.400000*%
G04 APERTURE END LIST*
D10*
X8920000Y-4260000D02*
X8920000Y-4260000D01*
G75*
G02*
X9320000Y-3860000I400000J0D01*
G01*
X19420000Y-3860000D01*
G75*
G02*
X19820000Y-4260000I0J-400000D01*
G01*
X19820000Y-16100000D01*
G75*
G02*
X19420000Y-16500000I-400000J0D01*
G01*
X9320000Y-16500000D01*
G75*
G02*
X8920000Y-16100000I0J400000D01*
G01*
X8920000Y-4260000D01*
D11*
D12*
X9205000Y-12930000D02*
X9235000Y-12960000D01*
X9235000Y-12930000D02*
X9205000Y-12960000D01*
X9255000Y-6580000D02*
X9285000Y-6610000D01*
X9285000Y-6580000D02*
X9255000Y-6610000D01*
X9255000Y-6680000D02*
X9285000Y-6710000D01*
X9285000Y-6680000D02*
X9255000Y-6710000D01*
X9255000Y-6780000D02*
X9285000Y-6810000D01*
X9285000Y-6780000D02*
X9255000Y-6810000D01*
X9575000Y-6075000D02*
X9605000Y-6105000D01*
X9605000Y-6075000D02*
X9575000Y-6105000D01*
X9630000Y-11522500D02*
X9660000Y-11552500D01*
X9660000Y-11522500D02*
X9630000Y-11552500D01*
X9702500Y-9950000D02*
X9732500Y-9980000D01*
X9732500Y-9950000D02*
X9702500Y-9980000D01*
X9740000Y-5425000D02*
X9770000Y-5455000D01*
X9770000Y-5425000D02*
X9740000Y-5455000D01*
X9847500Y-13775000D02*
X9877500Y-13805000D01*
X9877500Y-13775000D02*
X9847500Y-13805000D01*
X10040000Y-12802500D02*
X10070000Y-12832500D01*
X10070000Y-12802500D02*
X10040000Y-12832500D01*
X10040000Y-12902500D02*
X10070000Y-12932500D01*
X10070000Y-12902500D02*
X10040000Y-12932500D01*
X10040000Y-13002500D02*
X10070000Y-13032500D01*
X10070000Y-13002500D02*
X10040000Y-13032500D01*
X10091660Y-9865600D02*
X10121660Y-9895600D01*
X10121660Y-9865600D02*
X10091660Y-9895600D01*
X10092500Y-6805000D02*
X10122500Y-6835000D01*
X10122500Y-6805000D02*
X10092500Y-6835000D01*
X10115000Y-12417500D02*
X10145000Y-12447500D01*
X10145000Y-12417500D02*
X10115000Y-12447500D01*
X10117500Y-12522500D02*
X10147500Y-12552500D01*
X10147500Y-12522500D02*
X10117500Y-12552500D01*
X10149254Y-6697715D02*
X10179254Y-6727715D01*
X10179254Y-6697715D02*
X10149254Y-6727715D01*
X10152500Y-6805000D02*
X10182500Y-6835000D01*
X10182500Y-6805000D02*
X10152500Y-6835000D01*
X10212500Y-6692500D02*
X10242500Y-6722500D01*
X10242500Y-6692500D02*
X10212500Y-6722500D01*
X10236440Y-9568420D02*
X10266440Y-9598420D01*
X10266440Y-9568420D02*
X10236440Y-9598420D01*
X10272500Y-6692500D02*
X10302500Y-6722500D01*
X10302500Y-6692500D02*
X10272500Y-6722500D01*
X10472500Y-15282500D02*
X10502500Y-15312500D01*
X10502500Y-15282500D02*
X10472500Y-15312500D01*
X10490000Y-5445000D02*
X10520000Y-5475000D01*
X10520000Y-5445000D02*
X10490000Y-5475000D01*
X10490000Y-5545000D02*
X10520000Y-5575000D01*
X10520000Y-5545000D02*
X10490000Y-5575000D01*
X10490000Y-5645000D02*
X10520000Y-5675000D01*
X10520000Y-5645000D02*
X10490000Y-5675000D01*
X10576877Y-7083480D02*
X10606877Y-7113480D01*
X10606877Y-7083480D02*
X10576877Y-7113480D01*
X10576877Y-7143480D02*
X10606877Y-7173480D01*
X10606877Y-7143480D02*
X10576877Y-7173480D01*
X10600000Y-11217500D02*
X10630000Y-11247500D01*
X10630000Y-11217500D02*
X10600000Y-11247500D01*
X10637500Y-9200000D02*
X10667500Y-9230000D01*
X10667500Y-9200000D02*
X10637500Y-9230000D01*
X10695000Y-11445000D02*
X10725000Y-11475000D01*
X10725000Y-11445000D02*
X10695000Y-11475000D01*
X10695000Y-11545000D02*
X10725000Y-11575000D01*
X10725000Y-11545000D02*
X10695000Y-11575000D01*
X10695000Y-11645000D02*
X10725000Y-11675000D01*
X10725000Y-11645000D02*
X10695000Y-11675000D01*
X10705004Y-9300776D02*
X10735004Y-9330776D01*
X10735004Y-9300776D02*
X10705004Y-9330776D01*
X10767500Y-4642500D02*
X10797500Y-4672500D01*
X10797500Y-4642500D02*
X10767500Y-4672500D01*
X10916524Y-7084020D02*
X10946524Y-7114020D01*
X10946524Y-7084020D02*
X10916524Y-7114020D01*
X10916524Y-7151520D02*
X10946524Y-7181520D01*
X10946524Y-7151520D02*
X10916524Y-7181520D01*
X11080000Y-8225000D02*
X11110000Y-8255000D01*
X11110000Y-8225000D02*
X11080000Y-8255000D01*
X11091250Y-15540000D02*
X11121250Y-15570000D01*
X11121250Y-15540000D02*
X11091250Y-15570000D01*
X11100000Y-13932500D02*
X11130000Y-13962500D01*
X11130000Y-13932500D02*
X11100000Y-13962500D01*
X11162500Y-15540000D02*
X11192500Y-15570000D01*
X11192500Y-15540000D02*
X11162500Y-15570000D01*
X11185000Y-8225000D02*
X11215000Y-8255000D01*
X11215000Y-8225000D02*
X11185000Y-8255000D01*
X11233750Y-15540000D02*
X11263750Y-15570000D01*
X11263750Y-15540000D02*
X11233750Y-15570000D01*
X11305000Y-15540000D02*
X11335000Y-15570000D01*
X11335000Y-15540000D02*
X11305000Y-15570000D01*
X11376250Y-15540000D02*
X11406250Y-15570000D01*
X11406250Y-15540000D02*
X11376250Y-15570000D01*
X11405000Y-8480000D02*
X11435000Y-8510000D01*
X11435000Y-8480000D02*
X11405000Y-8510000D01*
X11477500Y-7437500D02*
X11507500Y-7467500D01*
X11507500Y-7437500D02*
X11477500Y-7467500D01*
X12262500Y-9157500D02*
X12292500Y-9187500D01*
X12292500Y-9157500D02*
X12262500Y-9187500D01*
X12585000Y-10895000D02*
X12615000Y-10925000D01*
X12615000Y-10895000D02*
X12585000Y-10925000D01*
X12587500Y-10975000D02*
X12617500Y-11005000D01*
X12617500Y-10975000D02*
X12587500Y-11005000D01*
X12587500Y-11050000D02*
X12617500Y-11080000D01*
X12617500Y-11050000D02*
X12587500Y-11080000D01*
X12717500Y-4017500D02*
X12747500Y-4047500D01*
X12747500Y-4017500D02*
X12717500Y-4047500D01*
X12872500Y-6135000D02*
X12902500Y-6165000D01*
X12902500Y-6135000D02*
X12872500Y-6165000D01*
X12892000Y-7505000D02*
X12922000Y-7535000D01*
X12922000Y-7505000D02*
X12892000Y-7535000D01*
X12897500Y-7392500D02*
X12927500Y-7422500D01*
X12927500Y-7392500D02*
X12897500Y-7422500D01*
X12908520Y-10322800D02*
X12938520Y-10352800D01*
X12938520Y-10322800D02*
X12908520Y-10352800D01*
X12935000Y-6130000D02*
X12965000Y-6160000D01*
X12965000Y-6130000D02*
X12935000Y-6160000D01*
X12935000Y-6247500D02*
X12965000Y-6277500D01*
X12965000Y-6247500D02*
X12935000Y-6277500D01*
X12942500Y-9702500D02*
X12972500Y-9732500D01*
X12972500Y-9702500D02*
X12942500Y-9732500D01*
X12955000Y-7505000D02*
X12985000Y-7535000D01*
X12985000Y-7505000D02*
X12955000Y-7535000D01*
X12965000Y-7390000D02*
X12995000Y-7420000D01*
X12995000Y-7390000D02*
X12965000Y-7420000D01*
X12995000Y-6130000D02*
X13025000Y-6160000D01*
X13025000Y-6130000D02*
X12995000Y-6160000D01*
X12995000Y-6247500D02*
X13025000Y-6277500D01*
X13025000Y-6247500D02*
X12995000Y-6277500D01*
X12995000Y-12125000D02*
X13025000Y-12155000D01*
X13025000Y-12125000D02*
X12995000Y-12155000D01*
X12995000Y-12225000D02*
X13025000Y-12255000D01*
X13025000Y-12225000D02*
X12995000Y-12255000D01*
X12995000Y-12325000D02*
X13025000Y-12355000D01*
X13025000Y-12325000D02*
X12995000Y-12355000D01*
X13029000Y-7392000D02*
X13059000Y-7422000D01*
X13059000Y-7392000D02*
X13029000Y-7422000D01*
X13147500Y-14240000D02*
X13177500Y-14270000D01*
X13177500Y-14240000D02*
X13147500Y-14270000D01*
X13160870Y-13680870D02*
X13190870Y-13710870D01*
X13190870Y-13680870D02*
X13160870Y-13710870D01*
X13255000Y-8387500D02*
X13285000Y-8417500D01*
X13285000Y-8387500D02*
X13255000Y-8417500D01*
X13282500Y-7777720D02*
X13312500Y-7807720D01*
X13312500Y-7777720D02*
X13282500Y-7807720D01*
X13285000Y-7847720D02*
X13315000Y-7877720D01*
X13315000Y-7847720D02*
X13285000Y-7877720D01*
X13326250Y-8387500D02*
X13356250Y-8417500D01*
X13356250Y-8387500D02*
X13326250Y-8417500D01*
X13345400Y-6525500D02*
X13375400Y-6555500D01*
X13375400Y-6525500D02*
X13345400Y-6555500D01*
X13345400Y-6588000D02*
X13375400Y-6618000D01*
X13375400Y-6588000D02*
X13345400Y-6618000D01*
X13397500Y-8387500D02*
X13427500Y-8417500D01*
X13427500Y-8387500D02*
X13397500Y-8417500D01*
X13468750Y-8387500D02*
X13498750Y-8417500D01*
X13498750Y-8387500D02*
X13468750Y-8417500D01*
X13485000Y-13825000D02*
X13515000Y-13855000D01*
X13515000Y-13825000D02*
X13485000Y-13855000D01*
X13540000Y-8387500D02*
X13570000Y-8417500D01*
X13570000Y-8387500D02*
X13540000Y-8417500D01*
X13565000Y-13825000D02*
X13595000Y-13855000D01*
X13595000Y-13825000D02*
X13565000Y-13855000D01*
X13597500Y-12297500D02*
X13627500Y-12327500D01*
X13627500Y-12297500D02*
X13597500Y-12327500D01*
X13645000Y-13825000D02*
X13675000Y-13855000D01*
X13675000Y-13825000D02*
X13645000Y-13855000D01*
X13660360Y-7782800D02*
X13690360Y-7812800D01*
X13690360Y-7782800D02*
X13660360Y-7812800D01*
X13660360Y-7850300D02*
X13690360Y-7880300D01*
X13690360Y-7850300D02*
X13660360Y-7880300D01*
X13672500Y-6510000D02*
X13702500Y-6540000D01*
X13702500Y-6510000D02*
X13672500Y-6540000D01*
X13675000Y-6585000D02*
X13705000Y-6615000D01*
X13705000Y-6585000D02*
X13675000Y-6615000D01*
X13725000Y-13825000D02*
X13755000Y-13855000D01*
X13755000Y-13825000D02*
X13725000Y-13855000D01*
X14012500Y-16067500D02*
X14042500Y-16097500D01*
X14042500Y-16067500D02*
X14012500Y-16097500D01*
X14165000Y-7055000D02*
X14195000Y-7085000D01*
X14195000Y-7055000D02*
X14165000Y-7085000D01*
X14165000Y-7155000D02*
X14195000Y-7185000D01*
X14195000Y-7155000D02*
X14165000Y-7185000D01*
X14165000Y-7255000D02*
X14195000Y-7285000D01*
X14195000Y-7255000D02*
X14165000Y-7285000D01*
X14214080Y-8768320D02*
X14244080Y-8798320D01*
X14244080Y-8768320D02*
X14214080Y-8798320D01*
X14245000Y-9285000D02*
X14275000Y-9315000D01*
X14275000Y-9285000D02*
X14245000Y-9315000D01*
X14247500Y-8253500D02*
X14277500Y-8283500D01*
X14277500Y-8253500D02*
X14247500Y-8283500D01*
X14495000Y-15977500D02*
X14525000Y-16007500D01*
X14525000Y-15977500D02*
X14495000Y-16007500D01*
X14552000Y-8345500D02*
X14582000Y-8375500D01*
X14582000Y-8345500D02*
X14552000Y-8375500D01*
X14564600Y-7960600D02*
X14594600Y-7990600D01*
X14594600Y-7960600D02*
X14564600Y-7990600D01*
X14566250Y-15977500D02*
X14596250Y-16007500D01*
X14596250Y-15977500D02*
X14566250Y-16007500D01*
X14575000Y-9085820D02*
X14605000Y-9115820D01*
X14605000Y-9085820D02*
X14575000Y-9115820D01*
X14577500Y-6255000D02*
X14607500Y-6285000D01*
X14607500Y-6255000D02*
X14577500Y-6285000D01*
X14625000Y-5115000D02*
X14655000Y-5145000D01*
X14655000Y-5115000D02*
X14625000Y-5145000D01*
X14630000Y-9000000D02*
X14660000Y-9030000D01*
X14660000Y-9000000D02*
X14630000Y-9030000D01*
X14637500Y-15977500D02*
X14667500Y-16007500D01*
X14667500Y-15977500D02*
X14637500Y-16007500D01*
X14666200Y-7859000D02*
X14696200Y-7889000D01*
X14696200Y-7859000D02*
X14666200Y-7889000D01*
X14679000Y-8342500D02*
X14709000Y-8372500D01*
X14709000Y-8342500D02*
X14679000Y-8372500D01*
X14708750Y-15977500D02*
X14738750Y-16007500D01*
X14738750Y-15977500D02*
X14708750Y-16007500D01*
X14717000Y-8113000D02*
X14747000Y-8143000D01*
X14747000Y-8113000D02*
X14717000Y-8143000D01*
X14767800Y-7757400D02*
X14797800Y-7787400D01*
X14797800Y-7757400D02*
X14767800Y-7787400D01*
X14780000Y-15977500D02*
X14810000Y-16007500D01*
X14810000Y-15977500D02*
X14780000Y-16007500D01*
X14785000Y-9245000D02*
X14815000Y-9275000D01*
X14815000Y-9245000D02*
X14785000Y-9275000D01*
X14818600Y-8011400D02*
X14848600Y-8041400D01*
X14848600Y-8011400D02*
X14818600Y-8041400D01*
X14852500Y-9567500D02*
X14882500Y-9597500D01*
X14882500Y-9567500D02*
X14852500Y-9597500D01*
X14869400Y-7655800D02*
X14899400Y-7685800D01*
X14899400Y-7655800D02*
X14869400Y-7685800D01*
X14890000Y-9165000D02*
X14920000Y-9195000D01*
X14920000Y-9165000D02*
X14890000Y-9195000D01*
X14920200Y-7909800D02*
X14950200Y-7939800D01*
X14950200Y-7909800D02*
X14920200Y-7939800D01*
X14971000Y-7554200D02*
X15001000Y-7584200D01*
X15001000Y-7554200D02*
X14971000Y-7584200D01*
X15021800Y-7808200D02*
X15051800Y-7838200D01*
X15051800Y-7808200D02*
X15021800Y-7838200D01*
X15035000Y-7980000D02*
X15065000Y-8010000D01*
X15065000Y-7980000D02*
X15035000Y-8010000D01*
X15090000Y-7007500D02*
X15120000Y-7037500D01*
X15120000Y-7007500D02*
X15090000Y-7037500D01*
X15106250Y-7980000D02*
X15136250Y-8010000D01*
X15136250Y-7980000D02*
X15106250Y-8010000D01*
X15123400Y-7706600D02*
X15153400Y-7736600D01*
X15153400Y-7706600D02*
X15123400Y-7736600D01*
X15177500Y-7980000D02*
X15207500Y-8010000D01*
X15207500Y-7980000D02*
X15177500Y-8010000D01*
X15185000Y-15780000D02*
X15215000Y-15810000D01*
X15215000Y-15780000D02*
X15185000Y-15810000D01*
X15200000Y-6900000D02*
X15230000Y-6930000D01*
X15230000Y-6900000D02*
X15200000Y-6930000D01*
X15248750Y-7980000D02*
X15278750Y-8010000D01*
X15278750Y-7980000D02*
X15248750Y-8010000D01*
X15285000Y-8432500D02*
X15315000Y-8462500D01*
X15315000Y-8432500D02*
X15285000Y-8462500D01*
X15320000Y-7980000D02*
X15350000Y-8010000D01*
X15350000Y-7980000D02*
X15320000Y-8010000D01*
X15478125Y-6293750D02*
X15508125Y-6323750D01*
X15508125Y-6293750D02*
X15478125Y-6323750D01*
X15580000Y-10960000D02*
X15610000Y-10990000D01*
X15610000Y-10960000D02*
X15580000Y-10990000D01*
X15580000Y-11060000D02*
X15610000Y-11090000D01*
X15610000Y-11060000D02*
X15580000Y-11090000D01*
X15580000Y-11160000D02*
X15610000Y-11190000D01*
X15610000Y-11160000D02*
X15580000Y-11190000D01*
X15582500Y-6335000D02*
X15612500Y-6365000D01*
X15612500Y-6335000D02*
X15582500Y-6365000D01*
X15736795Y-7388008D02*
X15766795Y-7418008D01*
X15766795Y-7388008D02*
X15736795Y-7418008D01*
X15737500Y-7615000D02*
X15767500Y-7645000D01*
X15767500Y-7615000D02*
X15737500Y-7645000D01*
X15807500Y-7545880D02*
X15837500Y-7575880D01*
X15837500Y-7545880D02*
X15807500Y-7575880D01*
X15822500Y-7700000D02*
X15852500Y-7730000D01*
X15852500Y-7700000D02*
X15822500Y-7730000D01*
X15837500Y-7382500D02*
X15867500Y-7412500D01*
X15867500Y-7382500D02*
X15837500Y-7412500D01*
X15837500Y-8207500D02*
X15867500Y-8237500D01*
X15867500Y-8207500D02*
X15837500Y-8237500D01*
X15862500Y-8522500D02*
X15892500Y-8552500D01*
X15892500Y-8522500D02*
X15862500Y-8552500D01*
X15865000Y-8605000D02*
X15895000Y-8635000D01*
X15895000Y-8605000D02*
X15865000Y-8635000D01*
X15910000Y-6880000D02*
X15940000Y-6910000D01*
X15940000Y-6880000D02*
X15910000Y-6910000D01*
X15910000Y-6975000D02*
X15940000Y-7005000D01*
X15940000Y-6975000D02*
X15910000Y-7005000D01*
X15910000Y-7070000D02*
X15940000Y-7100000D01*
X15940000Y-7070000D02*
X15910000Y-7100000D01*
X16017500Y-7700000D02*
X16047500Y-7730000D01*
X16047500Y-7700000D02*
X16017500Y-7730000D01*
X16114000Y-10310100D02*
X16144000Y-10340100D01*
X16144000Y-10310100D02*
X16114000Y-10340100D01*
X16180000Y-7702500D02*
X16210000Y-7732500D01*
X16210000Y-7702500D02*
X16180000Y-7732500D01*
X16230000Y-7375000D02*
X16260000Y-7405000D01*
X16260000Y-7375000D02*
X16230000Y-7405000D01*
X16337500Y-4460000D02*
X16367500Y-4490000D01*
X16367500Y-4460000D02*
X16337500Y-4490000D01*
X16355000Y-8445000D02*
X16385000Y-8475000D01*
X16385000Y-8445000D02*
X16355000Y-8475000D01*
X16357500Y-8525000D02*
X16387500Y-8555000D01*
X16387500Y-8525000D02*
X16357500Y-8555000D01*
X16357500Y-8600000D02*
X16387500Y-8630000D01*
X16387500Y-8600000D02*
X16357500Y-8630000D01*
X16360000Y-7375000D02*
X16390000Y-7405000D01*
X16390000Y-7375000D02*
X16360000Y-7405000D01*
X16382500Y-14445000D02*
X16412500Y-14475000D01*
X16412500Y-14445000D02*
X16382500Y-14475000D01*
X16416250Y-13673750D02*
X16446250Y-13703750D01*
X16446250Y-13673750D02*
X16416250Y-13703750D01*
X16426250Y-8445000D02*
X16456250Y-8475000D01*
X16456250Y-8445000D02*
X16426250Y-8475000D01*
X16428750Y-8525000D02*
X16458750Y-8555000D01*
X16458750Y-8525000D02*
X16428750Y-8555000D01*
X16428750Y-8600000D02*
X16458750Y-8630000D01*
X16458750Y-8600000D02*
X16428750Y-8630000D01*
X16497500Y-8445000D02*
X16527500Y-8475000D01*
X16527500Y-8445000D02*
X16497500Y-8475000D01*
X16500000Y-8525000D02*
X16530000Y-8555000D01*
X16530000Y-8525000D02*
X16500000Y-8555000D01*
X16500000Y-8600000D02*
X16530000Y-8630000D01*
X16530000Y-8600000D02*
X16500000Y-8630000D01*
X16530000Y-7687500D02*
X16560000Y-7717500D01*
X16560000Y-7687500D02*
X16530000Y-7717500D01*
X16537500Y-7062500D02*
X16567500Y-7092500D01*
X16567500Y-7062500D02*
X16537500Y-7092500D01*
X16540000Y-7375000D02*
X16570000Y-7405000D01*
X16570000Y-7375000D02*
X16540000Y-7405000D01*
X16560000Y-10805000D02*
X16590000Y-10835000D01*
X16590000Y-10805000D02*
X16560000Y-10835000D01*
X16568750Y-8445000D02*
X16598750Y-8475000D01*
X16598750Y-8445000D02*
X16568750Y-8475000D01*
X16571250Y-8525000D02*
X16601250Y-8555000D01*
X16601250Y-8525000D02*
X16571250Y-8555000D01*
X16571250Y-8600000D02*
X16601250Y-8630000D01*
X16601250Y-8600000D02*
X16571250Y-8630000D01*
X16640000Y-8445000D02*
X16670000Y-8475000D01*
X16670000Y-8445000D02*
X16640000Y-8475000D01*
X16642500Y-8525000D02*
X16672500Y-8555000D01*
X16672500Y-8525000D02*
X16642500Y-8555000D01*
X16642500Y-8600000D02*
X16672500Y-8630000D01*
X16672500Y-8600000D02*
X16642500Y-8630000D01*
X16694526Y-7844526D02*
X16724526Y-7874526D01*
X16724526Y-7844526D02*
X16694526Y-7874526D01*
X16722500Y-7690000D02*
X16752500Y-7720000D01*
X16752500Y-7690000D02*
X16722500Y-7720000D01*
X16745000Y-7375000D02*
X16775000Y-7405000D01*
X16775000Y-7375000D02*
X16745000Y-7405000D01*
X16745000Y-13785000D02*
X16775000Y-13815000D01*
X16775000Y-13785000D02*
X16745000Y-13815000D01*
X16752500Y-7844526D02*
X16782500Y-7874526D01*
X16782500Y-7844526D02*
X16752500Y-7874526D01*
X16825000Y-13785000D02*
X16855000Y-13815000D01*
X16855000Y-13785000D02*
X16825000Y-13815000D01*
X16835000Y-9350000D02*
X16865000Y-9380000D01*
X16865000Y-9350000D02*
X16835000Y-9380000D01*
X16839526Y-7844526D02*
X16869526Y-7874526D01*
X16869526Y-7844526D02*
X16839526Y-7874526D01*
X16882500Y-5652500D02*
X16912500Y-5682500D01*
X16912500Y-5652500D02*
X16882500Y-5682500D01*
X16905000Y-13785000D02*
X16935000Y-13815000D01*
X16935000Y-13785000D02*
X16905000Y-13815000D01*
X16940000Y-7380000D02*
X16970000Y-7410000D01*
X16970000Y-7380000D02*
X16940000Y-7410000D01*
X16985000Y-13785000D02*
X17015000Y-13815000D01*
X17015000Y-13785000D02*
X16985000Y-13815000D01*
X17070000Y-8940000D02*
X17100000Y-8970000D01*
X17100000Y-8940000D02*
X17070000Y-8970000D01*
X17097500Y-5122500D02*
X17127500Y-5152500D01*
X17127500Y-5122500D02*
X17097500Y-5152500D01*
X17117500Y-8292500D02*
X17147500Y-8322500D01*
X17147500Y-8292500D02*
X17117500Y-8322500D01*
X17135000Y-7430000D02*
X17165000Y-7460000D01*
X17165000Y-7430000D02*
X17135000Y-7460000D01*
X17150000Y-8940000D02*
X17180000Y-8970000D01*
X17180000Y-8940000D02*
X17150000Y-8970000D01*
X17168750Y-5122500D02*
X17198750Y-5152500D01*
X17198750Y-5122500D02*
X17168750Y-5152500D01*
X17230000Y-8940000D02*
X17260000Y-8970000D01*
X17260000Y-8940000D02*
X17230000Y-8970000D01*
X17240000Y-5122500D02*
X17270000Y-5152500D01*
X17270000Y-5122500D02*
X17240000Y-5152500D01*
X17240000Y-7557500D02*
X17270000Y-7587500D01*
X17270000Y-7557500D02*
X17240000Y-7587500D01*
X17272500Y-6747500D02*
X17302500Y-6777500D01*
X17302500Y-6747500D02*
X17272500Y-6777500D01*
X17310000Y-8940000D02*
X17340000Y-8970000D01*
X17340000Y-8940000D02*
X17310000Y-8970000D01*
X17311250Y-5122500D02*
X17341250Y-5152500D01*
X17341250Y-5122500D02*
X17311250Y-5152500D01*
X17377500Y-15920000D02*
X17407500Y-15950000D01*
X17407500Y-15920000D02*
X17377500Y-15950000D01*
X17382500Y-5122500D02*
X17412500Y-5152500D01*
X17412500Y-5122500D02*
X17382500Y-5152500D01*
X17392500Y-4080000D02*
X17422500Y-4110000D01*
X17422500Y-4080000D02*
X17392500Y-4110000D01*
X17430000Y-8292500D02*
X17460000Y-8322500D01*
X17460000Y-8292500D02*
X17430000Y-8322500D01*
X17448750Y-15920000D02*
X17478750Y-15950000D01*
X17478750Y-15920000D02*
X17448750Y-15950000D01*
X17475000Y-8650000D02*
X17505000Y-8680000D01*
X17505000Y-8650000D02*
X17475000Y-8680000D01*
X17520000Y-15920000D02*
X17550000Y-15950000D01*
X17550000Y-15920000D02*
X17520000Y-15950000D01*
X17562500Y-8732500D02*
X17592500Y-8762500D01*
X17592500Y-8732500D02*
X17562500Y-8762500D01*
X17577500Y-8392500D02*
X17607500Y-8422500D01*
X17607500Y-8392500D02*
X17577500Y-8422500D01*
X17591250Y-15920000D02*
X17621250Y-15950000D01*
X17621250Y-15920000D02*
X17591250Y-15950000D01*
X17662500Y-15920000D02*
X17692500Y-15950000D01*
X17692500Y-15920000D02*
X17662500Y-15950000D01*
X17720000Y-8877500D02*
X17750000Y-8907500D01*
X17750000Y-8877500D02*
X17720000Y-8907500D01*
X17795000Y-8607500D02*
X17825000Y-8637500D01*
X17825000Y-8607500D02*
X17795000Y-8637500D01*
X17955000Y-9107500D02*
X17985000Y-9137500D01*
X17985000Y-9107500D02*
X17955000Y-9137500D01*
X18002500Y-8820000D02*
X18032500Y-8850000D01*
X18032500Y-8820000D02*
X18002500Y-8850000D01*
X18060000Y-4960000D02*
X18090000Y-4990000D01*
X18090000Y-4960000D02*
X18060000Y-4990000D01*
X18095000Y-8610000D02*
X18125000Y-8640000D01*
X18125000Y-8610000D02*
X18095000Y-8640000D01*
X18115000Y-9787500D02*
X18145000Y-9817500D01*
X18145000Y-9787500D02*
X18115000Y-9817500D01*
X18157500Y-9305000D02*
X18187500Y-9335000D01*
X18187500Y-9305000D02*
X18157500Y-9335000D01*
X18277500Y-9082500D02*
X18307500Y-9112500D01*
X18307500Y-9082500D02*
X18277500Y-9112500D01*
X18340000Y-11490000D02*
X18370000Y-11520000D01*
X18370000Y-11490000D02*
X18340000Y-11520000D01*
X18437500Y-9217500D02*
X18467500Y-9247500D01*
X18467500Y-9217500D02*
X18437500Y-9247500D01*
X18510000Y-9500000D02*
X18540000Y-9530000D01*
X18540000Y-9500000D02*
X18510000Y-9530000D01*
X18512500Y-14455000D02*
X18542500Y-14485000D01*
X18542500Y-14455000D02*
X18512500Y-14485000D01*
X18538750Y-15085000D02*
X18568750Y-15115000D01*
X18568750Y-15085000D02*
X18538750Y-15115000D01*
X18541250Y-15165000D02*
X18571250Y-15195000D01*
X18571250Y-15165000D02*
X18541250Y-15195000D01*
X18541250Y-15240000D02*
X18571250Y-15270000D01*
X18571250Y-15240000D02*
X18541250Y-15270000D01*
X18570000Y-9695000D02*
X18600000Y-9725000D01*
X18600000Y-9695000D02*
X18570000Y-9725000D01*
X18590000Y-9422500D02*
X18620000Y-9452500D01*
X18620000Y-9422500D02*
X18590000Y-9452500D01*
X18610000Y-6840000D02*
X18640000Y-6870000D01*
X18640000Y-6840000D02*
X18610000Y-6870000D01*
X18610000Y-7625000D02*
X18640000Y-7655000D01*
X18640000Y-7625000D02*
X18610000Y-7655000D01*
X18625000Y-5825000D02*
X18655000Y-5855000D01*
X18655000Y-5825000D02*
X18625000Y-5855000D01*
X18641250Y-8685000D02*
X18671250Y-8715000D01*
X18671250Y-8685000D02*
X18641250Y-8715000D01*
X18654896Y-12418108D02*
X18684896Y-12448108D01*
X18684896Y-12418108D02*
X18654896Y-12448108D01*
X18660000Y-6505000D02*
X18690000Y-6535000D01*
X18690000Y-6505000D02*
X18660000Y-6535000D01*
X18662500Y-7165000D02*
X18692500Y-7195000D01*
X18692500Y-7165000D02*
X18662500Y-7195000D01*
X18681250Y-6840000D02*
X18711250Y-6870000D01*
X18711250Y-6840000D02*
X18681250Y-6870000D01*
X18681250Y-7625000D02*
X18711250Y-7655000D01*
X18711250Y-7625000D02*
X18681250Y-7655000D01*
X18682500Y-9302500D02*
X18712500Y-9332500D01*
X18712500Y-9302500D02*
X18682500Y-9332500D01*
X18696250Y-5825000D02*
X18726250Y-5855000D01*
X18726250Y-5825000D02*
X18696250Y-5855000D01*
X18712500Y-8685000D02*
X18742500Y-8715000D01*
X18742500Y-8685000D02*
X18712500Y-8715000D01*
X18752500Y-6840000D02*
X18782500Y-6870000D01*
X18782500Y-6840000D02*
X18752500Y-6870000D01*
X18752500Y-7625000D02*
X18782500Y-7655000D01*
X18782500Y-7625000D02*
X18752500Y-7655000D01*
X18757500Y-8085000D02*
X18787500Y-8115000D01*
X18787500Y-8085000D02*
X18757500Y-8115000D01*
X18767500Y-5825000D02*
X18797500Y-5855000D01*
X18797500Y-5825000D02*
X18767500Y-5855000D01*
X18783750Y-8685000D02*
X18813750Y-8715000D01*
X18813750Y-8685000D02*
X18783750Y-8715000D01*
X18785000Y-8235000D02*
X18815000Y-8265000D01*
X18815000Y-8235000D02*
X18785000Y-8265000D01*
X18823750Y-6840000D02*
X18853750Y-6870000D01*
X18853750Y-6840000D02*
X18823750Y-6870000D01*
X18823750Y-7625000D02*
X18853750Y-7655000D01*
X18853750Y-7625000D02*
X18823750Y-7655000D01*
X18825000Y-9950000D02*
X18855000Y-9980000D01*
X18855000Y-9950000D02*
X18825000Y-9980000D01*
X18835000Y-9545000D02*
X18865000Y-9575000D01*
X18865000Y-9545000D02*
X18835000Y-9575000D01*
X18837500Y-6435000D02*
X18867500Y-6465000D01*
X18867500Y-6435000D02*
X18837500Y-6465000D01*
X18838750Y-5825000D02*
X18868750Y-5855000D01*
X18868750Y-5825000D02*
X18838750Y-5855000D01*
X18855000Y-8685000D02*
X18885000Y-8715000D01*
X18885000Y-8685000D02*
X18855000Y-8715000D01*
X18862500Y-7307500D02*
X18892500Y-7337500D01*
X18892500Y-7307500D02*
X18862500Y-7337500D01*
X18895000Y-6840000D02*
X18925000Y-6870000D01*
X18925000Y-6840000D02*
X18895000Y-6870000D01*
X18895000Y-7625000D02*
X18925000Y-7655000D01*
X18925000Y-7625000D02*
X18895000Y-7655000D01*
X18900000Y-7205000D02*
X18930000Y-7235000D01*
X18930000Y-7205000D02*
X18900000Y-7235000D01*
X18910000Y-5825000D02*
X18940000Y-5855000D01*
X18940000Y-5825000D02*
X18910000Y-5855000D01*
X18926250Y-8685000D02*
X18956250Y-8715000D01*
X18956250Y-8685000D02*
X18926250Y-8715000D01*
X18930000Y-8097500D02*
X18960000Y-8127500D01*
X18960000Y-8097500D02*
X18930000Y-8127500D01*
X18950000Y-12940000D02*
X18980000Y-12970000D01*
X18980000Y-12940000D02*
X18950000Y-12970000D01*
X18950000Y-13040000D02*
X18980000Y-13070000D01*
X18980000Y-13040000D02*
X18950000Y-13070000D01*
X18950000Y-13140000D02*
X18980000Y-13170000D01*
X18980000Y-13140000D02*
X18950000Y-13170000D01*
X18975000Y-12015000D02*
X19005000Y-12045000D01*
X19005000Y-12015000D02*
X18975000Y-12045000D01*
X18977500Y-6402500D02*
X19007500Y-6432500D01*
X19007500Y-6402500D02*
X18977500Y-6432500D01*
X18985000Y-11310000D02*
X19015000Y-11340000D01*
X19015000Y-11310000D02*
X18985000Y-11340000D01*
X18985000Y-11735000D02*
X19015000Y-11765000D01*
X19015000Y-11735000D02*
X18985000Y-11765000D01*
X18990000Y-10995000D02*
X19020000Y-11025000D01*
X19020000Y-10995000D02*
X18990000Y-11025000D01*
X19015000Y-10210000D02*
X19045000Y-10240000D01*
X19045000Y-10210000D02*
X19015000Y-10240000D01*
X19015000Y-10490000D02*
X19045000Y-10520000D01*
X19045000Y-10490000D02*
X19015000Y-10520000D01*
X19015000Y-10725000D02*
X19045000Y-10755000D01*
X19045000Y-10725000D02*
X19015000Y-10755000D01*
X19030000Y-12940000D02*
X19060000Y-12970000D01*
X19060000Y-12940000D02*
X19030000Y-12970000D01*
X19030000Y-13040000D02*
X19060000Y-13070000D01*
X19060000Y-13040000D02*
X19030000Y-13070000D01*
X19030000Y-13140000D02*
X19060000Y-13170000D01*
X19060000Y-13140000D02*
X19030000Y-13170000D01*
X19035000Y-13955000D02*
X19065000Y-13985000D01*
X19065000Y-13955000D02*
X19035000Y-13985000D01*
X19035000Y-14590000D02*
X19065000Y-14620000D01*
X19065000Y-14590000D02*
X19035000Y-14620000D01*
X19112500Y-12417500D02*
X19142500Y-12447500D01*
X19142500Y-12417500D02*
X19112500Y-12447500D01*
X19127500Y-12217500D02*
X19157500Y-12247500D01*
X19157500Y-12217500D02*
X19127500Y-12247500D01*
X19205000Y-9945000D02*
X19235000Y-9975000D01*
X19235000Y-9945000D02*
X19205000Y-9975000D01*
X19217500Y-12317500D02*
X19247500Y-12347500D01*
X19247500Y-12317500D02*
X19217500Y-12347500D01*
X19305000Y-10795000D02*
X19335000Y-10825000D01*
X19335000Y-10795000D02*
X19305000Y-10825000D01*
X19310000Y-10260000D02*
X19340000Y-10290000D01*
X19340000Y-10260000D02*
X19310000Y-10290000D01*
X19315000Y-10575000D02*
X19345000Y-10605000D01*
X19345000Y-10575000D02*
X19315000Y-10605000D01*
X19315000Y-11165000D02*
X19345000Y-11195000D01*
X19345000Y-11165000D02*
X19315000Y-11195000D01*
X19320000Y-11465000D02*
X19350000Y-11495000D01*
X19350000Y-11465000D02*
X19320000Y-11495000D01*
X19340000Y-11885000D02*
X19370000Y-11915000D01*
X19370000Y-11885000D02*
X19340000Y-11915000D01*
X19490000Y-10907500D02*
X19520000Y-10937500D01*
X19520000Y-10907500D02*
X19490000Y-10937500D01*
X14633476Y-8872566D02*
G75*
G02*
X14583476Y-8872566I-25000J0D01*
G01*
X14583476Y-8872566D02*
G75*
G02*
X14633476Y-8872566I25000J0D01*
G01*
X14870000Y-8872220D02*
G75*
G02*
X14820000Y-8872220I-25000J0D01*
G01*
X14820000Y-8872220D02*
G75*
G02*
X14870000Y-8872220I25000J0D01*
G01*
X18503750Y-6654800D02*
G75*
G02*
X18453750Y-6654800I-25000J0D01*
G01*
X18453750Y-6654800D02*
G75*
G02*
X18503750Y-6654800I25000J0D01*
G01*
X18503750Y-7053580D02*
G75*
G02*
X18453750Y-7053580I-25000J0D01*
G01*
X18453750Y-7053580D02*
G75*
G02*
X18503750Y-7053580I25000J0D01*
G01*
X18503750Y-7470140D02*
G75*
G02*
X18453750Y-7470140I-25000J0D01*
G01*
X18453750Y-7470140D02*
G75*
G02*
X18503750Y-7470140I25000J0D01*
G01*
X18503750Y-7904480D02*
G75*
G02*
X18453750Y-7904480I-25000J0D01*
G01*
X18453750Y-7904480D02*
G75*
G02*
X18503750Y-7904480I25000J0D01*
G01*
X18503750Y-6214465D02*
G75*
G02*
X18453750Y-6214465I-25000J0D01*
G01*
X18453750Y-6214465D02*
G75*
G02*
X18503750Y-6214465I25000J0D01*
G01*
X18507750Y-8354813D02*
G75*
G02*
X18457750Y-8354813I-25000J0D01*
G01*
X18457750Y-8354813D02*
G75*
G02*
X18507750Y-8354813I25000J0D01*
G01*
X10663825Y-4429800D02*
X10663825Y-4509800D01*
X10623825Y-4469800D02*
X10703825Y-4469800D01*
X10703825Y-4529800D02*
X10703825Y-4409800D01*
X10623825Y-4409800D02*
G75*
G02*
X10703825Y-4409800I40000J0D01*
G01*
X10623825Y-4409800D02*
X10623825Y-4529800D01*
X10623825Y-4529800D02*
G75*
G03*
X10703825Y-4529800I40000J0D01*
G01*
X10663825Y-4899800D02*
X10663825Y-4979800D01*
X10623825Y-4939800D02*
X10703825Y-4939800D01*
X10703825Y-4999800D02*
X10703825Y-4879800D01*
X10623825Y-4879800D02*
G75*
G02*
X10703825Y-4879800I40000J0D01*
G01*
X10623825Y-4879800D02*
X10623825Y-4999800D01*
X10623825Y-4999800D02*
G75*
G03*
X10703825Y-4999800I40000J0D01*
G01*
X11148825Y-4479800D02*
X11148825Y-4559800D01*
X11108825Y-4519800D02*
X11188825Y-4519800D01*
X11258825Y-4479800D02*
X11038825Y-4479800D01*
X11038825Y-4559800D02*
G75*
G02*
X11038825Y-4479800I0J40000D01*
G01*
X11038825Y-4559800D02*
X11258825Y-4559800D01*
X11258825Y-4559800D02*
G75*
G03*
X11258825Y-4479800I0J40000D01*
G01*
X11633825Y-4429800D02*
X11633825Y-4509800D01*
X11593825Y-4469800D02*
X11673825Y-4469800D01*
X11673825Y-4529800D02*
X11673825Y-4409800D01*
X11593825Y-4409800D02*
G75*
G02*
X11673825Y-4409800I40000J0D01*
G01*
X11593825Y-4409800D02*
X11593825Y-4529800D01*
X11593825Y-4529800D02*
G75*
G03*
X11673825Y-4529800I40000J0D01*
G01*
X11633825Y-4899800D02*
X11633825Y-4979800D01*
X11593825Y-4939800D02*
X11673825Y-4939800D01*
X11673825Y-4999800D02*
X11673825Y-4879800D01*
X11593825Y-4879800D02*
G75*
G02*
X11673825Y-4879800I40000J0D01*
G01*
X11593825Y-4879800D02*
X11593825Y-4999800D01*
X11593825Y-4999800D02*
G75*
G03*
X11673825Y-4999800I40000J0D01*
G01*
X14155833Y-15307533D02*
X14155833Y-15246467D01*
X14094767Y-15246467D01*
X14094767Y-15307533D01*
X14155833Y-15307533D01*
X14155833Y-15561533D02*
X14155833Y-15500467D01*
X14094767Y-15500467D01*
X14094767Y-15561533D01*
X14155833Y-15561533D01*
X17287833Y-15313533D02*
X17287833Y-15252467D01*
X17226767Y-15252467D01*
X17226767Y-15313533D01*
X17287833Y-15313533D01*
X17287833Y-15567533D02*
X17287833Y-15506467D01*
X17226767Y-15506467D01*
X17226767Y-15567533D01*
X17287833Y-15567533D01*
X19192500Y-8932500D02*
X19240000Y-8885000D01*
X19192500Y-8837500D01*
X19145000Y-8885000D01*
X19192500Y-8932500D01*
X19192500Y-9182500D02*
X19240000Y-9135000D01*
X19192500Y-9087500D01*
X19145000Y-9135000D01*
X19192500Y-9182500D01*
X19192500Y-9432500D02*
X19240000Y-9385000D01*
X19192500Y-9337500D01*
X19145000Y-9385000D01*
X19192500Y-9432500D01*
X19192500Y-9682500D02*
X19240000Y-9635000D01*
X19192500Y-9587500D01*
X19145000Y-9635000D01*
X19192500Y-9682500D01*
D13*
X11073825Y-5044800D02*
X11223825Y-5194800D01*
X11223825Y-5044800D02*
X11073825Y-5194800D01*
X11223825Y-5119800D02*
G75*
G02*
X11073825Y-5119800I-75000J0D01*
G01*
X11073825Y-5119800D02*
G75*
G02*
X11223825Y-5119800I75000J0D01*
G01*
D14*
X9345000Y-4285000D02*
X9695000Y-4635000D01*
X9695000Y-4285000D02*
X9345000Y-4635000D01*
X9520000Y-4285000D02*
X9520000Y-4635000D01*
X9345000Y-4460000D02*
X9695000Y-4460000D01*
X9345000Y-15725000D02*
X9695000Y-16075000D01*
X9695000Y-15725000D02*
X9345000Y-16075000D01*
X9520000Y-15725000D02*
X9520000Y-16075000D01*
X9345000Y-15900000D02*
X9695000Y-15900000D01*
X19065000Y-4285000D02*
X19415000Y-4635000D01*
X19415000Y-4285000D02*
X19065000Y-4635000D01*
X19240000Y-4285000D02*
X19240000Y-4635000D01*
X19065000Y-4460000D02*
X19415000Y-4460000D01*
X19065000Y-15725000D02*
X19415000Y-16075000D01*
X19415000Y-15725000D02*
X19065000Y-16075000D01*
X19240000Y-15725000D02*
X19240000Y-16075000D01*
X19065000Y-15900000D02*
X19415000Y-15900000D01*
D15*
X12183000Y-11553750D02*
X12583000Y-11953750D01*
X12583000Y-11553750D02*
X12183000Y-11953750D01*
X12524423Y-11895173D02*
X12524423Y-11612327D01*
X12241577Y-11612327D01*
X12241577Y-11895173D01*
X12524423Y-11895173D01*
X14007000Y-11553750D02*
X14407000Y-11953750D01*
X14407000Y-11553750D02*
X14007000Y-11953750D01*
X14348423Y-11895173D02*
X14348423Y-11612327D01*
X14065577Y-11612327D01*
X14065577Y-11895173D01*
X14348423Y-11895173D01*
X15410500Y-11553750D02*
X15810500Y-11953750D01*
X15810500Y-11553750D02*
X15410500Y-11953750D01*
X15751923Y-11895173D02*
X15751923Y-11612327D01*
X15469077Y-11612327D01*
X15469077Y-11895173D01*
X15751923Y-11895173D01*
X17234500Y-11553750D02*
X17634500Y-11953750D01*
X17634500Y-11553750D02*
X17234500Y-11953750D01*
X17575923Y-11895173D02*
X17575923Y-11612327D01*
X17293077Y-11612327D01*
X17293077Y-11895173D01*
X17575923Y-11895173D01*
D11*
X9178277Y-16813984D02*
X9178277Y-16613984D01*
X9178277Y-16613984D02*
X9225896Y-16613984D01*
X9225896Y-16613984D02*
X9254467Y-16623508D01*
X9254467Y-16623508D02*
X9273515Y-16642555D01*
X9273515Y-16642555D02*
X9283039Y-16661603D01*
X9283039Y-16661603D02*
X9292563Y-16699698D01*
X9292563Y-16699698D02*
X9292563Y-16728269D01*
X9292563Y-16728269D02*
X9283039Y-16766365D01*
X9283039Y-16766365D02*
X9273515Y-16785412D01*
X9273515Y-16785412D02*
X9254467Y-16804460D01*
X9254467Y-16804460D02*
X9225896Y-16813984D01*
X9225896Y-16813984D02*
X9178277Y-16813984D01*
X9378277Y-16813984D02*
X9378277Y-16680650D01*
X9378277Y-16718746D02*
X9387801Y-16699698D01*
X9387801Y-16699698D02*
X9397324Y-16690174D01*
X9397324Y-16690174D02*
X9416372Y-16680650D01*
X9416372Y-16680650D02*
X9435420Y-16680650D01*
X9502086Y-16813984D02*
X9502086Y-16680650D01*
X9502086Y-16613984D02*
X9492563Y-16623508D01*
X9492563Y-16623508D02*
X9502086Y-16633031D01*
X9502086Y-16633031D02*
X9511610Y-16623508D01*
X9511610Y-16623508D02*
X9502086Y-16613984D01*
X9502086Y-16613984D02*
X9502086Y-16633031D01*
X9625896Y-16813984D02*
X9606848Y-16804460D01*
X9606848Y-16804460D02*
X9597324Y-16785412D01*
X9597324Y-16785412D02*
X9597324Y-16613984D01*
X9730658Y-16813984D02*
X9711610Y-16804460D01*
X9711610Y-16804460D02*
X9702086Y-16785412D01*
X9702086Y-16785412D02*
X9702086Y-16613984D01*
X9959229Y-16813984D02*
X9959229Y-16613984D01*
X9959229Y-16613984D02*
X10025896Y-16756841D01*
X10025896Y-16756841D02*
X10092563Y-16613984D01*
X10092563Y-16613984D02*
X10092563Y-16813984D01*
X10273515Y-16813984D02*
X10273515Y-16709222D01*
X10273515Y-16709222D02*
X10263991Y-16690174D01*
X10263991Y-16690174D02*
X10244944Y-16680650D01*
X10244944Y-16680650D02*
X10206848Y-16680650D01*
X10206848Y-16680650D02*
X10187801Y-16690174D01*
X10273515Y-16804460D02*
X10254467Y-16813984D01*
X10254467Y-16813984D02*
X10206848Y-16813984D01*
X10206848Y-16813984D02*
X10187801Y-16804460D01*
X10187801Y-16804460D02*
X10178277Y-16785412D01*
X10178277Y-16785412D02*
X10178277Y-16766365D01*
X10178277Y-16766365D02*
X10187801Y-16747317D01*
X10187801Y-16747317D02*
X10206848Y-16737793D01*
X10206848Y-16737793D02*
X10254467Y-16737793D01*
X10254467Y-16737793D02*
X10273515Y-16728269D01*
X10368753Y-16680650D02*
X10368753Y-16880650D01*
X10368753Y-16690174D02*
X10387801Y-16680650D01*
X10387801Y-16680650D02*
X10425896Y-16680650D01*
X10425896Y-16680650D02*
X10444944Y-16690174D01*
X10444944Y-16690174D02*
X10454467Y-16699698D01*
X10454467Y-16699698D02*
X10463991Y-16718746D01*
X10463991Y-16718746D02*
X10463991Y-16775888D01*
X10463991Y-16775888D02*
X10454467Y-16794936D01*
X10454467Y-16794936D02*
X10444944Y-16804460D01*
X10444944Y-16804460D02*
X10425896Y-16813984D01*
X10425896Y-16813984D02*
X10387801Y-16813984D01*
X10387801Y-16813984D02*
X10368753Y-16804460D01*
X10549705Y-16794936D02*
X10559229Y-16804460D01*
X10559229Y-16804460D02*
X10549705Y-16813984D01*
X10549705Y-16813984D02*
X10540182Y-16804460D01*
X10540182Y-16804460D02*
X10549705Y-16794936D01*
X10549705Y-16794936D02*
X10549705Y-16813984D01*
X10549705Y-16690174D02*
X10559229Y-16699698D01*
X10559229Y-16699698D02*
X10549705Y-16709222D01*
X10549705Y-16709222D02*
X10540182Y-16699698D01*
X10540182Y-16699698D02*
X10549705Y-16690174D01*
X10549705Y-16690174D02*
X10549705Y-16709222D01*
D12*
X8887500Y-17127500D02*
X8917500Y-17157500D01*
X8917500Y-17127500D02*
X8887500Y-17157500D01*
D11*
X9216372Y-17033984D02*
X9235420Y-17033984D01*
X9235420Y-17033984D02*
X9254467Y-17043508D01*
X9254467Y-17043508D02*
X9263991Y-17053031D01*
X9263991Y-17053031D02*
X9273515Y-17072079D01*
X9273515Y-17072079D02*
X9283039Y-17110174D01*
X9283039Y-17110174D02*
X9283039Y-17157793D01*
X9283039Y-17157793D02*
X9273515Y-17195889D01*
X9273515Y-17195889D02*
X9263991Y-17214936D01*
X9263991Y-17214936D02*
X9254467Y-17224460D01*
X9254467Y-17224460D02*
X9235420Y-17233984D01*
X9235420Y-17233984D02*
X9216372Y-17233984D01*
X9216372Y-17233984D02*
X9197324Y-17224460D01*
X9197324Y-17224460D02*
X9187801Y-17214936D01*
X9187801Y-17214936D02*
X9178277Y-17195889D01*
X9178277Y-17195889D02*
X9168753Y-17157793D01*
X9168753Y-17157793D02*
X9168753Y-17110174D01*
X9168753Y-17110174D02*
X9178277Y-17072079D01*
X9178277Y-17072079D02*
X9187801Y-17053031D01*
X9187801Y-17053031D02*
X9197324Y-17043508D01*
X9197324Y-17043508D02*
X9216372Y-17033984D01*
X9368753Y-17214936D02*
X9378277Y-17224460D01*
X9378277Y-17224460D02*
X9368753Y-17233984D01*
X9368753Y-17233984D02*
X9359229Y-17224460D01*
X9359229Y-17224460D02*
X9368753Y-17214936D01*
X9368753Y-17214936D02*
X9368753Y-17233984D01*
X9444944Y-17033984D02*
X9568753Y-17033984D01*
X9568753Y-17033984D02*
X9502086Y-17110174D01*
X9502086Y-17110174D02*
X9530658Y-17110174D01*
X9530658Y-17110174D02*
X9549705Y-17119698D01*
X9549705Y-17119698D02*
X9559229Y-17129222D01*
X9559229Y-17129222D02*
X9568753Y-17148270D01*
X9568753Y-17148270D02*
X9568753Y-17195889D01*
X9568753Y-17195889D02*
X9559229Y-17214936D01*
X9559229Y-17214936D02*
X9549705Y-17224460D01*
X9549705Y-17224460D02*
X9530658Y-17233984D01*
X9530658Y-17233984D02*
X9473515Y-17233984D01*
X9473515Y-17233984D02*
X9454467Y-17224460D01*
X9454467Y-17224460D02*
X9444944Y-17214936D01*
X9692563Y-17033984D02*
X9711610Y-17033984D01*
X9711610Y-17033984D02*
X9730658Y-17043508D01*
X9730658Y-17043508D02*
X9740182Y-17053031D01*
X9740182Y-17053031D02*
X9749705Y-17072079D01*
X9749705Y-17072079D02*
X9759229Y-17110174D01*
X9759229Y-17110174D02*
X9759229Y-17157793D01*
X9759229Y-17157793D02*
X9749705Y-17195889D01*
X9749705Y-17195889D02*
X9740182Y-17214936D01*
X9740182Y-17214936D02*
X9730658Y-17224460D01*
X9730658Y-17224460D02*
X9711610Y-17233984D01*
X9711610Y-17233984D02*
X9692563Y-17233984D01*
X9692563Y-17233984D02*
X9673515Y-17224460D01*
X9673515Y-17224460D02*
X9663991Y-17214936D01*
X9663991Y-17214936D02*
X9654467Y-17195889D01*
X9654467Y-17195889D02*
X9644944Y-17157793D01*
X9644944Y-17157793D02*
X9644944Y-17110174D01*
X9644944Y-17110174D02*
X9654467Y-17072079D01*
X9654467Y-17072079D02*
X9663991Y-17053031D01*
X9663991Y-17053031D02*
X9673515Y-17043508D01*
X9673515Y-17043508D02*
X9692563Y-17033984D01*
X9883039Y-17033984D02*
X9902086Y-17033984D01*
X9902086Y-17033984D02*
X9921134Y-17043508D01*
X9921134Y-17043508D02*
X9930658Y-17053031D01*
X9930658Y-17053031D02*
X9940182Y-17072079D01*
X9940182Y-17072079D02*
X9949705Y-17110174D01*
X9949705Y-17110174D02*
X9949705Y-17157793D01*
X9949705Y-17157793D02*
X9940182Y-17195889D01*
X9940182Y-17195889D02*
X9930658Y-17214936D01*
X9930658Y-17214936D02*
X9921134Y-17224460D01*
X9921134Y-17224460D02*
X9902086Y-17233984D01*
X9902086Y-17233984D02*
X9883039Y-17233984D01*
X9883039Y-17233984D02*
X9863991Y-17224460D01*
X9863991Y-17224460D02*
X9854467Y-17214936D01*
X9854467Y-17214936D02*
X9844944Y-17195889D01*
X9844944Y-17195889D02*
X9835420Y-17157793D01*
X9835420Y-17157793D02*
X9835420Y-17110174D01*
X9835420Y-17110174D02*
X9844944Y-17072079D01*
X9844944Y-17072079D02*
X9854467Y-17053031D01*
X9854467Y-17053031D02*
X9863991Y-17043508D01*
X9863991Y-17043508D02*
X9883039Y-17033984D01*
X10035420Y-17233984D02*
X10035420Y-17100650D01*
X10035420Y-17119698D02*
X10044944Y-17110174D01*
X10044944Y-17110174D02*
X10063991Y-17100650D01*
X10063991Y-17100650D02*
X10092563Y-17100650D01*
X10092563Y-17100650D02*
X10111610Y-17110174D01*
X10111610Y-17110174D02*
X10121134Y-17129222D01*
X10121134Y-17129222D02*
X10121134Y-17233984D01*
X10121134Y-17129222D02*
X10130658Y-17110174D01*
X10130658Y-17110174D02*
X10149705Y-17100650D01*
X10149705Y-17100650D02*
X10178277Y-17100650D01*
X10178277Y-17100650D02*
X10197325Y-17110174D01*
X10197325Y-17110174D02*
X10206848Y-17129222D01*
X10206848Y-17129222D02*
X10206848Y-17233984D01*
X10302086Y-17233984D02*
X10302086Y-17100650D01*
X10302086Y-17119698D02*
X10311610Y-17110174D01*
X10311610Y-17110174D02*
X10330658Y-17100650D01*
X10330658Y-17100650D02*
X10359229Y-17100650D01*
X10359229Y-17100650D02*
X10378277Y-17110174D01*
X10378277Y-17110174D02*
X10387801Y-17129222D01*
X10387801Y-17129222D02*
X10387801Y-17233984D01*
X10387801Y-17129222D02*
X10397325Y-17110174D01*
X10397325Y-17110174D02*
X10416372Y-17100650D01*
X10416372Y-17100650D02*
X10444944Y-17100650D01*
X10444944Y-17100650D02*
X10463991Y-17110174D01*
X10463991Y-17110174D02*
X10473515Y-17129222D01*
X10473515Y-17129222D02*
X10473515Y-17233984D01*
X10863991Y-17024460D02*
X10692563Y-17281603D01*
X11121134Y-17033984D02*
X11140182Y-17033984D01*
X11140182Y-17033984D02*
X11159229Y-17043508D01*
X11159229Y-17043508D02*
X11168753Y-17053031D01*
X11168753Y-17053031D02*
X11178277Y-17072079D01*
X11178277Y-17072079D02*
X11187801Y-17110174D01*
X11187801Y-17110174D02*
X11187801Y-17157793D01*
X11187801Y-17157793D02*
X11178277Y-17195889D01*
X11178277Y-17195889D02*
X11168753Y-17214936D01*
X11168753Y-17214936D02*
X11159229Y-17224460D01*
X11159229Y-17224460D02*
X11140182Y-17233984D01*
X11140182Y-17233984D02*
X11121134Y-17233984D01*
X11121134Y-17233984D02*
X11102087Y-17224460D01*
X11102087Y-17224460D02*
X11092563Y-17214936D01*
X11092563Y-17214936D02*
X11083039Y-17195889D01*
X11083039Y-17195889D02*
X11073515Y-17157793D01*
X11073515Y-17157793D02*
X11073515Y-17110174D01*
X11073515Y-17110174D02*
X11083039Y-17072079D01*
X11083039Y-17072079D02*
X11092563Y-17053031D01*
X11092563Y-17053031D02*
X11102087Y-17043508D01*
X11102087Y-17043508D02*
X11121134Y-17033984D01*
X11273515Y-17214936D02*
X11283039Y-17224460D01*
X11283039Y-17224460D02*
X11273515Y-17233984D01*
X11273515Y-17233984D02*
X11263991Y-17224460D01*
X11263991Y-17224460D02*
X11273515Y-17214936D01*
X11273515Y-17214936D02*
X11273515Y-17233984D01*
X11406848Y-17033984D02*
X11425896Y-17033984D01*
X11425896Y-17033984D02*
X11444944Y-17043508D01*
X11444944Y-17043508D02*
X11454467Y-17053031D01*
X11454467Y-17053031D02*
X11463991Y-17072079D01*
X11463991Y-17072079D02*
X11473515Y-17110174D01*
X11473515Y-17110174D02*
X11473515Y-17157793D01*
X11473515Y-17157793D02*
X11463991Y-17195889D01*
X11463991Y-17195889D02*
X11454467Y-17214936D01*
X11454467Y-17214936D02*
X11444944Y-17224460D01*
X11444944Y-17224460D02*
X11425896Y-17233984D01*
X11425896Y-17233984D02*
X11406848Y-17233984D01*
X11406848Y-17233984D02*
X11387801Y-17224460D01*
X11387801Y-17224460D02*
X11378277Y-17214936D01*
X11378277Y-17214936D02*
X11368753Y-17195889D01*
X11368753Y-17195889D02*
X11359229Y-17157793D01*
X11359229Y-17157793D02*
X11359229Y-17110174D01*
X11359229Y-17110174D02*
X11368753Y-17072079D01*
X11368753Y-17072079D02*
X11378277Y-17053031D01*
X11378277Y-17053031D02*
X11387801Y-17043508D01*
X11387801Y-17043508D02*
X11406848Y-17033984D01*
X11663991Y-17233984D02*
X11549706Y-17233984D01*
X11606848Y-17233984D02*
X11606848Y-17033984D01*
X11606848Y-17033984D02*
X11587801Y-17062555D01*
X11587801Y-17062555D02*
X11568753Y-17081603D01*
X11568753Y-17081603D02*
X11549706Y-17091127D01*
X11854467Y-17233984D02*
X11740182Y-17233984D01*
X11797325Y-17233984D02*
X11797325Y-17033984D01*
X11797325Y-17033984D02*
X11778277Y-17062555D01*
X11778277Y-17062555D02*
X11759229Y-17081603D01*
X11759229Y-17081603D02*
X11740182Y-17091127D01*
X11968753Y-17119698D02*
X11949706Y-17110174D01*
X11949706Y-17110174D02*
X11940182Y-17100650D01*
X11940182Y-17100650D02*
X11930658Y-17081603D01*
X11930658Y-17081603D02*
X11930658Y-17072079D01*
X11930658Y-17072079D02*
X11940182Y-17053031D01*
X11940182Y-17053031D02*
X11949706Y-17043508D01*
X11949706Y-17043508D02*
X11968753Y-17033984D01*
X11968753Y-17033984D02*
X12006848Y-17033984D01*
X12006848Y-17033984D02*
X12025896Y-17043508D01*
X12025896Y-17043508D02*
X12035420Y-17053031D01*
X12035420Y-17053031D02*
X12044944Y-17072079D01*
X12044944Y-17072079D02*
X12044944Y-17081603D01*
X12044944Y-17081603D02*
X12035420Y-17100650D01*
X12035420Y-17100650D02*
X12025896Y-17110174D01*
X12025896Y-17110174D02*
X12006848Y-17119698D01*
X12006848Y-17119698D02*
X11968753Y-17119698D01*
X11968753Y-17119698D02*
X11949706Y-17129222D01*
X11949706Y-17129222D02*
X11940182Y-17138746D01*
X11940182Y-17138746D02*
X11930658Y-17157793D01*
X11930658Y-17157793D02*
X11930658Y-17195889D01*
X11930658Y-17195889D02*
X11940182Y-17214936D01*
X11940182Y-17214936D02*
X11949706Y-17224460D01*
X11949706Y-17224460D02*
X11968753Y-17233984D01*
X11968753Y-17233984D02*
X12006848Y-17233984D01*
X12006848Y-17233984D02*
X12025896Y-17224460D01*
X12025896Y-17224460D02*
X12035420Y-17214936D01*
X12035420Y-17214936D02*
X12044944Y-17195889D01*
X12044944Y-17195889D02*
X12044944Y-17157793D01*
X12044944Y-17157793D02*
X12035420Y-17138746D01*
X12035420Y-17138746D02*
X12025896Y-17129222D01*
X12025896Y-17129222D02*
X12006848Y-17119698D01*
X12121134Y-17033984D02*
X12121134Y-17072079D01*
X12197325Y-17033984D02*
X12197325Y-17072079D01*
X12492563Y-17310174D02*
X12483039Y-17300650D01*
X12483039Y-17300650D02*
X12463991Y-17272079D01*
X12463991Y-17272079D02*
X12454468Y-17253031D01*
X12454468Y-17253031D02*
X12444944Y-17224460D01*
X12444944Y-17224460D02*
X12435420Y-17176841D01*
X12435420Y-17176841D02*
X12435420Y-17138746D01*
X12435420Y-17138746D02*
X12444944Y-17091127D01*
X12444944Y-17091127D02*
X12454468Y-17062555D01*
X12454468Y-17062555D02*
X12463991Y-17043508D01*
X12463991Y-17043508D02*
X12483039Y-17014936D01*
X12483039Y-17014936D02*
X12492563Y-17005412D01*
X12559229Y-17053031D02*
X12568753Y-17043508D01*
X12568753Y-17043508D02*
X12587801Y-17033984D01*
X12587801Y-17033984D02*
X12635420Y-17033984D01*
X12635420Y-17033984D02*
X12654468Y-17043508D01*
X12654468Y-17043508D02*
X12663991Y-17053031D01*
X12663991Y-17053031D02*
X12673515Y-17072079D01*
X12673515Y-17072079D02*
X12673515Y-17091127D01*
X12673515Y-17091127D02*
X12663991Y-17119698D01*
X12663991Y-17119698D02*
X12549706Y-17233984D01*
X12549706Y-17233984D02*
X12673515Y-17233984D01*
X12787801Y-17119698D02*
X12768753Y-17110174D01*
X12768753Y-17110174D02*
X12759229Y-17100650D01*
X12759229Y-17100650D02*
X12749706Y-17081603D01*
X12749706Y-17081603D02*
X12749706Y-17072079D01*
X12749706Y-17072079D02*
X12759229Y-17053031D01*
X12759229Y-17053031D02*
X12768753Y-17043508D01*
X12768753Y-17043508D02*
X12787801Y-17033984D01*
X12787801Y-17033984D02*
X12825896Y-17033984D01*
X12825896Y-17033984D02*
X12844944Y-17043508D01*
X12844944Y-17043508D02*
X12854468Y-17053031D01*
X12854468Y-17053031D02*
X12863991Y-17072079D01*
X12863991Y-17072079D02*
X12863991Y-17081603D01*
X12863991Y-17081603D02*
X12854468Y-17100650D01*
X12854468Y-17100650D02*
X12844944Y-17110174D01*
X12844944Y-17110174D02*
X12825896Y-17119698D01*
X12825896Y-17119698D02*
X12787801Y-17119698D01*
X12787801Y-17119698D02*
X12768753Y-17129222D01*
X12768753Y-17129222D02*
X12759229Y-17138746D01*
X12759229Y-17138746D02*
X12749706Y-17157793D01*
X12749706Y-17157793D02*
X12749706Y-17195889D01*
X12749706Y-17195889D02*
X12759229Y-17214936D01*
X12759229Y-17214936D02*
X12768753Y-17224460D01*
X12768753Y-17224460D02*
X12787801Y-17233984D01*
X12787801Y-17233984D02*
X12825896Y-17233984D01*
X12825896Y-17233984D02*
X12844944Y-17224460D01*
X12844944Y-17224460D02*
X12854468Y-17214936D01*
X12854468Y-17214936D02*
X12863991Y-17195889D01*
X12863991Y-17195889D02*
X12863991Y-17157793D01*
X12863991Y-17157793D02*
X12854468Y-17138746D01*
X12854468Y-17138746D02*
X12844944Y-17129222D01*
X12844944Y-17129222D02*
X12825896Y-17119698D01*
X13054468Y-17233984D02*
X12940182Y-17233984D01*
X12997325Y-17233984D02*
X12997325Y-17033984D01*
X12997325Y-17033984D02*
X12978277Y-17062555D01*
X12978277Y-17062555D02*
X12959229Y-17081603D01*
X12959229Y-17081603D02*
X12940182Y-17091127D01*
X13292563Y-17233984D02*
X13292563Y-17033984D01*
X13378277Y-17233984D02*
X13378277Y-17129222D01*
X13378277Y-17129222D02*
X13368753Y-17110174D01*
X13368753Y-17110174D02*
X13349706Y-17100650D01*
X13349706Y-17100650D02*
X13321134Y-17100650D01*
X13321134Y-17100650D02*
X13302087Y-17110174D01*
X13302087Y-17110174D02*
X13292563Y-17119698D01*
X13502087Y-17233984D02*
X13483039Y-17224460D01*
X13483039Y-17224460D02*
X13473515Y-17214936D01*
X13473515Y-17214936D02*
X13463991Y-17195889D01*
X13463991Y-17195889D02*
X13463991Y-17138746D01*
X13463991Y-17138746D02*
X13473515Y-17119698D01*
X13473515Y-17119698D02*
X13483039Y-17110174D01*
X13483039Y-17110174D02*
X13502087Y-17100650D01*
X13502087Y-17100650D02*
X13530658Y-17100650D01*
X13530658Y-17100650D02*
X13549706Y-17110174D01*
X13549706Y-17110174D02*
X13559230Y-17119698D01*
X13559230Y-17119698D02*
X13568753Y-17138746D01*
X13568753Y-17138746D02*
X13568753Y-17195889D01*
X13568753Y-17195889D02*
X13559230Y-17214936D01*
X13559230Y-17214936D02*
X13549706Y-17224460D01*
X13549706Y-17224460D02*
X13530658Y-17233984D01*
X13530658Y-17233984D02*
X13502087Y-17233984D01*
X13683039Y-17233984D02*
X13663991Y-17224460D01*
X13663991Y-17224460D02*
X13654468Y-17205412D01*
X13654468Y-17205412D02*
X13654468Y-17033984D01*
X13835420Y-17224460D02*
X13816372Y-17233984D01*
X13816372Y-17233984D02*
X13778277Y-17233984D01*
X13778277Y-17233984D02*
X13759230Y-17224460D01*
X13759230Y-17224460D02*
X13749706Y-17205412D01*
X13749706Y-17205412D02*
X13749706Y-17129222D01*
X13749706Y-17129222D02*
X13759230Y-17110174D01*
X13759230Y-17110174D02*
X13778277Y-17100650D01*
X13778277Y-17100650D02*
X13816372Y-17100650D01*
X13816372Y-17100650D02*
X13835420Y-17110174D01*
X13835420Y-17110174D02*
X13844944Y-17129222D01*
X13844944Y-17129222D02*
X13844944Y-17148270D01*
X13844944Y-17148270D02*
X13749706Y-17167317D01*
X13921134Y-17224460D02*
X13940182Y-17233984D01*
X13940182Y-17233984D02*
X13978277Y-17233984D01*
X13978277Y-17233984D02*
X13997325Y-17224460D01*
X13997325Y-17224460D02*
X14006849Y-17205412D01*
X14006849Y-17205412D02*
X14006849Y-17195889D01*
X14006849Y-17195889D02*
X13997325Y-17176841D01*
X13997325Y-17176841D02*
X13978277Y-17167317D01*
X13978277Y-17167317D02*
X13949706Y-17167317D01*
X13949706Y-17167317D02*
X13930658Y-17157793D01*
X13930658Y-17157793D02*
X13921134Y-17138746D01*
X13921134Y-17138746D02*
X13921134Y-17129222D01*
X13921134Y-17129222D02*
X13930658Y-17110174D01*
X13930658Y-17110174D02*
X13949706Y-17100650D01*
X13949706Y-17100650D02*
X13978277Y-17100650D01*
X13978277Y-17100650D02*
X13997325Y-17110174D01*
X14073515Y-17310174D02*
X14083039Y-17300650D01*
X14083039Y-17300650D02*
X14102087Y-17272079D01*
X14102087Y-17272079D02*
X14111611Y-17253031D01*
X14111611Y-17253031D02*
X14121134Y-17224460D01*
X14121134Y-17224460D02*
X14130658Y-17176841D01*
X14130658Y-17176841D02*
X14130658Y-17138746D01*
X14130658Y-17138746D02*
X14121134Y-17091127D01*
X14121134Y-17091127D02*
X14111611Y-17062555D01*
X14111611Y-17062555D02*
X14102087Y-17043508D01*
X14102087Y-17043508D02*
X14083039Y-17014936D01*
X14083039Y-17014936D02*
X14073515Y-17005412D01*
D12*
X8917500Y-17406500D02*
G75*
G02*
X8867500Y-17406500I-25000J0D01*
G01*
X8867500Y-17406500D02*
G75*
G02*
X8917500Y-17406500I25000J0D01*
G01*
D11*
X9216372Y-17297984D02*
X9235420Y-17297984D01*
X9235420Y-17297984D02*
X9254467Y-17307508D01*
X9254467Y-17307508D02*
X9263991Y-17317031D01*
X9263991Y-17317031D02*
X9273515Y-17336079D01*
X9273515Y-17336079D02*
X9283039Y-17374174D01*
X9283039Y-17374174D02*
X9283039Y-17421793D01*
X9283039Y-17421793D02*
X9273515Y-17459889D01*
X9273515Y-17459889D02*
X9263991Y-17478936D01*
X9263991Y-17478936D02*
X9254467Y-17488460D01*
X9254467Y-17488460D02*
X9235420Y-17497984D01*
X9235420Y-17497984D02*
X9216372Y-17497984D01*
X9216372Y-17497984D02*
X9197324Y-17488460D01*
X9197324Y-17488460D02*
X9187801Y-17478936D01*
X9187801Y-17478936D02*
X9178277Y-17459889D01*
X9178277Y-17459889D02*
X9168753Y-17421793D01*
X9168753Y-17421793D02*
X9168753Y-17374174D01*
X9168753Y-17374174D02*
X9178277Y-17336079D01*
X9178277Y-17336079D02*
X9187801Y-17317031D01*
X9187801Y-17317031D02*
X9197324Y-17307508D01*
X9197324Y-17307508D02*
X9216372Y-17297984D01*
X9368753Y-17478936D02*
X9378277Y-17488460D01*
X9378277Y-17488460D02*
X9368753Y-17497984D01*
X9368753Y-17497984D02*
X9359229Y-17488460D01*
X9359229Y-17488460D02*
X9368753Y-17478936D01*
X9368753Y-17478936D02*
X9368753Y-17497984D01*
X9559229Y-17297984D02*
X9463991Y-17297984D01*
X9463991Y-17297984D02*
X9454467Y-17393222D01*
X9454467Y-17393222D02*
X9463991Y-17383698D01*
X9463991Y-17383698D02*
X9483039Y-17374174D01*
X9483039Y-17374174D02*
X9530658Y-17374174D01*
X9530658Y-17374174D02*
X9549705Y-17383698D01*
X9549705Y-17383698D02*
X9559229Y-17393222D01*
X9559229Y-17393222D02*
X9568753Y-17412270D01*
X9568753Y-17412270D02*
X9568753Y-17459889D01*
X9568753Y-17459889D02*
X9559229Y-17478936D01*
X9559229Y-17478936D02*
X9549705Y-17488460D01*
X9549705Y-17488460D02*
X9530658Y-17497984D01*
X9530658Y-17497984D02*
X9483039Y-17497984D01*
X9483039Y-17497984D02*
X9463991Y-17488460D01*
X9463991Y-17488460D02*
X9454467Y-17478936D01*
X9692563Y-17297984D02*
X9711610Y-17297984D01*
X9711610Y-17297984D02*
X9730658Y-17307508D01*
X9730658Y-17307508D02*
X9740182Y-17317031D01*
X9740182Y-17317031D02*
X9749705Y-17336079D01*
X9749705Y-17336079D02*
X9759229Y-17374174D01*
X9759229Y-17374174D02*
X9759229Y-17421793D01*
X9759229Y-17421793D02*
X9749705Y-17459889D01*
X9749705Y-17459889D02*
X9740182Y-17478936D01*
X9740182Y-17478936D02*
X9730658Y-17488460D01*
X9730658Y-17488460D02*
X9711610Y-17497984D01*
X9711610Y-17497984D02*
X9692563Y-17497984D01*
X9692563Y-17497984D02*
X9673515Y-17488460D01*
X9673515Y-17488460D02*
X9663991Y-17478936D01*
X9663991Y-17478936D02*
X9654467Y-17459889D01*
X9654467Y-17459889D02*
X9644944Y-17421793D01*
X9644944Y-17421793D02*
X9644944Y-17374174D01*
X9644944Y-17374174D02*
X9654467Y-17336079D01*
X9654467Y-17336079D02*
X9663991Y-17317031D01*
X9663991Y-17317031D02*
X9673515Y-17307508D01*
X9673515Y-17307508D02*
X9692563Y-17297984D01*
X9883039Y-17297984D02*
X9902086Y-17297984D01*
X9902086Y-17297984D02*
X9921134Y-17307508D01*
X9921134Y-17307508D02*
X9930658Y-17317031D01*
X9930658Y-17317031D02*
X9940182Y-17336079D01*
X9940182Y-17336079D02*
X9949705Y-17374174D01*
X9949705Y-17374174D02*
X9949705Y-17421793D01*
X9949705Y-17421793D02*
X9940182Y-17459889D01*
X9940182Y-17459889D02*
X9930658Y-17478936D01*
X9930658Y-17478936D02*
X9921134Y-17488460D01*
X9921134Y-17488460D02*
X9902086Y-17497984D01*
X9902086Y-17497984D02*
X9883039Y-17497984D01*
X9883039Y-17497984D02*
X9863991Y-17488460D01*
X9863991Y-17488460D02*
X9854467Y-17478936D01*
X9854467Y-17478936D02*
X9844944Y-17459889D01*
X9844944Y-17459889D02*
X9835420Y-17421793D01*
X9835420Y-17421793D02*
X9835420Y-17374174D01*
X9835420Y-17374174D02*
X9844944Y-17336079D01*
X9844944Y-17336079D02*
X9854467Y-17317031D01*
X9854467Y-17317031D02*
X9863991Y-17307508D01*
X9863991Y-17307508D02*
X9883039Y-17297984D01*
X10035420Y-17497984D02*
X10035420Y-17364650D01*
X10035420Y-17383698D02*
X10044944Y-17374174D01*
X10044944Y-17374174D02*
X10063991Y-17364650D01*
X10063991Y-17364650D02*
X10092563Y-17364650D01*
X10092563Y-17364650D02*
X10111610Y-17374174D01*
X10111610Y-17374174D02*
X10121134Y-17393222D01*
X10121134Y-17393222D02*
X10121134Y-17497984D01*
X10121134Y-17393222D02*
X10130658Y-17374174D01*
X10130658Y-17374174D02*
X10149705Y-17364650D01*
X10149705Y-17364650D02*
X10178277Y-17364650D01*
X10178277Y-17364650D02*
X10197325Y-17374174D01*
X10197325Y-17374174D02*
X10206848Y-17393222D01*
X10206848Y-17393222D02*
X10206848Y-17497984D01*
X10302086Y-17497984D02*
X10302086Y-17364650D01*
X10302086Y-17383698D02*
X10311610Y-17374174D01*
X10311610Y-17374174D02*
X10330658Y-17364650D01*
X10330658Y-17364650D02*
X10359229Y-17364650D01*
X10359229Y-17364650D02*
X10378277Y-17374174D01*
X10378277Y-17374174D02*
X10387801Y-17393222D01*
X10387801Y-17393222D02*
X10387801Y-17497984D01*
X10387801Y-17393222D02*
X10397325Y-17374174D01*
X10397325Y-17374174D02*
X10416372Y-17364650D01*
X10416372Y-17364650D02*
X10444944Y-17364650D01*
X10444944Y-17364650D02*
X10463991Y-17374174D01*
X10463991Y-17374174D02*
X10473515Y-17393222D01*
X10473515Y-17393222D02*
X10473515Y-17497984D01*
X10863991Y-17288460D02*
X10692563Y-17545603D01*
X11121134Y-17297984D02*
X11140182Y-17297984D01*
X11140182Y-17297984D02*
X11159229Y-17307508D01*
X11159229Y-17307508D02*
X11168753Y-17317031D01*
X11168753Y-17317031D02*
X11178277Y-17336079D01*
X11178277Y-17336079D02*
X11187801Y-17374174D01*
X11187801Y-17374174D02*
X11187801Y-17421793D01*
X11187801Y-17421793D02*
X11178277Y-17459889D01*
X11178277Y-17459889D02*
X11168753Y-17478936D01*
X11168753Y-17478936D02*
X11159229Y-17488460D01*
X11159229Y-17488460D02*
X11140182Y-17497984D01*
X11140182Y-17497984D02*
X11121134Y-17497984D01*
X11121134Y-17497984D02*
X11102087Y-17488460D01*
X11102087Y-17488460D02*
X11092563Y-17478936D01*
X11092563Y-17478936D02*
X11083039Y-17459889D01*
X11083039Y-17459889D02*
X11073515Y-17421793D01*
X11073515Y-17421793D02*
X11073515Y-17374174D01*
X11073515Y-17374174D02*
X11083039Y-17336079D01*
X11083039Y-17336079D02*
X11092563Y-17317031D01*
X11092563Y-17317031D02*
X11102087Y-17307508D01*
X11102087Y-17307508D02*
X11121134Y-17297984D01*
X11273515Y-17478936D02*
X11283039Y-17488460D01*
X11283039Y-17488460D02*
X11273515Y-17497984D01*
X11273515Y-17497984D02*
X11263991Y-17488460D01*
X11263991Y-17488460D02*
X11273515Y-17478936D01*
X11273515Y-17478936D02*
X11273515Y-17497984D01*
X11406848Y-17297984D02*
X11425896Y-17297984D01*
X11425896Y-17297984D02*
X11444944Y-17307508D01*
X11444944Y-17307508D02*
X11454467Y-17317031D01*
X11454467Y-17317031D02*
X11463991Y-17336079D01*
X11463991Y-17336079D02*
X11473515Y-17374174D01*
X11473515Y-17374174D02*
X11473515Y-17421793D01*
X11473515Y-17421793D02*
X11463991Y-17459889D01*
X11463991Y-17459889D02*
X11454467Y-17478936D01*
X11454467Y-17478936D02*
X11444944Y-17488460D01*
X11444944Y-17488460D02*
X11425896Y-17497984D01*
X11425896Y-17497984D02*
X11406848Y-17497984D01*
X11406848Y-17497984D02*
X11387801Y-17488460D01*
X11387801Y-17488460D02*
X11378277Y-17478936D01*
X11378277Y-17478936D02*
X11368753Y-17459889D01*
X11368753Y-17459889D02*
X11359229Y-17421793D01*
X11359229Y-17421793D02*
X11359229Y-17374174D01*
X11359229Y-17374174D02*
X11368753Y-17336079D01*
X11368753Y-17336079D02*
X11378277Y-17317031D01*
X11378277Y-17317031D02*
X11387801Y-17307508D01*
X11387801Y-17307508D02*
X11406848Y-17297984D01*
X11663991Y-17497984D02*
X11549706Y-17497984D01*
X11606848Y-17497984D02*
X11606848Y-17297984D01*
X11606848Y-17297984D02*
X11587801Y-17326555D01*
X11587801Y-17326555D02*
X11568753Y-17345603D01*
X11568753Y-17345603D02*
X11549706Y-17355127D01*
X11759229Y-17497984D02*
X11797325Y-17497984D01*
X11797325Y-17497984D02*
X11816372Y-17488460D01*
X11816372Y-17488460D02*
X11825896Y-17478936D01*
X11825896Y-17478936D02*
X11844944Y-17450365D01*
X11844944Y-17450365D02*
X11854467Y-17412270D01*
X11854467Y-17412270D02*
X11854467Y-17336079D01*
X11854467Y-17336079D02*
X11844944Y-17317031D01*
X11844944Y-17317031D02*
X11835420Y-17307508D01*
X11835420Y-17307508D02*
X11816372Y-17297984D01*
X11816372Y-17297984D02*
X11778277Y-17297984D01*
X11778277Y-17297984D02*
X11759229Y-17307508D01*
X11759229Y-17307508D02*
X11749706Y-17317031D01*
X11749706Y-17317031D02*
X11740182Y-17336079D01*
X11740182Y-17336079D02*
X11740182Y-17383698D01*
X11740182Y-17383698D02*
X11749706Y-17402746D01*
X11749706Y-17402746D02*
X11759229Y-17412270D01*
X11759229Y-17412270D02*
X11778277Y-17421793D01*
X11778277Y-17421793D02*
X11816372Y-17421793D01*
X11816372Y-17421793D02*
X11835420Y-17412270D01*
X11835420Y-17412270D02*
X11844944Y-17402746D01*
X11844944Y-17402746D02*
X11854467Y-17383698D01*
X11921134Y-17297984D02*
X12054467Y-17297984D01*
X12054467Y-17297984D02*
X11968753Y-17497984D01*
X12121134Y-17297984D02*
X12121134Y-17336079D01*
X12197325Y-17297984D02*
X12197325Y-17336079D01*
X12492563Y-17574174D02*
X12483039Y-17564650D01*
X12483039Y-17564650D02*
X12463991Y-17536079D01*
X12463991Y-17536079D02*
X12454468Y-17517031D01*
X12454468Y-17517031D02*
X12444944Y-17488460D01*
X12444944Y-17488460D02*
X12435420Y-17440841D01*
X12435420Y-17440841D02*
X12435420Y-17402746D01*
X12435420Y-17402746D02*
X12444944Y-17355127D01*
X12444944Y-17355127D02*
X12454468Y-17326555D01*
X12454468Y-17326555D02*
X12463991Y-17307508D01*
X12463991Y-17307508D02*
X12483039Y-17278936D01*
X12483039Y-17278936D02*
X12492563Y-17269412D01*
X12597325Y-17383698D02*
X12578277Y-17374174D01*
X12578277Y-17374174D02*
X12568753Y-17364650D01*
X12568753Y-17364650D02*
X12559229Y-17345603D01*
X12559229Y-17345603D02*
X12559229Y-17336079D01*
X12559229Y-17336079D02*
X12568753Y-17317031D01*
X12568753Y-17317031D02*
X12578277Y-17307508D01*
X12578277Y-17307508D02*
X12597325Y-17297984D01*
X12597325Y-17297984D02*
X12635420Y-17297984D01*
X12635420Y-17297984D02*
X12654468Y-17307508D01*
X12654468Y-17307508D02*
X12663991Y-17317031D01*
X12663991Y-17317031D02*
X12673515Y-17336079D01*
X12673515Y-17336079D02*
X12673515Y-17345603D01*
X12673515Y-17345603D02*
X12663991Y-17364650D01*
X12663991Y-17364650D02*
X12654468Y-17374174D01*
X12654468Y-17374174D02*
X12635420Y-17383698D01*
X12635420Y-17383698D02*
X12597325Y-17383698D01*
X12597325Y-17383698D02*
X12578277Y-17393222D01*
X12578277Y-17393222D02*
X12568753Y-17402746D01*
X12568753Y-17402746D02*
X12559229Y-17421793D01*
X12559229Y-17421793D02*
X12559229Y-17459889D01*
X12559229Y-17459889D02*
X12568753Y-17478936D01*
X12568753Y-17478936D02*
X12578277Y-17488460D01*
X12578277Y-17488460D02*
X12597325Y-17497984D01*
X12597325Y-17497984D02*
X12635420Y-17497984D01*
X12635420Y-17497984D02*
X12654468Y-17488460D01*
X12654468Y-17488460D02*
X12663991Y-17478936D01*
X12663991Y-17478936D02*
X12673515Y-17459889D01*
X12673515Y-17459889D02*
X12673515Y-17421793D01*
X12673515Y-17421793D02*
X12663991Y-17402746D01*
X12663991Y-17402746D02*
X12654468Y-17393222D01*
X12654468Y-17393222D02*
X12635420Y-17383698D01*
X12911610Y-17497984D02*
X12911610Y-17297984D01*
X12997325Y-17497984D02*
X12997325Y-17393222D01*
X12997325Y-17393222D02*
X12987801Y-17374174D01*
X12987801Y-17374174D02*
X12968753Y-17364650D01*
X12968753Y-17364650D02*
X12940182Y-17364650D01*
X12940182Y-17364650D02*
X12921134Y-17374174D01*
X12921134Y-17374174D02*
X12911610Y-17383698D01*
X13121134Y-17497984D02*
X13102087Y-17488460D01*
X13102087Y-17488460D02*
X13092563Y-17478936D01*
X13092563Y-17478936D02*
X13083039Y-17459889D01*
X13083039Y-17459889D02*
X13083039Y-17402746D01*
X13083039Y-17402746D02*
X13092563Y-17383698D01*
X13092563Y-17383698D02*
X13102087Y-17374174D01*
X13102087Y-17374174D02*
X13121134Y-17364650D01*
X13121134Y-17364650D02*
X13149706Y-17364650D01*
X13149706Y-17364650D02*
X13168753Y-17374174D01*
X13168753Y-17374174D02*
X13178277Y-17383698D01*
X13178277Y-17383698D02*
X13187801Y-17402746D01*
X13187801Y-17402746D02*
X13187801Y-17459889D01*
X13187801Y-17459889D02*
X13178277Y-17478936D01*
X13178277Y-17478936D02*
X13168753Y-17488460D01*
X13168753Y-17488460D02*
X13149706Y-17497984D01*
X13149706Y-17497984D02*
X13121134Y-17497984D01*
X13302087Y-17497984D02*
X13283039Y-17488460D01*
X13283039Y-17488460D02*
X13273515Y-17469412D01*
X13273515Y-17469412D02*
X13273515Y-17297984D01*
X13454468Y-17488460D02*
X13435420Y-17497984D01*
X13435420Y-17497984D02*
X13397325Y-17497984D01*
X13397325Y-17497984D02*
X13378277Y-17488460D01*
X13378277Y-17488460D02*
X13368753Y-17469412D01*
X13368753Y-17469412D02*
X13368753Y-17393222D01*
X13368753Y-17393222D02*
X13378277Y-17374174D01*
X13378277Y-17374174D02*
X13397325Y-17364650D01*
X13397325Y-17364650D02*
X13435420Y-17364650D01*
X13435420Y-17364650D02*
X13454468Y-17374174D01*
X13454468Y-17374174D02*
X13463991Y-17393222D01*
X13463991Y-17393222D02*
X13463991Y-17412270D01*
X13463991Y-17412270D02*
X13368753Y-17431317D01*
X13540182Y-17488460D02*
X13559230Y-17497984D01*
X13559230Y-17497984D02*
X13597325Y-17497984D01*
X13597325Y-17497984D02*
X13616372Y-17488460D01*
X13616372Y-17488460D02*
X13625896Y-17469412D01*
X13625896Y-17469412D02*
X13625896Y-17459889D01*
X13625896Y-17459889D02*
X13616372Y-17440841D01*
X13616372Y-17440841D02*
X13597325Y-17431317D01*
X13597325Y-17431317D02*
X13568753Y-17431317D01*
X13568753Y-17431317D02*
X13549706Y-17421793D01*
X13549706Y-17421793D02*
X13540182Y-17402746D01*
X13540182Y-17402746D02*
X13540182Y-17393222D01*
X13540182Y-17393222D02*
X13549706Y-17374174D01*
X13549706Y-17374174D02*
X13568753Y-17364650D01*
X13568753Y-17364650D02*
X13597325Y-17364650D01*
X13597325Y-17364650D02*
X13616372Y-17374174D01*
X13692563Y-17574174D02*
X13702087Y-17564650D01*
X13702087Y-17564650D02*
X13721134Y-17536079D01*
X13721134Y-17536079D02*
X13730658Y-17517031D01*
X13730658Y-17517031D02*
X13740182Y-17488460D01*
X13740182Y-17488460D02*
X13749706Y-17440841D01*
X13749706Y-17440841D02*
X13749706Y-17402746D01*
X13749706Y-17402746D02*
X13740182Y-17355127D01*
X13740182Y-17355127D02*
X13730658Y-17326555D01*
X13730658Y-17326555D02*
X13721134Y-17307508D01*
X13721134Y-17307508D02*
X13702087Y-17278936D01*
X13702087Y-17278936D02*
X13692563Y-17269412D01*
D12*
X8877500Y-17630500D02*
X8877500Y-17710500D01*
X8837500Y-17670500D02*
X8917500Y-17670500D01*
D11*
X9216372Y-17561984D02*
X9235420Y-17561984D01*
X9235420Y-17561984D02*
X9254467Y-17571508D01*
X9254467Y-17571508D02*
X9263991Y-17581031D01*
X9263991Y-17581031D02*
X9273515Y-17600079D01*
X9273515Y-17600079D02*
X9283039Y-17638174D01*
X9283039Y-17638174D02*
X9283039Y-17685793D01*
X9283039Y-17685793D02*
X9273515Y-17723889D01*
X9273515Y-17723889D02*
X9263991Y-17742936D01*
X9263991Y-17742936D02*
X9254467Y-17752460D01*
X9254467Y-17752460D02*
X9235420Y-17761984D01*
X9235420Y-17761984D02*
X9216372Y-17761984D01*
X9216372Y-17761984D02*
X9197324Y-17752460D01*
X9197324Y-17752460D02*
X9187801Y-17742936D01*
X9187801Y-17742936D02*
X9178277Y-17723889D01*
X9178277Y-17723889D02*
X9168753Y-17685793D01*
X9168753Y-17685793D02*
X9168753Y-17638174D01*
X9168753Y-17638174D02*
X9178277Y-17600079D01*
X9178277Y-17600079D02*
X9187801Y-17581031D01*
X9187801Y-17581031D02*
X9197324Y-17571508D01*
X9197324Y-17571508D02*
X9216372Y-17561984D01*
X9368753Y-17742936D02*
X9378277Y-17752460D01*
X9378277Y-17752460D02*
X9368753Y-17761984D01*
X9368753Y-17761984D02*
X9359229Y-17752460D01*
X9359229Y-17752460D02*
X9368753Y-17742936D01*
X9368753Y-17742936D02*
X9368753Y-17761984D01*
X9492563Y-17647698D02*
X9473515Y-17638174D01*
X9473515Y-17638174D02*
X9463991Y-17628650D01*
X9463991Y-17628650D02*
X9454467Y-17609603D01*
X9454467Y-17609603D02*
X9454467Y-17600079D01*
X9454467Y-17600079D02*
X9463991Y-17581031D01*
X9463991Y-17581031D02*
X9473515Y-17571508D01*
X9473515Y-17571508D02*
X9492563Y-17561984D01*
X9492563Y-17561984D02*
X9530658Y-17561984D01*
X9530658Y-17561984D02*
X9549705Y-17571508D01*
X9549705Y-17571508D02*
X9559229Y-17581031D01*
X9559229Y-17581031D02*
X9568753Y-17600079D01*
X9568753Y-17600079D02*
X9568753Y-17609603D01*
X9568753Y-17609603D02*
X9559229Y-17628650D01*
X9559229Y-17628650D02*
X9549705Y-17638174D01*
X9549705Y-17638174D02*
X9530658Y-17647698D01*
X9530658Y-17647698D02*
X9492563Y-17647698D01*
X9492563Y-17647698D02*
X9473515Y-17657222D01*
X9473515Y-17657222D02*
X9463991Y-17666746D01*
X9463991Y-17666746D02*
X9454467Y-17685793D01*
X9454467Y-17685793D02*
X9454467Y-17723889D01*
X9454467Y-17723889D02*
X9463991Y-17742936D01*
X9463991Y-17742936D02*
X9473515Y-17752460D01*
X9473515Y-17752460D02*
X9492563Y-17761984D01*
X9492563Y-17761984D02*
X9530658Y-17761984D01*
X9530658Y-17761984D02*
X9549705Y-17752460D01*
X9549705Y-17752460D02*
X9559229Y-17742936D01*
X9559229Y-17742936D02*
X9568753Y-17723889D01*
X9568753Y-17723889D02*
X9568753Y-17685793D01*
X9568753Y-17685793D02*
X9559229Y-17666746D01*
X9559229Y-17666746D02*
X9549705Y-17657222D01*
X9549705Y-17657222D02*
X9530658Y-17647698D01*
X9692563Y-17561984D02*
X9711610Y-17561984D01*
X9711610Y-17561984D02*
X9730658Y-17571508D01*
X9730658Y-17571508D02*
X9740182Y-17581031D01*
X9740182Y-17581031D02*
X9749705Y-17600079D01*
X9749705Y-17600079D02*
X9759229Y-17638174D01*
X9759229Y-17638174D02*
X9759229Y-17685793D01*
X9759229Y-17685793D02*
X9749705Y-17723889D01*
X9749705Y-17723889D02*
X9740182Y-17742936D01*
X9740182Y-17742936D02*
X9730658Y-17752460D01*
X9730658Y-17752460D02*
X9711610Y-17761984D01*
X9711610Y-17761984D02*
X9692563Y-17761984D01*
X9692563Y-17761984D02*
X9673515Y-17752460D01*
X9673515Y-17752460D02*
X9663991Y-17742936D01*
X9663991Y-17742936D02*
X9654467Y-17723889D01*
X9654467Y-17723889D02*
X9644944Y-17685793D01*
X9644944Y-17685793D02*
X9644944Y-17638174D01*
X9644944Y-17638174D02*
X9654467Y-17600079D01*
X9654467Y-17600079D02*
X9663991Y-17581031D01*
X9663991Y-17581031D02*
X9673515Y-17571508D01*
X9673515Y-17571508D02*
X9692563Y-17561984D01*
X9883039Y-17561984D02*
X9902086Y-17561984D01*
X9902086Y-17561984D02*
X9921134Y-17571508D01*
X9921134Y-17571508D02*
X9930658Y-17581031D01*
X9930658Y-17581031D02*
X9940182Y-17600079D01*
X9940182Y-17600079D02*
X9949705Y-17638174D01*
X9949705Y-17638174D02*
X9949705Y-17685793D01*
X9949705Y-17685793D02*
X9940182Y-17723889D01*
X9940182Y-17723889D02*
X9930658Y-17742936D01*
X9930658Y-17742936D02*
X9921134Y-17752460D01*
X9921134Y-17752460D02*
X9902086Y-17761984D01*
X9902086Y-17761984D02*
X9883039Y-17761984D01*
X9883039Y-17761984D02*
X9863991Y-17752460D01*
X9863991Y-17752460D02*
X9854467Y-17742936D01*
X9854467Y-17742936D02*
X9844944Y-17723889D01*
X9844944Y-17723889D02*
X9835420Y-17685793D01*
X9835420Y-17685793D02*
X9835420Y-17638174D01*
X9835420Y-17638174D02*
X9844944Y-17600079D01*
X9844944Y-17600079D02*
X9854467Y-17581031D01*
X9854467Y-17581031D02*
X9863991Y-17571508D01*
X9863991Y-17571508D02*
X9883039Y-17561984D01*
X10035420Y-17761984D02*
X10035420Y-17628650D01*
X10035420Y-17647698D02*
X10044944Y-17638174D01*
X10044944Y-17638174D02*
X10063991Y-17628650D01*
X10063991Y-17628650D02*
X10092563Y-17628650D01*
X10092563Y-17628650D02*
X10111610Y-17638174D01*
X10111610Y-17638174D02*
X10121134Y-17657222D01*
X10121134Y-17657222D02*
X10121134Y-17761984D01*
X10121134Y-17657222D02*
X10130658Y-17638174D01*
X10130658Y-17638174D02*
X10149705Y-17628650D01*
X10149705Y-17628650D02*
X10178277Y-17628650D01*
X10178277Y-17628650D02*
X10197325Y-17638174D01*
X10197325Y-17638174D02*
X10206848Y-17657222D01*
X10206848Y-17657222D02*
X10206848Y-17761984D01*
X10302086Y-17761984D02*
X10302086Y-17628650D01*
X10302086Y-17647698D02*
X10311610Y-17638174D01*
X10311610Y-17638174D02*
X10330658Y-17628650D01*
X10330658Y-17628650D02*
X10359229Y-17628650D01*
X10359229Y-17628650D02*
X10378277Y-17638174D01*
X10378277Y-17638174D02*
X10387801Y-17657222D01*
X10387801Y-17657222D02*
X10387801Y-17761984D01*
X10387801Y-17657222D02*
X10397325Y-17638174D01*
X10397325Y-17638174D02*
X10416372Y-17628650D01*
X10416372Y-17628650D02*
X10444944Y-17628650D01*
X10444944Y-17628650D02*
X10463991Y-17638174D01*
X10463991Y-17638174D02*
X10473515Y-17657222D01*
X10473515Y-17657222D02*
X10473515Y-17761984D01*
X10863991Y-17552460D02*
X10692563Y-17809603D01*
X11121134Y-17561984D02*
X11140182Y-17561984D01*
X11140182Y-17561984D02*
X11159229Y-17571508D01*
X11159229Y-17571508D02*
X11168753Y-17581031D01*
X11168753Y-17581031D02*
X11178277Y-17600079D01*
X11178277Y-17600079D02*
X11187801Y-17638174D01*
X11187801Y-17638174D02*
X11187801Y-17685793D01*
X11187801Y-17685793D02*
X11178277Y-17723889D01*
X11178277Y-17723889D02*
X11168753Y-17742936D01*
X11168753Y-17742936D02*
X11159229Y-17752460D01*
X11159229Y-17752460D02*
X11140182Y-17761984D01*
X11140182Y-17761984D02*
X11121134Y-17761984D01*
X11121134Y-17761984D02*
X11102087Y-17752460D01*
X11102087Y-17752460D02*
X11092563Y-17742936D01*
X11092563Y-17742936D02*
X11083039Y-17723889D01*
X11083039Y-17723889D02*
X11073515Y-17685793D01*
X11073515Y-17685793D02*
X11073515Y-17638174D01*
X11073515Y-17638174D02*
X11083039Y-17600079D01*
X11083039Y-17600079D02*
X11092563Y-17581031D01*
X11092563Y-17581031D02*
X11102087Y-17571508D01*
X11102087Y-17571508D02*
X11121134Y-17561984D01*
X11273515Y-17742936D02*
X11283039Y-17752460D01*
X11283039Y-17752460D02*
X11273515Y-17761984D01*
X11273515Y-17761984D02*
X11263991Y-17752460D01*
X11263991Y-17752460D02*
X11273515Y-17742936D01*
X11273515Y-17742936D02*
X11273515Y-17761984D01*
X11406848Y-17561984D02*
X11425896Y-17561984D01*
X11425896Y-17561984D02*
X11444944Y-17571508D01*
X11444944Y-17571508D02*
X11454467Y-17581031D01*
X11454467Y-17581031D02*
X11463991Y-17600079D01*
X11463991Y-17600079D02*
X11473515Y-17638174D01*
X11473515Y-17638174D02*
X11473515Y-17685793D01*
X11473515Y-17685793D02*
X11463991Y-17723889D01*
X11463991Y-17723889D02*
X11454467Y-17742936D01*
X11454467Y-17742936D02*
X11444944Y-17752460D01*
X11444944Y-17752460D02*
X11425896Y-17761984D01*
X11425896Y-17761984D02*
X11406848Y-17761984D01*
X11406848Y-17761984D02*
X11387801Y-17752460D01*
X11387801Y-17752460D02*
X11378277Y-17742936D01*
X11378277Y-17742936D02*
X11368753Y-17723889D01*
X11368753Y-17723889D02*
X11359229Y-17685793D01*
X11359229Y-17685793D02*
X11359229Y-17638174D01*
X11359229Y-17638174D02*
X11368753Y-17600079D01*
X11368753Y-17600079D02*
X11378277Y-17581031D01*
X11378277Y-17581031D02*
X11387801Y-17571508D01*
X11387801Y-17571508D02*
X11406848Y-17561984D01*
X11540182Y-17561984D02*
X11663991Y-17561984D01*
X11663991Y-17561984D02*
X11597325Y-17638174D01*
X11597325Y-17638174D02*
X11625896Y-17638174D01*
X11625896Y-17638174D02*
X11644944Y-17647698D01*
X11644944Y-17647698D02*
X11654467Y-17657222D01*
X11654467Y-17657222D02*
X11663991Y-17676270D01*
X11663991Y-17676270D02*
X11663991Y-17723889D01*
X11663991Y-17723889D02*
X11654467Y-17742936D01*
X11654467Y-17742936D02*
X11644944Y-17752460D01*
X11644944Y-17752460D02*
X11625896Y-17761984D01*
X11625896Y-17761984D02*
X11568753Y-17761984D01*
X11568753Y-17761984D02*
X11549706Y-17752460D01*
X11549706Y-17752460D02*
X11540182Y-17742936D01*
X11854467Y-17761984D02*
X11740182Y-17761984D01*
X11797325Y-17761984D02*
X11797325Y-17561984D01*
X11797325Y-17561984D02*
X11778277Y-17590555D01*
X11778277Y-17590555D02*
X11759229Y-17609603D01*
X11759229Y-17609603D02*
X11740182Y-17619127D01*
X12035420Y-17561984D02*
X11940182Y-17561984D01*
X11940182Y-17561984D02*
X11930658Y-17657222D01*
X11930658Y-17657222D02*
X11940182Y-17647698D01*
X11940182Y-17647698D02*
X11959229Y-17638174D01*
X11959229Y-17638174D02*
X12006848Y-17638174D01*
X12006848Y-17638174D02*
X12025896Y-17647698D01*
X12025896Y-17647698D02*
X12035420Y-17657222D01*
X12035420Y-17657222D02*
X12044944Y-17676270D01*
X12044944Y-17676270D02*
X12044944Y-17723889D01*
X12044944Y-17723889D02*
X12035420Y-17742936D01*
X12035420Y-17742936D02*
X12025896Y-17752460D01*
X12025896Y-17752460D02*
X12006848Y-17761984D01*
X12006848Y-17761984D02*
X11959229Y-17761984D01*
X11959229Y-17761984D02*
X11940182Y-17752460D01*
X11940182Y-17752460D02*
X11930658Y-17742936D01*
X12121134Y-17561984D02*
X12121134Y-17600079D01*
X12197325Y-17561984D02*
X12197325Y-17600079D01*
X12492563Y-17838174D02*
X12483039Y-17828650D01*
X12483039Y-17828650D02*
X12463991Y-17800079D01*
X12463991Y-17800079D02*
X12454468Y-17781031D01*
X12454468Y-17781031D02*
X12444944Y-17752460D01*
X12444944Y-17752460D02*
X12435420Y-17704841D01*
X12435420Y-17704841D02*
X12435420Y-17666746D01*
X12435420Y-17666746D02*
X12444944Y-17619127D01*
X12444944Y-17619127D02*
X12454468Y-17590555D01*
X12454468Y-17590555D02*
X12463991Y-17571508D01*
X12463991Y-17571508D02*
X12483039Y-17542936D01*
X12483039Y-17542936D02*
X12492563Y-17533412D01*
X12606848Y-17561984D02*
X12625896Y-17561984D01*
X12625896Y-17561984D02*
X12644944Y-17571508D01*
X12644944Y-17571508D02*
X12654468Y-17581031D01*
X12654468Y-17581031D02*
X12663991Y-17600079D01*
X12663991Y-17600079D02*
X12673515Y-17638174D01*
X12673515Y-17638174D02*
X12673515Y-17685793D01*
X12673515Y-17685793D02*
X12663991Y-17723889D01*
X12663991Y-17723889D02*
X12654468Y-17742936D01*
X12654468Y-17742936D02*
X12644944Y-17752460D01*
X12644944Y-17752460D02*
X12625896Y-17761984D01*
X12625896Y-17761984D02*
X12606848Y-17761984D01*
X12606848Y-17761984D02*
X12587801Y-17752460D01*
X12587801Y-17752460D02*
X12578277Y-17742936D01*
X12578277Y-17742936D02*
X12568753Y-17723889D01*
X12568753Y-17723889D02*
X12559229Y-17685793D01*
X12559229Y-17685793D02*
X12559229Y-17638174D01*
X12559229Y-17638174D02*
X12568753Y-17600079D01*
X12568753Y-17600079D02*
X12578277Y-17581031D01*
X12578277Y-17581031D02*
X12587801Y-17571508D01*
X12587801Y-17571508D02*
X12606848Y-17561984D01*
X12911610Y-17761984D02*
X12911610Y-17561984D01*
X12997325Y-17761984D02*
X12997325Y-17657222D01*
X12997325Y-17657222D02*
X12987801Y-17638174D01*
X12987801Y-17638174D02*
X12968753Y-17628650D01*
X12968753Y-17628650D02*
X12940182Y-17628650D01*
X12940182Y-17628650D02*
X12921134Y-17638174D01*
X12921134Y-17638174D02*
X12911610Y-17647698D01*
X13121134Y-17761984D02*
X13102087Y-17752460D01*
X13102087Y-17752460D02*
X13092563Y-17742936D01*
X13092563Y-17742936D02*
X13083039Y-17723889D01*
X13083039Y-17723889D02*
X13083039Y-17666746D01*
X13083039Y-17666746D02*
X13092563Y-17647698D01*
X13092563Y-17647698D02*
X13102087Y-17638174D01*
X13102087Y-17638174D02*
X13121134Y-17628650D01*
X13121134Y-17628650D02*
X13149706Y-17628650D01*
X13149706Y-17628650D02*
X13168753Y-17638174D01*
X13168753Y-17638174D02*
X13178277Y-17647698D01*
X13178277Y-17647698D02*
X13187801Y-17666746D01*
X13187801Y-17666746D02*
X13187801Y-17723889D01*
X13187801Y-17723889D02*
X13178277Y-17742936D01*
X13178277Y-17742936D02*
X13168753Y-17752460D01*
X13168753Y-17752460D02*
X13149706Y-17761984D01*
X13149706Y-17761984D02*
X13121134Y-17761984D01*
X13302087Y-17761984D02*
X13283039Y-17752460D01*
X13283039Y-17752460D02*
X13273515Y-17733412D01*
X13273515Y-17733412D02*
X13273515Y-17561984D01*
X13454468Y-17752460D02*
X13435420Y-17761984D01*
X13435420Y-17761984D02*
X13397325Y-17761984D01*
X13397325Y-17761984D02*
X13378277Y-17752460D01*
X13378277Y-17752460D02*
X13368753Y-17733412D01*
X13368753Y-17733412D02*
X13368753Y-17657222D01*
X13368753Y-17657222D02*
X13378277Y-17638174D01*
X13378277Y-17638174D02*
X13397325Y-17628650D01*
X13397325Y-17628650D02*
X13435420Y-17628650D01*
X13435420Y-17628650D02*
X13454468Y-17638174D01*
X13454468Y-17638174D02*
X13463991Y-17657222D01*
X13463991Y-17657222D02*
X13463991Y-17676270D01*
X13463991Y-17676270D02*
X13368753Y-17695317D01*
X13540182Y-17752460D02*
X13559230Y-17761984D01*
X13559230Y-17761984D02*
X13597325Y-17761984D01*
X13597325Y-17761984D02*
X13616372Y-17752460D01*
X13616372Y-17752460D02*
X13625896Y-17733412D01*
X13625896Y-17733412D02*
X13625896Y-17723889D01*
X13625896Y-17723889D02*
X13616372Y-17704841D01*
X13616372Y-17704841D02*
X13597325Y-17695317D01*
X13597325Y-17695317D02*
X13568753Y-17695317D01*
X13568753Y-17695317D02*
X13549706Y-17685793D01*
X13549706Y-17685793D02*
X13540182Y-17666746D01*
X13540182Y-17666746D02*
X13540182Y-17657222D01*
X13540182Y-17657222D02*
X13549706Y-17638174D01*
X13549706Y-17638174D02*
X13568753Y-17628650D01*
X13568753Y-17628650D02*
X13597325Y-17628650D01*
X13597325Y-17628650D02*
X13616372Y-17638174D01*
X13863992Y-17685793D02*
X14016373Y-17685793D01*
X13940182Y-17761984D02*
X13940182Y-17609603D01*
X14359230Y-17561984D02*
X14263992Y-17561984D01*
X14263992Y-17561984D02*
X14254468Y-17657222D01*
X14254468Y-17657222D02*
X14263992Y-17647698D01*
X14263992Y-17647698D02*
X14283039Y-17638174D01*
X14283039Y-17638174D02*
X14330658Y-17638174D01*
X14330658Y-17638174D02*
X14349706Y-17647698D01*
X14349706Y-17647698D02*
X14359230Y-17657222D01*
X14359230Y-17657222D02*
X14368753Y-17676270D01*
X14368753Y-17676270D02*
X14368753Y-17723889D01*
X14368753Y-17723889D02*
X14359230Y-17742936D01*
X14359230Y-17742936D02*
X14349706Y-17752460D01*
X14349706Y-17752460D02*
X14330658Y-17761984D01*
X14330658Y-17761984D02*
X14283039Y-17761984D01*
X14283039Y-17761984D02*
X14263992Y-17752460D01*
X14263992Y-17752460D02*
X14254468Y-17742936D01*
X14597325Y-17752460D02*
X14616373Y-17761984D01*
X14616373Y-17761984D02*
X14654468Y-17761984D01*
X14654468Y-17761984D02*
X14673515Y-17752460D01*
X14673515Y-17752460D02*
X14683039Y-17733412D01*
X14683039Y-17733412D02*
X14683039Y-17723889D01*
X14683039Y-17723889D02*
X14673515Y-17704841D01*
X14673515Y-17704841D02*
X14654468Y-17695317D01*
X14654468Y-17695317D02*
X14625896Y-17695317D01*
X14625896Y-17695317D02*
X14606849Y-17685793D01*
X14606849Y-17685793D02*
X14597325Y-17666746D01*
X14597325Y-17666746D02*
X14597325Y-17657222D01*
X14597325Y-17657222D02*
X14606849Y-17638174D01*
X14606849Y-17638174D02*
X14625896Y-17628650D01*
X14625896Y-17628650D02*
X14654468Y-17628650D01*
X14654468Y-17628650D02*
X14673515Y-17638174D01*
X14797325Y-17761984D02*
X14778277Y-17752460D01*
X14778277Y-17752460D02*
X14768754Y-17733412D01*
X14768754Y-17733412D02*
X14768754Y-17561984D01*
X14902087Y-17761984D02*
X14883039Y-17752460D01*
X14883039Y-17752460D02*
X14873515Y-17742936D01*
X14873515Y-17742936D02*
X14863992Y-17723889D01*
X14863992Y-17723889D02*
X14863992Y-17666746D01*
X14863992Y-17666746D02*
X14873515Y-17647698D01*
X14873515Y-17647698D02*
X14883039Y-17638174D01*
X14883039Y-17638174D02*
X14902087Y-17628650D01*
X14902087Y-17628650D02*
X14930658Y-17628650D01*
X14930658Y-17628650D02*
X14949706Y-17638174D01*
X14949706Y-17638174D02*
X14959230Y-17647698D01*
X14959230Y-17647698D02*
X14968754Y-17666746D01*
X14968754Y-17666746D02*
X14968754Y-17723889D01*
X14968754Y-17723889D02*
X14959230Y-17742936D01*
X14959230Y-17742936D02*
X14949706Y-17752460D01*
X14949706Y-17752460D02*
X14930658Y-17761984D01*
X14930658Y-17761984D02*
X14902087Y-17761984D01*
X15025896Y-17628650D02*
X15102087Y-17628650D01*
X15054468Y-17561984D02*
X15054468Y-17733412D01*
X15054468Y-17733412D02*
X15063992Y-17752460D01*
X15063992Y-17752460D02*
X15083039Y-17761984D01*
X15083039Y-17761984D02*
X15102087Y-17761984D01*
X15159230Y-17752460D02*
X15178277Y-17761984D01*
X15178277Y-17761984D02*
X15216373Y-17761984D01*
X15216373Y-17761984D02*
X15235420Y-17752460D01*
X15235420Y-17752460D02*
X15244944Y-17733412D01*
X15244944Y-17733412D02*
X15244944Y-17723889D01*
X15244944Y-17723889D02*
X15235420Y-17704841D01*
X15235420Y-17704841D02*
X15216373Y-17695317D01*
X15216373Y-17695317D02*
X15187801Y-17695317D01*
X15187801Y-17695317D02*
X15168754Y-17685793D01*
X15168754Y-17685793D02*
X15159230Y-17666746D01*
X15159230Y-17666746D02*
X15159230Y-17657222D01*
X15159230Y-17657222D02*
X15168754Y-17638174D01*
X15168754Y-17638174D02*
X15187801Y-17628650D01*
X15187801Y-17628650D02*
X15216373Y-17628650D01*
X15216373Y-17628650D02*
X15235420Y-17638174D01*
X15311611Y-17838174D02*
X15321135Y-17828650D01*
X15321135Y-17828650D02*
X15340182Y-17800079D01*
X15340182Y-17800079D02*
X15349706Y-17781031D01*
X15349706Y-17781031D02*
X15359230Y-17752460D01*
X15359230Y-17752460D02*
X15368754Y-17704841D01*
X15368754Y-17704841D02*
X15368754Y-17666746D01*
X15368754Y-17666746D02*
X15359230Y-17619127D01*
X15359230Y-17619127D02*
X15349706Y-17590555D01*
X15349706Y-17590555D02*
X15340182Y-17571508D01*
X15340182Y-17571508D02*
X15321135Y-17542936D01*
X15321135Y-17542936D02*
X15311611Y-17533412D01*
D12*
X8904853Y-17965033D02*
X8904853Y-17903967D01*
X8843787Y-17903967D01*
X8843787Y-17965033D01*
X8904853Y-17965033D01*
D11*
X9216372Y-17825984D02*
X9235420Y-17825984D01*
X9235420Y-17825984D02*
X9254467Y-17835508D01*
X9254467Y-17835508D02*
X9263991Y-17845031D01*
X9263991Y-17845031D02*
X9273515Y-17864079D01*
X9273515Y-17864079D02*
X9283039Y-17902174D01*
X9283039Y-17902174D02*
X9283039Y-17949793D01*
X9283039Y-17949793D02*
X9273515Y-17987889D01*
X9273515Y-17987889D02*
X9263991Y-18006936D01*
X9263991Y-18006936D02*
X9254467Y-18016460D01*
X9254467Y-18016460D02*
X9235420Y-18025984D01*
X9235420Y-18025984D02*
X9216372Y-18025984D01*
X9216372Y-18025984D02*
X9197324Y-18016460D01*
X9197324Y-18016460D02*
X9187801Y-18006936D01*
X9187801Y-18006936D02*
X9178277Y-17987889D01*
X9178277Y-17987889D02*
X9168753Y-17949793D01*
X9168753Y-17949793D02*
X9168753Y-17902174D01*
X9168753Y-17902174D02*
X9178277Y-17864079D01*
X9178277Y-17864079D02*
X9187801Y-17845031D01*
X9187801Y-17845031D02*
X9197324Y-17835508D01*
X9197324Y-17835508D02*
X9216372Y-17825984D01*
X9368753Y-18006936D02*
X9378277Y-18016460D01*
X9378277Y-18016460D02*
X9368753Y-18025984D01*
X9368753Y-18025984D02*
X9359229Y-18016460D01*
X9359229Y-18016460D02*
X9368753Y-18006936D01*
X9368753Y-18006936D02*
X9368753Y-18025984D01*
X9492563Y-17911698D02*
X9473515Y-17902174D01*
X9473515Y-17902174D02*
X9463991Y-17892650D01*
X9463991Y-17892650D02*
X9454467Y-17873603D01*
X9454467Y-17873603D02*
X9454467Y-17864079D01*
X9454467Y-17864079D02*
X9463991Y-17845031D01*
X9463991Y-17845031D02*
X9473515Y-17835508D01*
X9473515Y-17835508D02*
X9492563Y-17825984D01*
X9492563Y-17825984D02*
X9530658Y-17825984D01*
X9530658Y-17825984D02*
X9549705Y-17835508D01*
X9549705Y-17835508D02*
X9559229Y-17845031D01*
X9559229Y-17845031D02*
X9568753Y-17864079D01*
X9568753Y-17864079D02*
X9568753Y-17873603D01*
X9568753Y-17873603D02*
X9559229Y-17892650D01*
X9559229Y-17892650D02*
X9549705Y-17902174D01*
X9549705Y-17902174D02*
X9530658Y-17911698D01*
X9530658Y-17911698D02*
X9492563Y-17911698D01*
X9492563Y-17911698D02*
X9473515Y-17921222D01*
X9473515Y-17921222D02*
X9463991Y-17930746D01*
X9463991Y-17930746D02*
X9454467Y-17949793D01*
X9454467Y-17949793D02*
X9454467Y-17987889D01*
X9454467Y-17987889D02*
X9463991Y-18006936D01*
X9463991Y-18006936D02*
X9473515Y-18016460D01*
X9473515Y-18016460D02*
X9492563Y-18025984D01*
X9492563Y-18025984D02*
X9530658Y-18025984D01*
X9530658Y-18025984D02*
X9549705Y-18016460D01*
X9549705Y-18016460D02*
X9559229Y-18006936D01*
X9559229Y-18006936D02*
X9568753Y-17987889D01*
X9568753Y-17987889D02*
X9568753Y-17949793D01*
X9568753Y-17949793D02*
X9559229Y-17930746D01*
X9559229Y-17930746D02*
X9549705Y-17921222D01*
X9549705Y-17921222D02*
X9530658Y-17911698D01*
X9740182Y-17825984D02*
X9702086Y-17825984D01*
X9702086Y-17825984D02*
X9683039Y-17835508D01*
X9683039Y-17835508D02*
X9673515Y-17845031D01*
X9673515Y-17845031D02*
X9654467Y-17873603D01*
X9654467Y-17873603D02*
X9644944Y-17911698D01*
X9644944Y-17911698D02*
X9644944Y-17987889D01*
X9644944Y-17987889D02*
X9654467Y-18006936D01*
X9654467Y-18006936D02*
X9663991Y-18016460D01*
X9663991Y-18016460D02*
X9683039Y-18025984D01*
X9683039Y-18025984D02*
X9721134Y-18025984D01*
X9721134Y-18025984D02*
X9740182Y-18016460D01*
X9740182Y-18016460D02*
X9749705Y-18006936D01*
X9749705Y-18006936D02*
X9759229Y-17987889D01*
X9759229Y-17987889D02*
X9759229Y-17940270D01*
X9759229Y-17940270D02*
X9749705Y-17921222D01*
X9749705Y-17921222D02*
X9740182Y-17911698D01*
X9740182Y-17911698D02*
X9721134Y-17902174D01*
X9721134Y-17902174D02*
X9683039Y-17902174D01*
X9683039Y-17902174D02*
X9663991Y-17911698D01*
X9663991Y-17911698D02*
X9654467Y-17921222D01*
X9654467Y-17921222D02*
X9644944Y-17940270D01*
X9930658Y-17892650D02*
X9930658Y-18025984D01*
X9883039Y-17816460D02*
X9835420Y-17959317D01*
X9835420Y-17959317D02*
X9959229Y-17959317D01*
X10035420Y-18025984D02*
X10035420Y-17892650D01*
X10035420Y-17911698D02*
X10044944Y-17902174D01*
X10044944Y-17902174D02*
X10063991Y-17892650D01*
X10063991Y-17892650D02*
X10092563Y-17892650D01*
X10092563Y-17892650D02*
X10111610Y-17902174D01*
X10111610Y-17902174D02*
X10121134Y-17921222D01*
X10121134Y-17921222D02*
X10121134Y-18025984D01*
X10121134Y-17921222D02*
X10130658Y-17902174D01*
X10130658Y-17902174D02*
X10149705Y-17892650D01*
X10149705Y-17892650D02*
X10178277Y-17892650D01*
X10178277Y-17892650D02*
X10197325Y-17902174D01*
X10197325Y-17902174D02*
X10206848Y-17921222D01*
X10206848Y-17921222D02*
X10206848Y-18025984D01*
X10302086Y-18025984D02*
X10302086Y-17892650D01*
X10302086Y-17911698D02*
X10311610Y-17902174D01*
X10311610Y-17902174D02*
X10330658Y-17892650D01*
X10330658Y-17892650D02*
X10359229Y-17892650D01*
X10359229Y-17892650D02*
X10378277Y-17902174D01*
X10378277Y-17902174D02*
X10387801Y-17921222D01*
X10387801Y-17921222D02*
X10387801Y-18025984D01*
X10387801Y-17921222D02*
X10397325Y-17902174D01*
X10397325Y-17902174D02*
X10416372Y-17892650D01*
X10416372Y-17892650D02*
X10444944Y-17892650D01*
X10444944Y-17892650D02*
X10463991Y-17902174D01*
X10463991Y-17902174D02*
X10473515Y-17921222D01*
X10473515Y-17921222D02*
X10473515Y-18025984D01*
X10863991Y-17816460D02*
X10692563Y-18073603D01*
X11121134Y-17825984D02*
X11140182Y-17825984D01*
X11140182Y-17825984D02*
X11159229Y-17835508D01*
X11159229Y-17835508D02*
X11168753Y-17845031D01*
X11168753Y-17845031D02*
X11178277Y-17864079D01*
X11178277Y-17864079D02*
X11187801Y-17902174D01*
X11187801Y-17902174D02*
X11187801Y-17949793D01*
X11187801Y-17949793D02*
X11178277Y-17987889D01*
X11178277Y-17987889D02*
X11168753Y-18006936D01*
X11168753Y-18006936D02*
X11159229Y-18016460D01*
X11159229Y-18016460D02*
X11140182Y-18025984D01*
X11140182Y-18025984D02*
X11121134Y-18025984D01*
X11121134Y-18025984D02*
X11102087Y-18016460D01*
X11102087Y-18016460D02*
X11092563Y-18006936D01*
X11092563Y-18006936D02*
X11083039Y-17987889D01*
X11083039Y-17987889D02*
X11073515Y-17949793D01*
X11073515Y-17949793D02*
X11073515Y-17902174D01*
X11073515Y-17902174D02*
X11083039Y-17864079D01*
X11083039Y-17864079D02*
X11092563Y-17845031D01*
X11092563Y-17845031D02*
X11102087Y-17835508D01*
X11102087Y-17835508D02*
X11121134Y-17825984D01*
X11273515Y-18006936D02*
X11283039Y-18016460D01*
X11283039Y-18016460D02*
X11273515Y-18025984D01*
X11273515Y-18025984D02*
X11263991Y-18016460D01*
X11263991Y-18016460D02*
X11273515Y-18006936D01*
X11273515Y-18006936D02*
X11273515Y-18025984D01*
X11406848Y-17825984D02*
X11425896Y-17825984D01*
X11425896Y-17825984D02*
X11444944Y-17835508D01*
X11444944Y-17835508D02*
X11454467Y-17845031D01*
X11454467Y-17845031D02*
X11463991Y-17864079D01*
X11463991Y-17864079D02*
X11473515Y-17902174D01*
X11473515Y-17902174D02*
X11473515Y-17949793D01*
X11473515Y-17949793D02*
X11463991Y-17987889D01*
X11463991Y-17987889D02*
X11454467Y-18006936D01*
X11454467Y-18006936D02*
X11444944Y-18016460D01*
X11444944Y-18016460D02*
X11425896Y-18025984D01*
X11425896Y-18025984D02*
X11406848Y-18025984D01*
X11406848Y-18025984D02*
X11387801Y-18016460D01*
X11387801Y-18016460D02*
X11378277Y-18006936D01*
X11378277Y-18006936D02*
X11368753Y-17987889D01*
X11368753Y-17987889D02*
X11359229Y-17949793D01*
X11359229Y-17949793D02*
X11359229Y-17902174D01*
X11359229Y-17902174D02*
X11368753Y-17864079D01*
X11368753Y-17864079D02*
X11378277Y-17845031D01*
X11378277Y-17845031D02*
X11387801Y-17835508D01*
X11387801Y-17835508D02*
X11406848Y-17825984D01*
X11540182Y-17825984D02*
X11663991Y-17825984D01*
X11663991Y-17825984D02*
X11597325Y-17902174D01*
X11597325Y-17902174D02*
X11625896Y-17902174D01*
X11625896Y-17902174D02*
X11644944Y-17911698D01*
X11644944Y-17911698D02*
X11654467Y-17921222D01*
X11654467Y-17921222D02*
X11663991Y-17940270D01*
X11663991Y-17940270D02*
X11663991Y-17987889D01*
X11663991Y-17987889D02*
X11654467Y-18006936D01*
X11654467Y-18006936D02*
X11644944Y-18016460D01*
X11644944Y-18016460D02*
X11625896Y-18025984D01*
X11625896Y-18025984D02*
X11568753Y-18025984D01*
X11568753Y-18025984D02*
X11549706Y-18016460D01*
X11549706Y-18016460D02*
X11540182Y-18006936D01*
X11835420Y-17892650D02*
X11835420Y-18025984D01*
X11787801Y-17816460D02*
X11740182Y-17959317D01*
X11740182Y-17959317D02*
X11863991Y-17959317D01*
X11978277Y-17825984D02*
X11997325Y-17825984D01*
X11997325Y-17825984D02*
X12016372Y-17835508D01*
X12016372Y-17835508D02*
X12025896Y-17845031D01*
X12025896Y-17845031D02*
X12035420Y-17864079D01*
X12035420Y-17864079D02*
X12044944Y-17902174D01*
X12044944Y-17902174D02*
X12044944Y-17949793D01*
X12044944Y-17949793D02*
X12035420Y-17987889D01*
X12035420Y-17987889D02*
X12025896Y-18006936D01*
X12025896Y-18006936D02*
X12016372Y-18016460D01*
X12016372Y-18016460D02*
X11997325Y-18025984D01*
X11997325Y-18025984D02*
X11978277Y-18025984D01*
X11978277Y-18025984D02*
X11959229Y-18016460D01*
X11959229Y-18016460D02*
X11949706Y-18006936D01*
X11949706Y-18006936D02*
X11940182Y-17987889D01*
X11940182Y-17987889D02*
X11930658Y-17949793D01*
X11930658Y-17949793D02*
X11930658Y-17902174D01*
X11930658Y-17902174D02*
X11940182Y-17864079D01*
X11940182Y-17864079D02*
X11949706Y-17845031D01*
X11949706Y-17845031D02*
X11959229Y-17835508D01*
X11959229Y-17835508D02*
X11978277Y-17825984D01*
X12121134Y-17825984D02*
X12121134Y-17864079D01*
X12197325Y-17825984D02*
X12197325Y-17864079D01*
X12492563Y-18102174D02*
X12483039Y-18092650D01*
X12483039Y-18092650D02*
X12463991Y-18064079D01*
X12463991Y-18064079D02*
X12454468Y-18045031D01*
X12454468Y-18045031D02*
X12444944Y-18016460D01*
X12444944Y-18016460D02*
X12435420Y-17968841D01*
X12435420Y-17968841D02*
X12435420Y-17930746D01*
X12435420Y-17930746D02*
X12444944Y-17883127D01*
X12444944Y-17883127D02*
X12454468Y-17854555D01*
X12454468Y-17854555D02*
X12463991Y-17835508D01*
X12463991Y-17835508D02*
X12483039Y-17806936D01*
X12483039Y-17806936D02*
X12492563Y-17797412D01*
X12654468Y-17892650D02*
X12654468Y-18025984D01*
X12606848Y-17816460D02*
X12559229Y-17959317D01*
X12559229Y-17959317D02*
X12683039Y-17959317D01*
X12911610Y-18025984D02*
X12911610Y-17825984D01*
X12997325Y-18025984D02*
X12997325Y-17921222D01*
X12997325Y-17921222D02*
X12987801Y-17902174D01*
X12987801Y-17902174D02*
X12968753Y-17892650D01*
X12968753Y-17892650D02*
X12940182Y-17892650D01*
X12940182Y-17892650D02*
X12921134Y-17902174D01*
X12921134Y-17902174D02*
X12911610Y-17911698D01*
X13121134Y-18025984D02*
X13102087Y-18016460D01*
X13102087Y-18016460D02*
X13092563Y-18006936D01*
X13092563Y-18006936D02*
X13083039Y-17987889D01*
X13083039Y-17987889D02*
X13083039Y-17930746D01*
X13083039Y-17930746D02*
X13092563Y-17911698D01*
X13092563Y-17911698D02*
X13102087Y-17902174D01*
X13102087Y-17902174D02*
X13121134Y-17892650D01*
X13121134Y-17892650D02*
X13149706Y-17892650D01*
X13149706Y-17892650D02*
X13168753Y-17902174D01*
X13168753Y-17902174D02*
X13178277Y-17911698D01*
X13178277Y-17911698D02*
X13187801Y-17930746D01*
X13187801Y-17930746D02*
X13187801Y-17987889D01*
X13187801Y-17987889D02*
X13178277Y-18006936D01*
X13178277Y-18006936D02*
X13168753Y-18016460D01*
X13168753Y-18016460D02*
X13149706Y-18025984D01*
X13149706Y-18025984D02*
X13121134Y-18025984D01*
X13302087Y-18025984D02*
X13283039Y-18016460D01*
X13283039Y-18016460D02*
X13273515Y-17997412D01*
X13273515Y-17997412D02*
X13273515Y-17825984D01*
X13454468Y-18016460D02*
X13435420Y-18025984D01*
X13435420Y-18025984D02*
X13397325Y-18025984D01*
X13397325Y-18025984D02*
X13378277Y-18016460D01*
X13378277Y-18016460D02*
X13368753Y-17997412D01*
X13368753Y-17997412D02*
X13368753Y-17921222D01*
X13368753Y-17921222D02*
X13378277Y-17902174D01*
X13378277Y-17902174D02*
X13397325Y-17892650D01*
X13397325Y-17892650D02*
X13435420Y-17892650D01*
X13435420Y-17892650D02*
X13454468Y-17902174D01*
X13454468Y-17902174D02*
X13463991Y-17921222D01*
X13463991Y-17921222D02*
X13463991Y-17940270D01*
X13463991Y-17940270D02*
X13368753Y-17959317D01*
X13540182Y-18016460D02*
X13559230Y-18025984D01*
X13559230Y-18025984D02*
X13597325Y-18025984D01*
X13597325Y-18025984D02*
X13616372Y-18016460D01*
X13616372Y-18016460D02*
X13625896Y-17997412D01*
X13625896Y-17997412D02*
X13625896Y-17987889D01*
X13625896Y-17987889D02*
X13616372Y-17968841D01*
X13616372Y-17968841D02*
X13597325Y-17959317D01*
X13597325Y-17959317D02*
X13568753Y-17959317D01*
X13568753Y-17959317D02*
X13549706Y-17949793D01*
X13549706Y-17949793D02*
X13540182Y-17930746D01*
X13540182Y-17930746D02*
X13540182Y-17921222D01*
X13540182Y-17921222D02*
X13549706Y-17902174D01*
X13549706Y-17902174D02*
X13568753Y-17892650D01*
X13568753Y-17892650D02*
X13597325Y-17892650D01*
X13597325Y-17892650D02*
X13616372Y-17902174D01*
X13692563Y-18102174D02*
X13702087Y-18092650D01*
X13702087Y-18092650D02*
X13721134Y-18064079D01*
X13721134Y-18064079D02*
X13730658Y-18045031D01*
X13730658Y-18045031D02*
X13740182Y-18016460D01*
X13740182Y-18016460D02*
X13749706Y-17968841D01*
X13749706Y-17968841D02*
X13749706Y-17930746D01*
X13749706Y-17930746D02*
X13740182Y-17883127D01*
X13740182Y-17883127D02*
X13730658Y-17854555D01*
X13730658Y-17854555D02*
X13721134Y-17835508D01*
X13721134Y-17835508D02*
X13702087Y-17806936D01*
X13702087Y-17806936D02*
X13692563Y-17797412D01*
D12*
X8870000Y-18246000D02*
X8917500Y-18198500D01*
X8870000Y-18151000D01*
X8822500Y-18198500D01*
X8870000Y-18246000D01*
D11*
X9216372Y-18089984D02*
X9235420Y-18089984D01*
X9235420Y-18089984D02*
X9254467Y-18099508D01*
X9254467Y-18099508D02*
X9263991Y-18109031D01*
X9263991Y-18109031D02*
X9273515Y-18128079D01*
X9273515Y-18128079D02*
X9283039Y-18166174D01*
X9283039Y-18166174D02*
X9283039Y-18213793D01*
X9283039Y-18213793D02*
X9273515Y-18251889D01*
X9273515Y-18251889D02*
X9263991Y-18270936D01*
X9263991Y-18270936D02*
X9254467Y-18280460D01*
X9254467Y-18280460D02*
X9235420Y-18289984D01*
X9235420Y-18289984D02*
X9216372Y-18289984D01*
X9216372Y-18289984D02*
X9197324Y-18280460D01*
X9197324Y-18280460D02*
X9187801Y-18270936D01*
X9187801Y-18270936D02*
X9178277Y-18251889D01*
X9178277Y-18251889D02*
X9168753Y-18213793D01*
X9168753Y-18213793D02*
X9168753Y-18166174D01*
X9168753Y-18166174D02*
X9178277Y-18128079D01*
X9178277Y-18128079D02*
X9187801Y-18109031D01*
X9187801Y-18109031D02*
X9197324Y-18099508D01*
X9197324Y-18099508D02*
X9216372Y-18089984D01*
X9368753Y-18270936D02*
X9378277Y-18280460D01*
X9378277Y-18280460D02*
X9368753Y-18289984D01*
X9368753Y-18289984D02*
X9359229Y-18280460D01*
X9359229Y-18280460D02*
X9368753Y-18270936D01*
X9368753Y-18270936D02*
X9368753Y-18289984D01*
X9473515Y-18289984D02*
X9511610Y-18289984D01*
X9511610Y-18289984D02*
X9530658Y-18280460D01*
X9530658Y-18280460D02*
X9540182Y-18270936D01*
X9540182Y-18270936D02*
X9559229Y-18242365D01*
X9559229Y-18242365D02*
X9568753Y-18204270D01*
X9568753Y-18204270D02*
X9568753Y-18128079D01*
X9568753Y-18128079D02*
X9559229Y-18109031D01*
X9559229Y-18109031D02*
X9549705Y-18099508D01*
X9549705Y-18099508D02*
X9530658Y-18089984D01*
X9530658Y-18089984D02*
X9492563Y-18089984D01*
X9492563Y-18089984D02*
X9473515Y-18099508D01*
X9473515Y-18099508D02*
X9463991Y-18109031D01*
X9463991Y-18109031D02*
X9454467Y-18128079D01*
X9454467Y-18128079D02*
X9454467Y-18175698D01*
X9454467Y-18175698D02*
X9463991Y-18194746D01*
X9463991Y-18194746D02*
X9473515Y-18204270D01*
X9473515Y-18204270D02*
X9492563Y-18213793D01*
X9492563Y-18213793D02*
X9530658Y-18213793D01*
X9530658Y-18213793D02*
X9549705Y-18204270D01*
X9549705Y-18204270D02*
X9559229Y-18194746D01*
X9559229Y-18194746D02*
X9568753Y-18175698D01*
X9749705Y-18089984D02*
X9654467Y-18089984D01*
X9654467Y-18089984D02*
X9644944Y-18185222D01*
X9644944Y-18185222D02*
X9654467Y-18175698D01*
X9654467Y-18175698D02*
X9673515Y-18166174D01*
X9673515Y-18166174D02*
X9721134Y-18166174D01*
X9721134Y-18166174D02*
X9740182Y-18175698D01*
X9740182Y-18175698D02*
X9749705Y-18185222D01*
X9749705Y-18185222D02*
X9759229Y-18204270D01*
X9759229Y-18204270D02*
X9759229Y-18251889D01*
X9759229Y-18251889D02*
X9749705Y-18270936D01*
X9749705Y-18270936D02*
X9740182Y-18280460D01*
X9740182Y-18280460D02*
X9721134Y-18289984D01*
X9721134Y-18289984D02*
X9673515Y-18289984D01*
X9673515Y-18289984D02*
X9654467Y-18280460D01*
X9654467Y-18280460D02*
X9644944Y-18270936D01*
X9883039Y-18089984D02*
X9902086Y-18089984D01*
X9902086Y-18089984D02*
X9921134Y-18099508D01*
X9921134Y-18099508D02*
X9930658Y-18109031D01*
X9930658Y-18109031D02*
X9940182Y-18128079D01*
X9940182Y-18128079D02*
X9949705Y-18166174D01*
X9949705Y-18166174D02*
X9949705Y-18213793D01*
X9949705Y-18213793D02*
X9940182Y-18251889D01*
X9940182Y-18251889D02*
X9930658Y-18270936D01*
X9930658Y-18270936D02*
X9921134Y-18280460D01*
X9921134Y-18280460D02*
X9902086Y-18289984D01*
X9902086Y-18289984D02*
X9883039Y-18289984D01*
X9883039Y-18289984D02*
X9863991Y-18280460D01*
X9863991Y-18280460D02*
X9854467Y-18270936D01*
X9854467Y-18270936D02*
X9844944Y-18251889D01*
X9844944Y-18251889D02*
X9835420Y-18213793D01*
X9835420Y-18213793D02*
X9835420Y-18166174D01*
X9835420Y-18166174D02*
X9844944Y-18128079D01*
X9844944Y-18128079D02*
X9854467Y-18109031D01*
X9854467Y-18109031D02*
X9863991Y-18099508D01*
X9863991Y-18099508D02*
X9883039Y-18089984D01*
X10035420Y-18289984D02*
X10035420Y-18156650D01*
X10035420Y-18175698D02*
X10044944Y-18166174D01*
X10044944Y-18166174D02*
X10063991Y-18156650D01*
X10063991Y-18156650D02*
X10092563Y-18156650D01*
X10092563Y-18156650D02*
X10111610Y-18166174D01*
X10111610Y-18166174D02*
X10121134Y-18185222D01*
X10121134Y-18185222D02*
X10121134Y-18289984D01*
X10121134Y-18185222D02*
X10130658Y-18166174D01*
X10130658Y-18166174D02*
X10149705Y-18156650D01*
X10149705Y-18156650D02*
X10178277Y-18156650D01*
X10178277Y-18156650D02*
X10197325Y-18166174D01*
X10197325Y-18166174D02*
X10206848Y-18185222D01*
X10206848Y-18185222D02*
X10206848Y-18289984D01*
X10302086Y-18289984D02*
X10302086Y-18156650D01*
X10302086Y-18175698D02*
X10311610Y-18166174D01*
X10311610Y-18166174D02*
X10330658Y-18156650D01*
X10330658Y-18156650D02*
X10359229Y-18156650D01*
X10359229Y-18156650D02*
X10378277Y-18166174D01*
X10378277Y-18166174D02*
X10387801Y-18185222D01*
X10387801Y-18185222D02*
X10387801Y-18289984D01*
X10387801Y-18185222D02*
X10397325Y-18166174D01*
X10397325Y-18166174D02*
X10416372Y-18156650D01*
X10416372Y-18156650D02*
X10444944Y-18156650D01*
X10444944Y-18156650D02*
X10463991Y-18166174D01*
X10463991Y-18166174D02*
X10473515Y-18185222D01*
X10473515Y-18185222D02*
X10473515Y-18289984D01*
X10863991Y-18080460D02*
X10692563Y-18337603D01*
X11121134Y-18089984D02*
X11140182Y-18089984D01*
X11140182Y-18089984D02*
X11159229Y-18099508D01*
X11159229Y-18099508D02*
X11168753Y-18109031D01*
X11168753Y-18109031D02*
X11178277Y-18128079D01*
X11178277Y-18128079D02*
X11187801Y-18166174D01*
X11187801Y-18166174D02*
X11187801Y-18213793D01*
X11187801Y-18213793D02*
X11178277Y-18251889D01*
X11178277Y-18251889D02*
X11168753Y-18270936D01*
X11168753Y-18270936D02*
X11159229Y-18280460D01*
X11159229Y-18280460D02*
X11140182Y-18289984D01*
X11140182Y-18289984D02*
X11121134Y-18289984D01*
X11121134Y-18289984D02*
X11102087Y-18280460D01*
X11102087Y-18280460D02*
X11092563Y-18270936D01*
X11092563Y-18270936D02*
X11083039Y-18251889D01*
X11083039Y-18251889D02*
X11073515Y-18213793D01*
X11073515Y-18213793D02*
X11073515Y-18166174D01*
X11073515Y-18166174D02*
X11083039Y-18128079D01*
X11083039Y-18128079D02*
X11092563Y-18109031D01*
X11092563Y-18109031D02*
X11102087Y-18099508D01*
X11102087Y-18099508D02*
X11121134Y-18089984D01*
X11273515Y-18270936D02*
X11283039Y-18280460D01*
X11283039Y-18280460D02*
X11273515Y-18289984D01*
X11273515Y-18289984D02*
X11263991Y-18280460D01*
X11263991Y-18280460D02*
X11273515Y-18270936D01*
X11273515Y-18270936D02*
X11273515Y-18289984D01*
X11406848Y-18089984D02*
X11425896Y-18089984D01*
X11425896Y-18089984D02*
X11444944Y-18099508D01*
X11444944Y-18099508D02*
X11454467Y-18109031D01*
X11454467Y-18109031D02*
X11463991Y-18128079D01*
X11463991Y-18128079D02*
X11473515Y-18166174D01*
X11473515Y-18166174D02*
X11473515Y-18213793D01*
X11473515Y-18213793D02*
X11463991Y-18251889D01*
X11463991Y-18251889D02*
X11454467Y-18270936D01*
X11454467Y-18270936D02*
X11444944Y-18280460D01*
X11444944Y-18280460D02*
X11425896Y-18289984D01*
X11425896Y-18289984D02*
X11406848Y-18289984D01*
X11406848Y-18289984D02*
X11387801Y-18280460D01*
X11387801Y-18280460D02*
X11378277Y-18270936D01*
X11378277Y-18270936D02*
X11368753Y-18251889D01*
X11368753Y-18251889D02*
X11359229Y-18213793D01*
X11359229Y-18213793D02*
X11359229Y-18166174D01*
X11359229Y-18166174D02*
X11368753Y-18128079D01*
X11368753Y-18128079D02*
X11378277Y-18109031D01*
X11378277Y-18109031D02*
X11387801Y-18099508D01*
X11387801Y-18099508D02*
X11406848Y-18089984D01*
X11540182Y-18089984D02*
X11663991Y-18089984D01*
X11663991Y-18089984D02*
X11597325Y-18166174D01*
X11597325Y-18166174D02*
X11625896Y-18166174D01*
X11625896Y-18166174D02*
X11644944Y-18175698D01*
X11644944Y-18175698D02*
X11654467Y-18185222D01*
X11654467Y-18185222D02*
X11663991Y-18204270D01*
X11663991Y-18204270D02*
X11663991Y-18251889D01*
X11663991Y-18251889D02*
X11654467Y-18270936D01*
X11654467Y-18270936D02*
X11644944Y-18280460D01*
X11644944Y-18280460D02*
X11625896Y-18289984D01*
X11625896Y-18289984D02*
X11568753Y-18289984D01*
X11568753Y-18289984D02*
X11549706Y-18280460D01*
X11549706Y-18280460D02*
X11540182Y-18270936D01*
X11730658Y-18089984D02*
X11863991Y-18089984D01*
X11863991Y-18089984D02*
X11778277Y-18289984D01*
X12025896Y-18156650D02*
X12025896Y-18289984D01*
X11978277Y-18080460D02*
X11930658Y-18223317D01*
X11930658Y-18223317D02*
X12054467Y-18223317D01*
X12121134Y-18089984D02*
X12121134Y-18128079D01*
X12197325Y-18089984D02*
X12197325Y-18128079D01*
X12492563Y-18366174D02*
X12483039Y-18356650D01*
X12483039Y-18356650D02*
X12463991Y-18328079D01*
X12463991Y-18328079D02*
X12454468Y-18309031D01*
X12454468Y-18309031D02*
X12444944Y-18280460D01*
X12444944Y-18280460D02*
X12435420Y-18232841D01*
X12435420Y-18232841D02*
X12435420Y-18194746D01*
X12435420Y-18194746D02*
X12444944Y-18147127D01*
X12444944Y-18147127D02*
X12454468Y-18118555D01*
X12454468Y-18118555D02*
X12463991Y-18099508D01*
X12463991Y-18099508D02*
X12483039Y-18070936D01*
X12483039Y-18070936D02*
X12492563Y-18061412D01*
X12654468Y-18156650D02*
X12654468Y-18289984D01*
X12606848Y-18080460D02*
X12559229Y-18223317D01*
X12559229Y-18223317D02*
X12683039Y-18223317D01*
X12911610Y-18289984D02*
X12911610Y-18089984D01*
X12997325Y-18289984D02*
X12997325Y-18185222D01*
X12997325Y-18185222D02*
X12987801Y-18166174D01*
X12987801Y-18166174D02*
X12968753Y-18156650D01*
X12968753Y-18156650D02*
X12940182Y-18156650D01*
X12940182Y-18156650D02*
X12921134Y-18166174D01*
X12921134Y-18166174D02*
X12911610Y-18175698D01*
X13121134Y-18289984D02*
X13102087Y-18280460D01*
X13102087Y-18280460D02*
X13092563Y-18270936D01*
X13092563Y-18270936D02*
X13083039Y-18251889D01*
X13083039Y-18251889D02*
X13083039Y-18194746D01*
X13083039Y-18194746D02*
X13092563Y-18175698D01*
X13092563Y-18175698D02*
X13102087Y-18166174D01*
X13102087Y-18166174D02*
X13121134Y-18156650D01*
X13121134Y-18156650D02*
X13149706Y-18156650D01*
X13149706Y-18156650D02*
X13168753Y-18166174D01*
X13168753Y-18166174D02*
X13178277Y-18175698D01*
X13178277Y-18175698D02*
X13187801Y-18194746D01*
X13187801Y-18194746D02*
X13187801Y-18251889D01*
X13187801Y-18251889D02*
X13178277Y-18270936D01*
X13178277Y-18270936D02*
X13168753Y-18280460D01*
X13168753Y-18280460D02*
X13149706Y-18289984D01*
X13149706Y-18289984D02*
X13121134Y-18289984D01*
X13302087Y-18289984D02*
X13283039Y-18280460D01*
X13283039Y-18280460D02*
X13273515Y-18261412D01*
X13273515Y-18261412D02*
X13273515Y-18089984D01*
X13454468Y-18280460D02*
X13435420Y-18289984D01*
X13435420Y-18289984D02*
X13397325Y-18289984D01*
X13397325Y-18289984D02*
X13378277Y-18280460D01*
X13378277Y-18280460D02*
X13368753Y-18261412D01*
X13368753Y-18261412D02*
X13368753Y-18185222D01*
X13368753Y-18185222D02*
X13378277Y-18166174D01*
X13378277Y-18166174D02*
X13397325Y-18156650D01*
X13397325Y-18156650D02*
X13435420Y-18156650D01*
X13435420Y-18156650D02*
X13454468Y-18166174D01*
X13454468Y-18166174D02*
X13463991Y-18185222D01*
X13463991Y-18185222D02*
X13463991Y-18204270D01*
X13463991Y-18204270D02*
X13368753Y-18223317D01*
X13540182Y-18280460D02*
X13559230Y-18289984D01*
X13559230Y-18289984D02*
X13597325Y-18289984D01*
X13597325Y-18289984D02*
X13616372Y-18280460D01*
X13616372Y-18280460D02*
X13625896Y-18261412D01*
X13625896Y-18261412D02*
X13625896Y-18251889D01*
X13625896Y-18251889D02*
X13616372Y-18232841D01*
X13616372Y-18232841D02*
X13597325Y-18223317D01*
X13597325Y-18223317D02*
X13568753Y-18223317D01*
X13568753Y-18223317D02*
X13549706Y-18213793D01*
X13549706Y-18213793D02*
X13540182Y-18194746D01*
X13540182Y-18194746D02*
X13540182Y-18185222D01*
X13540182Y-18185222D02*
X13549706Y-18166174D01*
X13549706Y-18166174D02*
X13568753Y-18156650D01*
X13568753Y-18156650D02*
X13597325Y-18156650D01*
X13597325Y-18156650D02*
X13616372Y-18166174D01*
X13692563Y-18366174D02*
X13702087Y-18356650D01*
X13702087Y-18356650D02*
X13721134Y-18328079D01*
X13721134Y-18328079D02*
X13730658Y-18309031D01*
X13730658Y-18309031D02*
X13740182Y-18280460D01*
X13740182Y-18280460D02*
X13749706Y-18232841D01*
X13749706Y-18232841D02*
X13749706Y-18194746D01*
X13749706Y-18194746D02*
X13740182Y-18147127D01*
X13740182Y-18147127D02*
X13730658Y-18118555D01*
X13730658Y-18118555D02*
X13721134Y-18099508D01*
X13721134Y-18099508D02*
X13702087Y-18070936D01*
X13702087Y-18070936D02*
X13692563Y-18061412D01*
D13*
X8767500Y-18387500D02*
X8917500Y-18537500D01*
X8917500Y-18387500D02*
X8767500Y-18537500D01*
X8917500Y-18462500D02*
G75*
G02*
X8767500Y-18462500I-75000J0D01*
G01*
X8767500Y-18462500D02*
G75*
G02*
X8917500Y-18462500I75000J0D01*
G01*
D11*
X9283039Y-18553984D02*
X9168753Y-18553984D01*
X9225896Y-18553984D02*
X9225896Y-18353984D01*
X9225896Y-18353984D02*
X9206848Y-18382555D01*
X9206848Y-18382555D02*
X9187801Y-18401603D01*
X9187801Y-18401603D02*
X9168753Y-18411127D01*
X9368753Y-18534936D02*
X9378277Y-18544460D01*
X9378277Y-18544460D02*
X9368753Y-18553984D01*
X9368753Y-18553984D02*
X9359229Y-18544460D01*
X9359229Y-18544460D02*
X9368753Y-18534936D01*
X9368753Y-18534936D02*
X9368753Y-18553984D01*
X9559229Y-18353984D02*
X9463991Y-18353984D01*
X9463991Y-18353984D02*
X9454467Y-18449222D01*
X9454467Y-18449222D02*
X9463991Y-18439698D01*
X9463991Y-18439698D02*
X9483039Y-18430174D01*
X9483039Y-18430174D02*
X9530658Y-18430174D01*
X9530658Y-18430174D02*
X9549705Y-18439698D01*
X9549705Y-18439698D02*
X9559229Y-18449222D01*
X9559229Y-18449222D02*
X9568753Y-18468270D01*
X9568753Y-18468270D02*
X9568753Y-18515889D01*
X9568753Y-18515889D02*
X9559229Y-18534936D01*
X9559229Y-18534936D02*
X9549705Y-18544460D01*
X9549705Y-18544460D02*
X9530658Y-18553984D01*
X9530658Y-18553984D02*
X9483039Y-18553984D01*
X9483039Y-18553984D02*
X9463991Y-18544460D01*
X9463991Y-18544460D02*
X9454467Y-18534936D01*
X9692563Y-18353984D02*
X9711610Y-18353984D01*
X9711610Y-18353984D02*
X9730658Y-18363508D01*
X9730658Y-18363508D02*
X9740182Y-18373031D01*
X9740182Y-18373031D02*
X9749705Y-18392079D01*
X9749705Y-18392079D02*
X9759229Y-18430174D01*
X9759229Y-18430174D02*
X9759229Y-18477793D01*
X9759229Y-18477793D02*
X9749705Y-18515889D01*
X9749705Y-18515889D02*
X9740182Y-18534936D01*
X9740182Y-18534936D02*
X9730658Y-18544460D01*
X9730658Y-18544460D02*
X9711610Y-18553984D01*
X9711610Y-18553984D02*
X9692563Y-18553984D01*
X9692563Y-18553984D02*
X9673515Y-18544460D01*
X9673515Y-18544460D02*
X9663991Y-18534936D01*
X9663991Y-18534936D02*
X9654467Y-18515889D01*
X9654467Y-18515889D02*
X9644944Y-18477793D01*
X9644944Y-18477793D02*
X9644944Y-18430174D01*
X9644944Y-18430174D02*
X9654467Y-18392079D01*
X9654467Y-18392079D02*
X9663991Y-18373031D01*
X9663991Y-18373031D02*
X9673515Y-18363508D01*
X9673515Y-18363508D02*
X9692563Y-18353984D01*
X9883039Y-18353984D02*
X9902086Y-18353984D01*
X9902086Y-18353984D02*
X9921134Y-18363508D01*
X9921134Y-18363508D02*
X9930658Y-18373031D01*
X9930658Y-18373031D02*
X9940182Y-18392079D01*
X9940182Y-18392079D02*
X9949705Y-18430174D01*
X9949705Y-18430174D02*
X9949705Y-18477793D01*
X9949705Y-18477793D02*
X9940182Y-18515889D01*
X9940182Y-18515889D02*
X9930658Y-18534936D01*
X9930658Y-18534936D02*
X9921134Y-18544460D01*
X9921134Y-18544460D02*
X9902086Y-18553984D01*
X9902086Y-18553984D02*
X9883039Y-18553984D01*
X9883039Y-18553984D02*
X9863991Y-18544460D01*
X9863991Y-18544460D02*
X9854467Y-18534936D01*
X9854467Y-18534936D02*
X9844944Y-18515889D01*
X9844944Y-18515889D02*
X9835420Y-18477793D01*
X9835420Y-18477793D02*
X9835420Y-18430174D01*
X9835420Y-18430174D02*
X9844944Y-18392079D01*
X9844944Y-18392079D02*
X9854467Y-18373031D01*
X9854467Y-18373031D02*
X9863991Y-18363508D01*
X9863991Y-18363508D02*
X9883039Y-18353984D01*
X10035420Y-18553984D02*
X10035420Y-18420650D01*
X10035420Y-18439698D02*
X10044944Y-18430174D01*
X10044944Y-18430174D02*
X10063991Y-18420650D01*
X10063991Y-18420650D02*
X10092563Y-18420650D01*
X10092563Y-18420650D02*
X10111610Y-18430174D01*
X10111610Y-18430174D02*
X10121134Y-18449222D01*
X10121134Y-18449222D02*
X10121134Y-18553984D01*
X10121134Y-18449222D02*
X10130658Y-18430174D01*
X10130658Y-18430174D02*
X10149705Y-18420650D01*
X10149705Y-18420650D02*
X10178277Y-18420650D01*
X10178277Y-18420650D02*
X10197325Y-18430174D01*
X10197325Y-18430174D02*
X10206848Y-18449222D01*
X10206848Y-18449222D02*
X10206848Y-18553984D01*
X10302086Y-18553984D02*
X10302086Y-18420650D01*
X10302086Y-18439698D02*
X10311610Y-18430174D01*
X10311610Y-18430174D02*
X10330658Y-18420650D01*
X10330658Y-18420650D02*
X10359229Y-18420650D01*
X10359229Y-18420650D02*
X10378277Y-18430174D01*
X10378277Y-18430174D02*
X10387801Y-18449222D01*
X10387801Y-18449222D02*
X10387801Y-18553984D01*
X10387801Y-18449222D02*
X10397325Y-18430174D01*
X10397325Y-18430174D02*
X10416372Y-18420650D01*
X10416372Y-18420650D02*
X10444944Y-18420650D01*
X10444944Y-18420650D02*
X10463991Y-18430174D01*
X10463991Y-18430174D02*
X10473515Y-18449222D01*
X10473515Y-18449222D02*
X10473515Y-18553984D01*
X10863991Y-18344460D02*
X10692563Y-18601603D01*
X11121134Y-18353984D02*
X11140182Y-18353984D01*
X11140182Y-18353984D02*
X11159229Y-18363508D01*
X11159229Y-18363508D02*
X11168753Y-18373031D01*
X11168753Y-18373031D02*
X11178277Y-18392079D01*
X11178277Y-18392079D02*
X11187801Y-18430174D01*
X11187801Y-18430174D02*
X11187801Y-18477793D01*
X11187801Y-18477793D02*
X11178277Y-18515889D01*
X11178277Y-18515889D02*
X11168753Y-18534936D01*
X11168753Y-18534936D02*
X11159229Y-18544460D01*
X11159229Y-18544460D02*
X11140182Y-18553984D01*
X11140182Y-18553984D02*
X11121134Y-18553984D01*
X11121134Y-18553984D02*
X11102087Y-18544460D01*
X11102087Y-18544460D02*
X11092563Y-18534936D01*
X11092563Y-18534936D02*
X11083039Y-18515889D01*
X11083039Y-18515889D02*
X11073515Y-18477793D01*
X11073515Y-18477793D02*
X11073515Y-18430174D01*
X11073515Y-18430174D02*
X11083039Y-18392079D01*
X11083039Y-18392079D02*
X11092563Y-18373031D01*
X11092563Y-18373031D02*
X11102087Y-18363508D01*
X11102087Y-18363508D02*
X11121134Y-18353984D01*
X11273515Y-18534936D02*
X11283039Y-18544460D01*
X11283039Y-18544460D02*
X11273515Y-18553984D01*
X11273515Y-18553984D02*
X11263991Y-18544460D01*
X11263991Y-18544460D02*
X11273515Y-18534936D01*
X11273515Y-18534936D02*
X11273515Y-18553984D01*
X11406848Y-18353984D02*
X11425896Y-18353984D01*
X11425896Y-18353984D02*
X11444944Y-18363508D01*
X11444944Y-18363508D02*
X11454467Y-18373031D01*
X11454467Y-18373031D02*
X11463991Y-18392079D01*
X11463991Y-18392079D02*
X11473515Y-18430174D01*
X11473515Y-18430174D02*
X11473515Y-18477793D01*
X11473515Y-18477793D02*
X11463991Y-18515889D01*
X11463991Y-18515889D02*
X11454467Y-18534936D01*
X11454467Y-18534936D02*
X11444944Y-18544460D01*
X11444944Y-18544460D02*
X11425896Y-18553984D01*
X11425896Y-18553984D02*
X11406848Y-18553984D01*
X11406848Y-18553984D02*
X11387801Y-18544460D01*
X11387801Y-18544460D02*
X11378277Y-18534936D01*
X11378277Y-18534936D02*
X11368753Y-18515889D01*
X11368753Y-18515889D02*
X11359229Y-18477793D01*
X11359229Y-18477793D02*
X11359229Y-18430174D01*
X11359229Y-18430174D02*
X11368753Y-18392079D01*
X11368753Y-18392079D02*
X11378277Y-18373031D01*
X11378277Y-18373031D02*
X11387801Y-18363508D01*
X11387801Y-18363508D02*
X11406848Y-18353984D01*
X11654467Y-18353984D02*
X11559229Y-18353984D01*
X11559229Y-18353984D02*
X11549706Y-18449222D01*
X11549706Y-18449222D02*
X11559229Y-18439698D01*
X11559229Y-18439698D02*
X11578277Y-18430174D01*
X11578277Y-18430174D02*
X11625896Y-18430174D01*
X11625896Y-18430174D02*
X11644944Y-18439698D01*
X11644944Y-18439698D02*
X11654467Y-18449222D01*
X11654467Y-18449222D02*
X11663991Y-18468270D01*
X11663991Y-18468270D02*
X11663991Y-18515889D01*
X11663991Y-18515889D02*
X11654467Y-18534936D01*
X11654467Y-18534936D02*
X11644944Y-18544460D01*
X11644944Y-18544460D02*
X11625896Y-18553984D01*
X11625896Y-18553984D02*
X11578277Y-18553984D01*
X11578277Y-18553984D02*
X11559229Y-18544460D01*
X11559229Y-18544460D02*
X11549706Y-18534936D01*
X11759229Y-18553984D02*
X11797325Y-18553984D01*
X11797325Y-18553984D02*
X11816372Y-18544460D01*
X11816372Y-18544460D02*
X11825896Y-18534936D01*
X11825896Y-18534936D02*
X11844944Y-18506365D01*
X11844944Y-18506365D02*
X11854467Y-18468270D01*
X11854467Y-18468270D02*
X11854467Y-18392079D01*
X11854467Y-18392079D02*
X11844944Y-18373031D01*
X11844944Y-18373031D02*
X11835420Y-18363508D01*
X11835420Y-18363508D02*
X11816372Y-18353984D01*
X11816372Y-18353984D02*
X11778277Y-18353984D01*
X11778277Y-18353984D02*
X11759229Y-18363508D01*
X11759229Y-18363508D02*
X11749706Y-18373031D01*
X11749706Y-18373031D02*
X11740182Y-18392079D01*
X11740182Y-18392079D02*
X11740182Y-18439698D01*
X11740182Y-18439698D02*
X11749706Y-18458746D01*
X11749706Y-18458746D02*
X11759229Y-18468270D01*
X11759229Y-18468270D02*
X11778277Y-18477793D01*
X11778277Y-18477793D02*
X11816372Y-18477793D01*
X11816372Y-18477793D02*
X11835420Y-18468270D01*
X11835420Y-18468270D02*
X11844944Y-18458746D01*
X11844944Y-18458746D02*
X11854467Y-18439698D01*
X12044944Y-18553984D02*
X11930658Y-18553984D01*
X11987801Y-18553984D02*
X11987801Y-18353984D01*
X11987801Y-18353984D02*
X11968753Y-18382555D01*
X11968753Y-18382555D02*
X11949706Y-18401603D01*
X11949706Y-18401603D02*
X11930658Y-18411127D01*
X12121134Y-18353984D02*
X12121134Y-18392079D01*
X12197325Y-18353984D02*
X12197325Y-18392079D01*
X12492563Y-18630174D02*
X12483039Y-18620650D01*
X12483039Y-18620650D02*
X12463991Y-18592079D01*
X12463991Y-18592079D02*
X12454468Y-18573031D01*
X12454468Y-18573031D02*
X12444944Y-18544460D01*
X12444944Y-18544460D02*
X12435420Y-18496841D01*
X12435420Y-18496841D02*
X12435420Y-18458746D01*
X12435420Y-18458746D02*
X12444944Y-18411127D01*
X12444944Y-18411127D02*
X12454468Y-18382555D01*
X12454468Y-18382555D02*
X12463991Y-18363508D01*
X12463991Y-18363508D02*
X12483039Y-18334936D01*
X12483039Y-18334936D02*
X12492563Y-18325412D01*
X12673515Y-18553984D02*
X12559229Y-18553984D01*
X12616372Y-18553984D02*
X12616372Y-18353984D01*
X12616372Y-18353984D02*
X12597325Y-18382555D01*
X12597325Y-18382555D02*
X12578277Y-18401603D01*
X12578277Y-18401603D02*
X12559229Y-18411127D01*
X12911610Y-18553984D02*
X12911610Y-18353984D01*
X12997325Y-18553984D02*
X12997325Y-18449222D01*
X12997325Y-18449222D02*
X12987801Y-18430174D01*
X12987801Y-18430174D02*
X12968753Y-18420650D01*
X12968753Y-18420650D02*
X12940182Y-18420650D01*
X12940182Y-18420650D02*
X12921134Y-18430174D01*
X12921134Y-18430174D02*
X12911610Y-18439698D01*
X13121134Y-18553984D02*
X13102087Y-18544460D01*
X13102087Y-18544460D02*
X13092563Y-18534936D01*
X13092563Y-18534936D02*
X13083039Y-18515889D01*
X13083039Y-18515889D02*
X13083039Y-18458746D01*
X13083039Y-18458746D02*
X13092563Y-18439698D01*
X13092563Y-18439698D02*
X13102087Y-18430174D01*
X13102087Y-18430174D02*
X13121134Y-18420650D01*
X13121134Y-18420650D02*
X13149706Y-18420650D01*
X13149706Y-18420650D02*
X13168753Y-18430174D01*
X13168753Y-18430174D02*
X13178277Y-18439698D01*
X13178277Y-18439698D02*
X13187801Y-18458746D01*
X13187801Y-18458746D02*
X13187801Y-18515889D01*
X13187801Y-18515889D02*
X13178277Y-18534936D01*
X13178277Y-18534936D02*
X13168753Y-18544460D01*
X13168753Y-18544460D02*
X13149706Y-18553984D01*
X13149706Y-18553984D02*
X13121134Y-18553984D01*
X13302087Y-18553984D02*
X13283039Y-18544460D01*
X13283039Y-18544460D02*
X13273515Y-18525412D01*
X13273515Y-18525412D02*
X13273515Y-18353984D01*
X13454468Y-18544460D02*
X13435420Y-18553984D01*
X13435420Y-18553984D02*
X13397325Y-18553984D01*
X13397325Y-18553984D02*
X13378277Y-18544460D01*
X13378277Y-18544460D02*
X13368753Y-18525412D01*
X13368753Y-18525412D02*
X13368753Y-18449222D01*
X13368753Y-18449222D02*
X13378277Y-18430174D01*
X13378277Y-18430174D02*
X13397325Y-18420650D01*
X13397325Y-18420650D02*
X13435420Y-18420650D01*
X13435420Y-18420650D02*
X13454468Y-18430174D01*
X13454468Y-18430174D02*
X13463991Y-18449222D01*
X13463991Y-18449222D02*
X13463991Y-18468270D01*
X13463991Y-18468270D02*
X13368753Y-18487317D01*
X13530658Y-18630174D02*
X13540182Y-18620650D01*
X13540182Y-18620650D02*
X13559230Y-18592079D01*
X13559230Y-18592079D02*
X13568753Y-18573031D01*
X13568753Y-18573031D02*
X13578277Y-18544460D01*
X13578277Y-18544460D02*
X13587801Y-18496841D01*
X13587801Y-18496841D02*
X13587801Y-18458746D01*
X13587801Y-18458746D02*
X13578277Y-18411127D01*
X13578277Y-18411127D02*
X13568753Y-18382555D01*
X13568753Y-18382555D02*
X13559230Y-18363508D01*
X13559230Y-18363508D02*
X13540182Y-18334936D01*
X13540182Y-18334936D02*
X13530658Y-18325412D01*
X8717500Y-18632500D02*
X8917500Y-18832500D01*
X8917500Y-18632500D02*
X8717500Y-18832500D01*
X8817500Y-18632500D02*
X8817500Y-18832500D01*
X8717500Y-18732500D02*
X8917500Y-18732500D01*
X9159229Y-18623984D02*
X9283039Y-18623984D01*
X9283039Y-18623984D02*
X9216372Y-18700174D01*
X9216372Y-18700174D02*
X9244944Y-18700174D01*
X9244944Y-18700174D02*
X9263991Y-18709698D01*
X9263991Y-18709698D02*
X9273515Y-18719222D01*
X9273515Y-18719222D02*
X9283039Y-18738270D01*
X9283039Y-18738270D02*
X9283039Y-18785889D01*
X9283039Y-18785889D02*
X9273515Y-18804936D01*
X9273515Y-18804936D02*
X9263991Y-18814460D01*
X9263991Y-18814460D02*
X9244944Y-18823984D01*
X9244944Y-18823984D02*
X9187801Y-18823984D01*
X9187801Y-18823984D02*
X9168753Y-18814460D01*
X9168753Y-18814460D02*
X9159229Y-18804936D01*
X9368753Y-18804936D02*
X9378277Y-18814460D01*
X9378277Y-18814460D02*
X9368753Y-18823984D01*
X9368753Y-18823984D02*
X9359229Y-18814460D01*
X9359229Y-18814460D02*
X9368753Y-18804936D01*
X9368753Y-18804936D02*
X9368753Y-18823984D01*
X9559229Y-18623984D02*
X9463991Y-18623984D01*
X9463991Y-18623984D02*
X9454467Y-18719222D01*
X9454467Y-18719222D02*
X9463991Y-18709698D01*
X9463991Y-18709698D02*
X9483039Y-18700174D01*
X9483039Y-18700174D02*
X9530658Y-18700174D01*
X9530658Y-18700174D02*
X9549705Y-18709698D01*
X9549705Y-18709698D02*
X9559229Y-18719222D01*
X9559229Y-18719222D02*
X9568753Y-18738270D01*
X9568753Y-18738270D02*
X9568753Y-18785889D01*
X9568753Y-18785889D02*
X9559229Y-18804936D01*
X9559229Y-18804936D02*
X9549705Y-18814460D01*
X9549705Y-18814460D02*
X9530658Y-18823984D01*
X9530658Y-18823984D02*
X9483039Y-18823984D01*
X9483039Y-18823984D02*
X9463991Y-18814460D01*
X9463991Y-18814460D02*
X9454467Y-18804936D01*
X9692563Y-18623984D02*
X9711610Y-18623984D01*
X9711610Y-18623984D02*
X9730658Y-18633508D01*
X9730658Y-18633508D02*
X9740182Y-18643031D01*
X9740182Y-18643031D02*
X9749705Y-18662079D01*
X9749705Y-18662079D02*
X9759229Y-18700174D01*
X9759229Y-18700174D02*
X9759229Y-18747793D01*
X9759229Y-18747793D02*
X9749705Y-18785889D01*
X9749705Y-18785889D02*
X9740182Y-18804936D01*
X9740182Y-18804936D02*
X9730658Y-18814460D01*
X9730658Y-18814460D02*
X9711610Y-18823984D01*
X9711610Y-18823984D02*
X9692563Y-18823984D01*
X9692563Y-18823984D02*
X9673515Y-18814460D01*
X9673515Y-18814460D02*
X9663991Y-18804936D01*
X9663991Y-18804936D02*
X9654467Y-18785889D01*
X9654467Y-18785889D02*
X9644944Y-18747793D01*
X9644944Y-18747793D02*
X9644944Y-18700174D01*
X9644944Y-18700174D02*
X9654467Y-18662079D01*
X9654467Y-18662079D02*
X9663991Y-18643031D01*
X9663991Y-18643031D02*
X9673515Y-18633508D01*
X9673515Y-18633508D02*
X9692563Y-18623984D01*
X9883039Y-18623984D02*
X9902086Y-18623984D01*
X9902086Y-18623984D02*
X9921134Y-18633508D01*
X9921134Y-18633508D02*
X9930658Y-18643031D01*
X9930658Y-18643031D02*
X9940182Y-18662079D01*
X9940182Y-18662079D02*
X9949705Y-18700174D01*
X9949705Y-18700174D02*
X9949705Y-18747793D01*
X9949705Y-18747793D02*
X9940182Y-18785889D01*
X9940182Y-18785889D02*
X9930658Y-18804936D01*
X9930658Y-18804936D02*
X9921134Y-18814460D01*
X9921134Y-18814460D02*
X9902086Y-18823984D01*
X9902086Y-18823984D02*
X9883039Y-18823984D01*
X9883039Y-18823984D02*
X9863991Y-18814460D01*
X9863991Y-18814460D02*
X9854467Y-18804936D01*
X9854467Y-18804936D02*
X9844944Y-18785889D01*
X9844944Y-18785889D02*
X9835420Y-18747793D01*
X9835420Y-18747793D02*
X9835420Y-18700174D01*
X9835420Y-18700174D02*
X9844944Y-18662079D01*
X9844944Y-18662079D02*
X9854467Y-18643031D01*
X9854467Y-18643031D02*
X9863991Y-18633508D01*
X9863991Y-18633508D02*
X9883039Y-18623984D01*
X10035420Y-18823984D02*
X10035420Y-18690650D01*
X10035420Y-18709698D02*
X10044944Y-18700174D01*
X10044944Y-18700174D02*
X10063991Y-18690650D01*
X10063991Y-18690650D02*
X10092563Y-18690650D01*
X10092563Y-18690650D02*
X10111610Y-18700174D01*
X10111610Y-18700174D02*
X10121134Y-18719222D01*
X10121134Y-18719222D02*
X10121134Y-18823984D01*
X10121134Y-18719222D02*
X10130658Y-18700174D01*
X10130658Y-18700174D02*
X10149705Y-18690650D01*
X10149705Y-18690650D02*
X10178277Y-18690650D01*
X10178277Y-18690650D02*
X10197325Y-18700174D01*
X10197325Y-18700174D02*
X10206848Y-18719222D01*
X10206848Y-18719222D02*
X10206848Y-18823984D01*
X10302086Y-18823984D02*
X10302086Y-18690650D01*
X10302086Y-18709698D02*
X10311610Y-18700174D01*
X10311610Y-18700174D02*
X10330658Y-18690650D01*
X10330658Y-18690650D02*
X10359229Y-18690650D01*
X10359229Y-18690650D02*
X10378277Y-18700174D01*
X10378277Y-18700174D02*
X10387801Y-18719222D01*
X10387801Y-18719222D02*
X10387801Y-18823984D01*
X10387801Y-18719222D02*
X10397325Y-18700174D01*
X10397325Y-18700174D02*
X10416372Y-18690650D01*
X10416372Y-18690650D02*
X10444944Y-18690650D01*
X10444944Y-18690650D02*
X10463991Y-18700174D01*
X10463991Y-18700174D02*
X10473515Y-18719222D01*
X10473515Y-18719222D02*
X10473515Y-18823984D01*
X10863991Y-18614460D02*
X10692563Y-18871603D01*
X11121134Y-18623984D02*
X11140182Y-18623984D01*
X11140182Y-18623984D02*
X11159229Y-18633508D01*
X11159229Y-18633508D02*
X11168753Y-18643031D01*
X11168753Y-18643031D02*
X11178277Y-18662079D01*
X11178277Y-18662079D02*
X11187801Y-18700174D01*
X11187801Y-18700174D02*
X11187801Y-18747793D01*
X11187801Y-18747793D02*
X11178277Y-18785889D01*
X11178277Y-18785889D02*
X11168753Y-18804936D01*
X11168753Y-18804936D02*
X11159229Y-18814460D01*
X11159229Y-18814460D02*
X11140182Y-18823984D01*
X11140182Y-18823984D02*
X11121134Y-18823984D01*
X11121134Y-18823984D02*
X11102087Y-18814460D01*
X11102087Y-18814460D02*
X11092563Y-18804936D01*
X11092563Y-18804936D02*
X11083039Y-18785889D01*
X11083039Y-18785889D02*
X11073515Y-18747793D01*
X11073515Y-18747793D02*
X11073515Y-18700174D01*
X11073515Y-18700174D02*
X11083039Y-18662079D01*
X11083039Y-18662079D02*
X11092563Y-18643031D01*
X11092563Y-18643031D02*
X11102087Y-18633508D01*
X11102087Y-18633508D02*
X11121134Y-18623984D01*
X11273515Y-18804936D02*
X11283039Y-18814460D01*
X11283039Y-18814460D02*
X11273515Y-18823984D01*
X11273515Y-18823984D02*
X11263991Y-18814460D01*
X11263991Y-18814460D02*
X11273515Y-18804936D01*
X11273515Y-18804936D02*
X11273515Y-18823984D01*
X11473515Y-18823984D02*
X11359229Y-18823984D01*
X11416372Y-18823984D02*
X11416372Y-18623984D01*
X11416372Y-18623984D02*
X11397325Y-18652555D01*
X11397325Y-18652555D02*
X11378277Y-18671603D01*
X11378277Y-18671603D02*
X11359229Y-18681127D01*
X11540182Y-18623984D02*
X11663991Y-18623984D01*
X11663991Y-18623984D02*
X11597325Y-18700174D01*
X11597325Y-18700174D02*
X11625896Y-18700174D01*
X11625896Y-18700174D02*
X11644944Y-18709698D01*
X11644944Y-18709698D02*
X11654467Y-18719222D01*
X11654467Y-18719222D02*
X11663991Y-18738270D01*
X11663991Y-18738270D02*
X11663991Y-18785889D01*
X11663991Y-18785889D02*
X11654467Y-18804936D01*
X11654467Y-18804936D02*
X11644944Y-18814460D01*
X11644944Y-18814460D02*
X11625896Y-18823984D01*
X11625896Y-18823984D02*
X11568753Y-18823984D01*
X11568753Y-18823984D02*
X11549706Y-18814460D01*
X11549706Y-18814460D02*
X11540182Y-18804936D01*
X11730658Y-18623984D02*
X11863991Y-18623984D01*
X11863991Y-18623984D02*
X11778277Y-18823984D01*
X11968753Y-18709698D02*
X11949706Y-18700174D01*
X11949706Y-18700174D02*
X11940182Y-18690650D01*
X11940182Y-18690650D02*
X11930658Y-18671603D01*
X11930658Y-18671603D02*
X11930658Y-18662079D01*
X11930658Y-18662079D02*
X11940182Y-18643031D01*
X11940182Y-18643031D02*
X11949706Y-18633508D01*
X11949706Y-18633508D02*
X11968753Y-18623984D01*
X11968753Y-18623984D02*
X12006848Y-18623984D01*
X12006848Y-18623984D02*
X12025896Y-18633508D01*
X12025896Y-18633508D02*
X12035420Y-18643031D01*
X12035420Y-18643031D02*
X12044944Y-18662079D01*
X12044944Y-18662079D02*
X12044944Y-18671603D01*
X12044944Y-18671603D02*
X12035420Y-18690650D01*
X12035420Y-18690650D02*
X12025896Y-18700174D01*
X12025896Y-18700174D02*
X12006848Y-18709698D01*
X12006848Y-18709698D02*
X11968753Y-18709698D01*
X11968753Y-18709698D02*
X11949706Y-18719222D01*
X11949706Y-18719222D02*
X11940182Y-18728746D01*
X11940182Y-18728746D02*
X11930658Y-18747793D01*
X11930658Y-18747793D02*
X11930658Y-18785889D01*
X11930658Y-18785889D02*
X11940182Y-18804936D01*
X11940182Y-18804936D02*
X11949706Y-18814460D01*
X11949706Y-18814460D02*
X11968753Y-18823984D01*
X11968753Y-18823984D02*
X12006848Y-18823984D01*
X12006848Y-18823984D02*
X12025896Y-18814460D01*
X12025896Y-18814460D02*
X12035420Y-18804936D01*
X12035420Y-18804936D02*
X12044944Y-18785889D01*
X12044944Y-18785889D02*
X12044944Y-18747793D01*
X12044944Y-18747793D02*
X12035420Y-18728746D01*
X12035420Y-18728746D02*
X12025896Y-18719222D01*
X12025896Y-18719222D02*
X12006848Y-18709698D01*
X12121134Y-18623984D02*
X12121134Y-18662079D01*
X12197325Y-18623984D02*
X12197325Y-18662079D01*
X12492563Y-18900174D02*
X12483039Y-18890650D01*
X12483039Y-18890650D02*
X12463991Y-18862079D01*
X12463991Y-18862079D02*
X12454468Y-18843031D01*
X12454468Y-18843031D02*
X12444944Y-18814460D01*
X12444944Y-18814460D02*
X12435420Y-18766841D01*
X12435420Y-18766841D02*
X12435420Y-18728746D01*
X12435420Y-18728746D02*
X12444944Y-18681127D01*
X12444944Y-18681127D02*
X12454468Y-18652555D01*
X12454468Y-18652555D02*
X12463991Y-18633508D01*
X12463991Y-18633508D02*
X12483039Y-18604936D01*
X12483039Y-18604936D02*
X12492563Y-18595412D01*
X12654468Y-18690650D02*
X12654468Y-18823984D01*
X12606848Y-18614460D02*
X12559229Y-18757317D01*
X12559229Y-18757317D02*
X12683039Y-18757317D01*
X12911610Y-18823984D02*
X12911610Y-18623984D01*
X12997325Y-18823984D02*
X12997325Y-18719222D01*
X12997325Y-18719222D02*
X12987801Y-18700174D01*
X12987801Y-18700174D02*
X12968753Y-18690650D01*
X12968753Y-18690650D02*
X12940182Y-18690650D01*
X12940182Y-18690650D02*
X12921134Y-18700174D01*
X12921134Y-18700174D02*
X12911610Y-18709698D01*
X13121134Y-18823984D02*
X13102087Y-18814460D01*
X13102087Y-18814460D02*
X13092563Y-18804936D01*
X13092563Y-18804936D02*
X13083039Y-18785889D01*
X13083039Y-18785889D02*
X13083039Y-18728746D01*
X13083039Y-18728746D02*
X13092563Y-18709698D01*
X13092563Y-18709698D02*
X13102087Y-18700174D01*
X13102087Y-18700174D02*
X13121134Y-18690650D01*
X13121134Y-18690650D02*
X13149706Y-18690650D01*
X13149706Y-18690650D02*
X13168753Y-18700174D01*
X13168753Y-18700174D02*
X13178277Y-18709698D01*
X13178277Y-18709698D02*
X13187801Y-18728746D01*
X13187801Y-18728746D02*
X13187801Y-18785889D01*
X13187801Y-18785889D02*
X13178277Y-18804936D01*
X13178277Y-18804936D02*
X13168753Y-18814460D01*
X13168753Y-18814460D02*
X13149706Y-18823984D01*
X13149706Y-18823984D02*
X13121134Y-18823984D01*
X13302087Y-18823984D02*
X13283039Y-18814460D01*
X13283039Y-18814460D02*
X13273515Y-18795412D01*
X13273515Y-18795412D02*
X13273515Y-18623984D01*
X13454468Y-18814460D02*
X13435420Y-18823984D01*
X13435420Y-18823984D02*
X13397325Y-18823984D01*
X13397325Y-18823984D02*
X13378277Y-18814460D01*
X13378277Y-18814460D02*
X13368753Y-18795412D01*
X13368753Y-18795412D02*
X13368753Y-18719222D01*
X13368753Y-18719222D02*
X13378277Y-18700174D01*
X13378277Y-18700174D02*
X13397325Y-18690650D01*
X13397325Y-18690650D02*
X13435420Y-18690650D01*
X13435420Y-18690650D02*
X13454468Y-18700174D01*
X13454468Y-18700174D02*
X13463991Y-18719222D01*
X13463991Y-18719222D02*
X13463991Y-18738270D01*
X13463991Y-18738270D02*
X13368753Y-18757317D01*
X13540182Y-18814460D02*
X13559230Y-18823984D01*
X13559230Y-18823984D02*
X13597325Y-18823984D01*
X13597325Y-18823984D02*
X13616372Y-18814460D01*
X13616372Y-18814460D02*
X13625896Y-18795412D01*
X13625896Y-18795412D02*
X13625896Y-18785889D01*
X13625896Y-18785889D02*
X13616372Y-18766841D01*
X13616372Y-18766841D02*
X13597325Y-18757317D01*
X13597325Y-18757317D02*
X13568753Y-18757317D01*
X13568753Y-18757317D02*
X13549706Y-18747793D01*
X13549706Y-18747793D02*
X13540182Y-18728746D01*
X13540182Y-18728746D02*
X13540182Y-18719222D01*
X13540182Y-18719222D02*
X13549706Y-18700174D01*
X13549706Y-18700174D02*
X13568753Y-18690650D01*
X13568753Y-18690650D02*
X13597325Y-18690650D01*
X13597325Y-18690650D02*
X13616372Y-18700174D01*
X13692563Y-18900174D02*
X13702087Y-18890650D01*
X13702087Y-18890650D02*
X13721134Y-18862079D01*
X13721134Y-18862079D02*
X13730658Y-18843031D01*
X13730658Y-18843031D02*
X13740182Y-18814460D01*
X13740182Y-18814460D02*
X13749706Y-18766841D01*
X13749706Y-18766841D02*
X13749706Y-18728746D01*
X13749706Y-18728746D02*
X13740182Y-18681127D01*
X13740182Y-18681127D02*
X13730658Y-18652555D01*
X13730658Y-18652555D02*
X13721134Y-18633508D01*
X13721134Y-18633508D02*
X13702087Y-18604936D01*
X13702087Y-18604936D02*
X13692563Y-18595412D01*
X8717500Y-18952500D02*
X8917500Y-19152500D01*
X8917500Y-18952500D02*
X8717500Y-19152500D01*
X8888211Y-19123211D02*
X8888211Y-18981789D01*
X8746789Y-18981789D01*
X8746789Y-19123211D01*
X8888211Y-19123211D01*
X9263991Y-19010650D02*
X9263991Y-19143984D01*
X9216372Y-18934460D02*
X9168753Y-19077317D01*
X9168753Y-19077317D02*
X9292563Y-19077317D01*
X9368753Y-19124936D02*
X9378277Y-19134460D01*
X9378277Y-19134460D02*
X9368753Y-19143984D01*
X9368753Y-19143984D02*
X9359229Y-19134460D01*
X9359229Y-19134460D02*
X9368753Y-19124936D01*
X9368753Y-19124936D02*
X9368753Y-19143984D01*
X9502086Y-18943984D02*
X9521134Y-18943984D01*
X9521134Y-18943984D02*
X9540182Y-18953508D01*
X9540182Y-18953508D02*
X9549705Y-18963031D01*
X9549705Y-18963031D02*
X9559229Y-18982079D01*
X9559229Y-18982079D02*
X9568753Y-19020174D01*
X9568753Y-19020174D02*
X9568753Y-19067793D01*
X9568753Y-19067793D02*
X9559229Y-19105889D01*
X9559229Y-19105889D02*
X9549705Y-19124936D01*
X9549705Y-19124936D02*
X9540182Y-19134460D01*
X9540182Y-19134460D02*
X9521134Y-19143984D01*
X9521134Y-19143984D02*
X9502086Y-19143984D01*
X9502086Y-19143984D02*
X9483039Y-19134460D01*
X9483039Y-19134460D02*
X9473515Y-19124936D01*
X9473515Y-19124936D02*
X9463991Y-19105889D01*
X9463991Y-19105889D02*
X9454467Y-19067793D01*
X9454467Y-19067793D02*
X9454467Y-19020174D01*
X9454467Y-19020174D02*
X9463991Y-18982079D01*
X9463991Y-18982079D02*
X9473515Y-18963031D01*
X9473515Y-18963031D02*
X9483039Y-18953508D01*
X9483039Y-18953508D02*
X9502086Y-18943984D01*
X9692563Y-18943984D02*
X9711610Y-18943984D01*
X9711610Y-18943984D02*
X9730658Y-18953508D01*
X9730658Y-18953508D02*
X9740182Y-18963031D01*
X9740182Y-18963031D02*
X9749705Y-18982079D01*
X9749705Y-18982079D02*
X9759229Y-19020174D01*
X9759229Y-19020174D02*
X9759229Y-19067793D01*
X9759229Y-19067793D02*
X9749705Y-19105889D01*
X9749705Y-19105889D02*
X9740182Y-19124936D01*
X9740182Y-19124936D02*
X9730658Y-19134460D01*
X9730658Y-19134460D02*
X9711610Y-19143984D01*
X9711610Y-19143984D02*
X9692563Y-19143984D01*
X9692563Y-19143984D02*
X9673515Y-19134460D01*
X9673515Y-19134460D02*
X9663991Y-19124936D01*
X9663991Y-19124936D02*
X9654467Y-19105889D01*
X9654467Y-19105889D02*
X9644944Y-19067793D01*
X9644944Y-19067793D02*
X9644944Y-19020174D01*
X9644944Y-19020174D02*
X9654467Y-18982079D01*
X9654467Y-18982079D02*
X9663991Y-18963031D01*
X9663991Y-18963031D02*
X9673515Y-18953508D01*
X9673515Y-18953508D02*
X9692563Y-18943984D01*
X9883039Y-18943984D02*
X9902086Y-18943984D01*
X9902086Y-18943984D02*
X9921134Y-18953508D01*
X9921134Y-18953508D02*
X9930658Y-18963031D01*
X9930658Y-18963031D02*
X9940182Y-18982079D01*
X9940182Y-18982079D02*
X9949705Y-19020174D01*
X9949705Y-19020174D02*
X9949705Y-19067793D01*
X9949705Y-19067793D02*
X9940182Y-19105889D01*
X9940182Y-19105889D02*
X9930658Y-19124936D01*
X9930658Y-19124936D02*
X9921134Y-19134460D01*
X9921134Y-19134460D02*
X9902086Y-19143984D01*
X9902086Y-19143984D02*
X9883039Y-19143984D01*
X9883039Y-19143984D02*
X9863991Y-19134460D01*
X9863991Y-19134460D02*
X9854467Y-19124936D01*
X9854467Y-19124936D02*
X9844944Y-19105889D01*
X9844944Y-19105889D02*
X9835420Y-19067793D01*
X9835420Y-19067793D02*
X9835420Y-19020174D01*
X9835420Y-19020174D02*
X9844944Y-18982079D01*
X9844944Y-18982079D02*
X9854467Y-18963031D01*
X9854467Y-18963031D02*
X9863991Y-18953508D01*
X9863991Y-18953508D02*
X9883039Y-18943984D01*
X10035420Y-19143984D02*
X10035420Y-19010650D01*
X10035420Y-19029698D02*
X10044944Y-19020174D01*
X10044944Y-19020174D02*
X10063991Y-19010650D01*
X10063991Y-19010650D02*
X10092563Y-19010650D01*
X10092563Y-19010650D02*
X10111610Y-19020174D01*
X10111610Y-19020174D02*
X10121134Y-19039222D01*
X10121134Y-19039222D02*
X10121134Y-19143984D01*
X10121134Y-19039222D02*
X10130658Y-19020174D01*
X10130658Y-19020174D02*
X10149705Y-19010650D01*
X10149705Y-19010650D02*
X10178277Y-19010650D01*
X10178277Y-19010650D02*
X10197325Y-19020174D01*
X10197325Y-19020174D02*
X10206848Y-19039222D01*
X10206848Y-19039222D02*
X10206848Y-19143984D01*
X10302086Y-19143984D02*
X10302086Y-19010650D01*
X10302086Y-19029698D02*
X10311610Y-19020174D01*
X10311610Y-19020174D02*
X10330658Y-19010650D01*
X10330658Y-19010650D02*
X10359229Y-19010650D01*
X10359229Y-19010650D02*
X10378277Y-19020174D01*
X10378277Y-19020174D02*
X10387801Y-19039222D01*
X10387801Y-19039222D02*
X10387801Y-19143984D01*
X10387801Y-19039222D02*
X10397325Y-19020174D01*
X10397325Y-19020174D02*
X10416372Y-19010650D01*
X10416372Y-19010650D02*
X10444944Y-19010650D01*
X10444944Y-19010650D02*
X10463991Y-19020174D01*
X10463991Y-19020174D02*
X10473515Y-19039222D01*
X10473515Y-19039222D02*
X10473515Y-19143984D01*
X10863991Y-18934460D02*
X10692563Y-19191603D01*
X11121134Y-18943984D02*
X11140182Y-18943984D01*
X11140182Y-18943984D02*
X11159229Y-18953508D01*
X11159229Y-18953508D02*
X11168753Y-18963031D01*
X11168753Y-18963031D02*
X11178277Y-18982079D01*
X11178277Y-18982079D02*
X11187801Y-19020174D01*
X11187801Y-19020174D02*
X11187801Y-19067793D01*
X11187801Y-19067793D02*
X11178277Y-19105889D01*
X11178277Y-19105889D02*
X11168753Y-19124936D01*
X11168753Y-19124936D02*
X11159229Y-19134460D01*
X11159229Y-19134460D02*
X11140182Y-19143984D01*
X11140182Y-19143984D02*
X11121134Y-19143984D01*
X11121134Y-19143984D02*
X11102087Y-19134460D01*
X11102087Y-19134460D02*
X11092563Y-19124936D01*
X11092563Y-19124936D02*
X11083039Y-19105889D01*
X11083039Y-19105889D02*
X11073515Y-19067793D01*
X11073515Y-19067793D02*
X11073515Y-19020174D01*
X11073515Y-19020174D02*
X11083039Y-18982079D01*
X11083039Y-18982079D02*
X11092563Y-18963031D01*
X11092563Y-18963031D02*
X11102087Y-18953508D01*
X11102087Y-18953508D02*
X11121134Y-18943984D01*
X11273515Y-19124936D02*
X11283039Y-19134460D01*
X11283039Y-19134460D02*
X11273515Y-19143984D01*
X11273515Y-19143984D02*
X11263991Y-19134460D01*
X11263991Y-19134460D02*
X11273515Y-19124936D01*
X11273515Y-19124936D02*
X11273515Y-19143984D01*
X11473515Y-19143984D02*
X11359229Y-19143984D01*
X11416372Y-19143984D02*
X11416372Y-18943984D01*
X11416372Y-18943984D02*
X11397325Y-18972555D01*
X11397325Y-18972555D02*
X11378277Y-18991603D01*
X11378277Y-18991603D02*
X11359229Y-19001127D01*
X11654467Y-18943984D02*
X11559229Y-18943984D01*
X11559229Y-18943984D02*
X11549706Y-19039222D01*
X11549706Y-19039222D02*
X11559229Y-19029698D01*
X11559229Y-19029698D02*
X11578277Y-19020174D01*
X11578277Y-19020174D02*
X11625896Y-19020174D01*
X11625896Y-19020174D02*
X11644944Y-19029698D01*
X11644944Y-19029698D02*
X11654467Y-19039222D01*
X11654467Y-19039222D02*
X11663991Y-19058270D01*
X11663991Y-19058270D02*
X11663991Y-19105889D01*
X11663991Y-19105889D02*
X11654467Y-19124936D01*
X11654467Y-19124936D02*
X11644944Y-19134460D01*
X11644944Y-19134460D02*
X11625896Y-19143984D01*
X11625896Y-19143984D02*
X11578277Y-19143984D01*
X11578277Y-19143984D02*
X11559229Y-19134460D01*
X11559229Y-19134460D02*
X11549706Y-19124936D01*
X11730658Y-18943984D02*
X11863991Y-18943984D01*
X11863991Y-18943984D02*
X11778277Y-19143984D01*
X12035420Y-18943984D02*
X11940182Y-18943984D01*
X11940182Y-18943984D02*
X11930658Y-19039222D01*
X11930658Y-19039222D02*
X11940182Y-19029698D01*
X11940182Y-19029698D02*
X11959229Y-19020174D01*
X11959229Y-19020174D02*
X12006848Y-19020174D01*
X12006848Y-19020174D02*
X12025896Y-19029698D01*
X12025896Y-19029698D02*
X12035420Y-19039222D01*
X12035420Y-19039222D02*
X12044944Y-19058270D01*
X12044944Y-19058270D02*
X12044944Y-19105889D01*
X12044944Y-19105889D02*
X12035420Y-19124936D01*
X12035420Y-19124936D02*
X12025896Y-19134460D01*
X12025896Y-19134460D02*
X12006848Y-19143984D01*
X12006848Y-19143984D02*
X11959229Y-19143984D01*
X11959229Y-19143984D02*
X11940182Y-19134460D01*
X11940182Y-19134460D02*
X11930658Y-19124936D01*
X12121134Y-18943984D02*
X12121134Y-18982079D01*
X12197325Y-18943984D02*
X12197325Y-18982079D01*
X12492563Y-19220174D02*
X12483039Y-19210650D01*
X12483039Y-19210650D02*
X12463991Y-19182079D01*
X12463991Y-19182079D02*
X12454468Y-19163031D01*
X12454468Y-19163031D02*
X12444944Y-19134460D01*
X12444944Y-19134460D02*
X12435420Y-19086841D01*
X12435420Y-19086841D02*
X12435420Y-19048746D01*
X12435420Y-19048746D02*
X12444944Y-19001127D01*
X12444944Y-19001127D02*
X12454468Y-18972555D01*
X12454468Y-18972555D02*
X12463991Y-18953508D01*
X12463991Y-18953508D02*
X12483039Y-18924936D01*
X12483039Y-18924936D02*
X12492563Y-18915412D01*
X12654468Y-19010650D02*
X12654468Y-19143984D01*
X12606848Y-18934460D02*
X12559229Y-19077317D01*
X12559229Y-19077317D02*
X12683039Y-19077317D01*
X12911610Y-19143984D02*
X12911610Y-18943984D01*
X12997325Y-19143984D02*
X12997325Y-19039222D01*
X12997325Y-19039222D02*
X12987801Y-19020174D01*
X12987801Y-19020174D02*
X12968753Y-19010650D01*
X12968753Y-19010650D02*
X12940182Y-19010650D01*
X12940182Y-19010650D02*
X12921134Y-19020174D01*
X12921134Y-19020174D02*
X12911610Y-19029698D01*
X13121134Y-19143984D02*
X13102087Y-19134460D01*
X13102087Y-19134460D02*
X13092563Y-19124936D01*
X13092563Y-19124936D02*
X13083039Y-19105889D01*
X13083039Y-19105889D02*
X13083039Y-19048746D01*
X13083039Y-19048746D02*
X13092563Y-19029698D01*
X13092563Y-19029698D02*
X13102087Y-19020174D01*
X13102087Y-19020174D02*
X13121134Y-19010650D01*
X13121134Y-19010650D02*
X13149706Y-19010650D01*
X13149706Y-19010650D02*
X13168753Y-19020174D01*
X13168753Y-19020174D02*
X13178277Y-19029698D01*
X13178277Y-19029698D02*
X13187801Y-19048746D01*
X13187801Y-19048746D02*
X13187801Y-19105889D01*
X13187801Y-19105889D02*
X13178277Y-19124936D01*
X13178277Y-19124936D02*
X13168753Y-19134460D01*
X13168753Y-19134460D02*
X13149706Y-19143984D01*
X13149706Y-19143984D02*
X13121134Y-19143984D01*
X13302087Y-19143984D02*
X13283039Y-19134460D01*
X13283039Y-19134460D02*
X13273515Y-19115412D01*
X13273515Y-19115412D02*
X13273515Y-18943984D01*
X13454468Y-19134460D02*
X13435420Y-19143984D01*
X13435420Y-19143984D02*
X13397325Y-19143984D01*
X13397325Y-19143984D02*
X13378277Y-19134460D01*
X13378277Y-19134460D02*
X13368753Y-19115412D01*
X13368753Y-19115412D02*
X13368753Y-19039222D01*
X13368753Y-19039222D02*
X13378277Y-19020174D01*
X13378277Y-19020174D02*
X13397325Y-19010650D01*
X13397325Y-19010650D02*
X13435420Y-19010650D01*
X13435420Y-19010650D02*
X13454468Y-19020174D01*
X13454468Y-19020174D02*
X13463991Y-19039222D01*
X13463991Y-19039222D02*
X13463991Y-19058270D01*
X13463991Y-19058270D02*
X13368753Y-19077317D01*
X13540182Y-19134460D02*
X13559230Y-19143984D01*
X13559230Y-19143984D02*
X13597325Y-19143984D01*
X13597325Y-19143984D02*
X13616372Y-19134460D01*
X13616372Y-19134460D02*
X13625896Y-19115412D01*
X13625896Y-19115412D02*
X13625896Y-19105889D01*
X13625896Y-19105889D02*
X13616372Y-19086841D01*
X13616372Y-19086841D02*
X13597325Y-19077317D01*
X13597325Y-19077317D02*
X13568753Y-19077317D01*
X13568753Y-19077317D02*
X13549706Y-19067793D01*
X13549706Y-19067793D02*
X13540182Y-19048746D01*
X13540182Y-19048746D02*
X13540182Y-19039222D01*
X13540182Y-19039222D02*
X13549706Y-19020174D01*
X13549706Y-19020174D02*
X13568753Y-19010650D01*
X13568753Y-19010650D02*
X13597325Y-19010650D01*
X13597325Y-19010650D02*
X13616372Y-19020174D01*
X13692563Y-19220174D02*
X13702087Y-19210650D01*
X13702087Y-19210650D02*
X13721134Y-19182079D01*
X13721134Y-19182079D02*
X13730658Y-19163031D01*
X13730658Y-19163031D02*
X13740182Y-19134460D01*
X13740182Y-19134460D02*
X13749706Y-19086841D01*
X13749706Y-19086841D02*
X13749706Y-19048746D01*
X13749706Y-19048746D02*
X13740182Y-19001127D01*
X13740182Y-19001127D02*
X13730658Y-18972555D01*
X13730658Y-18972555D02*
X13721134Y-18953508D01*
X13721134Y-18953508D02*
X13702087Y-18924936D01*
X13702087Y-18924936D02*
X13692563Y-18915412D01*
M02*
