%TF.GenerationSoftware,KiCad,Pcbnew,10.0.3*%
%TF.CreationDate,2026-09-28T13:48:06+07:00*%
%TF.ProjectId,1,312e6b69-6361-4645-9f70-636258585858,rev?*%
%TF.SameCoordinates,Original*%
%TF.FileFunction,Plated,1,2,PTH,Mixed*%
%TF.FilePolarity,Positive*%
%FSLAX46Y46*%
G04 Gerber Fmt 4.6, Leading zero omitted, Abs format (unit mm)*
G04 Created by KiCad (PCBNEW 10.0.3) date 2026-09-28 13:48:06*
%MOMM*%
%LPD*%
G01*
G04 APERTURE LIST*
%TA.AperFunction,ViaDrill*%
%ADD10C,0.300000*%
%TD*%
%TA.AperFunction,ComponentDrill*%
%ADD11C,0.500000*%
%TD*%
G04 aperture for slot hole*
%TA.AperFunction,ComponentDrill*%
%ADD12C,0.800000*%
%TD*%
%TA.AperFunction,ComponentDrill*%
%ADD13C,0.863600*%
%TD*%
%TA.AperFunction,ComponentDrill*%
%ADD14C,0.950000*%
%TD*%
%TA.AperFunction,ComponentDrill*%
%ADD15C,1.500000*%
%TD*%
%TA.AperFunction,ComponentDrill*%
%ADD16C,3.500000*%
%TD*%
%TA.AperFunction,ComponentDrill*%
%ADD17C,4.000000*%
%TD*%
G04 APERTURE END LIST*
D10*
X92200000Y-129450000D03*
X92700000Y-65950000D03*
X92700000Y-66950000D03*
X92700000Y-67950000D03*
X95900000Y-60900000D03*
X96450000Y-115375000D03*
X97175000Y-99650000D03*
X97550000Y-54400000D03*
X98625000Y-137900000D03*
X100550000Y-128175000D03*
X100550000Y-129175000D03*
X100550000Y-130175000D03*
X101066600Y-98806000D03*
X101075000Y-68200000D03*
X101299999Y-124325001D03*
X101325000Y-125375000D03*
X101642538Y-67127152D03*
X101675000Y-68200000D03*
X102275000Y-67075000D03*
X102514400Y-95834200D03*
X102875000Y-67075000D03*
X104875000Y-152975000D03*
X105050000Y-54600000D03*
X105050000Y-55600000D03*
X105050000Y-56600000D03*
X105918771Y-70984800D03*
X105918771Y-71584800D03*
X106150000Y-112325000D03*
X106525000Y-92150000D03*
X107100000Y-114600000D03*
X107100000Y-115600000D03*
X107100000Y-116600000D03*
X107200038Y-93157763D03*
X107825000Y-46575000D03*
X109315238Y-70990200D03*
X109315238Y-71665200D03*
X110950000Y-82400000D03*
X111062500Y-155550000D03*
X111150000Y-139475000D03*
X111775000Y-155550000D03*
X112000000Y-82400000D03*
X112487500Y-155550000D03*
X113200000Y-155550000D03*
X113912500Y-155550000D03*
X114200000Y-84950000D03*
X114925000Y-74525000D03*
X122775000Y-91725000D03*
X126000000Y-109100000D03*
X126025000Y-109900000D03*
X126025000Y-110650000D03*
X127325000Y-40325000D03*
X128875000Y-61500000D03*
X129070000Y-75200000D03*
X129125000Y-74075000D03*
X129235200Y-103378000D03*
X129500000Y-61450000D03*
X129500000Y-62625000D03*
X129575000Y-97175000D03*
X129700000Y-75200000D03*
X129800000Y-74050000D03*
X130100000Y-61450000D03*
X130100000Y-62625000D03*
X130100000Y-121400000D03*
X130100000Y-122400000D03*
X130100000Y-123400000D03*
X130440000Y-74070000D03*
X131625000Y-142550000D03*
X131758700Y-136958700D03*
X132700000Y-84025000D03*
X132975000Y-77927200D03*
X133000000Y-78627200D03*
X133412500Y-84025000D03*
X133604000Y-65405000D03*
X133604000Y-66030000D03*
X134125000Y-84025000D03*
X134837500Y-84025000D03*
X135000000Y-138400000D03*
X135550000Y-84025000D03*
X135800000Y-138400000D03*
X136125000Y-123125000D03*
X136600000Y-138400000D03*
X136753600Y-77978000D03*
X136753600Y-78653000D03*
X136875000Y-65250000D03*
X136900000Y-66000000D03*
X137400000Y-138400000D03*
X140275000Y-160825000D03*
X141800000Y-70700000D03*
X141800000Y-71700000D03*
X141800000Y-72700000D03*
X142290800Y-87833200D03*
X142600000Y-93000000D03*
X142625000Y-82685000D03*
X145100000Y-159925000D03*
X145670000Y-83605000D03*
X145796000Y-79756000D03*
X145812500Y-159925000D03*
X145900000Y-91008200D03*
X145925000Y-62700000D03*
X146400000Y-51300000D03*
X146450000Y-90150000D03*
X146525000Y-159925000D03*
X146812000Y-78740000D03*
X146940000Y-83575000D03*
X147237500Y-159925000D03*
X147320000Y-81280000D03*
X147828000Y-77724000D03*
X147950000Y-159925000D03*
X148000000Y-92600000D03*
X148336000Y-80264000D03*
X148675000Y-95825000D03*
X148844000Y-76708000D03*
X149050000Y-91800000D03*
X149352000Y-79248000D03*
X149860000Y-75692000D03*
X150368000Y-78232000D03*
X150500000Y-79950000D03*
X151050000Y-70225000D03*
X151212500Y-79950000D03*
X151384000Y-77216000D03*
X151925000Y-79950000D03*
X152000000Y-157950000D03*
X152150000Y-69150000D03*
X152637500Y-79950000D03*
X153000000Y-84475000D03*
X153350000Y-79950000D03*
X154931248Y-63087503D03*
X155950000Y-109750000D03*
X155950000Y-110750000D03*
X155950000Y-111750000D03*
X155975000Y-63500000D03*
X157517947Y-74030085D03*
X157525000Y-76300000D03*
X158225000Y-75608800D03*
X158375000Y-77150000D03*
X158525000Y-73975000D03*
X158525000Y-82225000D03*
X158775000Y-85375000D03*
X158800000Y-86200000D03*
X159250000Y-68950000D03*
X159250000Y-69900000D03*
X159250000Y-70850000D03*
X160325000Y-77150000D03*
X161290000Y-103251000D03*
X161950000Y-77175000D03*
X162450000Y-73900000D03*
X163525000Y-44750000D03*
X163700000Y-84600000D03*
X163725000Y-85400000D03*
X163725000Y-86150000D03*
X163750000Y-73900000D03*
X163975000Y-144600000D03*
X164312500Y-136887500D03*
X164412500Y-84600000D03*
X164437500Y-85400000D03*
X164437500Y-86150000D03*
X165125000Y-84600000D03*
X165150000Y-85400000D03*
X165150000Y-86150000D03*
X165450000Y-77025000D03*
X165525000Y-70775000D03*
X165550000Y-73900000D03*
X165750000Y-108200000D03*
X165837500Y-84600000D03*
X165862500Y-85400000D03*
X165862500Y-86150000D03*
X166550000Y-84600000D03*
X166575000Y-85400000D03*
X166575000Y-86150000D03*
X167095263Y-78595263D03*
X167375000Y-77050000D03*
X167600000Y-73900000D03*
X167600000Y-138000000D03*
X167675000Y-78595263D03*
X168400000Y-138000000D03*
X168500000Y-93650000D03*
X168545263Y-78595263D03*
X168975000Y-56675000D03*
X169200000Y-138000000D03*
X169550000Y-73950000D03*
X170000000Y-138000000D03*
X170850000Y-89550000D03*
X171125000Y-51375000D03*
X171325000Y-83075000D03*
X171500000Y-74450000D03*
X171650000Y-89550000D03*
X171837500Y-51375000D03*
X172450000Y-89550000D03*
X172550000Y-51375000D03*
X172550000Y-75725000D03*
X172875000Y-67625000D03*
X173250000Y-89550000D03*
X173262500Y-51375000D03*
X173925000Y-159350000D03*
X173975000Y-51375000D03*
X174075000Y-40950000D03*
X174450000Y-83075000D03*
X174637500Y-159350000D03*
X174900000Y-86650000D03*
X175350000Y-159350000D03*
X175775000Y-87475000D03*
X175925000Y-84075000D03*
X176062500Y-159350000D03*
X176775000Y-159350000D03*
X177350000Y-88925000D03*
X178100000Y-86225000D03*
X179700000Y-91225000D03*
X180175000Y-88350000D03*
X180750000Y-49750000D03*
X181100000Y-86250000D03*
X181300000Y-98025000D03*
X181725000Y-93200000D03*
X182925000Y-90975000D03*
X183550000Y-115050000D03*
X184525000Y-92325000D03*
X185250000Y-95150000D03*
X185275000Y-144700000D03*
X185537500Y-151000000D03*
X185562500Y-151800000D03*
X185562500Y-152550000D03*
X185850000Y-97100000D03*
X186050000Y-94375000D03*
X186250000Y-68550000D03*
X186250000Y-76400000D03*
X186400000Y-58400000D03*
X186562500Y-87000000D03*
X186698956Y-124331076D03*
X186750000Y-65200000D03*
X186775000Y-71800000D03*
X186962500Y-68550000D03*
X186962500Y-76400000D03*
X186975000Y-93175000D03*
X187112500Y-58400000D03*
X187275000Y-87000000D03*
X187675000Y-68550000D03*
X187675000Y-76400000D03*
X187725000Y-81000000D03*
X187825000Y-58400000D03*
X187987500Y-87000000D03*
X188000000Y-82500000D03*
X188387500Y-68550000D03*
X188387500Y-76400000D03*
X188400000Y-99650000D03*
X188500000Y-95600000D03*
X188525000Y-64500000D03*
X188537500Y-58400000D03*
X188700000Y-87000000D03*
X188775000Y-73225000D03*
X189100000Y-68550000D03*
X189100000Y-76400000D03*
X189150000Y-72200000D03*
X189250000Y-58400000D03*
X189412500Y-87000000D03*
X189450000Y-81125000D03*
X189650000Y-129550000D03*
X189650000Y-130550000D03*
X189650000Y-131550000D03*
X189900000Y-120300000D03*
X189925000Y-64175000D03*
X190000000Y-113250000D03*
X190000000Y-117500000D03*
X190050000Y-110100000D03*
X190300000Y-102250000D03*
X190300000Y-105050000D03*
X190300000Y-107400000D03*
X190450000Y-129550000D03*
X190450000Y-130550000D03*
X190450000Y-131550000D03*
X190500000Y-139700000D03*
X190500000Y-146050000D03*
X191275000Y-124325000D03*
X191425000Y-122325000D03*
X192200000Y-99600000D03*
X192325000Y-123325000D03*
X193200000Y-108100000D03*
X193250000Y-102750000D03*
X193300000Y-105900000D03*
X193300000Y-111800000D03*
X193350000Y-114800000D03*
X193550000Y-119000000D03*
X195050000Y-109225000D03*
D11*
%TO.C,TP3*%
X146084758Y-88725664D03*
%TO.C,TP2*%
X148450000Y-88722200D03*
%TO.C,TP7*%
X184787499Y-66548000D03*
%TO.C,TP6*%
X184787499Y-70535800D03*
%TO.C,TP5*%
X184787499Y-74701400D03*
%TO.C,TP4*%
X184787499Y-79044800D03*
%TO.C,TP8*%
X184787500Y-62144646D03*
%TO.C,TP9*%
X184827501Y-83548126D03*
%TO.C,J2*%
D12*
X106638250Y-44097999D02*
X106638250Y-45297999D01*
X106638250Y-48797999D02*
X106638250Y-49997999D01*
X110388250Y-45197999D02*
X112588250Y-45197999D01*
X116338250Y-44097999D02*
X116338250Y-45297999D01*
X116338250Y-48797999D02*
X116338250Y-49997999D01*
D13*
%TO.C,U9*%
X141253000Y-152770000D03*
X141253000Y-155310000D03*
%TO.C,U10*%
X172573000Y-152830000D03*
X172573000Y-155370000D03*
D14*
%TO.C,J3*%
X191925000Y-88850000D03*
X191925000Y-91350000D03*
X191925000Y-93850000D03*
X191925000Y-96350000D03*
D15*
%TO.C,J2*%
X111488250Y-51197999D03*
D16*
%TO.C,H1*%
X95200000Y-44600000D03*
%TO.C,H4*%
X95200000Y-159000000D03*
%TO.C,H2*%
X192400000Y-44600000D03*
%TO.C,H3*%
X192400000Y-159000000D03*
D17*
%TO.C,U11*%
X123830000Y-117537500D03*
X142069999Y-117537500D03*
%TO.C,U8*%
X156105000Y-117537500D03*
X174344999Y-117537500D03*
M02*
