0
SECTION
2
ENTITIES
0
LWPOLYLINE
8
CUT
90
8
70
1
10
3.0
20
-0.0
10
227.0
20
-0.0
10
230.0
20
-3.0
10
230.0
20
-197.0
10
227.0
20
-200.0
10
3.0
20
-200.0
10
0.0
20
-197.0
10
0.0
20
-3.0
0
CIRCLE
8
CUT
10
10.05
20
-10.06
30
0.0
40
2.975
0
CIRCLE
8
CUT
10
219.95
20
-10.06
30
0.0
40
2.975
0
CIRCLE
8
CUT
10
10.05
20
-189.94
30
0.0
40
2.975
0
CIRCLE
8
CUT
10
219.95
20
-189.94
30
0.0
40
2.975
0
LWPOLYLINE
8
CUT
90
8
70
1
10
29.745454545454542
20
-23.8
10
30.25454545454545
20
-23.8
10
32.8
20
-26.345454545454544
10
32.8
20
-31.654545454545456
10
30.25454545454545
20
-34.2
10
29.745454545454542
20
-34.2
10
27.2
20
-31.654545454545456
10
27.2
20
-26.345454545454544
0
LWPOLYLINE
8
CUT
90
8
70
1
10
69.74545454545455
20
-23.8
10
70.25454545454545
20
-23.8
10
72.8
20
-26.345454545454544
10
72.8
20
-31.654545454545456
10
70.25454545454545
20
-34.2
10
69.74545454545455
20
-34.2
10
67.2
20
-31.654545454545456
10
67.2
20
-26.345454545454544
0
LWPOLYLINE
8
CUT
90
8
70
1
10
29.745454545454542
20
-55.8
10
30.25454545454545
20
-55.8
10
32.8
20
-58.345454545454544
10
32.8
20
-63.654545454545456
10
30.25454545454545
20
-66.2
10
29.745454545454542
20
-66.2
10
27.2
20
-63.654545454545456
10
27.2
20
-58.345454545454544
0
LWPOLYLINE
8
CUT
90
8
70
1
10
69.74545454545455
20
-55.8
10
70.25454545454545
20
-55.8
10
72.8
20
-58.345454545454544
10
72.8
20
-63.654545454545456
10
70.25454545454545
20
-66.2
10
69.74545454545455
20
-66.2
10
67.2
20
-63.654545454545456
10
67.2
20
-58.345454545454544
0
LWPOLYLINE
8
CUT
90
8
70
1
10
106.65454545454546
20
-29.8
10
111.34545454545454
20
-29.8
10
113.8
20
-32.25454545454546
10
113.8
20
-32.74545454545455
10
111.34545454545454
20
-35.2
10
106.65454545454546
20
-35.2
10
104.2
20
-32.74545454545455
10
104.2
20
-32.25454545454546
0
LWPOLYLINE
8
CUT
90
8
70
1
10
128.65454545454546
20
-29.8
10
133.34545454545454
20
-29.8
10
135.8
20
-32.25454545454546
10
135.8
20
-32.74545454545455
10
133.34545454545454
20
-35.2
10
128.65454545454546
20
-35.2
10
126.2
20
-32.74545454545455
10
126.2
20
-32.25454545454546
0
LWPOLYLINE
8
CUT
90
8
70
1
10
106.65454545454546
20
-54.8
10
111.34545454545454
20
-54.8
10
113.8
20
-57.25454545454545
10
113.8
20
-57.74545454545455
10
111.34545454545454
20
-60.2
10
106.65454545454546
20
-60.2
10
104.2
20
-57.74545454545455
10
104.2
20
-57.25454545454545
0
LWPOLYLINE
8
CUT
90
8
70
1
10
128.65454545454546
20
-54.8
10
133.34545454545454
20
-54.8
10
135.8
20
-57.25454545454545
10
135.8
20
-57.74545454545455
10
133.34545454545454
20
-60.2
10
128.65454545454546
20
-60.2
10
126.2
20
-57.74545454545455
10
126.2
20
-57.25454545454545
0
LWPOLYLINE
8
CUT
90
8
70
1
10
169.74545454545452
20
-23.8
10
170.25454545454548
20
-23.8
10
172.8
20
-26.345454545454544
10
172.8
20
-31.654545454545456
10
170.25454545454548
20
-34.2
10
169.74545454545452
20
-34.2
10
167.2
20
-31.654545454545456
10
167.2
20
-26.345454545454544
0
LWPOLYLINE
8
CUT
90
8
70
1
10
209.74545454545452
20
-23.8
10
210.25454545454548
20
-23.8
10
212.8
20
-26.345454545454544
10
212.8
20
-31.654545454545456
10
210.25454545454548
20
-34.2
10
209.74545454545452
20
-34.2
10
207.2
20
-31.654545454545456
10
207.2
20
-26.345454545454544
0
LWPOLYLINE
8
CUT
90
8
70
1
10
169.74545454545452
20
-55.8
10
170.25454545454548
20
-55.8
10
172.8
20
-58.345454545454544
10
172.8
20
-63.654545454545456
10
170.25454545454548
20
-66.2
10
169.74545454545452
20
-66.2
10
167.2
20
-63.654545454545456
10
167.2
20
-58.345454545454544
0
LWPOLYLINE
8
CUT
90
8
70
1
10
209.74545454545452
20
-55.8
10
210.25454545454548
20
-55.8
10
212.8
20
-58.345454545454544
10
212.8
20
-63.654545454545456
10
210.25454545454548
20
-66.2
10
209.74545454545452
20
-66.2
10
207.2
20
-63.654545454545456
10
207.2
20
-58.345454545454544
0
LWPOLYLINE
8
CUT
90
8
70
1
10
49.74545454545455
20
-92.2
10
54.25454545454545
20
-92.2
10
56.8
20
-94.74545454545455
10
56.8
20
-95.25454545454545
10
54.25454545454545
20
-97.8
10
49.74545454545455
20
-97.8
10
47.2
20
-95.25454545454545
10
47.2
20
-94.74545454545455
0
LWPOLYLINE
8
CUT
90
8
70
1
10
75.74545454545455
20
-92.2
10
80.25454545454545
20
-92.2
10
82.8
20
-94.74545454545455
10
82.8
20
-95.25454545454545
10
80.25454545454545
20
-97.8
10
75.74545454545455
20
-97.8
10
73.2
20
-95.25454545454545
10
73.2
20
-94.74545454545455
0
LWPOLYLINE
8
CUT
90
8
70
1
10
49.74545454545455
20
-132.2
10
54.25454545454545
20
-132.2
10
56.8
20
-134.74545454545452
10
56.8
20
-135.25454545454548
10
54.25454545454545
20
-137.8
10
49.74545454545455
20
-137.8
10
47.2
20
-135.25454545454548
10
47.2
20
-134.74545454545452
0
LWPOLYLINE
8
CUT
90
8
70
1
10
75.74545454545455
20
-132.2
10
80.25454545454545
20
-132.2
10
82.8
20
-134.74545454545452
10
82.8
20
-135.25454545454548
10
80.25454545454545
20
-137.8
10
75.74545454545455
20
-137.8
10
73.2
20
-135.25454545454548
10
73.2
20
-134.74545454545452
0
LWPOLYLINE
8
CUT
90
8
70
1
10
174.74545454545452
20
-92.2
10
179.25454545454548
20
-92.2
10
181.8
20
-94.74545454545455
10
181.8
20
-95.25454545454545
10
179.25454545454548
20
-97.8
10
174.74545454545452
20
-97.8
10
172.2
20
-95.25454545454545
10
172.2
20
-94.74545454545455
0
LWPOLYLINE
8
CUT
90
8
70
1
10
200.74545454545452
20
-92.2
10
205.25454545454548
20
-92.2
10
207.8
20
-94.74545454545455
10
207.8
20
-95.25454545454545
10
205.25454545454548
20
-97.8
10
200.74545454545452
20
-97.8
10
198.2
20
-95.25454545454545
10
198.2
20
-94.74545454545455
0
LWPOLYLINE
8
CUT
90
8
70
1
10
174.74545454545452
20
-132.2
10
179.25454545454548
20
-132.2
10
181.8
20
-134.74545454545452
10
181.8
20
-135.25454545454548
10
179.25454545454548
20
-137.8
10
174.74545454545452
20
-137.8
10
172.2
20
-135.25454545454548
10
172.2
20
-134.74545454545452
0
LWPOLYLINE
8
CUT
90
8
70
1
10
200.74545454545452
20
-132.2
10
205.25454545454548
20
-132.2
10
207.8
20
-134.74545454545452
10
207.8
20
-135.25454545454548
10
205.25454545454548
20
-137.8
10
200.74545454545452
20
-137.8
10
198.2
20
-135.25454545454548
10
198.2
20
-134.74545454545452
0
LWPOLYLINE
8
CUT
90
8
70
1
10
70.77954545454546
20
-155.3
10
75.22045454545454
20
-155.3
10
77.675
20
-157.75454545454548
10
77.675
20
-158.24545454545452
10
75.22045454545454
20
-160.7
10
70.77954545454546
20
-160.7
10
68.325
20
-158.24545454545452
10
68.325
20
-157.75454545454548
0
LWPOLYLINE
8
CUT
90
8
70
1
10
94.77954545454546
20
-155.3
10
99.22045454545454
20
-155.3
10
101.675
20
-157.75454545454548
10
101.675
20
-158.24545454545452
10
99.22045454545454
20
-160.7
10
94.77954545454546
20
-160.7
10
92.325
20
-158.24545454545452
10
92.325
20
-157.75454545454548
0
LWPOLYLINE
8
CUT
90
8
70
1
10
70.77954545454546
20
-179.3
10
75.22045454545454
20
-179.3
10
77.675
20
-181.75454545454548
10
77.675
20
-182.24545454545452
10
75.22045454545454
20
-184.7
10
70.77954545454546
20
-184.7
10
68.325
20
-182.24545454545452
10
68.325
20
-181.75454545454548
0
LWPOLYLINE
8
CUT
90
8
70
1
10
94.77954545454546
20
-179.3
10
99.22045454545454
20
-179.3
10
101.675
20
-181.75454545454548
10
101.675
20
-182.24545454545452
10
99.22045454545454
20
-184.7
10
94.77954545454546
20
-184.7
10
92.325
20
-182.24545454545452
10
92.325
20
-181.75454545454548
0
LWPOLYLINE
8
CUT
90
8
70
1
10
103.75454545454545
20
-75.325
10
104.24545454545455
20
-75.325
10
106.7
20
-77.77954545454546
10
106.7
20
-82.22045454545454
10
104.24545454545455
20
-84.675
10
103.75454545454545
20
-84.675
10
101.3
20
-82.22045454545454
10
101.3
20
-77.77954545454546
0
LWPOLYLINE
8
CUT
90
8
70
1
10
135.75454545454548
20
-75.325
10
136.24545454545452
20
-75.325
10
138.7
20
-77.77954545454546
10
138.7
20
-82.22045454545454
10
136.24545454545452
20
-84.675
10
135.75454545454548
20
-84.675
10
133.3
20
-82.22045454545454
10
133.3
20
-77.77954545454546
0
LWPOLYLINE
8
CUT
90
8
70
1
10
103.75454545454545
20
-95.325
10
104.24545454545455
20
-95.325
10
106.7
20
-97.77954545454546
10
106.7
20
-102.22045454545454
10
104.24545454545455
20
-104.675
10
103.75454545454545
20
-104.675
10
101.3
20
-102.22045454545454
10
101.3
20
-97.77954545454546
0
LWPOLYLINE
8
CUT
90
8
70
1
10
135.75454545454548
20
-95.325
10
136.24545454545452
20
-95.325
10
138.7
20
-97.77954545454546
10
138.7
20
-102.22045454545454
10
136.24545454545452
20
-104.675
10
135.75454545454548
20
-104.675
10
133.3
20
-102.22045454545454
10
133.3
20
-97.77954545454546
0
LWPOLYLINE
8
CUT
90
8
70
1
10
178.75454545454548
20
-155.325
10
179.24545454545452
20
-155.325
10
181.7
20
-157.77954545454546
10
181.7
20
-162.22045454545454
10
179.24545454545452
20
-164.675
10
178.75454545454548
20
-164.675
10
176.3
20
-162.22045454545454
10
176.3
20
-157.77954545454546
0
LWPOLYLINE
8
CUT
90
8
70
1
10
210.75454545454548
20
-155.325
10
211.24545454545452
20
-155.325
10
213.7
20
-157.77954545454546
10
213.7
20
-162.22045454545454
10
211.24545454545452
20
-164.675
10
210.75454545454548
20
-164.675
10
208.3
20
-162.22045454545454
10
208.3
20
-157.77954545454546
0
LWPOLYLINE
8
CUT
90
8
70
1
10
178.75454545454548
20
-175.325
10
179.24545454545452
20
-175.325
10
181.7
20
-177.77954545454546
10
181.7
20
-182.22045454545454
10
179.24545454545452
20
-184.675
10
178.75454545454548
20
-184.675
10
176.3
20
-182.22045454545454
10
176.3
20
-177.77954545454546
0
LWPOLYLINE
8
CUT
90
8
70
1
10
210.75454545454548
20
-175.325
10
211.24545454545452
20
-175.325
10
213.7
20
-177.77954545454546
10
213.7
20
-182.22045454545454
10
211.24545454545452
20
-184.675
10
210.75454545454548
20
-184.675
10
208.3
20
-182.22045454545454
10
208.3
20
-177.77954545454546
0
LWPOLYLINE
8
CUT
90
8
70
1
10
119.77954545454546
20
-149.3
10
124.22045454545454
20
-149.3
10
126.675
20
-151.75454545454548
10
126.675
20
-152.24545454545452
10
124.22045454545454
20
-154.7
10
119.77954545454546
20
-154.7
10
117.325
20
-152.24545454545452
10
117.325
20
-151.75454545454548
0
LWPOLYLINE
8
CUT
90
8
70
1
10
155.77954545454546
20
-149.3
10
160.22045454545454
20
-149.3
10
162.675
20
-151.75454545454548
10
162.675
20
-152.24545454545452
10
160.22045454545454
20
-154.7
10
155.77954545454546
20
-154.7
10
153.325
20
-152.24545454545452
10
153.325
20
-151.75454545454548
0
LWPOLYLINE
8
CUT
90
8
70
1
10
119.77954545454546
20
-185.3
10
124.22045454545454
20
-185.3
10
126.675
20
-187.75454545454548
10
126.675
20
-188.24545454545452
10
124.22045454545454
20
-190.7
10
119.77954545454546
20
-190.7
10
117.325
20
-188.24545454545452
10
117.325
20
-187.75454545454548
0
LWPOLYLINE
8
CUT
90
8
70
1
10
155.77954545454546
20
-185.3
10
160.22045454545454
20
-185.3
10
162.675
20
-187.75454545454548
10
162.675
20
-188.24545454545452
10
160.22045454545454
20
-190.7
10
155.77954545454546
20
-190.7
10
153.325
20
-188.24545454545452
10
153.325
20
-187.75454545454548
0
ENDSEC
0
EOF