%TF.GenerationSoftware,KiCad,Pcbnew,10.0.3*%
%TF.CreationDate,2026-08-24T21:41:08+07:00*%
%TF.ProjectId,RheoBoard_V9,5268656f-426f-4617-9264-5f56392e6b69,rev?*%
%TF.SameCoordinates,Original*%
%TF.FileFunction,Drillmap*%
%TF.FilePolarity,Positive*%
%FSLAX45Y45*%
G04 Gerber Fmt 4.5, Leading zero omitted, Abs format (unit mm)*
G04 Created by KiCad (PCBNEW 10.0.3) date 2026-08-24 21:41:08*
%MOMM*%
%LPD*%
G01*
G04 APERTURE LIST*
%ADD10C,0.050000*%
%ADD11C,0.200000*%
%ADD12C,0.100000*%
%ADD13C,0.101600*%
%ADD14C,0.110000*%
%ADD15C,0.127000*%
%ADD16C,0.400000*%
G04 APERTURE END LIST*
D10*
X9845586Y-15269200D02*
X9846310Y-5744221D01*
X9846310Y-5744221D02*
G75*
G02*
X10074931Y-5502196I222250J19051D01*
G01*
X10074931Y-5502197D02*
X10075634Y-5502900D01*
X10075634Y-5502900D02*
X19611886Y-5502900D01*
X10087610Y-15497821D02*
G75*
G02*
X9845585Y-15269200I-19050J222251D01*
G01*
X19611886Y-5502900D02*
G75*
G02*
X19853915Y-5731521I19054J-222250D01*
G01*
X19624565Y-15497821D02*
X10087610Y-15497821D01*
X19625289Y-15498545D02*
X19624565Y-15497821D01*
X19853910Y-5731521D02*
X19853910Y-15256521D01*
X19853910Y-15256521D02*
G75*
G02*
X19625289Y-15498544I-222250J-19049D01*
G01*
D11*
D12*
X10029409Y-10497423D02*
X10059409Y-10527423D01*
X10059409Y-10497423D02*
X10029409Y-10527423D01*
X10029409Y-13497422D02*
X10059409Y-13527422D01*
X10059409Y-13497422D02*
X10029409Y-13527422D01*
X10029409Y-14097422D02*
X10059409Y-14127422D01*
X10059409Y-14097422D02*
X10029409Y-14127422D01*
X10029409Y-14697422D02*
X10059409Y-14727422D01*
X10059409Y-14697422D02*
X10029409Y-14727422D01*
X10029409Y-15297422D02*
X10059409Y-15327422D01*
X10059409Y-15297422D02*
X10029409Y-15327422D01*
X10179409Y-7797424D02*
X10209409Y-7827424D01*
X10209409Y-7797424D02*
X10179409Y-7827424D01*
X10179409Y-12597423D02*
X10209409Y-12627423D01*
X10209409Y-12597423D02*
X10179409Y-12627423D01*
X10179409Y-13797422D02*
X10209409Y-13827422D01*
X10209409Y-13797422D02*
X10179409Y-13827422D01*
X10179409Y-14397422D02*
X10209409Y-14427422D01*
X10209409Y-14397422D02*
X10179409Y-14427422D01*
X10179409Y-14997422D02*
X10209409Y-15027422D01*
X10209409Y-14997422D02*
X10179409Y-15027422D01*
X10222611Y-9817422D02*
X10252611Y-9847422D01*
X10252611Y-9817422D02*
X10222611Y-9847422D01*
X10235311Y-8712522D02*
X10265311Y-8742522D01*
X10265311Y-8712522D02*
X10235311Y-8742522D01*
X10235311Y-12154222D02*
X10265311Y-12184222D01*
X10265311Y-12154222D02*
X10235311Y-12184222D01*
X10298811Y-9919022D02*
X10328811Y-9949022D01*
X10328811Y-9919022D02*
X10298811Y-9949022D01*
X10324211Y-8814122D02*
X10354211Y-8844122D01*
X10354211Y-8814122D02*
X10324211Y-8844122D01*
X10329409Y-11697423D02*
X10359409Y-11727423D01*
X10359409Y-11697423D02*
X10329409Y-11727423D01*
X10329409Y-12897423D02*
X10359409Y-12927423D01*
X10359409Y-12897423D02*
X10329409Y-12927423D01*
X10329409Y-13497422D02*
X10359409Y-13527422D01*
X10359409Y-13497422D02*
X10329409Y-13527422D01*
X10329409Y-14097422D02*
X10359409Y-14127422D01*
X10359409Y-14097422D02*
X10329409Y-14127422D01*
X10329409Y-14697422D02*
X10359409Y-14727422D01*
X10359409Y-14697422D02*
X10329409Y-14727422D01*
X10329409Y-15297422D02*
X10359409Y-15327422D01*
X10359409Y-15297422D02*
X10329409Y-15327422D01*
X10476611Y-11960354D02*
X10506611Y-11990354D01*
X10506611Y-11960354D02*
X10476611Y-11990354D01*
X10479409Y-10197423D02*
X10509409Y-10227423D01*
X10509409Y-10197423D02*
X10479409Y-10227423D01*
X10479409Y-12597423D02*
X10509409Y-12627423D01*
X10509409Y-12597423D02*
X10479409Y-12627423D01*
X10479409Y-14997422D02*
X10509409Y-15027422D01*
X10509409Y-14997422D02*
X10479409Y-15027422D01*
X10629409Y-6897424D02*
X10659409Y-6927424D01*
X10659409Y-6897424D02*
X10629409Y-6927424D01*
X10629409Y-7497424D02*
X10659409Y-7527424D01*
X10659409Y-7497424D02*
X10629409Y-7527424D01*
X10629409Y-11097423D02*
X10659409Y-11127423D01*
X10659409Y-11097423D02*
X10629409Y-11127423D01*
X10629409Y-12897423D02*
X10659409Y-12927423D01*
X10659409Y-12897423D02*
X10629409Y-12927423D01*
X10629409Y-15297422D02*
X10659409Y-15327422D01*
X10659409Y-15297422D02*
X10629409Y-15327422D01*
X10641711Y-12039922D02*
X10671711Y-12069922D01*
X10671711Y-12039922D02*
X10641711Y-12069922D01*
X10727031Y-13284522D02*
X10757031Y-13314522D01*
X10757031Y-13284522D02*
X10727031Y-13314522D01*
X10779409Y-6597424D02*
X10809409Y-6627424D01*
X10809409Y-6597424D02*
X10779409Y-6627424D01*
X10779409Y-7197424D02*
X10809409Y-7227424D01*
X10809409Y-7197424D02*
X10779409Y-7227424D01*
X10779409Y-8397424D02*
X10809409Y-8427424D01*
X10809409Y-8397424D02*
X10779409Y-8427424D01*
X10779409Y-8997424D02*
X10809409Y-9027424D01*
X10809409Y-8997424D02*
X10779409Y-9027424D01*
X10779409Y-9597424D02*
X10809409Y-9627424D01*
X10809409Y-9597424D02*
X10779409Y-9627424D01*
X10779409Y-10197423D02*
X10809409Y-10227423D01*
X10809409Y-10197423D02*
X10779409Y-10227423D01*
X10779409Y-10797423D02*
X10809409Y-10827423D01*
X10809409Y-10797423D02*
X10779409Y-10827423D01*
X10779409Y-12597423D02*
X10809409Y-12627423D01*
X10809409Y-12597423D02*
X10779409Y-12627423D01*
X10929409Y-6297425D02*
X10959409Y-6327425D01*
X10959409Y-6297425D02*
X10929409Y-6327425D01*
X10929409Y-9897423D02*
X10959409Y-9927423D01*
X10959409Y-9897423D02*
X10929409Y-9927423D01*
X10929409Y-10497423D02*
X10959409Y-10527423D01*
X10959409Y-10497423D02*
X10929409Y-10527423D01*
X10929409Y-12297423D02*
X10959409Y-12327423D01*
X10959409Y-12297423D02*
X10929409Y-12327423D01*
X10929409Y-14697422D02*
X10959409Y-14727422D01*
X10959409Y-14697422D02*
X10929409Y-14727422D01*
X11079409Y-10197423D02*
X11109409Y-10227423D01*
X11109409Y-10197423D02*
X11079409Y-10227423D01*
X11079409Y-11397423D02*
X11109409Y-11427423D01*
X11109409Y-11397423D02*
X11079409Y-11427423D01*
X11079409Y-13197422D02*
X11109409Y-13227422D01*
X11109409Y-13197422D02*
X11079409Y-13227422D01*
X11079409Y-14997422D02*
X11109409Y-15027422D01*
X11109409Y-14997422D02*
X11079409Y-15027422D01*
X11137011Y-12801922D02*
X11167011Y-12831922D01*
X11167011Y-12801922D02*
X11137011Y-12831922D01*
X11229409Y-6297425D02*
X11259409Y-6327425D01*
X11259409Y-6297425D02*
X11229409Y-6327425D01*
X11229409Y-8097424D02*
X11259409Y-8127424D01*
X11259409Y-8097424D02*
X11229409Y-8127424D01*
X11229409Y-8697424D02*
X11259409Y-8727424D01*
X11259409Y-8697424D02*
X11229409Y-8727424D01*
X11229409Y-9297424D02*
X11259409Y-9327424D01*
X11259409Y-9297424D02*
X11229409Y-9327424D01*
X11229409Y-11097423D02*
X11259409Y-11127423D01*
X11259409Y-11097423D02*
X11229409Y-11127423D01*
X11264011Y-12801922D02*
X11294011Y-12831922D01*
X11294011Y-12801922D02*
X11264011Y-12831922D01*
X11379409Y-5997425D02*
X11409409Y-6027425D01*
X11409409Y-5997425D02*
X11379409Y-6027425D01*
X11379409Y-6597424D02*
X11409409Y-6627424D01*
X11409409Y-6597424D02*
X11379409Y-6627424D01*
X11379409Y-8397424D02*
X11409409Y-8427424D01*
X11409409Y-8397424D02*
X11379409Y-8427424D01*
X11379409Y-9597424D02*
X11409409Y-9627424D01*
X11409409Y-9597424D02*
X11379409Y-9627424D01*
X11379409Y-10797423D02*
X11409409Y-10827423D01*
X11409409Y-10797423D02*
X11379409Y-10827423D01*
X11379409Y-12597423D02*
X11409409Y-12627423D01*
X11409409Y-12597423D02*
X11379409Y-12627423D01*
X11379409Y-13797422D02*
X11409409Y-13827422D01*
X11409409Y-13797422D02*
X11379409Y-13827422D01*
X11379409Y-14997422D02*
X11409409Y-15027422D01*
X11409409Y-14997422D02*
X11379409Y-15027422D01*
X11529409Y-6297425D02*
X11559409Y-6327425D01*
X11559409Y-6297425D02*
X11529409Y-6327425D01*
X11529409Y-8097424D02*
X11559409Y-8127424D01*
X11559409Y-8097424D02*
X11529409Y-8127424D01*
X11529409Y-12897423D02*
X11559409Y-12927423D01*
X11559409Y-12897423D02*
X11529409Y-12927423D01*
X11529409Y-13497422D02*
X11559409Y-13527422D01*
X11559409Y-13497422D02*
X11529409Y-13527422D01*
X11679409Y-5997425D02*
X11709409Y-6027425D01*
X11709409Y-5997425D02*
X11679409Y-6027425D01*
X11679409Y-6597424D02*
X11709409Y-6627424D01*
X11709409Y-6597424D02*
X11679409Y-6627424D01*
X11679409Y-7197424D02*
X11709409Y-7227424D01*
X11709409Y-7197424D02*
X11679409Y-7227424D01*
X11679409Y-7797424D02*
X11709409Y-7827424D01*
X11709409Y-7797424D02*
X11679409Y-7827424D01*
X11679409Y-8397424D02*
X11709409Y-8427424D01*
X11709409Y-8397424D02*
X11679409Y-8427424D01*
X11679409Y-14997422D02*
X11709409Y-15027422D01*
X11709409Y-14997422D02*
X11679409Y-15027422D01*
X11829409Y-6897424D02*
X11859409Y-6927424D01*
X11859409Y-6897424D02*
X11829409Y-6927424D01*
X11829409Y-8097424D02*
X11859409Y-8127424D01*
X11859409Y-8097424D02*
X11829409Y-8127424D01*
X11829409Y-9297424D02*
X11859409Y-9327424D01*
X11859409Y-9297424D02*
X11829409Y-9327424D01*
X11829409Y-9897423D02*
X11859409Y-9927423D01*
X11859409Y-9897423D02*
X11829409Y-9927423D01*
X11829409Y-11697423D02*
X11859409Y-11727423D01*
X11859409Y-11697423D02*
X11829409Y-11727423D01*
X11829409Y-14097422D02*
X11859409Y-14127422D01*
X11859409Y-14097422D02*
X11829409Y-14127422D01*
X11979409Y-6597424D02*
X12009409Y-6627424D01*
X12009409Y-6597424D02*
X11979409Y-6627424D01*
X11979409Y-7197424D02*
X12009409Y-7227424D01*
X12009409Y-7197424D02*
X11979409Y-7227424D01*
X11979409Y-8397424D02*
X12009409Y-8427424D01*
X12009409Y-8397424D02*
X11979409Y-8427424D01*
X11979409Y-9597424D02*
X12009409Y-9627424D01*
X12009409Y-9597424D02*
X11979409Y-9627424D01*
X11979409Y-10797423D02*
X12009409Y-10827423D01*
X12009409Y-10797423D02*
X11979409Y-10827423D01*
X11979409Y-11397423D02*
X12009409Y-11427423D01*
X12009409Y-11397423D02*
X11979409Y-11427423D01*
X12129409Y-6897424D02*
X12159409Y-6927424D01*
X12159409Y-6897424D02*
X12129409Y-6927424D01*
X12129409Y-7497424D02*
X12159409Y-7527424D01*
X12159409Y-7497424D02*
X12129409Y-7527424D01*
X12129409Y-8697424D02*
X12159409Y-8727424D01*
X12159409Y-8697424D02*
X12129409Y-8727424D01*
X12129409Y-9897423D02*
X12159409Y-9927423D01*
X12159409Y-9897423D02*
X12129409Y-9927423D01*
X12129409Y-11697423D02*
X12159409Y-11727423D01*
X12159409Y-11697423D02*
X12129409Y-11727423D01*
X12129409Y-13497422D02*
X12159409Y-13527422D01*
X12159409Y-13497422D02*
X12129409Y-13527422D01*
X12191111Y-13309930D02*
X12221111Y-13339930D01*
X12221111Y-13309930D02*
X12191111Y-13339930D01*
X12279409Y-7197424D02*
X12309409Y-7227424D01*
X12309409Y-7197424D02*
X12279409Y-7227424D01*
X12279409Y-7797424D02*
X12309409Y-7827424D01*
X12309409Y-7797424D02*
X12279409Y-7827424D01*
X12279409Y-14997422D02*
X12309409Y-15027422D01*
X12309409Y-14997422D02*
X12279409Y-15027422D01*
X12280011Y-13868722D02*
X12310011Y-13898722D01*
X12310011Y-13868722D02*
X12280011Y-13898722D01*
X12429408Y-6897424D02*
X12459408Y-6927424D01*
X12459408Y-6897424D02*
X12429408Y-6927424D01*
X12429408Y-7497424D02*
X12459408Y-7527424D01*
X12459408Y-7497424D02*
X12429408Y-7527424D01*
X12429408Y-13497422D02*
X12459408Y-13527422D01*
X12459408Y-13497422D02*
X12429408Y-13527422D01*
X12579408Y-5997425D02*
X12609408Y-6027425D01*
X12609408Y-5997425D02*
X12579408Y-6027425D01*
X12579408Y-6597424D02*
X12609408Y-6627424D01*
X12609408Y-6597424D02*
X12579408Y-6627424D01*
X12579408Y-7197424D02*
X12609408Y-7227424D01*
X12609408Y-7197424D02*
X12579408Y-7227424D01*
X12579408Y-7797424D02*
X12609408Y-7827424D01*
X12609408Y-7797424D02*
X12579408Y-7827424D01*
X12579408Y-8397424D02*
X12609408Y-8427424D01*
X12609408Y-8397424D02*
X12579408Y-8427424D01*
X12579408Y-8997424D02*
X12609408Y-9027424D01*
X12609408Y-8997424D02*
X12579408Y-9027424D01*
X12579408Y-10797423D02*
X12609408Y-10827423D01*
X12609408Y-10797423D02*
X12579408Y-10827423D01*
X12579408Y-11397423D02*
X12609408Y-11427423D01*
X12609408Y-11397423D02*
X12579408Y-11427423D01*
X12579408Y-14997422D02*
X12609408Y-15027422D01*
X12609408Y-14997422D02*
X12579408Y-15027422D01*
X12622911Y-11976422D02*
X12652911Y-12006422D01*
X12652911Y-11976422D02*
X12622911Y-12006422D01*
X12729408Y-6297425D02*
X12759408Y-6327425D01*
X12759408Y-6297425D02*
X12729408Y-6327425D01*
X12729408Y-6897424D02*
X12759408Y-6927424D01*
X12759408Y-6897424D02*
X12729408Y-6927424D01*
X12729408Y-7497424D02*
X12759408Y-7527424D01*
X12759408Y-7497424D02*
X12729408Y-7527424D01*
X12729408Y-8097424D02*
X12759408Y-8127424D01*
X12759408Y-8097424D02*
X12729408Y-8127424D01*
X12729408Y-8697424D02*
X12759408Y-8727424D01*
X12759408Y-8697424D02*
X12729408Y-8727424D01*
X12729408Y-9297424D02*
X12759408Y-9327424D01*
X12759408Y-9297424D02*
X12729408Y-9327424D01*
X12729408Y-13497422D02*
X12759408Y-13527422D01*
X12759408Y-13497422D02*
X12729408Y-13527422D01*
X12729408Y-14697422D02*
X12759408Y-14727422D01*
X12759408Y-14697422D02*
X12729408Y-14727422D01*
X12800711Y-13957622D02*
X12830711Y-13987622D01*
X12830711Y-13957622D02*
X12800711Y-13987622D01*
X12879408Y-5997425D02*
X12909408Y-6027425D01*
X12909408Y-5997425D02*
X12879408Y-6027425D01*
X12879408Y-6597424D02*
X12909408Y-6627424D01*
X12909408Y-6597424D02*
X12879408Y-6627424D01*
X12879408Y-7197424D02*
X12909408Y-7227424D01*
X12909408Y-7197424D02*
X12879408Y-7227424D01*
X12879408Y-7797424D02*
X12909408Y-7827424D01*
X12909408Y-7797424D02*
X12879408Y-7827424D01*
X12879408Y-8397424D02*
X12909408Y-8427424D01*
X12909408Y-8397424D02*
X12879408Y-8427424D01*
X12879408Y-8997424D02*
X12909408Y-9027424D01*
X12909408Y-8997424D02*
X12879408Y-9027424D01*
X12879408Y-9597424D02*
X12909408Y-9627424D01*
X12909408Y-9597424D02*
X12879408Y-9627424D01*
X12879408Y-10797423D02*
X12909408Y-10827423D01*
X12909408Y-10797423D02*
X12879408Y-10827423D01*
X12879408Y-14397422D02*
X12909408Y-14427422D01*
X12909408Y-14397422D02*
X12879408Y-14427422D01*
X13029408Y-6297425D02*
X13059408Y-6327425D01*
X13059408Y-6297425D02*
X13029408Y-6327425D01*
X13029408Y-6897424D02*
X13059408Y-6927424D01*
X13059408Y-6897424D02*
X13029408Y-6927424D01*
X13029408Y-7497424D02*
X13059408Y-7527424D01*
X13059408Y-7497424D02*
X13029408Y-7527424D01*
X13029408Y-8097424D02*
X13059408Y-8127424D01*
X13059408Y-8097424D02*
X13029408Y-8127424D01*
X13029408Y-8697424D02*
X13059408Y-8727424D01*
X13059408Y-8697424D02*
X13029408Y-8727424D01*
X13029408Y-9297424D02*
X13059408Y-9327424D01*
X13059408Y-9297424D02*
X13029408Y-9327424D01*
X13029408Y-9897423D02*
X13059408Y-9927423D01*
X13059408Y-9897423D02*
X13029408Y-9927423D01*
X13029408Y-14697422D02*
X13059408Y-14727422D01*
X13059408Y-14697422D02*
X13029408Y-14727422D01*
X13179408Y-5997425D02*
X13209408Y-6027425D01*
X13209408Y-5997425D02*
X13179408Y-6027425D01*
X13179408Y-6597424D02*
X13209408Y-6627424D01*
X13209408Y-6597424D02*
X13179408Y-6627424D01*
X13179408Y-7197424D02*
X13209408Y-7227424D01*
X13209408Y-7197424D02*
X13179408Y-7227424D01*
X13179408Y-7797424D02*
X13209408Y-7827424D01*
X13209408Y-7797424D02*
X13179408Y-7827424D01*
X13179408Y-8397424D02*
X13209408Y-8427424D01*
X13209408Y-8397424D02*
X13179408Y-8427424D01*
X13179408Y-8997424D02*
X13209408Y-9027424D01*
X13209408Y-8997424D02*
X13179408Y-9027424D01*
X13179408Y-9597424D02*
X13209408Y-9627424D01*
X13209408Y-9597424D02*
X13179408Y-9627424D01*
X13194411Y-13742621D02*
X13224411Y-13772621D01*
X13224411Y-13742621D02*
X13194411Y-13772621D01*
X13219811Y-13284522D02*
X13249811Y-13314522D01*
X13249811Y-13284522D02*
X13219811Y-13314522D01*
X13257911Y-13678222D02*
X13287911Y-13708222D01*
X13287911Y-13678222D02*
X13257911Y-13708222D01*
X13329408Y-6297425D02*
X13359408Y-6327425D01*
X13359408Y-6297425D02*
X13329408Y-6327425D01*
X13329408Y-6897424D02*
X13359408Y-6927424D01*
X13359408Y-6897424D02*
X13329408Y-6927424D01*
X13329408Y-7497424D02*
X13359408Y-7527424D01*
X13359408Y-7497424D02*
X13329408Y-7527424D01*
X13329408Y-8097424D02*
X13359408Y-8127424D01*
X13359408Y-8097424D02*
X13329408Y-8127424D01*
X13329408Y-12297423D02*
X13359408Y-12327423D01*
X13359408Y-12297423D02*
X13329408Y-12327423D01*
X13329408Y-12897423D02*
X13359408Y-12927423D01*
X13359408Y-12897423D02*
X13329408Y-12927423D01*
X13479408Y-5997425D02*
X13509408Y-6027425D01*
X13509408Y-5997425D02*
X13479408Y-6027425D01*
X13479408Y-12597423D02*
X13509408Y-12627423D01*
X13509408Y-12597423D02*
X13479408Y-12627423D01*
X13629408Y-7497424D02*
X13659408Y-7527424D01*
X13659408Y-7497424D02*
X13629408Y-7527424D01*
X13629408Y-8097424D02*
X13659408Y-8127424D01*
X13659408Y-8097424D02*
X13629408Y-8127424D01*
X13629408Y-9297424D02*
X13659408Y-9327424D01*
X13659408Y-9297424D02*
X13629408Y-9327424D01*
X13629408Y-9897423D02*
X13659408Y-9927423D01*
X13659408Y-9897423D02*
X13629408Y-9927423D01*
X13629408Y-10497423D02*
X13659408Y-10527423D01*
X13659408Y-10497423D02*
X13629408Y-10527423D01*
X13629408Y-11697423D02*
X13659408Y-11727423D01*
X13659408Y-11697423D02*
X13629408Y-11727423D01*
X13629408Y-12297423D02*
X13659408Y-12327423D01*
X13659408Y-12297423D02*
X13629408Y-12327423D01*
X13638911Y-12001822D02*
X13668911Y-12031822D01*
X13668911Y-12001822D02*
X13638911Y-12031822D01*
X13779408Y-7797424D02*
X13809408Y-7827424D01*
X13809408Y-7797424D02*
X13779408Y-7827424D01*
X13779408Y-8397424D02*
X13809408Y-8427424D01*
X13809408Y-8397424D02*
X13779408Y-8427424D01*
X13779408Y-8997424D02*
X13809408Y-9027424D01*
X13809408Y-8997424D02*
X13779408Y-9027424D01*
X13779408Y-9597424D02*
X13809408Y-9627424D01*
X13809408Y-9597424D02*
X13779408Y-9627424D01*
X13779408Y-10797423D02*
X13809408Y-10827423D01*
X13809408Y-10797423D02*
X13779408Y-10827423D01*
X13779408Y-11397423D02*
X13809408Y-11427423D01*
X13809408Y-11397423D02*
X13779408Y-11427423D01*
X13779408Y-12597423D02*
X13809408Y-12627423D01*
X13809408Y-12597423D02*
X13779408Y-12627423D01*
X13929408Y-6297425D02*
X13959408Y-6327425D01*
X13959408Y-6297425D02*
X13929408Y-6327425D01*
X13929408Y-6897424D02*
X13959408Y-6927424D01*
X13959408Y-6897424D02*
X13929408Y-6927424D01*
X13929408Y-11697423D02*
X13959408Y-11727423D01*
X13959408Y-11697423D02*
X13929408Y-11727423D01*
X13929408Y-14097422D02*
X13959408Y-14127422D01*
X13959408Y-14097422D02*
X13929408Y-14127422D01*
X14079408Y-10797423D02*
X14109408Y-10827423D01*
X14109408Y-10797423D02*
X14079408Y-10827423D01*
X14079408Y-11997423D02*
X14109408Y-12027423D01*
X14109408Y-11997423D02*
X14079408Y-12027423D01*
X14229408Y-6297425D02*
X14259408Y-6327425D01*
X14259408Y-6297425D02*
X14229408Y-6327425D01*
X14229408Y-6897424D02*
X14259408Y-6927424D01*
X14259408Y-6897424D02*
X14229408Y-6927424D01*
X14229408Y-12297423D02*
X14259408Y-12327423D01*
X14259408Y-12297423D02*
X14229408Y-12327423D01*
X14229408Y-14097422D02*
X14259408Y-14127422D01*
X14259408Y-14097422D02*
X14229408Y-14127422D01*
X14379408Y-13797422D02*
X14409408Y-13827422D01*
X14409408Y-13797422D02*
X14379408Y-13827422D01*
X14426311Y-13271822D02*
X14456311Y-13301822D01*
X14456311Y-13271822D02*
X14426311Y-13301822D01*
X14451711Y-12319322D02*
X14481711Y-12349322D01*
X14481711Y-12319322D02*
X14451711Y-12349322D01*
X14529408Y-6297425D02*
X14559408Y-6327425D01*
X14559408Y-6297425D02*
X14529408Y-6327425D01*
X14529408Y-7497424D02*
X14559408Y-7527424D01*
X14559408Y-7497424D02*
X14529408Y-7527424D01*
X14529408Y-11097423D02*
X14559408Y-11127423D01*
X14559408Y-11097423D02*
X14529408Y-11127423D01*
X14529408Y-14097422D02*
X14559408Y-14127422D01*
X14559408Y-14097422D02*
X14529408Y-14127422D01*
X14529408Y-15297422D02*
X14559408Y-15327422D01*
X14559408Y-15297422D02*
X14529408Y-15327422D01*
X14654911Y-12725722D02*
X14684911Y-12755722D01*
X14684911Y-12725722D02*
X14654911Y-12755722D01*
X14679408Y-5997425D02*
X14709408Y-6027425D01*
X14709408Y-5997425D02*
X14679408Y-6027425D01*
X14679408Y-6597424D02*
X14709408Y-6627424D01*
X14709408Y-6597424D02*
X14679408Y-6627424D01*
X14679408Y-7197424D02*
X14709408Y-7227424D01*
X14709408Y-7197424D02*
X14679408Y-7227424D01*
X14679408Y-10797423D02*
X14709408Y-10827423D01*
X14709408Y-10797423D02*
X14679408Y-10827423D01*
X14679408Y-11397423D02*
X14709408Y-11427423D01*
X14709408Y-11397423D02*
X14679408Y-11427423D01*
X14679408Y-11997423D02*
X14709408Y-12027423D01*
X14709408Y-11997423D02*
X14679408Y-12027423D01*
X14679408Y-13797422D02*
X14709408Y-13827422D01*
X14709408Y-13797422D02*
X14679408Y-13827422D01*
X14679408Y-14997422D02*
X14709408Y-15027422D01*
X14709408Y-14997422D02*
X14679408Y-15027422D01*
X14756511Y-13055922D02*
X14786511Y-13085922D01*
X14786511Y-13055922D02*
X14756511Y-13085922D01*
X14829408Y-6297425D02*
X14859408Y-6327425D01*
X14859408Y-6297425D02*
X14829408Y-6327425D01*
X14829408Y-7497424D02*
X14859408Y-7527424D01*
X14859408Y-7497424D02*
X14829408Y-7527424D01*
X14829408Y-11097423D02*
X14859408Y-11127423D01*
X14859408Y-11097423D02*
X14829408Y-11127423D01*
X14829408Y-14097422D02*
X14859408Y-14127422D01*
X14859408Y-14097422D02*
X14829408Y-14127422D01*
X14829408Y-14697422D02*
X14859408Y-14727422D01*
X14859408Y-14697422D02*
X14829408Y-14727422D01*
X14829408Y-15297422D02*
X14859408Y-15327422D01*
X14859408Y-15297422D02*
X14829408Y-15327422D01*
X14832711Y-12725722D02*
X14862711Y-12755722D01*
X14862711Y-12725722D02*
X14832711Y-12755722D01*
X14979408Y-10797423D02*
X15009408Y-10827423D01*
X15009408Y-10797423D02*
X14979408Y-10827423D01*
X14979408Y-11397423D02*
X15009408Y-11427423D01*
X15009408Y-11397423D02*
X14979408Y-11427423D01*
X14979408Y-13197422D02*
X15009408Y-13227422D01*
X15009408Y-13197422D02*
X14979408Y-13227422D01*
X14979408Y-13797422D02*
X15009408Y-13827422D01*
X15009408Y-13797422D02*
X14979408Y-13827422D01*
X14979408Y-14997422D02*
X15009408Y-15027422D01*
X15009408Y-14997422D02*
X14979408Y-15027422D01*
X15010511Y-12141522D02*
X15040511Y-12171522D01*
X15040511Y-12141522D02*
X15010511Y-12171522D01*
X15129408Y-6297425D02*
X15159408Y-6327425D01*
X15159408Y-6297425D02*
X15129408Y-6327425D01*
X15129408Y-14097422D02*
X15159408Y-14127422D01*
X15159408Y-14097422D02*
X15129408Y-14127422D01*
X15129408Y-14697422D02*
X15159408Y-14727422D01*
X15159408Y-14697422D02*
X15129408Y-14727422D01*
X15129408Y-15297422D02*
X15159408Y-15327422D01*
X15159408Y-15297422D02*
X15129408Y-15327422D01*
X15279408Y-5997425D02*
X15309408Y-6027425D01*
X15309408Y-5997425D02*
X15279408Y-6027425D01*
X15429408Y-9897423D02*
X15459408Y-9927423D01*
X15459408Y-9897423D02*
X15429408Y-9927423D01*
X15429408Y-10497423D02*
X15459408Y-10527423D01*
X15459408Y-10497423D02*
X15429408Y-10527423D01*
X15429408Y-14697422D02*
X15459408Y-14727422D01*
X15459408Y-14697422D02*
X15429408Y-14727422D01*
X15429408Y-15297422D02*
X15459408Y-15327422D01*
X15459408Y-15297422D02*
X15429408Y-15327422D01*
X15579408Y-10197423D02*
X15609408Y-10227423D01*
X15609408Y-10197423D02*
X15579408Y-10227423D01*
X15579408Y-10797423D02*
X15609408Y-10827423D01*
X15609408Y-10797423D02*
X15579408Y-10827423D01*
X15579408Y-11397423D02*
X15609408Y-11427423D01*
X15609408Y-11397423D02*
X15579408Y-11427423D01*
X15579408Y-11997423D02*
X15609408Y-12027423D01*
X15609408Y-11997423D02*
X15579408Y-12027423D01*
X15709011Y-14184822D02*
X15739011Y-14214822D01*
X15739011Y-14184822D02*
X15709011Y-14214822D01*
X15729407Y-6297425D02*
X15759407Y-6327425D01*
X15759407Y-6297425D02*
X15729407Y-6327425D01*
X15729407Y-6897424D02*
X15759407Y-6927424D01*
X15759407Y-6897424D02*
X15729407Y-6927424D01*
X15729407Y-7497424D02*
X15759407Y-7527424D01*
X15759407Y-7497424D02*
X15729407Y-7527424D01*
X15729407Y-9897423D02*
X15759407Y-9927423D01*
X15759407Y-9897423D02*
X15729407Y-9927423D01*
X15729407Y-11097423D02*
X15759407Y-11127423D01*
X15759407Y-11097423D02*
X15729407Y-11127423D01*
X15729407Y-11697423D02*
X15759407Y-11727423D01*
X15759407Y-11697423D02*
X15729407Y-11727423D01*
X15729407Y-15297422D02*
X15759407Y-15327422D01*
X15759407Y-15297422D02*
X15729407Y-15327422D01*
X15879407Y-7797424D02*
X15909407Y-7827424D01*
X15909407Y-7797424D02*
X15879407Y-7827424D01*
X15879407Y-9597424D02*
X15909407Y-9627424D01*
X15909407Y-9597424D02*
X15879407Y-9627424D01*
X15879407Y-11397423D02*
X15909407Y-11427423D01*
X15909407Y-11397423D02*
X15879407Y-11427423D01*
X15879407Y-11997423D02*
X15909407Y-12027423D01*
X15909407Y-11997423D02*
X15879407Y-12027423D01*
X15879407Y-13197422D02*
X15909407Y-13227422D01*
X15909407Y-13197422D02*
X15879407Y-13227422D01*
X15879407Y-13797422D02*
X15909407Y-13827422D01*
X15909407Y-13797422D02*
X15879407Y-13827422D01*
X16029407Y-6297425D02*
X16059407Y-6327425D01*
X16059407Y-6297425D02*
X16029407Y-6327425D01*
X16029407Y-6897424D02*
X16059407Y-6927424D01*
X16059407Y-6897424D02*
X16029407Y-6927424D01*
X16029407Y-7497424D02*
X16059407Y-7527424D01*
X16059407Y-7497424D02*
X16029407Y-7527424D01*
X16029407Y-8097424D02*
X16059407Y-8127424D01*
X16059407Y-8097424D02*
X16029407Y-8127424D01*
X16029407Y-9297424D02*
X16059407Y-9327424D01*
X16059407Y-9297424D02*
X16029407Y-9327424D01*
X16029407Y-9897423D02*
X16059407Y-9927423D01*
X16059407Y-9897423D02*
X16029407Y-9927423D01*
X16029407Y-10497423D02*
X16059407Y-10527423D01*
X16059407Y-10497423D02*
X16029407Y-10527423D01*
X16029407Y-11097423D02*
X16059407Y-11127423D01*
X16059407Y-11097423D02*
X16029407Y-11127423D01*
X16029407Y-11697423D02*
X16059407Y-11727423D01*
X16059407Y-11697423D02*
X16029407Y-11727423D01*
X16029407Y-12897423D02*
X16059407Y-12927423D01*
X16059407Y-12897423D02*
X16029407Y-12927423D01*
X16166211Y-14287822D02*
X16196211Y-14317822D01*
X16196211Y-14287822D02*
X16166211Y-14317822D01*
X16179407Y-7797424D02*
X16209407Y-7827424D01*
X16209407Y-7797424D02*
X16179407Y-7827424D01*
X16179407Y-9597424D02*
X16209407Y-9627424D01*
X16209407Y-9597424D02*
X16179407Y-9627424D01*
X16179407Y-10797423D02*
X16209407Y-10827423D01*
X16209407Y-10797423D02*
X16179407Y-10827423D01*
X16179407Y-11397423D02*
X16209407Y-11427423D01*
X16209407Y-11397423D02*
X16179407Y-11427423D01*
X16179407Y-11997423D02*
X16209407Y-12027423D01*
X16209407Y-11997423D02*
X16179407Y-12027423D01*
X16329407Y-6297425D02*
X16359407Y-6327425D01*
X16359407Y-6297425D02*
X16329407Y-6327425D01*
X16329407Y-8097424D02*
X16359407Y-8127424D01*
X16359407Y-8097424D02*
X16329407Y-8127424D01*
X16329407Y-8697424D02*
X16359407Y-8727424D01*
X16359407Y-8697424D02*
X16329407Y-8727424D01*
X16329407Y-9297424D02*
X16359407Y-9327424D01*
X16359407Y-9297424D02*
X16329407Y-9327424D01*
X16329407Y-9897423D02*
X16359407Y-9927423D01*
X16359407Y-9897423D02*
X16329407Y-9927423D01*
X16329407Y-10497423D02*
X16359407Y-10527423D01*
X16359407Y-10497423D02*
X16329407Y-10527423D01*
X16329407Y-11097423D02*
X16359407Y-11127423D01*
X16359407Y-11097423D02*
X16329407Y-11127423D01*
X16329407Y-11697423D02*
X16359407Y-11727423D01*
X16359407Y-11697423D02*
X16329407Y-11727423D01*
X16479407Y-5997425D02*
X16509407Y-6027425D01*
X16509407Y-5997425D02*
X16479407Y-6027425D01*
X16479407Y-6597424D02*
X16509407Y-6627424D01*
X16509407Y-6597424D02*
X16479407Y-6627424D01*
X16479407Y-7197424D02*
X16509407Y-7227424D01*
X16509407Y-7197424D02*
X16479407Y-7227424D01*
X16479407Y-8397424D02*
X16509407Y-8427424D01*
X16509407Y-8397424D02*
X16479407Y-8427424D01*
X16479407Y-8997424D02*
X16509407Y-9027424D01*
X16509407Y-8997424D02*
X16479407Y-9027424D01*
X16479407Y-9597424D02*
X16509407Y-9627424D01*
X16509407Y-9597424D02*
X16479407Y-9627424D01*
X16479407Y-10797423D02*
X16509407Y-10827423D01*
X16509407Y-10797423D02*
X16479407Y-10827423D01*
X16479407Y-11397423D02*
X16509407Y-11427423D01*
X16509407Y-11397423D02*
X16479407Y-11427423D01*
X16479407Y-11997423D02*
X16509407Y-12027423D01*
X16509407Y-11997423D02*
X16479407Y-12027423D01*
X16479407Y-14997422D02*
X16509407Y-15027422D01*
X16509407Y-14997422D02*
X16479407Y-15027422D01*
X16629407Y-6297425D02*
X16659407Y-6327425D01*
X16659407Y-6297425D02*
X16629407Y-6327425D01*
X16629407Y-6897424D02*
X16659407Y-6927424D01*
X16659407Y-6897424D02*
X16629407Y-6927424D01*
X16629407Y-7497424D02*
X16659407Y-7527424D01*
X16659407Y-7497424D02*
X16629407Y-7527424D01*
X16629407Y-8097424D02*
X16659407Y-8127424D01*
X16659407Y-8097424D02*
X16629407Y-8127424D01*
X16629407Y-8697424D02*
X16659407Y-8727424D01*
X16659407Y-8697424D02*
X16629407Y-8727424D01*
X16629407Y-9297424D02*
X16659407Y-9327424D01*
X16659407Y-9297424D02*
X16629407Y-9327424D01*
X16629407Y-9897423D02*
X16659407Y-9927423D01*
X16659407Y-9897423D02*
X16629407Y-9927423D01*
X16629407Y-10497423D02*
X16659407Y-10527423D01*
X16659407Y-10497423D02*
X16629407Y-10527423D01*
X16629407Y-11097423D02*
X16659407Y-11127423D01*
X16659407Y-11097423D02*
X16629407Y-11127423D01*
X16629407Y-11697423D02*
X16659407Y-11727423D01*
X16659407Y-11697423D02*
X16629407Y-11727423D01*
X16629407Y-14097422D02*
X16659407Y-14127422D01*
X16659407Y-14097422D02*
X16629407Y-14127422D01*
X16629407Y-14697422D02*
X16659407Y-14727422D01*
X16659407Y-14697422D02*
X16629407Y-14727422D01*
X16629407Y-15297422D02*
X16659407Y-15327422D01*
X16659407Y-15297422D02*
X16629407Y-15327422D01*
X16779407Y-5997425D02*
X16809407Y-6027425D01*
X16809407Y-5997425D02*
X16779407Y-6027425D01*
X16779407Y-6597424D02*
X16809407Y-6627424D01*
X16809407Y-6597424D02*
X16779407Y-6627424D01*
X16779407Y-7197424D02*
X16809407Y-7227424D01*
X16809407Y-7197424D02*
X16779407Y-7227424D01*
X16779407Y-8397424D02*
X16809407Y-8427424D01*
X16809407Y-8397424D02*
X16779407Y-8427424D01*
X16779407Y-8997424D02*
X16809407Y-9027424D01*
X16809407Y-8997424D02*
X16779407Y-9027424D01*
X16779407Y-9597424D02*
X16809407Y-9627424D01*
X16809407Y-9597424D02*
X16779407Y-9627424D01*
X16779407Y-10797423D02*
X16809407Y-10827423D01*
X16809407Y-10797423D02*
X16779407Y-10827423D01*
X16779407Y-11397423D02*
X16809407Y-11427423D01*
X16809407Y-11397423D02*
X16779407Y-11427423D01*
X16779407Y-11997423D02*
X16809407Y-12027423D01*
X16809407Y-11997423D02*
X16779407Y-12027423D01*
X16779407Y-13197422D02*
X16809407Y-13227422D01*
X16809407Y-13197422D02*
X16779407Y-13227422D01*
X16779407Y-13797422D02*
X16809407Y-13827422D01*
X16809407Y-13797422D02*
X16779407Y-13827422D01*
X16779407Y-14997422D02*
X16809407Y-15027422D01*
X16809407Y-14997422D02*
X16779407Y-15027422D01*
X16929407Y-6297425D02*
X16959407Y-6327425D01*
X16959407Y-6297425D02*
X16929407Y-6327425D01*
X16929407Y-6897424D02*
X16959407Y-6927424D01*
X16959407Y-6897424D02*
X16929407Y-6927424D01*
X16929407Y-7497424D02*
X16959407Y-7527424D01*
X16959407Y-7497424D02*
X16929407Y-7527424D01*
X16929407Y-8697424D02*
X16959407Y-8727424D01*
X16959407Y-8697424D02*
X16929407Y-8727424D01*
X16929407Y-9297424D02*
X16959407Y-9327424D01*
X16959407Y-9297424D02*
X16929407Y-9327424D01*
X16929407Y-9897423D02*
X16959407Y-9927423D01*
X16959407Y-9897423D02*
X16929407Y-9927423D01*
X16929407Y-10497423D02*
X16959407Y-10527423D01*
X16959407Y-10497423D02*
X16929407Y-10527423D01*
X16929407Y-11097423D02*
X16959407Y-11127423D01*
X16959407Y-11097423D02*
X16929407Y-11127423D01*
X16929407Y-11697423D02*
X16959407Y-11727423D01*
X16959407Y-11697423D02*
X16929407Y-11727423D01*
X16929407Y-14097422D02*
X16959407Y-14127422D01*
X16959407Y-14097422D02*
X16929407Y-14127422D01*
X16929407Y-14697422D02*
X16959407Y-14727422D01*
X16959407Y-14697422D02*
X16929407Y-14727422D01*
X16929407Y-15297422D02*
X16959407Y-15327422D01*
X16959407Y-15297422D02*
X16929407Y-15327422D01*
X17079407Y-5997425D02*
X17109407Y-6027425D01*
X17109407Y-5997425D02*
X17079407Y-6027425D01*
X17079407Y-6597424D02*
X17109407Y-6627424D01*
X17109407Y-6597424D02*
X17079407Y-6627424D01*
X17079407Y-7197424D02*
X17109407Y-7227424D01*
X17109407Y-7197424D02*
X17079407Y-7227424D01*
X17079407Y-7797424D02*
X17109407Y-7827424D01*
X17109407Y-7797424D02*
X17079407Y-7827424D01*
X17079407Y-8997424D02*
X17109407Y-9027424D01*
X17109407Y-8997424D02*
X17079407Y-9027424D01*
X17079407Y-9597424D02*
X17109407Y-9627424D01*
X17109407Y-9597424D02*
X17079407Y-9627424D01*
X17079407Y-10797423D02*
X17109407Y-10827423D01*
X17109407Y-10797423D02*
X17079407Y-10827423D01*
X17079407Y-11397423D02*
X17109407Y-11427423D01*
X17109407Y-11397423D02*
X17079407Y-11427423D01*
X17079407Y-11997423D02*
X17109407Y-12027423D01*
X17109407Y-11997423D02*
X17079407Y-12027423D01*
X17079407Y-14997422D02*
X17109407Y-15027422D01*
X17109407Y-14997422D02*
X17079407Y-15027422D01*
X17229407Y-6297425D02*
X17259407Y-6327425D01*
X17259407Y-6297425D02*
X17229407Y-6327425D01*
X17229407Y-6897424D02*
X17259407Y-6927424D01*
X17259407Y-6897424D02*
X17229407Y-6927424D01*
X17229407Y-7497424D02*
X17259407Y-7527424D01*
X17259407Y-7497424D02*
X17229407Y-7527424D01*
X17229407Y-8097424D02*
X17259407Y-8127424D01*
X17259407Y-8097424D02*
X17229407Y-8127424D01*
X17229407Y-8697424D02*
X17259407Y-8727424D01*
X17259407Y-8697424D02*
X17229407Y-8727424D01*
X17229407Y-15297422D02*
X17259407Y-15327422D01*
X17259407Y-15297422D02*
X17229407Y-15327422D01*
X17379407Y-5997425D02*
X17409407Y-6027425D01*
X17409407Y-5997425D02*
X17379407Y-6027425D01*
X17379407Y-7797424D02*
X17409407Y-7827424D01*
X17409407Y-7797424D02*
X17379407Y-7827424D01*
X17379407Y-12597423D02*
X17409407Y-12627423D01*
X17409407Y-12597423D02*
X17379407Y-12627423D01*
X17529407Y-6297425D02*
X17559407Y-6327425D01*
X17559407Y-6297425D02*
X17529407Y-6327425D01*
X17529407Y-8097424D02*
X17559407Y-8127424D01*
X17559407Y-8097424D02*
X17529407Y-8127424D01*
X17529407Y-9297424D02*
X17559407Y-9327424D01*
X17559407Y-9297424D02*
X17529407Y-9327424D01*
X17529407Y-9897423D02*
X17559407Y-9927423D01*
X17559407Y-9897423D02*
X17529407Y-9927423D01*
X17529407Y-10497423D02*
X17559407Y-10527423D01*
X17559407Y-10497423D02*
X17529407Y-10527423D01*
X17529407Y-11097423D02*
X17559407Y-11127423D01*
X17559407Y-11097423D02*
X17529407Y-11127423D01*
X17529407Y-11697423D02*
X17559407Y-11727423D01*
X17559407Y-11697423D02*
X17529407Y-11727423D01*
X17529407Y-12897423D02*
X17559407Y-12927423D01*
X17559407Y-12897423D02*
X17529407Y-12927423D01*
X17679407Y-5997425D02*
X17709407Y-6027425D01*
X17709407Y-5997425D02*
X17679407Y-6027425D01*
X17679407Y-7797424D02*
X17709407Y-7827424D01*
X17709407Y-7797424D02*
X17679407Y-7827424D01*
X17679407Y-8397424D02*
X17709407Y-8427424D01*
X17709407Y-8397424D02*
X17679407Y-8427424D01*
X17679407Y-9597424D02*
X17709407Y-9627424D01*
X17709407Y-9597424D02*
X17679407Y-9627424D01*
X17679407Y-10197423D02*
X17709407Y-10227423D01*
X17709407Y-10197423D02*
X17679407Y-10227423D01*
X17679407Y-10797423D02*
X17709407Y-10827423D01*
X17709407Y-10797423D02*
X17679407Y-10827423D01*
X17679407Y-11397423D02*
X17709407Y-11427423D01*
X17709407Y-11397423D02*
X17679407Y-11427423D01*
X17679407Y-12597423D02*
X17709407Y-12627423D01*
X17709407Y-12597423D02*
X17679407Y-12627423D01*
X17679407Y-13797422D02*
X17709407Y-13827422D01*
X17709407Y-13797422D02*
X17679407Y-13827422D01*
X17829407Y-6297425D02*
X17859407Y-6327425D01*
X17859407Y-6297425D02*
X17829407Y-6327425D01*
X17829407Y-8097424D02*
X17859407Y-8127424D01*
X17859407Y-8097424D02*
X17829407Y-8127424D01*
X17829407Y-9297424D02*
X17859407Y-9327424D01*
X17859407Y-9297424D02*
X17829407Y-9327424D01*
X17829407Y-10497423D02*
X17859407Y-10527423D01*
X17859407Y-10497423D02*
X17829407Y-10527423D01*
X17829407Y-11097423D02*
X17859407Y-11127423D01*
X17859407Y-11097423D02*
X17829407Y-11127423D01*
X17829407Y-11697423D02*
X17859407Y-11727423D01*
X17859407Y-11697423D02*
X17829407Y-11727423D01*
X17829407Y-12297423D02*
X17859407Y-12327423D01*
X17859407Y-12297423D02*
X17829407Y-12327423D01*
X17829407Y-14097422D02*
X17859407Y-14127422D01*
X17859407Y-14097422D02*
X17829407Y-14127422D01*
X17842611Y-14287822D02*
X17872611Y-14317822D01*
X17872611Y-14287822D02*
X17842611Y-14317822D01*
X17979407Y-5997425D02*
X18009407Y-6027425D01*
X18009407Y-5997425D02*
X17979407Y-6027425D01*
X17979407Y-8397424D02*
X18009407Y-8427424D01*
X18009407Y-8397424D02*
X17979407Y-8427424D01*
X17979407Y-8997424D02*
X18009407Y-9027424D01*
X18009407Y-8997424D02*
X17979407Y-9027424D01*
X17979407Y-11397423D02*
X18009407Y-11427423D01*
X18009407Y-11397423D02*
X17979407Y-11427423D01*
X17979407Y-11997423D02*
X18009407Y-12027423D01*
X18009407Y-11997423D02*
X17979407Y-12027423D01*
X17979407Y-14997422D02*
X18009407Y-15027422D01*
X18009407Y-14997422D02*
X17979407Y-15027422D01*
X18129407Y-6297425D02*
X18159407Y-6327425D01*
X18159407Y-6297425D02*
X18129407Y-6327425D01*
X18129407Y-12297423D02*
X18159407Y-12327423D01*
X18159407Y-12297423D02*
X18129407Y-12327423D01*
X18129407Y-14697422D02*
X18159407Y-14727422D01*
X18159407Y-14697422D02*
X18129407Y-14727422D01*
X18129407Y-15297422D02*
X18159407Y-15327422D01*
X18159407Y-15297422D02*
X18129407Y-15327422D01*
X18279407Y-5997425D02*
X18309407Y-6027425D01*
X18309407Y-5997425D02*
X18279407Y-6027425D01*
X18279407Y-6597424D02*
X18309407Y-6627424D01*
X18309407Y-6597424D02*
X18279407Y-6627424D01*
X18429407Y-9897423D02*
X18459407Y-9927423D01*
X18459407Y-9897423D02*
X18429407Y-9927423D01*
X18429407Y-10497423D02*
X18459407Y-10527423D01*
X18459407Y-10497423D02*
X18429407Y-10527423D01*
X18429407Y-14697422D02*
X18459407Y-14727422D01*
X18459407Y-14697422D02*
X18429407Y-14727422D01*
X18429407Y-15297422D02*
X18459407Y-15327422D01*
X18459407Y-15297422D02*
X18429407Y-15327422D01*
X18579407Y-9597424D02*
X18609407Y-9627424D01*
X18609407Y-9597424D02*
X18579407Y-9627424D01*
X18579407Y-10197423D02*
X18609407Y-10227423D01*
X18609407Y-10197423D02*
X18579407Y-10227423D01*
X18579407Y-13197422D02*
X18609407Y-13227422D01*
X18609407Y-13197422D02*
X18579407Y-13227422D01*
X18579407Y-14997422D02*
X18609407Y-15027422D01*
X18609407Y-14997422D02*
X18579407Y-15027422D01*
X18729407Y-6897424D02*
X18759407Y-6927424D01*
X18759407Y-6897424D02*
X18729407Y-6927424D01*
X18729407Y-8697424D02*
X18759407Y-8727424D01*
X18759407Y-8697424D02*
X18729407Y-8727424D01*
X18729407Y-9297424D02*
X18759407Y-9327424D01*
X18759407Y-9297424D02*
X18729407Y-9327424D01*
X18729407Y-9897423D02*
X18759407Y-9927423D01*
X18759407Y-9897423D02*
X18729407Y-9927423D01*
X18729407Y-10497423D02*
X18759407Y-10527423D01*
X18759407Y-10497423D02*
X18729407Y-10527423D01*
X18729407Y-13497422D02*
X18759407Y-13527422D01*
X18759407Y-13497422D02*
X18729407Y-13527422D01*
X18729407Y-14697422D02*
X18759407Y-14727422D01*
X18759407Y-14697422D02*
X18729407Y-14727422D01*
X18729407Y-15297422D02*
X18759407Y-15327422D01*
X18759407Y-15297422D02*
X18729407Y-15327422D01*
X18879407Y-7197424D02*
X18909407Y-7227424D01*
X18909407Y-7197424D02*
X18879407Y-7227424D01*
X18879407Y-10797423D02*
X18909407Y-10827423D01*
X18909407Y-10797423D02*
X18879407Y-10827423D01*
X18879407Y-13197422D02*
X18909407Y-13227422D01*
X18909407Y-13197422D02*
X18879407Y-13227422D01*
X18879407Y-14997422D02*
X18909407Y-15027422D01*
X18909407Y-14997422D02*
X18879407Y-15027422D01*
X19029406Y-6897424D02*
X19059406Y-6927424D01*
X19059406Y-6897424D02*
X19029406Y-6927424D01*
X19029406Y-7497424D02*
X19059406Y-7527424D01*
X19059406Y-7497424D02*
X19029406Y-7527424D01*
X19029406Y-8697424D02*
X19059406Y-8727424D01*
X19059406Y-8697424D02*
X19029406Y-8727424D01*
X19029406Y-9297424D02*
X19059406Y-9327424D01*
X19059406Y-9297424D02*
X19029406Y-9327424D01*
X19029406Y-9897423D02*
X19059406Y-9927423D01*
X19059406Y-9897423D02*
X19029406Y-9927423D01*
X19029406Y-12297423D02*
X19059406Y-12327423D01*
X19059406Y-12297423D02*
X19029406Y-12327423D01*
X19029406Y-12897423D02*
X19059406Y-12927423D01*
X19059406Y-12897423D02*
X19029406Y-12927423D01*
X19029406Y-14697422D02*
X19059406Y-14727422D01*
X19059406Y-14697422D02*
X19029406Y-14727422D01*
X19029406Y-15297422D02*
X19059406Y-15327422D01*
X19059406Y-15297422D02*
X19029406Y-15327422D01*
X19179406Y-8997424D02*
X19209406Y-9027424D01*
X19209406Y-8997424D02*
X19179406Y-9027424D01*
X19179406Y-10797423D02*
X19209406Y-10827423D01*
X19209406Y-10797423D02*
X19179406Y-10827423D01*
X19179406Y-12597423D02*
X19209406Y-12627423D01*
X19209406Y-12597423D02*
X19179406Y-12627423D01*
X19179406Y-13197422D02*
X19209406Y-13227422D01*
X19209406Y-13197422D02*
X19179406Y-13227422D01*
X19179406Y-13797422D02*
X19209406Y-13827422D01*
X19209406Y-13797422D02*
X19179406Y-13827422D01*
X19179406Y-14397422D02*
X19209406Y-14427422D01*
X19209406Y-14397422D02*
X19179406Y-14427422D01*
X19179406Y-14997422D02*
X19209406Y-15027422D01*
X19209406Y-14997422D02*
X19179406Y-15027422D01*
X19329406Y-9897423D02*
X19359406Y-9927423D01*
X19359406Y-9897423D02*
X19329406Y-9927423D01*
X19329406Y-10497423D02*
X19359406Y-10527423D01*
X19359406Y-10497423D02*
X19329406Y-10527423D01*
X19329406Y-12297423D02*
X19359406Y-12327423D01*
X19359406Y-12297423D02*
X19329406Y-12327423D01*
X19329406Y-12897423D02*
X19359406Y-12927423D01*
X19359406Y-12897423D02*
X19329406Y-12927423D01*
X19329406Y-14097422D02*
X19359406Y-14127422D01*
X19359406Y-14097422D02*
X19329406Y-14127422D01*
X19329406Y-14697422D02*
X19359406Y-14727422D01*
X19359406Y-14697422D02*
X19329406Y-14727422D01*
X19329406Y-15297422D02*
X19359406Y-15327422D01*
X19359406Y-15297422D02*
X19329406Y-15327422D01*
X19339811Y-9436422D02*
X19369811Y-9466422D01*
X19369811Y-9436422D02*
X19339811Y-9466422D01*
X19341211Y-8280722D02*
X19371211Y-8310722D01*
X19371211Y-8280722D02*
X19341211Y-8310722D01*
X19479406Y-10197423D02*
X19509406Y-10227423D01*
X19509406Y-10197423D02*
X19479406Y-10227423D01*
X19479406Y-10797423D02*
X19509406Y-10827423D01*
X19509406Y-10797423D02*
X19479406Y-10827423D01*
X19479406Y-11397423D02*
X19509406Y-11427423D01*
X19509406Y-11397423D02*
X19479406Y-11427423D01*
X19479406Y-11997423D02*
X19509406Y-12027423D01*
X19509406Y-11997423D02*
X19479406Y-12027423D01*
X19479406Y-12597423D02*
X19509406Y-12627423D01*
X19509406Y-12597423D02*
X19479406Y-12627423D01*
X19479406Y-13197422D02*
X19509406Y-13227422D01*
X19509406Y-13197422D02*
X19479406Y-13227422D01*
X19479406Y-14397422D02*
X19509406Y-14427422D01*
X19509406Y-14397422D02*
X19479406Y-14427422D01*
X19479406Y-14997422D02*
X19509406Y-15027422D01*
X19509406Y-14997422D02*
X19479406Y-15027422D01*
X19493611Y-8382322D02*
X19523611Y-8412322D01*
X19523611Y-8382322D02*
X19493611Y-8412322D01*
X19493611Y-9525322D02*
X19523611Y-9555322D01*
X19523611Y-9525322D02*
X19493611Y-9555322D01*
X19629406Y-5697425D02*
X19659406Y-5727425D01*
X19659406Y-5697425D02*
X19629406Y-5727425D01*
X19629406Y-6297425D02*
X19659406Y-6327425D01*
X19659406Y-6297425D02*
X19629406Y-6327425D01*
X19629406Y-6897424D02*
X19659406Y-6927424D01*
X19659406Y-6897424D02*
X19629406Y-6927424D01*
X19629406Y-7497424D02*
X19659406Y-7527424D01*
X19659406Y-7497424D02*
X19629406Y-7527424D01*
X19629406Y-10497423D02*
X19659406Y-10527423D01*
X19659406Y-10497423D02*
X19629406Y-10527423D01*
X19629406Y-11097423D02*
X19659406Y-11127423D01*
X19659406Y-11097423D02*
X19629406Y-11127423D01*
X19629406Y-11697423D02*
X19659406Y-11727423D01*
X19659406Y-11697423D02*
X19629406Y-11727423D01*
X19629406Y-12297423D02*
X19659406Y-12327423D01*
X19659406Y-12297423D02*
X19629406Y-12327423D01*
X19629406Y-12897423D02*
X19659406Y-12927423D01*
X19659406Y-12897423D02*
X19629406Y-12927423D01*
X19629406Y-13497422D02*
X19659406Y-13527422D01*
X19659406Y-13497422D02*
X19629406Y-13527422D01*
X19629406Y-14697422D02*
X19659406Y-14727422D01*
X19659406Y-14697422D02*
X19629406Y-14727422D01*
X19629406Y-15297422D02*
X19659406Y-15327422D01*
X19659406Y-15297422D02*
X19629406Y-15327422D01*
X12432171Y-11204022D02*
G75*
G02*
X12361051Y-11204022I-35560J0D01*
G01*
X12361051Y-11204022D02*
G75*
G02*
X12432171Y-11204022I35560J0D01*
G01*
X13460871Y-11051622D02*
G75*
G02*
X13389751Y-11051622I-35560J0D01*
G01*
X13389751Y-11051622D02*
G75*
G02*
X13460871Y-11051622I35560J0D01*
G01*
X13556121Y-11488502D02*
G75*
G02*
X13485001Y-11488502I-35560J0D01*
G01*
X13485001Y-11488502D02*
G75*
G02*
X13556121Y-11488502I35560J0D01*
G01*
X14959471Y-14439322D02*
G75*
G02*
X14888351Y-14439322I-35560J0D01*
G01*
X14888351Y-14439322D02*
G75*
G02*
X14959471Y-14439322I35560J0D01*
G01*
X17317871Y-15039422D02*
G75*
G02*
X17246751Y-15039422I-35560J0D01*
G01*
X17246751Y-15039422D02*
G75*
G02*
X17317871Y-15039422I35560J0D01*
G01*
X17397871Y-11026222D02*
G75*
G02*
X17326751Y-11026222I-35560J0D01*
G01*
X17326751Y-11026222D02*
G75*
G02*
X17397871Y-11026222I35560J0D01*
G01*
X17486771Y-12169222D02*
G75*
G02*
X17415651Y-12169222I-35560J0D01*
G01*
X17415651Y-12169222D02*
G75*
G02*
X17486771Y-12169222I35560J0D01*
G01*
X17677263Y-15039422D02*
G75*
G02*
X17606143Y-15039422I-35560J0D01*
G01*
X17606143Y-15039422D02*
G75*
G02*
X17677263Y-15039422I35560J0D01*
G01*
X18210671Y-10010222D02*
G75*
G02*
X18139551Y-10010222I-35560J0D01*
G01*
X18139551Y-10010222D02*
G75*
G02*
X18210671Y-10010222I35560J0D01*
G01*
X18286871Y-10962722D02*
G75*
G02*
X18215751Y-10962722I-35560J0D01*
G01*
X18215751Y-10962722D02*
G75*
G02*
X18286871Y-10962722I35560J0D01*
G01*
X18426571Y-12588322D02*
G75*
G02*
X18355451Y-12588322I-35560J0D01*
G01*
X18355451Y-12588322D02*
G75*
G02*
X18426571Y-12588322I35560J0D01*
G01*
X19379071Y-11559622D02*
G75*
G02*
X19307951Y-11559622I-35560J0D01*
G01*
X19307951Y-11559622D02*
G75*
G02*
X19379071Y-11559622I35560J0D01*
G01*
X18581511Y-11125922D02*
X18581511Y-11205922D01*
X18541511Y-11165922D02*
X18621511Y-11165922D01*
X19343511Y-11125922D02*
X19343511Y-11205922D01*
X19303511Y-11165922D02*
X19383511Y-11165922D01*
X11055544Y-6624455D02*
X11055544Y-6563388D01*
X10994478Y-6563388D01*
X10994478Y-6624455D01*
X11055544Y-6624455D01*
X11055544Y-6878455D02*
X11055544Y-6817388D01*
X10994478Y-6817388D01*
X10994478Y-6878455D01*
X11055544Y-6878455D01*
X17481744Y-6675255D02*
X17481744Y-6614188D01*
X17420678Y-6614188D01*
X17420678Y-6675255D01*
X17481744Y-6675255D01*
X17481744Y-6929255D02*
X17481744Y-6868188D01*
X17420678Y-6868188D01*
X17420678Y-6929255D01*
X17481744Y-6929255D01*
X10174111Y-6522802D02*
X10219831Y-6477082D01*
X10174111Y-6431362D01*
X10128391Y-6477082D01*
X10174111Y-6522802D01*
X10174111Y-6779342D02*
X10219831Y-6733622D01*
X10174111Y-6687902D01*
X10128391Y-6733622D01*
X10174111Y-6779342D01*
X10174111Y-7028262D02*
X10219831Y-6982542D01*
X10174111Y-6936822D01*
X10128391Y-6982542D01*
X10174111Y-7028262D01*
X10174111Y-7284802D02*
X10219831Y-7239082D01*
X10174111Y-7193362D01*
X10128391Y-7239082D01*
X10174111Y-7284802D01*
X10848011Y-14113122D02*
X10948011Y-14213122D01*
X10948011Y-14113122D02*
X10848011Y-14213122D01*
X10948011Y-14163122D02*
G75*
G02*
X10848011Y-14163122I-50000J0D01*
G01*
X10848011Y-14163122D02*
G75*
G02*
X10948011Y-14163122I50000J0D01*
G01*
X11203611Y-14100422D02*
X11303611Y-14200422D01*
X11303611Y-14100422D02*
X11203611Y-14200422D01*
X11303611Y-14150422D02*
G75*
G02*
X11203611Y-14150422I-50000J0D01*
G01*
X11203611Y-14150422D02*
G75*
G02*
X11303611Y-14150422I50000J0D01*
G01*
X11559211Y-14100422D02*
X11659211Y-14200422D01*
X11659211Y-14100422D02*
X11559211Y-14200422D01*
X11659211Y-14150422D02*
G75*
G02*
X11559211Y-14150422I-50000J0D01*
G01*
X11559211Y-14150422D02*
G75*
G02*
X11659211Y-14150422I50000J0D01*
G01*
D13*
X10085211Y-12842322D02*
X10186811Y-12943922D01*
X10186811Y-12842322D02*
X10085211Y-12943922D01*
X10136011Y-12842322D02*
X10136011Y-12943922D01*
X10085211Y-12893122D02*
X10186811Y-12893122D01*
X10085212Y-13096322D02*
X10186812Y-13197922D01*
X10186812Y-13096322D02*
X10085212Y-13197922D01*
X10136012Y-13096322D02*
X10136012Y-13197922D01*
X10085212Y-13147122D02*
X10186812Y-13147122D01*
D14*
X11236711Y-14656762D02*
X11346711Y-14766762D01*
X11346711Y-14656762D02*
X11236711Y-14766762D01*
X11330602Y-14750653D02*
X11330602Y-14672870D01*
X11252820Y-14672870D01*
X11252820Y-14750653D01*
X11330602Y-14750653D01*
X11236711Y-15108882D02*
X11346711Y-15218882D01*
X11346711Y-15108882D02*
X11236711Y-15218882D01*
X11330602Y-15202773D02*
X11330602Y-15124990D01*
X11252820Y-15124990D01*
X11252820Y-15202773D01*
X11330602Y-15202773D01*
X11947911Y-14656762D02*
X12057911Y-14766762D01*
X12057911Y-14656762D02*
X11947911Y-14766762D01*
X12041802Y-14750653D02*
X12041802Y-14672870D01*
X11964020Y-14672870D01*
X11964020Y-14750653D01*
X12041802Y-14750653D01*
X11947911Y-15108882D02*
X12057911Y-15218882D01*
X12057911Y-15108882D02*
X11947911Y-15218882D01*
X12041802Y-15202773D02*
X12041802Y-15124990D01*
X11964020Y-15124990D01*
X11964020Y-15202773D01*
X12041802Y-15202773D01*
X13598911Y-14694862D02*
X13708911Y-14804862D01*
X13708911Y-14694862D02*
X13598911Y-14804862D01*
X13692802Y-14788753D02*
X13692802Y-14710970D01*
X13615020Y-14710970D01*
X13615020Y-14788753D01*
X13692802Y-14788753D01*
X13598911Y-15146982D02*
X13708911Y-15256982D01*
X13708911Y-15146982D02*
X13598911Y-15256982D01*
X13692802Y-15240873D02*
X13692802Y-15163090D01*
X13615020Y-15163090D01*
X13615020Y-15240873D01*
X13692802Y-15240873D01*
X13764011Y-6033462D02*
X13874011Y-6143462D01*
X13874011Y-6033462D02*
X13764011Y-6143462D01*
X13857902Y-6127353D02*
X13857902Y-6049570D01*
X13780120Y-6049570D01*
X13780120Y-6127353D01*
X13857902Y-6127353D01*
X13764011Y-6485582D02*
X13874011Y-6595582D01*
X13874011Y-6485582D02*
X13764011Y-6595582D01*
X13857902Y-6579473D02*
X13857902Y-6501690D01*
X13780120Y-6501690D01*
X13780120Y-6579473D01*
X13857902Y-6579473D01*
X14310111Y-14694862D02*
X14420111Y-14804862D01*
X14420111Y-14694862D02*
X14310111Y-14804862D01*
X14404002Y-14788753D02*
X14404002Y-14710970D01*
X14326220Y-14710970D01*
X14326220Y-14788753D01*
X14404002Y-14788753D01*
X14310111Y-15146982D02*
X14420111Y-15256982D01*
X14420111Y-15146982D02*
X14310111Y-15256982D01*
X14404002Y-15240873D02*
X14404002Y-15163090D01*
X14326220Y-15163090D01*
X14326220Y-15240873D01*
X14404002Y-15240873D01*
X14475211Y-6033462D02*
X14585211Y-6143462D01*
X14585211Y-6033462D02*
X14475211Y-6143462D01*
X14569102Y-6127353D02*
X14569102Y-6049570D01*
X14491320Y-6049570D01*
X14491320Y-6127353D01*
X14569102Y-6127353D01*
X14475211Y-6485582D02*
X14585211Y-6595582D01*
X14585211Y-6485582D02*
X14475211Y-6595582D01*
X14569102Y-6579473D02*
X14569102Y-6501690D01*
X14491320Y-6501690D01*
X14491320Y-6579473D01*
X14569102Y-6579473D01*
X15491211Y-6046162D02*
X15601211Y-6156162D01*
X15601211Y-6046162D02*
X15491211Y-6156162D01*
X15585102Y-6140053D02*
X15585102Y-6062270D01*
X15507320Y-6062270D01*
X15507320Y-6140053D01*
X15585102Y-6140053D01*
X15491211Y-6498282D02*
X15601211Y-6608282D01*
X15601211Y-6498282D02*
X15491211Y-6608282D01*
X15585102Y-6592173D02*
X15585102Y-6514390D01*
X15507320Y-6514390D01*
X15507320Y-6592173D01*
X15585102Y-6592173D01*
X16202411Y-6046162D02*
X16312411Y-6156162D01*
X16312411Y-6046162D02*
X16202411Y-6156162D01*
X16296302Y-6140053D02*
X16296302Y-6062270D01*
X16218520Y-6062270D01*
X16218520Y-6140053D01*
X16296302Y-6140053D01*
X16202411Y-6498282D02*
X16312411Y-6608282D01*
X16312411Y-6498282D02*
X16202411Y-6608282D01*
X16296302Y-6592173D02*
X16296302Y-6514390D01*
X16218520Y-6514390D01*
X16218520Y-6592173D01*
X16296302Y-6592173D01*
D15*
X18886311Y-13845622D02*
X19013311Y-13972622D01*
X19013311Y-13845622D02*
X18886311Y-13972622D01*
X18949811Y-13972622D02*
X19013311Y-13909122D01*
X18949811Y-13845622D01*
X18886311Y-13909122D01*
X18949811Y-13972622D01*
D12*
X19013311Y-13972622D02*
X19013311Y-13845622D01*
X18886311Y-13845622D02*
G75*
G02*
X19013311Y-13845622I63500J0D01*
G01*
X18886311Y-13845622D02*
X18886311Y-13972622D01*
X18886311Y-13972622D02*
G75*
G03*
X19013311Y-13972622I63500J0D01*
G01*
D15*
X19140311Y-13337622D02*
X19267311Y-13464622D01*
X19267311Y-13337622D02*
X19140311Y-13464622D01*
X19203811Y-13464622D02*
X19267311Y-13401122D01*
X19203811Y-13337622D01*
X19140311Y-13401122D01*
X19203811Y-13464622D01*
D12*
X19267311Y-13337622D02*
X19140311Y-13337622D01*
X19140311Y-13464622D02*
G75*
G02*
X19140311Y-13337622I0J63500D01*
G01*
X19140311Y-13464622D02*
X19267311Y-13464622D01*
X19267311Y-13464622D02*
G75*
G03*
X19267311Y-13337622I0J63500D01*
G01*
D15*
X19521311Y-13845622D02*
X19648311Y-13972622D01*
X19648311Y-13845622D02*
X19521311Y-13972622D01*
X19584811Y-13972622D02*
X19648311Y-13909122D01*
X19584811Y-13845622D01*
X19521311Y-13909122D01*
X19584811Y-13972622D01*
D12*
X19648311Y-13972622D02*
X19648311Y-13845622D01*
X19521311Y-13845622D02*
G75*
G02*
X19648311Y-13845622I63500J0D01*
G01*
X19521311Y-13845622D02*
X19521311Y-13972622D01*
X19521311Y-13972622D02*
G75*
G03*
X19648311Y-13972622I63500J0D01*
G01*
D16*
X11662411Y-8616422D02*
X11662411Y-9016422D01*
X11462411Y-8816422D02*
X11862411Y-8816422D01*
X11862411Y-8816422D02*
G75*
G02*
X11462411Y-8816422I-200000J0D01*
G01*
X11462411Y-8816422D02*
G75*
G02*
X11862411Y-8816422I200000J0D01*
G01*
X13486411Y-8616422D02*
X13486411Y-9016422D01*
X13286411Y-8816422D02*
X13686411Y-8816422D01*
X13686411Y-8816422D02*
G75*
G02*
X13286411Y-8816422I-200000J0D01*
G01*
X13286411Y-8816422D02*
G75*
G02*
X13686411Y-8816422I200000J0D01*
G01*
X15840711Y-8616422D02*
X15840711Y-9016422D01*
X15640711Y-8816422D02*
X16040711Y-8816422D01*
X16040711Y-8816422D02*
G75*
G02*
X15640711Y-8816422I-200000J0D01*
G01*
X15640711Y-8816422D02*
G75*
G02*
X16040711Y-8816422I200000J0D01*
G01*
X17664711Y-8616422D02*
X17664711Y-9016422D01*
X17464711Y-8816422D02*
X17864711Y-8816422D01*
X17864711Y-8816422D02*
G75*
G02*
X17464711Y-8816422I-200000J0D01*
G01*
X17464711Y-8816422D02*
G75*
G02*
X17864711Y-8816422I200000J0D01*
G01*
D11*
X10103771Y-15812619D02*
X10103771Y-15612619D01*
X10103771Y-15612619D02*
X10151390Y-15612619D01*
X10151390Y-15612619D02*
X10179962Y-15622143D01*
X10179962Y-15622143D02*
X10199009Y-15641191D01*
X10199009Y-15641191D02*
X10208533Y-15660238D01*
X10208533Y-15660238D02*
X10218057Y-15698334D01*
X10218057Y-15698334D02*
X10218057Y-15726905D01*
X10218057Y-15726905D02*
X10208533Y-15765000D01*
X10208533Y-15765000D02*
X10199009Y-15784048D01*
X10199009Y-15784048D02*
X10179962Y-15803096D01*
X10179962Y-15803096D02*
X10151390Y-15812619D01*
X10151390Y-15812619D02*
X10103771Y-15812619D01*
X10303771Y-15812619D02*
X10303771Y-15679286D01*
X10303771Y-15717381D02*
X10313295Y-15698334D01*
X10313295Y-15698334D02*
X10322819Y-15688810D01*
X10322819Y-15688810D02*
X10341866Y-15679286D01*
X10341866Y-15679286D02*
X10360914Y-15679286D01*
X10427581Y-15812619D02*
X10427581Y-15679286D01*
X10427581Y-15612619D02*
X10418057Y-15622143D01*
X10418057Y-15622143D02*
X10427581Y-15631667D01*
X10427581Y-15631667D02*
X10437104Y-15622143D01*
X10437104Y-15622143D02*
X10427581Y-15612619D01*
X10427581Y-15612619D02*
X10427581Y-15631667D01*
X10551390Y-15812619D02*
X10532343Y-15803096D01*
X10532343Y-15803096D02*
X10522819Y-15784048D01*
X10522819Y-15784048D02*
X10522819Y-15612619D01*
X10656152Y-15812619D02*
X10637104Y-15803096D01*
X10637104Y-15803096D02*
X10627581Y-15784048D01*
X10627581Y-15784048D02*
X10627581Y-15612619D01*
X10884724Y-15812619D02*
X10884724Y-15612619D01*
X10884724Y-15612619D02*
X10951390Y-15755477D01*
X10951390Y-15755477D02*
X11018057Y-15612619D01*
X11018057Y-15612619D02*
X11018057Y-15812619D01*
X11199009Y-15812619D02*
X11199009Y-15707858D01*
X11199009Y-15707858D02*
X11189485Y-15688810D01*
X11189485Y-15688810D02*
X11170438Y-15679286D01*
X11170438Y-15679286D02*
X11132343Y-15679286D01*
X11132343Y-15679286D02*
X11113295Y-15688810D01*
X11199009Y-15803096D02*
X11179962Y-15812619D01*
X11179962Y-15812619D02*
X11132343Y-15812619D01*
X11132343Y-15812619D02*
X11113295Y-15803096D01*
X11113295Y-15803096D02*
X11103771Y-15784048D01*
X11103771Y-15784048D02*
X11103771Y-15765000D01*
X11103771Y-15765000D02*
X11113295Y-15745953D01*
X11113295Y-15745953D02*
X11132343Y-15736429D01*
X11132343Y-15736429D02*
X11179962Y-15736429D01*
X11179962Y-15736429D02*
X11199009Y-15726905D01*
X11294247Y-15679286D02*
X11294247Y-15879286D01*
X11294247Y-15688810D02*
X11313295Y-15679286D01*
X11313295Y-15679286D02*
X11351390Y-15679286D01*
X11351390Y-15679286D02*
X11370438Y-15688810D01*
X11370438Y-15688810D02*
X11379962Y-15698334D01*
X11379962Y-15698334D02*
X11389485Y-15717381D01*
X11389485Y-15717381D02*
X11389485Y-15774524D01*
X11389485Y-15774524D02*
X11379962Y-15793572D01*
X11379962Y-15793572D02*
X11370438Y-15803096D01*
X11370438Y-15803096D02*
X11351390Y-15812619D01*
X11351390Y-15812619D02*
X11313295Y-15812619D01*
X11313295Y-15812619D02*
X11294247Y-15803096D01*
X11475200Y-15793572D02*
X11484723Y-15803096D01*
X11484723Y-15803096D02*
X11475200Y-15812619D01*
X11475200Y-15812619D02*
X11465676Y-15803096D01*
X11465676Y-15803096D02*
X11475200Y-15793572D01*
X11475200Y-15793572D02*
X11475200Y-15812619D01*
X11475200Y-15688810D02*
X11484723Y-15698334D01*
X11484723Y-15698334D02*
X11475200Y-15707858D01*
X11475200Y-15707858D02*
X11465676Y-15698334D01*
X11465676Y-15698334D02*
X11475200Y-15688810D01*
X11475200Y-15688810D02*
X11475200Y-15707858D01*
D12*
X9812994Y-16126136D02*
X9842994Y-16156136D01*
X9842994Y-16126136D02*
X9812994Y-16156136D01*
D11*
X10141866Y-16032619D02*
X10160914Y-16032619D01*
X10160914Y-16032619D02*
X10179962Y-16042143D01*
X10179962Y-16042143D02*
X10189485Y-16051667D01*
X10189485Y-16051667D02*
X10199009Y-16070715D01*
X10199009Y-16070715D02*
X10208533Y-16108810D01*
X10208533Y-16108810D02*
X10208533Y-16156429D01*
X10208533Y-16156429D02*
X10199009Y-16194524D01*
X10199009Y-16194524D02*
X10189485Y-16213572D01*
X10189485Y-16213572D02*
X10179962Y-16223096D01*
X10179962Y-16223096D02*
X10160914Y-16232619D01*
X10160914Y-16232619D02*
X10141866Y-16232619D01*
X10141866Y-16232619D02*
X10122819Y-16223096D01*
X10122819Y-16223096D02*
X10113295Y-16213572D01*
X10113295Y-16213572D02*
X10103771Y-16194524D01*
X10103771Y-16194524D02*
X10094247Y-16156429D01*
X10094247Y-16156429D02*
X10094247Y-16108810D01*
X10094247Y-16108810D02*
X10103771Y-16070715D01*
X10103771Y-16070715D02*
X10113295Y-16051667D01*
X10113295Y-16051667D02*
X10122819Y-16042143D01*
X10122819Y-16042143D02*
X10141866Y-16032619D01*
X10294247Y-16213572D02*
X10303771Y-16223096D01*
X10303771Y-16223096D02*
X10294247Y-16232619D01*
X10294247Y-16232619D02*
X10284724Y-16223096D01*
X10284724Y-16223096D02*
X10294247Y-16213572D01*
X10294247Y-16213572D02*
X10294247Y-16232619D01*
X10370438Y-16032619D02*
X10494247Y-16032619D01*
X10494247Y-16032619D02*
X10427581Y-16108810D01*
X10427581Y-16108810D02*
X10456152Y-16108810D01*
X10456152Y-16108810D02*
X10475200Y-16118334D01*
X10475200Y-16118334D02*
X10484724Y-16127858D01*
X10484724Y-16127858D02*
X10494247Y-16146905D01*
X10494247Y-16146905D02*
X10494247Y-16194524D01*
X10494247Y-16194524D02*
X10484724Y-16213572D01*
X10484724Y-16213572D02*
X10475200Y-16223096D01*
X10475200Y-16223096D02*
X10456152Y-16232619D01*
X10456152Y-16232619D02*
X10399009Y-16232619D01*
X10399009Y-16232619D02*
X10379962Y-16223096D01*
X10379962Y-16223096D02*
X10370438Y-16213572D01*
X10618057Y-16032619D02*
X10637105Y-16032619D01*
X10637105Y-16032619D02*
X10656152Y-16042143D01*
X10656152Y-16042143D02*
X10665676Y-16051667D01*
X10665676Y-16051667D02*
X10675200Y-16070715D01*
X10675200Y-16070715D02*
X10684724Y-16108810D01*
X10684724Y-16108810D02*
X10684724Y-16156429D01*
X10684724Y-16156429D02*
X10675200Y-16194524D01*
X10675200Y-16194524D02*
X10665676Y-16213572D01*
X10665676Y-16213572D02*
X10656152Y-16223096D01*
X10656152Y-16223096D02*
X10637105Y-16232619D01*
X10637105Y-16232619D02*
X10618057Y-16232619D01*
X10618057Y-16232619D02*
X10599009Y-16223096D01*
X10599009Y-16223096D02*
X10589485Y-16213572D01*
X10589485Y-16213572D02*
X10579962Y-16194524D01*
X10579962Y-16194524D02*
X10570438Y-16156429D01*
X10570438Y-16156429D02*
X10570438Y-16108810D01*
X10570438Y-16108810D02*
X10579962Y-16070715D01*
X10579962Y-16070715D02*
X10589485Y-16051667D01*
X10589485Y-16051667D02*
X10599009Y-16042143D01*
X10599009Y-16042143D02*
X10618057Y-16032619D01*
X10808533Y-16032619D02*
X10827581Y-16032619D01*
X10827581Y-16032619D02*
X10846628Y-16042143D01*
X10846628Y-16042143D02*
X10856152Y-16051667D01*
X10856152Y-16051667D02*
X10865676Y-16070715D01*
X10865676Y-16070715D02*
X10875200Y-16108810D01*
X10875200Y-16108810D02*
X10875200Y-16156429D01*
X10875200Y-16156429D02*
X10865676Y-16194524D01*
X10865676Y-16194524D02*
X10856152Y-16213572D01*
X10856152Y-16213572D02*
X10846628Y-16223096D01*
X10846628Y-16223096D02*
X10827581Y-16232619D01*
X10827581Y-16232619D02*
X10808533Y-16232619D01*
X10808533Y-16232619D02*
X10789485Y-16223096D01*
X10789485Y-16223096D02*
X10779962Y-16213572D01*
X10779962Y-16213572D02*
X10770438Y-16194524D01*
X10770438Y-16194524D02*
X10760914Y-16156429D01*
X10760914Y-16156429D02*
X10760914Y-16108810D01*
X10760914Y-16108810D02*
X10770438Y-16070715D01*
X10770438Y-16070715D02*
X10779962Y-16051667D01*
X10779962Y-16051667D02*
X10789485Y-16042143D01*
X10789485Y-16042143D02*
X10808533Y-16032619D01*
X10960914Y-16232619D02*
X10960914Y-16099286D01*
X10960914Y-16118334D02*
X10970438Y-16108810D01*
X10970438Y-16108810D02*
X10989485Y-16099286D01*
X10989485Y-16099286D02*
X11018057Y-16099286D01*
X11018057Y-16099286D02*
X11037105Y-16108810D01*
X11037105Y-16108810D02*
X11046628Y-16127858D01*
X11046628Y-16127858D02*
X11046628Y-16232619D01*
X11046628Y-16127858D02*
X11056152Y-16108810D01*
X11056152Y-16108810D02*
X11075200Y-16099286D01*
X11075200Y-16099286D02*
X11103771Y-16099286D01*
X11103771Y-16099286D02*
X11122819Y-16108810D01*
X11122819Y-16108810D02*
X11132343Y-16127858D01*
X11132343Y-16127858D02*
X11132343Y-16232619D01*
X11227581Y-16232619D02*
X11227581Y-16099286D01*
X11227581Y-16118334D02*
X11237104Y-16108810D01*
X11237104Y-16108810D02*
X11256152Y-16099286D01*
X11256152Y-16099286D02*
X11284724Y-16099286D01*
X11284724Y-16099286D02*
X11303771Y-16108810D01*
X11303771Y-16108810D02*
X11313295Y-16127858D01*
X11313295Y-16127858D02*
X11313295Y-16232619D01*
X11313295Y-16127858D02*
X11322819Y-16108810D01*
X11322819Y-16108810D02*
X11341866Y-16099286D01*
X11341866Y-16099286D02*
X11370438Y-16099286D01*
X11370438Y-16099286D02*
X11389485Y-16108810D01*
X11389485Y-16108810D02*
X11399009Y-16127858D01*
X11399009Y-16127858D02*
X11399009Y-16232619D01*
X11789485Y-16023096D02*
X11618057Y-16280238D01*
X12046628Y-16032619D02*
X12065676Y-16032619D01*
X12065676Y-16032619D02*
X12084724Y-16042143D01*
X12084724Y-16042143D02*
X12094247Y-16051667D01*
X12094247Y-16051667D02*
X12103771Y-16070715D01*
X12103771Y-16070715D02*
X12113295Y-16108810D01*
X12113295Y-16108810D02*
X12113295Y-16156429D01*
X12113295Y-16156429D02*
X12103771Y-16194524D01*
X12103771Y-16194524D02*
X12094247Y-16213572D01*
X12094247Y-16213572D02*
X12084724Y-16223096D01*
X12084724Y-16223096D02*
X12065676Y-16232619D01*
X12065676Y-16232619D02*
X12046628Y-16232619D01*
X12046628Y-16232619D02*
X12027581Y-16223096D01*
X12027581Y-16223096D02*
X12018057Y-16213572D01*
X12018057Y-16213572D02*
X12008533Y-16194524D01*
X12008533Y-16194524D02*
X11999009Y-16156429D01*
X11999009Y-16156429D02*
X11999009Y-16108810D01*
X11999009Y-16108810D02*
X12008533Y-16070715D01*
X12008533Y-16070715D02*
X12018057Y-16051667D01*
X12018057Y-16051667D02*
X12027581Y-16042143D01*
X12027581Y-16042143D02*
X12046628Y-16032619D01*
X12199009Y-16213572D02*
X12208533Y-16223096D01*
X12208533Y-16223096D02*
X12199009Y-16232619D01*
X12199009Y-16232619D02*
X12189486Y-16223096D01*
X12189486Y-16223096D02*
X12199009Y-16213572D01*
X12199009Y-16213572D02*
X12199009Y-16232619D01*
X12332343Y-16032619D02*
X12351390Y-16032619D01*
X12351390Y-16032619D02*
X12370438Y-16042143D01*
X12370438Y-16042143D02*
X12379962Y-16051667D01*
X12379962Y-16051667D02*
X12389486Y-16070715D01*
X12389486Y-16070715D02*
X12399009Y-16108810D01*
X12399009Y-16108810D02*
X12399009Y-16156429D01*
X12399009Y-16156429D02*
X12389486Y-16194524D01*
X12389486Y-16194524D02*
X12379962Y-16213572D01*
X12379962Y-16213572D02*
X12370438Y-16223096D01*
X12370438Y-16223096D02*
X12351390Y-16232619D01*
X12351390Y-16232619D02*
X12332343Y-16232619D01*
X12332343Y-16232619D02*
X12313295Y-16223096D01*
X12313295Y-16223096D02*
X12303771Y-16213572D01*
X12303771Y-16213572D02*
X12294247Y-16194524D01*
X12294247Y-16194524D02*
X12284724Y-16156429D01*
X12284724Y-16156429D02*
X12284724Y-16108810D01*
X12284724Y-16108810D02*
X12294247Y-16070715D01*
X12294247Y-16070715D02*
X12303771Y-16051667D01*
X12303771Y-16051667D02*
X12313295Y-16042143D01*
X12313295Y-16042143D02*
X12332343Y-16032619D01*
X12589486Y-16232619D02*
X12475200Y-16232619D01*
X12532343Y-16232619D02*
X12532343Y-16032619D01*
X12532343Y-16032619D02*
X12513295Y-16061191D01*
X12513295Y-16061191D02*
X12494247Y-16080238D01*
X12494247Y-16080238D02*
X12475200Y-16089762D01*
X12779962Y-16232619D02*
X12665676Y-16232619D01*
X12722819Y-16232619D02*
X12722819Y-16032619D01*
X12722819Y-16032619D02*
X12703771Y-16061191D01*
X12703771Y-16061191D02*
X12684724Y-16080238D01*
X12684724Y-16080238D02*
X12665676Y-16089762D01*
X12894247Y-16118334D02*
X12875200Y-16108810D01*
X12875200Y-16108810D02*
X12865676Y-16099286D01*
X12865676Y-16099286D02*
X12856152Y-16080238D01*
X12856152Y-16080238D02*
X12856152Y-16070715D01*
X12856152Y-16070715D02*
X12865676Y-16051667D01*
X12865676Y-16051667D02*
X12875200Y-16042143D01*
X12875200Y-16042143D02*
X12894247Y-16032619D01*
X12894247Y-16032619D02*
X12932343Y-16032619D01*
X12932343Y-16032619D02*
X12951390Y-16042143D01*
X12951390Y-16042143D02*
X12960914Y-16051667D01*
X12960914Y-16051667D02*
X12970438Y-16070715D01*
X12970438Y-16070715D02*
X12970438Y-16080238D01*
X12970438Y-16080238D02*
X12960914Y-16099286D01*
X12960914Y-16099286D02*
X12951390Y-16108810D01*
X12951390Y-16108810D02*
X12932343Y-16118334D01*
X12932343Y-16118334D02*
X12894247Y-16118334D01*
X12894247Y-16118334D02*
X12875200Y-16127858D01*
X12875200Y-16127858D02*
X12865676Y-16137381D01*
X12865676Y-16137381D02*
X12856152Y-16156429D01*
X12856152Y-16156429D02*
X12856152Y-16194524D01*
X12856152Y-16194524D02*
X12865676Y-16213572D01*
X12865676Y-16213572D02*
X12875200Y-16223096D01*
X12875200Y-16223096D02*
X12894247Y-16232619D01*
X12894247Y-16232619D02*
X12932343Y-16232619D01*
X12932343Y-16232619D02*
X12951390Y-16223096D01*
X12951390Y-16223096D02*
X12960914Y-16213572D01*
X12960914Y-16213572D02*
X12970438Y-16194524D01*
X12970438Y-16194524D02*
X12970438Y-16156429D01*
X12970438Y-16156429D02*
X12960914Y-16137381D01*
X12960914Y-16137381D02*
X12951390Y-16127858D01*
X12951390Y-16127858D02*
X12932343Y-16118334D01*
X13046628Y-16032619D02*
X13046628Y-16070715D01*
X13122819Y-16032619D02*
X13122819Y-16070715D01*
X13418057Y-16308810D02*
X13408533Y-16299286D01*
X13408533Y-16299286D02*
X13389486Y-16270715D01*
X13389486Y-16270715D02*
X13379962Y-16251667D01*
X13379962Y-16251667D02*
X13370438Y-16223096D01*
X13370438Y-16223096D02*
X13360914Y-16175477D01*
X13360914Y-16175477D02*
X13360914Y-16137381D01*
X13360914Y-16137381D02*
X13370438Y-16089762D01*
X13370438Y-16089762D02*
X13379962Y-16061191D01*
X13379962Y-16061191D02*
X13389486Y-16042143D01*
X13389486Y-16042143D02*
X13408533Y-16013572D01*
X13408533Y-16013572D02*
X13418057Y-16004048D01*
X13579962Y-16099286D02*
X13579962Y-16232619D01*
X13532343Y-16023096D02*
X13484724Y-16165953D01*
X13484724Y-16165953D02*
X13608533Y-16165953D01*
X13665676Y-16032619D02*
X13789486Y-16032619D01*
X13789486Y-16032619D02*
X13722819Y-16108810D01*
X13722819Y-16108810D02*
X13751390Y-16108810D01*
X13751390Y-16108810D02*
X13770438Y-16118334D01*
X13770438Y-16118334D02*
X13779962Y-16127858D01*
X13779962Y-16127858D02*
X13789486Y-16146905D01*
X13789486Y-16146905D02*
X13789486Y-16194524D01*
X13789486Y-16194524D02*
X13779962Y-16213572D01*
X13779962Y-16213572D02*
X13770438Y-16223096D01*
X13770438Y-16223096D02*
X13751390Y-16232619D01*
X13751390Y-16232619D02*
X13694248Y-16232619D01*
X13694248Y-16232619D02*
X13675200Y-16223096D01*
X13675200Y-16223096D02*
X13665676Y-16213572D01*
X13865676Y-16051667D02*
X13875200Y-16042143D01*
X13875200Y-16042143D02*
X13894248Y-16032619D01*
X13894248Y-16032619D02*
X13941867Y-16032619D01*
X13941867Y-16032619D02*
X13960914Y-16042143D01*
X13960914Y-16042143D02*
X13970438Y-16051667D01*
X13970438Y-16051667D02*
X13979962Y-16070715D01*
X13979962Y-16070715D02*
X13979962Y-16089762D01*
X13979962Y-16089762D02*
X13970438Y-16118334D01*
X13970438Y-16118334D02*
X13856152Y-16232619D01*
X13856152Y-16232619D02*
X13979962Y-16232619D01*
X14218057Y-16232619D02*
X14218057Y-16032619D01*
X14303771Y-16232619D02*
X14303771Y-16127858D01*
X14303771Y-16127858D02*
X14294248Y-16108810D01*
X14294248Y-16108810D02*
X14275200Y-16099286D01*
X14275200Y-16099286D02*
X14246629Y-16099286D01*
X14246629Y-16099286D02*
X14227581Y-16108810D01*
X14227581Y-16108810D02*
X14218057Y-16118334D01*
X14427581Y-16232619D02*
X14408533Y-16223096D01*
X14408533Y-16223096D02*
X14399010Y-16213572D01*
X14399010Y-16213572D02*
X14389486Y-16194524D01*
X14389486Y-16194524D02*
X14389486Y-16137381D01*
X14389486Y-16137381D02*
X14399010Y-16118334D01*
X14399010Y-16118334D02*
X14408533Y-16108810D01*
X14408533Y-16108810D02*
X14427581Y-16099286D01*
X14427581Y-16099286D02*
X14456152Y-16099286D01*
X14456152Y-16099286D02*
X14475200Y-16108810D01*
X14475200Y-16108810D02*
X14484724Y-16118334D01*
X14484724Y-16118334D02*
X14494248Y-16137381D01*
X14494248Y-16137381D02*
X14494248Y-16194524D01*
X14494248Y-16194524D02*
X14484724Y-16213572D01*
X14484724Y-16213572D02*
X14475200Y-16223096D01*
X14475200Y-16223096D02*
X14456152Y-16232619D01*
X14456152Y-16232619D02*
X14427581Y-16232619D01*
X14608533Y-16232619D02*
X14589486Y-16223096D01*
X14589486Y-16223096D02*
X14579962Y-16204048D01*
X14579962Y-16204048D02*
X14579962Y-16032619D01*
X14760914Y-16223096D02*
X14741867Y-16232619D01*
X14741867Y-16232619D02*
X14703771Y-16232619D01*
X14703771Y-16232619D02*
X14684724Y-16223096D01*
X14684724Y-16223096D02*
X14675200Y-16204048D01*
X14675200Y-16204048D02*
X14675200Y-16127858D01*
X14675200Y-16127858D02*
X14684724Y-16108810D01*
X14684724Y-16108810D02*
X14703771Y-16099286D01*
X14703771Y-16099286D02*
X14741867Y-16099286D01*
X14741867Y-16099286D02*
X14760914Y-16108810D01*
X14760914Y-16108810D02*
X14770438Y-16127858D01*
X14770438Y-16127858D02*
X14770438Y-16146905D01*
X14770438Y-16146905D02*
X14675200Y-16165953D01*
X14846629Y-16223096D02*
X14865676Y-16232619D01*
X14865676Y-16232619D02*
X14903771Y-16232619D01*
X14903771Y-16232619D02*
X14922819Y-16223096D01*
X14922819Y-16223096D02*
X14932343Y-16204048D01*
X14932343Y-16204048D02*
X14932343Y-16194524D01*
X14932343Y-16194524D02*
X14922819Y-16175477D01*
X14922819Y-16175477D02*
X14903771Y-16165953D01*
X14903771Y-16165953D02*
X14875200Y-16165953D01*
X14875200Y-16165953D02*
X14856152Y-16156429D01*
X14856152Y-16156429D02*
X14846629Y-16137381D01*
X14846629Y-16137381D02*
X14846629Y-16127858D01*
X14846629Y-16127858D02*
X14856152Y-16108810D01*
X14856152Y-16108810D02*
X14875200Y-16099286D01*
X14875200Y-16099286D02*
X14903771Y-16099286D01*
X14903771Y-16099286D02*
X14922819Y-16108810D01*
X14999010Y-16308810D02*
X15008533Y-16299286D01*
X15008533Y-16299286D02*
X15027581Y-16270715D01*
X15027581Y-16270715D02*
X15037105Y-16251667D01*
X15037105Y-16251667D02*
X15046629Y-16223096D01*
X15046629Y-16223096D02*
X15056152Y-16175477D01*
X15056152Y-16175477D02*
X15056152Y-16137381D01*
X15056152Y-16137381D02*
X15046629Y-16089762D01*
X15046629Y-16089762D02*
X15037105Y-16061191D01*
X15037105Y-16061191D02*
X15027581Y-16042143D01*
X15027581Y-16042143D02*
X15008533Y-16013572D01*
X15008533Y-16013572D02*
X14999010Y-16004048D01*
D12*
X9842994Y-16405136D02*
G75*
G02*
X9771874Y-16405136I-35560J0D01*
G01*
X9771874Y-16405136D02*
G75*
G02*
X9842994Y-16405136I35560J0D01*
G01*
D11*
X10141866Y-16296619D02*
X10160914Y-16296619D01*
X10160914Y-16296619D02*
X10179962Y-16306143D01*
X10179962Y-16306143D02*
X10189485Y-16315667D01*
X10189485Y-16315667D02*
X10199009Y-16334715D01*
X10199009Y-16334715D02*
X10208533Y-16372810D01*
X10208533Y-16372810D02*
X10208533Y-16420429D01*
X10208533Y-16420429D02*
X10199009Y-16458524D01*
X10199009Y-16458524D02*
X10189485Y-16477572D01*
X10189485Y-16477572D02*
X10179962Y-16487096D01*
X10179962Y-16487096D02*
X10160914Y-16496619D01*
X10160914Y-16496619D02*
X10141866Y-16496619D01*
X10141866Y-16496619D02*
X10122819Y-16487096D01*
X10122819Y-16487096D02*
X10113295Y-16477572D01*
X10113295Y-16477572D02*
X10103771Y-16458524D01*
X10103771Y-16458524D02*
X10094247Y-16420429D01*
X10094247Y-16420429D02*
X10094247Y-16372810D01*
X10094247Y-16372810D02*
X10103771Y-16334715D01*
X10103771Y-16334715D02*
X10113295Y-16315667D01*
X10113295Y-16315667D02*
X10122819Y-16306143D01*
X10122819Y-16306143D02*
X10141866Y-16296619D01*
X10294247Y-16477572D02*
X10303771Y-16487096D01*
X10303771Y-16487096D02*
X10294247Y-16496619D01*
X10294247Y-16496619D02*
X10284724Y-16487096D01*
X10284724Y-16487096D02*
X10294247Y-16477572D01*
X10294247Y-16477572D02*
X10294247Y-16496619D01*
X10370438Y-16296619D02*
X10503771Y-16296619D01*
X10503771Y-16296619D02*
X10418057Y-16496619D01*
X10684724Y-16496619D02*
X10570438Y-16496619D01*
X10627581Y-16496619D02*
X10627581Y-16296619D01*
X10627581Y-16296619D02*
X10608533Y-16325191D01*
X10608533Y-16325191D02*
X10589485Y-16344238D01*
X10589485Y-16344238D02*
X10570438Y-16353762D01*
X10875200Y-16496619D02*
X10760914Y-16496619D01*
X10818057Y-16496619D02*
X10818057Y-16296619D01*
X10818057Y-16296619D02*
X10799009Y-16325191D01*
X10799009Y-16325191D02*
X10779962Y-16344238D01*
X10779962Y-16344238D02*
X10760914Y-16353762D01*
X10960914Y-16496619D02*
X10960914Y-16363286D01*
X10960914Y-16382334D02*
X10970438Y-16372810D01*
X10970438Y-16372810D02*
X10989485Y-16363286D01*
X10989485Y-16363286D02*
X11018057Y-16363286D01*
X11018057Y-16363286D02*
X11037105Y-16372810D01*
X11037105Y-16372810D02*
X11046628Y-16391858D01*
X11046628Y-16391858D02*
X11046628Y-16496619D01*
X11046628Y-16391858D02*
X11056152Y-16372810D01*
X11056152Y-16372810D02*
X11075200Y-16363286D01*
X11075200Y-16363286D02*
X11103771Y-16363286D01*
X11103771Y-16363286D02*
X11122819Y-16372810D01*
X11122819Y-16372810D02*
X11132343Y-16391858D01*
X11132343Y-16391858D02*
X11132343Y-16496619D01*
X11227581Y-16496619D02*
X11227581Y-16363286D01*
X11227581Y-16382334D02*
X11237104Y-16372810D01*
X11237104Y-16372810D02*
X11256152Y-16363286D01*
X11256152Y-16363286D02*
X11284724Y-16363286D01*
X11284724Y-16363286D02*
X11303771Y-16372810D01*
X11303771Y-16372810D02*
X11313295Y-16391858D01*
X11313295Y-16391858D02*
X11313295Y-16496619D01*
X11313295Y-16391858D02*
X11322819Y-16372810D01*
X11322819Y-16372810D02*
X11341866Y-16363286D01*
X11341866Y-16363286D02*
X11370438Y-16363286D01*
X11370438Y-16363286D02*
X11389485Y-16372810D01*
X11389485Y-16372810D02*
X11399009Y-16391858D01*
X11399009Y-16391858D02*
X11399009Y-16496619D01*
X11789485Y-16287096D02*
X11618057Y-16544238D01*
X12046628Y-16296619D02*
X12065676Y-16296619D01*
X12065676Y-16296619D02*
X12084724Y-16306143D01*
X12084724Y-16306143D02*
X12094247Y-16315667D01*
X12094247Y-16315667D02*
X12103771Y-16334715D01*
X12103771Y-16334715D02*
X12113295Y-16372810D01*
X12113295Y-16372810D02*
X12113295Y-16420429D01*
X12113295Y-16420429D02*
X12103771Y-16458524D01*
X12103771Y-16458524D02*
X12094247Y-16477572D01*
X12094247Y-16477572D02*
X12084724Y-16487096D01*
X12084724Y-16487096D02*
X12065676Y-16496619D01*
X12065676Y-16496619D02*
X12046628Y-16496619D01*
X12046628Y-16496619D02*
X12027581Y-16487096D01*
X12027581Y-16487096D02*
X12018057Y-16477572D01*
X12018057Y-16477572D02*
X12008533Y-16458524D01*
X12008533Y-16458524D02*
X11999009Y-16420429D01*
X11999009Y-16420429D02*
X11999009Y-16372810D01*
X11999009Y-16372810D02*
X12008533Y-16334715D01*
X12008533Y-16334715D02*
X12018057Y-16315667D01*
X12018057Y-16315667D02*
X12027581Y-16306143D01*
X12027581Y-16306143D02*
X12046628Y-16296619D01*
X12199009Y-16477572D02*
X12208533Y-16487096D01*
X12208533Y-16487096D02*
X12199009Y-16496619D01*
X12199009Y-16496619D02*
X12189486Y-16487096D01*
X12189486Y-16487096D02*
X12199009Y-16477572D01*
X12199009Y-16477572D02*
X12199009Y-16496619D01*
X12332343Y-16296619D02*
X12351390Y-16296619D01*
X12351390Y-16296619D02*
X12370438Y-16306143D01*
X12370438Y-16306143D02*
X12379962Y-16315667D01*
X12379962Y-16315667D02*
X12389486Y-16334715D01*
X12389486Y-16334715D02*
X12399009Y-16372810D01*
X12399009Y-16372810D02*
X12399009Y-16420429D01*
X12399009Y-16420429D02*
X12389486Y-16458524D01*
X12389486Y-16458524D02*
X12379962Y-16477572D01*
X12379962Y-16477572D02*
X12370438Y-16487096D01*
X12370438Y-16487096D02*
X12351390Y-16496619D01*
X12351390Y-16496619D02*
X12332343Y-16496619D01*
X12332343Y-16496619D02*
X12313295Y-16487096D01*
X12313295Y-16487096D02*
X12303771Y-16477572D01*
X12303771Y-16477572D02*
X12294247Y-16458524D01*
X12294247Y-16458524D02*
X12284724Y-16420429D01*
X12284724Y-16420429D02*
X12284724Y-16372810D01*
X12284724Y-16372810D02*
X12294247Y-16334715D01*
X12294247Y-16334715D02*
X12303771Y-16315667D01*
X12303771Y-16315667D02*
X12313295Y-16306143D01*
X12313295Y-16306143D02*
X12332343Y-16296619D01*
X12475200Y-16315667D02*
X12484724Y-16306143D01*
X12484724Y-16306143D02*
X12503771Y-16296619D01*
X12503771Y-16296619D02*
X12551390Y-16296619D01*
X12551390Y-16296619D02*
X12570438Y-16306143D01*
X12570438Y-16306143D02*
X12579962Y-16315667D01*
X12579962Y-16315667D02*
X12589486Y-16334715D01*
X12589486Y-16334715D02*
X12589486Y-16353762D01*
X12589486Y-16353762D02*
X12579962Y-16382334D01*
X12579962Y-16382334D02*
X12465676Y-16496619D01*
X12465676Y-16496619D02*
X12589486Y-16496619D01*
X12703771Y-16382334D02*
X12684724Y-16372810D01*
X12684724Y-16372810D02*
X12675200Y-16363286D01*
X12675200Y-16363286D02*
X12665676Y-16344238D01*
X12665676Y-16344238D02*
X12665676Y-16334715D01*
X12665676Y-16334715D02*
X12675200Y-16315667D01*
X12675200Y-16315667D02*
X12684724Y-16306143D01*
X12684724Y-16306143D02*
X12703771Y-16296619D01*
X12703771Y-16296619D02*
X12741867Y-16296619D01*
X12741867Y-16296619D02*
X12760914Y-16306143D01*
X12760914Y-16306143D02*
X12770438Y-16315667D01*
X12770438Y-16315667D02*
X12779962Y-16334715D01*
X12779962Y-16334715D02*
X12779962Y-16344238D01*
X12779962Y-16344238D02*
X12770438Y-16363286D01*
X12770438Y-16363286D02*
X12760914Y-16372810D01*
X12760914Y-16372810D02*
X12741867Y-16382334D01*
X12741867Y-16382334D02*
X12703771Y-16382334D01*
X12703771Y-16382334D02*
X12684724Y-16391858D01*
X12684724Y-16391858D02*
X12675200Y-16401381D01*
X12675200Y-16401381D02*
X12665676Y-16420429D01*
X12665676Y-16420429D02*
X12665676Y-16458524D01*
X12665676Y-16458524D02*
X12675200Y-16477572D01*
X12675200Y-16477572D02*
X12684724Y-16487096D01*
X12684724Y-16487096D02*
X12703771Y-16496619D01*
X12703771Y-16496619D02*
X12741867Y-16496619D01*
X12741867Y-16496619D02*
X12760914Y-16487096D01*
X12760914Y-16487096D02*
X12770438Y-16477572D01*
X12770438Y-16477572D02*
X12779962Y-16458524D01*
X12779962Y-16458524D02*
X12779962Y-16420429D01*
X12779962Y-16420429D02*
X12770438Y-16401381D01*
X12770438Y-16401381D02*
X12760914Y-16391858D01*
X12760914Y-16391858D02*
X12741867Y-16382334D01*
X12903771Y-16296619D02*
X12922819Y-16296619D01*
X12922819Y-16296619D02*
X12941867Y-16306143D01*
X12941867Y-16306143D02*
X12951390Y-16315667D01*
X12951390Y-16315667D02*
X12960914Y-16334715D01*
X12960914Y-16334715D02*
X12970438Y-16372810D01*
X12970438Y-16372810D02*
X12970438Y-16420429D01*
X12970438Y-16420429D02*
X12960914Y-16458524D01*
X12960914Y-16458524D02*
X12951390Y-16477572D01*
X12951390Y-16477572D02*
X12941867Y-16487096D01*
X12941867Y-16487096D02*
X12922819Y-16496619D01*
X12922819Y-16496619D02*
X12903771Y-16496619D01*
X12903771Y-16496619D02*
X12884724Y-16487096D01*
X12884724Y-16487096D02*
X12875200Y-16477572D01*
X12875200Y-16477572D02*
X12865676Y-16458524D01*
X12865676Y-16458524D02*
X12856152Y-16420429D01*
X12856152Y-16420429D02*
X12856152Y-16372810D01*
X12856152Y-16372810D02*
X12865676Y-16334715D01*
X12865676Y-16334715D02*
X12875200Y-16315667D01*
X12875200Y-16315667D02*
X12884724Y-16306143D01*
X12884724Y-16306143D02*
X12903771Y-16296619D01*
X13046628Y-16296619D02*
X13046628Y-16334715D01*
X13122819Y-16296619D02*
X13122819Y-16334715D01*
X13418057Y-16572810D02*
X13408533Y-16563286D01*
X13408533Y-16563286D02*
X13389486Y-16534715D01*
X13389486Y-16534715D02*
X13379962Y-16515667D01*
X13379962Y-16515667D02*
X13370438Y-16487096D01*
X13370438Y-16487096D02*
X13360914Y-16439477D01*
X13360914Y-16439477D02*
X13360914Y-16401381D01*
X13360914Y-16401381D02*
X13370438Y-16353762D01*
X13370438Y-16353762D02*
X13379962Y-16325191D01*
X13379962Y-16325191D02*
X13389486Y-16306143D01*
X13389486Y-16306143D02*
X13408533Y-16277572D01*
X13408533Y-16277572D02*
X13418057Y-16268048D01*
X13599009Y-16496619D02*
X13484724Y-16496619D01*
X13541867Y-16496619D02*
X13541867Y-16296619D01*
X13541867Y-16296619D02*
X13522819Y-16325191D01*
X13522819Y-16325191D02*
X13503771Y-16344238D01*
X13503771Y-16344238D02*
X13484724Y-16353762D01*
X13675200Y-16315667D02*
X13684724Y-16306143D01*
X13684724Y-16306143D02*
X13703771Y-16296619D01*
X13703771Y-16296619D02*
X13751390Y-16296619D01*
X13751390Y-16296619D02*
X13770438Y-16306143D01*
X13770438Y-16306143D02*
X13779962Y-16315667D01*
X13779962Y-16315667D02*
X13789486Y-16334715D01*
X13789486Y-16334715D02*
X13789486Y-16353762D01*
X13789486Y-16353762D02*
X13779962Y-16382334D01*
X13779962Y-16382334D02*
X13665676Y-16496619D01*
X13665676Y-16496619D02*
X13789486Y-16496619D01*
X14027581Y-16496619D02*
X14027581Y-16296619D01*
X14113295Y-16496619D02*
X14113295Y-16391858D01*
X14113295Y-16391858D02*
X14103771Y-16372810D01*
X14103771Y-16372810D02*
X14084724Y-16363286D01*
X14084724Y-16363286D02*
X14056152Y-16363286D01*
X14056152Y-16363286D02*
X14037105Y-16372810D01*
X14037105Y-16372810D02*
X14027581Y-16382334D01*
X14237105Y-16496619D02*
X14218057Y-16487096D01*
X14218057Y-16487096D02*
X14208533Y-16477572D01*
X14208533Y-16477572D02*
X14199010Y-16458524D01*
X14199010Y-16458524D02*
X14199010Y-16401381D01*
X14199010Y-16401381D02*
X14208533Y-16382334D01*
X14208533Y-16382334D02*
X14218057Y-16372810D01*
X14218057Y-16372810D02*
X14237105Y-16363286D01*
X14237105Y-16363286D02*
X14265676Y-16363286D01*
X14265676Y-16363286D02*
X14284724Y-16372810D01*
X14284724Y-16372810D02*
X14294248Y-16382334D01*
X14294248Y-16382334D02*
X14303771Y-16401381D01*
X14303771Y-16401381D02*
X14303771Y-16458524D01*
X14303771Y-16458524D02*
X14294248Y-16477572D01*
X14294248Y-16477572D02*
X14284724Y-16487096D01*
X14284724Y-16487096D02*
X14265676Y-16496619D01*
X14265676Y-16496619D02*
X14237105Y-16496619D01*
X14418057Y-16496619D02*
X14399010Y-16487096D01*
X14399010Y-16487096D02*
X14389486Y-16468048D01*
X14389486Y-16468048D02*
X14389486Y-16296619D01*
X14570438Y-16487096D02*
X14551391Y-16496619D01*
X14551391Y-16496619D02*
X14513295Y-16496619D01*
X14513295Y-16496619D02*
X14494248Y-16487096D01*
X14494248Y-16487096D02*
X14484724Y-16468048D01*
X14484724Y-16468048D02*
X14484724Y-16391858D01*
X14484724Y-16391858D02*
X14494248Y-16372810D01*
X14494248Y-16372810D02*
X14513295Y-16363286D01*
X14513295Y-16363286D02*
X14551391Y-16363286D01*
X14551391Y-16363286D02*
X14570438Y-16372810D01*
X14570438Y-16372810D02*
X14579962Y-16391858D01*
X14579962Y-16391858D02*
X14579962Y-16410905D01*
X14579962Y-16410905D02*
X14484724Y-16429953D01*
X14656152Y-16487096D02*
X14675200Y-16496619D01*
X14675200Y-16496619D02*
X14713295Y-16496619D01*
X14713295Y-16496619D02*
X14732343Y-16487096D01*
X14732343Y-16487096D02*
X14741867Y-16468048D01*
X14741867Y-16468048D02*
X14741867Y-16458524D01*
X14741867Y-16458524D02*
X14732343Y-16439477D01*
X14732343Y-16439477D02*
X14713295Y-16429953D01*
X14713295Y-16429953D02*
X14684724Y-16429953D01*
X14684724Y-16429953D02*
X14665676Y-16420429D01*
X14665676Y-16420429D02*
X14656152Y-16401381D01*
X14656152Y-16401381D02*
X14656152Y-16391858D01*
X14656152Y-16391858D02*
X14665676Y-16372810D01*
X14665676Y-16372810D02*
X14684724Y-16363286D01*
X14684724Y-16363286D02*
X14713295Y-16363286D01*
X14713295Y-16363286D02*
X14732343Y-16372810D01*
X14808533Y-16572810D02*
X14818057Y-16563286D01*
X14818057Y-16563286D02*
X14837105Y-16534715D01*
X14837105Y-16534715D02*
X14846629Y-16515667D01*
X14846629Y-16515667D02*
X14856152Y-16487096D01*
X14856152Y-16487096D02*
X14865676Y-16439477D01*
X14865676Y-16439477D02*
X14865676Y-16401381D01*
X14865676Y-16401381D02*
X14856152Y-16353762D01*
X14856152Y-16353762D02*
X14846629Y-16325191D01*
X14846629Y-16325191D02*
X14837105Y-16306143D01*
X14837105Y-16306143D02*
X14818057Y-16277572D01*
X14818057Y-16277572D02*
X14808533Y-16268048D01*
D12*
X9802994Y-16629136D02*
X9802994Y-16709136D01*
X9762994Y-16669136D02*
X9842994Y-16669136D01*
D11*
X10141866Y-16560619D02*
X10160914Y-16560619D01*
X10160914Y-16560619D02*
X10179962Y-16570143D01*
X10179962Y-16570143D02*
X10189485Y-16579667D01*
X10189485Y-16579667D02*
X10199009Y-16598715D01*
X10199009Y-16598715D02*
X10208533Y-16636810D01*
X10208533Y-16636810D02*
X10208533Y-16684429D01*
X10208533Y-16684429D02*
X10199009Y-16722524D01*
X10199009Y-16722524D02*
X10189485Y-16741572D01*
X10189485Y-16741572D02*
X10179962Y-16751096D01*
X10179962Y-16751096D02*
X10160914Y-16760619D01*
X10160914Y-16760619D02*
X10141866Y-16760619D01*
X10141866Y-16760619D02*
X10122819Y-16751096D01*
X10122819Y-16751096D02*
X10113295Y-16741572D01*
X10113295Y-16741572D02*
X10103771Y-16722524D01*
X10103771Y-16722524D02*
X10094247Y-16684429D01*
X10094247Y-16684429D02*
X10094247Y-16636810D01*
X10094247Y-16636810D02*
X10103771Y-16598715D01*
X10103771Y-16598715D02*
X10113295Y-16579667D01*
X10113295Y-16579667D02*
X10122819Y-16570143D01*
X10122819Y-16570143D02*
X10141866Y-16560619D01*
X10294247Y-16741572D02*
X10303771Y-16751096D01*
X10303771Y-16751096D02*
X10294247Y-16760619D01*
X10294247Y-16760619D02*
X10284724Y-16751096D01*
X10284724Y-16751096D02*
X10294247Y-16741572D01*
X10294247Y-16741572D02*
X10294247Y-16760619D01*
X10418057Y-16646334D02*
X10399009Y-16636810D01*
X10399009Y-16636810D02*
X10389485Y-16627286D01*
X10389485Y-16627286D02*
X10379962Y-16608238D01*
X10379962Y-16608238D02*
X10379962Y-16598715D01*
X10379962Y-16598715D02*
X10389485Y-16579667D01*
X10389485Y-16579667D02*
X10399009Y-16570143D01*
X10399009Y-16570143D02*
X10418057Y-16560619D01*
X10418057Y-16560619D02*
X10456152Y-16560619D01*
X10456152Y-16560619D02*
X10475200Y-16570143D01*
X10475200Y-16570143D02*
X10484724Y-16579667D01*
X10484724Y-16579667D02*
X10494247Y-16598715D01*
X10494247Y-16598715D02*
X10494247Y-16608238D01*
X10494247Y-16608238D02*
X10484724Y-16627286D01*
X10484724Y-16627286D02*
X10475200Y-16636810D01*
X10475200Y-16636810D02*
X10456152Y-16646334D01*
X10456152Y-16646334D02*
X10418057Y-16646334D01*
X10418057Y-16646334D02*
X10399009Y-16655858D01*
X10399009Y-16655858D02*
X10389485Y-16665381D01*
X10389485Y-16665381D02*
X10379962Y-16684429D01*
X10379962Y-16684429D02*
X10379962Y-16722524D01*
X10379962Y-16722524D02*
X10389485Y-16741572D01*
X10389485Y-16741572D02*
X10399009Y-16751096D01*
X10399009Y-16751096D02*
X10418057Y-16760619D01*
X10418057Y-16760619D02*
X10456152Y-16760619D01*
X10456152Y-16760619D02*
X10475200Y-16751096D01*
X10475200Y-16751096D02*
X10484724Y-16741572D01*
X10484724Y-16741572D02*
X10494247Y-16722524D01*
X10494247Y-16722524D02*
X10494247Y-16684429D01*
X10494247Y-16684429D02*
X10484724Y-16665381D01*
X10484724Y-16665381D02*
X10475200Y-16655858D01*
X10475200Y-16655858D02*
X10456152Y-16646334D01*
X10618057Y-16560619D02*
X10637105Y-16560619D01*
X10637105Y-16560619D02*
X10656152Y-16570143D01*
X10656152Y-16570143D02*
X10665676Y-16579667D01*
X10665676Y-16579667D02*
X10675200Y-16598715D01*
X10675200Y-16598715D02*
X10684724Y-16636810D01*
X10684724Y-16636810D02*
X10684724Y-16684429D01*
X10684724Y-16684429D02*
X10675200Y-16722524D01*
X10675200Y-16722524D02*
X10665676Y-16741572D01*
X10665676Y-16741572D02*
X10656152Y-16751096D01*
X10656152Y-16751096D02*
X10637105Y-16760619D01*
X10637105Y-16760619D02*
X10618057Y-16760619D01*
X10618057Y-16760619D02*
X10599009Y-16751096D01*
X10599009Y-16751096D02*
X10589485Y-16741572D01*
X10589485Y-16741572D02*
X10579962Y-16722524D01*
X10579962Y-16722524D02*
X10570438Y-16684429D01*
X10570438Y-16684429D02*
X10570438Y-16636810D01*
X10570438Y-16636810D02*
X10579962Y-16598715D01*
X10579962Y-16598715D02*
X10589485Y-16579667D01*
X10589485Y-16579667D02*
X10599009Y-16570143D01*
X10599009Y-16570143D02*
X10618057Y-16560619D01*
X10808533Y-16560619D02*
X10827581Y-16560619D01*
X10827581Y-16560619D02*
X10846628Y-16570143D01*
X10846628Y-16570143D02*
X10856152Y-16579667D01*
X10856152Y-16579667D02*
X10865676Y-16598715D01*
X10865676Y-16598715D02*
X10875200Y-16636810D01*
X10875200Y-16636810D02*
X10875200Y-16684429D01*
X10875200Y-16684429D02*
X10865676Y-16722524D01*
X10865676Y-16722524D02*
X10856152Y-16741572D01*
X10856152Y-16741572D02*
X10846628Y-16751096D01*
X10846628Y-16751096D02*
X10827581Y-16760619D01*
X10827581Y-16760619D02*
X10808533Y-16760619D01*
X10808533Y-16760619D02*
X10789485Y-16751096D01*
X10789485Y-16751096D02*
X10779962Y-16741572D01*
X10779962Y-16741572D02*
X10770438Y-16722524D01*
X10770438Y-16722524D02*
X10760914Y-16684429D01*
X10760914Y-16684429D02*
X10760914Y-16636810D01*
X10760914Y-16636810D02*
X10770438Y-16598715D01*
X10770438Y-16598715D02*
X10779962Y-16579667D01*
X10779962Y-16579667D02*
X10789485Y-16570143D01*
X10789485Y-16570143D02*
X10808533Y-16560619D01*
X10960914Y-16760619D02*
X10960914Y-16627286D01*
X10960914Y-16646334D02*
X10970438Y-16636810D01*
X10970438Y-16636810D02*
X10989485Y-16627286D01*
X10989485Y-16627286D02*
X11018057Y-16627286D01*
X11018057Y-16627286D02*
X11037105Y-16636810D01*
X11037105Y-16636810D02*
X11046628Y-16655858D01*
X11046628Y-16655858D02*
X11046628Y-16760619D01*
X11046628Y-16655858D02*
X11056152Y-16636810D01*
X11056152Y-16636810D02*
X11075200Y-16627286D01*
X11075200Y-16627286D02*
X11103771Y-16627286D01*
X11103771Y-16627286D02*
X11122819Y-16636810D01*
X11122819Y-16636810D02*
X11132343Y-16655858D01*
X11132343Y-16655858D02*
X11132343Y-16760619D01*
X11227581Y-16760619D02*
X11227581Y-16627286D01*
X11227581Y-16646334D02*
X11237104Y-16636810D01*
X11237104Y-16636810D02*
X11256152Y-16627286D01*
X11256152Y-16627286D02*
X11284724Y-16627286D01*
X11284724Y-16627286D02*
X11303771Y-16636810D01*
X11303771Y-16636810D02*
X11313295Y-16655858D01*
X11313295Y-16655858D02*
X11313295Y-16760619D01*
X11313295Y-16655858D02*
X11322819Y-16636810D01*
X11322819Y-16636810D02*
X11341866Y-16627286D01*
X11341866Y-16627286D02*
X11370438Y-16627286D01*
X11370438Y-16627286D02*
X11389485Y-16636810D01*
X11389485Y-16636810D02*
X11399009Y-16655858D01*
X11399009Y-16655858D02*
X11399009Y-16760619D01*
X11789485Y-16551096D02*
X11618057Y-16808239D01*
X12046628Y-16560619D02*
X12065676Y-16560619D01*
X12065676Y-16560619D02*
X12084724Y-16570143D01*
X12084724Y-16570143D02*
X12094247Y-16579667D01*
X12094247Y-16579667D02*
X12103771Y-16598715D01*
X12103771Y-16598715D02*
X12113295Y-16636810D01*
X12113295Y-16636810D02*
X12113295Y-16684429D01*
X12113295Y-16684429D02*
X12103771Y-16722524D01*
X12103771Y-16722524D02*
X12094247Y-16741572D01*
X12094247Y-16741572D02*
X12084724Y-16751096D01*
X12084724Y-16751096D02*
X12065676Y-16760619D01*
X12065676Y-16760619D02*
X12046628Y-16760619D01*
X12046628Y-16760619D02*
X12027581Y-16751096D01*
X12027581Y-16751096D02*
X12018057Y-16741572D01*
X12018057Y-16741572D02*
X12008533Y-16722524D01*
X12008533Y-16722524D02*
X11999009Y-16684429D01*
X11999009Y-16684429D02*
X11999009Y-16636810D01*
X11999009Y-16636810D02*
X12008533Y-16598715D01*
X12008533Y-16598715D02*
X12018057Y-16579667D01*
X12018057Y-16579667D02*
X12027581Y-16570143D01*
X12027581Y-16570143D02*
X12046628Y-16560619D01*
X12199009Y-16741572D02*
X12208533Y-16751096D01*
X12208533Y-16751096D02*
X12199009Y-16760619D01*
X12199009Y-16760619D02*
X12189486Y-16751096D01*
X12189486Y-16751096D02*
X12199009Y-16741572D01*
X12199009Y-16741572D02*
X12199009Y-16760619D01*
X12332343Y-16560619D02*
X12351390Y-16560619D01*
X12351390Y-16560619D02*
X12370438Y-16570143D01*
X12370438Y-16570143D02*
X12379962Y-16579667D01*
X12379962Y-16579667D02*
X12389486Y-16598715D01*
X12389486Y-16598715D02*
X12399009Y-16636810D01*
X12399009Y-16636810D02*
X12399009Y-16684429D01*
X12399009Y-16684429D02*
X12389486Y-16722524D01*
X12389486Y-16722524D02*
X12379962Y-16741572D01*
X12379962Y-16741572D02*
X12370438Y-16751096D01*
X12370438Y-16751096D02*
X12351390Y-16760619D01*
X12351390Y-16760619D02*
X12332343Y-16760619D01*
X12332343Y-16760619D02*
X12313295Y-16751096D01*
X12313295Y-16751096D02*
X12303771Y-16741572D01*
X12303771Y-16741572D02*
X12294247Y-16722524D01*
X12294247Y-16722524D02*
X12284724Y-16684429D01*
X12284724Y-16684429D02*
X12284724Y-16636810D01*
X12284724Y-16636810D02*
X12294247Y-16598715D01*
X12294247Y-16598715D02*
X12303771Y-16579667D01*
X12303771Y-16579667D02*
X12313295Y-16570143D01*
X12313295Y-16570143D02*
X12332343Y-16560619D01*
X12465676Y-16560619D02*
X12589486Y-16560619D01*
X12589486Y-16560619D02*
X12522819Y-16636810D01*
X12522819Y-16636810D02*
X12551390Y-16636810D01*
X12551390Y-16636810D02*
X12570438Y-16646334D01*
X12570438Y-16646334D02*
X12579962Y-16655858D01*
X12579962Y-16655858D02*
X12589486Y-16674905D01*
X12589486Y-16674905D02*
X12589486Y-16722524D01*
X12589486Y-16722524D02*
X12579962Y-16741572D01*
X12579962Y-16741572D02*
X12570438Y-16751096D01*
X12570438Y-16751096D02*
X12551390Y-16760619D01*
X12551390Y-16760619D02*
X12494247Y-16760619D01*
X12494247Y-16760619D02*
X12475200Y-16751096D01*
X12475200Y-16751096D02*
X12465676Y-16741572D01*
X12779962Y-16760619D02*
X12665676Y-16760619D01*
X12722819Y-16760619D02*
X12722819Y-16560619D01*
X12722819Y-16560619D02*
X12703771Y-16589191D01*
X12703771Y-16589191D02*
X12684724Y-16608238D01*
X12684724Y-16608238D02*
X12665676Y-16617762D01*
X12960914Y-16560619D02*
X12865676Y-16560619D01*
X12865676Y-16560619D02*
X12856152Y-16655858D01*
X12856152Y-16655858D02*
X12865676Y-16646334D01*
X12865676Y-16646334D02*
X12884724Y-16636810D01*
X12884724Y-16636810D02*
X12932343Y-16636810D01*
X12932343Y-16636810D02*
X12951390Y-16646334D01*
X12951390Y-16646334D02*
X12960914Y-16655858D01*
X12960914Y-16655858D02*
X12970438Y-16674905D01*
X12970438Y-16674905D02*
X12970438Y-16722524D01*
X12970438Y-16722524D02*
X12960914Y-16741572D01*
X12960914Y-16741572D02*
X12951390Y-16751096D01*
X12951390Y-16751096D02*
X12932343Y-16760619D01*
X12932343Y-16760619D02*
X12884724Y-16760619D01*
X12884724Y-16760619D02*
X12865676Y-16751096D01*
X12865676Y-16751096D02*
X12856152Y-16741572D01*
X13046628Y-16560619D02*
X13046628Y-16598715D01*
X13122819Y-16560619D02*
X13122819Y-16598715D01*
X13418057Y-16836810D02*
X13408533Y-16827286D01*
X13408533Y-16827286D02*
X13389486Y-16798715D01*
X13389486Y-16798715D02*
X13379962Y-16779667D01*
X13379962Y-16779667D02*
X13370438Y-16751096D01*
X13370438Y-16751096D02*
X13360914Y-16703477D01*
X13360914Y-16703477D02*
X13360914Y-16665381D01*
X13360914Y-16665381D02*
X13370438Y-16617762D01*
X13370438Y-16617762D02*
X13379962Y-16589191D01*
X13379962Y-16589191D02*
X13389486Y-16570143D01*
X13389486Y-16570143D02*
X13408533Y-16541572D01*
X13408533Y-16541572D02*
X13418057Y-16532048D01*
X13484724Y-16579667D02*
X13494248Y-16570143D01*
X13494248Y-16570143D02*
X13513295Y-16560619D01*
X13513295Y-16560619D02*
X13560914Y-16560619D01*
X13560914Y-16560619D02*
X13579962Y-16570143D01*
X13579962Y-16570143D02*
X13589486Y-16579667D01*
X13589486Y-16579667D02*
X13599009Y-16598715D01*
X13599009Y-16598715D02*
X13599009Y-16617762D01*
X13599009Y-16617762D02*
X13589486Y-16646334D01*
X13589486Y-16646334D02*
X13475200Y-16760619D01*
X13475200Y-16760619D02*
X13599009Y-16760619D01*
X13837105Y-16760619D02*
X13837105Y-16560619D01*
X13922819Y-16760619D02*
X13922819Y-16655858D01*
X13922819Y-16655858D02*
X13913295Y-16636810D01*
X13913295Y-16636810D02*
X13894248Y-16627286D01*
X13894248Y-16627286D02*
X13865676Y-16627286D01*
X13865676Y-16627286D02*
X13846629Y-16636810D01*
X13846629Y-16636810D02*
X13837105Y-16646334D01*
X14046629Y-16760619D02*
X14027581Y-16751096D01*
X14027581Y-16751096D02*
X14018057Y-16741572D01*
X14018057Y-16741572D02*
X14008533Y-16722524D01*
X14008533Y-16722524D02*
X14008533Y-16665381D01*
X14008533Y-16665381D02*
X14018057Y-16646334D01*
X14018057Y-16646334D02*
X14027581Y-16636810D01*
X14027581Y-16636810D02*
X14046629Y-16627286D01*
X14046629Y-16627286D02*
X14075200Y-16627286D01*
X14075200Y-16627286D02*
X14094248Y-16636810D01*
X14094248Y-16636810D02*
X14103771Y-16646334D01*
X14103771Y-16646334D02*
X14113295Y-16665381D01*
X14113295Y-16665381D02*
X14113295Y-16722524D01*
X14113295Y-16722524D02*
X14103771Y-16741572D01*
X14103771Y-16741572D02*
X14094248Y-16751096D01*
X14094248Y-16751096D02*
X14075200Y-16760619D01*
X14075200Y-16760619D02*
X14046629Y-16760619D01*
X14227581Y-16760619D02*
X14208533Y-16751096D01*
X14208533Y-16751096D02*
X14199010Y-16732048D01*
X14199010Y-16732048D02*
X14199010Y-16560619D01*
X14379962Y-16751096D02*
X14360914Y-16760619D01*
X14360914Y-16760619D02*
X14322819Y-16760619D01*
X14322819Y-16760619D02*
X14303771Y-16751096D01*
X14303771Y-16751096D02*
X14294248Y-16732048D01*
X14294248Y-16732048D02*
X14294248Y-16655858D01*
X14294248Y-16655858D02*
X14303771Y-16636810D01*
X14303771Y-16636810D02*
X14322819Y-16627286D01*
X14322819Y-16627286D02*
X14360914Y-16627286D01*
X14360914Y-16627286D02*
X14379962Y-16636810D01*
X14379962Y-16636810D02*
X14389486Y-16655858D01*
X14389486Y-16655858D02*
X14389486Y-16674905D01*
X14389486Y-16674905D02*
X14294248Y-16693953D01*
X14465676Y-16751096D02*
X14484724Y-16760619D01*
X14484724Y-16760619D02*
X14522819Y-16760619D01*
X14522819Y-16760619D02*
X14541867Y-16751096D01*
X14541867Y-16751096D02*
X14551391Y-16732048D01*
X14551391Y-16732048D02*
X14551391Y-16722524D01*
X14551391Y-16722524D02*
X14541867Y-16703477D01*
X14541867Y-16703477D02*
X14522819Y-16693953D01*
X14522819Y-16693953D02*
X14494248Y-16693953D01*
X14494248Y-16693953D02*
X14475200Y-16684429D01*
X14475200Y-16684429D02*
X14465676Y-16665381D01*
X14465676Y-16665381D02*
X14465676Y-16655858D01*
X14465676Y-16655858D02*
X14475200Y-16636810D01*
X14475200Y-16636810D02*
X14494248Y-16627286D01*
X14494248Y-16627286D02*
X14522819Y-16627286D01*
X14522819Y-16627286D02*
X14541867Y-16636810D01*
X14618057Y-16836810D02*
X14627581Y-16827286D01*
X14627581Y-16827286D02*
X14646629Y-16798715D01*
X14646629Y-16798715D02*
X14656152Y-16779667D01*
X14656152Y-16779667D02*
X14665676Y-16751096D01*
X14665676Y-16751096D02*
X14675200Y-16703477D01*
X14675200Y-16703477D02*
X14675200Y-16665381D01*
X14675200Y-16665381D02*
X14665676Y-16617762D01*
X14665676Y-16617762D02*
X14656152Y-16589191D01*
X14656152Y-16589191D02*
X14646629Y-16570143D01*
X14646629Y-16570143D02*
X14627581Y-16541572D01*
X14627581Y-16541572D02*
X14618057Y-16532048D01*
D12*
X9830348Y-16963669D02*
X9830348Y-16902603D01*
X9769281Y-16902603D01*
X9769281Y-16963669D01*
X9830348Y-16963669D01*
D11*
X10141866Y-16824620D02*
X10160914Y-16824620D01*
X10160914Y-16824620D02*
X10179962Y-16834143D01*
X10179962Y-16834143D02*
X10189485Y-16843667D01*
X10189485Y-16843667D02*
X10199009Y-16862715D01*
X10199009Y-16862715D02*
X10208533Y-16900810D01*
X10208533Y-16900810D02*
X10208533Y-16948429D01*
X10208533Y-16948429D02*
X10199009Y-16986524D01*
X10199009Y-16986524D02*
X10189485Y-17005572D01*
X10189485Y-17005572D02*
X10179962Y-17015096D01*
X10179962Y-17015096D02*
X10160914Y-17024620D01*
X10160914Y-17024620D02*
X10141866Y-17024620D01*
X10141866Y-17024620D02*
X10122819Y-17015096D01*
X10122819Y-17015096D02*
X10113295Y-17005572D01*
X10113295Y-17005572D02*
X10103771Y-16986524D01*
X10103771Y-16986524D02*
X10094247Y-16948429D01*
X10094247Y-16948429D02*
X10094247Y-16900810D01*
X10094247Y-16900810D02*
X10103771Y-16862715D01*
X10103771Y-16862715D02*
X10113295Y-16843667D01*
X10113295Y-16843667D02*
X10122819Y-16834143D01*
X10122819Y-16834143D02*
X10141866Y-16824620D01*
X10294247Y-17005572D02*
X10303771Y-17015096D01*
X10303771Y-17015096D02*
X10294247Y-17024620D01*
X10294247Y-17024620D02*
X10284724Y-17015096D01*
X10284724Y-17015096D02*
X10294247Y-17005572D01*
X10294247Y-17005572D02*
X10294247Y-17024620D01*
X10418057Y-16910334D02*
X10399009Y-16900810D01*
X10399009Y-16900810D02*
X10389485Y-16891286D01*
X10389485Y-16891286D02*
X10379962Y-16872239D01*
X10379962Y-16872239D02*
X10379962Y-16862715D01*
X10379962Y-16862715D02*
X10389485Y-16843667D01*
X10389485Y-16843667D02*
X10399009Y-16834143D01*
X10399009Y-16834143D02*
X10418057Y-16824620D01*
X10418057Y-16824620D02*
X10456152Y-16824620D01*
X10456152Y-16824620D02*
X10475200Y-16834143D01*
X10475200Y-16834143D02*
X10484724Y-16843667D01*
X10484724Y-16843667D02*
X10494247Y-16862715D01*
X10494247Y-16862715D02*
X10494247Y-16872239D01*
X10494247Y-16872239D02*
X10484724Y-16891286D01*
X10484724Y-16891286D02*
X10475200Y-16900810D01*
X10475200Y-16900810D02*
X10456152Y-16910334D01*
X10456152Y-16910334D02*
X10418057Y-16910334D01*
X10418057Y-16910334D02*
X10399009Y-16919858D01*
X10399009Y-16919858D02*
X10389485Y-16929381D01*
X10389485Y-16929381D02*
X10379962Y-16948429D01*
X10379962Y-16948429D02*
X10379962Y-16986524D01*
X10379962Y-16986524D02*
X10389485Y-17005572D01*
X10389485Y-17005572D02*
X10399009Y-17015096D01*
X10399009Y-17015096D02*
X10418057Y-17024620D01*
X10418057Y-17024620D02*
X10456152Y-17024620D01*
X10456152Y-17024620D02*
X10475200Y-17015096D01*
X10475200Y-17015096D02*
X10484724Y-17005572D01*
X10484724Y-17005572D02*
X10494247Y-16986524D01*
X10494247Y-16986524D02*
X10494247Y-16948429D01*
X10494247Y-16948429D02*
X10484724Y-16929381D01*
X10484724Y-16929381D02*
X10475200Y-16919858D01*
X10475200Y-16919858D02*
X10456152Y-16910334D01*
X10665676Y-16824620D02*
X10627581Y-16824620D01*
X10627581Y-16824620D02*
X10608533Y-16834143D01*
X10608533Y-16834143D02*
X10599009Y-16843667D01*
X10599009Y-16843667D02*
X10579962Y-16872239D01*
X10579962Y-16872239D02*
X10570438Y-16910334D01*
X10570438Y-16910334D02*
X10570438Y-16986524D01*
X10570438Y-16986524D02*
X10579962Y-17005572D01*
X10579962Y-17005572D02*
X10589485Y-17015096D01*
X10589485Y-17015096D02*
X10608533Y-17024620D01*
X10608533Y-17024620D02*
X10646628Y-17024620D01*
X10646628Y-17024620D02*
X10665676Y-17015096D01*
X10665676Y-17015096D02*
X10675200Y-17005572D01*
X10675200Y-17005572D02*
X10684724Y-16986524D01*
X10684724Y-16986524D02*
X10684724Y-16938905D01*
X10684724Y-16938905D02*
X10675200Y-16919858D01*
X10675200Y-16919858D02*
X10665676Y-16910334D01*
X10665676Y-16910334D02*
X10646628Y-16900810D01*
X10646628Y-16900810D02*
X10608533Y-16900810D01*
X10608533Y-16900810D02*
X10589485Y-16910334D01*
X10589485Y-16910334D02*
X10579962Y-16919858D01*
X10579962Y-16919858D02*
X10570438Y-16938905D01*
X10856152Y-16891286D02*
X10856152Y-17024620D01*
X10808533Y-16815096D02*
X10760914Y-16957953D01*
X10760914Y-16957953D02*
X10884724Y-16957953D01*
X10960914Y-17024620D02*
X10960914Y-16891286D01*
X10960914Y-16910334D02*
X10970438Y-16900810D01*
X10970438Y-16900810D02*
X10989485Y-16891286D01*
X10989485Y-16891286D02*
X11018057Y-16891286D01*
X11018057Y-16891286D02*
X11037105Y-16900810D01*
X11037105Y-16900810D02*
X11046628Y-16919858D01*
X11046628Y-16919858D02*
X11046628Y-17024620D01*
X11046628Y-16919858D02*
X11056152Y-16900810D01*
X11056152Y-16900810D02*
X11075200Y-16891286D01*
X11075200Y-16891286D02*
X11103771Y-16891286D01*
X11103771Y-16891286D02*
X11122819Y-16900810D01*
X11122819Y-16900810D02*
X11132343Y-16919858D01*
X11132343Y-16919858D02*
X11132343Y-17024620D01*
X11227581Y-17024620D02*
X11227581Y-16891286D01*
X11227581Y-16910334D02*
X11237104Y-16900810D01*
X11237104Y-16900810D02*
X11256152Y-16891286D01*
X11256152Y-16891286D02*
X11284724Y-16891286D01*
X11284724Y-16891286D02*
X11303771Y-16900810D01*
X11303771Y-16900810D02*
X11313295Y-16919858D01*
X11313295Y-16919858D02*
X11313295Y-17024620D01*
X11313295Y-16919858D02*
X11322819Y-16900810D01*
X11322819Y-16900810D02*
X11341866Y-16891286D01*
X11341866Y-16891286D02*
X11370438Y-16891286D01*
X11370438Y-16891286D02*
X11389485Y-16900810D01*
X11389485Y-16900810D02*
X11399009Y-16919858D01*
X11399009Y-16919858D02*
X11399009Y-17024620D01*
X11789485Y-16815096D02*
X11618057Y-17072239D01*
X12046628Y-16824620D02*
X12065676Y-16824620D01*
X12065676Y-16824620D02*
X12084724Y-16834143D01*
X12084724Y-16834143D02*
X12094247Y-16843667D01*
X12094247Y-16843667D02*
X12103771Y-16862715D01*
X12103771Y-16862715D02*
X12113295Y-16900810D01*
X12113295Y-16900810D02*
X12113295Y-16948429D01*
X12113295Y-16948429D02*
X12103771Y-16986524D01*
X12103771Y-16986524D02*
X12094247Y-17005572D01*
X12094247Y-17005572D02*
X12084724Y-17015096D01*
X12084724Y-17015096D02*
X12065676Y-17024620D01*
X12065676Y-17024620D02*
X12046628Y-17024620D01*
X12046628Y-17024620D02*
X12027581Y-17015096D01*
X12027581Y-17015096D02*
X12018057Y-17005572D01*
X12018057Y-17005572D02*
X12008533Y-16986524D01*
X12008533Y-16986524D02*
X11999009Y-16948429D01*
X11999009Y-16948429D02*
X11999009Y-16900810D01*
X11999009Y-16900810D02*
X12008533Y-16862715D01*
X12008533Y-16862715D02*
X12018057Y-16843667D01*
X12018057Y-16843667D02*
X12027581Y-16834143D01*
X12027581Y-16834143D02*
X12046628Y-16824620D01*
X12199009Y-17005572D02*
X12208533Y-17015096D01*
X12208533Y-17015096D02*
X12199009Y-17024620D01*
X12199009Y-17024620D02*
X12189486Y-17015096D01*
X12189486Y-17015096D02*
X12199009Y-17005572D01*
X12199009Y-17005572D02*
X12199009Y-17024620D01*
X12332343Y-16824620D02*
X12351390Y-16824620D01*
X12351390Y-16824620D02*
X12370438Y-16834143D01*
X12370438Y-16834143D02*
X12379962Y-16843667D01*
X12379962Y-16843667D02*
X12389486Y-16862715D01*
X12389486Y-16862715D02*
X12399009Y-16900810D01*
X12399009Y-16900810D02*
X12399009Y-16948429D01*
X12399009Y-16948429D02*
X12389486Y-16986524D01*
X12389486Y-16986524D02*
X12379962Y-17005572D01*
X12379962Y-17005572D02*
X12370438Y-17015096D01*
X12370438Y-17015096D02*
X12351390Y-17024620D01*
X12351390Y-17024620D02*
X12332343Y-17024620D01*
X12332343Y-17024620D02*
X12313295Y-17015096D01*
X12313295Y-17015096D02*
X12303771Y-17005572D01*
X12303771Y-17005572D02*
X12294247Y-16986524D01*
X12294247Y-16986524D02*
X12284724Y-16948429D01*
X12284724Y-16948429D02*
X12284724Y-16900810D01*
X12284724Y-16900810D02*
X12294247Y-16862715D01*
X12294247Y-16862715D02*
X12303771Y-16843667D01*
X12303771Y-16843667D02*
X12313295Y-16834143D01*
X12313295Y-16834143D02*
X12332343Y-16824620D01*
X12465676Y-16824620D02*
X12589486Y-16824620D01*
X12589486Y-16824620D02*
X12522819Y-16900810D01*
X12522819Y-16900810D02*
X12551390Y-16900810D01*
X12551390Y-16900810D02*
X12570438Y-16910334D01*
X12570438Y-16910334D02*
X12579962Y-16919858D01*
X12579962Y-16919858D02*
X12589486Y-16938905D01*
X12589486Y-16938905D02*
X12589486Y-16986524D01*
X12589486Y-16986524D02*
X12579962Y-17005572D01*
X12579962Y-17005572D02*
X12570438Y-17015096D01*
X12570438Y-17015096D02*
X12551390Y-17024620D01*
X12551390Y-17024620D02*
X12494247Y-17024620D01*
X12494247Y-17024620D02*
X12475200Y-17015096D01*
X12475200Y-17015096D02*
X12465676Y-17005572D01*
X12760914Y-16891286D02*
X12760914Y-17024620D01*
X12713295Y-16815096D02*
X12665676Y-16957953D01*
X12665676Y-16957953D02*
X12789486Y-16957953D01*
X12903771Y-16824620D02*
X12922819Y-16824620D01*
X12922819Y-16824620D02*
X12941867Y-16834143D01*
X12941867Y-16834143D02*
X12951390Y-16843667D01*
X12951390Y-16843667D02*
X12960914Y-16862715D01*
X12960914Y-16862715D02*
X12970438Y-16900810D01*
X12970438Y-16900810D02*
X12970438Y-16948429D01*
X12970438Y-16948429D02*
X12960914Y-16986524D01*
X12960914Y-16986524D02*
X12951390Y-17005572D01*
X12951390Y-17005572D02*
X12941867Y-17015096D01*
X12941867Y-17015096D02*
X12922819Y-17024620D01*
X12922819Y-17024620D02*
X12903771Y-17024620D01*
X12903771Y-17024620D02*
X12884724Y-17015096D01*
X12884724Y-17015096D02*
X12875200Y-17005572D01*
X12875200Y-17005572D02*
X12865676Y-16986524D01*
X12865676Y-16986524D02*
X12856152Y-16948429D01*
X12856152Y-16948429D02*
X12856152Y-16900810D01*
X12856152Y-16900810D02*
X12865676Y-16862715D01*
X12865676Y-16862715D02*
X12875200Y-16843667D01*
X12875200Y-16843667D02*
X12884724Y-16834143D01*
X12884724Y-16834143D02*
X12903771Y-16824620D01*
X13046628Y-16824620D02*
X13046628Y-16862715D01*
X13122819Y-16824620D02*
X13122819Y-16862715D01*
X13418057Y-17100810D02*
X13408533Y-17091286D01*
X13408533Y-17091286D02*
X13389486Y-17062715D01*
X13389486Y-17062715D02*
X13379962Y-17043667D01*
X13379962Y-17043667D02*
X13370438Y-17015096D01*
X13370438Y-17015096D02*
X13360914Y-16967477D01*
X13360914Y-16967477D02*
X13360914Y-16929381D01*
X13360914Y-16929381D02*
X13370438Y-16881762D01*
X13370438Y-16881762D02*
X13379962Y-16853191D01*
X13379962Y-16853191D02*
X13389486Y-16834143D01*
X13389486Y-16834143D02*
X13408533Y-16805572D01*
X13408533Y-16805572D02*
X13418057Y-16796048D01*
X13579962Y-16891286D02*
X13579962Y-17024620D01*
X13532343Y-16815096D02*
X13484724Y-16957953D01*
X13484724Y-16957953D02*
X13608533Y-16957953D01*
X13837105Y-17024620D02*
X13837105Y-16824620D01*
X13922819Y-17024620D02*
X13922819Y-16919858D01*
X13922819Y-16919858D02*
X13913295Y-16900810D01*
X13913295Y-16900810D02*
X13894248Y-16891286D01*
X13894248Y-16891286D02*
X13865676Y-16891286D01*
X13865676Y-16891286D02*
X13846629Y-16900810D01*
X13846629Y-16900810D02*
X13837105Y-16910334D01*
X14046629Y-17024620D02*
X14027581Y-17015096D01*
X14027581Y-17015096D02*
X14018057Y-17005572D01*
X14018057Y-17005572D02*
X14008533Y-16986524D01*
X14008533Y-16986524D02*
X14008533Y-16929381D01*
X14008533Y-16929381D02*
X14018057Y-16910334D01*
X14018057Y-16910334D02*
X14027581Y-16900810D01*
X14027581Y-16900810D02*
X14046629Y-16891286D01*
X14046629Y-16891286D02*
X14075200Y-16891286D01*
X14075200Y-16891286D02*
X14094248Y-16900810D01*
X14094248Y-16900810D02*
X14103771Y-16910334D01*
X14103771Y-16910334D02*
X14113295Y-16929381D01*
X14113295Y-16929381D02*
X14113295Y-16986524D01*
X14113295Y-16986524D02*
X14103771Y-17005572D01*
X14103771Y-17005572D02*
X14094248Y-17015096D01*
X14094248Y-17015096D02*
X14075200Y-17024620D01*
X14075200Y-17024620D02*
X14046629Y-17024620D01*
X14227581Y-17024620D02*
X14208533Y-17015096D01*
X14208533Y-17015096D02*
X14199010Y-16996048D01*
X14199010Y-16996048D02*
X14199010Y-16824620D01*
X14379962Y-17015096D02*
X14360914Y-17024620D01*
X14360914Y-17024620D02*
X14322819Y-17024620D01*
X14322819Y-17024620D02*
X14303771Y-17015096D01*
X14303771Y-17015096D02*
X14294248Y-16996048D01*
X14294248Y-16996048D02*
X14294248Y-16919858D01*
X14294248Y-16919858D02*
X14303771Y-16900810D01*
X14303771Y-16900810D02*
X14322819Y-16891286D01*
X14322819Y-16891286D02*
X14360914Y-16891286D01*
X14360914Y-16891286D02*
X14379962Y-16900810D01*
X14379962Y-16900810D02*
X14389486Y-16919858D01*
X14389486Y-16919858D02*
X14389486Y-16938905D01*
X14389486Y-16938905D02*
X14294248Y-16957953D01*
X14465676Y-17015096D02*
X14484724Y-17024620D01*
X14484724Y-17024620D02*
X14522819Y-17024620D01*
X14522819Y-17024620D02*
X14541867Y-17015096D01*
X14541867Y-17015096D02*
X14551391Y-16996048D01*
X14551391Y-16996048D02*
X14551391Y-16986524D01*
X14551391Y-16986524D02*
X14541867Y-16967477D01*
X14541867Y-16967477D02*
X14522819Y-16957953D01*
X14522819Y-16957953D02*
X14494248Y-16957953D01*
X14494248Y-16957953D02*
X14475200Y-16948429D01*
X14475200Y-16948429D02*
X14465676Y-16929381D01*
X14465676Y-16929381D02*
X14465676Y-16919858D01*
X14465676Y-16919858D02*
X14475200Y-16900810D01*
X14475200Y-16900810D02*
X14494248Y-16891286D01*
X14494248Y-16891286D02*
X14522819Y-16891286D01*
X14522819Y-16891286D02*
X14541867Y-16900810D01*
X14618057Y-17100810D02*
X14627581Y-17091286D01*
X14627581Y-17091286D02*
X14646629Y-17062715D01*
X14646629Y-17062715D02*
X14656152Y-17043667D01*
X14656152Y-17043667D02*
X14665676Y-17015096D01*
X14665676Y-17015096D02*
X14675200Y-16967477D01*
X14675200Y-16967477D02*
X14675200Y-16929381D01*
X14675200Y-16929381D02*
X14665676Y-16881762D01*
X14665676Y-16881762D02*
X14656152Y-16853191D01*
X14656152Y-16853191D02*
X14646629Y-16834143D01*
X14646629Y-16834143D02*
X14627581Y-16805572D01*
X14627581Y-16805572D02*
X14618057Y-16796048D01*
D12*
X9797274Y-17242856D02*
X9842994Y-17197136D01*
X9797274Y-17151416D01*
X9751554Y-17197136D01*
X9797274Y-17242856D01*
D11*
X10141866Y-17088620D02*
X10160914Y-17088620D01*
X10160914Y-17088620D02*
X10179962Y-17098143D01*
X10179962Y-17098143D02*
X10189485Y-17107667D01*
X10189485Y-17107667D02*
X10199009Y-17126715D01*
X10199009Y-17126715D02*
X10208533Y-17164810D01*
X10208533Y-17164810D02*
X10208533Y-17212429D01*
X10208533Y-17212429D02*
X10199009Y-17250524D01*
X10199009Y-17250524D02*
X10189485Y-17269572D01*
X10189485Y-17269572D02*
X10179962Y-17279096D01*
X10179962Y-17279096D02*
X10160914Y-17288620D01*
X10160914Y-17288620D02*
X10141866Y-17288620D01*
X10141866Y-17288620D02*
X10122819Y-17279096D01*
X10122819Y-17279096D02*
X10113295Y-17269572D01*
X10113295Y-17269572D02*
X10103771Y-17250524D01*
X10103771Y-17250524D02*
X10094247Y-17212429D01*
X10094247Y-17212429D02*
X10094247Y-17164810D01*
X10094247Y-17164810D02*
X10103771Y-17126715D01*
X10103771Y-17126715D02*
X10113295Y-17107667D01*
X10113295Y-17107667D02*
X10122819Y-17098143D01*
X10122819Y-17098143D02*
X10141866Y-17088620D01*
X10294247Y-17269572D02*
X10303771Y-17279096D01*
X10303771Y-17279096D02*
X10294247Y-17288620D01*
X10294247Y-17288620D02*
X10284724Y-17279096D01*
X10284724Y-17279096D02*
X10294247Y-17269572D01*
X10294247Y-17269572D02*
X10294247Y-17288620D01*
X10399009Y-17288620D02*
X10437104Y-17288620D01*
X10437104Y-17288620D02*
X10456152Y-17279096D01*
X10456152Y-17279096D02*
X10465676Y-17269572D01*
X10465676Y-17269572D02*
X10484724Y-17241000D01*
X10484724Y-17241000D02*
X10494247Y-17202905D01*
X10494247Y-17202905D02*
X10494247Y-17126715D01*
X10494247Y-17126715D02*
X10484724Y-17107667D01*
X10484724Y-17107667D02*
X10475200Y-17098143D01*
X10475200Y-17098143D02*
X10456152Y-17088620D01*
X10456152Y-17088620D02*
X10418057Y-17088620D01*
X10418057Y-17088620D02*
X10399009Y-17098143D01*
X10399009Y-17098143D02*
X10389485Y-17107667D01*
X10389485Y-17107667D02*
X10379962Y-17126715D01*
X10379962Y-17126715D02*
X10379962Y-17174334D01*
X10379962Y-17174334D02*
X10389485Y-17193381D01*
X10389485Y-17193381D02*
X10399009Y-17202905D01*
X10399009Y-17202905D02*
X10418057Y-17212429D01*
X10418057Y-17212429D02*
X10456152Y-17212429D01*
X10456152Y-17212429D02*
X10475200Y-17202905D01*
X10475200Y-17202905D02*
X10484724Y-17193381D01*
X10484724Y-17193381D02*
X10494247Y-17174334D01*
X10684724Y-17288620D02*
X10570438Y-17288620D01*
X10627581Y-17288620D02*
X10627581Y-17088620D01*
X10627581Y-17088620D02*
X10608533Y-17117191D01*
X10608533Y-17117191D02*
X10589485Y-17136239D01*
X10589485Y-17136239D02*
X10570438Y-17145762D01*
X10856152Y-17155286D02*
X10856152Y-17288620D01*
X10808533Y-17079096D02*
X10760914Y-17221953D01*
X10760914Y-17221953D02*
X10884724Y-17221953D01*
X10960914Y-17288620D02*
X10960914Y-17155286D01*
X10960914Y-17174334D02*
X10970438Y-17164810D01*
X10970438Y-17164810D02*
X10989485Y-17155286D01*
X10989485Y-17155286D02*
X11018057Y-17155286D01*
X11018057Y-17155286D02*
X11037105Y-17164810D01*
X11037105Y-17164810D02*
X11046628Y-17183858D01*
X11046628Y-17183858D02*
X11046628Y-17288620D01*
X11046628Y-17183858D02*
X11056152Y-17164810D01*
X11056152Y-17164810D02*
X11075200Y-17155286D01*
X11075200Y-17155286D02*
X11103771Y-17155286D01*
X11103771Y-17155286D02*
X11122819Y-17164810D01*
X11122819Y-17164810D02*
X11132343Y-17183858D01*
X11132343Y-17183858D02*
X11132343Y-17288620D01*
X11227581Y-17288620D02*
X11227581Y-17155286D01*
X11227581Y-17174334D02*
X11237104Y-17164810D01*
X11237104Y-17164810D02*
X11256152Y-17155286D01*
X11256152Y-17155286D02*
X11284724Y-17155286D01*
X11284724Y-17155286D02*
X11303771Y-17164810D01*
X11303771Y-17164810D02*
X11313295Y-17183858D01*
X11313295Y-17183858D02*
X11313295Y-17288620D01*
X11313295Y-17183858D02*
X11322819Y-17164810D01*
X11322819Y-17164810D02*
X11341866Y-17155286D01*
X11341866Y-17155286D02*
X11370438Y-17155286D01*
X11370438Y-17155286D02*
X11389485Y-17164810D01*
X11389485Y-17164810D02*
X11399009Y-17183858D01*
X11399009Y-17183858D02*
X11399009Y-17288620D01*
X11789485Y-17079096D02*
X11618057Y-17336239D01*
X12046628Y-17088620D02*
X12065676Y-17088620D01*
X12065676Y-17088620D02*
X12084724Y-17098143D01*
X12084724Y-17098143D02*
X12094247Y-17107667D01*
X12094247Y-17107667D02*
X12103771Y-17126715D01*
X12103771Y-17126715D02*
X12113295Y-17164810D01*
X12113295Y-17164810D02*
X12113295Y-17212429D01*
X12113295Y-17212429D02*
X12103771Y-17250524D01*
X12103771Y-17250524D02*
X12094247Y-17269572D01*
X12094247Y-17269572D02*
X12084724Y-17279096D01*
X12084724Y-17279096D02*
X12065676Y-17288620D01*
X12065676Y-17288620D02*
X12046628Y-17288620D01*
X12046628Y-17288620D02*
X12027581Y-17279096D01*
X12027581Y-17279096D02*
X12018057Y-17269572D01*
X12018057Y-17269572D02*
X12008533Y-17250524D01*
X12008533Y-17250524D02*
X11999009Y-17212429D01*
X11999009Y-17212429D02*
X11999009Y-17164810D01*
X11999009Y-17164810D02*
X12008533Y-17126715D01*
X12008533Y-17126715D02*
X12018057Y-17107667D01*
X12018057Y-17107667D02*
X12027581Y-17098143D01*
X12027581Y-17098143D02*
X12046628Y-17088620D01*
X12199009Y-17269572D02*
X12208533Y-17279096D01*
X12208533Y-17279096D02*
X12199009Y-17288620D01*
X12199009Y-17288620D02*
X12189486Y-17279096D01*
X12189486Y-17279096D02*
X12199009Y-17269572D01*
X12199009Y-17269572D02*
X12199009Y-17288620D01*
X12332343Y-17088620D02*
X12351390Y-17088620D01*
X12351390Y-17088620D02*
X12370438Y-17098143D01*
X12370438Y-17098143D02*
X12379962Y-17107667D01*
X12379962Y-17107667D02*
X12389486Y-17126715D01*
X12389486Y-17126715D02*
X12399009Y-17164810D01*
X12399009Y-17164810D02*
X12399009Y-17212429D01*
X12399009Y-17212429D02*
X12389486Y-17250524D01*
X12389486Y-17250524D02*
X12379962Y-17269572D01*
X12379962Y-17269572D02*
X12370438Y-17279096D01*
X12370438Y-17279096D02*
X12351390Y-17288620D01*
X12351390Y-17288620D02*
X12332343Y-17288620D01*
X12332343Y-17288620D02*
X12313295Y-17279096D01*
X12313295Y-17279096D02*
X12303771Y-17269572D01*
X12303771Y-17269572D02*
X12294247Y-17250524D01*
X12294247Y-17250524D02*
X12284724Y-17212429D01*
X12284724Y-17212429D02*
X12284724Y-17164810D01*
X12284724Y-17164810D02*
X12294247Y-17126715D01*
X12294247Y-17126715D02*
X12303771Y-17107667D01*
X12303771Y-17107667D02*
X12313295Y-17098143D01*
X12313295Y-17098143D02*
X12332343Y-17088620D01*
X12465676Y-17088620D02*
X12589486Y-17088620D01*
X12589486Y-17088620D02*
X12522819Y-17164810D01*
X12522819Y-17164810D02*
X12551390Y-17164810D01*
X12551390Y-17164810D02*
X12570438Y-17174334D01*
X12570438Y-17174334D02*
X12579962Y-17183858D01*
X12579962Y-17183858D02*
X12589486Y-17202905D01*
X12589486Y-17202905D02*
X12589486Y-17250524D01*
X12589486Y-17250524D02*
X12579962Y-17269572D01*
X12579962Y-17269572D02*
X12570438Y-17279096D01*
X12570438Y-17279096D02*
X12551390Y-17288620D01*
X12551390Y-17288620D02*
X12494247Y-17288620D01*
X12494247Y-17288620D02*
X12475200Y-17279096D01*
X12475200Y-17279096D02*
X12465676Y-17269572D01*
X12760914Y-17088620D02*
X12722819Y-17088620D01*
X12722819Y-17088620D02*
X12703771Y-17098143D01*
X12703771Y-17098143D02*
X12694247Y-17107667D01*
X12694247Y-17107667D02*
X12675200Y-17136239D01*
X12675200Y-17136239D02*
X12665676Y-17174334D01*
X12665676Y-17174334D02*
X12665676Y-17250524D01*
X12665676Y-17250524D02*
X12675200Y-17269572D01*
X12675200Y-17269572D02*
X12684724Y-17279096D01*
X12684724Y-17279096D02*
X12703771Y-17288620D01*
X12703771Y-17288620D02*
X12741867Y-17288620D01*
X12741867Y-17288620D02*
X12760914Y-17279096D01*
X12760914Y-17279096D02*
X12770438Y-17269572D01*
X12770438Y-17269572D02*
X12779962Y-17250524D01*
X12779962Y-17250524D02*
X12779962Y-17202905D01*
X12779962Y-17202905D02*
X12770438Y-17183858D01*
X12770438Y-17183858D02*
X12760914Y-17174334D01*
X12760914Y-17174334D02*
X12741867Y-17164810D01*
X12741867Y-17164810D02*
X12703771Y-17164810D01*
X12703771Y-17164810D02*
X12684724Y-17174334D01*
X12684724Y-17174334D02*
X12675200Y-17183858D01*
X12675200Y-17183858D02*
X12665676Y-17202905D01*
X12903771Y-17088620D02*
X12922819Y-17088620D01*
X12922819Y-17088620D02*
X12941867Y-17098143D01*
X12941867Y-17098143D02*
X12951390Y-17107667D01*
X12951390Y-17107667D02*
X12960914Y-17126715D01*
X12960914Y-17126715D02*
X12970438Y-17164810D01*
X12970438Y-17164810D02*
X12970438Y-17212429D01*
X12970438Y-17212429D02*
X12960914Y-17250524D01*
X12960914Y-17250524D02*
X12951390Y-17269572D01*
X12951390Y-17269572D02*
X12941867Y-17279096D01*
X12941867Y-17279096D02*
X12922819Y-17288620D01*
X12922819Y-17288620D02*
X12903771Y-17288620D01*
X12903771Y-17288620D02*
X12884724Y-17279096D01*
X12884724Y-17279096D02*
X12875200Y-17269572D01*
X12875200Y-17269572D02*
X12865676Y-17250524D01*
X12865676Y-17250524D02*
X12856152Y-17212429D01*
X12856152Y-17212429D02*
X12856152Y-17164810D01*
X12856152Y-17164810D02*
X12865676Y-17126715D01*
X12865676Y-17126715D02*
X12875200Y-17107667D01*
X12875200Y-17107667D02*
X12884724Y-17098143D01*
X12884724Y-17098143D02*
X12903771Y-17088620D01*
X13046628Y-17088620D02*
X13046628Y-17126715D01*
X13122819Y-17088620D02*
X13122819Y-17126715D01*
X13418057Y-17364810D02*
X13408533Y-17355286D01*
X13408533Y-17355286D02*
X13389486Y-17326715D01*
X13389486Y-17326715D02*
X13379962Y-17307667D01*
X13379962Y-17307667D02*
X13370438Y-17279096D01*
X13370438Y-17279096D02*
X13360914Y-17231477D01*
X13360914Y-17231477D02*
X13360914Y-17193381D01*
X13360914Y-17193381D02*
X13370438Y-17145762D01*
X13370438Y-17145762D02*
X13379962Y-17117191D01*
X13379962Y-17117191D02*
X13389486Y-17098143D01*
X13389486Y-17098143D02*
X13408533Y-17069572D01*
X13408533Y-17069572D02*
X13418057Y-17060048D01*
X13579962Y-17155286D02*
X13579962Y-17288620D01*
X13532343Y-17079096D02*
X13484724Y-17221953D01*
X13484724Y-17221953D02*
X13608533Y-17221953D01*
X13837105Y-17288620D02*
X13837105Y-17088620D01*
X13922819Y-17288620D02*
X13922819Y-17183858D01*
X13922819Y-17183858D02*
X13913295Y-17164810D01*
X13913295Y-17164810D02*
X13894248Y-17155286D01*
X13894248Y-17155286D02*
X13865676Y-17155286D01*
X13865676Y-17155286D02*
X13846629Y-17164810D01*
X13846629Y-17164810D02*
X13837105Y-17174334D01*
X14046629Y-17288620D02*
X14027581Y-17279096D01*
X14027581Y-17279096D02*
X14018057Y-17269572D01*
X14018057Y-17269572D02*
X14008533Y-17250524D01*
X14008533Y-17250524D02*
X14008533Y-17193381D01*
X14008533Y-17193381D02*
X14018057Y-17174334D01*
X14018057Y-17174334D02*
X14027581Y-17164810D01*
X14027581Y-17164810D02*
X14046629Y-17155286D01*
X14046629Y-17155286D02*
X14075200Y-17155286D01*
X14075200Y-17155286D02*
X14094248Y-17164810D01*
X14094248Y-17164810D02*
X14103771Y-17174334D01*
X14103771Y-17174334D02*
X14113295Y-17193381D01*
X14113295Y-17193381D02*
X14113295Y-17250524D01*
X14113295Y-17250524D02*
X14103771Y-17269572D01*
X14103771Y-17269572D02*
X14094248Y-17279096D01*
X14094248Y-17279096D02*
X14075200Y-17288620D01*
X14075200Y-17288620D02*
X14046629Y-17288620D01*
X14227581Y-17288620D02*
X14208533Y-17279096D01*
X14208533Y-17279096D02*
X14199010Y-17260048D01*
X14199010Y-17260048D02*
X14199010Y-17088620D01*
X14379962Y-17279096D02*
X14360914Y-17288620D01*
X14360914Y-17288620D02*
X14322819Y-17288620D01*
X14322819Y-17288620D02*
X14303771Y-17279096D01*
X14303771Y-17279096D02*
X14294248Y-17260048D01*
X14294248Y-17260048D02*
X14294248Y-17183858D01*
X14294248Y-17183858D02*
X14303771Y-17164810D01*
X14303771Y-17164810D02*
X14322819Y-17155286D01*
X14322819Y-17155286D02*
X14360914Y-17155286D01*
X14360914Y-17155286D02*
X14379962Y-17164810D01*
X14379962Y-17164810D02*
X14389486Y-17183858D01*
X14389486Y-17183858D02*
X14389486Y-17202905D01*
X14389486Y-17202905D02*
X14294248Y-17221953D01*
X14465676Y-17279096D02*
X14484724Y-17288620D01*
X14484724Y-17288620D02*
X14522819Y-17288620D01*
X14522819Y-17288620D02*
X14541867Y-17279096D01*
X14541867Y-17279096D02*
X14551391Y-17260048D01*
X14551391Y-17260048D02*
X14551391Y-17250524D01*
X14551391Y-17250524D02*
X14541867Y-17231477D01*
X14541867Y-17231477D02*
X14522819Y-17221953D01*
X14522819Y-17221953D02*
X14494248Y-17221953D01*
X14494248Y-17221953D02*
X14475200Y-17212429D01*
X14475200Y-17212429D02*
X14465676Y-17193381D01*
X14465676Y-17193381D02*
X14465676Y-17183858D01*
X14465676Y-17183858D02*
X14475200Y-17164810D01*
X14475200Y-17164810D02*
X14494248Y-17155286D01*
X14494248Y-17155286D02*
X14522819Y-17155286D01*
X14522819Y-17155286D02*
X14541867Y-17164810D01*
X14618057Y-17364810D02*
X14627581Y-17355286D01*
X14627581Y-17355286D02*
X14646629Y-17326715D01*
X14646629Y-17326715D02*
X14656152Y-17307667D01*
X14656152Y-17307667D02*
X14665676Y-17279096D01*
X14665676Y-17279096D02*
X14675200Y-17231477D01*
X14675200Y-17231477D02*
X14675200Y-17193381D01*
X14675200Y-17193381D02*
X14665676Y-17145762D01*
X14665676Y-17145762D02*
X14656152Y-17117191D01*
X14656152Y-17117191D02*
X14646629Y-17098143D01*
X14646629Y-17098143D02*
X14627581Y-17069572D01*
X14627581Y-17069572D02*
X14618057Y-17060048D01*
D12*
X9742994Y-17411136D02*
X9842994Y-17511136D01*
X9842994Y-17411136D02*
X9742994Y-17511136D01*
X9842994Y-17461136D02*
G75*
G02*
X9742994Y-17461136I-50000J0D01*
G01*
X9742994Y-17461136D02*
G75*
G02*
X9842994Y-17461136I50000J0D01*
G01*
D11*
X10208533Y-17552620D02*
X10094247Y-17552620D01*
X10151390Y-17552620D02*
X10151390Y-17352620D01*
X10151390Y-17352620D02*
X10132343Y-17381191D01*
X10132343Y-17381191D02*
X10113295Y-17400239D01*
X10113295Y-17400239D02*
X10094247Y-17409762D01*
X10294247Y-17533572D02*
X10303771Y-17543096D01*
X10303771Y-17543096D02*
X10294247Y-17552620D01*
X10294247Y-17552620D02*
X10284724Y-17543096D01*
X10284724Y-17543096D02*
X10294247Y-17533572D01*
X10294247Y-17533572D02*
X10294247Y-17552620D01*
X10427581Y-17352620D02*
X10446628Y-17352620D01*
X10446628Y-17352620D02*
X10465676Y-17362143D01*
X10465676Y-17362143D02*
X10475200Y-17371667D01*
X10475200Y-17371667D02*
X10484724Y-17390715D01*
X10484724Y-17390715D02*
X10494247Y-17428810D01*
X10494247Y-17428810D02*
X10494247Y-17476429D01*
X10494247Y-17476429D02*
X10484724Y-17514524D01*
X10484724Y-17514524D02*
X10475200Y-17533572D01*
X10475200Y-17533572D02*
X10465676Y-17543096D01*
X10465676Y-17543096D02*
X10446628Y-17552620D01*
X10446628Y-17552620D02*
X10427581Y-17552620D01*
X10427581Y-17552620D02*
X10408533Y-17543096D01*
X10408533Y-17543096D02*
X10399009Y-17533572D01*
X10399009Y-17533572D02*
X10389485Y-17514524D01*
X10389485Y-17514524D02*
X10379962Y-17476429D01*
X10379962Y-17476429D02*
X10379962Y-17428810D01*
X10379962Y-17428810D02*
X10389485Y-17390715D01*
X10389485Y-17390715D02*
X10399009Y-17371667D01*
X10399009Y-17371667D02*
X10408533Y-17362143D01*
X10408533Y-17362143D02*
X10427581Y-17352620D01*
X10618057Y-17352620D02*
X10637105Y-17352620D01*
X10637105Y-17352620D02*
X10656152Y-17362143D01*
X10656152Y-17362143D02*
X10665676Y-17371667D01*
X10665676Y-17371667D02*
X10675200Y-17390715D01*
X10675200Y-17390715D02*
X10684724Y-17428810D01*
X10684724Y-17428810D02*
X10684724Y-17476429D01*
X10684724Y-17476429D02*
X10675200Y-17514524D01*
X10675200Y-17514524D02*
X10665676Y-17533572D01*
X10665676Y-17533572D02*
X10656152Y-17543096D01*
X10656152Y-17543096D02*
X10637105Y-17552620D01*
X10637105Y-17552620D02*
X10618057Y-17552620D01*
X10618057Y-17552620D02*
X10599009Y-17543096D01*
X10599009Y-17543096D02*
X10589485Y-17533572D01*
X10589485Y-17533572D02*
X10579962Y-17514524D01*
X10579962Y-17514524D02*
X10570438Y-17476429D01*
X10570438Y-17476429D02*
X10570438Y-17428810D01*
X10570438Y-17428810D02*
X10579962Y-17390715D01*
X10579962Y-17390715D02*
X10589485Y-17371667D01*
X10589485Y-17371667D02*
X10599009Y-17362143D01*
X10599009Y-17362143D02*
X10618057Y-17352620D01*
X10808533Y-17352620D02*
X10827581Y-17352620D01*
X10827581Y-17352620D02*
X10846628Y-17362143D01*
X10846628Y-17362143D02*
X10856152Y-17371667D01*
X10856152Y-17371667D02*
X10865676Y-17390715D01*
X10865676Y-17390715D02*
X10875200Y-17428810D01*
X10875200Y-17428810D02*
X10875200Y-17476429D01*
X10875200Y-17476429D02*
X10865676Y-17514524D01*
X10865676Y-17514524D02*
X10856152Y-17533572D01*
X10856152Y-17533572D02*
X10846628Y-17543096D01*
X10846628Y-17543096D02*
X10827581Y-17552620D01*
X10827581Y-17552620D02*
X10808533Y-17552620D01*
X10808533Y-17552620D02*
X10789485Y-17543096D01*
X10789485Y-17543096D02*
X10779962Y-17533572D01*
X10779962Y-17533572D02*
X10770438Y-17514524D01*
X10770438Y-17514524D02*
X10760914Y-17476429D01*
X10760914Y-17476429D02*
X10760914Y-17428810D01*
X10760914Y-17428810D02*
X10770438Y-17390715D01*
X10770438Y-17390715D02*
X10779962Y-17371667D01*
X10779962Y-17371667D02*
X10789485Y-17362143D01*
X10789485Y-17362143D02*
X10808533Y-17352620D01*
X10960914Y-17552620D02*
X10960914Y-17419286D01*
X10960914Y-17438334D02*
X10970438Y-17428810D01*
X10970438Y-17428810D02*
X10989485Y-17419286D01*
X10989485Y-17419286D02*
X11018057Y-17419286D01*
X11018057Y-17419286D02*
X11037105Y-17428810D01*
X11037105Y-17428810D02*
X11046628Y-17447858D01*
X11046628Y-17447858D02*
X11046628Y-17552620D01*
X11046628Y-17447858D02*
X11056152Y-17428810D01*
X11056152Y-17428810D02*
X11075200Y-17419286D01*
X11075200Y-17419286D02*
X11103771Y-17419286D01*
X11103771Y-17419286D02*
X11122819Y-17428810D01*
X11122819Y-17428810D02*
X11132343Y-17447858D01*
X11132343Y-17447858D02*
X11132343Y-17552620D01*
X11227581Y-17552620D02*
X11227581Y-17419286D01*
X11227581Y-17438334D02*
X11237104Y-17428810D01*
X11237104Y-17428810D02*
X11256152Y-17419286D01*
X11256152Y-17419286D02*
X11284724Y-17419286D01*
X11284724Y-17419286D02*
X11303771Y-17428810D01*
X11303771Y-17428810D02*
X11313295Y-17447858D01*
X11313295Y-17447858D02*
X11313295Y-17552620D01*
X11313295Y-17447858D02*
X11322819Y-17428810D01*
X11322819Y-17428810D02*
X11341866Y-17419286D01*
X11341866Y-17419286D02*
X11370438Y-17419286D01*
X11370438Y-17419286D02*
X11389485Y-17428810D01*
X11389485Y-17428810D02*
X11399009Y-17447858D01*
X11399009Y-17447858D02*
X11399009Y-17552620D01*
X11789485Y-17343096D02*
X11618057Y-17600239D01*
X12046628Y-17352620D02*
X12065676Y-17352620D01*
X12065676Y-17352620D02*
X12084724Y-17362143D01*
X12084724Y-17362143D02*
X12094247Y-17371667D01*
X12094247Y-17371667D02*
X12103771Y-17390715D01*
X12103771Y-17390715D02*
X12113295Y-17428810D01*
X12113295Y-17428810D02*
X12113295Y-17476429D01*
X12113295Y-17476429D02*
X12103771Y-17514524D01*
X12103771Y-17514524D02*
X12094247Y-17533572D01*
X12094247Y-17533572D02*
X12084724Y-17543096D01*
X12084724Y-17543096D02*
X12065676Y-17552620D01*
X12065676Y-17552620D02*
X12046628Y-17552620D01*
X12046628Y-17552620D02*
X12027581Y-17543096D01*
X12027581Y-17543096D02*
X12018057Y-17533572D01*
X12018057Y-17533572D02*
X12008533Y-17514524D01*
X12008533Y-17514524D02*
X11999009Y-17476429D01*
X11999009Y-17476429D02*
X11999009Y-17428810D01*
X11999009Y-17428810D02*
X12008533Y-17390715D01*
X12008533Y-17390715D02*
X12018057Y-17371667D01*
X12018057Y-17371667D02*
X12027581Y-17362143D01*
X12027581Y-17362143D02*
X12046628Y-17352620D01*
X12199009Y-17533572D02*
X12208533Y-17543096D01*
X12208533Y-17543096D02*
X12199009Y-17552620D01*
X12199009Y-17552620D02*
X12189486Y-17543096D01*
X12189486Y-17543096D02*
X12199009Y-17533572D01*
X12199009Y-17533572D02*
X12199009Y-17552620D01*
X12332343Y-17352620D02*
X12351390Y-17352620D01*
X12351390Y-17352620D02*
X12370438Y-17362143D01*
X12370438Y-17362143D02*
X12379962Y-17371667D01*
X12379962Y-17371667D02*
X12389486Y-17390715D01*
X12389486Y-17390715D02*
X12399009Y-17428810D01*
X12399009Y-17428810D02*
X12399009Y-17476429D01*
X12399009Y-17476429D02*
X12389486Y-17514524D01*
X12389486Y-17514524D02*
X12379962Y-17533572D01*
X12379962Y-17533572D02*
X12370438Y-17543096D01*
X12370438Y-17543096D02*
X12351390Y-17552620D01*
X12351390Y-17552620D02*
X12332343Y-17552620D01*
X12332343Y-17552620D02*
X12313295Y-17543096D01*
X12313295Y-17543096D02*
X12303771Y-17533572D01*
X12303771Y-17533572D02*
X12294247Y-17514524D01*
X12294247Y-17514524D02*
X12284724Y-17476429D01*
X12284724Y-17476429D02*
X12284724Y-17428810D01*
X12284724Y-17428810D02*
X12294247Y-17390715D01*
X12294247Y-17390715D02*
X12303771Y-17371667D01*
X12303771Y-17371667D02*
X12313295Y-17362143D01*
X12313295Y-17362143D02*
X12332343Y-17352620D01*
X12465676Y-17352620D02*
X12589486Y-17352620D01*
X12589486Y-17352620D02*
X12522819Y-17428810D01*
X12522819Y-17428810D02*
X12551390Y-17428810D01*
X12551390Y-17428810D02*
X12570438Y-17438334D01*
X12570438Y-17438334D02*
X12579962Y-17447858D01*
X12579962Y-17447858D02*
X12589486Y-17466905D01*
X12589486Y-17466905D02*
X12589486Y-17514524D01*
X12589486Y-17514524D02*
X12579962Y-17533572D01*
X12579962Y-17533572D02*
X12570438Y-17543096D01*
X12570438Y-17543096D02*
X12551390Y-17552620D01*
X12551390Y-17552620D02*
X12494247Y-17552620D01*
X12494247Y-17552620D02*
X12475200Y-17543096D01*
X12475200Y-17543096D02*
X12465676Y-17533572D01*
X12684724Y-17552620D02*
X12722819Y-17552620D01*
X12722819Y-17552620D02*
X12741867Y-17543096D01*
X12741867Y-17543096D02*
X12751390Y-17533572D01*
X12751390Y-17533572D02*
X12770438Y-17505000D01*
X12770438Y-17505000D02*
X12779962Y-17466905D01*
X12779962Y-17466905D02*
X12779962Y-17390715D01*
X12779962Y-17390715D02*
X12770438Y-17371667D01*
X12770438Y-17371667D02*
X12760914Y-17362143D01*
X12760914Y-17362143D02*
X12741867Y-17352620D01*
X12741867Y-17352620D02*
X12703771Y-17352620D01*
X12703771Y-17352620D02*
X12684724Y-17362143D01*
X12684724Y-17362143D02*
X12675200Y-17371667D01*
X12675200Y-17371667D02*
X12665676Y-17390715D01*
X12665676Y-17390715D02*
X12665676Y-17438334D01*
X12665676Y-17438334D02*
X12675200Y-17457381D01*
X12675200Y-17457381D02*
X12684724Y-17466905D01*
X12684724Y-17466905D02*
X12703771Y-17476429D01*
X12703771Y-17476429D02*
X12741867Y-17476429D01*
X12741867Y-17476429D02*
X12760914Y-17466905D01*
X12760914Y-17466905D02*
X12770438Y-17457381D01*
X12770438Y-17457381D02*
X12779962Y-17438334D01*
X12951390Y-17419286D02*
X12951390Y-17552620D01*
X12903771Y-17343096D02*
X12856152Y-17485953D01*
X12856152Y-17485953D02*
X12979962Y-17485953D01*
X13046628Y-17352620D02*
X13046628Y-17390715D01*
X13122819Y-17352620D02*
X13122819Y-17390715D01*
X13418057Y-17628810D02*
X13408533Y-17619286D01*
X13408533Y-17619286D02*
X13389486Y-17590715D01*
X13389486Y-17590715D02*
X13379962Y-17571667D01*
X13379962Y-17571667D02*
X13370438Y-17543096D01*
X13370438Y-17543096D02*
X13360914Y-17495477D01*
X13360914Y-17495477D02*
X13360914Y-17457381D01*
X13360914Y-17457381D02*
X13370438Y-17409762D01*
X13370438Y-17409762D02*
X13379962Y-17381191D01*
X13379962Y-17381191D02*
X13389486Y-17362143D01*
X13389486Y-17362143D02*
X13408533Y-17333572D01*
X13408533Y-17333572D02*
X13418057Y-17324048D01*
X13475200Y-17352620D02*
X13599009Y-17352620D01*
X13599009Y-17352620D02*
X13532343Y-17428810D01*
X13532343Y-17428810D02*
X13560914Y-17428810D01*
X13560914Y-17428810D02*
X13579962Y-17438334D01*
X13579962Y-17438334D02*
X13589486Y-17447858D01*
X13589486Y-17447858D02*
X13599009Y-17466905D01*
X13599009Y-17466905D02*
X13599009Y-17514524D01*
X13599009Y-17514524D02*
X13589486Y-17533572D01*
X13589486Y-17533572D02*
X13579962Y-17543096D01*
X13579962Y-17543096D02*
X13560914Y-17552620D01*
X13560914Y-17552620D02*
X13503771Y-17552620D01*
X13503771Y-17552620D02*
X13484724Y-17543096D01*
X13484724Y-17543096D02*
X13475200Y-17533572D01*
X13837105Y-17552620D02*
X13837105Y-17352620D01*
X13922819Y-17552620D02*
X13922819Y-17447858D01*
X13922819Y-17447858D02*
X13913295Y-17428810D01*
X13913295Y-17428810D02*
X13894248Y-17419286D01*
X13894248Y-17419286D02*
X13865676Y-17419286D01*
X13865676Y-17419286D02*
X13846629Y-17428810D01*
X13846629Y-17428810D02*
X13837105Y-17438334D01*
X14046629Y-17552620D02*
X14027581Y-17543096D01*
X14027581Y-17543096D02*
X14018057Y-17533572D01*
X14018057Y-17533572D02*
X14008533Y-17514524D01*
X14008533Y-17514524D02*
X14008533Y-17457381D01*
X14008533Y-17457381D02*
X14018057Y-17438334D01*
X14018057Y-17438334D02*
X14027581Y-17428810D01*
X14027581Y-17428810D02*
X14046629Y-17419286D01*
X14046629Y-17419286D02*
X14075200Y-17419286D01*
X14075200Y-17419286D02*
X14094248Y-17428810D01*
X14094248Y-17428810D02*
X14103771Y-17438334D01*
X14103771Y-17438334D02*
X14113295Y-17457381D01*
X14113295Y-17457381D02*
X14113295Y-17514524D01*
X14113295Y-17514524D02*
X14103771Y-17533572D01*
X14103771Y-17533572D02*
X14094248Y-17543096D01*
X14094248Y-17543096D02*
X14075200Y-17552620D01*
X14075200Y-17552620D02*
X14046629Y-17552620D01*
X14227581Y-17552620D02*
X14208533Y-17543096D01*
X14208533Y-17543096D02*
X14199010Y-17524048D01*
X14199010Y-17524048D02*
X14199010Y-17352620D01*
X14379962Y-17543096D02*
X14360914Y-17552620D01*
X14360914Y-17552620D02*
X14322819Y-17552620D01*
X14322819Y-17552620D02*
X14303771Y-17543096D01*
X14303771Y-17543096D02*
X14294248Y-17524048D01*
X14294248Y-17524048D02*
X14294248Y-17447858D01*
X14294248Y-17447858D02*
X14303771Y-17428810D01*
X14303771Y-17428810D02*
X14322819Y-17419286D01*
X14322819Y-17419286D02*
X14360914Y-17419286D01*
X14360914Y-17419286D02*
X14379962Y-17428810D01*
X14379962Y-17428810D02*
X14389486Y-17447858D01*
X14389486Y-17447858D02*
X14389486Y-17466905D01*
X14389486Y-17466905D02*
X14294248Y-17485953D01*
X14465676Y-17543096D02*
X14484724Y-17552620D01*
X14484724Y-17552620D02*
X14522819Y-17552620D01*
X14522819Y-17552620D02*
X14541867Y-17543096D01*
X14541867Y-17543096D02*
X14551391Y-17524048D01*
X14551391Y-17524048D02*
X14551391Y-17514524D01*
X14551391Y-17514524D02*
X14541867Y-17495477D01*
X14541867Y-17495477D02*
X14522819Y-17485953D01*
X14522819Y-17485953D02*
X14494248Y-17485953D01*
X14494248Y-17485953D02*
X14475200Y-17476429D01*
X14475200Y-17476429D02*
X14465676Y-17457381D01*
X14465676Y-17457381D02*
X14465676Y-17447858D01*
X14465676Y-17447858D02*
X14475200Y-17428810D01*
X14475200Y-17428810D02*
X14494248Y-17419286D01*
X14494248Y-17419286D02*
X14522819Y-17419286D01*
X14522819Y-17419286D02*
X14541867Y-17428810D01*
X14618057Y-17628810D02*
X14627581Y-17619286D01*
X14627581Y-17619286D02*
X14646629Y-17590715D01*
X14646629Y-17590715D02*
X14656152Y-17571667D01*
X14656152Y-17571667D02*
X14665676Y-17543096D01*
X14665676Y-17543096D02*
X14675200Y-17495477D01*
X14675200Y-17495477D02*
X14675200Y-17457381D01*
X14675200Y-17457381D02*
X14665676Y-17409762D01*
X14665676Y-17409762D02*
X14656152Y-17381191D01*
X14656152Y-17381191D02*
X14646629Y-17362143D01*
X14646629Y-17362143D02*
X14627581Y-17333572D01*
X14627581Y-17333572D02*
X14618057Y-17324048D01*
D13*
X9741394Y-17674336D02*
X9842994Y-17775936D01*
X9842994Y-17674336D02*
X9741394Y-17775936D01*
X9792194Y-17674336D02*
X9792194Y-17775936D01*
X9741394Y-17725136D02*
X9842994Y-17725136D01*
D11*
X10208533Y-17816620D02*
X10094247Y-17816620D01*
X10151390Y-17816620D02*
X10151390Y-17616620D01*
X10151390Y-17616620D02*
X10132343Y-17645191D01*
X10132343Y-17645191D02*
X10113295Y-17664239D01*
X10113295Y-17664239D02*
X10094247Y-17673762D01*
X10294247Y-17797572D02*
X10303771Y-17807096D01*
X10303771Y-17807096D02*
X10294247Y-17816620D01*
X10294247Y-17816620D02*
X10284724Y-17807096D01*
X10284724Y-17807096D02*
X10294247Y-17797572D01*
X10294247Y-17797572D02*
X10294247Y-17816620D01*
X10427581Y-17616620D02*
X10446628Y-17616620D01*
X10446628Y-17616620D02*
X10465676Y-17626143D01*
X10465676Y-17626143D02*
X10475200Y-17635667D01*
X10475200Y-17635667D02*
X10484724Y-17654715D01*
X10484724Y-17654715D02*
X10494247Y-17692810D01*
X10494247Y-17692810D02*
X10494247Y-17740429D01*
X10494247Y-17740429D02*
X10484724Y-17778524D01*
X10484724Y-17778524D02*
X10475200Y-17797572D01*
X10475200Y-17797572D02*
X10465676Y-17807096D01*
X10465676Y-17807096D02*
X10446628Y-17816620D01*
X10446628Y-17816620D02*
X10427581Y-17816620D01*
X10427581Y-17816620D02*
X10408533Y-17807096D01*
X10408533Y-17807096D02*
X10399009Y-17797572D01*
X10399009Y-17797572D02*
X10389485Y-17778524D01*
X10389485Y-17778524D02*
X10379962Y-17740429D01*
X10379962Y-17740429D02*
X10379962Y-17692810D01*
X10379962Y-17692810D02*
X10389485Y-17654715D01*
X10389485Y-17654715D02*
X10399009Y-17635667D01*
X10399009Y-17635667D02*
X10408533Y-17626143D01*
X10408533Y-17626143D02*
X10427581Y-17616620D01*
X10684724Y-17816620D02*
X10570438Y-17816620D01*
X10627581Y-17816620D02*
X10627581Y-17616620D01*
X10627581Y-17616620D02*
X10608533Y-17645191D01*
X10608533Y-17645191D02*
X10589485Y-17664239D01*
X10589485Y-17664239D02*
X10570438Y-17673762D01*
X10856152Y-17616620D02*
X10818057Y-17616620D01*
X10818057Y-17616620D02*
X10799009Y-17626143D01*
X10799009Y-17626143D02*
X10789485Y-17635667D01*
X10789485Y-17635667D02*
X10770438Y-17664239D01*
X10770438Y-17664239D02*
X10760914Y-17702334D01*
X10760914Y-17702334D02*
X10760914Y-17778524D01*
X10760914Y-17778524D02*
X10770438Y-17797572D01*
X10770438Y-17797572D02*
X10779962Y-17807096D01*
X10779962Y-17807096D02*
X10799009Y-17816620D01*
X10799009Y-17816620D02*
X10837105Y-17816620D01*
X10837105Y-17816620D02*
X10856152Y-17807096D01*
X10856152Y-17807096D02*
X10865676Y-17797572D01*
X10865676Y-17797572D02*
X10875200Y-17778524D01*
X10875200Y-17778524D02*
X10875200Y-17730905D01*
X10875200Y-17730905D02*
X10865676Y-17711858D01*
X10865676Y-17711858D02*
X10856152Y-17702334D01*
X10856152Y-17702334D02*
X10837105Y-17692810D01*
X10837105Y-17692810D02*
X10799009Y-17692810D01*
X10799009Y-17692810D02*
X10779962Y-17702334D01*
X10779962Y-17702334D02*
X10770438Y-17711858D01*
X10770438Y-17711858D02*
X10760914Y-17730905D01*
X10960914Y-17816620D02*
X10960914Y-17683286D01*
X10960914Y-17702334D02*
X10970438Y-17692810D01*
X10970438Y-17692810D02*
X10989485Y-17683286D01*
X10989485Y-17683286D02*
X11018057Y-17683286D01*
X11018057Y-17683286D02*
X11037105Y-17692810D01*
X11037105Y-17692810D02*
X11046628Y-17711858D01*
X11046628Y-17711858D02*
X11046628Y-17816620D01*
X11046628Y-17711858D02*
X11056152Y-17692810D01*
X11056152Y-17692810D02*
X11075200Y-17683286D01*
X11075200Y-17683286D02*
X11103771Y-17683286D01*
X11103771Y-17683286D02*
X11122819Y-17692810D01*
X11122819Y-17692810D02*
X11132343Y-17711858D01*
X11132343Y-17711858D02*
X11132343Y-17816620D01*
X11227581Y-17816620D02*
X11227581Y-17683286D01*
X11227581Y-17702334D02*
X11237104Y-17692810D01*
X11237104Y-17692810D02*
X11256152Y-17683286D01*
X11256152Y-17683286D02*
X11284724Y-17683286D01*
X11284724Y-17683286D02*
X11303771Y-17692810D01*
X11303771Y-17692810D02*
X11313295Y-17711858D01*
X11313295Y-17711858D02*
X11313295Y-17816620D01*
X11313295Y-17711858D02*
X11322819Y-17692810D01*
X11322819Y-17692810D02*
X11341866Y-17683286D01*
X11341866Y-17683286D02*
X11370438Y-17683286D01*
X11370438Y-17683286D02*
X11389485Y-17692810D01*
X11389485Y-17692810D02*
X11399009Y-17711858D01*
X11399009Y-17711858D02*
X11399009Y-17816620D01*
X11789485Y-17607096D02*
X11618057Y-17864239D01*
X12046628Y-17616620D02*
X12065676Y-17616620D01*
X12065676Y-17616620D02*
X12084724Y-17626143D01*
X12084724Y-17626143D02*
X12094247Y-17635667D01*
X12094247Y-17635667D02*
X12103771Y-17654715D01*
X12103771Y-17654715D02*
X12113295Y-17692810D01*
X12113295Y-17692810D02*
X12113295Y-17740429D01*
X12113295Y-17740429D02*
X12103771Y-17778524D01*
X12103771Y-17778524D02*
X12094247Y-17797572D01*
X12094247Y-17797572D02*
X12084724Y-17807096D01*
X12084724Y-17807096D02*
X12065676Y-17816620D01*
X12065676Y-17816620D02*
X12046628Y-17816620D01*
X12046628Y-17816620D02*
X12027581Y-17807096D01*
X12027581Y-17807096D02*
X12018057Y-17797572D01*
X12018057Y-17797572D02*
X12008533Y-17778524D01*
X12008533Y-17778524D02*
X11999009Y-17740429D01*
X11999009Y-17740429D02*
X11999009Y-17692810D01*
X11999009Y-17692810D02*
X12008533Y-17654715D01*
X12008533Y-17654715D02*
X12018057Y-17635667D01*
X12018057Y-17635667D02*
X12027581Y-17626143D01*
X12027581Y-17626143D02*
X12046628Y-17616620D01*
X12199009Y-17797572D02*
X12208533Y-17807096D01*
X12208533Y-17807096D02*
X12199009Y-17816620D01*
X12199009Y-17816620D02*
X12189486Y-17807096D01*
X12189486Y-17807096D02*
X12199009Y-17797572D01*
X12199009Y-17797572D02*
X12199009Y-17816620D01*
X12332343Y-17616620D02*
X12351390Y-17616620D01*
X12351390Y-17616620D02*
X12370438Y-17626143D01*
X12370438Y-17626143D02*
X12379962Y-17635667D01*
X12379962Y-17635667D02*
X12389486Y-17654715D01*
X12389486Y-17654715D02*
X12399009Y-17692810D01*
X12399009Y-17692810D02*
X12399009Y-17740429D01*
X12399009Y-17740429D02*
X12389486Y-17778524D01*
X12389486Y-17778524D02*
X12379962Y-17797572D01*
X12379962Y-17797572D02*
X12370438Y-17807096D01*
X12370438Y-17807096D02*
X12351390Y-17816620D01*
X12351390Y-17816620D02*
X12332343Y-17816620D01*
X12332343Y-17816620D02*
X12313295Y-17807096D01*
X12313295Y-17807096D02*
X12303771Y-17797572D01*
X12303771Y-17797572D02*
X12294247Y-17778524D01*
X12294247Y-17778524D02*
X12284724Y-17740429D01*
X12284724Y-17740429D02*
X12284724Y-17692810D01*
X12284724Y-17692810D02*
X12294247Y-17654715D01*
X12294247Y-17654715D02*
X12303771Y-17635667D01*
X12303771Y-17635667D02*
X12313295Y-17626143D01*
X12313295Y-17626143D02*
X12332343Y-17616620D01*
X12570438Y-17683286D02*
X12570438Y-17816620D01*
X12522819Y-17607096D02*
X12475200Y-17749953D01*
X12475200Y-17749953D02*
X12599009Y-17749953D01*
X12713295Y-17616620D02*
X12732343Y-17616620D01*
X12732343Y-17616620D02*
X12751390Y-17626143D01*
X12751390Y-17626143D02*
X12760914Y-17635667D01*
X12760914Y-17635667D02*
X12770438Y-17654715D01*
X12770438Y-17654715D02*
X12779962Y-17692810D01*
X12779962Y-17692810D02*
X12779962Y-17740429D01*
X12779962Y-17740429D02*
X12770438Y-17778524D01*
X12770438Y-17778524D02*
X12760914Y-17797572D01*
X12760914Y-17797572D02*
X12751390Y-17807096D01*
X12751390Y-17807096D02*
X12732343Y-17816620D01*
X12732343Y-17816620D02*
X12713295Y-17816620D01*
X12713295Y-17816620D02*
X12694247Y-17807096D01*
X12694247Y-17807096D02*
X12684724Y-17797572D01*
X12684724Y-17797572D02*
X12675200Y-17778524D01*
X12675200Y-17778524D02*
X12665676Y-17740429D01*
X12665676Y-17740429D02*
X12665676Y-17692810D01*
X12665676Y-17692810D02*
X12675200Y-17654715D01*
X12675200Y-17654715D02*
X12684724Y-17635667D01*
X12684724Y-17635667D02*
X12694247Y-17626143D01*
X12694247Y-17626143D02*
X12713295Y-17616620D01*
X12903771Y-17616620D02*
X12922819Y-17616620D01*
X12922819Y-17616620D02*
X12941867Y-17626143D01*
X12941867Y-17626143D02*
X12951390Y-17635667D01*
X12951390Y-17635667D02*
X12960914Y-17654715D01*
X12960914Y-17654715D02*
X12970438Y-17692810D01*
X12970438Y-17692810D02*
X12970438Y-17740429D01*
X12970438Y-17740429D02*
X12960914Y-17778524D01*
X12960914Y-17778524D02*
X12951390Y-17797572D01*
X12951390Y-17797572D02*
X12941867Y-17807096D01*
X12941867Y-17807096D02*
X12922819Y-17816620D01*
X12922819Y-17816620D02*
X12903771Y-17816620D01*
X12903771Y-17816620D02*
X12884724Y-17807096D01*
X12884724Y-17807096D02*
X12875200Y-17797572D01*
X12875200Y-17797572D02*
X12865676Y-17778524D01*
X12865676Y-17778524D02*
X12856152Y-17740429D01*
X12856152Y-17740429D02*
X12856152Y-17692810D01*
X12856152Y-17692810D02*
X12865676Y-17654715D01*
X12865676Y-17654715D02*
X12875200Y-17635667D01*
X12875200Y-17635667D02*
X12884724Y-17626143D01*
X12884724Y-17626143D02*
X12903771Y-17616620D01*
X13046628Y-17616620D02*
X13046628Y-17654715D01*
X13122819Y-17616620D02*
X13122819Y-17654715D01*
X13418057Y-17892810D02*
X13408533Y-17883286D01*
X13408533Y-17883286D02*
X13389486Y-17854715D01*
X13389486Y-17854715D02*
X13379962Y-17835667D01*
X13379962Y-17835667D02*
X13370438Y-17807096D01*
X13370438Y-17807096D02*
X13360914Y-17759477D01*
X13360914Y-17759477D02*
X13360914Y-17721381D01*
X13360914Y-17721381D02*
X13370438Y-17673762D01*
X13370438Y-17673762D02*
X13379962Y-17645191D01*
X13379962Y-17645191D02*
X13389486Y-17626143D01*
X13389486Y-17626143D02*
X13408533Y-17597572D01*
X13408533Y-17597572D02*
X13418057Y-17588048D01*
X13484724Y-17635667D02*
X13494248Y-17626143D01*
X13494248Y-17626143D02*
X13513295Y-17616620D01*
X13513295Y-17616620D02*
X13560914Y-17616620D01*
X13560914Y-17616620D02*
X13579962Y-17626143D01*
X13579962Y-17626143D02*
X13589486Y-17635667D01*
X13589486Y-17635667D02*
X13599009Y-17654715D01*
X13599009Y-17654715D02*
X13599009Y-17673762D01*
X13599009Y-17673762D02*
X13589486Y-17702334D01*
X13589486Y-17702334D02*
X13475200Y-17816620D01*
X13475200Y-17816620D02*
X13599009Y-17816620D01*
X13837105Y-17816620D02*
X13837105Y-17616620D01*
X13922819Y-17816620D02*
X13922819Y-17711858D01*
X13922819Y-17711858D02*
X13913295Y-17692810D01*
X13913295Y-17692810D02*
X13894248Y-17683286D01*
X13894248Y-17683286D02*
X13865676Y-17683286D01*
X13865676Y-17683286D02*
X13846629Y-17692810D01*
X13846629Y-17692810D02*
X13837105Y-17702334D01*
X14046629Y-17816620D02*
X14027581Y-17807096D01*
X14027581Y-17807096D02*
X14018057Y-17797572D01*
X14018057Y-17797572D02*
X14008533Y-17778524D01*
X14008533Y-17778524D02*
X14008533Y-17721381D01*
X14008533Y-17721381D02*
X14018057Y-17702334D01*
X14018057Y-17702334D02*
X14027581Y-17692810D01*
X14027581Y-17692810D02*
X14046629Y-17683286D01*
X14046629Y-17683286D02*
X14075200Y-17683286D01*
X14075200Y-17683286D02*
X14094248Y-17692810D01*
X14094248Y-17692810D02*
X14103771Y-17702334D01*
X14103771Y-17702334D02*
X14113295Y-17721381D01*
X14113295Y-17721381D02*
X14113295Y-17778524D01*
X14113295Y-17778524D02*
X14103771Y-17797572D01*
X14103771Y-17797572D02*
X14094248Y-17807096D01*
X14094248Y-17807096D02*
X14075200Y-17816620D01*
X14075200Y-17816620D02*
X14046629Y-17816620D01*
X14227581Y-17816620D02*
X14208533Y-17807096D01*
X14208533Y-17807096D02*
X14199010Y-17788048D01*
X14199010Y-17788048D02*
X14199010Y-17616620D01*
X14379962Y-17807096D02*
X14360914Y-17816620D01*
X14360914Y-17816620D02*
X14322819Y-17816620D01*
X14322819Y-17816620D02*
X14303771Y-17807096D01*
X14303771Y-17807096D02*
X14294248Y-17788048D01*
X14294248Y-17788048D02*
X14294248Y-17711858D01*
X14294248Y-17711858D02*
X14303771Y-17692810D01*
X14303771Y-17692810D02*
X14322819Y-17683286D01*
X14322819Y-17683286D02*
X14360914Y-17683286D01*
X14360914Y-17683286D02*
X14379962Y-17692810D01*
X14379962Y-17692810D02*
X14389486Y-17711858D01*
X14389486Y-17711858D02*
X14389486Y-17730905D01*
X14389486Y-17730905D02*
X14294248Y-17749953D01*
X14465676Y-17807096D02*
X14484724Y-17816620D01*
X14484724Y-17816620D02*
X14522819Y-17816620D01*
X14522819Y-17816620D02*
X14541867Y-17807096D01*
X14541867Y-17807096D02*
X14551391Y-17788048D01*
X14551391Y-17788048D02*
X14551391Y-17778524D01*
X14551391Y-17778524D02*
X14541867Y-17759477D01*
X14541867Y-17759477D02*
X14522819Y-17749953D01*
X14522819Y-17749953D02*
X14494248Y-17749953D01*
X14494248Y-17749953D02*
X14475200Y-17740429D01*
X14475200Y-17740429D02*
X14465676Y-17721381D01*
X14465676Y-17721381D02*
X14465676Y-17711858D01*
X14465676Y-17711858D02*
X14475200Y-17692810D01*
X14475200Y-17692810D02*
X14494248Y-17683286D01*
X14494248Y-17683286D02*
X14522819Y-17683286D01*
X14522819Y-17683286D02*
X14541867Y-17692810D01*
X14618057Y-17892810D02*
X14627581Y-17883286D01*
X14627581Y-17883286D02*
X14646629Y-17854715D01*
X14646629Y-17854715D02*
X14656152Y-17835667D01*
X14656152Y-17835667D02*
X14665676Y-17807096D01*
X14665676Y-17807096D02*
X14675200Y-17759477D01*
X14675200Y-17759477D02*
X14675200Y-17721381D01*
X14675200Y-17721381D02*
X14665676Y-17673762D01*
X14665676Y-17673762D02*
X14656152Y-17645191D01*
X14656152Y-17645191D02*
X14646629Y-17626143D01*
X14646629Y-17626143D02*
X14627581Y-17597572D01*
X14627581Y-17597572D02*
X14618057Y-17588048D01*
D14*
X9732994Y-17934136D02*
X9842994Y-18044136D01*
X9842994Y-17934136D02*
X9732994Y-18044136D01*
X9826886Y-18028027D02*
X9826886Y-17950245D01*
X9749103Y-17950245D01*
X9749103Y-18028027D01*
X9826886Y-18028027D01*
D11*
X10208533Y-18080620D02*
X10094247Y-18080620D01*
X10151390Y-18080620D02*
X10151390Y-17880620D01*
X10151390Y-17880620D02*
X10132343Y-17909191D01*
X10132343Y-17909191D02*
X10113295Y-17928239D01*
X10113295Y-17928239D02*
X10094247Y-17937762D01*
X10294247Y-18061572D02*
X10303771Y-18071096D01*
X10303771Y-18071096D02*
X10294247Y-18080620D01*
X10294247Y-18080620D02*
X10284724Y-18071096D01*
X10284724Y-18071096D02*
X10294247Y-18061572D01*
X10294247Y-18061572D02*
X10294247Y-18080620D01*
X10494247Y-18080620D02*
X10379962Y-18080620D01*
X10437104Y-18080620D02*
X10437104Y-17880620D01*
X10437104Y-17880620D02*
X10418057Y-17909191D01*
X10418057Y-17909191D02*
X10399009Y-17928239D01*
X10399009Y-17928239D02*
X10379962Y-17937762D01*
X10618057Y-17880620D02*
X10637105Y-17880620D01*
X10637105Y-17880620D02*
X10656152Y-17890143D01*
X10656152Y-17890143D02*
X10665676Y-17899667D01*
X10665676Y-17899667D02*
X10675200Y-17918715D01*
X10675200Y-17918715D02*
X10684724Y-17956810D01*
X10684724Y-17956810D02*
X10684724Y-18004429D01*
X10684724Y-18004429D02*
X10675200Y-18042524D01*
X10675200Y-18042524D02*
X10665676Y-18061572D01*
X10665676Y-18061572D02*
X10656152Y-18071096D01*
X10656152Y-18071096D02*
X10637105Y-18080620D01*
X10637105Y-18080620D02*
X10618057Y-18080620D01*
X10618057Y-18080620D02*
X10599009Y-18071096D01*
X10599009Y-18071096D02*
X10589485Y-18061572D01*
X10589485Y-18061572D02*
X10579962Y-18042524D01*
X10579962Y-18042524D02*
X10570438Y-18004429D01*
X10570438Y-18004429D02*
X10570438Y-17956810D01*
X10570438Y-17956810D02*
X10579962Y-17918715D01*
X10579962Y-17918715D02*
X10589485Y-17899667D01*
X10589485Y-17899667D02*
X10599009Y-17890143D01*
X10599009Y-17890143D02*
X10618057Y-17880620D01*
X10808533Y-17880620D02*
X10827581Y-17880620D01*
X10827581Y-17880620D02*
X10846628Y-17890143D01*
X10846628Y-17890143D02*
X10856152Y-17899667D01*
X10856152Y-17899667D02*
X10865676Y-17918715D01*
X10865676Y-17918715D02*
X10875200Y-17956810D01*
X10875200Y-17956810D02*
X10875200Y-18004429D01*
X10875200Y-18004429D02*
X10865676Y-18042524D01*
X10865676Y-18042524D02*
X10856152Y-18061572D01*
X10856152Y-18061572D02*
X10846628Y-18071096D01*
X10846628Y-18071096D02*
X10827581Y-18080620D01*
X10827581Y-18080620D02*
X10808533Y-18080620D01*
X10808533Y-18080620D02*
X10789485Y-18071096D01*
X10789485Y-18071096D02*
X10779962Y-18061572D01*
X10779962Y-18061572D02*
X10770438Y-18042524D01*
X10770438Y-18042524D02*
X10760914Y-18004429D01*
X10760914Y-18004429D02*
X10760914Y-17956810D01*
X10760914Y-17956810D02*
X10770438Y-17918715D01*
X10770438Y-17918715D02*
X10779962Y-17899667D01*
X10779962Y-17899667D02*
X10789485Y-17890143D01*
X10789485Y-17890143D02*
X10808533Y-17880620D01*
X10960914Y-18080620D02*
X10960914Y-17947286D01*
X10960914Y-17966334D02*
X10970438Y-17956810D01*
X10970438Y-17956810D02*
X10989485Y-17947286D01*
X10989485Y-17947286D02*
X11018057Y-17947286D01*
X11018057Y-17947286D02*
X11037105Y-17956810D01*
X11037105Y-17956810D02*
X11046628Y-17975858D01*
X11046628Y-17975858D02*
X11046628Y-18080620D01*
X11046628Y-17975858D02*
X11056152Y-17956810D01*
X11056152Y-17956810D02*
X11075200Y-17947286D01*
X11075200Y-17947286D02*
X11103771Y-17947286D01*
X11103771Y-17947286D02*
X11122819Y-17956810D01*
X11122819Y-17956810D02*
X11132343Y-17975858D01*
X11132343Y-17975858D02*
X11132343Y-18080620D01*
X11227581Y-18080620D02*
X11227581Y-17947286D01*
X11227581Y-17966334D02*
X11237104Y-17956810D01*
X11237104Y-17956810D02*
X11256152Y-17947286D01*
X11256152Y-17947286D02*
X11284724Y-17947286D01*
X11284724Y-17947286D02*
X11303771Y-17956810D01*
X11303771Y-17956810D02*
X11313295Y-17975858D01*
X11313295Y-17975858D02*
X11313295Y-18080620D01*
X11313295Y-17975858D02*
X11322819Y-17956810D01*
X11322819Y-17956810D02*
X11341866Y-17947286D01*
X11341866Y-17947286D02*
X11370438Y-17947286D01*
X11370438Y-17947286D02*
X11389485Y-17956810D01*
X11389485Y-17956810D02*
X11399009Y-17975858D01*
X11399009Y-17975858D02*
X11399009Y-18080620D01*
X11789485Y-17871096D02*
X11618057Y-18128239D01*
X12046628Y-17880620D02*
X12065676Y-17880620D01*
X12065676Y-17880620D02*
X12084724Y-17890143D01*
X12084724Y-17890143D02*
X12094247Y-17899667D01*
X12094247Y-17899667D02*
X12103771Y-17918715D01*
X12103771Y-17918715D02*
X12113295Y-17956810D01*
X12113295Y-17956810D02*
X12113295Y-18004429D01*
X12113295Y-18004429D02*
X12103771Y-18042524D01*
X12103771Y-18042524D02*
X12094247Y-18061572D01*
X12094247Y-18061572D02*
X12084724Y-18071096D01*
X12084724Y-18071096D02*
X12065676Y-18080620D01*
X12065676Y-18080620D02*
X12046628Y-18080620D01*
X12046628Y-18080620D02*
X12027581Y-18071096D01*
X12027581Y-18071096D02*
X12018057Y-18061572D01*
X12018057Y-18061572D02*
X12008533Y-18042524D01*
X12008533Y-18042524D02*
X11999009Y-18004429D01*
X11999009Y-18004429D02*
X11999009Y-17956810D01*
X11999009Y-17956810D02*
X12008533Y-17918715D01*
X12008533Y-17918715D02*
X12018057Y-17899667D01*
X12018057Y-17899667D02*
X12027581Y-17890143D01*
X12027581Y-17890143D02*
X12046628Y-17880620D01*
X12199009Y-18061572D02*
X12208533Y-18071096D01*
X12208533Y-18071096D02*
X12199009Y-18080620D01*
X12199009Y-18080620D02*
X12189486Y-18071096D01*
X12189486Y-18071096D02*
X12199009Y-18061572D01*
X12199009Y-18061572D02*
X12199009Y-18080620D01*
X12332343Y-17880620D02*
X12351390Y-17880620D01*
X12351390Y-17880620D02*
X12370438Y-17890143D01*
X12370438Y-17890143D02*
X12379962Y-17899667D01*
X12379962Y-17899667D02*
X12389486Y-17918715D01*
X12389486Y-17918715D02*
X12399009Y-17956810D01*
X12399009Y-17956810D02*
X12399009Y-18004429D01*
X12399009Y-18004429D02*
X12389486Y-18042524D01*
X12389486Y-18042524D02*
X12379962Y-18061572D01*
X12379962Y-18061572D02*
X12370438Y-18071096D01*
X12370438Y-18071096D02*
X12351390Y-18080620D01*
X12351390Y-18080620D02*
X12332343Y-18080620D01*
X12332343Y-18080620D02*
X12313295Y-18071096D01*
X12313295Y-18071096D02*
X12303771Y-18061572D01*
X12303771Y-18061572D02*
X12294247Y-18042524D01*
X12294247Y-18042524D02*
X12284724Y-18004429D01*
X12284724Y-18004429D02*
X12284724Y-17956810D01*
X12284724Y-17956810D02*
X12294247Y-17918715D01*
X12294247Y-17918715D02*
X12303771Y-17899667D01*
X12303771Y-17899667D02*
X12313295Y-17890143D01*
X12313295Y-17890143D02*
X12332343Y-17880620D01*
X12570438Y-17947286D02*
X12570438Y-18080620D01*
X12522819Y-17871096D02*
X12475200Y-18013953D01*
X12475200Y-18013953D02*
X12599009Y-18013953D01*
X12656152Y-17880620D02*
X12779962Y-17880620D01*
X12779962Y-17880620D02*
X12713295Y-17956810D01*
X12713295Y-17956810D02*
X12741867Y-17956810D01*
X12741867Y-17956810D02*
X12760914Y-17966334D01*
X12760914Y-17966334D02*
X12770438Y-17975858D01*
X12770438Y-17975858D02*
X12779962Y-17994905D01*
X12779962Y-17994905D02*
X12779962Y-18042524D01*
X12779962Y-18042524D02*
X12770438Y-18061572D01*
X12770438Y-18061572D02*
X12760914Y-18071096D01*
X12760914Y-18071096D02*
X12741867Y-18080620D01*
X12741867Y-18080620D02*
X12684724Y-18080620D01*
X12684724Y-18080620D02*
X12665676Y-18071096D01*
X12665676Y-18071096D02*
X12656152Y-18061572D01*
X12846628Y-17880620D02*
X12970438Y-17880620D01*
X12970438Y-17880620D02*
X12903771Y-17956810D01*
X12903771Y-17956810D02*
X12932343Y-17956810D01*
X12932343Y-17956810D02*
X12951390Y-17966334D01*
X12951390Y-17966334D02*
X12960914Y-17975858D01*
X12960914Y-17975858D02*
X12970438Y-17994905D01*
X12970438Y-17994905D02*
X12970438Y-18042524D01*
X12970438Y-18042524D02*
X12960914Y-18061572D01*
X12960914Y-18061572D02*
X12951390Y-18071096D01*
X12951390Y-18071096D02*
X12932343Y-18080620D01*
X12932343Y-18080620D02*
X12875200Y-18080620D01*
X12875200Y-18080620D02*
X12856152Y-18071096D01*
X12856152Y-18071096D02*
X12846628Y-18061572D01*
X13046628Y-17880620D02*
X13046628Y-17918715D01*
X13122819Y-17880620D02*
X13122819Y-17918715D01*
X13418057Y-18156810D02*
X13408533Y-18147286D01*
X13408533Y-18147286D02*
X13389486Y-18118715D01*
X13389486Y-18118715D02*
X13379962Y-18099667D01*
X13379962Y-18099667D02*
X13370438Y-18071096D01*
X13370438Y-18071096D02*
X13360914Y-18023477D01*
X13360914Y-18023477D02*
X13360914Y-17985381D01*
X13360914Y-17985381D02*
X13370438Y-17937762D01*
X13370438Y-17937762D02*
X13379962Y-17909191D01*
X13379962Y-17909191D02*
X13389486Y-17890143D01*
X13389486Y-17890143D02*
X13408533Y-17861572D01*
X13408533Y-17861572D02*
X13418057Y-17852048D01*
X13599009Y-18080620D02*
X13484724Y-18080620D01*
X13541867Y-18080620D02*
X13541867Y-17880620D01*
X13541867Y-17880620D02*
X13522819Y-17909191D01*
X13522819Y-17909191D02*
X13503771Y-17928239D01*
X13503771Y-17928239D02*
X13484724Y-17937762D01*
X13770438Y-17880620D02*
X13732343Y-17880620D01*
X13732343Y-17880620D02*
X13713295Y-17890143D01*
X13713295Y-17890143D02*
X13703771Y-17899667D01*
X13703771Y-17899667D02*
X13684724Y-17928239D01*
X13684724Y-17928239D02*
X13675200Y-17966334D01*
X13675200Y-17966334D02*
X13675200Y-18042524D01*
X13675200Y-18042524D02*
X13684724Y-18061572D01*
X13684724Y-18061572D02*
X13694248Y-18071096D01*
X13694248Y-18071096D02*
X13713295Y-18080620D01*
X13713295Y-18080620D02*
X13751390Y-18080620D01*
X13751390Y-18080620D02*
X13770438Y-18071096D01*
X13770438Y-18071096D02*
X13779962Y-18061572D01*
X13779962Y-18061572D02*
X13789486Y-18042524D01*
X13789486Y-18042524D02*
X13789486Y-17994905D01*
X13789486Y-17994905D02*
X13779962Y-17975858D01*
X13779962Y-17975858D02*
X13770438Y-17966334D01*
X13770438Y-17966334D02*
X13751390Y-17956810D01*
X13751390Y-17956810D02*
X13713295Y-17956810D01*
X13713295Y-17956810D02*
X13694248Y-17966334D01*
X13694248Y-17966334D02*
X13684724Y-17975858D01*
X13684724Y-17975858D02*
X13675200Y-17994905D01*
X14027581Y-18080620D02*
X14027581Y-17880620D01*
X14113295Y-18080620D02*
X14113295Y-17975858D01*
X14113295Y-17975858D02*
X14103771Y-17956810D01*
X14103771Y-17956810D02*
X14084724Y-17947286D01*
X14084724Y-17947286D02*
X14056152Y-17947286D01*
X14056152Y-17947286D02*
X14037105Y-17956810D01*
X14037105Y-17956810D02*
X14027581Y-17966334D01*
X14237105Y-18080620D02*
X14218057Y-18071096D01*
X14218057Y-18071096D02*
X14208533Y-18061572D01*
X14208533Y-18061572D02*
X14199010Y-18042524D01*
X14199010Y-18042524D02*
X14199010Y-17985381D01*
X14199010Y-17985381D02*
X14208533Y-17966334D01*
X14208533Y-17966334D02*
X14218057Y-17956810D01*
X14218057Y-17956810D02*
X14237105Y-17947286D01*
X14237105Y-17947286D02*
X14265676Y-17947286D01*
X14265676Y-17947286D02*
X14284724Y-17956810D01*
X14284724Y-17956810D02*
X14294248Y-17966334D01*
X14294248Y-17966334D02*
X14303771Y-17985381D01*
X14303771Y-17985381D02*
X14303771Y-18042524D01*
X14303771Y-18042524D02*
X14294248Y-18061572D01*
X14294248Y-18061572D02*
X14284724Y-18071096D01*
X14284724Y-18071096D02*
X14265676Y-18080620D01*
X14265676Y-18080620D02*
X14237105Y-18080620D01*
X14418057Y-18080620D02*
X14399010Y-18071096D01*
X14399010Y-18071096D02*
X14389486Y-18052048D01*
X14389486Y-18052048D02*
X14389486Y-17880620D01*
X14570438Y-18071096D02*
X14551391Y-18080620D01*
X14551391Y-18080620D02*
X14513295Y-18080620D01*
X14513295Y-18080620D02*
X14494248Y-18071096D01*
X14494248Y-18071096D02*
X14484724Y-18052048D01*
X14484724Y-18052048D02*
X14484724Y-17975858D01*
X14484724Y-17975858D02*
X14494248Y-17956810D01*
X14494248Y-17956810D02*
X14513295Y-17947286D01*
X14513295Y-17947286D02*
X14551391Y-17947286D01*
X14551391Y-17947286D02*
X14570438Y-17956810D01*
X14570438Y-17956810D02*
X14579962Y-17975858D01*
X14579962Y-17975858D02*
X14579962Y-17994905D01*
X14579962Y-17994905D02*
X14484724Y-18013953D01*
X14656152Y-18071096D02*
X14675200Y-18080620D01*
X14675200Y-18080620D02*
X14713295Y-18080620D01*
X14713295Y-18080620D02*
X14732343Y-18071096D01*
X14732343Y-18071096D02*
X14741867Y-18052048D01*
X14741867Y-18052048D02*
X14741867Y-18042524D01*
X14741867Y-18042524D02*
X14732343Y-18023477D01*
X14732343Y-18023477D02*
X14713295Y-18013953D01*
X14713295Y-18013953D02*
X14684724Y-18013953D01*
X14684724Y-18013953D02*
X14665676Y-18004429D01*
X14665676Y-18004429D02*
X14656152Y-17985381D01*
X14656152Y-17985381D02*
X14656152Y-17975858D01*
X14656152Y-17975858D02*
X14665676Y-17956810D01*
X14665676Y-17956810D02*
X14684724Y-17947286D01*
X14684724Y-17947286D02*
X14713295Y-17947286D01*
X14713295Y-17947286D02*
X14732343Y-17956810D01*
X14808533Y-18156810D02*
X14818057Y-18147286D01*
X14818057Y-18147286D02*
X14837105Y-18118715D01*
X14837105Y-18118715D02*
X14846629Y-18099667D01*
X14846629Y-18099667D02*
X14856152Y-18071096D01*
X14856152Y-18071096D02*
X14865676Y-18023477D01*
X14865676Y-18023477D02*
X14865676Y-17985381D01*
X14865676Y-17985381D02*
X14856152Y-17937762D01*
X14856152Y-17937762D02*
X14846629Y-17909191D01*
X14846629Y-17909191D02*
X14837105Y-17890143D01*
X14837105Y-17890143D02*
X14818057Y-17861572D01*
X14818057Y-17861572D02*
X14808533Y-17852048D01*
D15*
X9715994Y-18189636D02*
X9842994Y-18316636D01*
X9842994Y-18189636D02*
X9715994Y-18316636D01*
X9779494Y-18316636D02*
X9842994Y-18253136D01*
X9779494Y-18189636D01*
X9715994Y-18253136D01*
X9779494Y-18316636D01*
D11*
X10208533Y-18344620D02*
X10094247Y-18344620D01*
X10151390Y-18344620D02*
X10151390Y-18144620D01*
X10151390Y-18144620D02*
X10132343Y-18173191D01*
X10132343Y-18173191D02*
X10113295Y-18192239D01*
X10113295Y-18192239D02*
X10094247Y-18201762D01*
X10294247Y-18325572D02*
X10303771Y-18335096D01*
X10303771Y-18335096D02*
X10294247Y-18344620D01*
X10294247Y-18344620D02*
X10284724Y-18335096D01*
X10284724Y-18335096D02*
X10294247Y-18325572D01*
X10294247Y-18325572D02*
X10294247Y-18344620D01*
X10379962Y-18163667D02*
X10389485Y-18154143D01*
X10389485Y-18154143D02*
X10408533Y-18144620D01*
X10408533Y-18144620D02*
X10456152Y-18144620D01*
X10456152Y-18144620D02*
X10475200Y-18154143D01*
X10475200Y-18154143D02*
X10484724Y-18163667D01*
X10484724Y-18163667D02*
X10494247Y-18182715D01*
X10494247Y-18182715D02*
X10494247Y-18201762D01*
X10494247Y-18201762D02*
X10484724Y-18230334D01*
X10484724Y-18230334D02*
X10370438Y-18344620D01*
X10370438Y-18344620D02*
X10494247Y-18344620D01*
X10560914Y-18144620D02*
X10694247Y-18144620D01*
X10694247Y-18144620D02*
X10608533Y-18344620D01*
X10808533Y-18144620D02*
X10827581Y-18144620D01*
X10827581Y-18144620D02*
X10846628Y-18154143D01*
X10846628Y-18154143D02*
X10856152Y-18163667D01*
X10856152Y-18163667D02*
X10865676Y-18182715D01*
X10865676Y-18182715D02*
X10875200Y-18220810D01*
X10875200Y-18220810D02*
X10875200Y-18268429D01*
X10875200Y-18268429D02*
X10865676Y-18306524D01*
X10865676Y-18306524D02*
X10856152Y-18325572D01*
X10856152Y-18325572D02*
X10846628Y-18335096D01*
X10846628Y-18335096D02*
X10827581Y-18344620D01*
X10827581Y-18344620D02*
X10808533Y-18344620D01*
X10808533Y-18344620D02*
X10789485Y-18335096D01*
X10789485Y-18335096D02*
X10779962Y-18325572D01*
X10779962Y-18325572D02*
X10770438Y-18306524D01*
X10770438Y-18306524D02*
X10760914Y-18268429D01*
X10760914Y-18268429D02*
X10760914Y-18220810D01*
X10760914Y-18220810D02*
X10770438Y-18182715D01*
X10770438Y-18182715D02*
X10779962Y-18163667D01*
X10779962Y-18163667D02*
X10789485Y-18154143D01*
X10789485Y-18154143D02*
X10808533Y-18144620D01*
X10960914Y-18344620D02*
X10960914Y-18211286D01*
X10960914Y-18230334D02*
X10970438Y-18220810D01*
X10970438Y-18220810D02*
X10989485Y-18211286D01*
X10989485Y-18211286D02*
X11018057Y-18211286D01*
X11018057Y-18211286D02*
X11037105Y-18220810D01*
X11037105Y-18220810D02*
X11046628Y-18239858D01*
X11046628Y-18239858D02*
X11046628Y-18344620D01*
X11046628Y-18239858D02*
X11056152Y-18220810D01*
X11056152Y-18220810D02*
X11075200Y-18211286D01*
X11075200Y-18211286D02*
X11103771Y-18211286D01*
X11103771Y-18211286D02*
X11122819Y-18220810D01*
X11122819Y-18220810D02*
X11132343Y-18239858D01*
X11132343Y-18239858D02*
X11132343Y-18344620D01*
X11227581Y-18344620D02*
X11227581Y-18211286D01*
X11227581Y-18230334D02*
X11237104Y-18220810D01*
X11237104Y-18220810D02*
X11256152Y-18211286D01*
X11256152Y-18211286D02*
X11284724Y-18211286D01*
X11284724Y-18211286D02*
X11303771Y-18220810D01*
X11303771Y-18220810D02*
X11313295Y-18239858D01*
X11313295Y-18239858D02*
X11313295Y-18344620D01*
X11313295Y-18239858D02*
X11322819Y-18220810D01*
X11322819Y-18220810D02*
X11341866Y-18211286D01*
X11341866Y-18211286D02*
X11370438Y-18211286D01*
X11370438Y-18211286D02*
X11389485Y-18220810D01*
X11389485Y-18220810D02*
X11399009Y-18239858D01*
X11399009Y-18239858D02*
X11399009Y-18344620D01*
X11789485Y-18135096D02*
X11618057Y-18392239D01*
X12046628Y-18144620D02*
X12065676Y-18144620D01*
X12065676Y-18144620D02*
X12084724Y-18154143D01*
X12084724Y-18154143D02*
X12094247Y-18163667D01*
X12094247Y-18163667D02*
X12103771Y-18182715D01*
X12103771Y-18182715D02*
X12113295Y-18220810D01*
X12113295Y-18220810D02*
X12113295Y-18268429D01*
X12113295Y-18268429D02*
X12103771Y-18306524D01*
X12103771Y-18306524D02*
X12094247Y-18325572D01*
X12094247Y-18325572D02*
X12084724Y-18335096D01*
X12084724Y-18335096D02*
X12065676Y-18344620D01*
X12065676Y-18344620D02*
X12046628Y-18344620D01*
X12046628Y-18344620D02*
X12027581Y-18335096D01*
X12027581Y-18335096D02*
X12018057Y-18325572D01*
X12018057Y-18325572D02*
X12008533Y-18306524D01*
X12008533Y-18306524D02*
X11999009Y-18268429D01*
X11999009Y-18268429D02*
X11999009Y-18220810D01*
X11999009Y-18220810D02*
X12008533Y-18182715D01*
X12008533Y-18182715D02*
X12018057Y-18163667D01*
X12018057Y-18163667D02*
X12027581Y-18154143D01*
X12027581Y-18154143D02*
X12046628Y-18144620D01*
X12199009Y-18325572D02*
X12208533Y-18335096D01*
X12208533Y-18335096D02*
X12199009Y-18344620D01*
X12199009Y-18344620D02*
X12189486Y-18335096D01*
X12189486Y-18335096D02*
X12199009Y-18325572D01*
X12199009Y-18325572D02*
X12199009Y-18344620D01*
X12332343Y-18144620D02*
X12351390Y-18144620D01*
X12351390Y-18144620D02*
X12370438Y-18154143D01*
X12370438Y-18154143D02*
X12379962Y-18163667D01*
X12379962Y-18163667D02*
X12389486Y-18182715D01*
X12389486Y-18182715D02*
X12399009Y-18220810D01*
X12399009Y-18220810D02*
X12399009Y-18268429D01*
X12399009Y-18268429D02*
X12389486Y-18306524D01*
X12389486Y-18306524D02*
X12379962Y-18325572D01*
X12379962Y-18325572D02*
X12370438Y-18335096D01*
X12370438Y-18335096D02*
X12351390Y-18344620D01*
X12351390Y-18344620D02*
X12332343Y-18344620D01*
X12332343Y-18344620D02*
X12313295Y-18335096D01*
X12313295Y-18335096D02*
X12303771Y-18325572D01*
X12303771Y-18325572D02*
X12294247Y-18306524D01*
X12294247Y-18306524D02*
X12284724Y-18268429D01*
X12284724Y-18268429D02*
X12284724Y-18220810D01*
X12284724Y-18220810D02*
X12294247Y-18182715D01*
X12294247Y-18182715D02*
X12303771Y-18163667D01*
X12303771Y-18163667D02*
X12313295Y-18154143D01*
X12313295Y-18154143D02*
X12332343Y-18144620D01*
X12579962Y-18144620D02*
X12484724Y-18144620D01*
X12484724Y-18144620D02*
X12475200Y-18239858D01*
X12475200Y-18239858D02*
X12484724Y-18230334D01*
X12484724Y-18230334D02*
X12503771Y-18220810D01*
X12503771Y-18220810D02*
X12551390Y-18220810D01*
X12551390Y-18220810D02*
X12570438Y-18230334D01*
X12570438Y-18230334D02*
X12579962Y-18239858D01*
X12579962Y-18239858D02*
X12589486Y-18258905D01*
X12589486Y-18258905D02*
X12589486Y-18306524D01*
X12589486Y-18306524D02*
X12579962Y-18325572D01*
X12579962Y-18325572D02*
X12570438Y-18335096D01*
X12570438Y-18335096D02*
X12551390Y-18344620D01*
X12551390Y-18344620D02*
X12503771Y-18344620D01*
X12503771Y-18344620D02*
X12484724Y-18335096D01*
X12484724Y-18335096D02*
X12475200Y-18325572D01*
X12713295Y-18144620D02*
X12732343Y-18144620D01*
X12732343Y-18144620D02*
X12751390Y-18154143D01*
X12751390Y-18154143D02*
X12760914Y-18163667D01*
X12760914Y-18163667D02*
X12770438Y-18182715D01*
X12770438Y-18182715D02*
X12779962Y-18220810D01*
X12779962Y-18220810D02*
X12779962Y-18268429D01*
X12779962Y-18268429D02*
X12770438Y-18306524D01*
X12770438Y-18306524D02*
X12760914Y-18325572D01*
X12760914Y-18325572D02*
X12751390Y-18335096D01*
X12751390Y-18335096D02*
X12732343Y-18344620D01*
X12732343Y-18344620D02*
X12713295Y-18344620D01*
X12713295Y-18344620D02*
X12694247Y-18335096D01*
X12694247Y-18335096D02*
X12684724Y-18325572D01*
X12684724Y-18325572D02*
X12675200Y-18306524D01*
X12675200Y-18306524D02*
X12665676Y-18268429D01*
X12665676Y-18268429D02*
X12665676Y-18220810D01*
X12665676Y-18220810D02*
X12675200Y-18182715D01*
X12675200Y-18182715D02*
X12684724Y-18163667D01*
X12684724Y-18163667D02*
X12694247Y-18154143D01*
X12694247Y-18154143D02*
X12713295Y-18144620D01*
X12903771Y-18144620D02*
X12922819Y-18144620D01*
X12922819Y-18144620D02*
X12941867Y-18154143D01*
X12941867Y-18154143D02*
X12951390Y-18163667D01*
X12951390Y-18163667D02*
X12960914Y-18182715D01*
X12960914Y-18182715D02*
X12970438Y-18220810D01*
X12970438Y-18220810D02*
X12970438Y-18268429D01*
X12970438Y-18268429D02*
X12960914Y-18306524D01*
X12960914Y-18306524D02*
X12951390Y-18325572D01*
X12951390Y-18325572D02*
X12941867Y-18335096D01*
X12941867Y-18335096D02*
X12922819Y-18344620D01*
X12922819Y-18344620D02*
X12903771Y-18344620D01*
X12903771Y-18344620D02*
X12884724Y-18335096D01*
X12884724Y-18335096D02*
X12875200Y-18325572D01*
X12875200Y-18325572D02*
X12865676Y-18306524D01*
X12865676Y-18306524D02*
X12856152Y-18268429D01*
X12856152Y-18268429D02*
X12856152Y-18220810D01*
X12856152Y-18220810D02*
X12865676Y-18182715D01*
X12865676Y-18182715D02*
X12875200Y-18163667D01*
X12875200Y-18163667D02*
X12884724Y-18154143D01*
X12884724Y-18154143D02*
X12903771Y-18144620D01*
X13046628Y-18144620D02*
X13046628Y-18182715D01*
X13122819Y-18144620D02*
X13122819Y-18182715D01*
X13418057Y-18420810D02*
X13408533Y-18411286D01*
X13408533Y-18411286D02*
X13389486Y-18382715D01*
X13389486Y-18382715D02*
X13379962Y-18363667D01*
X13379962Y-18363667D02*
X13370438Y-18335096D01*
X13370438Y-18335096D02*
X13360914Y-18287477D01*
X13360914Y-18287477D02*
X13360914Y-18249381D01*
X13360914Y-18249381D02*
X13370438Y-18201762D01*
X13370438Y-18201762D02*
X13379962Y-18173191D01*
X13379962Y-18173191D02*
X13389486Y-18154143D01*
X13389486Y-18154143D02*
X13408533Y-18125572D01*
X13408533Y-18125572D02*
X13418057Y-18116048D01*
X13532343Y-18144620D02*
X13551390Y-18144620D01*
X13551390Y-18144620D02*
X13570438Y-18154143D01*
X13570438Y-18154143D02*
X13579962Y-18163667D01*
X13579962Y-18163667D02*
X13589486Y-18182715D01*
X13589486Y-18182715D02*
X13599009Y-18220810D01*
X13599009Y-18220810D02*
X13599009Y-18268429D01*
X13599009Y-18268429D02*
X13589486Y-18306524D01*
X13589486Y-18306524D02*
X13579962Y-18325572D01*
X13579962Y-18325572D02*
X13570438Y-18335096D01*
X13570438Y-18335096D02*
X13551390Y-18344620D01*
X13551390Y-18344620D02*
X13532343Y-18344620D01*
X13532343Y-18344620D02*
X13513295Y-18335096D01*
X13513295Y-18335096D02*
X13503771Y-18325572D01*
X13503771Y-18325572D02*
X13494248Y-18306524D01*
X13494248Y-18306524D02*
X13484724Y-18268429D01*
X13484724Y-18268429D02*
X13484724Y-18220810D01*
X13484724Y-18220810D02*
X13494248Y-18182715D01*
X13494248Y-18182715D02*
X13503771Y-18163667D01*
X13503771Y-18163667D02*
X13513295Y-18154143D01*
X13513295Y-18154143D02*
X13532343Y-18144620D01*
X13837105Y-18344620D02*
X13837105Y-18144620D01*
X13922819Y-18344620D02*
X13922819Y-18239858D01*
X13922819Y-18239858D02*
X13913295Y-18220810D01*
X13913295Y-18220810D02*
X13894248Y-18211286D01*
X13894248Y-18211286D02*
X13865676Y-18211286D01*
X13865676Y-18211286D02*
X13846629Y-18220810D01*
X13846629Y-18220810D02*
X13837105Y-18230334D01*
X14046629Y-18344620D02*
X14027581Y-18335096D01*
X14027581Y-18335096D02*
X14018057Y-18325572D01*
X14018057Y-18325572D02*
X14008533Y-18306524D01*
X14008533Y-18306524D02*
X14008533Y-18249381D01*
X14008533Y-18249381D02*
X14018057Y-18230334D01*
X14018057Y-18230334D02*
X14027581Y-18220810D01*
X14027581Y-18220810D02*
X14046629Y-18211286D01*
X14046629Y-18211286D02*
X14075200Y-18211286D01*
X14075200Y-18211286D02*
X14094248Y-18220810D01*
X14094248Y-18220810D02*
X14103771Y-18230334D01*
X14103771Y-18230334D02*
X14113295Y-18249381D01*
X14113295Y-18249381D02*
X14113295Y-18306524D01*
X14113295Y-18306524D02*
X14103771Y-18325572D01*
X14103771Y-18325572D02*
X14094248Y-18335096D01*
X14094248Y-18335096D02*
X14075200Y-18344620D01*
X14075200Y-18344620D02*
X14046629Y-18344620D01*
X14227581Y-18344620D02*
X14208533Y-18335096D01*
X14208533Y-18335096D02*
X14199010Y-18316048D01*
X14199010Y-18316048D02*
X14199010Y-18144620D01*
X14379962Y-18335096D02*
X14360914Y-18344620D01*
X14360914Y-18344620D02*
X14322819Y-18344620D01*
X14322819Y-18344620D02*
X14303771Y-18335096D01*
X14303771Y-18335096D02*
X14294248Y-18316048D01*
X14294248Y-18316048D02*
X14294248Y-18239858D01*
X14294248Y-18239858D02*
X14303771Y-18220810D01*
X14303771Y-18220810D02*
X14322819Y-18211286D01*
X14322819Y-18211286D02*
X14360914Y-18211286D01*
X14360914Y-18211286D02*
X14379962Y-18220810D01*
X14379962Y-18220810D02*
X14389486Y-18239858D01*
X14389486Y-18239858D02*
X14389486Y-18258905D01*
X14389486Y-18258905D02*
X14294248Y-18277953D01*
X14465676Y-18335096D02*
X14484724Y-18344620D01*
X14484724Y-18344620D02*
X14522819Y-18344620D01*
X14522819Y-18344620D02*
X14541867Y-18335096D01*
X14541867Y-18335096D02*
X14551391Y-18316048D01*
X14551391Y-18316048D02*
X14551391Y-18306524D01*
X14551391Y-18306524D02*
X14541867Y-18287477D01*
X14541867Y-18287477D02*
X14522819Y-18277953D01*
X14522819Y-18277953D02*
X14494248Y-18277953D01*
X14494248Y-18277953D02*
X14475200Y-18268429D01*
X14475200Y-18268429D02*
X14465676Y-18249381D01*
X14465676Y-18249381D02*
X14465676Y-18239858D01*
X14465676Y-18239858D02*
X14475200Y-18220810D01*
X14475200Y-18220810D02*
X14494248Y-18211286D01*
X14494248Y-18211286D02*
X14522819Y-18211286D01*
X14522819Y-18211286D02*
X14541867Y-18220810D01*
X14789486Y-18268429D02*
X14941867Y-18268429D01*
X14865676Y-18344620D02*
X14865676Y-18192239D01*
X15170438Y-18144620D02*
X15294248Y-18144620D01*
X15294248Y-18144620D02*
X15227581Y-18220810D01*
X15227581Y-18220810D02*
X15256153Y-18220810D01*
X15256153Y-18220810D02*
X15275200Y-18230334D01*
X15275200Y-18230334D02*
X15284724Y-18239858D01*
X15284724Y-18239858D02*
X15294248Y-18258905D01*
X15294248Y-18258905D02*
X15294248Y-18306524D01*
X15294248Y-18306524D02*
X15284724Y-18325572D01*
X15284724Y-18325572D02*
X15275200Y-18335096D01*
X15275200Y-18335096D02*
X15256153Y-18344620D01*
X15256153Y-18344620D02*
X15199010Y-18344620D01*
X15199010Y-18344620D02*
X15179962Y-18335096D01*
X15179962Y-18335096D02*
X15170438Y-18325572D01*
X15522819Y-18335096D02*
X15541867Y-18344620D01*
X15541867Y-18344620D02*
X15579962Y-18344620D01*
X15579962Y-18344620D02*
X15599010Y-18335096D01*
X15599010Y-18335096D02*
X15608534Y-18316048D01*
X15608534Y-18316048D02*
X15608534Y-18306524D01*
X15608534Y-18306524D02*
X15599010Y-18287477D01*
X15599010Y-18287477D02*
X15579962Y-18277953D01*
X15579962Y-18277953D02*
X15551391Y-18277953D01*
X15551391Y-18277953D02*
X15532343Y-18268429D01*
X15532343Y-18268429D02*
X15522819Y-18249381D01*
X15522819Y-18249381D02*
X15522819Y-18239858D01*
X15522819Y-18239858D02*
X15532343Y-18220810D01*
X15532343Y-18220810D02*
X15551391Y-18211286D01*
X15551391Y-18211286D02*
X15579962Y-18211286D01*
X15579962Y-18211286D02*
X15599010Y-18220810D01*
X15722819Y-18344620D02*
X15703772Y-18335096D01*
X15703772Y-18335096D02*
X15694248Y-18316048D01*
X15694248Y-18316048D02*
X15694248Y-18144620D01*
X15827581Y-18344620D02*
X15808534Y-18335096D01*
X15808534Y-18335096D02*
X15799010Y-18325572D01*
X15799010Y-18325572D02*
X15789486Y-18306524D01*
X15789486Y-18306524D02*
X15789486Y-18249381D01*
X15789486Y-18249381D02*
X15799010Y-18230334D01*
X15799010Y-18230334D02*
X15808534Y-18220810D01*
X15808534Y-18220810D02*
X15827581Y-18211286D01*
X15827581Y-18211286D02*
X15856153Y-18211286D01*
X15856153Y-18211286D02*
X15875200Y-18220810D01*
X15875200Y-18220810D02*
X15884724Y-18230334D01*
X15884724Y-18230334D02*
X15894248Y-18249381D01*
X15894248Y-18249381D02*
X15894248Y-18306524D01*
X15894248Y-18306524D02*
X15884724Y-18325572D01*
X15884724Y-18325572D02*
X15875200Y-18335096D01*
X15875200Y-18335096D02*
X15856153Y-18344620D01*
X15856153Y-18344620D02*
X15827581Y-18344620D01*
X15951391Y-18211286D02*
X16027581Y-18211286D01*
X15979962Y-18144620D02*
X15979962Y-18316048D01*
X15979962Y-18316048D02*
X15989486Y-18335096D01*
X15989486Y-18335096D02*
X16008534Y-18344620D01*
X16008534Y-18344620D02*
X16027581Y-18344620D01*
X16084724Y-18335096D02*
X16103772Y-18344620D01*
X16103772Y-18344620D02*
X16141867Y-18344620D01*
X16141867Y-18344620D02*
X16160915Y-18335096D01*
X16160915Y-18335096D02*
X16170438Y-18316048D01*
X16170438Y-18316048D02*
X16170438Y-18306524D01*
X16170438Y-18306524D02*
X16160915Y-18287477D01*
X16160915Y-18287477D02*
X16141867Y-18277953D01*
X16141867Y-18277953D02*
X16113295Y-18277953D01*
X16113295Y-18277953D02*
X16094248Y-18268429D01*
X16094248Y-18268429D02*
X16084724Y-18249381D01*
X16084724Y-18249381D02*
X16084724Y-18239858D01*
X16084724Y-18239858D02*
X16094248Y-18220810D01*
X16094248Y-18220810D02*
X16113295Y-18211286D01*
X16113295Y-18211286D02*
X16141867Y-18211286D01*
X16141867Y-18211286D02*
X16160915Y-18220810D01*
X16237105Y-18420810D02*
X16246629Y-18411286D01*
X16246629Y-18411286D02*
X16265676Y-18382715D01*
X16265676Y-18382715D02*
X16275200Y-18363667D01*
X16275200Y-18363667D02*
X16284724Y-18335096D01*
X16284724Y-18335096D02*
X16294248Y-18287477D01*
X16294248Y-18287477D02*
X16294248Y-18249381D01*
X16294248Y-18249381D02*
X16284724Y-18201762D01*
X16284724Y-18201762D02*
X16275200Y-18173191D01*
X16275200Y-18173191D02*
X16265676Y-18154143D01*
X16265676Y-18154143D02*
X16246629Y-18125572D01*
X16246629Y-18125572D02*
X16237105Y-18116048D01*
X9742994Y-18417136D02*
X9742994Y-18617136D01*
X9642994Y-18517136D02*
X9842994Y-18517136D01*
X9842994Y-18517136D02*
G75*
G02*
X9642994Y-18517136I-100000J0D01*
G01*
X9642994Y-18517136D02*
G75*
G02*
X9842994Y-18517136I100000J0D01*
G01*
X10189485Y-18475286D02*
X10189485Y-18608620D01*
X10141866Y-18399096D02*
X10094247Y-18541953D01*
X10094247Y-18541953D02*
X10218057Y-18541953D01*
X10294247Y-18589572D02*
X10303771Y-18599096D01*
X10303771Y-18599096D02*
X10294247Y-18608620D01*
X10294247Y-18608620D02*
X10284724Y-18599096D01*
X10284724Y-18599096D02*
X10294247Y-18589572D01*
X10294247Y-18589572D02*
X10294247Y-18608620D01*
X10427581Y-18408620D02*
X10446628Y-18408620D01*
X10446628Y-18408620D02*
X10465676Y-18418143D01*
X10465676Y-18418143D02*
X10475200Y-18427667D01*
X10475200Y-18427667D02*
X10484724Y-18446715D01*
X10484724Y-18446715D02*
X10494247Y-18484810D01*
X10494247Y-18484810D02*
X10494247Y-18532429D01*
X10494247Y-18532429D02*
X10484724Y-18570524D01*
X10484724Y-18570524D02*
X10475200Y-18589572D01*
X10475200Y-18589572D02*
X10465676Y-18599096D01*
X10465676Y-18599096D02*
X10446628Y-18608620D01*
X10446628Y-18608620D02*
X10427581Y-18608620D01*
X10427581Y-18608620D02*
X10408533Y-18599096D01*
X10408533Y-18599096D02*
X10399009Y-18589572D01*
X10399009Y-18589572D02*
X10389485Y-18570524D01*
X10389485Y-18570524D02*
X10379962Y-18532429D01*
X10379962Y-18532429D02*
X10379962Y-18484810D01*
X10379962Y-18484810D02*
X10389485Y-18446715D01*
X10389485Y-18446715D02*
X10399009Y-18427667D01*
X10399009Y-18427667D02*
X10408533Y-18418143D01*
X10408533Y-18418143D02*
X10427581Y-18408620D01*
X10618057Y-18408620D02*
X10637105Y-18408620D01*
X10637105Y-18408620D02*
X10656152Y-18418143D01*
X10656152Y-18418143D02*
X10665676Y-18427667D01*
X10665676Y-18427667D02*
X10675200Y-18446715D01*
X10675200Y-18446715D02*
X10684724Y-18484810D01*
X10684724Y-18484810D02*
X10684724Y-18532429D01*
X10684724Y-18532429D02*
X10675200Y-18570524D01*
X10675200Y-18570524D02*
X10665676Y-18589572D01*
X10665676Y-18589572D02*
X10656152Y-18599096D01*
X10656152Y-18599096D02*
X10637105Y-18608620D01*
X10637105Y-18608620D02*
X10618057Y-18608620D01*
X10618057Y-18608620D02*
X10599009Y-18599096D01*
X10599009Y-18599096D02*
X10589485Y-18589572D01*
X10589485Y-18589572D02*
X10579962Y-18570524D01*
X10579962Y-18570524D02*
X10570438Y-18532429D01*
X10570438Y-18532429D02*
X10570438Y-18484810D01*
X10570438Y-18484810D02*
X10579962Y-18446715D01*
X10579962Y-18446715D02*
X10589485Y-18427667D01*
X10589485Y-18427667D02*
X10599009Y-18418143D01*
X10599009Y-18418143D02*
X10618057Y-18408620D01*
X10808533Y-18408620D02*
X10827581Y-18408620D01*
X10827581Y-18408620D02*
X10846628Y-18418143D01*
X10846628Y-18418143D02*
X10856152Y-18427667D01*
X10856152Y-18427667D02*
X10865676Y-18446715D01*
X10865676Y-18446715D02*
X10875200Y-18484810D01*
X10875200Y-18484810D02*
X10875200Y-18532429D01*
X10875200Y-18532429D02*
X10865676Y-18570524D01*
X10865676Y-18570524D02*
X10856152Y-18589572D01*
X10856152Y-18589572D02*
X10846628Y-18599096D01*
X10846628Y-18599096D02*
X10827581Y-18608620D01*
X10827581Y-18608620D02*
X10808533Y-18608620D01*
X10808533Y-18608620D02*
X10789485Y-18599096D01*
X10789485Y-18599096D02*
X10779962Y-18589572D01*
X10779962Y-18589572D02*
X10770438Y-18570524D01*
X10770438Y-18570524D02*
X10760914Y-18532429D01*
X10760914Y-18532429D02*
X10760914Y-18484810D01*
X10760914Y-18484810D02*
X10770438Y-18446715D01*
X10770438Y-18446715D02*
X10779962Y-18427667D01*
X10779962Y-18427667D02*
X10789485Y-18418143D01*
X10789485Y-18418143D02*
X10808533Y-18408620D01*
X10960914Y-18608620D02*
X10960914Y-18475286D01*
X10960914Y-18494334D02*
X10970438Y-18484810D01*
X10970438Y-18484810D02*
X10989485Y-18475286D01*
X10989485Y-18475286D02*
X11018057Y-18475286D01*
X11018057Y-18475286D02*
X11037105Y-18484810D01*
X11037105Y-18484810D02*
X11046628Y-18503858D01*
X11046628Y-18503858D02*
X11046628Y-18608620D01*
X11046628Y-18503858D02*
X11056152Y-18484810D01*
X11056152Y-18484810D02*
X11075200Y-18475286D01*
X11075200Y-18475286D02*
X11103771Y-18475286D01*
X11103771Y-18475286D02*
X11122819Y-18484810D01*
X11122819Y-18484810D02*
X11132343Y-18503858D01*
X11132343Y-18503858D02*
X11132343Y-18608620D01*
X11227581Y-18608620D02*
X11227581Y-18475286D01*
X11227581Y-18494334D02*
X11237104Y-18484810D01*
X11237104Y-18484810D02*
X11256152Y-18475286D01*
X11256152Y-18475286D02*
X11284724Y-18475286D01*
X11284724Y-18475286D02*
X11303771Y-18484810D01*
X11303771Y-18484810D02*
X11313295Y-18503858D01*
X11313295Y-18503858D02*
X11313295Y-18608620D01*
X11313295Y-18503858D02*
X11322819Y-18484810D01*
X11322819Y-18484810D02*
X11341866Y-18475286D01*
X11341866Y-18475286D02*
X11370438Y-18475286D01*
X11370438Y-18475286D02*
X11389485Y-18484810D01*
X11389485Y-18484810D02*
X11399009Y-18503858D01*
X11399009Y-18503858D02*
X11399009Y-18608620D01*
X11789485Y-18399096D02*
X11618057Y-18656239D01*
X12046628Y-18408620D02*
X12065676Y-18408620D01*
X12065676Y-18408620D02*
X12084724Y-18418143D01*
X12084724Y-18418143D02*
X12094247Y-18427667D01*
X12094247Y-18427667D02*
X12103771Y-18446715D01*
X12103771Y-18446715D02*
X12113295Y-18484810D01*
X12113295Y-18484810D02*
X12113295Y-18532429D01*
X12113295Y-18532429D02*
X12103771Y-18570524D01*
X12103771Y-18570524D02*
X12094247Y-18589572D01*
X12094247Y-18589572D02*
X12084724Y-18599096D01*
X12084724Y-18599096D02*
X12065676Y-18608620D01*
X12065676Y-18608620D02*
X12046628Y-18608620D01*
X12046628Y-18608620D02*
X12027581Y-18599096D01*
X12027581Y-18599096D02*
X12018057Y-18589572D01*
X12018057Y-18589572D02*
X12008533Y-18570524D01*
X12008533Y-18570524D02*
X11999009Y-18532429D01*
X11999009Y-18532429D02*
X11999009Y-18484810D01*
X11999009Y-18484810D02*
X12008533Y-18446715D01*
X12008533Y-18446715D02*
X12018057Y-18427667D01*
X12018057Y-18427667D02*
X12027581Y-18418143D01*
X12027581Y-18418143D02*
X12046628Y-18408620D01*
X12199009Y-18589572D02*
X12208533Y-18599096D01*
X12208533Y-18599096D02*
X12199009Y-18608620D01*
X12199009Y-18608620D02*
X12189486Y-18599096D01*
X12189486Y-18599096D02*
X12199009Y-18589572D01*
X12199009Y-18589572D02*
X12199009Y-18608620D01*
X12399009Y-18608620D02*
X12284724Y-18608620D01*
X12341866Y-18608620D02*
X12341866Y-18408620D01*
X12341866Y-18408620D02*
X12322819Y-18437191D01*
X12322819Y-18437191D02*
X12303771Y-18456239D01*
X12303771Y-18456239D02*
X12284724Y-18465762D01*
X12579962Y-18408620D02*
X12484724Y-18408620D01*
X12484724Y-18408620D02*
X12475200Y-18503858D01*
X12475200Y-18503858D02*
X12484724Y-18494334D01*
X12484724Y-18494334D02*
X12503771Y-18484810D01*
X12503771Y-18484810D02*
X12551390Y-18484810D01*
X12551390Y-18484810D02*
X12570438Y-18494334D01*
X12570438Y-18494334D02*
X12579962Y-18503858D01*
X12579962Y-18503858D02*
X12589486Y-18522905D01*
X12589486Y-18522905D02*
X12589486Y-18570524D01*
X12589486Y-18570524D02*
X12579962Y-18589572D01*
X12579962Y-18589572D02*
X12570438Y-18599096D01*
X12570438Y-18599096D02*
X12551390Y-18608620D01*
X12551390Y-18608620D02*
X12503771Y-18608620D01*
X12503771Y-18608620D02*
X12484724Y-18599096D01*
X12484724Y-18599096D02*
X12475200Y-18589572D01*
X12656152Y-18408620D02*
X12789486Y-18408620D01*
X12789486Y-18408620D02*
X12703771Y-18608620D01*
X12960914Y-18408620D02*
X12865676Y-18408620D01*
X12865676Y-18408620D02*
X12856152Y-18503858D01*
X12856152Y-18503858D02*
X12865676Y-18494334D01*
X12865676Y-18494334D02*
X12884724Y-18484810D01*
X12884724Y-18484810D02*
X12932343Y-18484810D01*
X12932343Y-18484810D02*
X12951390Y-18494334D01*
X12951390Y-18494334D02*
X12960914Y-18503858D01*
X12960914Y-18503858D02*
X12970438Y-18522905D01*
X12970438Y-18522905D02*
X12970438Y-18570524D01*
X12970438Y-18570524D02*
X12960914Y-18589572D01*
X12960914Y-18589572D02*
X12951390Y-18599096D01*
X12951390Y-18599096D02*
X12932343Y-18608620D01*
X12932343Y-18608620D02*
X12884724Y-18608620D01*
X12884724Y-18608620D02*
X12865676Y-18599096D01*
X12865676Y-18599096D02*
X12856152Y-18589572D01*
X13046628Y-18408620D02*
X13046628Y-18446715D01*
X13122819Y-18408620D02*
X13122819Y-18446715D01*
X13418057Y-18684810D02*
X13408533Y-18675286D01*
X13408533Y-18675286D02*
X13389486Y-18646715D01*
X13389486Y-18646715D02*
X13379962Y-18627667D01*
X13379962Y-18627667D02*
X13370438Y-18599096D01*
X13370438Y-18599096D02*
X13360914Y-18551477D01*
X13360914Y-18551477D02*
X13360914Y-18513381D01*
X13360914Y-18513381D02*
X13370438Y-18465762D01*
X13370438Y-18465762D02*
X13379962Y-18437191D01*
X13379962Y-18437191D02*
X13389486Y-18418143D01*
X13389486Y-18418143D02*
X13408533Y-18389572D01*
X13408533Y-18389572D02*
X13418057Y-18380048D01*
X13579962Y-18475286D02*
X13579962Y-18608620D01*
X13532343Y-18399096D02*
X13484724Y-18541953D01*
X13484724Y-18541953D02*
X13608533Y-18541953D01*
X13837105Y-18608620D02*
X13837105Y-18408620D01*
X13922819Y-18608620D02*
X13922819Y-18503858D01*
X13922819Y-18503858D02*
X13913295Y-18484810D01*
X13913295Y-18484810D02*
X13894248Y-18475286D01*
X13894248Y-18475286D02*
X13865676Y-18475286D01*
X13865676Y-18475286D02*
X13846629Y-18484810D01*
X13846629Y-18484810D02*
X13837105Y-18494334D01*
X14046629Y-18608620D02*
X14027581Y-18599096D01*
X14027581Y-18599096D02*
X14018057Y-18589572D01*
X14018057Y-18589572D02*
X14008533Y-18570524D01*
X14008533Y-18570524D02*
X14008533Y-18513381D01*
X14008533Y-18513381D02*
X14018057Y-18494334D01*
X14018057Y-18494334D02*
X14027581Y-18484810D01*
X14027581Y-18484810D02*
X14046629Y-18475286D01*
X14046629Y-18475286D02*
X14075200Y-18475286D01*
X14075200Y-18475286D02*
X14094248Y-18484810D01*
X14094248Y-18484810D02*
X14103771Y-18494334D01*
X14103771Y-18494334D02*
X14113295Y-18513381D01*
X14113295Y-18513381D02*
X14113295Y-18570524D01*
X14113295Y-18570524D02*
X14103771Y-18589572D01*
X14103771Y-18589572D02*
X14094248Y-18599096D01*
X14094248Y-18599096D02*
X14075200Y-18608620D01*
X14075200Y-18608620D02*
X14046629Y-18608620D01*
X14227581Y-18608620D02*
X14208533Y-18599096D01*
X14208533Y-18599096D02*
X14199010Y-18580048D01*
X14199010Y-18580048D02*
X14199010Y-18408620D01*
X14379962Y-18599096D02*
X14360914Y-18608620D01*
X14360914Y-18608620D02*
X14322819Y-18608620D01*
X14322819Y-18608620D02*
X14303771Y-18599096D01*
X14303771Y-18599096D02*
X14294248Y-18580048D01*
X14294248Y-18580048D02*
X14294248Y-18503858D01*
X14294248Y-18503858D02*
X14303771Y-18484810D01*
X14303771Y-18484810D02*
X14322819Y-18475286D01*
X14322819Y-18475286D02*
X14360914Y-18475286D01*
X14360914Y-18475286D02*
X14379962Y-18484810D01*
X14379962Y-18484810D02*
X14389486Y-18503858D01*
X14389486Y-18503858D02*
X14389486Y-18522905D01*
X14389486Y-18522905D02*
X14294248Y-18541953D01*
X14465676Y-18599096D02*
X14484724Y-18608620D01*
X14484724Y-18608620D02*
X14522819Y-18608620D01*
X14522819Y-18608620D02*
X14541867Y-18599096D01*
X14541867Y-18599096D02*
X14551391Y-18580048D01*
X14551391Y-18580048D02*
X14551391Y-18570524D01*
X14551391Y-18570524D02*
X14541867Y-18551477D01*
X14541867Y-18551477D02*
X14522819Y-18541953D01*
X14522819Y-18541953D02*
X14494248Y-18541953D01*
X14494248Y-18541953D02*
X14475200Y-18532429D01*
X14475200Y-18532429D02*
X14465676Y-18513381D01*
X14465676Y-18513381D02*
X14465676Y-18503858D01*
X14465676Y-18503858D02*
X14475200Y-18484810D01*
X14475200Y-18484810D02*
X14494248Y-18475286D01*
X14494248Y-18475286D02*
X14522819Y-18475286D01*
X14522819Y-18475286D02*
X14541867Y-18484810D01*
X14618057Y-18684810D02*
X14627581Y-18675286D01*
X14627581Y-18675286D02*
X14646629Y-18646715D01*
X14646629Y-18646715D02*
X14656152Y-18627667D01*
X14656152Y-18627667D02*
X14665676Y-18599096D01*
X14665676Y-18599096D02*
X14675200Y-18551477D01*
X14675200Y-18551477D02*
X14675200Y-18513381D01*
X14675200Y-18513381D02*
X14665676Y-18465762D01*
X14665676Y-18465762D02*
X14656152Y-18437191D01*
X14656152Y-18437191D02*
X14646629Y-18418143D01*
X14646629Y-18418143D02*
X14627581Y-18389572D01*
X14627581Y-18389572D02*
X14618057Y-18380048D01*
M02*
