%TF.GenerationSoftware,KiCad,Pcbnew,10.0.3*%
%TF.CreationDate,2026-08-24T21:40:55+07:00*%
%TF.ProjectId,RheoBoard_V9,5268656f-426f-4617-9264-5f56392e6b69,rev?*%
%TF.SameCoordinates,Original*%
%TF.FileFunction,Soldermask,Top*%
%TF.FilePolarity,Negative*%
%FSLAX46Y46*%
G04 Gerber Fmt 4.6, Leading zero omitted, Abs format (unit mm)*
G04 Created by KiCad (PCBNEW 10.0.3) date 2026-08-24 21:40:55*
%MOMM*%
%LPD*%
G01*
G04 APERTURE LIST*
G04 Aperture macros list*
%AMRoundRect*
0 Rectangle with rounded corners*
0 $1 Rounding radius*
0 $2 $3 $4 $5 $6 $7 $8 $9 X,Y pos of 4 corners*
0 Add a 4 corners polygon primitive as box body*
4,1,4,$2,$3,$4,$5,$6,$7,$8,$9,$2,$3,0*
0 Add four circle primitives for the rounded corners*
1,1,$1+$1,$2,$3*
1,1,$1+$1,$4,$5*
1,1,$1+$1,$6,$7*
1,1,$1+$1,$8,$9*
0 Add four rect primitives between the rounded corners*
20,1,$1+$1,$2,$3,$4,$5,0*
20,1,$1+$1,$4,$5,$6,$7,0*
20,1,$1+$1,$6,$7,$8,$9,0*
20,1,$1+$1,$8,$9,$2,$3,0*%
%AMFreePoly0*
4,1,25,1.059719,1.082196,1.071842,1.071842,1.571842,0.571842,1.600349,0.515894,1.601600,0.500000,1.601600,-0.500000,1.582196,-0.559719,1.571842,-0.571842,1.071842,-1.071842,1.015894,-1.100349,1.000000,-1.101600,-1.000000,-1.101600,-1.059719,-1.082196,-1.071842,-1.071842,-1.571842,-0.571842,-1.600349,-0.515894,-1.601600,-0.500000,-1.601600,0.500000,-1.582196,0.559719,-1.571842,0.571842,
-1.071842,1.071842,-1.015894,1.100349,-1.000000,1.101600,1.000000,1.101600,1.059719,1.082196,1.059719,1.082196,$1*%
G04 Aperture macros list end*
%ADD10RoundRect,0.101600X0.450000X-0.300000X0.450000X0.300000X-0.450000X0.300000X-0.450000X-0.300000X0*%
%ADD11R,0.655600X0.800000*%
%ADD12R,0.900000X1.000000*%
%ADD13RoundRect,0.101600X0.300000X0.450000X-0.300000X0.450000X-0.300000X-0.450000X0.300000X-0.450000X0*%
%ADD14RoundRect,0.101600X0.650000X-0.650000X0.650000X0.650000X-0.650000X0.650000X-0.650000X-0.650000X0*%
%ADD15C,1.503200*%
%ADD16RoundRect,0.101600X-0.825500X0.762000X-0.825500X-0.762000X0.825500X-0.762000X0.825500X0.762000X0*%
%ADD17RoundRect,0.101600X-0.300000X-0.450000X0.300000X-0.450000X0.300000X0.450000X-0.300000X0.450000X0*%
%ADD18RoundRect,0.101600X1.150000X-1.143000X1.150000X1.143000X-1.150000X1.143000X-1.150000X-1.143000X0*%
%ADD19RoundRect,0.101600X-0.350000X1.500000X-0.350000X-1.500000X0.350000X-1.500000X0.350000X1.500000X0*%
%ADD20O,0.903200X3.203200*%
%ADD21FreePoly0,0.000000*%
%ADD22R,0.229400X0.706400*%
%ADD23R,0.558800X1.320800*%
%ADD24RoundRect,0.101600X1.143000X1.150000X-1.143000X1.150000X-1.143000X-1.150000X1.143000X-1.150000X0*%
%ADD25R,0.759600X0.889800*%
%ADD26RoundRect,0.101600X0.825500X-0.635000X0.825500X0.635000X-0.825500X0.635000X-0.825500X-0.635000X0*%
%ADD27RoundRect,0.101600X-0.450000X0.300000X-0.450000X-0.300000X0.450000X-0.300000X0.450000X0.300000X0*%
%ADD28R,1.000000X0.900000*%
%ADD29RoundRect,0.101600X-0.698500X0.635000X-0.698500X-0.635000X0.698500X-0.635000X0.698500X0.635000X0*%
%ADD30R,1.639800X0.304800*%
%ADD31RoundRect,0.101600X-2.500000X5.000000X-2.500000X-5.000000X2.500000X-5.000000X2.500000X5.000000X0*%
%ADD32RoundRect,0.101600X0.775000X-0.300000X0.775000X0.300000X-0.775000X0.300000X-0.775000X-0.300000X0*%
%ADD33RoundRect,0.101600X0.900000X-0.600000X0.900000X0.600000X-0.900000X0.600000X-0.900000X-0.600000X0*%
%ADD34RoundRect,0.101600X0.825500X-0.762000X0.825500X0.762000X-0.825500X0.762000X-0.825500X-0.762000X0*%
%ADD35C,6.203200*%
%ADD36RoundRect,0.101600X-1.143000X0.952500X-1.143000X-0.952500X1.143000X-0.952500X1.143000X0.952500X0*%
%ADD37O,2.489200X2.108200*%
%ADD38RoundRect,0.101600X2.500000X-5.000000X2.500000X5.000000X-2.500000X5.000000X-2.500000X-5.000000X0*%
%ADD39R,0.508000X1.016000*%
%ADD40RoundRect,0.101600X-0.775000X0.300000X-0.775000X-0.300000X0.775000X-0.300000X0.775000X0.300000X0*%
%ADD41RoundRect,0.101600X-0.900000X0.600000X-0.900000X-0.600000X0.900000X-0.600000X0.900000X0.600000X0*%
%ADD42RoundRect,0.101600X-0.284000X-0.654800X0.284000X-0.654800X0.284000X0.654800X-0.284000X0.654800X0*%
%ADD43C,1.981200*%
%ADD44R,0.452400X0.749200*%
%ADD45RoundRect,0.101600X0.350000X0.325000X-0.350000X0.325000X-0.350000X-0.325000X0.350000X-0.325000X0*%
%ADD46RoundRect,0.101600X0.325000X0.350000X-0.325000X0.350000X-0.325000X-0.350000X0.325000X-0.350000X0*%
%ADD47RoundRect,0.101600X-0.825500X-0.825500X0.825500X-0.825500X0.825500X0.825500X-0.825500X0.825500X0*%
%ADD48C,1.854200*%
%ADD49C,5.203200*%
%ADD50RoundRect,0.101600X0.635000X0.698500X-0.635000X0.698500X-0.635000X-0.698500X0.635000X-0.698500X0*%
%ADD51O,2.743200X4.267200*%
%ADD52O,4.267200X2.743200*%
%ADD53O,2.108200X1.854200*%
%ADD54RoundRect,0.076650X0.809950X0.229950X-0.809950X0.229950X-0.809950X-0.229950X0.809950X-0.229950X0*%
%ADD55R,0.508000X1.003300*%
%ADD56RoundRect,0.101600X-0.635000X-0.698500X0.635000X-0.698500X0.635000X0.698500X-0.635000X0.698500X0*%
G04 APERTURE END LIST*
D10*
%TO.C,R15*%
X119775110Y-133249297D03*
X119775000Y-131433417D03*
%TD*%
%TO.C,R9*%
X123077110Y-142012297D03*
X123077000Y-140196417D03*
%TD*%
D11*
%TO.C,C2*%
X174700310Y-140361217D03*
X176355910Y-140361217D03*
%TD*%
D12*
%TO.C,C19*%
X189206110Y-105690217D03*
X190806110Y-105690217D03*
%TD*%
D13*
%TO.C,R40*%
X124855190Y-117882217D03*
X123039310Y-117882327D03*
%TD*%
D10*
%TO.C,R13*%
X124728110Y-143155297D03*
X124728000Y-141339417D03*
%TD*%
D14*
%TO.C,SW5*%
X193435110Y-111659217D03*
D15*
X185815110Y-111659217D03*
%TD*%
D13*
%TO.C,R30*%
X135142110Y-120168217D03*
X133326230Y-120168327D03*
%TD*%
D16*
%TO.C,LED5*%
X123966110Y-125502217D03*
X123966110Y-129109017D03*
%TD*%
D10*
%TO.C,R1*%
X177814110Y-144806297D03*
X177814000Y-142990417D03*
%TD*%
D17*
%TO.C,R6*%
X160669030Y-148235217D03*
X162484910Y-148235097D03*
%TD*%
D18*
%TO.C,D10*%
X109869110Y-81306217D03*
X109869110Y-77242217D03*
%TD*%
D12*
%TO.C,C11*%
X162231110Y-152172217D03*
X160631110Y-152172217D03*
%TD*%
D17*
%TO.C,R22*%
X100217030Y-120041217D03*
X102032910Y-120041097D03*
%TD*%
D19*
%TO.C,C32*%
X158256110Y-103023217D03*
D20*
X158256110Y-108611217D03*
%TD*%
D21*
%TO.C,TP2*%
X108980110Y-141631217D03*
%TD*%
D13*
%TO.C,R34*%
X174512190Y-117628217D03*
X172696310Y-117628327D03*
%TD*%
D17*
%TO.C,R29*%
X145048030Y-68606217D03*
X146863910Y-68606097D03*
%TD*%
D22*
%TO.C,U1*%
X176155240Y-143246517D03*
X175655110Y-143246517D03*
X175154990Y-143246517D03*
X175154990Y-144841917D03*
X175655110Y-144841917D03*
X176155240Y-144841917D03*
%TD*%
D23*
%TO.C,Q3*%
X133300610Y-114885017D03*
X135205610Y-114885017D03*
X134253110Y-112497417D03*
%TD*%
D24*
%TO.C,D1*%
X185307110Y-143028217D03*
X181243110Y-143028217D03*
%TD*%
D25*
%TO.C,FB1*%
X185826610Y-115977217D03*
X184533610Y-115977217D03*
%TD*%
D12*
%TO.C,C18*%
X186742110Y-119914217D03*
X185142110Y-119914217D03*
%TD*%
D10*
%TO.C,R20*%
X131078110Y-132995297D03*
X131078000Y-131179417D03*
%TD*%
D26*
%TO.C,F1*%
X187974030Y-125629257D03*
X187974030Y-122327257D03*
%TD*%
D27*
%TO.C,R36*%
X182894110Y-77750127D03*
X182894230Y-79566017D03*
%TD*%
D16*
%TO.C,LED2*%
X118251110Y-125451417D03*
X118251110Y-129058217D03*
%TD*%
D13*
%TO.C,R28*%
X155335190Y-68733217D03*
X153519310Y-68733327D03*
%TD*%
D28*
%TO.C,C23*%
X133999110Y-143879217D03*
X133999110Y-145479217D03*
%TD*%
%TO.C,C1*%
X171464110Y-143117217D03*
X171464110Y-144717217D03*
%TD*%
%TO.C,C16*%
X191784110Y-118682207D03*
X191784110Y-117082207D03*
%TD*%
D16*
%TO.C,LED6*%
X121299110Y-125451417D03*
X121299110Y-129058217D03*
%TD*%
D29*
%TO.C,D6*%
X150509110Y-74829217D03*
X150509110Y-77115217D03*
%TD*%
D16*
%TO.C,LED4*%
X126506110Y-125502217D03*
X126506110Y-129109017D03*
%TD*%
D10*
%TO.C,R18*%
X124474110Y-133249297D03*
X124474000Y-131433417D03*
%TD*%
D13*
%TO.C,R38*%
X124855110Y-119914217D03*
X123039230Y-119914327D03*
%TD*%
D29*
%TO.C,D4*%
X139714110Y-73940217D03*
X139714110Y-76226217D03*
%TD*%
D18*
%TO.C,D11*%
X185180110Y-82068217D03*
X185180110Y-78004217D03*
%TD*%
D12*
%TO.C,C20*%
X106859110Y-135408217D03*
X105259110Y-135408217D03*
%TD*%
D18*
%TO.C,D5*%
X142000110Y-75591217D03*
X142000110Y-71527217D03*
%TD*%
D28*
%TO.C,C24*%
X124728110Y-146495207D03*
X124728110Y-144895207D03*
%TD*%
%TO.C,C17*%
X193435110Y-118682207D03*
X193435110Y-117082207D03*
%TD*%
D30*
%TO.C,U6*%
X108980110Y-121565217D03*
X108980110Y-121057217D03*
X108980110Y-120549217D03*
X108980110Y-120041217D03*
X108980110Y-119533217D03*
X104916110Y-119533217D03*
X104916110Y-120041217D03*
X104916110Y-120549217D03*
X104916110Y-121057217D03*
X104916110Y-121565217D03*
%TD*%
D13*
%TO.C,R23*%
X114695190Y-116358217D03*
X112879310Y-116358327D03*
%TD*%
D17*
%TO.C,R3*%
X176417030Y-150394217D03*
X178232910Y-150394097D03*
%TD*%
D19*
%TO.C,C31*%
X124220110Y-102261217D03*
D20*
X124220110Y-107849217D03*
%TD*%
D21*
%TO.C,TP3*%
X112536110Y-141504217D03*
%TD*%
D13*
%TO.C,R7*%
X183783190Y-120549217D03*
X181967310Y-120549327D03*
%TD*%
D31*
%TO.C,L2*%
X164495110Y-132710207D03*
X154319110Y-132614217D03*
%TD*%
D32*
%TO.C,J4*%
X191973110Y-86102217D03*
X191973110Y-85102217D03*
X191973110Y-84102217D03*
X191973110Y-83102217D03*
D33*
X195848110Y-87402217D03*
X195848110Y-81802217D03*
%TD*%
D34*
%TO.C,LED1*%
X131332110Y-129109017D03*
X131332110Y-125502217D03*
%TD*%
D27*
%TO.C,R35*%
X107710110Y-76480127D03*
X107710230Y-78296017D03*
%TD*%
D13*
%TO.C,R2*%
X178195190Y-146711217D03*
X176379310Y-146711327D03*
%TD*%
D28*
%TO.C,C28*%
X162574110Y-69914207D03*
X162574110Y-68314207D03*
%TD*%
D11*
%TO.C,C3*%
X174700310Y-141758217D03*
X176355910Y-141758217D03*
%TD*%
D10*
%TO.C,R10*%
X121553110Y-141123297D03*
X121553000Y-139307417D03*
%TD*%
D35*
%TO.C,U9*%
X122061110Y-62891217D03*
D36*
X110250110Y-65939217D03*
D37*
X110250110Y-68479217D03*
%TD*%
D13*
%TO.C,R31*%
X135142110Y-118009217D03*
X133326230Y-118009327D03*
%TD*%
D38*
%TO.C,L1*%
X171575110Y-132772217D03*
X181751110Y-132868217D03*
%TD*%
D19*
%TO.C,C30*%
X148858110Y-103023217D03*
D20*
X148858110Y-108611217D03*
%TD*%
D12*
%TO.C,C15*%
X192965110Y-120168217D03*
X191365110Y-120168217D03*
%TD*%
D32*
%TO.C,J5*%
X192001110Y-97538217D03*
X192001110Y-96538207D03*
X192001110Y-95538217D03*
X192001110Y-94538217D03*
D33*
X195876110Y-98838217D03*
X195876110Y-93238217D03*
%TD*%
D28*
%TO.C,C21*%
X115711110Y-132398207D03*
X115711110Y-130798207D03*
%TD*%
D17*
%TO.C,R14*%
X140984030Y-143028217D03*
X142799910Y-143028097D03*
%TD*%
D10*
%TO.C,R19*%
X122061110Y-133249297D03*
X122061000Y-131433417D03*
%TD*%
D11*
%TO.C,C10*%
X158317310Y-141631217D03*
X159972910Y-141631217D03*
%TD*%
D13*
%TO.C,R25*%
X108980190Y-115977217D03*
X107164310Y-115977327D03*
%TD*%
D12*
%TO.C,C8*%
X160072110Y-140107217D03*
X158472110Y-140107217D03*
%TD*%
D10*
%TO.C,R17*%
X126760110Y-133122297D03*
X126760000Y-131306417D03*
%TD*%
D39*
%TO.C,Q5*%
X180798610Y-102388217D03*
X182703610Y-102388217D03*
X181751110Y-100102217D03*
%TD*%
D40*
%TO.C,J2*%
X104953110Y-85267217D03*
X104953110Y-86267217D03*
X104953110Y-87267207D03*
X104953110Y-88267217D03*
D41*
X101078110Y-83967217D03*
X101078110Y-89567217D03*
%TD*%
D18*
%TO.C,D7*%
X152795110Y-76353217D03*
X152795110Y-72289217D03*
%TD*%
D28*
%TO.C,C29*%
X138063110Y-69152207D03*
X138063110Y-67552207D03*
%TD*%
D10*
%TO.C,R12*%
X132221110Y-145568297D03*
X132221000Y-143752417D03*
%TD*%
D27*
%TO.C,R27*%
X139714110Y-71019127D03*
X139714230Y-72835017D03*
%TD*%
D22*
%TO.C,U2*%
X159637240Y-144670517D03*
X159137110Y-144670517D03*
X158636990Y-144670517D03*
X158636990Y-146265917D03*
X159137110Y-146265917D03*
X159637240Y-146265917D03*
%TD*%
D28*
%TO.C,C12*%
X156605110Y-148832217D03*
X156605110Y-150432217D03*
%TD*%
D39*
%TO.C,Q6*%
X123013610Y-115977217D03*
X124918610Y-115977217D03*
X123966110Y-113691217D03*
%TD*%
D29*
%TO.C,D8*%
X107583110Y-79401217D03*
X107583110Y-81687217D03*
%TD*%
D42*
%TO.C,U11*%
X107265610Y-113239417D03*
X109170610Y-113239417D03*
X108218110Y-111446967D03*
%TD*%
D16*
%TO.C,LED3*%
X128665110Y-125502217D03*
X128665110Y-129109017D03*
%TD*%
D43*
%TO.C,JP1*%
X101360110Y-128931217D03*
X101360120Y-131471217D03*
%TD*%
D44*
%TO.C,C22*%
X107420310Y-132995217D03*
X105967910Y-132995217D03*
%TD*%
D45*
%TO.C,U5*%
X110250110Y-129498207D03*
X111520110Y-129498207D03*
X112790110Y-129498207D03*
D46*
X113620110Y-130328217D03*
X113620110Y-131598217D03*
X113620110Y-132868217D03*
D45*
X112790110Y-133698217D03*
X111520110Y-133698217D03*
X110250110Y-133698217D03*
D46*
X109420110Y-132868217D03*
X109420110Y-131598217D03*
X109420110Y-130328217D03*
%TD*%
D11*
%TO.C,C9*%
X158190310Y-143155217D03*
X159845910Y-143155217D03*
%TD*%
D13*
%TO.C,R33*%
X174512190Y-119787217D03*
X172696310Y-119787327D03*
%TD*%
%TO.C,R37*%
X182513190Y-107722217D03*
X180697310Y-107722327D03*
%TD*%
D12*
%TO.C,C7*%
X172823110Y-146584217D03*
X174423110Y-146584217D03*
%TD*%
D47*
%TO.C,SW2*%
X112917110Y-147117617D03*
D48*
X120029110Y-147117617D03*
X112917110Y-151638817D03*
X120029110Y-151638817D03*
%TD*%
D28*
%TO.C,C13*%
X154827110Y-148832217D03*
X154827110Y-150432217D03*
%TD*%
D10*
%TO.C,R16*%
X128792110Y-132995297D03*
X128792000Y-131179417D03*
%TD*%
D39*
%TO.C,Q4*%
X172670610Y-114453217D03*
X174575610Y-114453217D03*
X173623110Y-112167217D03*
%TD*%
D49*
%TO.C,U7*%
X116624110Y-88164217D03*
X134864110Y-88164217D03*
%TD*%
D12*
%TO.C,C5*%
X172823110Y-150394217D03*
X174423110Y-150394217D03*
%TD*%
D47*
%TO.C,SW3*%
X155462110Y-61011617D03*
D48*
X162574110Y-61011617D03*
X155462110Y-65532817D03*
X162574110Y-65532817D03*
%TD*%
D50*
%TO.C,D2*%
X185942110Y-122200217D03*
X183656110Y-122200217D03*
%TD*%
D51*
%TO.C,JDC1*%
X189498110Y-139091217D03*
X195848110Y-139091217D03*
D52*
X192038110Y-134011217D03*
%TD*%
D35*
%TO.C,U10*%
X186323110Y-63399217D03*
D36*
X174512110Y-66447217D03*
D37*
X174512110Y-68987217D03*
%TD*%
D10*
%TO.C,R4*%
X161812110Y-146330297D03*
X161812000Y-144514417D03*
%TD*%
D53*
%TO.C,J3*%
X101741110Y-72390817D03*
X101741110Y-69825417D03*
X101741110Y-67336217D03*
X101741110Y-64770817D03*
%TD*%
D21*
%TO.C,TP1*%
X116092110Y-141504217D03*
%TD*%
D17*
%TO.C,R21*%
X100217030Y-121819217D03*
X102032910Y-121819097D03*
%TD*%
D42*
%TO.C,U12*%
X114758610Y-113366417D03*
X116663610Y-113366417D03*
X115711110Y-111573967D03*
%TD*%
D12*
%TO.C,C4*%
X178106110Y-148362217D03*
X176506110Y-148362217D03*
%TD*%
%TO.C,C6*%
X172823110Y-148362217D03*
X174423110Y-148362217D03*
%TD*%
D54*
%TO.C,U4*%
X136107110Y-140096207D03*
X136107110Y-139446217D03*
X136107110Y-138796207D03*
X136107110Y-138146217D03*
X136107110Y-137496207D03*
X136107110Y-136846217D03*
X136107110Y-136196217D03*
X136107110Y-135546217D03*
X130367110Y-135546217D03*
X130367110Y-136196217D03*
X130367110Y-136846217D03*
X130367110Y-137496207D03*
X130367110Y-138146217D03*
X130367110Y-138796207D03*
X130367110Y-139446217D03*
X130367110Y-140096207D03*
%TD*%
D13*
%TO.C,R5*%
X162320190Y-150140217D03*
X160504310Y-150140327D03*
%TD*%
D19*
%TO.C,C27*%
X139841110Y-103150217D03*
D20*
X139841110Y-108738217D03*
%TD*%
D40*
%TO.C,J1*%
X104826110Y-96316217D03*
X104826110Y-97316217D03*
X104826110Y-98316207D03*
X104826110Y-99316217D03*
D41*
X100951110Y-95016217D03*
X100951110Y-100616217D03*
%TD*%
D49*
%TO.C,U8*%
X158407110Y-88164217D03*
X176647110Y-88164217D03*
%TD*%
D13*
%TO.C,R39*%
X182513190Y-105690217D03*
X180697310Y-105690327D03*
%TD*%
D47*
%TO.C,SW1*%
X136539110Y-147498617D03*
D48*
X143651110Y-147498617D03*
X136539110Y-152019817D03*
X143651110Y-152019817D03*
%TD*%
D55*
%TO.C,U3*%
X188040110Y-119234767D03*
X188990110Y-119234767D03*
X189940110Y-119234767D03*
X189940110Y-116529667D03*
X188040110Y-116529667D03*
%TD*%
D28*
%TO.C,C14*%
X158510110Y-148832217D03*
X158510110Y-150432217D03*
%TD*%
D56*
%TO.C,D3*%
X144413110Y-143028217D03*
X146699110Y-143028217D03*
%TD*%
D29*
%TO.C,D9*%
X182894110Y-80798217D03*
X182894110Y-83084217D03*
%TD*%
D10*
%TO.C,R8*%
X119775110Y-139980297D03*
X119775000Y-138164417D03*
%TD*%
D27*
%TO.C,R32*%
X150509110Y-71654127D03*
X150509230Y-73470017D03*
%TD*%
D17*
%TO.C,R11*%
X108345030Y-135408217D03*
X110160910Y-135408097D03*
%TD*%
D47*
%TO.C,SW4*%
X138190110Y-60884617D03*
D48*
X145302110Y-60884617D03*
X138190110Y-65405817D03*
X145302110Y-65405817D03*
%TD*%
M02*
