%TF.GenerationSoftware,KiCad,Pcbnew,10.0.3*%
%TF.CreationDate,2026-08-24T21:41:08+07:00*%
%TF.ProjectId,RheoBoard_V9,5268656f-426f-4617-9264-5f56392e6b69,rev?*%
%TF.SameCoordinates,Original*%
%TF.FileFunction,Plated,1,2,PTH,Mixed*%
%TF.FilePolarity,Positive*%
%FSLAX46Y46*%
G04 Gerber Fmt 4.6, Leading zero omitted, Abs format (unit mm)*
G04 Created by KiCad (PCBNEW 10.0.3) date 2026-08-24 21:41:08*
%MOMM*%
%LPD*%
G01*
G04 APERTURE LIST*
%TA.AperFunction,ViaDrill*%
%ADD10C,0.300000*%
%TD*%
%TA.AperFunction,ViaDrill*%
%ADD11C,0.711200*%
%TD*%
%TA.AperFunction,ComponentDrill*%
%ADD12C,0.800000*%
%TD*%
%TA.AperFunction,ComponentDrill*%
%ADD13C,0.863600*%
%TD*%
%TA.AperFunction,ComponentDrill*%
%ADD14C,0.914400*%
%TD*%
%TA.AperFunction,ComponentDrill*%
%ADD15C,1.000000*%
%TD*%
%TA.AperFunction,ComponentDrill*%
%ADD16C,1.016000*%
%TD*%
%TA.AperFunction,ComponentDrill*%
%ADD17C,1.100000*%
%TD*%
G04 aperture for slot hole*
%TA.AperFunction,ComponentDrill*%
%ADD18C,1.270000*%
%TD*%
%TA.AperFunction,ComponentDrill*%
%ADD19C,4.000000*%
%TD*%
G04 APERTURE END LIST*
D10*
X100444090Y-105124227D03*
X100444090Y-135124217D03*
X100444090Y-141124217D03*
X100444090Y-147124217D03*
X100444090Y-153124217D03*
X101944090Y-78124237D03*
X101944090Y-126124227D03*
X101944090Y-138124217D03*
X101944090Y-144124217D03*
X101944090Y-150124217D03*
X102376110Y-98324217D03*
X102503110Y-87275217D03*
X102503110Y-121692217D03*
X103138110Y-99340217D03*
X103392110Y-88291217D03*
X103444090Y-117124227D03*
X103444090Y-129124227D03*
X103444090Y-135124217D03*
X103444090Y-141124217D03*
X103444090Y-147124217D03*
X103444090Y-153124217D03*
X104916110Y-119753537D03*
X104944090Y-102124227D03*
X104944090Y-126124227D03*
X104944090Y-150124217D03*
X106444090Y-69124237D03*
X106444090Y-75124237D03*
X106444090Y-111124227D03*
X106444090Y-129124227D03*
X106444090Y-153124217D03*
X106567110Y-120549217D03*
X107420310Y-132995217D03*
X107944090Y-66124237D03*
X107944090Y-72124237D03*
X107944090Y-84124237D03*
X107944090Y-90124237D03*
X107944090Y-96124237D03*
X107944090Y-102124227D03*
X107944090Y-108124227D03*
X107944090Y-126124227D03*
X109444090Y-63124247D03*
X109444090Y-99124227D03*
X109444090Y-105124227D03*
X109444090Y-123124227D03*
X109444090Y-147124217D03*
X110944090Y-102124227D03*
X110944090Y-114124227D03*
X110944090Y-132124217D03*
X110944090Y-150124217D03*
X111520110Y-128169217D03*
X112444090Y-63124247D03*
X112444090Y-81124237D03*
X112444090Y-87124237D03*
X112444090Y-93124237D03*
X112444090Y-111124227D03*
X112790110Y-128169217D03*
X113944090Y-60124247D03*
X113944090Y-66124237D03*
X113944090Y-84124237D03*
X113944090Y-96124237D03*
X113944090Y-108124227D03*
X113944090Y-126124227D03*
X113944090Y-138124217D03*
X113944090Y-150124217D03*
X115444090Y-63124247D03*
X115444090Y-81124237D03*
X115444090Y-129124227D03*
X115444090Y-135124217D03*
X116944090Y-60124247D03*
X116944090Y-66124237D03*
X116944090Y-72124237D03*
X116944090Y-78124237D03*
X116944090Y-84124237D03*
X116944090Y-150124217D03*
X118444090Y-69124237D03*
X118444090Y-81124237D03*
X118444090Y-93124237D03*
X118444090Y-99124227D03*
X118444090Y-117124227D03*
X118444090Y-141124217D03*
X119944090Y-66124237D03*
X119944090Y-72124237D03*
X119944090Y-84124237D03*
X119944090Y-96124237D03*
X119944090Y-108124227D03*
X119944090Y-114124227D03*
X121444090Y-69124237D03*
X121444090Y-75124237D03*
X121444090Y-87124237D03*
X121444090Y-99124227D03*
X121444090Y-117124227D03*
X121444090Y-135124217D03*
X122061110Y-133249297D03*
X122944090Y-72124237D03*
X122944090Y-78124237D03*
X122944090Y-150124217D03*
X122950110Y-138837217D03*
X124444080Y-69124237D03*
X124444080Y-75124237D03*
X124444080Y-135124217D03*
X125944080Y-60124247D03*
X125944080Y-66124237D03*
X125944080Y-72124237D03*
X125944080Y-78124237D03*
X125944080Y-84124237D03*
X125944080Y-90124237D03*
X125944080Y-108124227D03*
X125944080Y-114124227D03*
X125944080Y-150124217D03*
X126379110Y-119914217D03*
X127444080Y-63124247D03*
X127444080Y-69124237D03*
X127444080Y-75124237D03*
X127444080Y-81124237D03*
X127444080Y-87124237D03*
X127444080Y-93124237D03*
X127444080Y-135124217D03*
X127444080Y-147124217D03*
X128157110Y-139726217D03*
X128944080Y-60124247D03*
X128944080Y-66124237D03*
X128944080Y-72124237D03*
X128944080Y-78124237D03*
X128944080Y-84124237D03*
X128944080Y-90124237D03*
X128944080Y-96124237D03*
X128944080Y-108124227D03*
X128944080Y-144124217D03*
X130444080Y-63124247D03*
X130444080Y-69124237D03*
X130444080Y-75124237D03*
X130444080Y-81124237D03*
X130444080Y-87124237D03*
X130444080Y-93124237D03*
X130444080Y-99124227D03*
X130444080Y-147124217D03*
X131944080Y-60124247D03*
X131944080Y-66124237D03*
X131944080Y-72124237D03*
X131944080Y-78124237D03*
X131944080Y-84124237D03*
X131944080Y-90124237D03*
X131944080Y-96124237D03*
X132094110Y-137576207D03*
X132348110Y-132995217D03*
X132729110Y-136932217D03*
X133444080Y-63124247D03*
X133444080Y-69124237D03*
X133444080Y-75124237D03*
X133444080Y-81124237D03*
X133444080Y-123124227D03*
X133444080Y-129124227D03*
X134944080Y-60124247D03*
X134944080Y-126124227D03*
X136444080Y-75124237D03*
X136444080Y-81124237D03*
X136444080Y-93124237D03*
X136444080Y-99124227D03*
X136444080Y-105124227D03*
X136444080Y-117124227D03*
X136444080Y-123124227D03*
X136539110Y-120168217D03*
X137944080Y-78124237D03*
X137944080Y-84124237D03*
X137944080Y-90124237D03*
X137944080Y-96124237D03*
X137944080Y-108124227D03*
X137944080Y-114124227D03*
X137944080Y-126124227D03*
X139444080Y-63124247D03*
X139444080Y-69124237D03*
X139444080Y-117124227D03*
X139444080Y-141124217D03*
X140944080Y-108124227D03*
X140944080Y-120124227D03*
X142444080Y-63124247D03*
X142444080Y-69124237D03*
X142444080Y-123124227D03*
X142444080Y-141124217D03*
X143944080Y-138124217D03*
X144413110Y-132868217D03*
X144667110Y-123343217D03*
X145444080Y-63124247D03*
X145444080Y-75124237D03*
X145444080Y-111124227D03*
X145444080Y-141124217D03*
X145444080Y-153124217D03*
X146699110Y-127407217D03*
X146944080Y-60124247D03*
X146944080Y-66124237D03*
X146944080Y-72124237D03*
X146944080Y-108124227D03*
X146944080Y-114124227D03*
X146944080Y-120124227D03*
X146944080Y-138124217D03*
X146944080Y-150124217D03*
X147715110Y-130709217D03*
X148444080Y-63124247D03*
X148444080Y-75124237D03*
X148444080Y-111124227D03*
X148444080Y-141124217D03*
X148444080Y-147124217D03*
X148444080Y-153124217D03*
X148477110Y-127407217D03*
X149944080Y-108124227D03*
X149944080Y-114124227D03*
X149944080Y-132124217D03*
X149944080Y-138124217D03*
X149944080Y-150124217D03*
X150255110Y-121565217D03*
X151444080Y-63124247D03*
X151444080Y-141124217D03*
X151444080Y-147124217D03*
X151444080Y-153124217D03*
X152944080Y-60124247D03*
X154444080Y-99124227D03*
X154444080Y-105124227D03*
X154444080Y-147124217D03*
X154444080Y-153124217D03*
X155944080Y-102124227D03*
X155944080Y-108124227D03*
X155944080Y-114124227D03*
X155944080Y-120124227D03*
X157240110Y-141998217D03*
X157444070Y-63124247D03*
X157444070Y-69124237D03*
X157444070Y-75124237D03*
X157444070Y-99124227D03*
X157444070Y-111124227D03*
X157444070Y-117124227D03*
X157444070Y-153124217D03*
X158944070Y-78124237D03*
X158944070Y-96124237D03*
X158944070Y-114124227D03*
X158944070Y-120124227D03*
X158944070Y-132124217D03*
X158944070Y-138124217D03*
X160444070Y-63124247D03*
X160444070Y-69124237D03*
X160444070Y-75124237D03*
X160444070Y-81124237D03*
X160444070Y-93124237D03*
X160444070Y-99124227D03*
X160444070Y-105124227D03*
X160444070Y-111124227D03*
X160444070Y-117124227D03*
X160444070Y-129124227D03*
X161812110Y-143028217D03*
X161944070Y-78124237D03*
X161944070Y-96124237D03*
X161944070Y-108124227D03*
X161944070Y-114124227D03*
X161944070Y-120124227D03*
X163444070Y-63124247D03*
X163444070Y-81124237D03*
X163444070Y-87124237D03*
X163444070Y-93124237D03*
X163444070Y-99124227D03*
X163444070Y-105124227D03*
X163444070Y-111124227D03*
X163444070Y-117124227D03*
X164944070Y-60124247D03*
X164944070Y-66124237D03*
X164944070Y-72124237D03*
X164944070Y-84124237D03*
X164944070Y-90124237D03*
X164944070Y-96124237D03*
X164944070Y-108124227D03*
X164944070Y-114124227D03*
X164944070Y-120124227D03*
X164944070Y-150124217D03*
X166444070Y-63124247D03*
X166444070Y-69124237D03*
X166444070Y-75124237D03*
X166444070Y-81124237D03*
X166444070Y-87124237D03*
X166444070Y-93124237D03*
X166444070Y-99124227D03*
X166444070Y-105124227D03*
X166444070Y-111124227D03*
X166444070Y-117124227D03*
X166444070Y-141124217D03*
X166444070Y-147124217D03*
X166444070Y-153124217D03*
X167944070Y-60124247D03*
X167944070Y-66124237D03*
X167944070Y-72124237D03*
X167944070Y-84124237D03*
X167944070Y-90124237D03*
X167944070Y-96124237D03*
X167944070Y-108124227D03*
X167944070Y-114124227D03*
X167944070Y-120124227D03*
X167944070Y-132124217D03*
X167944070Y-138124217D03*
X167944070Y-150124217D03*
X169444070Y-63124247D03*
X169444070Y-69124237D03*
X169444070Y-75124237D03*
X169444070Y-87124237D03*
X169444070Y-93124237D03*
X169444070Y-99124227D03*
X169444070Y-105124227D03*
X169444070Y-111124227D03*
X169444070Y-117124227D03*
X169444070Y-141124217D03*
X169444070Y-147124217D03*
X169444070Y-153124217D03*
X170944070Y-60124247D03*
X170944070Y-66124237D03*
X170944070Y-72124237D03*
X170944070Y-78124237D03*
X170944070Y-90124237D03*
X170944070Y-96124237D03*
X170944070Y-108124227D03*
X170944070Y-114124227D03*
X170944070Y-120124227D03*
X170944070Y-150124217D03*
X172444070Y-63124247D03*
X172444070Y-69124237D03*
X172444070Y-75124237D03*
X172444070Y-81124237D03*
X172444070Y-87124237D03*
X172444070Y-153124217D03*
X173944070Y-60124247D03*
X173944070Y-78124237D03*
X173944070Y-126124227D03*
X175444070Y-63124247D03*
X175444070Y-81124237D03*
X175444070Y-93124237D03*
X175444070Y-99124227D03*
X175444070Y-105124227D03*
X175444070Y-111124227D03*
X175444070Y-117124227D03*
X175444070Y-129124227D03*
X176944070Y-60124247D03*
X176944070Y-78124237D03*
X176944070Y-84124237D03*
X176944070Y-96124237D03*
X176944070Y-102124227D03*
X176944070Y-108124227D03*
X176944070Y-114124227D03*
X176944070Y-126124227D03*
X176944070Y-138124217D03*
X178444070Y-63124247D03*
X178444070Y-81124237D03*
X178444070Y-93124237D03*
X178444070Y-105124227D03*
X178444070Y-111124227D03*
X178444070Y-117124227D03*
X178444070Y-123124227D03*
X178444070Y-141124217D03*
X178576110Y-143028217D03*
X179944070Y-60124247D03*
X179944070Y-84124237D03*
X179944070Y-90124237D03*
X179944070Y-114124227D03*
X179944070Y-120124227D03*
X179944070Y-150124217D03*
X181444070Y-63124247D03*
X181444070Y-123124227D03*
X181444070Y-147124217D03*
X181444070Y-153124217D03*
X182944070Y-60124247D03*
X182944070Y-66124237D03*
X184444070Y-99124227D03*
X184444070Y-105124227D03*
X184444070Y-147124217D03*
X184444070Y-153124217D03*
X185944070Y-96124237D03*
X185944070Y-102124227D03*
X185944070Y-132124217D03*
X185944070Y-150124217D03*
X187444070Y-69124237D03*
X187444070Y-87124237D03*
X187444070Y-93124237D03*
X187444070Y-99124227D03*
X187444070Y-105124227D03*
X187444070Y-135124217D03*
X187444070Y-147124217D03*
X187444070Y-153124217D03*
X188944070Y-72124237D03*
X188944070Y-108124227D03*
X188944070Y-132124217D03*
X188944070Y-150124217D03*
X190444060Y-69124237D03*
X190444060Y-75124237D03*
X190444060Y-87124237D03*
X190444060Y-93124237D03*
X190444060Y-99124227D03*
X190444060Y-123124227D03*
X190444060Y-129124227D03*
X190444060Y-147124217D03*
X190444060Y-153124217D03*
X191944060Y-90124237D03*
X191944060Y-108124227D03*
X191944060Y-126124227D03*
X191944060Y-132124217D03*
X191944060Y-138124217D03*
X191944060Y-144124217D03*
X191944060Y-150124217D03*
X193444060Y-99124227D03*
X193444060Y-105124227D03*
X193444060Y-123124227D03*
X193444060Y-129124227D03*
X193444060Y-141124217D03*
X193444060Y-147124217D03*
X193444060Y-153124217D03*
X193548110Y-94514217D03*
X193562110Y-82957217D03*
X194944060Y-102124227D03*
X194944060Y-108124227D03*
X194944060Y-114124227D03*
X194944060Y-120124227D03*
X194944060Y-126124227D03*
X194944060Y-132124217D03*
X194944060Y-144124217D03*
X194944060Y-150124217D03*
X195086110Y-83973217D03*
X195086110Y-95403217D03*
X196444060Y-57124247D03*
X196444060Y-63124247D03*
X196444060Y-69124237D03*
X196444060Y-75124237D03*
X196444060Y-105124227D03*
X196444060Y-111124227D03*
X196444060Y-117124227D03*
X196444060Y-123124227D03*
X196444060Y-129124227D03*
X196444060Y-135124217D03*
X196444060Y-147124217D03*
X196444060Y-153124217D03*
D11*
X123966110Y-112040217D03*
X134253110Y-110516217D03*
X135205610Y-114885017D03*
X149239110Y-144393217D03*
X172823110Y-150394217D03*
X173623110Y-110262217D03*
X174512110Y-121692217D03*
X176417030Y-150394217D03*
X181751110Y-100102217D03*
X182513110Y-109627217D03*
X183910110Y-125883217D03*
X193435110Y-115596217D03*
D12*
%TO.C,SW5*%
X185815110Y-111659217D03*
X193435110Y-111659217D03*
D13*
%TO.C,U9*%
X110250110Y-65939217D03*
X110250110Y-68479217D03*
%TO.C,U10*%
X174512110Y-66447217D03*
X174512110Y-68987217D03*
D14*
%TO.C,J3*%
X101741110Y-64770817D03*
X101741110Y-67336217D03*
X101741110Y-69825417D03*
X101741110Y-72390817D03*
D15*
%TO.C,TP2*%
X108980110Y-141631217D03*
%TO.C,TP3*%
X112536110Y-141504217D03*
%TO.C,TP1*%
X116092110Y-141504217D03*
D16*
%TO.C,JP1*%
X101360110Y-128931217D03*
X101360120Y-131471217D03*
D17*
%TO.C,SW2*%
X112917110Y-147117617D03*
X112917110Y-151638817D03*
X120029110Y-147117617D03*
X120029110Y-151638817D03*
%TO.C,SW1*%
X136539110Y-147498617D03*
X136539110Y-152019817D03*
%TO.C,SW4*%
X138190110Y-60884617D03*
X138190110Y-65405817D03*
%TO.C,SW1*%
X143651110Y-147498617D03*
X143651110Y-152019817D03*
%TO.C,SW4*%
X145302110Y-60884617D03*
X145302110Y-65405817D03*
%TO.C,SW3*%
X155462110Y-61011617D03*
X155462110Y-65532817D03*
X162574110Y-61011617D03*
X162574110Y-65532817D03*
%TO.C,JDC1*%
D18*
X189498110Y-138456217D02*
X189498110Y-139726217D01*
X191403110Y-134011217D02*
X192673110Y-134011217D01*
X195848110Y-138456217D02*
X195848110Y-139726217D01*
D19*
%TO.C,U7*%
X116624110Y-88164217D03*
X134864110Y-88164217D03*
%TO.C,U8*%
X158407110Y-88164217D03*
X176647110Y-88164217D03*
M02*
