%TF.GenerationSoftware,KiCad,Pcbnew,10.0.3*%
%TF.CreationDate,2026-08-24T21:40:55+07:00*%
%TF.ProjectId,RheoBoard_V9,5268656f-426f-4617-9264-5f56392e6b69,rev?*%
%TF.SameCoordinates,Original*%
%TF.FileFunction,Soldermask,Bot*%
%TF.FilePolarity,Negative*%
%FSLAX46Y46*%
G04 Gerber Fmt 4.6, Leading zero omitted, Abs format (unit mm)*
G04 Created by KiCad (PCBNEW 10.0.3) date 2026-08-24 21:40:55*
%MOMM*%
%LPD*%
G01*
G04 APERTURE LIST*
G04 Aperture macros list*
%AMRoundRect*
0 Rectangle with rounded corners*
0 $1 Rounding radius*
0 $2 $3 $4 $5 $6 $7 $8 $9 X,Y pos of 4 corners*
0 Add a 4 corners polygon primitive as box body*
4,1,4,$2,$3,$4,$5,$6,$7,$8,$9,$2,$3,0*
0 Add four circle primitives for the rounded corners*
1,1,$1+$1,$2,$3*
1,1,$1+$1,$4,$5*
1,1,$1+$1,$6,$7*
1,1,$1+$1,$8,$9*
0 Add four rect primitives between the rounded corners*
20,1,$1+$1,$2,$3,$4,$5,0*
20,1,$1+$1,$4,$5,$6,$7,0*
20,1,$1+$1,$6,$7,$8,$9,0*
20,1,$1+$1,$8,$9,$2,$3,0*%
%AMFreePoly0*
4,1,25,1.059719,1.082196,1.071842,1.071842,1.571842,0.571842,1.600349,0.515894,1.601600,0.500000,1.601600,-0.500000,1.582196,-0.559719,1.571842,-0.571842,1.071842,-1.071842,1.015894,-1.100349,1.000000,-1.101600,-1.000000,-1.101600,-1.059719,-1.082196,-1.071842,-1.071842,-1.571842,-0.571842,-1.600349,-0.515894,-1.601600,-0.500000,-1.601600,0.500000,-1.582196,0.559719,-1.571842,0.571842,
-1.071842,1.071842,-1.015894,1.100349,-1.000000,1.101600,1.000000,1.101600,1.059719,1.082196,1.059719,1.082196,$1*%
G04 Aperture macros list end*
%ADD10RoundRect,0.101600X0.650000X-0.650000X0.650000X0.650000X-0.650000X0.650000X-0.650000X-0.650000X0*%
%ADD11C,1.503200*%
%ADD12FreePoly0,0.000000*%
%ADD13C,6.203200*%
%ADD14RoundRect,0.101600X-1.143000X0.952500X-1.143000X-0.952500X1.143000X-0.952500X1.143000X0.952500X0*%
%ADD15O,2.489200X2.108200*%
%ADD16C,1.981200*%
%ADD17RoundRect,0.101600X-0.825500X-0.825500X0.825500X-0.825500X0.825500X0.825500X-0.825500X0.825500X0*%
%ADD18C,1.854200*%
%ADD19C,5.203200*%
%ADD20O,2.743200X4.267200*%
%ADD21O,4.267200X2.743200*%
%ADD22O,2.108200X1.854200*%
G04 APERTURE END LIST*
D10*
%TO.C,SW5*%
X193435110Y-111659217D03*
D11*
X185815110Y-111659217D03*
%TD*%
D12*
%TO.C,TP2*%
X108980110Y-141631217D03*
%TD*%
%TO.C,TP3*%
X112536110Y-141504217D03*
%TD*%
D13*
%TO.C,U9*%
X122061110Y-62891217D03*
D14*
X110250110Y-65939217D03*
D15*
X110250110Y-68479217D03*
%TD*%
D16*
%TO.C,JP1*%
X101360110Y-128931217D03*
X101360120Y-131471217D03*
%TD*%
D17*
%TO.C,SW2*%
X112917110Y-147117617D03*
D18*
X120029110Y-147117617D03*
X112917110Y-151638817D03*
X120029110Y-151638817D03*
%TD*%
D19*
%TO.C,U7*%
X116624110Y-88164217D03*
X134864110Y-88164217D03*
%TD*%
D17*
%TO.C,SW3*%
X155462110Y-61011617D03*
D18*
X162574110Y-61011617D03*
X155462110Y-65532817D03*
X162574110Y-65532817D03*
%TD*%
D20*
%TO.C,JDC1*%
X189498110Y-139091217D03*
X195848110Y-139091217D03*
D21*
X192038110Y-134011217D03*
%TD*%
D13*
%TO.C,U10*%
X186323110Y-63399217D03*
D14*
X174512110Y-66447217D03*
D15*
X174512110Y-68987217D03*
%TD*%
D22*
%TO.C,J3*%
X101741110Y-72390817D03*
X101741110Y-69825417D03*
X101741110Y-67336217D03*
X101741110Y-64770817D03*
%TD*%
D12*
%TO.C,TP1*%
X116092110Y-141504217D03*
%TD*%
D19*
%TO.C,U8*%
X158407110Y-88164217D03*
X176647110Y-88164217D03*
%TD*%
D17*
%TO.C,SW1*%
X136539110Y-147498617D03*
D18*
X143651110Y-147498617D03*
X136539110Y-152019817D03*
X143651110Y-152019817D03*
%TD*%
D17*
%TO.C,SW4*%
X138190110Y-60884617D03*
D18*
X145302110Y-60884617D03*
X138190110Y-65405817D03*
X145302110Y-65405817D03*
%TD*%
M02*
