%TF.GenerationSoftware,KiCad,Pcbnew,10.0.3*%
%TF.CreationDate,2026-08-24T21:40:55+07:00*%
%TF.ProjectId,RheoBoard_V9,5268656f-426f-4617-9264-5f56392e6b69,rev?*%
%TF.SameCoordinates,Original*%
%TF.FileFunction,Copper,L2,Bot*%
%TF.FilePolarity,Positive*%
%FSLAX46Y46*%
G04 Gerber Fmt 4.6, Leading zero omitted, Abs format (unit mm)*
G04 Created by KiCad (PCBNEW 10.0.3) date 2026-08-24 21:40:55*
%MOMM*%
%LPD*%
G01*
G04 APERTURE LIST*
G04 Aperture macros list*
%AMOutline5P*
0 Free polygon, 5 corners , with rotation*
0 The origin of the aperture is its center*
0 number of corners: always 5*
0 $1 to $10 corner X, Y*
0 $11 Rotation angle, in degrees counterclockwise*
0 create outline with 5 corners*
4,1,5,$1,$2,$3,$4,$5,$6,$7,$8,$9,$10,$1,$2,$11*%
%AMOutline6P*
0 Free polygon, 6 corners , with rotation*
0 The origin of the aperture is its center*
0 number of corners: always 6*
0 $1 to $12 corner X, Y*
0 $13 Rotation angle, in degrees counterclockwise*
0 create outline with 6 corners*
4,1,6,$1,$2,$3,$4,$5,$6,$7,$8,$9,$10,$11,$12,$1,$2,$13*%
%AMOutline7P*
0 Free polygon, 7 corners , with rotation*
0 The origin of the aperture is its center*
0 number of corners: always 7*
0 $1 to $14 corner X, Y*
0 $15 Rotation angle, in degrees counterclockwise*
0 create outline with 7 corners*
4,1,7,$1,$2,$3,$4,$5,$6,$7,$8,$9,$10,$11,$12,$13,$14,$1,$2,$15*%
%AMOutline8P*
0 Free polygon, 8 corners , with rotation*
0 The origin of the aperture is its center*
0 number of corners: always 8*
0 $1 to $16 corner X, Y*
0 $17 Rotation angle, in degrees counterclockwise*
0 create outline with 8 corners*
4,1,8,$1,$2,$3,$4,$5,$6,$7,$8,$9,$10,$11,$12,$13,$14,$15,$16,$1,$2,$17*%
G04 Aperture macros list end*
%TA.AperFunction,ComponentPad*%
%ADD10R,1.300000X1.300000*%
%TD*%
%TA.AperFunction,ComponentPad*%
%ADD11C,1.300000*%
%TD*%
%TA.AperFunction,ComponentPad*%
%ADD12Outline8P,-1.500000X0.500000X-1.000000X1.000000X1.000000X1.000000X1.500000X0.500000X1.500000X-0.500000X1.000000X-1.000000X-1.000000X-1.000000X-1.500000X-0.500000X0.000000*%
%TD*%
%TA.AperFunction,WasherPad*%
%ADD13C,6.000000*%
%TD*%
%TA.AperFunction,ComponentPad*%
%ADD14R,2.286000X1.905000*%
%TD*%
%TA.AperFunction,ComponentPad*%
%ADD15O,2.286000X1.905000*%
%TD*%
%TA.AperFunction,ComponentPad*%
%ADD16C,1.778000*%
%TD*%
%TA.AperFunction,ComponentPad*%
%ADD17R,1.651000X1.651000*%
%TD*%
%TA.AperFunction,ComponentPad*%
%ADD18C,1.651000*%
%TD*%
%TA.AperFunction,ComponentPad*%
%ADD19C,5.000000*%
%TD*%
%TA.AperFunction,ComponentPad*%
%ADD20O,2.540000X4.064000*%
%TD*%
%TA.AperFunction,ComponentPad*%
%ADD21O,4.064000X2.540000*%
%TD*%
%TA.AperFunction,ComponentPad*%
%ADD22O,1.905000X1.651000*%
%TD*%
%TA.AperFunction,ViaPad*%
%ADD23C,0.600000*%
%TD*%
%TA.AperFunction,ViaPad*%
%ADD24C,1.270000*%
%TD*%
%TA.AperFunction,Conductor*%
%ADD25C,0.600000*%
%TD*%
%TA.AperFunction,Conductor*%
%ADD26C,1.000000*%
%TD*%
%TA.AperFunction,Conductor*%
%ADD27C,0.800000*%
%TD*%
%TA.AperFunction,Conductor*%
%ADD28C,0.400000*%
%TD*%
G04 APERTURE END LIST*
D10*
%TO.P,SW5,1*%
%TO.N,3V3*%
X193435110Y-111659217D03*
D11*
%TO.P,SW5,2*%
%TO.N,NetC17_2*%
X185815110Y-111659217D03*
%TD*%
D12*
%TO.P,TP2,1*%
%TO.N,RES*%
X108980110Y-141631217D03*
%TD*%
%TO.P,TP3,1*%
%TO.N,NetTP3_1*%
X112536110Y-141504217D03*
%TD*%
D13*
%TO.P,U9,*%
%TO.N,*%
X122061110Y-62891217D03*
D14*
%TO.P,U9,1*%
%TO.N,6V*%
X110250110Y-65939217D03*
D15*
%TO.P,U9,2*%
%TO.N,NetD10_2*%
X110250110Y-68479217D03*
%TD*%
D16*
%TO.P,JP1,1*%
%TO.N,NetJP1_1*%
X101360110Y-128931217D03*
%TO.P,JP1,2*%
%TO.N,D3V3*%
X101360120Y-131471217D03*
%TD*%
D17*
%TO.P,SW2,1*%
%TO.N,PUMP2_IN*%
X112917110Y-147117617D03*
D18*
X120029110Y-147117617D03*
%TO.P,SW2,2*%
X112917110Y-151638817D03*
X120029110Y-151638817D03*
%TD*%
D19*
%TO.P,U7,1*%
%TO.N,4V5*%
X116624110Y-88164217D03*
%TO.P,U7,2*%
%TO.N,NetD5_2*%
X134864110Y-88164217D03*
%TD*%
D17*
%TO.P,SW3,1*%
%TO.N,VALVE2_IN*%
X155462110Y-61011617D03*
D18*
X162574110Y-61011617D03*
%TO.P,SW3,2*%
X155462110Y-65532817D03*
X162574110Y-65532817D03*
%TD*%
D20*
%TO.P,JDC1,1*%
%TO.N,+12*%
X189498110Y-139091217D03*
%TO.P,JDC1,2*%
%TO.N,GND*%
X195848110Y-139091217D03*
D21*
%TO.P,JDC1,3*%
X192038110Y-134011217D03*
%TD*%
D13*
%TO.P,U10,*%
%TO.N,*%
X186323110Y-63399217D03*
D14*
%TO.P,U10,1*%
%TO.N,6V*%
X174512110Y-66447217D03*
D15*
%TO.P,U10,2*%
%TO.N,NetD11_2*%
X174512110Y-68987217D03*
%TD*%
D22*
%TO.P,J3,1*%
%TO.N,GND*%
X101741110Y-72390817D03*
%TO.P,J3,2*%
%TO.N,D3V3*%
X101741110Y-69825417D03*
%TO.P,J3,3*%
%TO.N,SDA*%
X101741110Y-67336217D03*
%TO.P,J3,4*%
%TO.N,SCL*%
X101741110Y-64770817D03*
%TD*%
D12*
%TO.P,TP1,1*%
%TO.N,NetR8_2*%
X116092110Y-141504217D03*
%TD*%
D19*
%TO.P,U8,1*%
%TO.N,4V5*%
X158407110Y-88164217D03*
%TO.P,U8,2*%
%TO.N,NetD7_2*%
X176647110Y-88164217D03*
%TD*%
D17*
%TO.P,SW1,1*%
%TO.N,PUMP1_IN*%
X136539110Y-147498617D03*
D18*
X143651110Y-147498617D03*
%TO.P,SW1,2*%
X136539110Y-152019817D03*
X143651110Y-152019817D03*
%TD*%
D17*
%TO.P,SW4,1*%
%TO.N,VALVE1_IN*%
X138190110Y-60884617D03*
D18*
X145302110Y-60884617D03*
%TO.P,SW4,2*%
X138190110Y-65405817D03*
X145302110Y-65405817D03*
%TD*%
D23*
%TO.N,NetR38_1*%
X126379110Y-119914217D03*
X144413110Y-132868217D03*
%TO.N,NetR37_1*%
X148477110Y-127407217D03*
D24*
X182513110Y-109627217D03*
%TO.N,NetC17_2*%
X193435110Y-115596217D03*
%TO.N,NetR33_1*%
X174512110Y-121692217D03*
D23*
X146699110Y-127407217D03*
%TO.N,NetR30_1*%
X136539110Y-120168217D03*
X147715110Y-130709217D03*
D24*
%TO.N,NetD11_2*%
X181751110Y-100102217D03*
%TO.N,NetD10_2*%
X123966110Y-112040217D03*
%TO.N,NetD7_2*%
X173623110Y-110262217D03*
D23*
%TO.N,VALVE1_IN*%
X144667110Y-123343217D03*
D24*
%TO.N,NetD5_2*%
X134253110Y-110516217D03*
D23*
%TO.N,PUMP2_IN*%
X132094110Y-137576207D03*
%TO.N,PUMP1_IN*%
X132729110Y-136932217D03*
%TO.N,4V5*%
X122061110Y-133249297D03*
D24*
X183910110Y-125883217D03*
D23*
%TO.N,SDA*%
X102503110Y-87275217D03*
X195086110Y-83973217D03*
X195086110Y-95403217D03*
X102503110Y-121692217D03*
X111520110Y-128169217D03*
X102376110Y-98324217D03*
X128157110Y-139726217D03*
%TO.N,SCL*%
X103138110Y-99340217D03*
X112790110Y-128169217D03*
X193548110Y-94514217D03*
X103392110Y-88291217D03*
X193562110Y-82957217D03*
X122950110Y-138837217D03*
X106567110Y-120549217D03*
%TO.N,VALVE2_IN*%
X150255110Y-121565217D03*
%TO.N,VIN*%
X132348110Y-132995217D03*
X161812110Y-143028217D03*
X178576110Y-143028217D03*
%TO.N,GND*%
X191944060Y-150124217D03*
X151444080Y-153124217D03*
X101944090Y-144124217D03*
X149944080Y-108124227D03*
X176944070Y-84124237D03*
X133444080Y-123124227D03*
X146944080Y-60124247D03*
X157444070Y-63124247D03*
X194944060Y-108124227D03*
X116944090Y-150124217D03*
X181444070Y-147124217D03*
X149944080Y-138124217D03*
X196444060Y-69124237D03*
X169444070Y-99124227D03*
X142444080Y-123124227D03*
X137944080Y-78124237D03*
X161944070Y-108124227D03*
X196444060Y-129124227D03*
X164944070Y-108124227D03*
X194944060Y-150124217D03*
X194944060Y-120124227D03*
X121444090Y-75124237D03*
X196444060Y-63124247D03*
X121444090Y-117124227D03*
X164944070Y-72124237D03*
X169444070Y-87124237D03*
X175444070Y-63124247D03*
X130444080Y-99124227D03*
X109444090Y-105124227D03*
X166444070Y-141124217D03*
X158944070Y-120124227D03*
X167944070Y-96124237D03*
X128944080Y-90124237D03*
X142444080Y-63124247D03*
X115444090Y-63124247D03*
X133444080Y-69124237D03*
X133444080Y-129124227D03*
X124444080Y-75124237D03*
X128944080Y-72124237D03*
X154444080Y-99124227D03*
X169444070Y-69124237D03*
X107944090Y-126124227D03*
X136444080Y-81124237D03*
X196444060Y-117124227D03*
X119944090Y-66124237D03*
X154444080Y-153124217D03*
X175444070Y-105124227D03*
X170944070Y-78124237D03*
X167944070Y-60124247D03*
X149944080Y-114124227D03*
X191944060Y-126124227D03*
X121444090Y-69124237D03*
X104944090Y-126124227D03*
X191944060Y-90124237D03*
X137944080Y-126124227D03*
X157444070Y-75124237D03*
X127444080Y-69124237D03*
D24*
X149239110Y-144393217D03*
D23*
X103444090Y-129124227D03*
X122944090Y-78124237D03*
X137944080Y-84124237D03*
X125944080Y-114124227D03*
X175444070Y-129124227D03*
X128944080Y-60124247D03*
X146944080Y-150124217D03*
X130444080Y-69124237D03*
X190444060Y-87124237D03*
X163444070Y-99124227D03*
X119944090Y-84124237D03*
X127444080Y-81124237D03*
X113944090Y-66124237D03*
X110944090Y-102124227D03*
X113944090Y-96124237D03*
X151444080Y-141124217D03*
X160444070Y-93124237D03*
X100444090Y-141124217D03*
X164944070Y-96124237D03*
X185944070Y-150124217D03*
X191944060Y-138124217D03*
X103444090Y-141124217D03*
X169444070Y-111124227D03*
D24*
X176417030Y-150394217D03*
D23*
X178444070Y-111124227D03*
X106444090Y-69124237D03*
X127444080Y-93124237D03*
X178444070Y-123124227D03*
X166444070Y-69124237D03*
X106444090Y-75124237D03*
X166444070Y-87124237D03*
X130444080Y-147124217D03*
X130444080Y-75124237D03*
X196444060Y-153124217D03*
X160444070Y-63124247D03*
X155944080Y-120124227D03*
X119944090Y-96124237D03*
X166444070Y-117124227D03*
X170944070Y-108124227D03*
X146944080Y-66124237D03*
X160444070Y-69124237D03*
X178444070Y-63124247D03*
X190444060Y-93124237D03*
X196444060Y-135124217D03*
X178444070Y-81124237D03*
X106444090Y-153124217D03*
X187444070Y-93124237D03*
X125944080Y-78124237D03*
X152944080Y-60124247D03*
X179944070Y-120124227D03*
X136444080Y-75124237D03*
X160444070Y-99124227D03*
X107944090Y-96124237D03*
X131944080Y-72124237D03*
X112444090Y-111124227D03*
X187444070Y-147124217D03*
X118444090Y-117124227D03*
X127444080Y-63124247D03*
X131944080Y-90124237D03*
X107944090Y-102124227D03*
X118444090Y-99124227D03*
X175444070Y-111124227D03*
X155944080Y-114124227D03*
X101944090Y-126124227D03*
X128944080Y-108124227D03*
X188944070Y-72124237D03*
X160444070Y-105124227D03*
X115444090Y-129124227D03*
X167944070Y-114124227D03*
X109444090Y-147124217D03*
X113944090Y-126124227D03*
X160444070Y-81124237D03*
X125944080Y-66124237D03*
X172444070Y-153124217D03*
X173944070Y-60124247D03*
X119944090Y-114124227D03*
X136444080Y-93124237D03*
X137944080Y-90124237D03*
X157444070Y-111124227D03*
X155944080Y-108124227D03*
X101944090Y-78124237D03*
X164944070Y-66124237D03*
X193444060Y-123124227D03*
X179944070Y-150124217D03*
X181444070Y-123124227D03*
X116944090Y-72124237D03*
X154444080Y-147124217D03*
X176944070Y-60124247D03*
X124444080Y-69124237D03*
X100444090Y-153124217D03*
X103444090Y-135124217D03*
X194944060Y-102124227D03*
X107420310Y-132995217D03*
X163444070Y-87124237D03*
X125944080Y-90124237D03*
X148444080Y-111124227D03*
X193444060Y-99124227D03*
X134944080Y-60124247D03*
X151444080Y-147124217D03*
X175444070Y-93124237D03*
X187444070Y-153124217D03*
X184444070Y-147124217D03*
X166444070Y-99124227D03*
X139444080Y-69124237D03*
X163444070Y-105124227D03*
X115444090Y-81124237D03*
X130444080Y-81124237D03*
X158944070Y-132124217D03*
X136444080Y-117124227D03*
X131944080Y-60124247D03*
X128944080Y-78124237D03*
X166444070Y-105124227D03*
X136444080Y-105124227D03*
X154444080Y-105124227D03*
X179944070Y-114124227D03*
X169444070Y-141124217D03*
X196444060Y-111124227D03*
X100444090Y-147124217D03*
X172444070Y-69124237D03*
X104944090Y-102124227D03*
X170944070Y-60124247D03*
X172444070Y-87124237D03*
X160444070Y-117124227D03*
X106444090Y-129124227D03*
X157444070Y-153124217D03*
X119944090Y-108124227D03*
X169444070Y-63124247D03*
X188944070Y-150124217D03*
X188944070Y-108124227D03*
X121444090Y-87124237D03*
X100444090Y-105124227D03*
X133444080Y-63124247D03*
X173944070Y-126124227D03*
X143944080Y-138124217D03*
X109444090Y-99124227D03*
X121444090Y-135124217D03*
X142444080Y-69124237D03*
X166444070Y-153124217D03*
X127444080Y-87124237D03*
X193444060Y-147124217D03*
X128944080Y-144124217D03*
X170944070Y-66124237D03*
X187444070Y-99124227D03*
X181444070Y-153124217D03*
X193444060Y-141124217D03*
X157444070Y-99124227D03*
X196444060Y-57124247D03*
X140944080Y-120124227D03*
X112444090Y-93124237D03*
X178444070Y-105124227D03*
X172444070Y-75124237D03*
X146944080Y-114124227D03*
X158944070Y-78124237D03*
X149944080Y-150124217D03*
X179944070Y-90124237D03*
X148444080Y-153124217D03*
X167944070Y-90124237D03*
X131944080Y-78124237D03*
X182944070Y-60124247D03*
X160444070Y-129124227D03*
X115444090Y-135124217D03*
X121444090Y-99124227D03*
X191944060Y-132124217D03*
X139444080Y-117124227D03*
X170944070Y-96124237D03*
X116944090Y-78124237D03*
X112444090Y-81124237D03*
X157444070Y-69124237D03*
X130444080Y-93124237D03*
X158944070Y-138124217D03*
X137944080Y-108124227D03*
X109444090Y-123124227D03*
X148444080Y-63124247D03*
X118444090Y-81124237D03*
X164944070Y-84124237D03*
X190444060Y-99124227D03*
X191944060Y-144124217D03*
X157240110Y-141998217D03*
X179944070Y-84124237D03*
X131944080Y-96124237D03*
X188944070Y-132124217D03*
X164944070Y-150124217D03*
X157444070Y-117124227D03*
X190444060Y-129124227D03*
X184444070Y-105124227D03*
X116944090Y-66124237D03*
X113944090Y-60124247D03*
X194944060Y-114124227D03*
X103444090Y-117124227D03*
X178444070Y-93124237D03*
X110944090Y-114124227D03*
X113944090Y-138124217D03*
X127444080Y-135124217D03*
X169444070Y-117124227D03*
X100444090Y-135124217D03*
X170944070Y-114124227D03*
X131944080Y-66124237D03*
X128944080Y-96124237D03*
X148444080Y-147124217D03*
X169444070Y-105124227D03*
X161944070Y-114124227D03*
X173944070Y-78124237D03*
X190444060Y-153124217D03*
X190444060Y-75124237D03*
X187444070Y-105124227D03*
X107944090Y-66124237D03*
X163444070Y-117124227D03*
X113944090Y-150124217D03*
X107944090Y-90124237D03*
X166444070Y-63124247D03*
X133444080Y-81124237D03*
D24*
X135205610Y-114885017D03*
D23*
X112444090Y-63124247D03*
X122944090Y-72124237D03*
X176944070Y-96124237D03*
X167944070Y-72124237D03*
X103444090Y-147124217D03*
X145444080Y-141124217D03*
X145444080Y-75124237D03*
X193444060Y-105124227D03*
X176944070Y-108124227D03*
X184444070Y-99124227D03*
X124444080Y-135124217D03*
X169444070Y-153124217D03*
X176944070Y-102124227D03*
X130444080Y-87124237D03*
X155944080Y-102124227D03*
X107944090Y-72124237D03*
X191944060Y-108124227D03*
X169444070Y-93124237D03*
X139444080Y-63124247D03*
X125944080Y-84124237D03*
X127444080Y-147124217D03*
X139444080Y-141124217D03*
X161944070Y-96124237D03*
X167944070Y-66124237D03*
X167944070Y-132124217D03*
X110944090Y-132124217D03*
X175444070Y-81124237D03*
X196444060Y-75124237D03*
X187444070Y-87124237D03*
X140944080Y-108124227D03*
X160444070Y-75124237D03*
X170944070Y-72124237D03*
X185944070Y-132124217D03*
X118444090Y-93124237D03*
X130444080Y-63124247D03*
X136444080Y-123124227D03*
X190444060Y-147124217D03*
X119944090Y-72124237D03*
X176944070Y-114124227D03*
X131944080Y-84124237D03*
X101944090Y-150124217D03*
X167944070Y-120124227D03*
X194944060Y-132124217D03*
X134944080Y-126124227D03*
X142444080Y-141124217D03*
X101944090Y-138124217D03*
X161944070Y-120124227D03*
X169444070Y-75124237D03*
X158944070Y-96124237D03*
X169444070Y-147124217D03*
X113944090Y-108124227D03*
X137944080Y-96124237D03*
X149944080Y-132124217D03*
X136444080Y-99124227D03*
X107944090Y-108124227D03*
X166444070Y-81124237D03*
X178444070Y-141124217D03*
X128944080Y-84124237D03*
X125944080Y-108124227D03*
X193444060Y-153124217D03*
X170944070Y-120124227D03*
X179944070Y-60124247D03*
X164944070Y-60124247D03*
X181444070Y-63124247D03*
X118444090Y-69124237D03*
X164944070Y-120124227D03*
X122944090Y-150124217D03*
X106444090Y-111124227D03*
X170944070Y-90124237D03*
X185944070Y-96124237D03*
X158944070Y-114124227D03*
X148444080Y-141124217D03*
X110944090Y-150124217D03*
X104916110Y-119753537D03*
X166444070Y-111124227D03*
X113944090Y-84124237D03*
X160444070Y-111124227D03*
X125944080Y-150124217D03*
X170944070Y-150124217D03*
X133444080Y-75124237D03*
X145444080Y-153124217D03*
X104944090Y-150124217D03*
X148444080Y-75124237D03*
D24*
X172823110Y-150394217D03*
D23*
X190444060Y-69124237D03*
X163444070Y-63124247D03*
X128944080Y-66124237D03*
X103444090Y-153124217D03*
X175444070Y-99124227D03*
X145444080Y-111124227D03*
X166444070Y-75124237D03*
X194944060Y-126124227D03*
X137944080Y-114124227D03*
X167944070Y-150124217D03*
X193444060Y-129124227D03*
X167944070Y-138124217D03*
X146944080Y-120124227D03*
X166444070Y-93124237D03*
X172444070Y-81124237D03*
X176944070Y-78124237D03*
X109444090Y-63124247D03*
X116944090Y-60124247D03*
X178444070Y-117124227D03*
X196444060Y-105124227D03*
X190444060Y-123124227D03*
X164944070Y-114124227D03*
X172444070Y-63124247D03*
X185944070Y-102124227D03*
X146944080Y-108124227D03*
X145444080Y-63124247D03*
X194944060Y-144124217D03*
X163444070Y-111124227D03*
X151444080Y-63124247D03*
X167944070Y-84124237D03*
X118444090Y-141124217D03*
X187444070Y-69124237D03*
X196444060Y-123124227D03*
X116944090Y-84124237D03*
X184444070Y-153124217D03*
X107944090Y-84124237D03*
X176944070Y-138124217D03*
X125944080Y-72124237D03*
X196444060Y-147124217D03*
X163444070Y-93124237D03*
X164944070Y-90124237D03*
X175444070Y-117124227D03*
X125944080Y-60124247D03*
X166444070Y-147124217D03*
X163444070Y-81124237D03*
X161944070Y-78124237D03*
X167944070Y-108124227D03*
X176944070Y-126124227D03*
X182944070Y-66124237D03*
X146944080Y-138124217D03*
X127444080Y-75124237D03*
X187444070Y-135124217D03*
X112444090Y-87124237D03*
X146944080Y-72124237D03*
%TD*%
%TO.N,NetR38_1*%
D25*
X126379110Y-119914217D02*
X139333110Y-132868217D01*
X139333110Y-132868217D02*
X144413110Y-132868217D01*
%TO.N,NetR37_1*%
D26*
X182513110Y-115621617D02*
X182513110Y-109627217D01*
X148477110Y-127407217D02*
X151051910Y-124832417D01*
X173302320Y-124832417D02*
X182513110Y-115621617D01*
X151051910Y-124832417D02*
X173302320Y-124832417D01*
%TO.N,NetC17_2*%
X189498110Y-111659217D02*
X193435110Y-115596217D01*
X185815110Y-111659217D02*
X189498110Y-111659217D01*
%TO.N,NetR33_1*%
X152414110Y-121692217D02*
X174512110Y-121692217D01*
X146699110Y-127407217D02*
X152414110Y-121692217D01*
%TO.N,NetR30_1*%
D25*
X136539110Y-120168217D02*
X147080110Y-130709217D01*
X147080110Y-130709217D02*
X147715110Y-130709217D01*
%TO.N,NetD11_2*%
D27*
X174702610Y-68987217D02*
X181751110Y-76035717D01*
X181751110Y-100102217D02*
X181751110Y-76035717D01*
X174512110Y-68987217D02*
X174702610Y-68987217D01*
%TO.N,NetD10_2*%
X110250110Y-68479217D02*
X110440610Y-68479217D01*
X110440610Y-68479217D02*
X123966110Y-82004717D01*
X123966110Y-112040217D02*
X123966110Y-82004717D01*
%TO.N,NetD7_2*%
D26*
X173623110Y-91188217D02*
X176647110Y-88164217D01*
X173623110Y-110262217D02*
X173623110Y-91188217D01*
%TO.N,VALVE1_IN*%
X135142110Y-62510217D02*
X136592760Y-61059567D01*
X135142110Y-66955217D02*
X135142110Y-62510217D01*
X142762110Y-121438217D02*
X142762110Y-74575217D01*
X135142110Y-66955217D02*
X142762110Y-74575217D01*
X136592760Y-61059567D02*
X138015160Y-61059567D01*
X142762110Y-121438217D02*
X144667110Y-123343217D01*
X138015160Y-61059567D02*
X138190110Y-60884617D01*
%TO.N,NetD5_2*%
X134304770Y-110464547D02*
X134304770Y-88723547D01*
X134304770Y-88723547D02*
X134864110Y-88164217D01*
X134253110Y-110516217D02*
X134304770Y-110464547D01*
%TO.N,PUMP2_IN*%
D25*
X120029110Y-151638817D02*
X127547510Y-151638817D01*
X132094110Y-147092217D02*
X132094110Y-137576207D01*
X127547510Y-151638817D02*
X132094110Y-147092217D01*
%TO.N,PUMP1_IN*%
D28*
X132729110Y-136986337D02*
X133069110Y-137326327D01*
X133069110Y-148549807D02*
X136539110Y-152019817D01*
X132729110Y-136986337D02*
X132729110Y-136932217D01*
X133069110Y-148549807D02*
X133069110Y-137326327D01*
%TO.N,4V5*%
D26*
X132857590Y-131765217D02*
X136245110Y-135152727D01*
X136245110Y-135152727D02*
X174640590Y-135152727D01*
X174640590Y-135152727D02*
X183910110Y-125883217D01*
X122061110Y-133249297D02*
X123545190Y-131765217D01*
X116624110Y-127812297D02*
X122061110Y-133249297D01*
X123545190Y-131765217D02*
X132857590Y-131765217D01*
X116624110Y-127812297D02*
X116624110Y-88164217D01*
%TO.N,SDA*%
X100838870Y-67460777D02*
X101616550Y-67460777D01*
D28*
X111520110Y-129058207D02*
X122188120Y-139726217D01*
X102081110Y-121216097D02*
X102503110Y-121638097D01*
D26*
X100058610Y-84830707D02*
X100058610Y-68241037D01*
X195086110Y-95403217D02*
X195086110Y-83973217D01*
X192038110Y-56541217D02*
X195086110Y-59589217D01*
X102580900Y-56541217D02*
X192038110Y-56541217D01*
D28*
X105043110Y-121692217D02*
X111520110Y-128169217D01*
D26*
X100058610Y-97784707D02*
X100058610Y-84830707D01*
X100058610Y-68241037D02*
X100058610Y-59063497D01*
X100058610Y-59063497D02*
X102580900Y-56541217D01*
X195086110Y-83973217D02*
X195086110Y-59589217D01*
D28*
X102503110Y-121692217D02*
X105043110Y-121692217D01*
D26*
X100058610Y-97784707D02*
X100598110Y-98324217D01*
D28*
X122188120Y-139726217D02*
X128157110Y-139726217D01*
X102081110Y-121216097D02*
X102081110Y-98673337D01*
D26*
X100058610Y-68241037D02*
X100838870Y-67460777D01*
X101616550Y-67460777D02*
X101741110Y-67336217D01*
D28*
X111520110Y-129058207D02*
X111520110Y-128169217D01*
X100598110Y-98324217D02*
X102376110Y-98324217D01*
X102503110Y-121692217D02*
X102503110Y-121638097D01*
D26*
X100058610Y-84830707D02*
X102503110Y-87275217D01*
D28*
X102081110Y-98673337D02*
X102376110Y-98378337D01*
X102376110Y-98378337D02*
X102376110Y-98324217D01*
%TO.N,SCL*%
D25*
X106567110Y-121946217D02*
X112790110Y-128169217D01*
X106567110Y-121946217D02*
X106567110Y-120549217D01*
D26*
X187460010Y-58313107D02*
X193562110Y-64415217D01*
X101741110Y-64770817D02*
X104408110Y-64770817D01*
X106567110Y-120549217D02*
X106567110Y-117628217D01*
X110865820Y-58313107D02*
X187460010Y-58313107D01*
X103392110Y-88291217D02*
X104408110Y-87275217D01*
X103138110Y-99340217D02*
X104408110Y-98070217D01*
X104408110Y-98070217D02*
X104408110Y-87275217D01*
X103138110Y-114199217D02*
X103138110Y-99340217D01*
D25*
X193548110Y-94514217D02*
X193548110Y-82971217D01*
X112790110Y-128169217D02*
X122950110Y-138329217D01*
D26*
X104408110Y-87275217D02*
X104408110Y-64770817D01*
D25*
X193548110Y-82971217D02*
X193562110Y-82957217D01*
X193562110Y-82957217D02*
X193562110Y-64415217D01*
D26*
X103138110Y-114199217D02*
X106567110Y-117628217D01*
X104408120Y-64770817D02*
X110865820Y-58313107D01*
D25*
X122950110Y-138837217D02*
X122950110Y-138329217D01*
%TO.N,VALVE2_IN*%
D26*
X151779110Y-120041217D02*
X151779110Y-64694617D01*
X151779110Y-64694617D02*
X155462110Y-61011617D01*
X150255110Y-121565217D02*
X151779110Y-120041217D01*
%TO.N,VIN*%
X133999110Y-142442427D02*
X133999110Y-134646217D01*
X134584900Y-143028217D02*
X161812110Y-143028217D01*
X132348110Y-132995217D02*
X133999110Y-134646217D01*
X133999110Y-142442427D02*
X134584900Y-143028217D01*
X161812110Y-143028217D02*
X178576110Y-143028217D01*
%TO.N,GND*%
X110002220Y-153575317D02*
X139327010Y-153575317D01*
X106750110Y-133665417D02*
X107420310Y-132995217D01*
X106750110Y-150323207D02*
X106750110Y-133665417D01*
X106750110Y-150323207D02*
X110002220Y-153575317D01*
X139327010Y-153575317D02*
X142438010Y-150464307D01*
X172823110Y-150394217D02*
X176417030Y-150394217D01*
X142438010Y-150464307D02*
X143168010Y-150464307D01*
X143168010Y-150464307D02*
X149239110Y-144393217D01*
%TD*%
%TA.AperFunction,Conductor*%
%TO.N,GND*%
G36*
X196412937Y-55525039D02*
G01*
X196636478Y-55553152D01*
X196653535Y-55556527D01*
X196870927Y-55615641D01*
X196887349Y-55621371D01*
X197094336Y-55710331D01*
X197109786Y-55718298D01*
X197302287Y-55835349D01*
X197316473Y-55845402D01*
X197490701Y-55988242D01*
X197503339Y-56000180D01*
X197567901Y-56070369D01*
X197655856Y-56165990D01*
X197666706Y-56179588D01*
X197794519Y-56365110D01*
X197803359Y-56380093D01*
X197903947Y-56581671D01*
X197910603Y-56597742D01*
X197981994Y-56811415D01*
X197986336Y-56828261D01*
X198027121Y-57049820D01*
X198029063Y-57067107D01*
X198038493Y-57293445D01*
X198038600Y-57298607D01*
X198038600Y-57306293D01*
X198038549Y-57309836D01*
X198036921Y-57366774D01*
X198037752Y-57374861D01*
X198037025Y-57374935D01*
X198038600Y-57388368D01*
X198038600Y-152520972D01*
X198034802Y-152542298D01*
X198038600Y-152586613D01*
X198038600Y-152631100D01*
X198039661Y-152639154D01*
X198038941Y-152639248D01*
X198041151Y-152655098D01*
X198044010Y-152841921D01*
X198043056Y-152859291D01*
X198014944Y-153082822D01*
X198011568Y-153099886D01*
X197952455Y-153317272D01*
X197946724Y-153333698D01*
X197857768Y-153540677D01*
X197849795Y-153556138D01*
X197732749Y-153748631D01*
X197722691Y-153762824D01*
X197579858Y-153937044D01*
X197567912Y-153949690D01*
X197402106Y-154102203D01*
X197388508Y-154113053D01*
X197202986Y-154240866D01*
X197188003Y-154249706D01*
X196986425Y-154350294D01*
X196970354Y-154356950D01*
X196756681Y-154428341D01*
X196739835Y-154432683D01*
X196518276Y-154473468D01*
X196500988Y-154475410D01*
X196348556Y-154481760D01*
X196319625Y-154478563D01*
X196319599Y-154478768D01*
X196311542Y-154477707D01*
X196311541Y-154477707D01*
X100920334Y-154477707D01*
X100899009Y-154473909D01*
X100854693Y-154477707D01*
X100810209Y-154477707D01*
X100802156Y-154478768D01*
X100802061Y-154478048D01*
X100786210Y-154480258D01*
X100599385Y-154483117D01*
X100582015Y-154482163D01*
X100358484Y-154454051D01*
X100341420Y-154450675D01*
X100124034Y-154391562D01*
X100107608Y-154385831D01*
X99900629Y-154296875D01*
X99885168Y-154288902D01*
X99692675Y-154171856D01*
X99678482Y-154161798D01*
X99656706Y-154143945D01*
X99504258Y-154018961D01*
X99491620Y-154007023D01*
X99403250Y-153910952D01*
X99339103Y-153841213D01*
X99328253Y-153827615D01*
X99200440Y-153642093D01*
X99191600Y-153627110D01*
X99091012Y-153425532D01*
X99084356Y-153409461D01*
X99056367Y-153325689D01*
X99012963Y-153195782D01*
X99008623Y-153178942D01*
X98994070Y-153099886D01*
X98967837Y-152957382D01*
X98965896Y-152940096D01*
X98965566Y-152932166D01*
X98956464Y-152713717D01*
X98956358Y-152708565D01*
X98956358Y-152700875D01*
X98956408Y-152697454D01*
X98958038Y-152640427D01*
X98958038Y-152640426D01*
X98957208Y-152632345D01*
X98957937Y-152632270D01*
X98956365Y-152618849D01*
X98956368Y-152586613D01*
X98956432Y-151743174D01*
X98956448Y-151534459D01*
X111591110Y-151534459D01*
X111591110Y-151743174D01*
X111623760Y-151949323D01*
X111688259Y-152147828D01*
X111745723Y-152260606D01*
X111783013Y-152333792D01*
X111905694Y-152502648D01*
X112053279Y-152650233D01*
X112222135Y-152772914D01*
X112309998Y-152817682D01*
X112408098Y-152867667D01*
X112408100Y-152867667D01*
X112408103Y-152867669D01*
X112514504Y-152902241D01*
X112606603Y-152932166D01*
X112656671Y-152940096D01*
X112812752Y-152964817D01*
X112812753Y-152964817D01*
X113021467Y-152964817D01*
X113021468Y-152964817D01*
X113227616Y-152932166D01*
X113426117Y-152867669D01*
X113612085Y-152772914D01*
X113780941Y-152650233D01*
X113928526Y-152502648D01*
X114051207Y-152333792D01*
X114145962Y-152147824D01*
X114210459Y-151949323D01*
X114243110Y-151743175D01*
X114243110Y-151534459D01*
X114210459Y-151328311D01*
X114145962Y-151129810D01*
X114145960Y-151129807D01*
X114145960Y-151129805D01*
X114051206Y-150943841D01*
X113928526Y-150774986D01*
X113780941Y-150627401D01*
X113612085Y-150504720D01*
X113426121Y-150409966D01*
X113227616Y-150345467D01*
X113049653Y-150317281D01*
X113021468Y-150312817D01*
X112812752Y-150312817D01*
X112787956Y-150316744D01*
X112606603Y-150345467D01*
X112408098Y-150409966D01*
X112222134Y-150504720D01*
X112053276Y-150627403D01*
X111905696Y-150774983D01*
X111783013Y-150943841D01*
X111688259Y-151129805D01*
X111623760Y-151328310D01*
X111591110Y-151534459D01*
X98956448Y-151534459D01*
X98956448Y-151529578D01*
X98956656Y-148791966D01*
X98956850Y-146244252D01*
X111591110Y-146244252D01*
X111591110Y-147990987D01*
X111591111Y-147990993D01*
X111597518Y-148050600D01*
X111647812Y-148185445D01*
X111647816Y-148185452D01*
X111734062Y-148300661D01*
X111734065Y-148300664D01*
X111849274Y-148386910D01*
X111849281Y-148386914D01*
X111984127Y-148437208D01*
X111984126Y-148437208D01*
X111991054Y-148437952D01*
X112043737Y-148443617D01*
X113790482Y-148443616D01*
X113850093Y-148437208D01*
X113984941Y-148386913D01*
X114100156Y-148300663D01*
X114186406Y-148185448D01*
X114236701Y-148050600D01*
X114243110Y-147990990D01*
X114243109Y-147013259D01*
X118703110Y-147013259D01*
X118703110Y-147221974D01*
X118735760Y-147428123D01*
X118800259Y-147626628D01*
X118893245Y-147809123D01*
X118895013Y-147812592D01*
X119017694Y-147981448D01*
X119165279Y-148129033D01*
X119334135Y-148251714D01*
X119420991Y-148295969D01*
X119520098Y-148346467D01*
X119520100Y-148346467D01*
X119520103Y-148346469D01*
X119598658Y-148371993D01*
X119718603Y-148410966D01*
X119821678Y-148427291D01*
X119924752Y-148443617D01*
X119924753Y-148443617D01*
X120133467Y-148443617D01*
X120133468Y-148443617D01*
X120339616Y-148410966D01*
X120538117Y-148346469D01*
X120724085Y-148251714D01*
X120892941Y-148129033D01*
X121040526Y-147981448D01*
X121163207Y-147812592D01*
X121257962Y-147626624D01*
X121322459Y-147428123D01*
X121355110Y-147221975D01*
X121355110Y-147013259D01*
X121322459Y-146807111D01*
X121257962Y-146608610D01*
X121257960Y-146608607D01*
X121257960Y-146608605D01*
X121196101Y-146487201D01*
X121163207Y-146422642D01*
X121040526Y-146253786D01*
X120892941Y-146106201D01*
X120724085Y-145983520D01*
X120538121Y-145888766D01*
X120339616Y-145824267D01*
X120161653Y-145796081D01*
X120133468Y-145791617D01*
X119924752Y-145791617D01*
X119899956Y-145795544D01*
X119718603Y-145824267D01*
X119520098Y-145888766D01*
X119334134Y-145983520D01*
X119165276Y-146106203D01*
X119017696Y-146253783D01*
X118895013Y-146422641D01*
X118800259Y-146608605D01*
X118735760Y-146807110D01*
X118703110Y-147013259D01*
X114243109Y-147013259D01*
X114243109Y-146244245D01*
X114236701Y-146184634D01*
X114234609Y-146179026D01*
X114186407Y-146049788D01*
X114186403Y-146049781D01*
X114100157Y-145934572D01*
X114100154Y-145934569D01*
X113984945Y-145848323D01*
X113984938Y-145848319D01*
X113850092Y-145798025D01*
X113850093Y-145798025D01*
X113790493Y-145791618D01*
X113790491Y-145791617D01*
X113790483Y-145791617D01*
X113790474Y-145791617D01*
X112043739Y-145791617D01*
X112043733Y-145791618D01*
X111984126Y-145798025D01*
X111849281Y-145848319D01*
X111849274Y-145848323D01*
X111734065Y-145934569D01*
X111734062Y-145934572D01*
X111647816Y-146049781D01*
X111647812Y-146049788D01*
X111597518Y-146184634D01*
X111592714Y-146229321D01*
X111591111Y-146244240D01*
X111591110Y-146244252D01*
X98956850Y-146244252D01*
X98957241Y-141090236D01*
X106979610Y-141090236D01*
X106979610Y-142172187D01*
X106990170Y-142256266D01*
X107045246Y-142389232D01*
X107046181Y-142390435D01*
X107097231Y-142456152D01*
X107655179Y-143014101D01*
X107679299Y-143032837D01*
X107722092Y-143066081D01*
X107794809Y-143096200D01*
X107855060Y-143121157D01*
X107939133Y-143131717D01*
X110021085Y-143131716D01*
X110105160Y-143121157D01*
X110238126Y-143066080D01*
X110305045Y-143014096D01*
X110733930Y-142585210D01*
X110795251Y-142551727D01*
X110864942Y-142556711D01*
X110909290Y-142585212D01*
X111060455Y-142736377D01*
X111211179Y-142887101D01*
X111235299Y-142905837D01*
X111278092Y-142939081D01*
X111350809Y-142969200D01*
X111411060Y-142994157D01*
X111495133Y-143004717D01*
X113577085Y-143004716D01*
X113661160Y-142994157D01*
X113794126Y-142939080D01*
X113861045Y-142887096D01*
X114226430Y-142521710D01*
X114287751Y-142488227D01*
X114357442Y-142493211D01*
X114401790Y-142521712D01*
X114616455Y-142736377D01*
X114767179Y-142887101D01*
X114791299Y-142905837D01*
X114834092Y-142939081D01*
X114906809Y-142969200D01*
X114967060Y-142994157D01*
X115051133Y-143004717D01*
X117133085Y-143004716D01*
X117217160Y-142994157D01*
X117350126Y-142939080D01*
X117417045Y-142887096D01*
X117974994Y-142329148D01*
X118026974Y-142262234D01*
X118082050Y-142129267D01*
X118092610Y-142045194D01*
X118092609Y-140963242D01*
X118082050Y-140879167D01*
X118026973Y-140746201D01*
X117974989Y-140679282D01*
X117417041Y-140121333D01*
X117396516Y-140105389D01*
X117350127Y-140069352D01*
X117217163Y-140014278D01*
X117217161Y-140014277D01*
X117217160Y-140014277D01*
X117217159Y-140014276D01*
X117217156Y-140014276D01*
X117133087Y-140003717D01*
X115051139Y-140003717D01*
X114967060Y-140014277D01*
X114834094Y-140069353D01*
X114767175Y-140121338D01*
X114767168Y-140121344D01*
X114401790Y-140486721D01*
X114340467Y-140520206D01*
X114270775Y-140515222D01*
X114226428Y-140486721D01*
X114086699Y-140346992D01*
X113861041Y-140121333D01*
X113840516Y-140105389D01*
X113794127Y-140069352D01*
X113661163Y-140014278D01*
X113661161Y-140014277D01*
X113661160Y-140014277D01*
X113661159Y-140014276D01*
X113661156Y-140014276D01*
X113577087Y-140003717D01*
X111495139Y-140003717D01*
X111411060Y-140014277D01*
X111278094Y-140069353D01*
X111211175Y-140121338D01*
X111211168Y-140121344D01*
X110782290Y-140550221D01*
X110720967Y-140583706D01*
X110651275Y-140578722D01*
X110606928Y-140550221D01*
X110492863Y-140436156D01*
X110305041Y-140248333D01*
X110289815Y-140236505D01*
X110238127Y-140196352D01*
X110105163Y-140141278D01*
X110105161Y-140141277D01*
X110105160Y-140141277D01*
X110105159Y-140141276D01*
X110105156Y-140141276D01*
X110021087Y-140130717D01*
X107939139Y-140130717D01*
X107855060Y-140141277D01*
X107722094Y-140196353D01*
X107655175Y-140248338D01*
X107655168Y-140248344D01*
X107097231Y-140806280D01*
X107097220Y-140806293D01*
X107045245Y-140873199D01*
X106990171Y-141006163D01*
X106990169Y-141006170D01*
X106979610Y-141090236D01*
X98957241Y-141090236D01*
X98958174Y-128821855D01*
X99970610Y-128821855D01*
X99970610Y-129040578D01*
X100004824Y-129256593D01*
X100072407Y-129464597D01*
X100072408Y-129464600D01*
X100171705Y-129659477D01*
X100300252Y-129836410D01*
X100300258Y-129836416D01*
X100454911Y-129991069D01*
X100606085Y-130100902D01*
X100648750Y-130156231D01*
X100654729Y-130225844D01*
X100622124Y-130287640D01*
X100606084Y-130301538D01*
X100454927Y-130411359D01*
X100454922Y-130411363D01*
X100300262Y-130566023D01*
X100171715Y-130742956D01*
X100072418Y-130937833D01*
X100072417Y-130937836D01*
X100004834Y-131145840D01*
X99970620Y-131361855D01*
X99970620Y-131580578D01*
X100004834Y-131796593D01*
X100072417Y-132004597D01*
X100072418Y-132004600D01*
X100171715Y-132199477D01*
X100300262Y-132376410D01*
X100454926Y-132531074D01*
X100597578Y-132634715D01*
X100631863Y-132659624D01*
X100759252Y-132724532D01*
X100826736Y-132758918D01*
X100826739Y-132758919D01*
X100908247Y-132785402D01*
X101034745Y-132826503D01*
X101134792Y-132842349D01*
X101250759Y-132860717D01*
X101250764Y-132860717D01*
X101469481Y-132860717D01*
X101574202Y-132844129D01*
X101685495Y-132826503D01*
X101893503Y-132758918D01*
X102088377Y-132659624D01*
X102187721Y-132587446D01*
X102265313Y-132531074D01*
X102265315Y-132531071D01*
X102265319Y-132531069D01*
X102419972Y-132376416D01*
X102419974Y-132376412D01*
X102419977Y-132376410D01*
X102476349Y-132298818D01*
X102548527Y-132199474D01*
X102647821Y-132004600D01*
X102715406Y-131796592D01*
X102733032Y-131685299D01*
X102749620Y-131580578D01*
X102749620Y-131361855D01*
X102727073Y-131219505D01*
X102715406Y-131145842D01*
X102664146Y-130988078D01*
X102647822Y-130937836D01*
X102647821Y-130937833D01*
X102601714Y-130847345D01*
X102548527Y-130742960D01*
X102540267Y-130731591D01*
X102419977Y-130566023D01*
X102265319Y-130411365D01*
X102153381Y-130330038D01*
X102114143Y-130301530D01*
X102071479Y-130246202D01*
X102065500Y-130176588D01*
X102098105Y-130114793D01*
X102114141Y-130100897D01*
X102265309Y-129991069D01*
X102419962Y-129836416D01*
X102419964Y-129836412D01*
X102419967Y-129836410D01*
X102476339Y-129758818D01*
X102548517Y-129659474D01*
X102647811Y-129464600D01*
X102715396Y-129256592D01*
X102735889Y-129127203D01*
X102749610Y-129040578D01*
X102749610Y-128821855D01*
X102729705Y-128696188D01*
X102715396Y-128605842D01*
X102651022Y-128407716D01*
X102647812Y-128397836D01*
X102647811Y-128397833D01*
X102613425Y-128330349D01*
X102548517Y-128202960D01*
X102535001Y-128184357D01*
X102419967Y-128026023D01*
X102265303Y-127871359D01*
X102088370Y-127742812D01*
X102088369Y-127742811D01*
X102088367Y-127742810D01*
X102002474Y-127699045D01*
X101893493Y-127643515D01*
X101893490Y-127643514D01*
X101685486Y-127575931D01*
X101469471Y-127541717D01*
X101469466Y-127541717D01*
X101250754Y-127541717D01*
X101250749Y-127541717D01*
X101034733Y-127575931D01*
X100826729Y-127643514D01*
X100826726Y-127643515D01*
X100631849Y-127742812D01*
X100454916Y-127871359D01*
X100300252Y-128026023D01*
X100171705Y-128202956D01*
X100072408Y-128397833D01*
X100072407Y-128397836D01*
X100004824Y-128605840D01*
X99970610Y-128821855D01*
X98958174Y-128821855D01*
X98960489Y-98350868D01*
X98970027Y-98318394D01*
X98978993Y-98285712D01*
X98979853Y-98284938D01*
X98980179Y-98283832D01*
X99005744Y-98261682D01*
X99030972Y-98239022D01*
X99032113Y-98238837D01*
X99032986Y-98238081D01*
X99066519Y-98233261D01*
X99099942Y-98227846D01*
X99101000Y-98228306D01*
X99102145Y-98228142D01*
X99132964Y-98242219D01*
X99164006Y-98255731D01*
X99165023Y-98256863D01*
X99165699Y-98257172D01*
X99187591Y-98281988D01*
X99210046Y-98315594D01*
X99241083Y-98362045D01*
X99241087Y-98362050D01*
X99241087Y-98362051D01*
X99281467Y-98422484D01*
X99281473Y-98422491D01*
X99372944Y-98513962D01*
X99960316Y-99101346D01*
X99960319Y-99101348D01*
X99960321Y-99101350D01*
X100124187Y-99210844D01*
X100306265Y-99286265D01*
X100435128Y-99311899D01*
X100499559Y-99324716D01*
X100499562Y-99324716D01*
X100696641Y-99324718D01*
X100889937Y-99286271D01*
X101072016Y-99210852D01*
X101142897Y-99163491D01*
X101187721Y-99133543D01*
X101254399Y-99112666D01*
X101321779Y-99131152D01*
X101368468Y-99183131D01*
X101380610Y-99236646D01*
X101380610Y-121147103D01*
X101380610Y-121285091D01*
X101380610Y-121285093D01*
X101380609Y-121285093D01*
X101407528Y-121420419D01*
X101407531Y-121420429D01*
X101460332Y-121547904D01*
X101460335Y-121547908D01*
X101536996Y-121662640D01*
X101690214Y-121815858D01*
X101723698Y-121877180D01*
X101724149Y-121879346D01*
X101733371Y-121925708D01*
X101733373Y-121925716D01*
X101793712Y-122071389D01*
X101793719Y-122071402D01*
X101881320Y-122202505D01*
X101881323Y-122202509D01*
X101992817Y-122314003D01*
X101992821Y-122314006D01*
X102123924Y-122401607D01*
X102123937Y-122401614D01*
X102245217Y-122451849D01*
X102269613Y-122461954D01*
X102424263Y-122492716D01*
X102424266Y-122492717D01*
X102424268Y-122492717D01*
X102581954Y-122492717D01*
X102581955Y-122492716D01*
X102736607Y-122461954D01*
X102816079Y-122429036D01*
X102880974Y-122402156D01*
X102928426Y-122392717D01*
X104701591Y-122392717D01*
X104768630Y-122412402D01*
X104789272Y-122429036D01*
X110724038Y-128363802D01*
X110728669Y-128370733D01*
X110732909Y-128373677D01*
X110750918Y-128404030D01*
X110810171Y-128547080D01*
X110819610Y-128594533D01*
X110819610Y-128989213D01*
X110819610Y-129127201D01*
X110819610Y-129127203D01*
X110819609Y-129127203D01*
X110846528Y-129262529D01*
X110846531Y-129262539D01*
X110899332Y-129390014D01*
X110975997Y-129504752D01*
X110975998Y-129504753D01*
X121644006Y-140172759D01*
X121707752Y-140236505D01*
X121741579Y-140270332D01*
X121856302Y-140346988D01*
X121856309Y-140346992D01*
X121928072Y-140376717D01*
X121983791Y-140399797D01*
X122010711Y-140405151D01*
X122103181Y-140423545D01*
X122119126Y-140426717D01*
X122119127Y-140426717D01*
X127731794Y-140426717D01*
X127779246Y-140436156D01*
X127901322Y-140486721D01*
X127923613Y-140495954D01*
X128078263Y-140526716D01*
X128078266Y-140526717D01*
X128078268Y-140526717D01*
X128235954Y-140526717D01*
X128235955Y-140526716D01*
X128390607Y-140495954D01*
X128536289Y-140435611D01*
X128667399Y-140348006D01*
X128778899Y-140236506D01*
X128866504Y-140105396D01*
X128926847Y-139959714D01*
X128957610Y-139805059D01*
X128957610Y-139647375D01*
X128957610Y-139647372D01*
X128957609Y-139647370D01*
X128926848Y-139492727D01*
X128926847Y-139492720D01*
X128926845Y-139492715D01*
X128866507Y-139347044D01*
X128866500Y-139347031D01*
X128778899Y-139215928D01*
X128778896Y-139215924D01*
X128667402Y-139104430D01*
X128667398Y-139104427D01*
X128536295Y-139016826D01*
X128536282Y-139016819D01*
X128390611Y-138956481D01*
X128390599Y-138956478D01*
X128235955Y-138925717D01*
X128235952Y-138925717D01*
X128078268Y-138925717D01*
X128078265Y-138925717D01*
X127923620Y-138956478D01*
X127923608Y-138956481D01*
X127779246Y-139016278D01*
X127731794Y-139025717D01*
X123874610Y-139025717D01*
X123807571Y-139006032D01*
X123761816Y-138953228D01*
X123750610Y-138901717D01*
X123750610Y-138250372D01*
X123750609Y-138250370D01*
X123719848Y-138095727D01*
X123719847Y-138095720D01*
X123719845Y-138095715D01*
X123659507Y-137950044D01*
X123659500Y-137950031D01*
X123571900Y-137818929D01*
X123571899Y-137818928D01*
X123460399Y-137707428D01*
X113300399Y-127547428D01*
X107403929Y-121650958D01*
X107370444Y-121589635D01*
X107367610Y-121563277D01*
X107367610Y-121189651D01*
X107387295Y-121122612D01*
X107388508Y-121120760D01*
X107396582Y-121108676D01*
X107453742Y-121023131D01*
X107455604Y-121018637D01*
X107493380Y-120927436D01*
X107529161Y-120841052D01*
X107558866Y-120691717D01*
X107567610Y-120647760D01*
X107567610Y-117529673D01*
X107529162Y-117336387D01*
X107529161Y-117336386D01*
X107529161Y-117336382D01*
X107529159Y-117336377D01*
X107453745Y-117154309D01*
X107453738Y-117154296D01*
X107344250Y-116990436D01*
X107344249Y-116990435D01*
X107204892Y-116851078D01*
X107204891Y-116851077D01*
X104174929Y-113821115D01*
X104141444Y-113759792D01*
X104138610Y-113733434D01*
X104138610Y-99805998D01*
X104158295Y-99738959D01*
X104174925Y-99718321D01*
X105045888Y-98847358D01*
X105045892Y-98847356D01*
X105185249Y-98707999D01*
X105294742Y-98544131D01*
X105317725Y-98488643D01*
X105348071Y-98415383D01*
X105348071Y-98415382D01*
X105370161Y-98362053D01*
X105408610Y-98168757D01*
X105408610Y-97971677D01*
X105408610Y-87995708D01*
X113623610Y-87995708D01*
X113623610Y-88332725D01*
X113661341Y-88667598D01*
X113661343Y-88667614D01*
X113736333Y-88996170D01*
X113736337Y-88996182D01*
X113847642Y-89314271D01*
X113993862Y-89617900D01*
X113993864Y-89617903D01*
X114173164Y-89903256D01*
X114383285Y-90166740D01*
X114621587Y-90405042D01*
X114885071Y-90615163D01*
X115064269Y-90727761D01*
X115170426Y-90794464D01*
X115474050Y-90940682D01*
X115474052Y-90940682D01*
X115474059Y-90940686D01*
X115540566Y-90963958D01*
X115597340Y-91004678D01*
X115623088Y-91069630D01*
X115623610Y-91080998D01*
X115623610Y-127910839D01*
X115623619Y-127910886D01*
X115633682Y-127961473D01*
X115662059Y-128104133D01*
X115667228Y-128116611D01*
X115671245Y-128126309D01*
X115671246Y-128126313D01*
X115737478Y-128286211D01*
X115737479Y-128286214D01*
X115846970Y-128450078D01*
X115846973Y-128450082D01*
X115990647Y-128593756D01*
X115990669Y-128593776D01*
X121423325Y-134026433D01*
X121423329Y-134026436D01*
X121587189Y-134135924D01*
X121587193Y-134135926D01*
X121587196Y-134135928D01*
X121769274Y-134211348D01*
X121962565Y-134249796D01*
X121962568Y-134249797D01*
X121962570Y-134249797D01*
X122159652Y-134249797D01*
X122159653Y-134249796D01*
X122352946Y-134211348D01*
X122535024Y-134135928D01*
X122698891Y-134026436D01*
X122838249Y-133887078D01*
X123923291Y-132802036D01*
X123984614Y-132768551D01*
X124010972Y-132765717D01*
X131223695Y-132765717D01*
X131290734Y-132785402D01*
X131336489Y-132838206D01*
X131345233Y-132890585D01*
X131347610Y-132890585D01*
X131347610Y-133093761D01*
X131386057Y-133287045D01*
X131386059Y-133287053D01*
X131461477Y-133469127D01*
X131461482Y-133469137D01*
X131570970Y-133632997D01*
X131570973Y-133633001D01*
X132962291Y-135024318D01*
X132995776Y-135085641D01*
X132998610Y-135111999D01*
X132998610Y-136018546D01*
X132978925Y-136085585D01*
X132926121Y-136131340D01*
X132856963Y-136141284D01*
X132850420Y-136140164D01*
X132807952Y-136131717D01*
X132650268Y-136131717D01*
X132650265Y-136131717D01*
X132495620Y-136162478D01*
X132495608Y-136162481D01*
X132349937Y-136222819D01*
X132349924Y-136222826D01*
X132218821Y-136310427D01*
X132218817Y-136310430D01*
X132107323Y-136421924D01*
X132107320Y-136421928D01*
X132019719Y-136553031D01*
X132019712Y-136553044D01*
X131959373Y-136698717D01*
X131959371Y-136698724D01*
X131957289Y-136709194D01*
X131924903Y-136771105D01*
X131866367Y-136804436D01*
X131866447Y-136804700D01*
X131865285Y-136805052D01*
X131864187Y-136805678D01*
X131860784Y-136806417D01*
X131860610Y-136806470D01*
X131714937Y-136866809D01*
X131714924Y-136866816D01*
X131583821Y-136954417D01*
X131583817Y-136954420D01*
X131472323Y-137065914D01*
X131472320Y-137065918D01*
X131384719Y-137197021D01*
X131384712Y-137197034D01*
X131324374Y-137342705D01*
X131324371Y-137342717D01*
X131293610Y-137497360D01*
X131293610Y-146709277D01*
X131273925Y-146776316D01*
X131257291Y-146796958D01*
X127252251Y-150801998D01*
X127190928Y-150835483D01*
X127164570Y-150838317D01*
X121149720Y-150838317D01*
X121082681Y-150818632D01*
X121049405Y-150787207D01*
X121040526Y-150774986D01*
X120892941Y-150627401D01*
X120724085Y-150504720D01*
X120538121Y-150409966D01*
X120339616Y-150345467D01*
X120161653Y-150317281D01*
X120133468Y-150312817D01*
X119924752Y-150312817D01*
X119899956Y-150316744D01*
X119718603Y-150345467D01*
X119520098Y-150409966D01*
X119334134Y-150504720D01*
X119165276Y-150627403D01*
X119017696Y-150774983D01*
X118895013Y-150943841D01*
X118800259Y-151129805D01*
X118735760Y-151328310D01*
X118703110Y-151534459D01*
X118703110Y-151743174D01*
X118735760Y-151949323D01*
X118800259Y-152147828D01*
X118857723Y-152260606D01*
X118895013Y-152333792D01*
X119017694Y-152502648D01*
X119165279Y-152650233D01*
X119334135Y-152772914D01*
X119421998Y-152817682D01*
X119520098Y-152867667D01*
X119520100Y-152867667D01*
X119520103Y-152867669D01*
X119626504Y-152902241D01*
X119718603Y-152932166D01*
X119768671Y-152940096D01*
X119924752Y-152964817D01*
X119924753Y-152964817D01*
X120133467Y-152964817D01*
X120133468Y-152964817D01*
X120339616Y-152932166D01*
X120538117Y-152867669D01*
X120724085Y-152772914D01*
X120892941Y-152650233D01*
X121040526Y-152502648D01*
X121049404Y-152490427D01*
X121104734Y-152447765D01*
X121149720Y-152439317D01*
X127626354Y-152439317D01*
X127626355Y-152439316D01*
X127781007Y-152408554D01*
X127926689Y-152348211D01*
X128057799Y-152260606D01*
X132156929Y-148161476D01*
X132218252Y-148127991D01*
X132287944Y-148132975D01*
X132343877Y-148174847D01*
X132368294Y-148240311D01*
X132368610Y-148249157D01*
X132368610Y-148618800D01*
X132368610Y-148618802D01*
X132368609Y-148618802D01*
X132395528Y-148754129D01*
X132395531Y-148754139D01*
X132448331Y-148881611D01*
X132448338Y-148881624D01*
X132524995Y-148996348D01*
X132524998Y-148996352D01*
X135200016Y-151671378D01*
X135233501Y-151732701D01*
X135234808Y-151778457D01*
X135213110Y-151915453D01*
X135213110Y-152124174D01*
X135245760Y-152330323D01*
X135310259Y-152528828D01*
X135401840Y-152708565D01*
X135405013Y-152714792D01*
X135527694Y-152883648D01*
X135675279Y-153031233D01*
X135844135Y-153153914D01*
X135910085Y-153187517D01*
X136030098Y-153248667D01*
X136030100Y-153248667D01*
X136030103Y-153248669D01*
X136136504Y-153283241D01*
X136228603Y-153313166D01*
X136307670Y-153325689D01*
X136434752Y-153345817D01*
X136434753Y-153345817D01*
X136643467Y-153345817D01*
X136643468Y-153345817D01*
X136849616Y-153313166D01*
X137048117Y-153248669D01*
X137234085Y-153153914D01*
X137402941Y-153031233D01*
X137550526Y-152883648D01*
X137673207Y-152714792D01*
X137767962Y-152528824D01*
X137832459Y-152330323D01*
X137865110Y-152124175D01*
X137865110Y-151915459D01*
X142325110Y-151915459D01*
X142325110Y-152124174D01*
X142357760Y-152330323D01*
X142422259Y-152528828D01*
X142513840Y-152708565D01*
X142517013Y-152714792D01*
X142639694Y-152883648D01*
X142787279Y-153031233D01*
X142956135Y-153153914D01*
X143022085Y-153187517D01*
X143142098Y-153248667D01*
X143142100Y-153248667D01*
X143142103Y-153248669D01*
X143248504Y-153283241D01*
X143340603Y-153313166D01*
X143419670Y-153325689D01*
X143546752Y-153345817D01*
X143546753Y-153345817D01*
X143755467Y-153345817D01*
X143755468Y-153345817D01*
X143961616Y-153313166D01*
X144160117Y-153248669D01*
X144346085Y-153153914D01*
X144514941Y-153031233D01*
X144662526Y-152883648D01*
X144785207Y-152714792D01*
X144879962Y-152528824D01*
X144944459Y-152330323D01*
X144977110Y-152124175D01*
X144977110Y-151915459D01*
X144949823Y-151743175D01*
X144944459Y-151709310D01*
X144879960Y-151510805D01*
X144829975Y-151412705D01*
X144785207Y-151324842D01*
X144662526Y-151155986D01*
X144514941Y-151008401D01*
X144346085Y-150885720D01*
X144160121Y-150790966D01*
X143961616Y-150726467D01*
X143783653Y-150698281D01*
X143755468Y-150693817D01*
X143546752Y-150693817D01*
X143521956Y-150697744D01*
X143340603Y-150726467D01*
X143142098Y-150790966D01*
X142956134Y-150885720D01*
X142787276Y-151008403D01*
X142639696Y-151155983D01*
X142517013Y-151324841D01*
X142422259Y-151510805D01*
X142357760Y-151709310D01*
X142325110Y-151915459D01*
X137865110Y-151915459D01*
X137837823Y-151743175D01*
X137832459Y-151709310D01*
X137767960Y-151510805D01*
X137717975Y-151412705D01*
X137673207Y-151324842D01*
X137550526Y-151155986D01*
X137402941Y-151008401D01*
X137234085Y-150885720D01*
X137048121Y-150790966D01*
X136849616Y-150726467D01*
X136671653Y-150698281D01*
X136643468Y-150693817D01*
X136434752Y-150693817D01*
X136434747Y-150693817D01*
X136297753Y-150715515D01*
X136228460Y-150706561D01*
X136190674Y-150680723D01*
X135822769Y-150312817D01*
X134237425Y-148727467D01*
X133805929Y-148295969D01*
X133772444Y-148234646D01*
X133769610Y-148208288D01*
X133769610Y-146625252D01*
X135213110Y-146625252D01*
X135213110Y-148371987D01*
X135213111Y-148371993D01*
X135219518Y-148431600D01*
X135269812Y-148566445D01*
X135269816Y-148566452D01*
X135356062Y-148681661D01*
X135356065Y-148681664D01*
X135471274Y-148767910D01*
X135471281Y-148767914D01*
X135606127Y-148818208D01*
X135606126Y-148818208D01*
X135613054Y-148818952D01*
X135665737Y-148824617D01*
X137412482Y-148824616D01*
X137472093Y-148818208D01*
X137606941Y-148767913D01*
X137722156Y-148681663D01*
X137808406Y-148566448D01*
X137858701Y-148431600D01*
X137865110Y-148371990D01*
X137865109Y-147394259D01*
X142325110Y-147394259D01*
X142325110Y-147602974D01*
X142357760Y-147809123D01*
X142422259Y-148007628D01*
X142486127Y-148132975D01*
X142517013Y-148193592D01*
X142639694Y-148362448D01*
X142787279Y-148510033D01*
X142956135Y-148632714D01*
X143043998Y-148677482D01*
X143142098Y-148727467D01*
X143142100Y-148727467D01*
X143142103Y-148727469D01*
X143224185Y-148754139D01*
X143340603Y-148791966D01*
X143443678Y-148808291D01*
X143546752Y-148824617D01*
X143546753Y-148824617D01*
X143755467Y-148824617D01*
X143755468Y-148824617D01*
X143961616Y-148791966D01*
X144160117Y-148727469D01*
X144346085Y-148632714D01*
X144514941Y-148510033D01*
X144662526Y-148362448D01*
X144785207Y-148193592D01*
X144879962Y-148007624D01*
X144944459Y-147809123D01*
X144977110Y-147602975D01*
X144977110Y-147394259D01*
X144949823Y-147221975D01*
X144944459Y-147188110D01*
X144879960Y-146989605D01*
X144829975Y-146891505D01*
X144785207Y-146803642D01*
X144662526Y-146634786D01*
X144514941Y-146487201D01*
X144346085Y-146364520D01*
X144160121Y-146269766D01*
X143961616Y-146205267D01*
X143783653Y-146177081D01*
X143755468Y-146172617D01*
X143546752Y-146172617D01*
X143521956Y-146176544D01*
X143340603Y-146205267D01*
X143142098Y-146269766D01*
X142956134Y-146364520D01*
X142787276Y-146487203D01*
X142639696Y-146634783D01*
X142517013Y-146803641D01*
X142422259Y-146989605D01*
X142357760Y-147188110D01*
X142325110Y-147394259D01*
X137865109Y-147394259D01*
X137865109Y-146625245D01*
X137858701Y-146565634D01*
X137829447Y-146487201D01*
X137808407Y-146430788D01*
X137808403Y-146430781D01*
X137722157Y-146315572D01*
X137722154Y-146315569D01*
X137606945Y-146229323D01*
X137606938Y-146229319D01*
X137472092Y-146179025D01*
X137472093Y-146179025D01*
X137412493Y-146172618D01*
X137412491Y-146172617D01*
X137412483Y-146172617D01*
X137412474Y-146172617D01*
X135665739Y-146172617D01*
X135665733Y-146172618D01*
X135606126Y-146179025D01*
X135471281Y-146229319D01*
X135471274Y-146229323D01*
X135356065Y-146315569D01*
X135356062Y-146315572D01*
X135269816Y-146430781D01*
X135269812Y-146430788D01*
X135219518Y-146565634D01*
X135214899Y-146608605D01*
X135213111Y-146625240D01*
X135213110Y-146625252D01*
X133769610Y-146625252D01*
X133769610Y-143918736D01*
X133789295Y-143851697D01*
X133842099Y-143805942D01*
X133911257Y-143795998D01*
X133962498Y-143815633D01*
X134110986Y-143914849D01*
X134110988Y-143914850D01*
X134110992Y-143914852D01*
X134239733Y-143968178D01*
X134282644Y-143985952D01*
X134293064Y-143990268D01*
X134389712Y-144009492D01*
X134438035Y-144019104D01*
X134486358Y-144028717D01*
X134486359Y-144028717D01*
X178674653Y-144028717D01*
X178804692Y-144002849D01*
X178867945Y-143990268D01*
X179050024Y-143914849D01*
X179213892Y-143805356D01*
X179353249Y-143665999D01*
X179462742Y-143502131D01*
X179538161Y-143320052D01*
X179576610Y-143126758D01*
X179576610Y-142929676D01*
X179576610Y-142929673D01*
X179538162Y-142736387D01*
X179538161Y-142736386D01*
X179538161Y-142736382D01*
X179475545Y-142585212D01*
X179462745Y-142554309D01*
X179462738Y-142554296D01*
X179353249Y-142390435D01*
X179353246Y-142390431D01*
X179213895Y-142251080D01*
X179213891Y-142251077D01*
X179050030Y-142141588D01*
X179050017Y-142141581D01*
X178867949Y-142066167D01*
X178867939Y-142066164D01*
X178674653Y-142027717D01*
X178674651Y-142027717D01*
X161910651Y-142027717D01*
X135123610Y-142027717D01*
X135056571Y-142008032D01*
X135010816Y-141955228D01*
X134999610Y-141903717D01*
X134999610Y-138213164D01*
X187727610Y-138213164D01*
X187727610Y-139969269D01*
X187754117Y-140170603D01*
X187757904Y-140199366D01*
X187771023Y-140248327D01*
X187817972Y-140423545D01*
X187906787Y-140637962D01*
X187906795Y-140637979D01*
X188022830Y-140838960D01*
X188022831Y-140838962D01*
X188164119Y-141023092D01*
X188164125Y-141023099D01*
X188328227Y-141187201D01*
X188328234Y-141187207D01*
X188512364Y-141328495D01*
X188512366Y-141328496D01*
X188713347Y-141444531D01*
X188713350Y-141444532D01*
X188713358Y-141444537D01*
X188927780Y-141533354D01*
X189151961Y-141593423D01*
X189382065Y-141623717D01*
X189382072Y-141623717D01*
X189614148Y-141623717D01*
X189614155Y-141623717D01*
X189844259Y-141593423D01*
X190068440Y-141533354D01*
X190282862Y-141444537D01*
X190483858Y-141328493D01*
X190667987Y-141187206D01*
X190832099Y-141023094D01*
X190973386Y-140838965D01*
X191089430Y-140637969D01*
X191178247Y-140423547D01*
X191238316Y-140199366D01*
X191268610Y-139969262D01*
X191268610Y-138213172D01*
X191238316Y-137983068D01*
X191178247Y-137758887D01*
X191089430Y-137544465D01*
X191062237Y-137497365D01*
X190973389Y-137343473D01*
X190973388Y-137343471D01*
X190832100Y-137159341D01*
X190832094Y-137159334D01*
X190667992Y-136995232D01*
X190667985Y-136995226D01*
X190483855Y-136853938D01*
X190483853Y-136853937D01*
X190282872Y-136737902D01*
X190282864Y-136737898D01*
X190282862Y-136737897D01*
X190282855Y-136737894D01*
X190068438Y-136649079D01*
X189926313Y-136610997D01*
X189844259Y-136589011D01*
X189815496Y-136585224D01*
X189614162Y-136558717D01*
X189614155Y-136558717D01*
X189382065Y-136558717D01*
X189382057Y-136558717D01*
X189151961Y-136589011D01*
X188927781Y-136649079D01*
X188713364Y-136737894D01*
X188713347Y-136737902D01*
X188512366Y-136853937D01*
X188512364Y-136853938D01*
X188328234Y-136995226D01*
X188328227Y-136995232D01*
X188164125Y-137159334D01*
X188164119Y-137159341D01*
X188022831Y-137343471D01*
X188022830Y-137343473D01*
X187906795Y-137544454D01*
X187906787Y-137544471D01*
X187817972Y-137758888D01*
X187757904Y-137983068D01*
X187727610Y-138213164D01*
X134999610Y-138213164D01*
X134999610Y-135621511D01*
X135019295Y-135554472D01*
X135072099Y-135508717D01*
X135141257Y-135498773D01*
X135204813Y-135527798D01*
X135211291Y-135533830D01*
X135607325Y-135929864D01*
X135607328Y-135929866D01*
X135607330Y-135929868D01*
X135688984Y-135984427D01*
X135771196Y-136039359D01*
X135846616Y-136070598D01*
X135852720Y-136073126D01*
X135852723Y-136073128D01*
X135882797Y-136085585D01*
X135953276Y-136114779D01*
X136146571Y-136153228D01*
X136343652Y-136153227D01*
X174542049Y-136153227D01*
X174739130Y-136153227D01*
X174739131Y-136153227D01*
X174739133Y-136153227D01*
X174869172Y-136127359D01*
X174932425Y-136114778D01*
X175032978Y-136073128D01*
X175114501Y-136039361D01*
X175124655Y-136032576D01*
X175124654Y-136032576D01*
X175278371Y-135929867D01*
X184216406Y-126991839D01*
X184265766Y-126961591D01*
X184345991Y-126935526D01*
X184505242Y-126854384D01*
X184649838Y-126749328D01*
X184776221Y-126622945D01*
X184881277Y-126478349D01*
X184962419Y-126319098D01*
X185017650Y-126149114D01*
X185045610Y-125972583D01*
X185045610Y-125793851D01*
X185017650Y-125617320D01*
X185017649Y-125617316D01*
X185017649Y-125617315D01*
X184962420Y-125447338D01*
X184962418Y-125447335D01*
X184881276Y-125288084D01*
X184776221Y-125143489D01*
X184649838Y-125017106D01*
X184505242Y-124912050D01*
X184345991Y-124830908D01*
X184345988Y-124830906D01*
X184176009Y-124775677D01*
X184058319Y-124757037D01*
X183999476Y-124747717D01*
X183820744Y-124747717D01*
X183761900Y-124757037D01*
X183644211Y-124775677D01*
X183644208Y-124775677D01*
X183474231Y-124830906D01*
X183474228Y-124830908D01*
X183314977Y-124912050D01*
X183170380Y-125017107D01*
X183044000Y-125143487D01*
X182938943Y-125288084D01*
X182857800Y-125447335D01*
X182831734Y-125527557D01*
X182801485Y-125576918D01*
X174262488Y-134115908D01*
X174201165Y-134149393D01*
X174174807Y-134152227D01*
X136710892Y-134152227D01*
X136643853Y-134132542D01*
X136623211Y-134115908D01*
X133634730Y-131127436D01*
X133634729Y-131127435D01*
X133495372Y-130988078D01*
X133495371Y-130988077D01*
X133495370Y-130988076D01*
X133331510Y-130878588D01*
X133331501Y-130878583D01*
X133256084Y-130847345D01*
X133149424Y-130803165D01*
X133149416Y-130803163D01*
X133020270Y-130777474D01*
X133020269Y-130777474D01*
X132956131Y-130764717D01*
X123446649Y-130764717D01*
X123446645Y-130764717D01*
X123350002Y-130783941D01*
X123253357Y-130803164D01*
X123253351Y-130803166D01*
X123200024Y-130825254D01*
X123200024Y-130825255D01*
X123154505Y-130844109D01*
X123071279Y-130878583D01*
X123071269Y-130878588D01*
X122907409Y-130988076D01*
X122834196Y-131061289D01*
X122768051Y-131127435D01*
X122768050Y-131127436D01*
X122760984Y-131134503D01*
X122760983Y-131134503D01*
X122760980Y-131134506D01*
X122148791Y-131746696D01*
X122087468Y-131780181D01*
X122017777Y-131775197D01*
X121973429Y-131746696D01*
X117660929Y-127434196D01*
X117627444Y-127372873D01*
X117624610Y-127346515D01*
X117624610Y-119835370D01*
X125578610Y-119835370D01*
X125578610Y-119993063D01*
X125609371Y-120147706D01*
X125609374Y-120147718D01*
X125669712Y-120293389D01*
X125669719Y-120293402D01*
X125757320Y-120424505D01*
X125757323Y-120424509D01*
X138711321Y-133378506D01*
X138801942Y-133469127D01*
X138822822Y-133490007D01*
X138953927Y-133577609D01*
X138953929Y-133577609D01*
X138953931Y-133577611D01*
X139049038Y-133617005D01*
X139049040Y-133617007D01*
X139099607Y-133637952D01*
X139099612Y-133637954D01*
X139254262Y-133668716D01*
X139254265Y-133668717D01*
X139254267Y-133668717D01*
X144491954Y-133668717D01*
X144491955Y-133668716D01*
X144646607Y-133637954D01*
X144792289Y-133577611D01*
X144923399Y-133490006D01*
X145034899Y-133378506D01*
X145122504Y-133247396D01*
X145182847Y-133101714D01*
X145213610Y-132947059D01*
X145213610Y-132789375D01*
X145213610Y-132789372D01*
X145213609Y-132789370D01*
X145207552Y-132758918D01*
X145182847Y-132634720D01*
X145139914Y-132531069D01*
X145122507Y-132489044D01*
X145122500Y-132489031D01*
X145034899Y-132357928D01*
X145034896Y-132357924D01*
X144923402Y-132246430D01*
X144923398Y-132246427D01*
X144792295Y-132158826D01*
X144792282Y-132158819D01*
X144646611Y-132098481D01*
X144646599Y-132098478D01*
X144491955Y-132067717D01*
X144491952Y-132067717D01*
X139716050Y-132067717D01*
X139649011Y-132048032D01*
X139628369Y-132031398D01*
X127767936Y-120170964D01*
X127686342Y-120089370D01*
X135738610Y-120089370D01*
X135738610Y-120247063D01*
X135769371Y-120401706D01*
X135769374Y-120401718D01*
X135829712Y-120547389D01*
X135829719Y-120547402D01*
X135917320Y-120678505D01*
X135917323Y-120678509D01*
X146458321Y-131219506D01*
X146569818Y-131331003D01*
X146569822Y-131331007D01*
X146700924Y-131418607D01*
X146700937Y-131418614D01*
X146846608Y-131478952D01*
X146846613Y-131478954D01*
X146846617Y-131478954D01*
X146846618Y-131478955D01*
X147001264Y-131509717D01*
X147001267Y-131509717D01*
X147793954Y-131509717D01*
X147793955Y-131509716D01*
X147948607Y-131478954D01*
X148094289Y-131418611D01*
X148225399Y-131331006D01*
X148336899Y-131219506D01*
X148424504Y-131088396D01*
X148484847Y-130942714D01*
X148515610Y-130788059D01*
X148515610Y-130630375D01*
X148515610Y-130630372D01*
X148515609Y-130630370D01*
X148484847Y-130475720D01*
X148484845Y-130475715D01*
X148424507Y-130330044D01*
X148424500Y-130330031D01*
X148336899Y-130198928D01*
X148336896Y-130198924D01*
X148225402Y-130087430D01*
X148225398Y-130087427D01*
X148094295Y-129999826D01*
X148094282Y-129999819D01*
X147948611Y-129939481D01*
X147948599Y-129939478D01*
X147793955Y-129908717D01*
X147793952Y-129908717D01*
X147463050Y-129908717D01*
X147396011Y-129889032D01*
X147375369Y-129872398D01*
X144893237Y-127390266D01*
X144811643Y-127308672D01*
X145698610Y-127308672D01*
X145698610Y-127505761D01*
X145737057Y-127699045D01*
X145737059Y-127699053D01*
X145812477Y-127881127D01*
X145812482Y-127881137D01*
X145921970Y-128044997D01*
X145921973Y-128045001D01*
X146061325Y-128184353D01*
X146061329Y-128184356D01*
X146225189Y-128293844D01*
X146225193Y-128293846D01*
X146225196Y-128293848D01*
X146407274Y-128369268D01*
X146582034Y-128404030D01*
X146600565Y-128407716D01*
X146600568Y-128407717D01*
X146600570Y-128407717D01*
X146797652Y-128407717D01*
X146797653Y-128407716D01*
X146990946Y-128369268D01*
X147173024Y-128293848D01*
X147336891Y-128184356D01*
X147503522Y-128017724D01*
X147564842Y-127984241D01*
X147634534Y-127989225D01*
X147690468Y-128031096D01*
X147694303Y-128036515D01*
X147699973Y-128045001D01*
X147839325Y-128184353D01*
X147839329Y-128184356D01*
X148003189Y-128293844D01*
X148003193Y-128293846D01*
X148003196Y-128293848D01*
X148185274Y-128369268D01*
X148360034Y-128404030D01*
X148378565Y-128407716D01*
X148378568Y-128407717D01*
X148378570Y-128407717D01*
X148575652Y-128407717D01*
X148575653Y-128407716D01*
X148768946Y-128369268D01*
X148951024Y-128293848D01*
X149114891Y-128184356D01*
X151430011Y-125869236D01*
X151491334Y-125835751D01*
X151517692Y-125832917D01*
X173400863Y-125832917D01*
X173400864Y-125832916D01*
X173594156Y-125794468D01*
X173669575Y-125763228D01*
X173776234Y-125719049D01*
X173940102Y-125609556D01*
X174079459Y-125470199D01*
X174079459Y-125470198D01*
X183290250Y-116259398D01*
X183317529Y-116218570D01*
X183399742Y-116095531D01*
X183475161Y-115913452D01*
X183513610Y-115720158D01*
X183513610Y-111568665D01*
X184664610Y-111568665D01*
X184664610Y-111749768D01*
X184692939Y-111928627D01*
X184748897Y-112100853D01*
X184748898Y-112100856D01*
X184831116Y-112262214D01*
X184937551Y-112408711D01*
X184937555Y-112408716D01*
X185065610Y-112536771D01*
X185065615Y-112536775D01*
X185193397Y-112629613D01*
X185212116Y-112643213D01*
X185315786Y-112696036D01*
X185373470Y-112725428D01*
X185373473Y-112725429D01*
X185458361Y-112753010D01*
X185545701Y-112781388D01*
X185628539Y-112794508D01*
X185724559Y-112809717D01*
X185724564Y-112809717D01*
X185905661Y-112809717D01*
X185992369Y-112795982D01*
X186084519Y-112781388D01*
X186256749Y-112725428D01*
X186314434Y-112696036D01*
X186359189Y-112673232D01*
X186415484Y-112659717D01*
X189032328Y-112659717D01*
X189099367Y-112679402D01*
X189120009Y-112696036D01*
X192326484Y-115902511D01*
X192356734Y-115951873D01*
X192382802Y-116032102D01*
X192463943Y-116191349D01*
X192568999Y-116335945D01*
X192695382Y-116462328D01*
X192839978Y-116567384D01*
X192999229Y-116648526D01*
X192999231Y-116648527D01*
X193157780Y-116700042D01*
X193169213Y-116703757D01*
X193345744Y-116731717D01*
X193345745Y-116731717D01*
X193524475Y-116731717D01*
X193524476Y-116731717D01*
X193701007Y-116703757D01*
X193701010Y-116703756D01*
X193701011Y-116703756D01*
X193870988Y-116648527D01*
X193870988Y-116648526D01*
X193870991Y-116648526D01*
X194030242Y-116567384D01*
X194174838Y-116462328D01*
X194301221Y-116335945D01*
X194406277Y-116191349D01*
X194487419Y-116032098D01*
X194513486Y-115951873D01*
X194542649Y-115862118D01*
X194542649Y-115862117D01*
X194542650Y-115862114D01*
X194570610Y-115685583D01*
X194570610Y-115506851D01*
X194542650Y-115330320D01*
X194542649Y-115330316D01*
X194542649Y-115330315D01*
X194487420Y-115160338D01*
X194487418Y-115160335D01*
X194406276Y-115001084D01*
X194301221Y-114856489D01*
X194174838Y-114730106D01*
X194030242Y-114625050D01*
X193870995Y-114543909D01*
X193790766Y-114517841D01*
X193741404Y-114487591D01*
X190279589Y-111025776D01*
X190279569Y-111025754D01*
X190215167Y-110961352D01*
X192284610Y-110961352D01*
X192284610Y-112357087D01*
X192284611Y-112357093D01*
X192291018Y-112416700D01*
X192341312Y-112551545D01*
X192341316Y-112551552D01*
X192427562Y-112666761D01*
X192427565Y-112666764D01*
X192542774Y-112753010D01*
X192542781Y-112753014D01*
X192677627Y-112803308D01*
X192677626Y-112803308D01*
X192684554Y-112804052D01*
X192737237Y-112809717D01*
X194132982Y-112809716D01*
X194192593Y-112803308D01*
X194327441Y-112753013D01*
X194442656Y-112666763D01*
X194528906Y-112551548D01*
X194579201Y-112416700D01*
X194585610Y-112357090D01*
X194585609Y-110961345D01*
X194579201Y-110901734D01*
X194571869Y-110882077D01*
X194528907Y-110766888D01*
X194528903Y-110766881D01*
X194442657Y-110651672D01*
X194442654Y-110651669D01*
X194327445Y-110565423D01*
X194327438Y-110565419D01*
X194192592Y-110515125D01*
X194192593Y-110515125D01*
X194132993Y-110508718D01*
X194132991Y-110508717D01*
X194132983Y-110508717D01*
X194132974Y-110508717D01*
X192737239Y-110508717D01*
X192737233Y-110508718D01*
X192677626Y-110515125D01*
X192542781Y-110565419D01*
X192542774Y-110565423D01*
X192427565Y-110651669D01*
X192427562Y-110651672D01*
X192341316Y-110766881D01*
X192341312Y-110766888D01*
X192291018Y-110901734D01*
X192285604Y-110952095D01*
X192284611Y-110961340D01*
X192284610Y-110961352D01*
X190215167Y-110961352D01*
X190135895Y-110882080D01*
X190135891Y-110882077D01*
X189972030Y-110772588D01*
X189972021Y-110772583D01*
X189850492Y-110722244D01*
X189850489Y-110722243D01*
X189843275Y-110719255D01*
X189789946Y-110697166D01*
X189679621Y-110675221D01*
X189675343Y-110674370D01*
X189675332Y-110674367D01*
X189596653Y-110658717D01*
X189596651Y-110658717D01*
X186415484Y-110658717D01*
X186359189Y-110645202D01*
X186256749Y-110593005D01*
X186256746Y-110593004D01*
X186084520Y-110537046D01*
X185905661Y-110508717D01*
X185905656Y-110508717D01*
X185724564Y-110508717D01*
X185724559Y-110508717D01*
X185545699Y-110537046D01*
X185373473Y-110593004D01*
X185373470Y-110593005D01*
X185212112Y-110675223D01*
X185065615Y-110781658D01*
X185065610Y-110781662D01*
X184937555Y-110909717D01*
X184937551Y-110909722D01*
X184831116Y-111056219D01*
X184748898Y-111217577D01*
X184748897Y-111217580D01*
X184692939Y-111389806D01*
X184664610Y-111568665D01*
X183513610Y-111568665D01*
X183513610Y-110194549D01*
X183527125Y-110138254D01*
X183547352Y-110098556D01*
X183565419Y-110063098D01*
X183566348Y-110060238D01*
X183620649Y-109893118D01*
X183620649Y-109893117D01*
X183620650Y-109893114D01*
X183648610Y-109716583D01*
X183648610Y-109537851D01*
X183620650Y-109361320D01*
X183620649Y-109361316D01*
X183620649Y-109361315D01*
X183565420Y-109191338D01*
X183565418Y-109191335D01*
X183484276Y-109032084D01*
X183379221Y-108887489D01*
X183252838Y-108761106D01*
X183108242Y-108656050D01*
X182948991Y-108574908D01*
X182948988Y-108574906D01*
X182779009Y-108519677D01*
X182661319Y-108501037D01*
X182602476Y-108491717D01*
X182423744Y-108491717D01*
X182364900Y-108501037D01*
X182247211Y-108519677D01*
X182247208Y-108519677D01*
X182077231Y-108574906D01*
X182077228Y-108574908D01*
X181917977Y-108656050D01*
X181773380Y-108761107D01*
X181647000Y-108887487D01*
X181541943Y-109032084D01*
X181460801Y-109191335D01*
X181460799Y-109191338D01*
X181405570Y-109361315D01*
X181405570Y-109361318D01*
X181377610Y-109537851D01*
X181377610Y-109716582D01*
X181405570Y-109893115D01*
X181405570Y-109893118D01*
X181460799Y-110063095D01*
X181499095Y-110138254D01*
X181512610Y-110194549D01*
X181512610Y-115155834D01*
X181492925Y-115222873D01*
X181476291Y-115243515D01*
X175644620Y-121075191D01*
X175583297Y-121108676D01*
X175513605Y-121103692D01*
X175457672Y-121061820D01*
X175456622Y-121060396D01*
X175378225Y-120952495D01*
X175378221Y-120952489D01*
X175251838Y-120826106D01*
X175107242Y-120721050D01*
X174947991Y-120639908D01*
X174947988Y-120639906D01*
X174778009Y-120584677D01*
X174660319Y-120566037D01*
X174601476Y-120556717D01*
X174422744Y-120556717D01*
X174363900Y-120566037D01*
X174246211Y-120584677D01*
X174246208Y-120584677D01*
X174076231Y-120639906D01*
X174001073Y-120678202D01*
X173944778Y-120691717D01*
X152778177Y-120691717D01*
X152746700Y-120682474D01*
X152714904Y-120674359D01*
X152713339Y-120672678D01*
X152711138Y-120672032D01*
X152689664Y-120647250D01*
X152667293Y-120623222D01*
X152666885Y-120620961D01*
X152665383Y-120619228D01*
X152660715Y-120586767D01*
X152654887Y-120554463D01*
X152655644Y-120551496D01*
X152655439Y-120550070D01*
X152663616Y-120520265D01*
X152709921Y-120408473D01*
X152709921Y-120408472D01*
X152712724Y-120401706D01*
X152741161Y-120333053D01*
X152779610Y-120139758D01*
X152779610Y-119942677D01*
X152779610Y-110172851D01*
X172487610Y-110172851D01*
X172487610Y-110351582D01*
X172515570Y-110528115D01*
X172515570Y-110528118D01*
X172570799Y-110698095D01*
X172570801Y-110698098D01*
X172651943Y-110857349D01*
X172756999Y-111001945D01*
X172883382Y-111128328D01*
X173027978Y-111233384D01*
X173187229Y-111314526D01*
X173187231Y-111314527D01*
X173345780Y-111366042D01*
X173357213Y-111369757D01*
X173533744Y-111397717D01*
X173533745Y-111397717D01*
X173712475Y-111397717D01*
X173712476Y-111397717D01*
X173889007Y-111369757D01*
X173889010Y-111369756D01*
X173889011Y-111369756D01*
X174058988Y-111314527D01*
X174058988Y-111314526D01*
X174058991Y-111314526D01*
X174218242Y-111233384D01*
X174362838Y-111128328D01*
X174489221Y-111001945D01*
X174594277Y-110857349D01*
X174675419Y-110698098D01*
X174705479Y-110605582D01*
X174730649Y-110528118D01*
X174730649Y-110528117D01*
X174730650Y-110528114D01*
X174758610Y-110351583D01*
X174758610Y-110172851D01*
X174730650Y-109996320D01*
X174730649Y-109996316D01*
X174730649Y-109996315D01*
X174694318Y-109884502D01*
X174675419Y-109826336D01*
X174637125Y-109751178D01*
X174623610Y-109694884D01*
X174623610Y-91653998D01*
X174643295Y-91586959D01*
X174659925Y-91566321D01*
X175292094Y-90934151D01*
X175353415Y-90900668D01*
X175423106Y-90905652D01*
X175433575Y-90910114D01*
X175497059Y-90940686D01*
X175679938Y-91004678D01*
X175815144Y-91051989D01*
X175815156Y-91051993D01*
X176143716Y-91126984D01*
X176478602Y-91164716D01*
X176478603Y-91164717D01*
X176478606Y-91164717D01*
X176815617Y-91164717D01*
X176815617Y-91164716D01*
X177150504Y-91126984D01*
X177479064Y-91051993D01*
X177797161Y-90940686D01*
X178100796Y-90794463D01*
X178386149Y-90615163D01*
X178649633Y-90405042D01*
X178887935Y-90166740D01*
X179098056Y-89903256D01*
X179277356Y-89617903D01*
X179423579Y-89314268D01*
X179534886Y-88996171D01*
X179609877Y-88667611D01*
X179647610Y-88332721D01*
X179647610Y-87995713D01*
X179609877Y-87660823D01*
X179534886Y-87332263D01*
X179423579Y-87014166D01*
X179277356Y-86710531D01*
X179098056Y-86425178D01*
X178887935Y-86161694D01*
X178649633Y-85923392D01*
X178386149Y-85713271D01*
X178100796Y-85533971D01*
X178100793Y-85533969D01*
X177797164Y-85387749D01*
X177479075Y-85276444D01*
X177479063Y-85276440D01*
X177150507Y-85201450D01*
X177150491Y-85201448D01*
X176815618Y-85163717D01*
X176815614Y-85163717D01*
X176478606Y-85163717D01*
X176478601Y-85163717D01*
X176143728Y-85201448D01*
X176143712Y-85201450D01*
X175815156Y-85276440D01*
X175815144Y-85276444D01*
X175497055Y-85387749D01*
X175193426Y-85533969D01*
X174908072Y-85713270D01*
X174644587Y-85923391D01*
X174406284Y-86161694D01*
X174196163Y-86425179D01*
X174016862Y-86710533D01*
X173870642Y-87014162D01*
X173759337Y-87332251D01*
X173759333Y-87332263D01*
X173684343Y-87660819D01*
X173684341Y-87660835D01*
X173646610Y-87995708D01*
X173646610Y-88332725D01*
X173684341Y-88667598D01*
X173684343Y-88667614D01*
X173759333Y-88996170D01*
X173759337Y-88996182D01*
X173870642Y-89314271D01*
X173901212Y-89377749D01*
X173912564Y-89446690D01*
X173884842Y-89510825D01*
X173877173Y-89519232D01*
X173229667Y-90166739D01*
X172985331Y-90411075D01*
X172985328Y-90411078D01*
X172915648Y-90480757D01*
X172845969Y-90550436D01*
X172736481Y-90714296D01*
X172736474Y-90714309D01*
X172661060Y-90896377D01*
X172661057Y-90896387D01*
X172622610Y-91089673D01*
X172622610Y-109694884D01*
X172609095Y-109751178D01*
X172570800Y-109826336D01*
X172570800Y-109826337D01*
X172515570Y-109996315D01*
X172515570Y-109996318D01*
X172487610Y-110172851D01*
X152779610Y-110172851D01*
X152779610Y-87995708D01*
X155406610Y-87995708D01*
X155406610Y-88332725D01*
X155444341Y-88667598D01*
X155444343Y-88667614D01*
X155519333Y-88996170D01*
X155519337Y-88996182D01*
X155630642Y-89314271D01*
X155776862Y-89617900D01*
X155776864Y-89617903D01*
X155956164Y-89903256D01*
X156166285Y-90166740D01*
X156404587Y-90405042D01*
X156668071Y-90615163D01*
X156953424Y-90794463D01*
X157257059Y-90940686D01*
X157439938Y-91004678D01*
X157575144Y-91051989D01*
X157575156Y-91051993D01*
X157903716Y-91126984D01*
X158238602Y-91164716D01*
X158238603Y-91164717D01*
X158238606Y-91164717D01*
X158575617Y-91164717D01*
X158575617Y-91164716D01*
X158910504Y-91126984D01*
X159239064Y-91051993D01*
X159557161Y-90940686D01*
X159860796Y-90794463D01*
X160146149Y-90615163D01*
X160409633Y-90405042D01*
X160647935Y-90166740D01*
X160858056Y-89903256D01*
X161037356Y-89617903D01*
X161183579Y-89314268D01*
X161294886Y-88996171D01*
X161369877Y-88667611D01*
X161407610Y-88332721D01*
X161407610Y-87995713D01*
X161369877Y-87660823D01*
X161294886Y-87332263D01*
X161183579Y-87014166D01*
X161037356Y-86710531D01*
X160858056Y-86425178D01*
X160647935Y-86161694D01*
X160409633Y-85923392D01*
X160146149Y-85713271D01*
X159860796Y-85533971D01*
X159860793Y-85533969D01*
X159557164Y-85387749D01*
X159239075Y-85276444D01*
X159239063Y-85276440D01*
X158910507Y-85201450D01*
X158910491Y-85201448D01*
X158575618Y-85163717D01*
X158575614Y-85163717D01*
X158238606Y-85163717D01*
X158238601Y-85163717D01*
X157903728Y-85201448D01*
X157903712Y-85201450D01*
X157575156Y-85276440D01*
X157575144Y-85276444D01*
X157257055Y-85387749D01*
X156953426Y-85533969D01*
X156668072Y-85713270D01*
X156404587Y-85923391D01*
X156166284Y-86161694D01*
X155956163Y-86425179D01*
X155776862Y-86710533D01*
X155630642Y-87014162D01*
X155519337Y-87332251D01*
X155519333Y-87332263D01*
X155444343Y-87660819D01*
X155444341Y-87660835D01*
X155406610Y-87995708D01*
X152779610Y-87995708D01*
X152779610Y-65428459D01*
X154136110Y-65428459D01*
X154136110Y-65637174D01*
X154168760Y-65843323D01*
X154233259Y-66041828D01*
X154321103Y-66214231D01*
X154328013Y-66227792D01*
X154450694Y-66396648D01*
X154598279Y-66544233D01*
X154767135Y-66666914D01*
X154854998Y-66711682D01*
X154953098Y-66761667D01*
X154953100Y-66761667D01*
X154953103Y-66761669D01*
X155059504Y-66796241D01*
X155151603Y-66826166D01*
X155158195Y-66827210D01*
X155357752Y-66858817D01*
X155357753Y-66858817D01*
X155566467Y-66858817D01*
X155566468Y-66858817D01*
X155772616Y-66826166D01*
X155971117Y-66761669D01*
X156157085Y-66666914D01*
X156325941Y-66544233D01*
X156473526Y-66396648D01*
X156596207Y-66227792D01*
X156690962Y-66041824D01*
X156755459Y-65843323D01*
X156788110Y-65637175D01*
X156788110Y-65428459D01*
X161248110Y-65428459D01*
X161248110Y-65637174D01*
X161280760Y-65843323D01*
X161345259Y-66041828D01*
X161433103Y-66214231D01*
X161440013Y-66227792D01*
X161562694Y-66396648D01*
X161710279Y-66544233D01*
X161879135Y-66666914D01*
X161966998Y-66711682D01*
X162065098Y-66761667D01*
X162065100Y-66761667D01*
X162065103Y-66761669D01*
X162171504Y-66796241D01*
X162263603Y-66826166D01*
X162270195Y-66827210D01*
X162469752Y-66858817D01*
X162469753Y-66858817D01*
X162678467Y-66858817D01*
X162678468Y-66858817D01*
X162884616Y-66826166D01*
X163083117Y-66761669D01*
X163269085Y-66666914D01*
X163437941Y-66544233D01*
X163585526Y-66396648D01*
X163708207Y-66227792D01*
X163802962Y-66041824D01*
X163867459Y-65843323D01*
X163900110Y-65637175D01*
X163900110Y-65446852D01*
X172868610Y-65446852D01*
X172868610Y-67447587D01*
X172868611Y-67447593D01*
X172875018Y-67507200D01*
X172925312Y-67642045D01*
X172925316Y-67642052D01*
X173011562Y-67757261D01*
X173011565Y-67757264D01*
X173126774Y-67843510D01*
X173126779Y-67843513D01*
X173154649Y-67853907D01*
X173210583Y-67895778D01*
X173235001Y-67961241D01*
X173220150Y-68029515D01*
X173211635Y-68042976D01*
X173078893Y-68225678D01*
X172975060Y-68429461D01*
X172904388Y-68646967D01*
X172904388Y-68646970D01*
X172868610Y-68872863D01*
X172868610Y-69101570D01*
X172904388Y-69327463D01*
X172904388Y-69327466D01*
X172975060Y-69544972D01*
X173065227Y-69721934D01*
X173078893Y-69748755D01*
X173213324Y-69933783D01*
X173375044Y-70095503D01*
X173560072Y-70229934D01*
X173763852Y-70333765D01*
X173763854Y-70333766D01*
X173981361Y-70404438D01*
X173981362Y-70404438D01*
X173981365Y-70404439D01*
X174207256Y-70440217D01*
X174207257Y-70440217D01*
X174816955Y-70440217D01*
X174816964Y-70440217D01*
X174816972Y-70440215D01*
X174820356Y-70439949D01*
X174821632Y-70440217D01*
X174821836Y-70440217D01*
X174821836Y-70440259D01*
X174888734Y-70454306D01*
X174917778Y-70475885D01*
X180814291Y-76372397D01*
X180847776Y-76433720D01*
X180850610Y-76460078D01*
X180850610Y-99369530D01*
X180830925Y-99436569D01*
X180826928Y-99442416D01*
X180779943Y-99507084D01*
X180698801Y-99666335D01*
X180698799Y-99666338D01*
X180643570Y-99836315D01*
X180643570Y-99836318D01*
X180615610Y-100012851D01*
X180615610Y-100191582D01*
X180643570Y-100368115D01*
X180643570Y-100368118D01*
X180698799Y-100538095D01*
X180698801Y-100538098D01*
X180779943Y-100697349D01*
X180884999Y-100841945D01*
X181011382Y-100968328D01*
X181155978Y-101073384D01*
X181315229Y-101154526D01*
X181315231Y-101154527D01*
X181473780Y-101206042D01*
X181485213Y-101209757D01*
X181661744Y-101237717D01*
X181661745Y-101237717D01*
X181840475Y-101237717D01*
X181840476Y-101237717D01*
X182017007Y-101209757D01*
X182017010Y-101209756D01*
X182017011Y-101209756D01*
X182186988Y-101154527D01*
X182186988Y-101154526D01*
X182186991Y-101154526D01*
X182346242Y-101073384D01*
X182490838Y-100968328D01*
X182617221Y-100841945D01*
X182722277Y-100697349D01*
X182803419Y-100538098D01*
X182858650Y-100368114D01*
X182886610Y-100191583D01*
X182886610Y-100012851D01*
X182858650Y-99836320D01*
X182858649Y-99836316D01*
X182858649Y-99836315D01*
X182803420Y-99666338D01*
X182803418Y-99666335D01*
X182722276Y-99507084D01*
X182675292Y-99442416D01*
X182651812Y-99376609D01*
X182651610Y-99369530D01*
X182651610Y-75947023D01*
X182651609Y-75947021D01*
X182617006Y-75773058D01*
X182617003Y-75773049D01*
X182549126Y-75609176D01*
X182549119Y-75609163D01*
X182450575Y-75461683D01*
X182450574Y-75461682D01*
X182325145Y-75336253D01*
X176191278Y-69202385D01*
X176157793Y-69141062D01*
X176155342Y-69104963D01*
X176155608Y-69101579D01*
X176155610Y-69101571D01*
X176155610Y-68872863D01*
X176119832Y-68646972D01*
X176119831Y-68646968D01*
X176119831Y-68646967D01*
X176049159Y-68429461D01*
X176016245Y-68364863D01*
X175945327Y-68225679D01*
X175812582Y-68042972D01*
X175789104Y-67977170D01*
X175804929Y-67909116D01*
X175855035Y-67860421D01*
X175869565Y-67853909D01*
X175897441Y-67843513D01*
X176012656Y-67757263D01*
X176098906Y-67642048D01*
X176149201Y-67507200D01*
X176155610Y-67447590D01*
X176155609Y-65446845D01*
X176149201Y-65387234D01*
X176098906Y-65252386D01*
X176098905Y-65252385D01*
X176098903Y-65252381D01*
X176012657Y-65137172D01*
X176012654Y-65137169D01*
X175897445Y-65050923D01*
X175897438Y-65050919D01*
X175762592Y-65000625D01*
X175762593Y-65000625D01*
X175702993Y-64994218D01*
X175702991Y-64994217D01*
X175702983Y-64994217D01*
X175702974Y-64994217D01*
X173321239Y-64994217D01*
X173321233Y-64994218D01*
X173261626Y-65000625D01*
X173126781Y-65050919D01*
X173126774Y-65050923D01*
X173011565Y-65137169D01*
X173011562Y-65137172D01*
X172925316Y-65252381D01*
X172925312Y-65252388D01*
X172875018Y-65387234D01*
X172868611Y-65446833D01*
X172868611Y-65446840D01*
X172868610Y-65446852D01*
X163900110Y-65446852D01*
X163900110Y-65428459D01*
X163872223Y-65252388D01*
X163867459Y-65222310D01*
X163825560Y-65093360D01*
X163802962Y-65023810D01*
X163802960Y-65023807D01*
X163802960Y-65023805D01*
X163738695Y-64897679D01*
X163708207Y-64837842D01*
X163585526Y-64668986D01*
X163437941Y-64521401D01*
X163269085Y-64398720D01*
X163260612Y-64394403D01*
X163083121Y-64303966D01*
X162884616Y-64239467D01*
X162706653Y-64211281D01*
X162678468Y-64206817D01*
X162469752Y-64206817D01*
X162444956Y-64210744D01*
X162263603Y-64239467D01*
X162065098Y-64303966D01*
X161879134Y-64398720D01*
X161710276Y-64521403D01*
X161562696Y-64668983D01*
X161440013Y-64837841D01*
X161345259Y-65023805D01*
X161280760Y-65222310D01*
X161248110Y-65428459D01*
X156788110Y-65428459D01*
X156760223Y-65252388D01*
X156755459Y-65222310D01*
X156713560Y-65093360D01*
X156690962Y-65023810D01*
X156690960Y-65023807D01*
X156690960Y-65023805D01*
X156626695Y-64897679D01*
X156596207Y-64837842D01*
X156473526Y-64668986D01*
X156325941Y-64521401D01*
X156157085Y-64398720D01*
X156148612Y-64394403D01*
X155971121Y-64303966D01*
X155772616Y-64239467D01*
X155594653Y-64211281D01*
X155566468Y-64206817D01*
X155357752Y-64206817D01*
X155332956Y-64210744D01*
X155151603Y-64239467D01*
X154953098Y-64303966D01*
X154767134Y-64398720D01*
X154598276Y-64521403D01*
X154450696Y-64668983D01*
X154328013Y-64837841D01*
X154233259Y-65023805D01*
X154168760Y-65222310D01*
X154136110Y-65428459D01*
X152779610Y-65428459D01*
X152779610Y-65160399D01*
X152799295Y-65093360D01*
X152815929Y-65072718D01*
X155514712Y-62373935D01*
X155576035Y-62340450D01*
X155602393Y-62337616D01*
X156335481Y-62337616D01*
X156335482Y-62337616D01*
X156395093Y-62331208D01*
X156529941Y-62280913D01*
X156645156Y-62194663D01*
X156731406Y-62079448D01*
X156781701Y-61944600D01*
X156788110Y-61884990D01*
X156788109Y-60907259D01*
X161248110Y-60907259D01*
X161248110Y-61115974D01*
X161280760Y-61322123D01*
X161345259Y-61520628D01*
X161440013Y-61706592D01*
X161562694Y-61875448D01*
X161710279Y-62023033D01*
X161879135Y-62145714D01*
X161966998Y-62190482D01*
X162065098Y-62240467D01*
X162065100Y-62240467D01*
X162065103Y-62240469D01*
X162171504Y-62275041D01*
X162263603Y-62304966D01*
X162366678Y-62321291D01*
X162469752Y-62337617D01*
X162469753Y-62337617D01*
X162678467Y-62337617D01*
X162678468Y-62337617D01*
X162884616Y-62304966D01*
X163083117Y-62240469D01*
X163269085Y-62145714D01*
X163437941Y-62023033D01*
X163585526Y-61875448D01*
X163708207Y-61706592D01*
X163802962Y-61520624D01*
X163867459Y-61322123D01*
X163900110Y-61115975D01*
X163900110Y-60907259D01*
X163894420Y-60871333D01*
X163867459Y-60701110D01*
X163826194Y-60574110D01*
X163802962Y-60502610D01*
X163802960Y-60502607D01*
X163802960Y-60502605D01*
X163747169Y-60393110D01*
X163708207Y-60316642D01*
X163585526Y-60147786D01*
X163437941Y-60000201D01*
X163269085Y-59877520D01*
X163260612Y-59873203D01*
X163083121Y-59782766D01*
X162884616Y-59718267D01*
X162706653Y-59690081D01*
X162678468Y-59685617D01*
X162469752Y-59685617D01*
X162444956Y-59689544D01*
X162263603Y-59718267D01*
X162065098Y-59782766D01*
X161879134Y-59877520D01*
X161710276Y-60000203D01*
X161562696Y-60147783D01*
X161440013Y-60316641D01*
X161345259Y-60502605D01*
X161280760Y-60701110D01*
X161248110Y-60907259D01*
X156788109Y-60907259D01*
X156788109Y-60138245D01*
X156781701Y-60078634D01*
X156780792Y-60076198D01*
X156731407Y-59943788D01*
X156731403Y-59943781D01*
X156645157Y-59828572D01*
X156645154Y-59828569D01*
X156529945Y-59742323D01*
X156529938Y-59742319D01*
X156395092Y-59692025D01*
X156395093Y-59692025D01*
X156335493Y-59685618D01*
X156335491Y-59685617D01*
X156335483Y-59685617D01*
X156335474Y-59685617D01*
X154588739Y-59685617D01*
X154588733Y-59685618D01*
X154529126Y-59692025D01*
X154394281Y-59742319D01*
X154394274Y-59742323D01*
X154279065Y-59828569D01*
X154279062Y-59828572D01*
X154192816Y-59943781D01*
X154192812Y-59943788D01*
X154142518Y-60078634D01*
X154139866Y-60103307D01*
X154136111Y-60138240D01*
X154136110Y-60138252D01*
X154136110Y-60871333D01*
X154116425Y-60938372D01*
X154099790Y-60959014D01*
X151141330Y-63917476D01*
X151141328Y-63917478D01*
X151071648Y-63987157D01*
X151001969Y-64056836D01*
X150892481Y-64220696D01*
X150892476Y-64220706D01*
X150839147Y-64349453D01*
X150839146Y-64349452D01*
X150818741Y-64398720D01*
X150818739Y-64398726D01*
X150817059Y-64402780D01*
X150778610Y-64596073D01*
X150778610Y-119575434D01*
X150758925Y-119642473D01*
X150742291Y-119663115D01*
X149477973Y-120927432D01*
X149477970Y-120927436D01*
X149368482Y-121091296D01*
X149368477Y-121091306D01*
X149293059Y-121273380D01*
X149293057Y-121273388D01*
X149254610Y-121466672D01*
X149254610Y-121663761D01*
X149293057Y-121857045D01*
X149293059Y-121857053D01*
X149368477Y-122039127D01*
X149368482Y-122039137D01*
X149477970Y-122202997D01*
X149477973Y-122203001D01*
X149617325Y-122342353D01*
X149617329Y-122342356D01*
X149781189Y-122451844D01*
X149781193Y-122451846D01*
X149781196Y-122451848D01*
X149933853Y-122515081D01*
X149988256Y-122558922D01*
X150010321Y-122625216D01*
X149993042Y-122692916D01*
X149974081Y-122717323D01*
X145921973Y-126769432D01*
X145921970Y-126769436D01*
X145812482Y-126933296D01*
X145812477Y-126933306D01*
X145737059Y-127115380D01*
X145737057Y-127115388D01*
X145698610Y-127308672D01*
X144811643Y-127308672D01*
X137049402Y-119546430D01*
X137049398Y-119546427D01*
X136918295Y-119458826D01*
X136918282Y-119458819D01*
X136772611Y-119398481D01*
X136772599Y-119398478D01*
X136617955Y-119367717D01*
X136617952Y-119367717D01*
X136460268Y-119367717D01*
X136460265Y-119367717D01*
X136305620Y-119398478D01*
X136305608Y-119398481D01*
X136159937Y-119458819D01*
X136159924Y-119458826D01*
X136028821Y-119546427D01*
X136028817Y-119546430D01*
X135917323Y-119657924D01*
X135917320Y-119657928D01*
X135829719Y-119789031D01*
X135829712Y-119789044D01*
X135769374Y-119934715D01*
X135769371Y-119934727D01*
X135738610Y-120089370D01*
X127686342Y-120089370D01*
X126889402Y-119292430D01*
X126889398Y-119292427D01*
X126758295Y-119204826D01*
X126758282Y-119204819D01*
X126612611Y-119144481D01*
X126612599Y-119144478D01*
X126457955Y-119113717D01*
X126457952Y-119113717D01*
X126300268Y-119113717D01*
X126300265Y-119113717D01*
X126145620Y-119144478D01*
X126145608Y-119144481D01*
X125999937Y-119204819D01*
X125999924Y-119204826D01*
X125868821Y-119292427D01*
X125868817Y-119292430D01*
X125757323Y-119403924D01*
X125757320Y-119403928D01*
X125669719Y-119535031D01*
X125669712Y-119535044D01*
X125609374Y-119680715D01*
X125609371Y-119680727D01*
X125578610Y-119835370D01*
X117624610Y-119835370D01*
X117624610Y-91080998D01*
X117644295Y-91013959D01*
X117697099Y-90968204D01*
X117707636Y-90963963D01*
X117774161Y-90940686D01*
X118077796Y-90794463D01*
X118363149Y-90615163D01*
X118626633Y-90405042D01*
X118864935Y-90166740D01*
X119075056Y-89903256D01*
X119254356Y-89617903D01*
X119400579Y-89314268D01*
X119511886Y-88996171D01*
X119586877Y-88667611D01*
X119624610Y-88332721D01*
X119624610Y-87995713D01*
X119586877Y-87660823D01*
X119511886Y-87332263D01*
X119400579Y-87014166D01*
X119254356Y-86710531D01*
X119075056Y-86425178D01*
X118864935Y-86161694D01*
X118626633Y-85923392D01*
X118363149Y-85713271D01*
X118077796Y-85533971D01*
X118077793Y-85533969D01*
X117774164Y-85387749D01*
X117456075Y-85276444D01*
X117456063Y-85276440D01*
X117127507Y-85201450D01*
X117127491Y-85201448D01*
X116792618Y-85163717D01*
X116792614Y-85163717D01*
X116455606Y-85163717D01*
X116455601Y-85163717D01*
X116120728Y-85201448D01*
X116120712Y-85201450D01*
X115792156Y-85276440D01*
X115792144Y-85276444D01*
X115474055Y-85387749D01*
X115170426Y-85533969D01*
X114885072Y-85713270D01*
X114621587Y-85923391D01*
X114383284Y-86161694D01*
X114173163Y-86425179D01*
X113993862Y-86710533D01*
X113847642Y-87014162D01*
X113736337Y-87332251D01*
X113736333Y-87332263D01*
X113661343Y-87660819D01*
X113661341Y-87660835D01*
X113623610Y-87995708D01*
X105408610Y-87995708D01*
X105408610Y-87176676D01*
X105408610Y-65236608D01*
X105428295Y-65169569D01*
X105444925Y-65148931D01*
X105655004Y-64938852D01*
X108606610Y-64938852D01*
X108606610Y-66939587D01*
X108606611Y-66939593D01*
X108613018Y-66999200D01*
X108663312Y-67134045D01*
X108663316Y-67134052D01*
X108749562Y-67249261D01*
X108749565Y-67249264D01*
X108864774Y-67335510D01*
X108864779Y-67335513D01*
X108892649Y-67345907D01*
X108948583Y-67387778D01*
X108973001Y-67453241D01*
X108958150Y-67521515D01*
X108949635Y-67534976D01*
X108816893Y-67717678D01*
X108713060Y-67921461D01*
X108642388Y-68138967D01*
X108642388Y-68138970D01*
X108642388Y-68138972D01*
X108606610Y-68364863D01*
X108606610Y-68593571D01*
X108622090Y-68691304D01*
X108642388Y-68819463D01*
X108642388Y-68819466D01*
X108713060Y-69036972D01*
X108816893Y-69240755D01*
X108951324Y-69425783D01*
X109113044Y-69587503D01*
X109298072Y-69721934D01*
X109501852Y-69825765D01*
X109501854Y-69825766D01*
X109719361Y-69896438D01*
X109719362Y-69896438D01*
X109719365Y-69896439D01*
X109945256Y-69932217D01*
X109945257Y-69932217D01*
X110554955Y-69932217D01*
X110554964Y-69932217D01*
X110554972Y-69932215D01*
X110558356Y-69931949D01*
X110559632Y-69932217D01*
X110559836Y-69932217D01*
X110559836Y-69932259D01*
X110626734Y-69946306D01*
X110655778Y-69967885D01*
X123029291Y-82341397D01*
X123062776Y-82402720D01*
X123065610Y-82429078D01*
X123065610Y-111307530D01*
X123045925Y-111374569D01*
X123041928Y-111380416D01*
X122994943Y-111445084D01*
X122913801Y-111604335D01*
X122913799Y-111604338D01*
X122858570Y-111774315D01*
X122858570Y-111774318D01*
X122830610Y-111950851D01*
X122830610Y-112129582D01*
X122858570Y-112306115D01*
X122858570Y-112306118D01*
X122913799Y-112476095D01*
X122913801Y-112476098D01*
X122994943Y-112635349D01*
X123099999Y-112779945D01*
X123226382Y-112906328D01*
X123370978Y-113011384D01*
X123530229Y-113092526D01*
X123530231Y-113092527D01*
X123688780Y-113144042D01*
X123700213Y-113147757D01*
X123876744Y-113175717D01*
X123876745Y-113175717D01*
X124055475Y-113175717D01*
X124055476Y-113175717D01*
X124232007Y-113147757D01*
X124232010Y-113147756D01*
X124232011Y-113147756D01*
X124401988Y-113092527D01*
X124401988Y-113092526D01*
X124401991Y-113092526D01*
X124561242Y-113011384D01*
X124705838Y-112906328D01*
X124832221Y-112779945D01*
X124937277Y-112635349D01*
X125018419Y-112476098D01*
X125073650Y-112306114D01*
X125101610Y-112129583D01*
X125101610Y-111950851D01*
X125073650Y-111774320D01*
X125073649Y-111774316D01*
X125073649Y-111774315D01*
X125018420Y-111604338D01*
X125018418Y-111604335D01*
X125000247Y-111568671D01*
X124937277Y-111445085D01*
X124890292Y-111380416D01*
X124866812Y-111314609D01*
X124866610Y-111307530D01*
X124866610Y-87995708D01*
X131863610Y-87995708D01*
X131863610Y-88332725D01*
X131901341Y-88667598D01*
X131901343Y-88667614D01*
X131976333Y-88996170D01*
X131976337Y-88996182D01*
X132087642Y-89314271D01*
X132233862Y-89617900D01*
X132233864Y-89617903D01*
X132413164Y-89903256D01*
X132623285Y-90166740D01*
X132861587Y-90405042D01*
X133043904Y-90550435D01*
X133125075Y-90615166D01*
X133246241Y-90691299D01*
X133292533Y-90743633D01*
X133304270Y-90796293D01*
X133304270Y-109850064D01*
X133284585Y-109917103D01*
X133282635Y-109919955D01*
X133281947Y-109921077D01*
X133200800Y-110080335D01*
X133200799Y-110080338D01*
X133145570Y-110250315D01*
X133145570Y-110250318D01*
X133117610Y-110426851D01*
X133117610Y-110605582D01*
X133145570Y-110782115D01*
X133145570Y-110782118D01*
X133200799Y-110952095D01*
X133200801Y-110952098D01*
X133281943Y-111111349D01*
X133386999Y-111255945D01*
X133513382Y-111382328D01*
X133657978Y-111487384D01*
X133817229Y-111568526D01*
X133817231Y-111568527D01*
X133927438Y-111604335D01*
X133987213Y-111623757D01*
X134163744Y-111651717D01*
X134163745Y-111651717D01*
X134342475Y-111651717D01*
X134342476Y-111651717D01*
X134519007Y-111623757D01*
X134519010Y-111623756D01*
X134519011Y-111623756D01*
X134688988Y-111568527D01*
X134688988Y-111568526D01*
X134688991Y-111568526D01*
X134848242Y-111487384D01*
X134992838Y-111382328D01*
X135119221Y-111255945D01*
X135224277Y-111111349D01*
X135305419Y-110952098D01*
X135360650Y-110782114D01*
X135388610Y-110605583D01*
X135388610Y-110426851D01*
X135360650Y-110250320D01*
X135360649Y-110250316D01*
X135360649Y-110250315D01*
X135311339Y-110098556D01*
X135305270Y-110060238D01*
X135305270Y-91240074D01*
X135324955Y-91173035D01*
X135377759Y-91127280D01*
X135401668Y-91119186D01*
X135696064Y-91051993D01*
X136014161Y-90940686D01*
X136317796Y-90794463D01*
X136603149Y-90615163D01*
X136866633Y-90405042D01*
X137104935Y-90166740D01*
X137315056Y-89903256D01*
X137494356Y-89617903D01*
X137640579Y-89314268D01*
X137751886Y-88996171D01*
X137826877Y-88667611D01*
X137864610Y-88332721D01*
X137864610Y-87995713D01*
X137826877Y-87660823D01*
X137751886Y-87332263D01*
X137640579Y-87014166D01*
X137494356Y-86710531D01*
X137315056Y-86425178D01*
X137104935Y-86161694D01*
X136866633Y-85923392D01*
X136603149Y-85713271D01*
X136317796Y-85533971D01*
X136317793Y-85533969D01*
X136014164Y-85387749D01*
X135696075Y-85276444D01*
X135696063Y-85276440D01*
X135367507Y-85201450D01*
X135367491Y-85201448D01*
X135032618Y-85163717D01*
X135032614Y-85163717D01*
X134695606Y-85163717D01*
X134695601Y-85163717D01*
X134360728Y-85201448D01*
X134360712Y-85201450D01*
X134032156Y-85276440D01*
X134032144Y-85276444D01*
X133714055Y-85387749D01*
X133410426Y-85533969D01*
X133125072Y-85713270D01*
X132861587Y-85923391D01*
X132623284Y-86161694D01*
X132413163Y-86425179D01*
X132233862Y-86710533D01*
X132087642Y-87014162D01*
X131976337Y-87332251D01*
X131976333Y-87332263D01*
X131901343Y-87660819D01*
X131901341Y-87660835D01*
X131863610Y-87995708D01*
X124866610Y-87995708D01*
X124866610Y-81916025D01*
X124866609Y-81916021D01*
X124832006Y-81742058D01*
X124832005Y-81742051D01*
X124766449Y-81583788D01*
X124764805Y-81579191D01*
X124665575Y-81430683D01*
X124665574Y-81430682D01*
X124540145Y-81305253D01*
X118249533Y-75014641D01*
X111929278Y-68694385D01*
X111895793Y-68633062D01*
X111893342Y-68596963D01*
X111893608Y-68593579D01*
X111893610Y-68593571D01*
X111893610Y-68364863D01*
X111857832Y-68138972D01*
X111857831Y-68138968D01*
X111857831Y-68138967D01*
X111787159Y-67921461D01*
X111773069Y-67893808D01*
X111683327Y-67717679D01*
X111550582Y-67534972D01*
X111527104Y-67469170D01*
X111542929Y-67401116D01*
X111593035Y-67352421D01*
X111607565Y-67345909D01*
X111635441Y-67335513D01*
X111750656Y-67249263D01*
X111836906Y-67134048D01*
X111887201Y-66999200D01*
X111893610Y-66939590D01*
X111893609Y-64938845D01*
X111887201Y-64879234D01*
X111871762Y-64837841D01*
X111836907Y-64744388D01*
X111836903Y-64744381D01*
X111750657Y-64629172D01*
X111750654Y-64629169D01*
X111635445Y-64542923D01*
X111635438Y-64542919D01*
X111500592Y-64492625D01*
X111500593Y-64492625D01*
X111440993Y-64486218D01*
X111440991Y-64486217D01*
X111440983Y-64486217D01*
X111440974Y-64486217D01*
X109059239Y-64486217D01*
X109059233Y-64486218D01*
X108999626Y-64492625D01*
X108864781Y-64542919D01*
X108864774Y-64542923D01*
X108749565Y-64629169D01*
X108749562Y-64629172D01*
X108663316Y-64744381D01*
X108663312Y-64744388D01*
X108613018Y-64879234D01*
X108606611Y-64938833D01*
X108606611Y-64938840D01*
X108606610Y-64938852D01*
X105655004Y-64938852D01*
X111243923Y-59349925D01*
X111305246Y-59316441D01*
X111331604Y-59313607D01*
X120960117Y-59313607D01*
X121027156Y-59333292D01*
X121072911Y-59386096D01*
X121082855Y-59455254D01*
X121053830Y-59518810D01*
X120996113Y-59556267D01*
X120944943Y-59571789D01*
X120880403Y-59591367D01*
X120562645Y-59722987D01*
X120562640Y-59722989D01*
X120259334Y-59885110D01*
X120259316Y-59885121D01*
X119973358Y-60076192D01*
X119973344Y-60076202D01*
X119707477Y-60294393D01*
X119464286Y-60537584D01*
X119246095Y-60803451D01*
X119246085Y-60803465D01*
X119055014Y-61089423D01*
X119055003Y-61089441D01*
X118892882Y-61392747D01*
X118892880Y-61392752D01*
X118761260Y-61710510D01*
X118661418Y-62039644D01*
X118594320Y-62376967D01*
X118560610Y-62719251D01*
X118560610Y-63063182D01*
X118594320Y-63405466D01*
X118661418Y-63742789D01*
X118761260Y-64071923D01*
X118817135Y-64206817D01*
X118876216Y-64349452D01*
X118892880Y-64389681D01*
X118892882Y-64389686D01*
X119055003Y-64692992D01*
X119055014Y-64693010D01*
X119246085Y-64978968D01*
X119246095Y-64978982D01*
X119464286Y-65244849D01*
X119707477Y-65488040D01*
X119707482Y-65488044D01*
X119707483Y-65488045D01*
X119973350Y-65706236D01*
X120259323Y-65897317D01*
X120259332Y-65897322D01*
X120259334Y-65897323D01*
X120562640Y-66059444D01*
X120562642Y-66059444D01*
X120562648Y-66059448D01*
X120880405Y-66191067D01*
X121209532Y-66290907D01*
X121546860Y-66358006D01*
X121889141Y-66391717D01*
X121889144Y-66391717D01*
X122233076Y-66391717D01*
X122233079Y-66391717D01*
X122575360Y-66358006D01*
X122912688Y-66290907D01*
X123241815Y-66191067D01*
X123559572Y-66059448D01*
X123862897Y-65897317D01*
X124148870Y-65706236D01*
X124414737Y-65488045D01*
X124657938Y-65244844D01*
X124876129Y-64978977D01*
X125067210Y-64693004D01*
X125229341Y-64389679D01*
X125360960Y-64071922D01*
X125460800Y-63742795D01*
X125527899Y-63405467D01*
X125561610Y-63063186D01*
X125561610Y-62719248D01*
X125527899Y-62376967D01*
X125460800Y-62039639D01*
X125360960Y-61710512D01*
X125229341Y-61392755D01*
X125191587Y-61322123D01*
X125067216Y-61089441D01*
X125067215Y-61089439D01*
X125067210Y-61089430D01*
X124876129Y-60803457D01*
X124657938Y-60537590D01*
X124657937Y-60537589D01*
X124657933Y-60537584D01*
X124414742Y-60294393D01*
X124148875Y-60076202D01*
X124148874Y-60076201D01*
X124148870Y-60076198D01*
X123862897Y-59885117D01*
X123862892Y-59885114D01*
X123862885Y-59885110D01*
X123559579Y-59722989D01*
X123559574Y-59722987D01*
X123548181Y-59718268D01*
X123466504Y-59684436D01*
X123241816Y-59591367D01*
X123197065Y-59577792D01*
X123126106Y-59556267D01*
X123067669Y-59517970D01*
X123039213Y-59454158D01*
X123049773Y-59385091D01*
X123095997Y-59332697D01*
X123162103Y-59313607D01*
X137282283Y-59313607D01*
X137349322Y-59333292D01*
X137395077Y-59386096D01*
X137405021Y-59455254D01*
X137375996Y-59518810D01*
X137317218Y-59556584D01*
X137295536Y-59560897D01*
X137257126Y-59565025D01*
X137122281Y-59615319D01*
X137122274Y-59615323D01*
X137007065Y-59701569D01*
X137007062Y-59701572D01*
X136920816Y-59816781D01*
X136920812Y-59816788D01*
X136870518Y-59951634D01*
X136868736Y-59959179D01*
X136866587Y-59958671D01*
X136844140Y-60012870D01*
X136786749Y-60052720D01*
X136747586Y-60059067D01*
X136494218Y-60059067D01*
X136470156Y-60063853D01*
X136446093Y-60068640D01*
X136446092Y-60068640D01*
X136300927Y-60097514D01*
X136300919Y-60097517D01*
X136247594Y-60119604D01*
X136247594Y-60119605D01*
X136202623Y-60138233D01*
X136118849Y-60172933D01*
X136118839Y-60172938D01*
X135954979Y-60282426D01*
X135885300Y-60352105D01*
X135815621Y-60421785D01*
X135815618Y-60421788D01*
X134504331Y-61733075D01*
X134504328Y-61733078D01*
X134434648Y-61802757D01*
X134364969Y-61872436D01*
X134255481Y-62036296D01*
X134255474Y-62036309D01*
X134223515Y-62113468D01*
X134183275Y-62210617D01*
X134180059Y-62218381D01*
X134174407Y-62246798D01*
X134141610Y-62411673D01*
X134141610Y-62411676D01*
X134141610Y-67053758D01*
X134157307Y-67132669D01*
X134180059Y-67247053D01*
X134190977Y-67273411D01*
X134194524Y-67281974D01*
X134194526Y-67281982D01*
X134255474Y-67429124D01*
X134255481Y-67429137D01*
X134364969Y-67592997D01*
X134364970Y-67592998D01*
X134364971Y-67592999D01*
X134504328Y-67732356D01*
X134504329Y-67732356D01*
X134511396Y-67739423D01*
X134511395Y-67739423D01*
X134511399Y-67739426D01*
X141725291Y-74953318D01*
X141758776Y-75014641D01*
X141761610Y-75040999D01*
X141761610Y-121536761D01*
X141800057Y-121730046D01*
X141800060Y-121730056D01*
X141819313Y-121776536D01*
X141875474Y-121912123D01*
X141875481Y-121912136D01*
X141984970Y-122075999D01*
X142128647Y-122219676D01*
X142128669Y-122219696D01*
X144029325Y-124120353D01*
X144029329Y-124120356D01*
X144193189Y-124229844D01*
X144193193Y-124229846D01*
X144193196Y-124229848D01*
X144375274Y-124305268D01*
X144568565Y-124343716D01*
X144568568Y-124343717D01*
X144568570Y-124343717D01*
X144765652Y-124343717D01*
X144765653Y-124343716D01*
X144958946Y-124305268D01*
X145141024Y-124229848D01*
X145304891Y-124120356D01*
X145444249Y-123980998D01*
X145553741Y-123817131D01*
X145629161Y-123635053D01*
X145667610Y-123441757D01*
X145667610Y-123244677D01*
X145667610Y-123244674D01*
X145667609Y-123244672D01*
X145629162Y-123051388D01*
X145629161Y-123051381D01*
X145553741Y-122869303D01*
X145553739Y-122869300D01*
X145553737Y-122869296D01*
X145444249Y-122705436D01*
X145444246Y-122705432D01*
X143798929Y-121060115D01*
X143765444Y-120998792D01*
X143762610Y-120972434D01*
X143762610Y-74476673D01*
X143724162Y-74283387D01*
X143724161Y-74283386D01*
X143724161Y-74283382D01*
X143724159Y-74283377D01*
X143648745Y-74101309D01*
X143648738Y-74101296D01*
X143539250Y-73937436D01*
X143539249Y-73937435D01*
X143399892Y-73798078D01*
X143399891Y-73798077D01*
X136178929Y-66577115D01*
X136145444Y-66515792D01*
X136142610Y-66489434D01*
X136142610Y-65301459D01*
X136864110Y-65301459D01*
X136864110Y-65510174D01*
X136896760Y-65716323D01*
X136961259Y-65914828D01*
X137031925Y-66053517D01*
X137056013Y-66100792D01*
X137178694Y-66269648D01*
X137326279Y-66417233D01*
X137495135Y-66539914D01*
X137582998Y-66584682D01*
X137681098Y-66634667D01*
X137681100Y-66634667D01*
X137681103Y-66634669D01*
X137780340Y-66666913D01*
X137879603Y-66699166D01*
X137982678Y-66715491D01*
X138085752Y-66731817D01*
X138085753Y-66731817D01*
X138294467Y-66731817D01*
X138294468Y-66731817D01*
X138500616Y-66699166D01*
X138699117Y-66634669D01*
X138885085Y-66539914D01*
X139053941Y-66417233D01*
X139201526Y-66269648D01*
X139324207Y-66100792D01*
X139418962Y-65914824D01*
X139483459Y-65716323D01*
X139516110Y-65510175D01*
X139516110Y-65301459D01*
X143976110Y-65301459D01*
X143976110Y-65510174D01*
X144008760Y-65716323D01*
X144073259Y-65914828D01*
X144143925Y-66053517D01*
X144168013Y-66100792D01*
X144290694Y-66269648D01*
X144438279Y-66417233D01*
X144607135Y-66539914D01*
X144694998Y-66584682D01*
X144793098Y-66634667D01*
X144793100Y-66634667D01*
X144793103Y-66634669D01*
X144892340Y-66666913D01*
X144991603Y-66699166D01*
X145094678Y-66715491D01*
X145197752Y-66731817D01*
X145197753Y-66731817D01*
X145406467Y-66731817D01*
X145406468Y-66731817D01*
X145612616Y-66699166D01*
X145811117Y-66634669D01*
X145997085Y-66539914D01*
X146165941Y-66417233D01*
X146313526Y-66269648D01*
X146436207Y-66100792D01*
X146530962Y-65914824D01*
X146595459Y-65716323D01*
X146628110Y-65510175D01*
X146628110Y-65301459D01*
X146619143Y-65244844D01*
X146595459Y-65095310D01*
X146562612Y-64994218D01*
X146530962Y-64896810D01*
X146530960Y-64896807D01*
X146530960Y-64896805D01*
X146436206Y-64710841D01*
X146423238Y-64692992D01*
X146313526Y-64541986D01*
X146165941Y-64394401D01*
X145997085Y-64271720D01*
X145811121Y-64176966D01*
X145612616Y-64112467D01*
X145434653Y-64084281D01*
X145406468Y-64079817D01*
X145197752Y-64079817D01*
X145172956Y-64083744D01*
X144991603Y-64112467D01*
X144793098Y-64176966D01*
X144607134Y-64271720D01*
X144438276Y-64394403D01*
X144290696Y-64541983D01*
X144168013Y-64710841D01*
X144073259Y-64896805D01*
X144008760Y-65095310D01*
X143976110Y-65301459D01*
X139516110Y-65301459D01*
X139507143Y-65244844D01*
X139483459Y-65095310D01*
X139450612Y-64994218D01*
X139418962Y-64896810D01*
X139418960Y-64896807D01*
X139418960Y-64896805D01*
X139324206Y-64710841D01*
X139311238Y-64692992D01*
X139201526Y-64541986D01*
X139053941Y-64394401D01*
X138885085Y-64271720D01*
X138699121Y-64176966D01*
X138500616Y-64112467D01*
X138322653Y-64084281D01*
X138294468Y-64079817D01*
X138085752Y-64079817D01*
X138060956Y-64083744D01*
X137879603Y-64112467D01*
X137681098Y-64176966D01*
X137495134Y-64271720D01*
X137326276Y-64394403D01*
X137178696Y-64541983D01*
X137056013Y-64710841D01*
X136961259Y-64896805D01*
X136896760Y-65095310D01*
X136864110Y-65301459D01*
X136142610Y-65301459D01*
X136142610Y-62975998D01*
X136162295Y-62908959D01*
X136178925Y-62888321D01*
X136926810Y-62140435D01*
X136988131Y-62106952D01*
X137057822Y-62111936D01*
X137088799Y-62128851D01*
X137122274Y-62153910D01*
X137122281Y-62153914D01*
X137257127Y-62204208D01*
X137257126Y-62204208D01*
X137264054Y-62204952D01*
X137316737Y-62210617D01*
X139063482Y-62210616D01*
X139123093Y-62204208D01*
X139257941Y-62153913D01*
X139373156Y-62067663D01*
X139459406Y-61952448D01*
X139509701Y-61817600D01*
X139516110Y-61757990D01*
X139516109Y-60011245D01*
X139509701Y-59951634D01*
X139502537Y-59932427D01*
X139459407Y-59816788D01*
X139459403Y-59816781D01*
X139373157Y-59701572D01*
X139373154Y-59701569D01*
X139257945Y-59615323D01*
X139257938Y-59615319D01*
X139123096Y-59565027D01*
X139123095Y-59565026D01*
X139123093Y-59565026D01*
X139084678Y-59560895D01*
X139020130Y-59534158D01*
X138980282Y-59476766D01*
X138977788Y-59406941D01*
X139013440Y-59346852D01*
X139075920Y-59315577D01*
X139097936Y-59313607D01*
X145169118Y-59313607D01*
X145236157Y-59333292D01*
X145281912Y-59386096D01*
X145291856Y-59455254D01*
X145262831Y-59518810D01*
X145204053Y-59556584D01*
X145188518Y-59560079D01*
X145166611Y-59563549D01*
X144991603Y-59591267D01*
X144793098Y-59655766D01*
X144607134Y-59750520D01*
X144438276Y-59873203D01*
X144290696Y-60020783D01*
X144168013Y-60189641D01*
X144073259Y-60375605D01*
X144008760Y-60574110D01*
X143976110Y-60780259D01*
X143976110Y-60988974D01*
X144008760Y-61195123D01*
X144073259Y-61393628D01*
X144137967Y-61520624D01*
X144168013Y-61579592D01*
X144290694Y-61748448D01*
X144438279Y-61896033D01*
X144607135Y-62018714D01*
X144648203Y-62039639D01*
X144793098Y-62113467D01*
X144793100Y-62113467D01*
X144793103Y-62113469D01*
X144840444Y-62128851D01*
X144991603Y-62177966D01*
X145094678Y-62194291D01*
X145197752Y-62210617D01*
X145197753Y-62210617D01*
X145406467Y-62210617D01*
X145406468Y-62210617D01*
X145612616Y-62177966D01*
X145811117Y-62113469D01*
X145997085Y-62018714D01*
X146165941Y-61896033D01*
X146313526Y-61748448D01*
X146436207Y-61579592D01*
X146530962Y-61393624D01*
X146595459Y-61195123D01*
X146628110Y-60988975D01*
X146628110Y-60780259D01*
X146595459Y-60574111D01*
X146530962Y-60375610D01*
X146530960Y-60375607D01*
X146530960Y-60375605D01*
X146457273Y-60230987D01*
X146436207Y-60189642D01*
X146313526Y-60020786D01*
X146165941Y-59873201D01*
X145997085Y-59750520D01*
X145811121Y-59655766D01*
X145612616Y-59591267D01*
X145440637Y-59564029D01*
X145415703Y-59560079D01*
X145352569Y-59530151D01*
X145315638Y-59470839D01*
X145316636Y-59400977D01*
X145355246Y-59342744D01*
X145419209Y-59314630D01*
X145435102Y-59313607D01*
X186994226Y-59313607D01*
X187061265Y-59333292D01*
X187081906Y-59349925D01*
X187347303Y-59615323D01*
X187623922Y-59891942D01*
X187657407Y-59953265D01*
X187652423Y-60022957D01*
X187610551Y-60078890D01*
X187545087Y-60103307D01*
X187500246Y-60098284D01*
X187174682Y-59999525D01*
X186837358Y-59932427D01*
X186837359Y-59932427D01*
X186579566Y-59907038D01*
X186495079Y-59898717D01*
X186151141Y-59898717D01*
X186073076Y-59906405D01*
X185808860Y-59932427D01*
X185471537Y-59999525D01*
X185142403Y-60099367D01*
X184824645Y-60230987D01*
X184824640Y-60230989D01*
X184521334Y-60393110D01*
X184521316Y-60393121D01*
X184235358Y-60584192D01*
X184235344Y-60584202D01*
X183969477Y-60802393D01*
X183726286Y-61045584D01*
X183508095Y-61311451D01*
X183508085Y-61311465D01*
X183317014Y-61597423D01*
X183317003Y-61597441D01*
X183154882Y-61900747D01*
X183154880Y-61900752D01*
X183023260Y-62218510D01*
X182923418Y-62547644D01*
X182856320Y-62884967D01*
X182838768Y-63063186D01*
X182822610Y-63227248D01*
X182822610Y-63571186D01*
X182832861Y-63675271D01*
X182856320Y-63913466D01*
X182923418Y-64250789D01*
X183023260Y-64579923D01*
X183043660Y-64629172D01*
X183147238Y-64879233D01*
X183154880Y-64897681D01*
X183154882Y-64897686D01*
X183317003Y-65200992D01*
X183317014Y-65201010D01*
X183508085Y-65486968D01*
X183508095Y-65486982D01*
X183726286Y-65752849D01*
X183969477Y-65996040D01*
X183969482Y-65996044D01*
X183969483Y-65996045D01*
X184235350Y-66214236D01*
X184521323Y-66405317D01*
X184521332Y-66405322D01*
X184521334Y-66405323D01*
X184824640Y-66567444D01*
X184824642Y-66567444D01*
X184824648Y-66567448D01*
X185142405Y-66699067D01*
X185471532Y-66798907D01*
X185808860Y-66866006D01*
X186151141Y-66899717D01*
X186151144Y-66899717D01*
X186495076Y-66899717D01*
X186495079Y-66899717D01*
X186837360Y-66866006D01*
X187174688Y-66798907D01*
X187503815Y-66699067D01*
X187821572Y-66567448D01*
X188124897Y-66405317D01*
X188410870Y-66214236D01*
X188676737Y-65996045D01*
X188919938Y-65752844D01*
X189138129Y-65486977D01*
X189329210Y-65201004D01*
X189491341Y-64897679D01*
X189622960Y-64579922D01*
X189722800Y-64250795D01*
X189789899Y-63913467D01*
X189823610Y-63571186D01*
X189823610Y-63227248D01*
X189789899Y-62884967D01*
X189722800Y-62547639D01*
X189624042Y-62222082D01*
X189623420Y-62152219D01*
X189660668Y-62093106D01*
X189723962Y-62063515D01*
X189793207Y-62072840D01*
X189830386Y-62098409D01*
X192725292Y-64993319D01*
X192758776Y-65054640D01*
X192761610Y-65080998D01*
X192761610Y-82809780D01*
X192759227Y-82833972D01*
X192747610Y-82892373D01*
X192747610Y-94593063D01*
X192778371Y-94747706D01*
X192778374Y-94747718D01*
X192838712Y-94893389D01*
X192838719Y-94893402D01*
X192926320Y-95024505D01*
X192926323Y-95024509D01*
X193037817Y-95136003D01*
X193037821Y-95136006D01*
X193168924Y-95223607D01*
X193168937Y-95223614D01*
X193314608Y-95283952D01*
X193314613Y-95283954D01*
X193460360Y-95312945D01*
X193469263Y-95314716D01*
X193469266Y-95314717D01*
X193469268Y-95314717D01*
X193626954Y-95314717D01*
X193626955Y-95314716D01*
X193781607Y-95283954D01*
X193914158Y-95229049D01*
X193983627Y-95221581D01*
X194046106Y-95252856D01*
X194081758Y-95312945D01*
X194085610Y-95343611D01*
X194085610Y-95501758D01*
X194085610Y-95501760D01*
X194085609Y-95501760D01*
X194124057Y-95695046D01*
X194124060Y-95695056D01*
X194199474Y-95877124D01*
X194199481Y-95877137D01*
X194308970Y-96040998D01*
X194308973Y-96041002D01*
X194448324Y-96180353D01*
X194448328Y-96180356D01*
X194612189Y-96289845D01*
X194612202Y-96289852D01*
X194794270Y-96365266D01*
X194794275Y-96365268D01*
X194794279Y-96365268D01*
X194794280Y-96365269D01*
X194987566Y-96403717D01*
X194987569Y-96403717D01*
X195184653Y-96403717D01*
X195314692Y-96377849D01*
X195377945Y-96365268D01*
X195560024Y-96289849D01*
X195723892Y-96180356D01*
X195863249Y-96040999D01*
X195972742Y-95877131D01*
X196048161Y-95695052D01*
X196086610Y-95501758D01*
X196086610Y-83874676D01*
X196086610Y-59490676D01*
X196086610Y-59490673D01*
X196066727Y-59390717D01*
X196059688Y-59355331D01*
X196048161Y-59297381D01*
X196007716Y-59199739D01*
X195972742Y-59115303D01*
X195972738Y-59115297D01*
X195863249Y-58951434D01*
X195720796Y-58808981D01*
X195720765Y-58808952D01*
X192823236Y-55911423D01*
X192815250Y-55903437D01*
X192815249Y-55903435D01*
X192675892Y-55764078D01*
X192655608Y-55750525D01*
X192647722Y-55742955D01*
X192635569Y-55721743D01*
X192619893Y-55702986D01*
X192618508Y-55691966D01*
X192612988Y-55682330D01*
X192614232Y-55657914D01*
X192611186Y-55633661D01*
X192615978Y-55623643D01*
X192616544Y-55612551D01*
X192630791Y-55592683D01*
X192641341Y-55570633D01*
X192650789Y-55564796D01*
X192657261Y-55555772D01*
X192679984Y-55546762D01*
X192700784Y-55533914D01*
X192718357Y-55531547D01*
X192722212Y-55530019D01*
X192725262Y-55530617D01*
X192733589Y-55529496D01*
X196063666Y-55529496D01*
X196085413Y-55531417D01*
X196095951Y-55533295D01*
X196134982Y-55529949D01*
X196140686Y-55529592D01*
X196143120Y-55529496D01*
X196184751Y-55529496D01*
X196191934Y-55527570D01*
X196205767Y-55527025D01*
X196206628Y-55527241D01*
X196208749Y-55526945D01*
X196395580Y-55524086D01*
X196412937Y-55525039D01*
G37*
%TD.AperFunction*%
%TA.AperFunction,Conductor*%
G36*
X102986813Y-115463286D02*
G01*
X102993291Y-115469318D01*
X105530291Y-118006318D01*
X105563776Y-118067641D01*
X105566610Y-118093999D01*
X105566610Y-120647758D01*
X105566610Y-120647760D01*
X105566609Y-120647760D01*
X105605057Y-120841046D01*
X105605060Y-120841056D01*
X105668647Y-120994570D01*
X105676116Y-121064039D01*
X105644840Y-121126518D01*
X105584751Y-121162170D01*
X105514926Y-121159676D01*
X105485196Y-121145125D01*
X105374917Y-121071439D01*
X105247442Y-121018638D01*
X105247432Y-121018635D01*
X105112106Y-120991717D01*
X105112104Y-120991717D01*
X105112103Y-120991717D01*
X102928427Y-120991717D01*
X102920247Y-120990089D01*
X102915168Y-120991006D01*
X102880970Y-120982276D01*
X102858153Y-120972824D01*
X102803751Y-120928982D01*
X102781689Y-120862687D01*
X102781610Y-120858265D01*
X102781610Y-115556999D01*
X102801295Y-115489960D01*
X102854099Y-115444205D01*
X102923257Y-115434261D01*
X102986813Y-115463286D01*
G37*
%TD.AperFunction*%
%TA.AperFunction,Conductor*%
G36*
X103320234Y-70038886D02*
G01*
X103378469Y-70077493D01*
X103406586Y-70141455D01*
X103407610Y-70157354D01*
X103407610Y-86465433D01*
X103387925Y-86532472D01*
X103335121Y-86578227D01*
X103265963Y-86588171D01*
X103202407Y-86559146D01*
X103195929Y-86553114D01*
X101095429Y-84452606D01*
X101061944Y-84391283D01*
X101059110Y-84364925D01*
X101059110Y-71209996D01*
X101078795Y-71142957D01*
X101131599Y-71097202D01*
X101200757Y-71087258D01*
X101221421Y-71092063D01*
X101276932Y-71110099D01*
X101303603Y-71118766D01*
X101406678Y-71135091D01*
X101509752Y-71151417D01*
X101509753Y-71151417D01*
X101972467Y-71151417D01*
X101972468Y-71151417D01*
X102178616Y-71118766D01*
X102377117Y-71054269D01*
X102563085Y-70959514D01*
X102731941Y-70836833D01*
X102879526Y-70689248D01*
X103002207Y-70520392D01*
X103096962Y-70334424D01*
X103161459Y-70135923D01*
X103162594Y-70131195D01*
X103164165Y-70131572D01*
X103191062Y-70074826D01*
X103250371Y-70037892D01*
X103320234Y-70038886D01*
G37*
%TD.AperFunction*%
%TD*%
M02*
