%TF.GenerationSoftware,KiCad,Pcbnew,10.0.3*%
%TF.CreationDate,2026-07-28T14:48:49+07:00*%
%TF.ProjectId,RheoBoard_Adafruit_V9,5268656f-426f-4617-9264-5f4164616672,rev?*%
%TF.SameCoordinates,Original*%
%TF.FileFunction,Drillmap*%
%TF.FilePolarity,Positive*%
%FSLAX45Y45*%
G04 Gerber Fmt 4.5, Leading zero omitted, Abs format (unit mm)*
G04 Created by KiCad (PCBNEW 10.0.3) date 2026-07-28 14:48:49*
%MOMM*%
%LPD*%
G01*
G04 APERTURE LIST*
%ADD10C,0.050000*%
%ADD11C,0.200000*%
%ADD12C,0.100000*%
%ADD13C,0.101600*%
%ADD14C,0.110000*%
%ADD15C,0.127000*%
%ADD16C,0.350000*%
%ADD17C,0.400000*%
G04 APERTURE END LIST*
D10*
X9845586Y-15269200D02*
X9846310Y-5744221D01*
X9846310Y-5744221D02*
G75*
G02*
X10074931Y-5502196I222250J19051D01*
G01*
X10074931Y-5502197D02*
X10075634Y-5502900D01*
X10075634Y-5502900D02*
X19611886Y-5502900D01*
X10087610Y-15497821D02*
G75*
G02*
X9845585Y-15269200I-19050J222251D01*
G01*
X19611886Y-5502900D02*
G75*
G02*
X19853915Y-5731521I19054J-222250D01*
G01*
X19624565Y-15497821D02*
X10087610Y-15497821D01*
X19625289Y-15498545D02*
X19624565Y-15497821D01*
X19853910Y-5731521D02*
X19853910Y-15256521D01*
X19853910Y-15256521D02*
G75*
G02*
X19625289Y-15498544I-222250J-19049D01*
G01*
D11*
D12*
X9917811Y-7747322D02*
X9947811Y-7777322D01*
X9947811Y-7747322D02*
X9917811Y-7777322D01*
X10006711Y-8826822D02*
X10036711Y-8856822D01*
X10036711Y-8826822D02*
X10006711Y-8856822D01*
X10079410Y-5747421D02*
X10109410Y-5777421D01*
X10109410Y-5747421D02*
X10079410Y-5777421D01*
X10079410Y-13747421D02*
X10109410Y-13777421D01*
X10109410Y-13747421D02*
X10079410Y-13777421D01*
X10079410Y-14247421D02*
X10109410Y-14277421D01*
X10109410Y-14247421D02*
X10079410Y-14277421D01*
X10079410Y-14747421D02*
X10109410Y-14777421D01*
X10109410Y-14747421D02*
X10079410Y-14777421D01*
X10079410Y-15247421D02*
X10109410Y-15277421D01*
X10109410Y-15247421D02*
X10079410Y-15277421D01*
X10146411Y-9893622D02*
X10176411Y-9923622D01*
X10176411Y-9893622D02*
X10146411Y-9923622D01*
X10171811Y-11876810D02*
X10201811Y-11906810D01*
X10201811Y-11876810D02*
X10171811Y-11906810D01*
X10195811Y-9804722D02*
X10225811Y-9834722D01*
X10225811Y-9804722D02*
X10195811Y-9834722D01*
X10204410Y-13997421D02*
X10234410Y-14027421D01*
X10234410Y-13997421D02*
X10204410Y-14027421D01*
X10204410Y-14497421D02*
X10234410Y-14527421D01*
X10234410Y-14497421D02*
X10204410Y-14527421D01*
X10204410Y-14997421D02*
X10234410Y-15027421D01*
X10234410Y-14997421D02*
X10204410Y-15027421D01*
X10221211Y-8712522D02*
X10251211Y-8742522D01*
X10251211Y-8712522D02*
X10221211Y-8742522D01*
X10270028Y-12272021D02*
X10300028Y-12302021D01*
X10300028Y-12272021D02*
X10270028Y-12302021D01*
X10329410Y-5747421D02*
X10359410Y-5777421D01*
X10359410Y-5747421D02*
X10329410Y-5777421D01*
X10329410Y-14747421D02*
X10359410Y-14777421D01*
X10359410Y-14747421D02*
X10329410Y-14777421D01*
X10329410Y-15247421D02*
X10359410Y-15277421D01*
X10359410Y-15247421D02*
X10329410Y-15277421D01*
X10400411Y-9493922D02*
X10430411Y-9523922D01*
X10430411Y-9493922D02*
X10400411Y-9523922D01*
X10436379Y-8354713D02*
X10466379Y-8384713D01*
X10466379Y-8354713D02*
X10436379Y-8384713D01*
X10454410Y-14497421D02*
X10484410Y-14527421D01*
X10484410Y-14497421D02*
X10454410Y-14527421D01*
X10454410Y-14997421D02*
X10484410Y-15027421D01*
X10484410Y-14997421D02*
X10454410Y-15027421D01*
X10552811Y-11773222D02*
X10582811Y-11803222D01*
X10582811Y-11773222D02*
X10552811Y-11803222D01*
X10579410Y-6247421D02*
X10609410Y-6277421D01*
X10609410Y-6247421D02*
X10579410Y-6277421D01*
X10579410Y-10247421D02*
X10609410Y-10277421D01*
X10609410Y-10247421D02*
X10579410Y-10277421D01*
X10579410Y-12747421D02*
X10609410Y-12777421D01*
X10609410Y-12747421D02*
X10579410Y-12777421D01*
X10579410Y-14747421D02*
X10609410Y-14777421D01*
X10609410Y-14747421D02*
X10579410Y-14777421D01*
X10579410Y-15247421D02*
X10609410Y-15277421D01*
X10609410Y-15247421D02*
X10579410Y-15277421D01*
X10704410Y-14997421D02*
X10734410Y-15027421D01*
X10734410Y-14997421D02*
X10704410Y-15027421D01*
X10727031Y-13148401D02*
X10757031Y-13178401D01*
X10757031Y-13148401D02*
X10727031Y-13178401D01*
X10829410Y-8747421D02*
X10859410Y-8777421D01*
X10859410Y-8747421D02*
X10829410Y-8777421D01*
X10829410Y-9247421D02*
X10859410Y-9277421D01*
X10859410Y-9247421D02*
X10829410Y-9277421D01*
X10829410Y-9747421D02*
X10859410Y-9777421D01*
X10859410Y-9747421D02*
X10829410Y-9777421D01*
X10829410Y-10247421D02*
X10859410Y-10277421D01*
X10859410Y-10247421D02*
X10829410Y-10277421D01*
X10829410Y-12747421D02*
X10859410Y-12777421D01*
X10859410Y-12747421D02*
X10829410Y-12777421D01*
X10829410Y-14747421D02*
X10859410Y-14777421D01*
X10859410Y-14747421D02*
X10829410Y-14777421D01*
X10829410Y-15247421D02*
X10859410Y-15277421D01*
X10859410Y-15247421D02*
X10829410Y-15277421D01*
X10874091Y-10566722D02*
X10904091Y-10596722D01*
X10904091Y-10566722D02*
X10874091Y-10596722D01*
X10926661Y-11354122D02*
X10956661Y-11384122D01*
X10956661Y-11354122D02*
X10926661Y-11384122D01*
X10954410Y-10997421D02*
X10984410Y-11027421D01*
X10984410Y-10997421D02*
X10954410Y-11027421D01*
X10954410Y-14997421D02*
X10984410Y-15027421D01*
X10984410Y-14997421D02*
X10954410Y-15027421D01*
X11079410Y-12747421D02*
X11109410Y-12777421D01*
X11109410Y-12747421D02*
X11079410Y-12777421D01*
X11079410Y-14747421D02*
X11109410Y-14777421D01*
X11109410Y-14747421D02*
X11079410Y-14777421D01*
X11079410Y-15247421D02*
X11109410Y-15277421D01*
X11109410Y-15247421D02*
X11079410Y-15277421D01*
X11204410Y-6997421D02*
X11234410Y-7027421D01*
X11234410Y-6997421D02*
X11204410Y-7027421D01*
X11204410Y-7497421D02*
X11234410Y-7527421D01*
X11234410Y-7497421D02*
X11204410Y-7527421D01*
X11329410Y-6247421D02*
X11359410Y-6277421D01*
X11359410Y-6247421D02*
X11329410Y-6277421D01*
X11329410Y-6747421D02*
X11359410Y-6777421D01*
X11359410Y-6747421D02*
X11329410Y-6777421D01*
X11329410Y-7247421D02*
X11359410Y-7277421D01*
X11359410Y-7247421D02*
X11329410Y-7277421D01*
X11329410Y-7747421D02*
X11359410Y-7777421D01*
X11359410Y-7747421D02*
X11329410Y-7777421D01*
X11329410Y-10247421D02*
X11359410Y-10277421D01*
X11359410Y-10247421D02*
X11329410Y-10277421D01*
X11454410Y-6497421D02*
X11484410Y-6527421D01*
X11484410Y-6497421D02*
X11454410Y-6527421D01*
X11454410Y-6997421D02*
X11484410Y-7027421D01*
X11484410Y-6997421D02*
X11454410Y-7027421D01*
X11454410Y-7497421D02*
X11484410Y-7527421D01*
X11484410Y-7497421D02*
X11454410Y-7527421D01*
X11454410Y-7997421D02*
X11484410Y-8027421D01*
X11484410Y-7997421D02*
X11454410Y-8027421D01*
X11454410Y-8497421D02*
X11484410Y-8527421D01*
X11484410Y-8497421D02*
X11454410Y-8527421D01*
X11454410Y-8997421D02*
X11484410Y-9027421D01*
X11484410Y-8997421D02*
X11454410Y-9027421D01*
X11454410Y-9497421D02*
X11484410Y-9527421D01*
X11484410Y-9497421D02*
X11454410Y-9527421D01*
X11454410Y-10497421D02*
X11484410Y-10527421D01*
X11484410Y-10497421D02*
X11454410Y-10527421D01*
X11530711Y-11341422D02*
X11560711Y-11371422D01*
X11560711Y-11341422D02*
X11530711Y-11371422D01*
X11579410Y-6247421D02*
X11609410Y-6277421D01*
X11609410Y-6247421D02*
X11579410Y-6277421D01*
X11579410Y-6747421D02*
X11609410Y-6777421D01*
X11609410Y-6747421D02*
X11579410Y-6777421D01*
X11579410Y-7247421D02*
X11609410Y-7277421D01*
X11609410Y-7247421D02*
X11579410Y-7277421D01*
X11579410Y-7747421D02*
X11609410Y-7777421D01*
X11609410Y-7747421D02*
X11579410Y-7777421D01*
X11579410Y-8247421D02*
X11609410Y-8277421D01*
X11609410Y-8247421D02*
X11579410Y-8277421D01*
X11579410Y-9247421D02*
X11609410Y-9277421D01*
X11609410Y-9247421D02*
X11579410Y-9277421D01*
X11579410Y-9747421D02*
X11609410Y-9777421D01*
X11609410Y-9747421D02*
X11579410Y-9777421D01*
X11704410Y-6497421D02*
X11734410Y-6527421D01*
X11734410Y-6497421D02*
X11704410Y-6527421D01*
X11704410Y-6997421D02*
X11734410Y-7027421D01*
X11734410Y-6997421D02*
X11704410Y-7027421D01*
X11704410Y-9497421D02*
X11734410Y-9527421D01*
X11734410Y-9497421D02*
X11704410Y-9527421D01*
X11704410Y-9997421D02*
X11734410Y-10027421D01*
X11734410Y-9997421D02*
X11704410Y-10027421D01*
X11704410Y-10497421D02*
X11734410Y-10527421D01*
X11734410Y-10497421D02*
X11704410Y-10527421D01*
X11704410Y-12497421D02*
X11734410Y-12527421D01*
X11734410Y-12497421D02*
X11704410Y-12527421D01*
X11704410Y-13497421D02*
X11734410Y-13527421D01*
X11734410Y-13497421D02*
X11704410Y-13527421D01*
X11704410Y-14497421D02*
X11734410Y-14527421D01*
X11734410Y-14497421D02*
X11704410Y-14527421D01*
X11829410Y-6747421D02*
X11859410Y-6777421D01*
X11859410Y-6747421D02*
X11829410Y-6777421D01*
X11829410Y-9247421D02*
X11859410Y-9277421D01*
X11859410Y-9247421D02*
X11829410Y-9277421D01*
X11829410Y-9747421D02*
X11859410Y-9777421D01*
X11859410Y-9747421D02*
X11829410Y-9777421D01*
X11886311Y-10909622D02*
X11916311Y-10939622D01*
X11916311Y-10909622D02*
X11886311Y-10939622D01*
X11954410Y-7497421D02*
X11984410Y-7527421D01*
X11984410Y-7497421D02*
X11954410Y-7527421D01*
X11954410Y-7997421D02*
X11984410Y-8027421D01*
X11984410Y-7997421D02*
X11954410Y-8027421D01*
X11954410Y-9497421D02*
X11984410Y-9527421D01*
X11984410Y-9497421D02*
X11954410Y-9527421D01*
X11954410Y-9997421D02*
X11984410Y-10027421D01*
X11984410Y-9997421D02*
X11954410Y-10027421D01*
X11954410Y-10497421D02*
X11984410Y-10527421D01*
X11984410Y-10497421D02*
X11954410Y-10527421D01*
X11954410Y-13497421D02*
X11984410Y-13527421D01*
X11984410Y-13497421D02*
X11954410Y-13527421D01*
X11954410Y-14497421D02*
X11984410Y-14527421D01*
X11984410Y-14497421D02*
X11954410Y-14527421D01*
X11962511Y-12408222D02*
X11992511Y-12438222D01*
X11992511Y-12408222D02*
X11962511Y-12438222D01*
X12079410Y-6747421D02*
X12109410Y-6777421D01*
X12109410Y-6747421D02*
X12079410Y-6777421D01*
X12079410Y-7747421D02*
X12109410Y-7777421D01*
X12109410Y-7747421D02*
X12079410Y-7777421D01*
X12079410Y-8247421D02*
X12109410Y-8277421D01*
X12109410Y-8247421D02*
X12079410Y-8277421D01*
X12079410Y-9247421D02*
X12109410Y-9277421D01*
X12109410Y-9247421D02*
X12079410Y-9277421D01*
X12079410Y-9747421D02*
X12109410Y-9777421D01*
X12109410Y-9747421D02*
X12079410Y-9777421D01*
X12079410Y-14247421D02*
X12109410Y-14277421D01*
X12109410Y-14247421D02*
X12079410Y-14277421D01*
X12092282Y-11880450D02*
X12122282Y-11910450D01*
X12122282Y-11880450D02*
X12092282Y-11910450D01*
X12204410Y-7497421D02*
X12234410Y-7527421D01*
X12234410Y-7497421D02*
X12204410Y-7527421D01*
X12204410Y-7997421D02*
X12234410Y-8027421D01*
X12234410Y-7997421D02*
X12204410Y-8027421D01*
X12204410Y-8497421D02*
X12234410Y-8527421D01*
X12234410Y-8497421D02*
X12204410Y-8527421D01*
X12204410Y-8997421D02*
X12234410Y-9027421D01*
X12234410Y-8997421D02*
X12204410Y-9027421D01*
X12204410Y-9497421D02*
X12234410Y-9527421D01*
X12234410Y-9497421D02*
X12204410Y-9527421D01*
X12204410Y-9997421D02*
X12234410Y-10027421D01*
X12234410Y-9997421D02*
X12204410Y-10027421D01*
X12204410Y-10497421D02*
X12234410Y-10527421D01*
X12234410Y-10497421D02*
X12204410Y-10527421D01*
X12204410Y-11497421D02*
X12234410Y-11527421D01*
X12234410Y-11497421D02*
X12204410Y-11527421D01*
X12204410Y-14997421D02*
X12234410Y-15027421D01*
X12234410Y-14997421D02*
X12204410Y-15027421D01*
X12329410Y-6747421D02*
X12359410Y-6777421D01*
X12359410Y-6747421D02*
X12329410Y-6777421D01*
X12329410Y-7747421D02*
X12359410Y-7777421D01*
X12359410Y-7747421D02*
X12329410Y-7777421D01*
X12329410Y-8247421D02*
X12359410Y-8277421D01*
X12359410Y-8247421D02*
X12329410Y-8277421D01*
X12329410Y-9247421D02*
X12359410Y-9277421D01*
X12359410Y-9247421D02*
X12329410Y-9277421D01*
X12329410Y-9747421D02*
X12359410Y-9777421D01*
X12359410Y-9747421D02*
X12329410Y-9777421D01*
X12329410Y-11247421D02*
X12359410Y-11277421D01*
X12359410Y-11247421D02*
X12329410Y-11277421D01*
X12329410Y-15247421D02*
X12359410Y-15277421D01*
X12359410Y-15247421D02*
X12329410Y-15277421D01*
X12345093Y-10920740D02*
X12375093Y-10950740D01*
X12375093Y-10920740D02*
X12345093Y-10950740D01*
X12454410Y-7497421D02*
X12484410Y-7527421D01*
X12484410Y-7497421D02*
X12454410Y-7527421D01*
X12454410Y-7997421D02*
X12484410Y-8027421D01*
X12484410Y-7997421D02*
X12454410Y-8027421D01*
X12454410Y-8497421D02*
X12484410Y-8527421D01*
X12484410Y-8497421D02*
X12454410Y-8527421D01*
X12454410Y-8997421D02*
X12484410Y-9027421D01*
X12484410Y-8997421D02*
X12454410Y-9027421D01*
X12454410Y-9497421D02*
X12484410Y-9527421D01*
X12484410Y-9497421D02*
X12454410Y-9527421D01*
X12454410Y-9997421D02*
X12484410Y-10027421D01*
X12484410Y-9997421D02*
X12454410Y-10027421D01*
X12454410Y-11497421D02*
X12484410Y-11527421D01*
X12484410Y-11497421D02*
X12454410Y-11527421D01*
X12454410Y-14997421D02*
X12484410Y-15027421D01*
X12484410Y-14997421D02*
X12454410Y-15027421D01*
X12579410Y-6747421D02*
X12609410Y-6777421D01*
X12609410Y-6747421D02*
X12579410Y-6777421D01*
X12579410Y-7747421D02*
X12609410Y-7777421D01*
X12609410Y-7747421D02*
X12579410Y-7777421D01*
X12579410Y-8247421D02*
X12609410Y-8277421D01*
X12609410Y-8247421D02*
X12579410Y-8277421D01*
X12579410Y-9247421D02*
X12609410Y-9277421D01*
X12609410Y-9247421D02*
X12579410Y-9277421D01*
X12579410Y-9747421D02*
X12609410Y-9777421D01*
X12609410Y-9747421D02*
X12579410Y-9777421D01*
X12579410Y-11247421D02*
X12609410Y-11277421D01*
X12609410Y-11247421D02*
X12579410Y-11277421D01*
X12579410Y-15247421D02*
X12609410Y-15277421D01*
X12609410Y-15247421D02*
X12579410Y-15277421D01*
X12584811Y-13881422D02*
X12614811Y-13911422D01*
X12614811Y-13881422D02*
X12584811Y-13911422D01*
X12699111Y-14008422D02*
X12729111Y-14038422D01*
X12729111Y-14008422D02*
X12699111Y-14038422D01*
X12704410Y-6497421D02*
X12734410Y-6527421D01*
X12734410Y-6497421D02*
X12704410Y-6527421D01*
X12704410Y-7497421D02*
X12734410Y-7527421D01*
X12734410Y-7497421D02*
X12704410Y-7527421D01*
X12704410Y-7997421D02*
X12734410Y-8027421D01*
X12734410Y-7997421D02*
X12704410Y-8027421D01*
X12704410Y-8497421D02*
X12734410Y-8527421D01*
X12734410Y-8497421D02*
X12704410Y-8527421D01*
X12704410Y-9497421D02*
X12734410Y-9527421D01*
X12734410Y-9497421D02*
X12704410Y-9527421D01*
X12704410Y-9997421D02*
X12734410Y-10027421D01*
X12734410Y-9997421D02*
X12704410Y-10027421D01*
X12704410Y-10497421D02*
X12734410Y-10527421D01*
X12734410Y-10497421D02*
X12704410Y-10527421D01*
X12704410Y-10997421D02*
X12734410Y-11027421D01*
X12734410Y-10997421D02*
X12704410Y-11027421D01*
X12704410Y-11497421D02*
X12734410Y-11527421D01*
X12734410Y-11497421D02*
X12704410Y-11527421D01*
X12704410Y-13497421D02*
X12734410Y-13527421D01*
X12734410Y-13497421D02*
X12704410Y-13527421D01*
X12829410Y-6247421D02*
X12859410Y-6277421D01*
X12859410Y-6247421D02*
X12829410Y-6277421D01*
X12829410Y-6747421D02*
X12859410Y-6777421D01*
X12859410Y-6747421D02*
X12829410Y-6777421D01*
X12829410Y-7747421D02*
X12859410Y-7777421D01*
X12859410Y-7747421D02*
X12829410Y-7777421D01*
X12829410Y-8247421D02*
X12859410Y-8277421D01*
X12859410Y-8247421D02*
X12829410Y-8277421D01*
X12829410Y-8747421D02*
X12859410Y-8777421D01*
X12859410Y-8747421D02*
X12829410Y-8777421D01*
X12829410Y-9247421D02*
X12859410Y-9277421D01*
X12859410Y-9247421D02*
X12829410Y-9277421D01*
X12829410Y-9747421D02*
X12859410Y-9777421D01*
X12859410Y-9747421D02*
X12829410Y-9777421D01*
X12829410Y-11247421D02*
X12859410Y-11277421D01*
X12859410Y-11247421D02*
X12829410Y-11277421D01*
X12829410Y-15247421D02*
X12859410Y-15277421D01*
X12859410Y-15247421D02*
X12829410Y-15277421D01*
X12954410Y-6497421D02*
X12984410Y-6527421D01*
X12984410Y-6497421D02*
X12954410Y-6527421D01*
X12954410Y-7497421D02*
X12984410Y-7527421D01*
X12984410Y-7497421D02*
X12954410Y-7527421D01*
X12954410Y-7997421D02*
X12984410Y-8027421D01*
X12984410Y-7997421D02*
X12954410Y-8027421D01*
X12954410Y-8497421D02*
X12984410Y-8527421D01*
X12984410Y-8497421D02*
X12954410Y-8527421D01*
X12954410Y-9497421D02*
X12984410Y-9527421D01*
X12984410Y-9497421D02*
X12954410Y-9527421D01*
X12954410Y-9997421D02*
X12984410Y-10027421D01*
X12984410Y-9997421D02*
X12954410Y-10027421D01*
X12954410Y-10497421D02*
X12984410Y-10527421D01*
X12984410Y-10497421D02*
X12954410Y-10527421D01*
X12954410Y-10997421D02*
X12984410Y-11027421D01*
X12984410Y-10997421D02*
X12954410Y-11027421D01*
X12954410Y-11497421D02*
X12984410Y-11527421D01*
X12984410Y-11497421D02*
X12954410Y-11527421D01*
X13079410Y-6247421D02*
X13109410Y-6277421D01*
X13109410Y-6247421D02*
X13079410Y-6277421D01*
X13079410Y-6747421D02*
X13109410Y-6777421D01*
X13109410Y-6747421D02*
X13079410Y-6777421D01*
X13079410Y-7747421D02*
X13109410Y-7777421D01*
X13109410Y-7747421D02*
X13079410Y-7777421D01*
X13079410Y-8247421D02*
X13109410Y-8277421D01*
X13109410Y-8247421D02*
X13079410Y-8277421D01*
X13079410Y-8747421D02*
X13109410Y-8777421D01*
X13109410Y-8747421D02*
X13079410Y-8777421D01*
X13079410Y-9747421D02*
X13109410Y-9777421D01*
X13109410Y-9747421D02*
X13079410Y-9777421D01*
X13079410Y-11247421D02*
X13109410Y-11277421D01*
X13109410Y-11247421D02*
X13079410Y-11277421D01*
X13079410Y-15247421D02*
X13109410Y-15277421D01*
X13109410Y-15247421D02*
X13079410Y-15277421D01*
X13204410Y-6497421D02*
X13234410Y-6527421D01*
X13234410Y-6497421D02*
X13204410Y-6527421D01*
X13204410Y-7497421D02*
X13234410Y-7527421D01*
X13234410Y-7497421D02*
X13204410Y-7527421D01*
X13204410Y-7997421D02*
X13234410Y-8027421D01*
X13234410Y-7997421D02*
X13204410Y-8027421D01*
X13204410Y-8497421D02*
X13234410Y-8527421D01*
X13234410Y-8497421D02*
X13204410Y-8527421D01*
X13204410Y-8997421D02*
X13234410Y-9027421D01*
X13234410Y-8997421D02*
X13204410Y-9027421D01*
X13204410Y-9997421D02*
X13234410Y-10027421D01*
X13234410Y-9997421D02*
X13204410Y-10027421D01*
X13204410Y-10997421D02*
X13234410Y-11027421D01*
X13234410Y-10997421D02*
X13204410Y-11027421D01*
X13204410Y-13497421D02*
X13234410Y-13527421D01*
X13234410Y-13497421D02*
X13204410Y-13527421D01*
X13204410Y-13997421D02*
X13234410Y-14027421D01*
X13234410Y-13997421D02*
X13204410Y-14027421D01*
X13308711Y-12408222D02*
X13338711Y-12438222D01*
X13338711Y-12408222D02*
X13308711Y-12438222D01*
X13329410Y-6247421D02*
X13359410Y-6277421D01*
X13359410Y-6247421D02*
X13329410Y-6277421D01*
X13329410Y-6747421D02*
X13359410Y-6777421D01*
X13359410Y-6747421D02*
X13329410Y-6777421D01*
X13329410Y-7747421D02*
X13359410Y-7777421D01*
X13359410Y-7747421D02*
X13329410Y-7777421D01*
X13329410Y-8247421D02*
X13359410Y-8277421D01*
X13359410Y-8247421D02*
X13329410Y-8277421D01*
X13329410Y-9247421D02*
X13359410Y-9277421D01*
X13359410Y-9247421D02*
X13329410Y-9277421D01*
X13329410Y-9747421D02*
X13359410Y-9777421D01*
X13359410Y-9747421D02*
X13329410Y-9777421D01*
X13329410Y-13247421D02*
X13359410Y-13277421D01*
X13359410Y-13247421D02*
X13329410Y-13277421D01*
X13329410Y-15247421D02*
X13359410Y-15277421D01*
X13359410Y-15247421D02*
X13329410Y-15277421D01*
X13410311Y-11055202D02*
X13440311Y-11085202D01*
X13440311Y-11055202D02*
X13410311Y-11085202D01*
X13423011Y-13805222D02*
X13453011Y-13835222D01*
X13453011Y-13805222D02*
X13423011Y-13835222D01*
X13454410Y-6497421D02*
X13484410Y-6527421D01*
X13484410Y-6497421D02*
X13454410Y-6527421D01*
X13454410Y-7497421D02*
X13484410Y-7527421D01*
X13484410Y-7497421D02*
X13454410Y-7527421D01*
X13454410Y-7997421D02*
X13484410Y-8027421D01*
X13484410Y-7997421D02*
X13454410Y-8027421D01*
X13579410Y-6247421D02*
X13609410Y-6277421D01*
X13609410Y-6247421D02*
X13579410Y-6277421D01*
X13579410Y-6747421D02*
X13609410Y-6777421D01*
X13609410Y-6747421D02*
X13579410Y-6777421D01*
X13579410Y-7747421D02*
X13609410Y-7777421D01*
X13609410Y-7747421D02*
X13579410Y-7777421D01*
X13704410Y-7497421D02*
X13734410Y-7527421D01*
X13734410Y-7497421D02*
X13704410Y-7527421D01*
X13829410Y-9247421D02*
X13859410Y-9277421D01*
X13859410Y-9247421D02*
X13829410Y-9277421D01*
X13842111Y-7671122D02*
X13872111Y-7701122D01*
X13872111Y-7671122D02*
X13842111Y-7701122D01*
X13867511Y-11633522D02*
X13897511Y-11663522D01*
X13897511Y-11633522D02*
X13867511Y-11663522D01*
X13954410Y-7997421D02*
X13984410Y-8027421D01*
X13984410Y-7997421D02*
X13954410Y-8027421D01*
X13954410Y-8497421D02*
X13984410Y-8527421D01*
X13984410Y-8497421D02*
X13954410Y-8527421D01*
X13954410Y-8997421D02*
X13984410Y-9027421D01*
X13984410Y-8997421D02*
X13954410Y-9027421D01*
X13954410Y-11997421D02*
X13984410Y-12027421D01*
X13984410Y-11997421D02*
X13954410Y-12027421D01*
X13954410Y-12997421D02*
X13984410Y-13027421D01*
X13984410Y-12997421D02*
X13954410Y-13027421D01*
X13969111Y-13792522D02*
X13999111Y-13822522D01*
X13999111Y-13792522D02*
X13969111Y-13822522D01*
X14007211Y-13690922D02*
X14037211Y-13720922D01*
X14037211Y-13690922D02*
X14007211Y-13720922D01*
X14079410Y-6247421D02*
X14109410Y-6277421D01*
X14109410Y-6247421D02*
X14079410Y-6277421D01*
X14079410Y-8247421D02*
X14109410Y-8277421D01*
X14109410Y-8247421D02*
X14079410Y-8277421D01*
X14079410Y-8747421D02*
X14109410Y-8777421D01*
X14109410Y-8747421D02*
X14079410Y-8777421D01*
X14121511Y-13592522D02*
X14151511Y-13622522D01*
X14151511Y-13592522D02*
X14121511Y-13622522D01*
X14204410Y-6497421D02*
X14234410Y-6527421D01*
X14234410Y-6497421D02*
X14204410Y-6527421D01*
X14204410Y-9497421D02*
X14234410Y-9527421D01*
X14234410Y-9497421D02*
X14204410Y-9527421D01*
X14273911Y-13411522D02*
X14303911Y-13441522D01*
X14303911Y-13411522D02*
X14273911Y-13441522D01*
X14329410Y-6247421D02*
X14359410Y-6277421D01*
X14359410Y-6247421D02*
X14329410Y-6277421D01*
X14329410Y-10247421D02*
X14359410Y-10277421D01*
X14359410Y-10247421D02*
X14329410Y-10277421D01*
X14329410Y-11747421D02*
X14359410Y-11777421D01*
X14359410Y-11747421D02*
X14329410Y-11777421D01*
X14337411Y-10909622D02*
X14367411Y-10939622D01*
X14367411Y-10909622D02*
X14337411Y-10939622D01*
X14454410Y-7497421D02*
X14484410Y-7527421D01*
X14484410Y-7497421D02*
X14454410Y-7527421D01*
X14454410Y-9997421D02*
X14484410Y-10027421D01*
X14484410Y-9997421D02*
X14454410Y-10027421D01*
X14454410Y-10497421D02*
X14484410Y-10527421D01*
X14484410Y-10497421D02*
X14454410Y-10527421D01*
X14454410Y-11997421D02*
X14484410Y-12027421D01*
X14484410Y-11997421D02*
X14454410Y-12027421D01*
X14579410Y-9747421D02*
X14609410Y-9777421D01*
X14609410Y-9747421D02*
X14579410Y-9777421D01*
X14579410Y-10247421D02*
X14609410Y-10277421D01*
X14609410Y-10247421D02*
X14579410Y-10277421D01*
X14579410Y-10747421D02*
X14609410Y-10777421D01*
X14609410Y-10747421D02*
X14579410Y-10777421D01*
X14579410Y-11247421D02*
X14609410Y-11277421D01*
X14609410Y-11247421D02*
X14579410Y-11277421D01*
X14579410Y-15247421D02*
X14609410Y-15277421D01*
X14609410Y-15247421D02*
X14579410Y-15277421D01*
X14704410Y-6497421D02*
X14734410Y-6527421D01*
X14734410Y-6497421D02*
X14704410Y-6527421D01*
X14704410Y-9497421D02*
X14734410Y-9527421D01*
X14734410Y-9497421D02*
X14704410Y-9527421D01*
X14704410Y-9997421D02*
X14734410Y-10027421D01*
X14734410Y-9997421D02*
X14704410Y-10027421D01*
X14704410Y-10497421D02*
X14734410Y-10527421D01*
X14734410Y-10497421D02*
X14704410Y-10527421D01*
X14704410Y-11497421D02*
X14734410Y-11527421D01*
X14734410Y-11497421D02*
X14704410Y-11527421D01*
X14704410Y-11997421D02*
X14734410Y-12027421D01*
X14734410Y-11997421D02*
X14704410Y-12027421D01*
X14718411Y-13970322D02*
X14748411Y-14000322D01*
X14748411Y-13970322D02*
X14718411Y-14000322D01*
X14829410Y-6247421D02*
X14859410Y-6277421D01*
X14859410Y-6247421D02*
X14829410Y-6277421D01*
X14829410Y-11247421D02*
X14859410Y-11277421D01*
X14859410Y-11247421D02*
X14829410Y-11277421D01*
X14829410Y-12247421D02*
X14859410Y-12277421D01*
X14859410Y-12247421D02*
X14829410Y-12277421D01*
X14829410Y-15247421D02*
X14859410Y-15277421D01*
X14859410Y-15247421D02*
X14829410Y-15277421D01*
X14870811Y-10924521D02*
X14900811Y-10954521D01*
X14900811Y-10924521D02*
X14870811Y-10954521D01*
X14954410Y-8997421D02*
X14984410Y-9027421D01*
X14984410Y-8997421D02*
X14954410Y-9027421D01*
X14954410Y-11497421D02*
X14984410Y-11527421D01*
X14984410Y-11497421D02*
X14954410Y-11527421D01*
X14954410Y-12497421D02*
X14984410Y-12527421D01*
X14984410Y-12497421D02*
X14954410Y-12527421D01*
X14954410Y-12997421D02*
X14984410Y-13027421D01*
X14984410Y-12997421D02*
X14954410Y-13027421D01*
X14954410Y-13997421D02*
X14984410Y-14027421D01*
X14984410Y-13997421D02*
X14954410Y-14027421D01*
X14954410Y-14497421D02*
X14984410Y-14527421D01*
X14984410Y-14497421D02*
X14954410Y-14527421D01*
X14954410Y-14997421D02*
X14984410Y-15027421D01*
X14984410Y-14997421D02*
X14954410Y-15027421D01*
X15010511Y-7848922D02*
X15040511Y-7878922D01*
X15040511Y-7848922D02*
X15010511Y-7878922D01*
X15079410Y-8247421D02*
X15109410Y-8277421D01*
X15109410Y-8247421D02*
X15079410Y-8277421D01*
X15079410Y-8747421D02*
X15109410Y-8777421D01*
X15109410Y-8747421D02*
X15079410Y-8777421D01*
X15079410Y-9247421D02*
X15109410Y-9277421D01*
X15109410Y-9247421D02*
X15079410Y-9277421D01*
X15079410Y-10247421D02*
X15109410Y-10277421D01*
X15109410Y-10247421D02*
X15079410Y-10277421D01*
X15079410Y-10747421D02*
X15109410Y-10777421D01*
X15109410Y-10747421D02*
X15079410Y-10777421D01*
X15079410Y-11247421D02*
X15109410Y-11277421D01*
X15109410Y-11247421D02*
X15079410Y-11277421D01*
X15079410Y-11747421D02*
X15109410Y-11777421D01*
X15109410Y-11747421D02*
X15079410Y-11777421D01*
X15079410Y-12747421D02*
X15109410Y-12777421D01*
X15109410Y-12747421D02*
X15079410Y-12777421D01*
X15079410Y-15247421D02*
X15109410Y-15277421D01*
X15109410Y-15247421D02*
X15079410Y-15277421D01*
X15204410Y-5997421D02*
X15234410Y-6027421D01*
X15234410Y-5997421D02*
X15204410Y-6027421D01*
X15204410Y-8997421D02*
X15234410Y-9027421D01*
X15234410Y-8997421D02*
X15204410Y-9027421D01*
X15204410Y-9997421D02*
X15234410Y-10027421D01*
X15234410Y-9997421D02*
X15204410Y-10027421D01*
X15204410Y-10497421D02*
X15234410Y-10527421D01*
X15234410Y-10497421D02*
X15204410Y-10527421D01*
X15329410Y-8247421D02*
X15359410Y-8277421D01*
X15359410Y-8247421D02*
X15329410Y-8277421D01*
X15329410Y-9747421D02*
X15359410Y-9777421D01*
X15359410Y-9747421D02*
X15329410Y-9777421D01*
X15329410Y-10247421D02*
X15359410Y-10277421D01*
X15359410Y-10247421D02*
X15329410Y-10277421D01*
X15454410Y-8497421D02*
X15484410Y-8527421D01*
X15484410Y-8497421D02*
X15454410Y-8527421D01*
X15454410Y-9497421D02*
X15484410Y-9527421D01*
X15484410Y-9497421D02*
X15454410Y-9527421D01*
X15454410Y-9997421D02*
X15484410Y-10027421D01*
X15484410Y-9997421D02*
X15454410Y-10027421D01*
X15579410Y-8247421D02*
X15609410Y-8277421D01*
X15609410Y-8247421D02*
X15579410Y-8277421D01*
X15579410Y-9747421D02*
X15609410Y-9777421D01*
X15609410Y-9747421D02*
X15579410Y-9777421D01*
X15579410Y-10747421D02*
X15609410Y-10777421D01*
X15609410Y-10747421D02*
X15579410Y-10777421D01*
X15579410Y-11247421D02*
X15609410Y-11277421D01*
X15609410Y-11247421D02*
X15579410Y-11277421D01*
X15579410Y-11747421D02*
X15609410Y-11777421D01*
X15609410Y-11747421D02*
X15579410Y-11777421D01*
X15579410Y-12247421D02*
X15609410Y-12277421D01*
X15609410Y-12247421D02*
X15579410Y-12277421D01*
X15579410Y-12747421D02*
X15609410Y-12777421D01*
X15609410Y-12747421D02*
X15579410Y-12777421D01*
X15704410Y-9497421D02*
X15734410Y-9527421D01*
X15734410Y-9497421D02*
X15704410Y-9527421D01*
X15704410Y-9997421D02*
X15734410Y-10027421D01*
X15734410Y-9997421D02*
X15704410Y-10027421D01*
X15704410Y-11497421D02*
X15734410Y-11527421D01*
X15734410Y-11497421D02*
X15704410Y-11527421D01*
X15704410Y-11997421D02*
X15734410Y-12027421D01*
X15734410Y-11997421D02*
X15704410Y-12027421D01*
X15704410Y-12497421D02*
X15734410Y-12527421D01*
X15734410Y-12497421D02*
X15704410Y-12527421D01*
X15704410Y-12997421D02*
X15734410Y-13027421D01*
X15734410Y-12997421D02*
X15704410Y-13027421D01*
X15704410Y-13997421D02*
X15734410Y-14027421D01*
X15734410Y-13997421D02*
X15704410Y-14027421D01*
X15753231Y-14244022D02*
X15783231Y-14274022D01*
X15783231Y-14244022D02*
X15753231Y-14274022D01*
X15810611Y-10924521D02*
X15840611Y-10954521D01*
X15840611Y-10924521D02*
X15810611Y-10954521D01*
X15829410Y-9247421D02*
X15859410Y-9277421D01*
X15859410Y-9247421D02*
X15829410Y-9277421D01*
X15829410Y-9747421D02*
X15859410Y-9777421D01*
X15859410Y-9747421D02*
X15829410Y-9777421D01*
X15829410Y-11247421D02*
X15859410Y-11277421D01*
X15859410Y-11247421D02*
X15829410Y-11277421D01*
X15829410Y-11747421D02*
X15859410Y-11777421D01*
X15859410Y-11747421D02*
X15829410Y-11777421D01*
X15829410Y-12247421D02*
X15859410Y-12277421D01*
X15859410Y-12247421D02*
X15829410Y-12277421D01*
X15829410Y-12747421D02*
X15859410Y-12777421D01*
X15859410Y-12747421D02*
X15829410Y-12777421D01*
X15829410Y-13247421D02*
X15859410Y-13277421D01*
X15859410Y-13247421D02*
X15829410Y-13277421D01*
X15954410Y-6497421D02*
X15984410Y-6527421D01*
X15984410Y-6497421D02*
X15954410Y-6527421D01*
X15954410Y-9497421D02*
X15984410Y-9527421D01*
X15984410Y-9497421D02*
X15954410Y-9527421D01*
X15954410Y-9997421D02*
X15984410Y-10027421D01*
X15984410Y-9997421D02*
X15954410Y-10027421D01*
X15954410Y-11497421D02*
X15984410Y-11527421D01*
X15984410Y-11497421D02*
X15954410Y-11527421D01*
X15954410Y-11997421D02*
X15984410Y-12027421D01*
X15984410Y-11997421D02*
X15954410Y-12027421D01*
X15954410Y-12497421D02*
X15984410Y-12527421D01*
X15984410Y-12497421D02*
X15954410Y-12527421D01*
X15954410Y-12997421D02*
X15984410Y-13027421D01*
X15984410Y-12997421D02*
X15954410Y-13027421D01*
X15963011Y-6871022D02*
X15993011Y-6901022D01*
X15993011Y-6871022D02*
X15963011Y-6901022D01*
X16065071Y-14496142D02*
X16095071Y-14526142D01*
X16095071Y-14496142D02*
X16065071Y-14526142D01*
X16079410Y-8247421D02*
X16109410Y-8277421D01*
X16109410Y-8247421D02*
X16079410Y-8277421D01*
X16079410Y-9247421D02*
X16109410Y-9277421D01*
X16109410Y-9247421D02*
X16079410Y-9277421D01*
X16079410Y-9747421D02*
X16109410Y-9777421D01*
X16109410Y-9747421D02*
X16079410Y-9777421D01*
X16079410Y-10747421D02*
X16109410Y-10777421D01*
X16109410Y-10747421D02*
X16079410Y-10777421D01*
X16079410Y-11247421D02*
X16109410Y-11277421D01*
X16109410Y-11247421D02*
X16079410Y-11277421D01*
X16079410Y-11747421D02*
X16109410Y-11777421D01*
X16109410Y-11747421D02*
X16079410Y-11777421D01*
X16079410Y-12247421D02*
X16109410Y-12277421D01*
X16109410Y-12247421D02*
X16079410Y-12277421D01*
X16079410Y-12747421D02*
X16109410Y-12777421D01*
X16109410Y-12747421D02*
X16079410Y-12777421D01*
X16079410Y-14247421D02*
X16109410Y-14277421D01*
X16109410Y-14247421D02*
X16079410Y-14277421D01*
X16204410Y-6997421D02*
X16234410Y-7027421D01*
X16234410Y-6997421D02*
X16204410Y-7027421D01*
X16204410Y-7497421D02*
X16234410Y-7527421D01*
X16234410Y-7497421D02*
X16204410Y-7527421D01*
X16204410Y-8497421D02*
X16234410Y-8527421D01*
X16234410Y-8497421D02*
X16204410Y-8527421D01*
X16204410Y-8997421D02*
X16234410Y-9027421D01*
X16234410Y-8997421D02*
X16204410Y-9027421D01*
X16204410Y-9497421D02*
X16234410Y-9527421D01*
X16234410Y-9497421D02*
X16204410Y-9527421D01*
X16204410Y-9997421D02*
X16234410Y-10027421D01*
X16234410Y-9997421D02*
X16204410Y-10027421D01*
X16204410Y-11497421D02*
X16234410Y-11527421D01*
X16234410Y-11497421D02*
X16204410Y-11527421D01*
X16204410Y-11997421D02*
X16234410Y-12027421D01*
X16234410Y-11997421D02*
X16204410Y-12027421D01*
X16204410Y-12497421D02*
X16234410Y-12527421D01*
X16234410Y-12497421D02*
X16204410Y-12527421D01*
X16329410Y-8247421D02*
X16359410Y-8277421D01*
X16359410Y-8247421D02*
X16329410Y-8277421D01*
X16329410Y-8747421D02*
X16359410Y-8777421D01*
X16359410Y-8747421D02*
X16329410Y-8777421D01*
X16329410Y-9247421D02*
X16359410Y-9277421D01*
X16359410Y-9247421D02*
X16329410Y-9277421D01*
X16329410Y-9747421D02*
X16359410Y-9777421D01*
X16359410Y-9747421D02*
X16329410Y-9777421D01*
X16329410Y-10747421D02*
X16359410Y-10777421D01*
X16359410Y-10747421D02*
X16329410Y-10777421D01*
X16329410Y-11247421D02*
X16359410Y-11277421D01*
X16359410Y-11247421D02*
X16329410Y-11277421D01*
X16329410Y-11747421D02*
X16359410Y-11777421D01*
X16359410Y-11747421D02*
X16329410Y-11777421D01*
X16329410Y-12247421D02*
X16359410Y-12277421D01*
X16359410Y-12247421D02*
X16329410Y-12277421D01*
X16329410Y-12747421D02*
X16359410Y-12777421D01*
X16359410Y-12747421D02*
X16329410Y-12777421D01*
X16329410Y-14747421D02*
X16359410Y-14777421D01*
X16359410Y-14747421D02*
X16329410Y-14777421D01*
X16329410Y-15247421D02*
X16359410Y-15277421D01*
X16359410Y-15247421D02*
X16329410Y-15277421D01*
X16454410Y-5997421D02*
X16484410Y-6027421D01*
X16484410Y-5997421D02*
X16454410Y-6027421D01*
X16454410Y-7497421D02*
X16484410Y-7527421D01*
X16484410Y-7497421D02*
X16454410Y-7527421D01*
X16454410Y-8497421D02*
X16484410Y-8527421D01*
X16484410Y-8497421D02*
X16454410Y-8527421D01*
X16454410Y-8997421D02*
X16484410Y-9027421D01*
X16484410Y-8997421D02*
X16454410Y-9027421D01*
X16454410Y-9497421D02*
X16484410Y-9527421D01*
X16484410Y-9497421D02*
X16454410Y-9527421D01*
X16454410Y-9997421D02*
X16484410Y-10027421D01*
X16484410Y-9997421D02*
X16454410Y-10027421D01*
X16454410Y-11497421D02*
X16484410Y-11527421D01*
X16484410Y-11497421D02*
X16454410Y-11527421D01*
X16454410Y-11997421D02*
X16484410Y-12027421D01*
X16484410Y-11997421D02*
X16454410Y-12027421D01*
X16454410Y-12497421D02*
X16484410Y-12527421D01*
X16484410Y-12497421D02*
X16454410Y-12527421D01*
X16454410Y-14497421D02*
X16484410Y-14527421D01*
X16484410Y-14497421D02*
X16454410Y-14527421D01*
X16454410Y-14997421D02*
X16484410Y-15027421D01*
X16484410Y-14997421D02*
X16454410Y-15027421D01*
X16579410Y-7247421D02*
X16609410Y-7277421D01*
X16609410Y-7247421D02*
X16579410Y-7277421D01*
X16579410Y-8247421D02*
X16609410Y-8277421D01*
X16609410Y-8247421D02*
X16579410Y-8277421D01*
X16579410Y-8747421D02*
X16609410Y-8777421D01*
X16609410Y-8747421D02*
X16579410Y-8777421D01*
X16579410Y-9247421D02*
X16609410Y-9277421D01*
X16609410Y-9247421D02*
X16579410Y-9277421D01*
X16579410Y-9747421D02*
X16609410Y-9777421D01*
X16609410Y-9747421D02*
X16579410Y-9777421D01*
X16579410Y-11247421D02*
X16609410Y-11277421D01*
X16609410Y-11247421D02*
X16579410Y-11277421D01*
X16579410Y-11747421D02*
X16609410Y-11777421D01*
X16609410Y-11747421D02*
X16579410Y-11777421D01*
X16579410Y-12247421D02*
X16609410Y-12277421D01*
X16609410Y-12247421D02*
X16579410Y-12277421D01*
X16579410Y-12747421D02*
X16609410Y-12777421D01*
X16609410Y-12747421D02*
X16579410Y-12777421D01*
X16579410Y-14747421D02*
X16609410Y-14777421D01*
X16609410Y-14747421D02*
X16579410Y-14777421D01*
X16579410Y-15247421D02*
X16609410Y-15277421D01*
X16609410Y-15247421D02*
X16579410Y-15277421D01*
X16704410Y-5997421D02*
X16734410Y-6027421D01*
X16734410Y-5997421D02*
X16704410Y-6027421D01*
X16704410Y-6497421D02*
X16734410Y-6527421D01*
X16734410Y-6497421D02*
X16704410Y-6527421D01*
X16704410Y-7497421D02*
X16734410Y-7527421D01*
X16734410Y-7497421D02*
X16704410Y-7527421D01*
X16704410Y-8497421D02*
X16734410Y-8527421D01*
X16734410Y-8497421D02*
X16704410Y-8527421D01*
X16704410Y-8997421D02*
X16734410Y-9027421D01*
X16734410Y-8997421D02*
X16704410Y-9027421D01*
X16704410Y-9497421D02*
X16734410Y-9527421D01*
X16734410Y-9497421D02*
X16704410Y-9527421D01*
X16704410Y-10497421D02*
X16734410Y-10527421D01*
X16734410Y-10497421D02*
X16704410Y-10527421D01*
X16704410Y-10997421D02*
X16734410Y-11027421D01*
X16734410Y-10997421D02*
X16704410Y-11027421D01*
X16704410Y-11497421D02*
X16734410Y-11527421D01*
X16734410Y-11497421D02*
X16704410Y-11527421D01*
X16704410Y-11997421D02*
X16734410Y-12027421D01*
X16734410Y-11997421D02*
X16704410Y-12027421D01*
X16704410Y-12497421D02*
X16734410Y-12527421D01*
X16734410Y-12497421D02*
X16704410Y-12527421D01*
X16704410Y-13497421D02*
X16734410Y-13527421D01*
X16734410Y-13497421D02*
X16704410Y-13527421D01*
X16704410Y-13997421D02*
X16734410Y-14027421D01*
X16734410Y-13997421D02*
X16704410Y-14027421D01*
X16704410Y-14497421D02*
X16734410Y-14527421D01*
X16734410Y-14497421D02*
X16704410Y-14527421D01*
X16704410Y-14997421D02*
X16734410Y-15027421D01*
X16734410Y-14997421D02*
X16704410Y-15027421D01*
X16829410Y-7247421D02*
X16859410Y-7277421D01*
X16859410Y-7247421D02*
X16829410Y-7277421D01*
X16829410Y-8247421D02*
X16859410Y-8277421D01*
X16859410Y-8247421D02*
X16829410Y-8277421D01*
X16829410Y-8747421D02*
X16859410Y-8777421D01*
X16859410Y-8747421D02*
X16829410Y-8777421D01*
X16829410Y-9247421D02*
X16859410Y-9277421D01*
X16859410Y-9247421D02*
X16829410Y-9277421D01*
X16829410Y-10247421D02*
X16859410Y-10277421D01*
X16859410Y-10247421D02*
X16829410Y-10277421D01*
X16829410Y-11247421D02*
X16859410Y-11277421D01*
X16859410Y-11247421D02*
X16829410Y-11277421D01*
X16829410Y-11747421D02*
X16859410Y-11777421D01*
X16859410Y-11747421D02*
X16829410Y-11777421D01*
X16829410Y-12247421D02*
X16859410Y-12277421D01*
X16859410Y-12247421D02*
X16829410Y-12277421D01*
X16829410Y-14747421D02*
X16859410Y-14777421D01*
X16859410Y-14747421D02*
X16829410Y-14777421D01*
X16829410Y-15247421D02*
X16859410Y-15277421D01*
X16859410Y-15247421D02*
X16829410Y-15277421D01*
X16954410Y-6997421D02*
X16984410Y-7027421D01*
X16984410Y-6997421D02*
X16954410Y-7027421D01*
X16954410Y-7497421D02*
X16984410Y-7527421D01*
X16984410Y-7497421D02*
X16954410Y-7527421D01*
X16954410Y-10997421D02*
X16984410Y-11027421D01*
X16984410Y-10997421D02*
X16954410Y-11027421D01*
X16954410Y-11497421D02*
X16984410Y-11527421D01*
X16984410Y-11497421D02*
X16954410Y-11527421D01*
X16954410Y-11997421D02*
X16984410Y-12027421D01*
X16984410Y-11997421D02*
X16954410Y-12027421D01*
X16954410Y-12497421D02*
X16984410Y-12527421D01*
X16984410Y-12497421D02*
X16954410Y-12527421D01*
X16954410Y-14497421D02*
X16984410Y-14527421D01*
X16984410Y-14497421D02*
X16954410Y-14527421D01*
X16954410Y-14997421D02*
X16984410Y-15027421D01*
X16984410Y-14997421D02*
X16954410Y-15027421D01*
X17079410Y-6747421D02*
X17109410Y-6777421D01*
X17109410Y-6747421D02*
X17079410Y-6777421D01*
X17079410Y-7247421D02*
X17109410Y-7277421D01*
X17109410Y-7247421D02*
X17079410Y-7277421D01*
X17079410Y-10747421D02*
X17109410Y-10777421D01*
X17109410Y-10747421D02*
X17079410Y-10777421D01*
X17079410Y-11247421D02*
X17109410Y-11277421D01*
X17109410Y-11247421D02*
X17079410Y-11277421D01*
X17079410Y-11747421D02*
X17109410Y-11777421D01*
X17109410Y-11747421D02*
X17079410Y-11777421D01*
X17079410Y-12247421D02*
X17109410Y-12277421D01*
X17109410Y-12247421D02*
X17079410Y-12277421D01*
X17079410Y-15247421D02*
X17109410Y-15277421D01*
X17109410Y-15247421D02*
X17079410Y-15277421D01*
X17204410Y-6997421D02*
X17234410Y-7027421D01*
X17234410Y-6997421D02*
X17204410Y-7027421D01*
X17204410Y-7497421D02*
X17234410Y-7527421D01*
X17234410Y-7497421D02*
X17204410Y-7527421D01*
X17204410Y-8497421D02*
X17234410Y-8527421D01*
X17234410Y-8497421D02*
X17204410Y-8527421D01*
X17204410Y-8997421D02*
X17234410Y-9027421D01*
X17234410Y-8997421D02*
X17204410Y-9027421D01*
X17204410Y-9497421D02*
X17234410Y-9527421D01*
X17234410Y-9497421D02*
X17204410Y-9527421D01*
X17204410Y-9997421D02*
X17234410Y-10027421D01*
X17234410Y-9997421D02*
X17204410Y-10027421D01*
X17204410Y-10497421D02*
X17234410Y-10527421D01*
X17234410Y-10497421D02*
X17204410Y-10527421D01*
X17204410Y-10997421D02*
X17234410Y-11027421D01*
X17234410Y-10997421D02*
X17204410Y-11027421D01*
X17204410Y-11497421D02*
X17234410Y-11527421D01*
X17234410Y-11497421D02*
X17204410Y-11527421D01*
X17204410Y-11997421D02*
X17234410Y-12027421D01*
X17234410Y-11997421D02*
X17204410Y-12027421D01*
X17245711Y-14465622D02*
X17275711Y-14495622D01*
X17275711Y-14465622D02*
X17245711Y-14495622D01*
X17329410Y-7247421D02*
X17359410Y-7277421D01*
X17359410Y-7247421D02*
X17329410Y-7277421D01*
X17329410Y-8247421D02*
X17359410Y-8277421D01*
X17359410Y-8247421D02*
X17329410Y-8277421D01*
X17329410Y-9247421D02*
X17359410Y-9277421D01*
X17359410Y-9247421D02*
X17329410Y-9277421D01*
X17329410Y-9747421D02*
X17359410Y-9777421D01*
X17359410Y-9747421D02*
X17329410Y-9777421D01*
X17329410Y-10747421D02*
X17359410Y-10777421D01*
X17359410Y-10747421D02*
X17329410Y-10777421D01*
X17329410Y-11247421D02*
X17359410Y-11277421D01*
X17359410Y-11247421D02*
X17329410Y-11277421D01*
X17329410Y-11747421D02*
X17359410Y-11777421D01*
X17359410Y-11747421D02*
X17329410Y-11777421D01*
X17329410Y-12747421D02*
X17359410Y-12777421D01*
X17359410Y-12747421D02*
X17329410Y-12777421D01*
X17454410Y-7497421D02*
X17484410Y-7527421D01*
X17484410Y-7497421D02*
X17454410Y-7527421D01*
X17454410Y-8497421D02*
X17484410Y-8527421D01*
X17484410Y-8497421D02*
X17454410Y-8527421D01*
X17454410Y-9497421D02*
X17484410Y-9527421D01*
X17484410Y-9497421D02*
X17454410Y-9527421D01*
X17454410Y-10497421D02*
X17484410Y-10527421D01*
X17484410Y-10497421D02*
X17454410Y-10527421D01*
X17454410Y-12497421D02*
X17484410Y-12527421D01*
X17484410Y-12497421D02*
X17454410Y-12527421D01*
X17454410Y-12997421D02*
X17484410Y-13027421D01*
X17484410Y-12997421D02*
X17454410Y-13027421D01*
X17579410Y-12747421D02*
X17609410Y-12777421D01*
X17609410Y-12747421D02*
X17579410Y-12777421D01*
X17579410Y-13247421D02*
X17609410Y-13277421D01*
X17609410Y-13247421D02*
X17579410Y-13277421D01*
X17622911Y-15288621D02*
X17652911Y-15318621D01*
X17652911Y-15288621D02*
X17622911Y-15318621D01*
X17690211Y-12063322D02*
X17720211Y-12093322D01*
X17720211Y-12063322D02*
X17690211Y-12093322D01*
X17704410Y-7497421D02*
X17734410Y-7527421D01*
X17734410Y-7497421D02*
X17704410Y-7527421D01*
X17704410Y-12497421D02*
X17734410Y-12527421D01*
X17734410Y-12497421D02*
X17704410Y-12527421D01*
X17704410Y-12997421D02*
X17734410Y-13027421D01*
X17734410Y-12997421D02*
X17704410Y-13027421D01*
X17704410Y-13997421D02*
X17734410Y-14027421D01*
X17734410Y-13997421D02*
X17704410Y-14027421D01*
X17791811Y-14300522D02*
X17821811Y-14330522D01*
X17821811Y-14300522D02*
X17791811Y-14330522D01*
X17829410Y-8247421D02*
X17859410Y-8277421D01*
X17859410Y-8247421D02*
X17829410Y-8277421D01*
X17829410Y-9247421D02*
X17859410Y-9277421D01*
X17859410Y-9247421D02*
X17829410Y-9277421D01*
X17829410Y-9747421D02*
X17859410Y-9777421D01*
X17859410Y-9747421D02*
X17829410Y-9777421D01*
X17829410Y-10747421D02*
X17859410Y-10777421D01*
X17859410Y-10747421D02*
X17829410Y-10777421D01*
X17829410Y-11247421D02*
X17859410Y-11277421D01*
X17859410Y-11247421D02*
X17829410Y-11277421D01*
X17829410Y-12247421D02*
X17859410Y-12277421D01*
X17859410Y-12247421D02*
X17829410Y-12277421D01*
X17829410Y-12747421D02*
X17859410Y-12777421D01*
X17859410Y-12747421D02*
X17829410Y-12777421D01*
X17944211Y-15126022D02*
X17974211Y-15156022D01*
X17974211Y-15126022D02*
X17944211Y-15156022D01*
X17954410Y-6997421D02*
X17984410Y-7027421D01*
X17984410Y-6997421D02*
X17954410Y-7027421D01*
X17954410Y-8497421D02*
X17984410Y-8527421D01*
X17984410Y-8497421D02*
X17954410Y-8527421D01*
X17954410Y-8997421D02*
X17984410Y-9027421D01*
X17984410Y-8997421D02*
X17954410Y-9027421D01*
X17954410Y-9497421D02*
X17984410Y-9527421D01*
X17984410Y-9497421D02*
X17954410Y-9527421D01*
X17954410Y-10997421D02*
X17984410Y-11027421D01*
X17984410Y-10997421D02*
X17954410Y-11027421D01*
X17954410Y-11497421D02*
X17984410Y-11527421D01*
X17984410Y-11497421D02*
X17954410Y-11527421D01*
X17954410Y-12497421D02*
X17984410Y-12527421D01*
X17984410Y-12497421D02*
X17954410Y-12527421D01*
X18079410Y-6247421D02*
X18109410Y-6277421D01*
X18109410Y-6247421D02*
X18079410Y-6277421D01*
X18079410Y-14747421D02*
X18109410Y-14777421D01*
X18109410Y-14747421D02*
X18079410Y-14777421D01*
X18086021Y-8267173D02*
X18116021Y-8297173D01*
X18116021Y-8267173D02*
X18086021Y-8297173D01*
X18236311Y-10882222D02*
X18266311Y-10912222D01*
X18266311Y-10882222D02*
X18236311Y-10912222D01*
X18329410Y-8747421D02*
X18359410Y-8777421D01*
X18359410Y-8747421D02*
X18329410Y-8777421D01*
X18329410Y-9247421D02*
X18359410Y-9277421D01*
X18359410Y-9247421D02*
X18329410Y-9277421D01*
X18329410Y-9747421D02*
X18359410Y-9777421D01*
X18359410Y-9747421D02*
X18329410Y-9777421D01*
X18329410Y-14747421D02*
X18359410Y-14777421D01*
X18359410Y-14747421D02*
X18329410Y-14777421D01*
X18426811Y-10122222D02*
X18456811Y-10152222D01*
X18456811Y-10122222D02*
X18426811Y-10152222D01*
X18454410Y-7497421D02*
X18484410Y-7527421D01*
X18484410Y-7497421D02*
X18454410Y-7527421D01*
X18454410Y-8497421D02*
X18484410Y-8527421D01*
X18484410Y-8497421D02*
X18454410Y-8527421D01*
X18454410Y-8997421D02*
X18484410Y-9027421D01*
X18484410Y-8997421D02*
X18454410Y-9027421D01*
X18454410Y-9497421D02*
X18484410Y-9527421D01*
X18484410Y-9497421D02*
X18454410Y-9527421D01*
X18454410Y-10497421D02*
X18484410Y-10527421D01*
X18484410Y-10497421D02*
X18454410Y-10527421D01*
X18454410Y-10997421D02*
X18484410Y-11027421D01*
X18484410Y-10997421D02*
X18454410Y-11027421D01*
X18579211Y-13055922D02*
X18609211Y-13085922D01*
X18609211Y-13055922D02*
X18579211Y-13085922D01*
X18579410Y-6747421D02*
X18609410Y-6777421D01*
X18609410Y-6747421D02*
X18579410Y-6777421D01*
X18579410Y-13747421D02*
X18609410Y-13777421D01*
X18609410Y-13747421D02*
X18579410Y-13777421D01*
X18579410Y-14747421D02*
X18609410Y-14777421D01*
X18609410Y-14747421D02*
X18579410Y-14777421D01*
X18704410Y-13497421D02*
X18734410Y-13527421D01*
X18734410Y-13497421D02*
X18704410Y-13527421D01*
X18704410Y-14497421D02*
X18734410Y-14527421D01*
X18734410Y-14497421D02*
X18704410Y-14527421D01*
X18829410Y-6747421D02*
X18859410Y-6777421D01*
X18859410Y-6747421D02*
X18829410Y-6777421D01*
X18829410Y-12747421D02*
X18859410Y-12777421D01*
X18859410Y-12747421D02*
X18829410Y-12777421D01*
X18829410Y-14747421D02*
X18859410Y-14777421D01*
X18859410Y-14747421D02*
X18829410Y-14777421D01*
X18954410Y-6997421D02*
X18984410Y-7027421D01*
X18984410Y-6997421D02*
X18954410Y-7027421D01*
X18954410Y-7997421D02*
X18984410Y-8027421D01*
X18984410Y-7997421D02*
X18954410Y-8027421D01*
X18954410Y-9997421D02*
X18984410Y-10027421D01*
X18984410Y-9997421D02*
X18954410Y-10027421D01*
X18954410Y-10497421D02*
X18984410Y-10527421D01*
X18984410Y-10497421D02*
X18954410Y-10527421D01*
X18954410Y-12997421D02*
X18984410Y-13027421D01*
X18984410Y-12997421D02*
X18954410Y-13027421D01*
X18954410Y-14497421D02*
X18984410Y-14527421D01*
X18984410Y-14497421D02*
X18954410Y-14527421D01*
X19079410Y-6247421D02*
X19109410Y-6277421D01*
X19109410Y-6247421D02*
X19079410Y-6277421D01*
X19079410Y-6747421D02*
X19109410Y-6777421D01*
X19109410Y-6747421D02*
X19079410Y-6777421D01*
X19079410Y-7247421D02*
X19109410Y-7277421D01*
X19109410Y-7247421D02*
X19079410Y-7277421D01*
X19079410Y-14247421D02*
X19109410Y-14277421D01*
X19109410Y-14247421D02*
X19079410Y-14277421D01*
X19079410Y-14747421D02*
X19109410Y-14777421D01*
X19109410Y-14747421D02*
X19079410Y-14777421D01*
X19150711Y-8483922D02*
X19180711Y-8513922D01*
X19180711Y-8483922D02*
X19150711Y-8513922D01*
X19239611Y-9893622D02*
X19269611Y-9923622D01*
X19269611Y-9893622D02*
X19239611Y-9923622D01*
X19454410Y-9997421D02*
X19484410Y-10027421D01*
X19484410Y-9997421D02*
X19454410Y-10027421D01*
X19454410Y-10497421D02*
X19484410Y-10527421D01*
X19484410Y-10497421D02*
X19454410Y-10527421D01*
X19454410Y-10997421D02*
X19484410Y-11027421D01*
X19484410Y-10997421D02*
X19454410Y-11027421D01*
X19454410Y-12497421D02*
X19484410Y-12527421D01*
X19484410Y-12497421D02*
X19454410Y-12527421D01*
X19454410Y-12997421D02*
X19484410Y-13027421D01*
X19484410Y-12997421D02*
X19454410Y-13027421D01*
X19468211Y-9538022D02*
X19498211Y-9568022D01*
X19498211Y-9538022D02*
X19468211Y-9568022D01*
X19496811Y-8395022D02*
X19526811Y-8425022D01*
X19526811Y-8395022D02*
X19496811Y-8425022D01*
X19579410Y-10247421D02*
X19609410Y-10277421D01*
X19609410Y-10247421D02*
X19579410Y-10277421D01*
X19579410Y-10747421D02*
X19609410Y-10777421D01*
X19609410Y-10747421D02*
X19579410Y-10777421D01*
X19579410Y-11247421D02*
X19609410Y-11277421D01*
X19609410Y-11247421D02*
X19579410Y-11277421D01*
X19579410Y-12247421D02*
X19609410Y-12277421D01*
X19609410Y-12247421D02*
X19579410Y-12277421D01*
X19579410Y-12747421D02*
X19609410Y-12777421D01*
X19609410Y-12747421D02*
X19579410Y-12777421D01*
X19582511Y-9436422D02*
X19612511Y-9466422D01*
X19612511Y-9436422D02*
X19582511Y-9466422D01*
X19627751Y-8291907D02*
X19657751Y-8321907D01*
X19657751Y-8291907D02*
X19627751Y-8321907D01*
X19704410Y-10497421D02*
X19734410Y-10527421D01*
X19734410Y-10497421D02*
X19704410Y-10527421D01*
X19704410Y-10997421D02*
X19734410Y-11027421D01*
X19734410Y-10997421D02*
X19704410Y-11027421D01*
X19704410Y-11497421D02*
X19734410Y-11527421D01*
X19734410Y-11497421D02*
X19704410Y-11527421D01*
X19704410Y-11997421D02*
X19734410Y-12027421D01*
X19734410Y-11997421D02*
X19704410Y-12027421D01*
X19704410Y-12497421D02*
X19734410Y-12527421D01*
X19734410Y-12497421D02*
X19704410Y-12527421D01*
X19704410Y-12997421D02*
X19734410Y-13027421D01*
X19734410Y-12997421D02*
X19704410Y-13027421D01*
X19704410Y-14497421D02*
X19734410Y-14527421D01*
X19734410Y-14497421D02*
X19704410Y-14527421D01*
X19704410Y-14997421D02*
X19734410Y-15027421D01*
X19734410Y-14997421D02*
X19704410Y-15027421D01*
X11035171Y-8397322D02*
G75*
G02*
X10964051Y-8397322I-35560J0D01*
G01*
X10964051Y-8397322D02*
G75*
G02*
X11035171Y-8397322I35560J0D01*
G01*
X17639171Y-11039722D02*
G75*
G02*
X17568051Y-11039722I-35560J0D01*
G01*
X17568051Y-11039722D02*
G75*
G02*
X17639171Y-11039722I35560J0D01*
G01*
X18210671Y-9845122D02*
G75*
G02*
X18139551Y-9845122I-35560J0D01*
G01*
X18139551Y-9845122D02*
G75*
G02*
X18210671Y-9845122I35560J0D01*
G01*
X19296131Y-8781023D02*
G75*
G02*
X19225011Y-8781023I-35560J0D01*
G01*
X19225011Y-8781023D02*
G75*
G02*
X19296131Y-8781023I35560J0D01*
G01*
X11025011Y-6550742D02*
X11025011Y-6637102D01*
X10981831Y-6593922D02*
X11068191Y-6593922D01*
X11025011Y-6804742D02*
X11025011Y-6891102D01*
X10981831Y-6847922D02*
X11068191Y-6847922D01*
X17451211Y-6601542D02*
X17451211Y-6687902D01*
X17408031Y-6644722D02*
X17494391Y-6644722D01*
X17451211Y-6855542D02*
X17451211Y-6941902D01*
X17408031Y-6898722D02*
X17494391Y-6898722D01*
X10155640Y-6550051D02*
X10155640Y-6485392D01*
X10090982Y-6485392D01*
X10090982Y-6550051D01*
X10155640Y-6550051D01*
X10155640Y-6806591D02*
X10155640Y-6741932D01*
X10090982Y-6741932D01*
X10090982Y-6806591D01*
X10155640Y-6806591D01*
X10155640Y-7055511D02*
X10155640Y-6990852D01*
X10090982Y-6990852D01*
X10090982Y-7055511D01*
X10155640Y-7055511D01*
X10155640Y-7312051D02*
X10155640Y-7247392D01*
X10090982Y-7247392D01*
X10090982Y-7312051D01*
X10155640Y-7312051D01*
X10796411Y-14213122D02*
X10846411Y-14163122D01*
X10796411Y-14113122D01*
X10746411Y-14163122D01*
X10796411Y-14213122D01*
X11152011Y-14213122D02*
X11202011Y-14163122D01*
X11152011Y-14113122D01*
X11102011Y-14163122D01*
X11152011Y-14213122D01*
X11685411Y-13844822D02*
X11735411Y-13794822D01*
X11685411Y-13744822D01*
X11635411Y-13794822D01*
X11685411Y-13844822D01*
D13*
X10136011Y-12728022D02*
X10237611Y-12829622D01*
X10237611Y-12728022D02*
X10136011Y-12829622D01*
X10237611Y-12778822D02*
G75*
G02*
X10136011Y-12778822I-50800J0D01*
G01*
X10136011Y-12778822D02*
G75*
G02*
X10237611Y-12778822I50800J0D01*
G01*
X10136012Y-12982022D02*
X10237612Y-13083622D01*
X10237612Y-12982022D02*
X10136012Y-13083622D01*
X10237612Y-13032822D02*
G75*
G02*
X10136012Y-13032822I-50800J0D01*
G01*
X10136012Y-13032822D02*
G75*
G02*
X10237612Y-13032822I50800J0D01*
G01*
D14*
X11236711Y-14656762D02*
X11346711Y-14766762D01*
X11346711Y-14656762D02*
X11236711Y-14766762D01*
X11291711Y-14656762D02*
X11291711Y-14766762D01*
X11236711Y-14711762D02*
X11346711Y-14711762D01*
X11236711Y-15108882D02*
X11346711Y-15218882D01*
X11346711Y-15108882D02*
X11236711Y-15218882D01*
X11291711Y-15108882D02*
X11291711Y-15218882D01*
X11236711Y-15163882D02*
X11346711Y-15163882D01*
X11947911Y-14656762D02*
X12057911Y-14766762D01*
X12057911Y-14656762D02*
X11947911Y-14766762D01*
X12002911Y-14656762D02*
X12002911Y-14766762D01*
X11947911Y-14711762D02*
X12057911Y-14711762D01*
X11947911Y-15108882D02*
X12057911Y-15218882D01*
X12057911Y-15108882D02*
X11947911Y-15218882D01*
X12002911Y-15108882D02*
X12002911Y-15218882D01*
X11947911Y-15163882D02*
X12057911Y-15163882D01*
X13598911Y-14694862D02*
X13708911Y-14804862D01*
X13708911Y-14694862D02*
X13598911Y-14804862D01*
X13653911Y-14694862D02*
X13653911Y-14804862D01*
X13598911Y-14749862D02*
X13708911Y-14749862D01*
X13598911Y-15146982D02*
X13708911Y-15256982D01*
X13708911Y-15146982D02*
X13598911Y-15256982D01*
X13653911Y-15146982D02*
X13653911Y-15256982D01*
X13598911Y-15201982D02*
X13708911Y-15201982D01*
X13751311Y-6008062D02*
X13861311Y-6118062D01*
X13861311Y-6008062D02*
X13751311Y-6118062D01*
X13806311Y-6008062D02*
X13806311Y-6118062D01*
X13751311Y-6063062D02*
X13861311Y-6063062D01*
X13751311Y-6460182D02*
X13861311Y-6570182D01*
X13861311Y-6460182D02*
X13751311Y-6570182D01*
X13806311Y-6460182D02*
X13806311Y-6570182D01*
X13751311Y-6515182D02*
X13861311Y-6515182D01*
X14310111Y-14694862D02*
X14420111Y-14804862D01*
X14420111Y-14694862D02*
X14310111Y-14804862D01*
X14365111Y-14694862D02*
X14365111Y-14804862D01*
X14310111Y-14749862D02*
X14420111Y-14749862D01*
X14310111Y-15146982D02*
X14420111Y-15256982D01*
X14420111Y-15146982D02*
X14310111Y-15256982D01*
X14365111Y-15146982D02*
X14365111Y-15256982D01*
X14310111Y-15201982D02*
X14420111Y-15201982D01*
X14462511Y-6008062D02*
X14572511Y-6118062D01*
X14572511Y-6008062D02*
X14462511Y-6118062D01*
X14517511Y-6008062D02*
X14517511Y-6118062D01*
X14462511Y-6063062D02*
X14572511Y-6063062D01*
X14462511Y-6460182D02*
X14572511Y-6570182D01*
X14572511Y-6460182D02*
X14462511Y-6570182D01*
X14517511Y-6460182D02*
X14517511Y-6570182D01*
X14462511Y-6515182D02*
X14572511Y-6515182D01*
X15491211Y-5931862D02*
X15601211Y-6041862D01*
X15601211Y-5931862D02*
X15491211Y-6041862D01*
X15546211Y-5931862D02*
X15546211Y-6041862D01*
X15491211Y-5986862D02*
X15601211Y-5986862D01*
X15491211Y-6383982D02*
X15601211Y-6493982D01*
X15601211Y-6383982D02*
X15491211Y-6493982D01*
X15546211Y-6383982D02*
X15546211Y-6493982D01*
X15491211Y-6438982D02*
X15601211Y-6438982D01*
X16202411Y-5931862D02*
X16312411Y-6041862D01*
X16312411Y-5931862D02*
X16202411Y-6041862D01*
X16257411Y-5931862D02*
X16257411Y-6041862D01*
X16202411Y-5986862D02*
X16312411Y-5986862D01*
X16202411Y-6383982D02*
X16312411Y-6493982D01*
X16312411Y-6383982D02*
X16202411Y-6493982D01*
X16257411Y-6383982D02*
X16257411Y-6493982D01*
X16202411Y-6438982D02*
X16312411Y-6438982D01*
D15*
X18886311Y-13845622D02*
X19013311Y-13972622D01*
X19013311Y-13845622D02*
X18886311Y-13972622D01*
X18994713Y-13954023D02*
X18994713Y-13864220D01*
X18904909Y-13864220D01*
X18904909Y-13954023D01*
X18994713Y-13954023D01*
D12*
X19013311Y-13972622D02*
X19013311Y-13845622D01*
X18886311Y-13845622D02*
G75*
G02*
X19013311Y-13845622I63500J0D01*
G01*
X18886311Y-13845622D02*
X18886311Y-13972622D01*
X18886311Y-13972622D02*
G75*
G03*
X19013311Y-13972622I63500J0D01*
G01*
D15*
X19140311Y-13337622D02*
X19267311Y-13464622D01*
X19267311Y-13337622D02*
X19140311Y-13464622D01*
X19248713Y-13446023D02*
X19248713Y-13356220D01*
X19158909Y-13356220D01*
X19158909Y-13446023D01*
X19248713Y-13446023D01*
D12*
X19267311Y-13337622D02*
X19140311Y-13337622D01*
X19140311Y-13464622D02*
G75*
G02*
X19140311Y-13337622I0J63500D01*
G01*
X19140311Y-13464622D02*
X19267311Y-13464622D01*
X19267311Y-13464622D02*
G75*
G03*
X19267311Y-13337622I0J63500D01*
G01*
D15*
X19521311Y-13845622D02*
X19648311Y-13972622D01*
X19648311Y-13845622D02*
X19521311Y-13972622D01*
X19629713Y-13954023D02*
X19629713Y-13864220D01*
X19539909Y-13864220D01*
X19539909Y-13954023D01*
X19629713Y-13954023D01*
D12*
X19648311Y-13972622D02*
X19648311Y-13845622D01*
X19521311Y-13845622D02*
G75*
G02*
X19648311Y-13845622I63500J0D01*
G01*
X19521311Y-13845622D02*
X19521311Y-13972622D01*
X19521311Y-13972622D02*
G75*
G03*
X19648311Y-13972622I63500J0D01*
G01*
D16*
X12031111Y-6114122D02*
X12381111Y-6464122D01*
X12381111Y-6114122D02*
X12031111Y-6464122D01*
X12206111Y-6464122D02*
X12381111Y-6289122D01*
X12206111Y-6114122D01*
X12031111Y-6289122D01*
X12206111Y-6464122D01*
X18457311Y-6164922D02*
X18807311Y-6514922D01*
X18807311Y-6164922D02*
X18457311Y-6514922D01*
X18632311Y-6514922D02*
X18807311Y-6339922D01*
X18632311Y-6164922D01*
X18457311Y-6339922D01*
X18632311Y-6514922D01*
D17*
X11751311Y-8578322D02*
X11751311Y-8978322D01*
X11551311Y-8778322D02*
X11951311Y-8778322D01*
X11951311Y-8778322D02*
G75*
G02*
X11551311Y-8778322I-200000J0D01*
G01*
X11551311Y-8778322D02*
G75*
G02*
X11951311Y-8778322I200000J0D01*
G01*
X13575311Y-8578322D02*
X13575311Y-8978322D01*
X13375311Y-8778322D02*
X13775311Y-8778322D01*
X13775311Y-8778322D02*
G75*
G02*
X13375311Y-8778322I-200000J0D01*
G01*
X13375311Y-8778322D02*
G75*
G02*
X13775311Y-8778322I200000J0D01*
G01*
X15840711Y-8616422D02*
X15840711Y-9016422D01*
X15640711Y-8816422D02*
X16040711Y-8816422D01*
X16040711Y-8816422D02*
G75*
G02*
X15640711Y-8816422I-200000J0D01*
G01*
X15640711Y-8816422D02*
G75*
G02*
X16040711Y-8816422I200000J0D01*
G01*
X17664711Y-8616422D02*
X17664711Y-9016422D01*
X17464711Y-8816422D02*
X17864711Y-8816422D01*
X17864711Y-8816422D02*
G75*
G02*
X17464711Y-8816422I-200000J0D01*
G01*
X17464711Y-8816422D02*
G75*
G02*
X17864711Y-8816422I200000J0D01*
G01*
D11*
X10103771Y-15812619D02*
X10103771Y-15612619D01*
X10103771Y-15612619D02*
X10151390Y-15612619D01*
X10151390Y-15612619D02*
X10179962Y-15622143D01*
X10179962Y-15622143D02*
X10199009Y-15641191D01*
X10199009Y-15641191D02*
X10208533Y-15660238D01*
X10208533Y-15660238D02*
X10218057Y-15698334D01*
X10218057Y-15698334D02*
X10218057Y-15726905D01*
X10218057Y-15726905D02*
X10208533Y-15765000D01*
X10208533Y-15765000D02*
X10199009Y-15784048D01*
X10199009Y-15784048D02*
X10179962Y-15803096D01*
X10179962Y-15803096D02*
X10151390Y-15812619D01*
X10151390Y-15812619D02*
X10103771Y-15812619D01*
X10303771Y-15812619D02*
X10303771Y-15679286D01*
X10303771Y-15717381D02*
X10313295Y-15698334D01*
X10313295Y-15698334D02*
X10322819Y-15688810D01*
X10322819Y-15688810D02*
X10341866Y-15679286D01*
X10341866Y-15679286D02*
X10360914Y-15679286D01*
X10427581Y-15812619D02*
X10427581Y-15679286D01*
X10427581Y-15612619D02*
X10418057Y-15622143D01*
X10418057Y-15622143D02*
X10427581Y-15631667D01*
X10427581Y-15631667D02*
X10437104Y-15622143D01*
X10437104Y-15622143D02*
X10427581Y-15612619D01*
X10427581Y-15612619D02*
X10427581Y-15631667D01*
X10551390Y-15812619D02*
X10532343Y-15803096D01*
X10532343Y-15803096D02*
X10522819Y-15784048D01*
X10522819Y-15784048D02*
X10522819Y-15612619D01*
X10656152Y-15812619D02*
X10637104Y-15803096D01*
X10637104Y-15803096D02*
X10627581Y-15784048D01*
X10627581Y-15784048D02*
X10627581Y-15612619D01*
X10884724Y-15812619D02*
X10884724Y-15612619D01*
X10884724Y-15612619D02*
X10951390Y-15755477D01*
X10951390Y-15755477D02*
X11018057Y-15612619D01*
X11018057Y-15612619D02*
X11018057Y-15812619D01*
X11199009Y-15812619D02*
X11199009Y-15707858D01*
X11199009Y-15707858D02*
X11189485Y-15688810D01*
X11189485Y-15688810D02*
X11170438Y-15679286D01*
X11170438Y-15679286D02*
X11132343Y-15679286D01*
X11132343Y-15679286D02*
X11113295Y-15688810D01*
X11199009Y-15803096D02*
X11179962Y-15812619D01*
X11179962Y-15812619D02*
X11132343Y-15812619D01*
X11132343Y-15812619D02*
X11113295Y-15803096D01*
X11113295Y-15803096D02*
X11103771Y-15784048D01*
X11103771Y-15784048D02*
X11103771Y-15765000D01*
X11103771Y-15765000D02*
X11113295Y-15745953D01*
X11113295Y-15745953D02*
X11132343Y-15736429D01*
X11132343Y-15736429D02*
X11179962Y-15736429D01*
X11179962Y-15736429D02*
X11199009Y-15726905D01*
X11294247Y-15679286D02*
X11294247Y-15879286D01*
X11294247Y-15688810D02*
X11313295Y-15679286D01*
X11313295Y-15679286D02*
X11351390Y-15679286D01*
X11351390Y-15679286D02*
X11370438Y-15688810D01*
X11370438Y-15688810D02*
X11379962Y-15698334D01*
X11379962Y-15698334D02*
X11389485Y-15717381D01*
X11389485Y-15717381D02*
X11389485Y-15774524D01*
X11389485Y-15774524D02*
X11379962Y-15793572D01*
X11379962Y-15793572D02*
X11370438Y-15803096D01*
X11370438Y-15803096D02*
X11351390Y-15812619D01*
X11351390Y-15812619D02*
X11313295Y-15812619D01*
X11313295Y-15812619D02*
X11294247Y-15803096D01*
X11475200Y-15793572D02*
X11484723Y-15803096D01*
X11484723Y-15803096D02*
X11475200Y-15812619D01*
X11475200Y-15812619D02*
X11465676Y-15803096D01*
X11465676Y-15803096D02*
X11475200Y-15793572D01*
X11475200Y-15793572D02*
X11475200Y-15812619D01*
X11475200Y-15688810D02*
X11484723Y-15698334D01*
X11484723Y-15698334D02*
X11475200Y-15707858D01*
X11475200Y-15707858D02*
X11465676Y-15698334D01*
X11465676Y-15698334D02*
X11475200Y-15688810D01*
X11475200Y-15688810D02*
X11475200Y-15707858D01*
D12*
X9812994Y-16126136D02*
X9842994Y-16156136D01*
X9842994Y-16126136D02*
X9812994Y-16156136D01*
D11*
X10141866Y-16032619D02*
X10160914Y-16032619D01*
X10160914Y-16032619D02*
X10179962Y-16042143D01*
X10179962Y-16042143D02*
X10189485Y-16051667D01*
X10189485Y-16051667D02*
X10199009Y-16070715D01*
X10199009Y-16070715D02*
X10208533Y-16108810D01*
X10208533Y-16108810D02*
X10208533Y-16156429D01*
X10208533Y-16156429D02*
X10199009Y-16194524D01*
X10199009Y-16194524D02*
X10189485Y-16213572D01*
X10189485Y-16213572D02*
X10179962Y-16223096D01*
X10179962Y-16223096D02*
X10160914Y-16232619D01*
X10160914Y-16232619D02*
X10141866Y-16232619D01*
X10141866Y-16232619D02*
X10122819Y-16223096D01*
X10122819Y-16223096D02*
X10113295Y-16213572D01*
X10113295Y-16213572D02*
X10103771Y-16194524D01*
X10103771Y-16194524D02*
X10094247Y-16156429D01*
X10094247Y-16156429D02*
X10094247Y-16108810D01*
X10094247Y-16108810D02*
X10103771Y-16070715D01*
X10103771Y-16070715D02*
X10113295Y-16051667D01*
X10113295Y-16051667D02*
X10122819Y-16042143D01*
X10122819Y-16042143D02*
X10141866Y-16032619D01*
X10294247Y-16213572D02*
X10303771Y-16223096D01*
X10303771Y-16223096D02*
X10294247Y-16232619D01*
X10294247Y-16232619D02*
X10284724Y-16223096D01*
X10284724Y-16223096D02*
X10294247Y-16213572D01*
X10294247Y-16213572D02*
X10294247Y-16232619D01*
X10370438Y-16032619D02*
X10494247Y-16032619D01*
X10494247Y-16032619D02*
X10427581Y-16108810D01*
X10427581Y-16108810D02*
X10456152Y-16108810D01*
X10456152Y-16108810D02*
X10475200Y-16118334D01*
X10475200Y-16118334D02*
X10484724Y-16127858D01*
X10484724Y-16127858D02*
X10494247Y-16146905D01*
X10494247Y-16146905D02*
X10494247Y-16194524D01*
X10494247Y-16194524D02*
X10484724Y-16213572D01*
X10484724Y-16213572D02*
X10475200Y-16223096D01*
X10475200Y-16223096D02*
X10456152Y-16232619D01*
X10456152Y-16232619D02*
X10399009Y-16232619D01*
X10399009Y-16232619D02*
X10379962Y-16223096D01*
X10379962Y-16223096D02*
X10370438Y-16213572D01*
X10618057Y-16032619D02*
X10637105Y-16032619D01*
X10637105Y-16032619D02*
X10656152Y-16042143D01*
X10656152Y-16042143D02*
X10665676Y-16051667D01*
X10665676Y-16051667D02*
X10675200Y-16070715D01*
X10675200Y-16070715D02*
X10684724Y-16108810D01*
X10684724Y-16108810D02*
X10684724Y-16156429D01*
X10684724Y-16156429D02*
X10675200Y-16194524D01*
X10675200Y-16194524D02*
X10665676Y-16213572D01*
X10665676Y-16213572D02*
X10656152Y-16223096D01*
X10656152Y-16223096D02*
X10637105Y-16232619D01*
X10637105Y-16232619D02*
X10618057Y-16232619D01*
X10618057Y-16232619D02*
X10599009Y-16223096D01*
X10599009Y-16223096D02*
X10589485Y-16213572D01*
X10589485Y-16213572D02*
X10579962Y-16194524D01*
X10579962Y-16194524D02*
X10570438Y-16156429D01*
X10570438Y-16156429D02*
X10570438Y-16108810D01*
X10570438Y-16108810D02*
X10579962Y-16070715D01*
X10579962Y-16070715D02*
X10589485Y-16051667D01*
X10589485Y-16051667D02*
X10599009Y-16042143D01*
X10599009Y-16042143D02*
X10618057Y-16032619D01*
X10808533Y-16032619D02*
X10827581Y-16032619D01*
X10827581Y-16032619D02*
X10846628Y-16042143D01*
X10846628Y-16042143D02*
X10856152Y-16051667D01*
X10856152Y-16051667D02*
X10865676Y-16070715D01*
X10865676Y-16070715D02*
X10875200Y-16108810D01*
X10875200Y-16108810D02*
X10875200Y-16156429D01*
X10875200Y-16156429D02*
X10865676Y-16194524D01*
X10865676Y-16194524D02*
X10856152Y-16213572D01*
X10856152Y-16213572D02*
X10846628Y-16223096D01*
X10846628Y-16223096D02*
X10827581Y-16232619D01*
X10827581Y-16232619D02*
X10808533Y-16232619D01*
X10808533Y-16232619D02*
X10789485Y-16223096D01*
X10789485Y-16223096D02*
X10779962Y-16213572D01*
X10779962Y-16213572D02*
X10770438Y-16194524D01*
X10770438Y-16194524D02*
X10760914Y-16156429D01*
X10760914Y-16156429D02*
X10760914Y-16108810D01*
X10760914Y-16108810D02*
X10770438Y-16070715D01*
X10770438Y-16070715D02*
X10779962Y-16051667D01*
X10779962Y-16051667D02*
X10789485Y-16042143D01*
X10789485Y-16042143D02*
X10808533Y-16032619D01*
X10960914Y-16232619D02*
X10960914Y-16099286D01*
X10960914Y-16118334D02*
X10970438Y-16108810D01*
X10970438Y-16108810D02*
X10989485Y-16099286D01*
X10989485Y-16099286D02*
X11018057Y-16099286D01*
X11018057Y-16099286D02*
X11037105Y-16108810D01*
X11037105Y-16108810D02*
X11046628Y-16127858D01*
X11046628Y-16127858D02*
X11046628Y-16232619D01*
X11046628Y-16127858D02*
X11056152Y-16108810D01*
X11056152Y-16108810D02*
X11075200Y-16099286D01*
X11075200Y-16099286D02*
X11103771Y-16099286D01*
X11103771Y-16099286D02*
X11122819Y-16108810D01*
X11122819Y-16108810D02*
X11132343Y-16127858D01*
X11132343Y-16127858D02*
X11132343Y-16232619D01*
X11227581Y-16232619D02*
X11227581Y-16099286D01*
X11227581Y-16118334D02*
X11237104Y-16108810D01*
X11237104Y-16108810D02*
X11256152Y-16099286D01*
X11256152Y-16099286D02*
X11284724Y-16099286D01*
X11284724Y-16099286D02*
X11303771Y-16108810D01*
X11303771Y-16108810D02*
X11313295Y-16127858D01*
X11313295Y-16127858D02*
X11313295Y-16232619D01*
X11313295Y-16127858D02*
X11322819Y-16108810D01*
X11322819Y-16108810D02*
X11341866Y-16099286D01*
X11341866Y-16099286D02*
X11370438Y-16099286D01*
X11370438Y-16099286D02*
X11389485Y-16108810D01*
X11389485Y-16108810D02*
X11399009Y-16127858D01*
X11399009Y-16127858D02*
X11399009Y-16232619D01*
X11789485Y-16023096D02*
X11618057Y-16280238D01*
X12046628Y-16032619D02*
X12065676Y-16032619D01*
X12065676Y-16032619D02*
X12084724Y-16042143D01*
X12084724Y-16042143D02*
X12094247Y-16051667D01*
X12094247Y-16051667D02*
X12103771Y-16070715D01*
X12103771Y-16070715D02*
X12113295Y-16108810D01*
X12113295Y-16108810D02*
X12113295Y-16156429D01*
X12113295Y-16156429D02*
X12103771Y-16194524D01*
X12103771Y-16194524D02*
X12094247Y-16213572D01*
X12094247Y-16213572D02*
X12084724Y-16223096D01*
X12084724Y-16223096D02*
X12065676Y-16232619D01*
X12065676Y-16232619D02*
X12046628Y-16232619D01*
X12046628Y-16232619D02*
X12027581Y-16223096D01*
X12027581Y-16223096D02*
X12018057Y-16213572D01*
X12018057Y-16213572D02*
X12008533Y-16194524D01*
X12008533Y-16194524D02*
X11999009Y-16156429D01*
X11999009Y-16156429D02*
X11999009Y-16108810D01*
X11999009Y-16108810D02*
X12008533Y-16070715D01*
X12008533Y-16070715D02*
X12018057Y-16051667D01*
X12018057Y-16051667D02*
X12027581Y-16042143D01*
X12027581Y-16042143D02*
X12046628Y-16032619D01*
X12199009Y-16213572D02*
X12208533Y-16223096D01*
X12208533Y-16223096D02*
X12199009Y-16232619D01*
X12199009Y-16232619D02*
X12189486Y-16223096D01*
X12189486Y-16223096D02*
X12199009Y-16213572D01*
X12199009Y-16213572D02*
X12199009Y-16232619D01*
X12332343Y-16032619D02*
X12351390Y-16032619D01*
X12351390Y-16032619D02*
X12370438Y-16042143D01*
X12370438Y-16042143D02*
X12379962Y-16051667D01*
X12379962Y-16051667D02*
X12389486Y-16070715D01*
X12389486Y-16070715D02*
X12399009Y-16108810D01*
X12399009Y-16108810D02*
X12399009Y-16156429D01*
X12399009Y-16156429D02*
X12389486Y-16194524D01*
X12389486Y-16194524D02*
X12379962Y-16213572D01*
X12379962Y-16213572D02*
X12370438Y-16223096D01*
X12370438Y-16223096D02*
X12351390Y-16232619D01*
X12351390Y-16232619D02*
X12332343Y-16232619D01*
X12332343Y-16232619D02*
X12313295Y-16223096D01*
X12313295Y-16223096D02*
X12303771Y-16213572D01*
X12303771Y-16213572D02*
X12294247Y-16194524D01*
X12294247Y-16194524D02*
X12284724Y-16156429D01*
X12284724Y-16156429D02*
X12284724Y-16108810D01*
X12284724Y-16108810D02*
X12294247Y-16070715D01*
X12294247Y-16070715D02*
X12303771Y-16051667D01*
X12303771Y-16051667D02*
X12313295Y-16042143D01*
X12313295Y-16042143D02*
X12332343Y-16032619D01*
X12589486Y-16232619D02*
X12475200Y-16232619D01*
X12532343Y-16232619D02*
X12532343Y-16032619D01*
X12532343Y-16032619D02*
X12513295Y-16061191D01*
X12513295Y-16061191D02*
X12494247Y-16080238D01*
X12494247Y-16080238D02*
X12475200Y-16089762D01*
X12779962Y-16232619D02*
X12665676Y-16232619D01*
X12722819Y-16232619D02*
X12722819Y-16032619D01*
X12722819Y-16032619D02*
X12703771Y-16061191D01*
X12703771Y-16061191D02*
X12684724Y-16080238D01*
X12684724Y-16080238D02*
X12665676Y-16089762D01*
X12894247Y-16118334D02*
X12875200Y-16108810D01*
X12875200Y-16108810D02*
X12865676Y-16099286D01*
X12865676Y-16099286D02*
X12856152Y-16080238D01*
X12856152Y-16080238D02*
X12856152Y-16070715D01*
X12856152Y-16070715D02*
X12865676Y-16051667D01*
X12865676Y-16051667D02*
X12875200Y-16042143D01*
X12875200Y-16042143D02*
X12894247Y-16032619D01*
X12894247Y-16032619D02*
X12932343Y-16032619D01*
X12932343Y-16032619D02*
X12951390Y-16042143D01*
X12951390Y-16042143D02*
X12960914Y-16051667D01*
X12960914Y-16051667D02*
X12970438Y-16070715D01*
X12970438Y-16070715D02*
X12970438Y-16080238D01*
X12970438Y-16080238D02*
X12960914Y-16099286D01*
X12960914Y-16099286D02*
X12951390Y-16108810D01*
X12951390Y-16108810D02*
X12932343Y-16118334D01*
X12932343Y-16118334D02*
X12894247Y-16118334D01*
X12894247Y-16118334D02*
X12875200Y-16127858D01*
X12875200Y-16127858D02*
X12865676Y-16137381D01*
X12865676Y-16137381D02*
X12856152Y-16156429D01*
X12856152Y-16156429D02*
X12856152Y-16194524D01*
X12856152Y-16194524D02*
X12865676Y-16213572D01*
X12865676Y-16213572D02*
X12875200Y-16223096D01*
X12875200Y-16223096D02*
X12894247Y-16232619D01*
X12894247Y-16232619D02*
X12932343Y-16232619D01*
X12932343Y-16232619D02*
X12951390Y-16223096D01*
X12951390Y-16223096D02*
X12960914Y-16213572D01*
X12960914Y-16213572D02*
X12970438Y-16194524D01*
X12970438Y-16194524D02*
X12970438Y-16156429D01*
X12970438Y-16156429D02*
X12960914Y-16137381D01*
X12960914Y-16137381D02*
X12951390Y-16127858D01*
X12951390Y-16127858D02*
X12932343Y-16118334D01*
X13046628Y-16032619D02*
X13046628Y-16070715D01*
X13122819Y-16032619D02*
X13122819Y-16070715D01*
X13418057Y-16308810D02*
X13408533Y-16299286D01*
X13408533Y-16299286D02*
X13389486Y-16270715D01*
X13389486Y-16270715D02*
X13379962Y-16251667D01*
X13379962Y-16251667D02*
X13370438Y-16223096D01*
X13370438Y-16223096D02*
X13360914Y-16175477D01*
X13360914Y-16175477D02*
X13360914Y-16137381D01*
X13360914Y-16137381D02*
X13370438Y-16089762D01*
X13370438Y-16089762D02*
X13379962Y-16061191D01*
X13379962Y-16061191D02*
X13389486Y-16042143D01*
X13389486Y-16042143D02*
X13408533Y-16013572D01*
X13408533Y-16013572D02*
X13418057Y-16004048D01*
X13579962Y-16099286D02*
X13579962Y-16232619D01*
X13532343Y-16023096D02*
X13484724Y-16165953D01*
X13484724Y-16165953D02*
X13608533Y-16165953D01*
X13694248Y-16232619D02*
X13732343Y-16232619D01*
X13732343Y-16232619D02*
X13751390Y-16223096D01*
X13751390Y-16223096D02*
X13760914Y-16213572D01*
X13760914Y-16213572D02*
X13779962Y-16185000D01*
X13779962Y-16185000D02*
X13789486Y-16146905D01*
X13789486Y-16146905D02*
X13789486Y-16070715D01*
X13789486Y-16070715D02*
X13779962Y-16051667D01*
X13779962Y-16051667D02*
X13770438Y-16042143D01*
X13770438Y-16042143D02*
X13751390Y-16032619D01*
X13751390Y-16032619D02*
X13713295Y-16032619D01*
X13713295Y-16032619D02*
X13694248Y-16042143D01*
X13694248Y-16042143D02*
X13684724Y-16051667D01*
X13684724Y-16051667D02*
X13675200Y-16070715D01*
X13675200Y-16070715D02*
X13675200Y-16118334D01*
X13675200Y-16118334D02*
X13684724Y-16137381D01*
X13684724Y-16137381D02*
X13694248Y-16146905D01*
X13694248Y-16146905D02*
X13713295Y-16156429D01*
X13713295Y-16156429D02*
X13751390Y-16156429D01*
X13751390Y-16156429D02*
X13770438Y-16146905D01*
X13770438Y-16146905D02*
X13779962Y-16137381D01*
X13779962Y-16137381D02*
X13789486Y-16118334D01*
X13979962Y-16232619D02*
X13865676Y-16232619D01*
X13922819Y-16232619D02*
X13922819Y-16032619D01*
X13922819Y-16032619D02*
X13903771Y-16061191D01*
X13903771Y-16061191D02*
X13884724Y-16080238D01*
X13884724Y-16080238D02*
X13865676Y-16089762D01*
X14218057Y-16232619D02*
X14218057Y-16032619D01*
X14303771Y-16232619D02*
X14303771Y-16127858D01*
X14303771Y-16127858D02*
X14294248Y-16108810D01*
X14294248Y-16108810D02*
X14275200Y-16099286D01*
X14275200Y-16099286D02*
X14246629Y-16099286D01*
X14246629Y-16099286D02*
X14227581Y-16108810D01*
X14227581Y-16108810D02*
X14218057Y-16118334D01*
X14427581Y-16232619D02*
X14408533Y-16223096D01*
X14408533Y-16223096D02*
X14399010Y-16213572D01*
X14399010Y-16213572D02*
X14389486Y-16194524D01*
X14389486Y-16194524D02*
X14389486Y-16137381D01*
X14389486Y-16137381D02*
X14399010Y-16118334D01*
X14399010Y-16118334D02*
X14408533Y-16108810D01*
X14408533Y-16108810D02*
X14427581Y-16099286D01*
X14427581Y-16099286D02*
X14456152Y-16099286D01*
X14456152Y-16099286D02*
X14475200Y-16108810D01*
X14475200Y-16108810D02*
X14484724Y-16118334D01*
X14484724Y-16118334D02*
X14494248Y-16137381D01*
X14494248Y-16137381D02*
X14494248Y-16194524D01*
X14494248Y-16194524D02*
X14484724Y-16213572D01*
X14484724Y-16213572D02*
X14475200Y-16223096D01*
X14475200Y-16223096D02*
X14456152Y-16232619D01*
X14456152Y-16232619D02*
X14427581Y-16232619D01*
X14608533Y-16232619D02*
X14589486Y-16223096D01*
X14589486Y-16223096D02*
X14579962Y-16204048D01*
X14579962Y-16204048D02*
X14579962Y-16032619D01*
X14760914Y-16223096D02*
X14741867Y-16232619D01*
X14741867Y-16232619D02*
X14703771Y-16232619D01*
X14703771Y-16232619D02*
X14684724Y-16223096D01*
X14684724Y-16223096D02*
X14675200Y-16204048D01*
X14675200Y-16204048D02*
X14675200Y-16127858D01*
X14675200Y-16127858D02*
X14684724Y-16108810D01*
X14684724Y-16108810D02*
X14703771Y-16099286D01*
X14703771Y-16099286D02*
X14741867Y-16099286D01*
X14741867Y-16099286D02*
X14760914Y-16108810D01*
X14760914Y-16108810D02*
X14770438Y-16127858D01*
X14770438Y-16127858D02*
X14770438Y-16146905D01*
X14770438Y-16146905D02*
X14675200Y-16165953D01*
X14846629Y-16223096D02*
X14865676Y-16232619D01*
X14865676Y-16232619D02*
X14903771Y-16232619D01*
X14903771Y-16232619D02*
X14922819Y-16223096D01*
X14922819Y-16223096D02*
X14932343Y-16204048D01*
X14932343Y-16204048D02*
X14932343Y-16194524D01*
X14932343Y-16194524D02*
X14922819Y-16175477D01*
X14922819Y-16175477D02*
X14903771Y-16165953D01*
X14903771Y-16165953D02*
X14875200Y-16165953D01*
X14875200Y-16165953D02*
X14856152Y-16156429D01*
X14856152Y-16156429D02*
X14846629Y-16137381D01*
X14846629Y-16137381D02*
X14846629Y-16127858D01*
X14846629Y-16127858D02*
X14856152Y-16108810D01*
X14856152Y-16108810D02*
X14875200Y-16099286D01*
X14875200Y-16099286D02*
X14903771Y-16099286D01*
X14903771Y-16099286D02*
X14922819Y-16108810D01*
X14999010Y-16308810D02*
X15008533Y-16299286D01*
X15008533Y-16299286D02*
X15027581Y-16270715D01*
X15027581Y-16270715D02*
X15037105Y-16251667D01*
X15037105Y-16251667D02*
X15046629Y-16223096D01*
X15046629Y-16223096D02*
X15056152Y-16175477D01*
X15056152Y-16175477D02*
X15056152Y-16137381D01*
X15056152Y-16137381D02*
X15046629Y-16089762D01*
X15046629Y-16089762D02*
X15037105Y-16061191D01*
X15037105Y-16061191D02*
X15027581Y-16042143D01*
X15027581Y-16042143D02*
X15008533Y-16013572D01*
X15008533Y-16013572D02*
X14999010Y-16004048D01*
D12*
X9842994Y-16405136D02*
G75*
G02*
X9771874Y-16405136I-35560J0D01*
G01*
X9771874Y-16405136D02*
G75*
G02*
X9842994Y-16405136I35560J0D01*
G01*
D11*
X10141866Y-16296619D02*
X10160914Y-16296619D01*
X10160914Y-16296619D02*
X10179962Y-16306143D01*
X10179962Y-16306143D02*
X10189485Y-16315667D01*
X10189485Y-16315667D02*
X10199009Y-16334715D01*
X10199009Y-16334715D02*
X10208533Y-16372810D01*
X10208533Y-16372810D02*
X10208533Y-16420429D01*
X10208533Y-16420429D02*
X10199009Y-16458524D01*
X10199009Y-16458524D02*
X10189485Y-16477572D01*
X10189485Y-16477572D02*
X10179962Y-16487096D01*
X10179962Y-16487096D02*
X10160914Y-16496619D01*
X10160914Y-16496619D02*
X10141866Y-16496619D01*
X10141866Y-16496619D02*
X10122819Y-16487096D01*
X10122819Y-16487096D02*
X10113295Y-16477572D01*
X10113295Y-16477572D02*
X10103771Y-16458524D01*
X10103771Y-16458524D02*
X10094247Y-16420429D01*
X10094247Y-16420429D02*
X10094247Y-16372810D01*
X10094247Y-16372810D02*
X10103771Y-16334715D01*
X10103771Y-16334715D02*
X10113295Y-16315667D01*
X10113295Y-16315667D02*
X10122819Y-16306143D01*
X10122819Y-16306143D02*
X10141866Y-16296619D01*
X10294247Y-16477572D02*
X10303771Y-16487096D01*
X10303771Y-16487096D02*
X10294247Y-16496619D01*
X10294247Y-16496619D02*
X10284724Y-16487096D01*
X10284724Y-16487096D02*
X10294247Y-16477572D01*
X10294247Y-16477572D02*
X10294247Y-16496619D01*
X10370438Y-16296619D02*
X10503771Y-16296619D01*
X10503771Y-16296619D02*
X10418057Y-16496619D01*
X10684724Y-16496619D02*
X10570438Y-16496619D01*
X10627581Y-16496619D02*
X10627581Y-16296619D01*
X10627581Y-16296619D02*
X10608533Y-16325191D01*
X10608533Y-16325191D02*
X10589485Y-16344238D01*
X10589485Y-16344238D02*
X10570438Y-16353762D01*
X10875200Y-16496619D02*
X10760914Y-16496619D01*
X10818057Y-16496619D02*
X10818057Y-16296619D01*
X10818057Y-16296619D02*
X10799009Y-16325191D01*
X10799009Y-16325191D02*
X10779962Y-16344238D01*
X10779962Y-16344238D02*
X10760914Y-16353762D01*
X10960914Y-16496619D02*
X10960914Y-16363286D01*
X10960914Y-16382334D02*
X10970438Y-16372810D01*
X10970438Y-16372810D02*
X10989485Y-16363286D01*
X10989485Y-16363286D02*
X11018057Y-16363286D01*
X11018057Y-16363286D02*
X11037105Y-16372810D01*
X11037105Y-16372810D02*
X11046628Y-16391858D01*
X11046628Y-16391858D02*
X11046628Y-16496619D01*
X11046628Y-16391858D02*
X11056152Y-16372810D01*
X11056152Y-16372810D02*
X11075200Y-16363286D01*
X11075200Y-16363286D02*
X11103771Y-16363286D01*
X11103771Y-16363286D02*
X11122819Y-16372810D01*
X11122819Y-16372810D02*
X11132343Y-16391858D01*
X11132343Y-16391858D02*
X11132343Y-16496619D01*
X11227581Y-16496619D02*
X11227581Y-16363286D01*
X11227581Y-16382334D02*
X11237104Y-16372810D01*
X11237104Y-16372810D02*
X11256152Y-16363286D01*
X11256152Y-16363286D02*
X11284724Y-16363286D01*
X11284724Y-16363286D02*
X11303771Y-16372810D01*
X11303771Y-16372810D02*
X11313295Y-16391858D01*
X11313295Y-16391858D02*
X11313295Y-16496619D01*
X11313295Y-16391858D02*
X11322819Y-16372810D01*
X11322819Y-16372810D02*
X11341866Y-16363286D01*
X11341866Y-16363286D02*
X11370438Y-16363286D01*
X11370438Y-16363286D02*
X11389485Y-16372810D01*
X11389485Y-16372810D02*
X11399009Y-16391858D01*
X11399009Y-16391858D02*
X11399009Y-16496619D01*
X11789485Y-16287096D02*
X11618057Y-16544238D01*
X12046628Y-16296619D02*
X12065676Y-16296619D01*
X12065676Y-16296619D02*
X12084724Y-16306143D01*
X12084724Y-16306143D02*
X12094247Y-16315667D01*
X12094247Y-16315667D02*
X12103771Y-16334715D01*
X12103771Y-16334715D02*
X12113295Y-16372810D01*
X12113295Y-16372810D02*
X12113295Y-16420429D01*
X12113295Y-16420429D02*
X12103771Y-16458524D01*
X12103771Y-16458524D02*
X12094247Y-16477572D01*
X12094247Y-16477572D02*
X12084724Y-16487096D01*
X12084724Y-16487096D02*
X12065676Y-16496619D01*
X12065676Y-16496619D02*
X12046628Y-16496619D01*
X12046628Y-16496619D02*
X12027581Y-16487096D01*
X12027581Y-16487096D02*
X12018057Y-16477572D01*
X12018057Y-16477572D02*
X12008533Y-16458524D01*
X12008533Y-16458524D02*
X11999009Y-16420429D01*
X11999009Y-16420429D02*
X11999009Y-16372810D01*
X11999009Y-16372810D02*
X12008533Y-16334715D01*
X12008533Y-16334715D02*
X12018057Y-16315667D01*
X12018057Y-16315667D02*
X12027581Y-16306143D01*
X12027581Y-16306143D02*
X12046628Y-16296619D01*
X12199009Y-16477572D02*
X12208533Y-16487096D01*
X12208533Y-16487096D02*
X12199009Y-16496619D01*
X12199009Y-16496619D02*
X12189486Y-16487096D01*
X12189486Y-16487096D02*
X12199009Y-16477572D01*
X12199009Y-16477572D02*
X12199009Y-16496619D01*
X12332343Y-16296619D02*
X12351390Y-16296619D01*
X12351390Y-16296619D02*
X12370438Y-16306143D01*
X12370438Y-16306143D02*
X12379962Y-16315667D01*
X12379962Y-16315667D02*
X12389486Y-16334715D01*
X12389486Y-16334715D02*
X12399009Y-16372810D01*
X12399009Y-16372810D02*
X12399009Y-16420429D01*
X12399009Y-16420429D02*
X12389486Y-16458524D01*
X12389486Y-16458524D02*
X12379962Y-16477572D01*
X12379962Y-16477572D02*
X12370438Y-16487096D01*
X12370438Y-16487096D02*
X12351390Y-16496619D01*
X12351390Y-16496619D02*
X12332343Y-16496619D01*
X12332343Y-16496619D02*
X12313295Y-16487096D01*
X12313295Y-16487096D02*
X12303771Y-16477572D01*
X12303771Y-16477572D02*
X12294247Y-16458524D01*
X12294247Y-16458524D02*
X12284724Y-16420429D01*
X12284724Y-16420429D02*
X12284724Y-16372810D01*
X12284724Y-16372810D02*
X12294247Y-16334715D01*
X12294247Y-16334715D02*
X12303771Y-16315667D01*
X12303771Y-16315667D02*
X12313295Y-16306143D01*
X12313295Y-16306143D02*
X12332343Y-16296619D01*
X12475200Y-16315667D02*
X12484724Y-16306143D01*
X12484724Y-16306143D02*
X12503771Y-16296619D01*
X12503771Y-16296619D02*
X12551390Y-16296619D01*
X12551390Y-16296619D02*
X12570438Y-16306143D01*
X12570438Y-16306143D02*
X12579962Y-16315667D01*
X12579962Y-16315667D02*
X12589486Y-16334715D01*
X12589486Y-16334715D02*
X12589486Y-16353762D01*
X12589486Y-16353762D02*
X12579962Y-16382334D01*
X12579962Y-16382334D02*
X12465676Y-16496619D01*
X12465676Y-16496619D02*
X12589486Y-16496619D01*
X12703771Y-16382334D02*
X12684724Y-16372810D01*
X12684724Y-16372810D02*
X12675200Y-16363286D01*
X12675200Y-16363286D02*
X12665676Y-16344238D01*
X12665676Y-16344238D02*
X12665676Y-16334715D01*
X12665676Y-16334715D02*
X12675200Y-16315667D01*
X12675200Y-16315667D02*
X12684724Y-16306143D01*
X12684724Y-16306143D02*
X12703771Y-16296619D01*
X12703771Y-16296619D02*
X12741867Y-16296619D01*
X12741867Y-16296619D02*
X12760914Y-16306143D01*
X12760914Y-16306143D02*
X12770438Y-16315667D01*
X12770438Y-16315667D02*
X12779962Y-16334715D01*
X12779962Y-16334715D02*
X12779962Y-16344238D01*
X12779962Y-16344238D02*
X12770438Y-16363286D01*
X12770438Y-16363286D02*
X12760914Y-16372810D01*
X12760914Y-16372810D02*
X12741867Y-16382334D01*
X12741867Y-16382334D02*
X12703771Y-16382334D01*
X12703771Y-16382334D02*
X12684724Y-16391858D01*
X12684724Y-16391858D02*
X12675200Y-16401381D01*
X12675200Y-16401381D02*
X12665676Y-16420429D01*
X12665676Y-16420429D02*
X12665676Y-16458524D01*
X12665676Y-16458524D02*
X12675200Y-16477572D01*
X12675200Y-16477572D02*
X12684724Y-16487096D01*
X12684724Y-16487096D02*
X12703771Y-16496619D01*
X12703771Y-16496619D02*
X12741867Y-16496619D01*
X12741867Y-16496619D02*
X12760914Y-16487096D01*
X12760914Y-16487096D02*
X12770438Y-16477572D01*
X12770438Y-16477572D02*
X12779962Y-16458524D01*
X12779962Y-16458524D02*
X12779962Y-16420429D01*
X12779962Y-16420429D02*
X12770438Y-16401381D01*
X12770438Y-16401381D02*
X12760914Y-16391858D01*
X12760914Y-16391858D02*
X12741867Y-16382334D01*
X12903771Y-16296619D02*
X12922819Y-16296619D01*
X12922819Y-16296619D02*
X12941867Y-16306143D01*
X12941867Y-16306143D02*
X12951390Y-16315667D01*
X12951390Y-16315667D02*
X12960914Y-16334715D01*
X12960914Y-16334715D02*
X12970438Y-16372810D01*
X12970438Y-16372810D02*
X12970438Y-16420429D01*
X12970438Y-16420429D02*
X12960914Y-16458524D01*
X12960914Y-16458524D02*
X12951390Y-16477572D01*
X12951390Y-16477572D02*
X12941867Y-16487096D01*
X12941867Y-16487096D02*
X12922819Y-16496619D01*
X12922819Y-16496619D02*
X12903771Y-16496619D01*
X12903771Y-16496619D02*
X12884724Y-16487096D01*
X12884724Y-16487096D02*
X12875200Y-16477572D01*
X12875200Y-16477572D02*
X12865676Y-16458524D01*
X12865676Y-16458524D02*
X12856152Y-16420429D01*
X12856152Y-16420429D02*
X12856152Y-16372810D01*
X12856152Y-16372810D02*
X12865676Y-16334715D01*
X12865676Y-16334715D02*
X12875200Y-16315667D01*
X12875200Y-16315667D02*
X12884724Y-16306143D01*
X12884724Y-16306143D02*
X12903771Y-16296619D01*
X13046628Y-16296619D02*
X13046628Y-16334715D01*
X13122819Y-16296619D02*
X13122819Y-16334715D01*
X13418057Y-16572810D02*
X13408533Y-16563286D01*
X13408533Y-16563286D02*
X13389486Y-16534715D01*
X13389486Y-16534715D02*
X13379962Y-16515667D01*
X13379962Y-16515667D02*
X13370438Y-16487096D01*
X13370438Y-16487096D02*
X13360914Y-16439477D01*
X13360914Y-16439477D02*
X13360914Y-16401381D01*
X13360914Y-16401381D02*
X13370438Y-16353762D01*
X13370438Y-16353762D02*
X13379962Y-16325191D01*
X13379962Y-16325191D02*
X13389486Y-16306143D01*
X13389486Y-16306143D02*
X13408533Y-16277572D01*
X13408533Y-16277572D02*
X13418057Y-16268048D01*
X13579962Y-16363286D02*
X13579962Y-16496619D01*
X13532343Y-16287096D02*
X13484724Y-16429953D01*
X13484724Y-16429953D02*
X13608533Y-16429953D01*
X13837105Y-16496619D02*
X13837105Y-16296619D01*
X13922819Y-16496619D02*
X13922819Y-16391858D01*
X13922819Y-16391858D02*
X13913295Y-16372810D01*
X13913295Y-16372810D02*
X13894248Y-16363286D01*
X13894248Y-16363286D02*
X13865676Y-16363286D01*
X13865676Y-16363286D02*
X13846629Y-16372810D01*
X13846629Y-16372810D02*
X13837105Y-16382334D01*
X14046629Y-16496619D02*
X14027581Y-16487096D01*
X14027581Y-16487096D02*
X14018057Y-16477572D01*
X14018057Y-16477572D02*
X14008533Y-16458524D01*
X14008533Y-16458524D02*
X14008533Y-16401381D01*
X14008533Y-16401381D02*
X14018057Y-16382334D01*
X14018057Y-16382334D02*
X14027581Y-16372810D01*
X14027581Y-16372810D02*
X14046629Y-16363286D01*
X14046629Y-16363286D02*
X14075200Y-16363286D01*
X14075200Y-16363286D02*
X14094248Y-16372810D01*
X14094248Y-16372810D02*
X14103771Y-16382334D01*
X14103771Y-16382334D02*
X14113295Y-16401381D01*
X14113295Y-16401381D02*
X14113295Y-16458524D01*
X14113295Y-16458524D02*
X14103771Y-16477572D01*
X14103771Y-16477572D02*
X14094248Y-16487096D01*
X14094248Y-16487096D02*
X14075200Y-16496619D01*
X14075200Y-16496619D02*
X14046629Y-16496619D01*
X14227581Y-16496619D02*
X14208533Y-16487096D01*
X14208533Y-16487096D02*
X14199010Y-16468048D01*
X14199010Y-16468048D02*
X14199010Y-16296619D01*
X14379962Y-16487096D02*
X14360914Y-16496619D01*
X14360914Y-16496619D02*
X14322819Y-16496619D01*
X14322819Y-16496619D02*
X14303771Y-16487096D01*
X14303771Y-16487096D02*
X14294248Y-16468048D01*
X14294248Y-16468048D02*
X14294248Y-16391858D01*
X14294248Y-16391858D02*
X14303771Y-16372810D01*
X14303771Y-16372810D02*
X14322819Y-16363286D01*
X14322819Y-16363286D02*
X14360914Y-16363286D01*
X14360914Y-16363286D02*
X14379962Y-16372810D01*
X14379962Y-16372810D02*
X14389486Y-16391858D01*
X14389486Y-16391858D02*
X14389486Y-16410905D01*
X14389486Y-16410905D02*
X14294248Y-16429953D01*
X14465676Y-16487096D02*
X14484724Y-16496619D01*
X14484724Y-16496619D02*
X14522819Y-16496619D01*
X14522819Y-16496619D02*
X14541867Y-16487096D01*
X14541867Y-16487096D02*
X14551391Y-16468048D01*
X14551391Y-16468048D02*
X14551391Y-16458524D01*
X14551391Y-16458524D02*
X14541867Y-16439477D01*
X14541867Y-16439477D02*
X14522819Y-16429953D01*
X14522819Y-16429953D02*
X14494248Y-16429953D01*
X14494248Y-16429953D02*
X14475200Y-16420429D01*
X14475200Y-16420429D02*
X14465676Y-16401381D01*
X14465676Y-16401381D02*
X14465676Y-16391858D01*
X14465676Y-16391858D02*
X14475200Y-16372810D01*
X14475200Y-16372810D02*
X14494248Y-16363286D01*
X14494248Y-16363286D02*
X14522819Y-16363286D01*
X14522819Y-16363286D02*
X14541867Y-16372810D01*
X14618057Y-16572810D02*
X14627581Y-16563286D01*
X14627581Y-16563286D02*
X14646629Y-16534715D01*
X14646629Y-16534715D02*
X14656152Y-16515667D01*
X14656152Y-16515667D02*
X14665676Y-16487096D01*
X14665676Y-16487096D02*
X14675200Y-16439477D01*
X14675200Y-16439477D02*
X14675200Y-16401381D01*
X14675200Y-16401381D02*
X14665676Y-16353762D01*
X14665676Y-16353762D02*
X14656152Y-16325191D01*
X14656152Y-16325191D02*
X14646629Y-16306143D01*
X14646629Y-16306143D02*
X14627581Y-16277572D01*
X14627581Y-16277572D02*
X14618057Y-16268048D01*
D12*
X9799814Y-16625956D02*
X9799814Y-16712316D01*
X9756634Y-16669136D02*
X9842994Y-16669136D01*
D11*
X10141866Y-16560619D02*
X10160914Y-16560619D01*
X10160914Y-16560619D02*
X10179962Y-16570143D01*
X10179962Y-16570143D02*
X10189485Y-16579667D01*
X10189485Y-16579667D02*
X10199009Y-16598715D01*
X10199009Y-16598715D02*
X10208533Y-16636810D01*
X10208533Y-16636810D02*
X10208533Y-16684429D01*
X10208533Y-16684429D02*
X10199009Y-16722524D01*
X10199009Y-16722524D02*
X10189485Y-16741572D01*
X10189485Y-16741572D02*
X10179962Y-16751096D01*
X10179962Y-16751096D02*
X10160914Y-16760619D01*
X10160914Y-16760619D02*
X10141866Y-16760619D01*
X10141866Y-16760619D02*
X10122819Y-16751096D01*
X10122819Y-16751096D02*
X10113295Y-16741572D01*
X10113295Y-16741572D02*
X10103771Y-16722524D01*
X10103771Y-16722524D02*
X10094247Y-16684429D01*
X10094247Y-16684429D02*
X10094247Y-16636810D01*
X10094247Y-16636810D02*
X10103771Y-16598715D01*
X10103771Y-16598715D02*
X10113295Y-16579667D01*
X10113295Y-16579667D02*
X10122819Y-16570143D01*
X10122819Y-16570143D02*
X10141866Y-16560619D01*
X10294247Y-16741572D02*
X10303771Y-16751096D01*
X10303771Y-16751096D02*
X10294247Y-16760619D01*
X10294247Y-16760619D02*
X10284724Y-16751096D01*
X10284724Y-16751096D02*
X10294247Y-16741572D01*
X10294247Y-16741572D02*
X10294247Y-16760619D01*
X10418057Y-16646334D02*
X10399009Y-16636810D01*
X10399009Y-16636810D02*
X10389485Y-16627286D01*
X10389485Y-16627286D02*
X10379962Y-16608238D01*
X10379962Y-16608238D02*
X10379962Y-16598715D01*
X10379962Y-16598715D02*
X10389485Y-16579667D01*
X10389485Y-16579667D02*
X10399009Y-16570143D01*
X10399009Y-16570143D02*
X10418057Y-16560619D01*
X10418057Y-16560619D02*
X10456152Y-16560619D01*
X10456152Y-16560619D02*
X10475200Y-16570143D01*
X10475200Y-16570143D02*
X10484724Y-16579667D01*
X10484724Y-16579667D02*
X10494247Y-16598715D01*
X10494247Y-16598715D02*
X10494247Y-16608238D01*
X10494247Y-16608238D02*
X10484724Y-16627286D01*
X10484724Y-16627286D02*
X10475200Y-16636810D01*
X10475200Y-16636810D02*
X10456152Y-16646334D01*
X10456152Y-16646334D02*
X10418057Y-16646334D01*
X10418057Y-16646334D02*
X10399009Y-16655858D01*
X10399009Y-16655858D02*
X10389485Y-16665381D01*
X10389485Y-16665381D02*
X10379962Y-16684429D01*
X10379962Y-16684429D02*
X10379962Y-16722524D01*
X10379962Y-16722524D02*
X10389485Y-16741572D01*
X10389485Y-16741572D02*
X10399009Y-16751096D01*
X10399009Y-16751096D02*
X10418057Y-16760619D01*
X10418057Y-16760619D02*
X10456152Y-16760619D01*
X10456152Y-16760619D02*
X10475200Y-16751096D01*
X10475200Y-16751096D02*
X10484724Y-16741572D01*
X10484724Y-16741572D02*
X10494247Y-16722524D01*
X10494247Y-16722524D02*
X10494247Y-16684429D01*
X10494247Y-16684429D02*
X10484724Y-16665381D01*
X10484724Y-16665381D02*
X10475200Y-16655858D01*
X10475200Y-16655858D02*
X10456152Y-16646334D01*
X10665676Y-16560619D02*
X10627581Y-16560619D01*
X10627581Y-16560619D02*
X10608533Y-16570143D01*
X10608533Y-16570143D02*
X10599009Y-16579667D01*
X10599009Y-16579667D02*
X10579962Y-16608238D01*
X10579962Y-16608238D02*
X10570438Y-16646334D01*
X10570438Y-16646334D02*
X10570438Y-16722524D01*
X10570438Y-16722524D02*
X10579962Y-16741572D01*
X10579962Y-16741572D02*
X10589485Y-16751096D01*
X10589485Y-16751096D02*
X10608533Y-16760619D01*
X10608533Y-16760619D02*
X10646628Y-16760619D01*
X10646628Y-16760619D02*
X10665676Y-16751096D01*
X10665676Y-16751096D02*
X10675200Y-16741572D01*
X10675200Y-16741572D02*
X10684724Y-16722524D01*
X10684724Y-16722524D02*
X10684724Y-16674905D01*
X10684724Y-16674905D02*
X10675200Y-16655858D01*
X10675200Y-16655858D02*
X10665676Y-16646334D01*
X10665676Y-16646334D02*
X10646628Y-16636810D01*
X10646628Y-16636810D02*
X10608533Y-16636810D01*
X10608533Y-16636810D02*
X10589485Y-16646334D01*
X10589485Y-16646334D02*
X10579962Y-16655858D01*
X10579962Y-16655858D02*
X10570438Y-16674905D01*
X10856152Y-16627286D02*
X10856152Y-16760619D01*
X10808533Y-16551096D02*
X10760914Y-16693953D01*
X10760914Y-16693953D02*
X10884724Y-16693953D01*
X10960914Y-16760619D02*
X10960914Y-16627286D01*
X10960914Y-16646334D02*
X10970438Y-16636810D01*
X10970438Y-16636810D02*
X10989485Y-16627286D01*
X10989485Y-16627286D02*
X11018057Y-16627286D01*
X11018057Y-16627286D02*
X11037105Y-16636810D01*
X11037105Y-16636810D02*
X11046628Y-16655858D01*
X11046628Y-16655858D02*
X11046628Y-16760619D01*
X11046628Y-16655858D02*
X11056152Y-16636810D01*
X11056152Y-16636810D02*
X11075200Y-16627286D01*
X11075200Y-16627286D02*
X11103771Y-16627286D01*
X11103771Y-16627286D02*
X11122819Y-16636810D01*
X11122819Y-16636810D02*
X11132343Y-16655858D01*
X11132343Y-16655858D02*
X11132343Y-16760619D01*
X11227581Y-16760619D02*
X11227581Y-16627286D01*
X11227581Y-16646334D02*
X11237104Y-16636810D01*
X11237104Y-16636810D02*
X11256152Y-16627286D01*
X11256152Y-16627286D02*
X11284724Y-16627286D01*
X11284724Y-16627286D02*
X11303771Y-16636810D01*
X11303771Y-16636810D02*
X11313295Y-16655858D01*
X11313295Y-16655858D02*
X11313295Y-16760619D01*
X11313295Y-16655858D02*
X11322819Y-16636810D01*
X11322819Y-16636810D02*
X11341866Y-16627286D01*
X11341866Y-16627286D02*
X11370438Y-16627286D01*
X11370438Y-16627286D02*
X11389485Y-16636810D01*
X11389485Y-16636810D02*
X11399009Y-16655858D01*
X11399009Y-16655858D02*
X11399009Y-16760619D01*
X11789485Y-16551096D02*
X11618057Y-16808239D01*
X12046628Y-16560619D02*
X12065676Y-16560619D01*
X12065676Y-16560619D02*
X12084724Y-16570143D01*
X12084724Y-16570143D02*
X12094247Y-16579667D01*
X12094247Y-16579667D02*
X12103771Y-16598715D01*
X12103771Y-16598715D02*
X12113295Y-16636810D01*
X12113295Y-16636810D02*
X12113295Y-16684429D01*
X12113295Y-16684429D02*
X12103771Y-16722524D01*
X12103771Y-16722524D02*
X12094247Y-16741572D01*
X12094247Y-16741572D02*
X12084724Y-16751096D01*
X12084724Y-16751096D02*
X12065676Y-16760619D01*
X12065676Y-16760619D02*
X12046628Y-16760619D01*
X12046628Y-16760619D02*
X12027581Y-16751096D01*
X12027581Y-16751096D02*
X12018057Y-16741572D01*
X12018057Y-16741572D02*
X12008533Y-16722524D01*
X12008533Y-16722524D02*
X11999009Y-16684429D01*
X11999009Y-16684429D02*
X11999009Y-16636810D01*
X11999009Y-16636810D02*
X12008533Y-16598715D01*
X12008533Y-16598715D02*
X12018057Y-16579667D01*
X12018057Y-16579667D02*
X12027581Y-16570143D01*
X12027581Y-16570143D02*
X12046628Y-16560619D01*
X12199009Y-16741572D02*
X12208533Y-16751096D01*
X12208533Y-16751096D02*
X12199009Y-16760619D01*
X12199009Y-16760619D02*
X12189486Y-16751096D01*
X12189486Y-16751096D02*
X12199009Y-16741572D01*
X12199009Y-16741572D02*
X12199009Y-16760619D01*
X12332343Y-16560619D02*
X12351390Y-16560619D01*
X12351390Y-16560619D02*
X12370438Y-16570143D01*
X12370438Y-16570143D02*
X12379962Y-16579667D01*
X12379962Y-16579667D02*
X12389486Y-16598715D01*
X12389486Y-16598715D02*
X12399009Y-16636810D01*
X12399009Y-16636810D02*
X12399009Y-16684429D01*
X12399009Y-16684429D02*
X12389486Y-16722524D01*
X12389486Y-16722524D02*
X12379962Y-16741572D01*
X12379962Y-16741572D02*
X12370438Y-16751096D01*
X12370438Y-16751096D02*
X12351390Y-16760619D01*
X12351390Y-16760619D02*
X12332343Y-16760619D01*
X12332343Y-16760619D02*
X12313295Y-16751096D01*
X12313295Y-16751096D02*
X12303771Y-16741572D01*
X12303771Y-16741572D02*
X12294247Y-16722524D01*
X12294247Y-16722524D02*
X12284724Y-16684429D01*
X12284724Y-16684429D02*
X12284724Y-16636810D01*
X12284724Y-16636810D02*
X12294247Y-16598715D01*
X12294247Y-16598715D02*
X12303771Y-16579667D01*
X12303771Y-16579667D02*
X12313295Y-16570143D01*
X12313295Y-16570143D02*
X12332343Y-16560619D01*
X12465676Y-16560619D02*
X12589486Y-16560619D01*
X12589486Y-16560619D02*
X12522819Y-16636810D01*
X12522819Y-16636810D02*
X12551390Y-16636810D01*
X12551390Y-16636810D02*
X12570438Y-16646334D01*
X12570438Y-16646334D02*
X12579962Y-16655858D01*
X12579962Y-16655858D02*
X12589486Y-16674905D01*
X12589486Y-16674905D02*
X12589486Y-16722524D01*
X12589486Y-16722524D02*
X12579962Y-16741572D01*
X12579962Y-16741572D02*
X12570438Y-16751096D01*
X12570438Y-16751096D02*
X12551390Y-16760619D01*
X12551390Y-16760619D02*
X12494247Y-16760619D01*
X12494247Y-16760619D02*
X12475200Y-16751096D01*
X12475200Y-16751096D02*
X12465676Y-16741572D01*
X12760914Y-16627286D02*
X12760914Y-16760619D01*
X12713295Y-16551096D02*
X12665676Y-16693953D01*
X12665676Y-16693953D02*
X12789486Y-16693953D01*
X12903771Y-16560619D02*
X12922819Y-16560619D01*
X12922819Y-16560619D02*
X12941867Y-16570143D01*
X12941867Y-16570143D02*
X12951390Y-16579667D01*
X12951390Y-16579667D02*
X12960914Y-16598715D01*
X12960914Y-16598715D02*
X12970438Y-16636810D01*
X12970438Y-16636810D02*
X12970438Y-16684429D01*
X12970438Y-16684429D02*
X12960914Y-16722524D01*
X12960914Y-16722524D02*
X12951390Y-16741572D01*
X12951390Y-16741572D02*
X12941867Y-16751096D01*
X12941867Y-16751096D02*
X12922819Y-16760619D01*
X12922819Y-16760619D02*
X12903771Y-16760619D01*
X12903771Y-16760619D02*
X12884724Y-16751096D01*
X12884724Y-16751096D02*
X12875200Y-16741572D01*
X12875200Y-16741572D02*
X12865676Y-16722524D01*
X12865676Y-16722524D02*
X12856152Y-16684429D01*
X12856152Y-16684429D02*
X12856152Y-16636810D01*
X12856152Y-16636810D02*
X12865676Y-16598715D01*
X12865676Y-16598715D02*
X12875200Y-16579667D01*
X12875200Y-16579667D02*
X12884724Y-16570143D01*
X12884724Y-16570143D02*
X12903771Y-16560619D01*
X13046628Y-16560619D02*
X13046628Y-16598715D01*
X13122819Y-16560619D02*
X13122819Y-16598715D01*
X13418057Y-16836810D02*
X13408533Y-16827286D01*
X13408533Y-16827286D02*
X13389486Y-16798715D01*
X13389486Y-16798715D02*
X13379962Y-16779667D01*
X13379962Y-16779667D02*
X13370438Y-16751096D01*
X13370438Y-16751096D02*
X13360914Y-16703477D01*
X13360914Y-16703477D02*
X13360914Y-16665381D01*
X13360914Y-16665381D02*
X13370438Y-16617762D01*
X13370438Y-16617762D02*
X13379962Y-16589191D01*
X13379962Y-16589191D02*
X13389486Y-16570143D01*
X13389486Y-16570143D02*
X13408533Y-16541572D01*
X13408533Y-16541572D02*
X13418057Y-16532048D01*
X13579962Y-16627286D02*
X13579962Y-16760619D01*
X13532343Y-16551096D02*
X13484724Y-16693953D01*
X13484724Y-16693953D02*
X13608533Y-16693953D01*
X13837105Y-16760619D02*
X13837105Y-16560619D01*
X13922819Y-16760619D02*
X13922819Y-16655858D01*
X13922819Y-16655858D02*
X13913295Y-16636810D01*
X13913295Y-16636810D02*
X13894248Y-16627286D01*
X13894248Y-16627286D02*
X13865676Y-16627286D01*
X13865676Y-16627286D02*
X13846629Y-16636810D01*
X13846629Y-16636810D02*
X13837105Y-16646334D01*
X14046629Y-16760619D02*
X14027581Y-16751096D01*
X14027581Y-16751096D02*
X14018057Y-16741572D01*
X14018057Y-16741572D02*
X14008533Y-16722524D01*
X14008533Y-16722524D02*
X14008533Y-16665381D01*
X14008533Y-16665381D02*
X14018057Y-16646334D01*
X14018057Y-16646334D02*
X14027581Y-16636810D01*
X14027581Y-16636810D02*
X14046629Y-16627286D01*
X14046629Y-16627286D02*
X14075200Y-16627286D01*
X14075200Y-16627286D02*
X14094248Y-16636810D01*
X14094248Y-16636810D02*
X14103771Y-16646334D01*
X14103771Y-16646334D02*
X14113295Y-16665381D01*
X14113295Y-16665381D02*
X14113295Y-16722524D01*
X14113295Y-16722524D02*
X14103771Y-16741572D01*
X14103771Y-16741572D02*
X14094248Y-16751096D01*
X14094248Y-16751096D02*
X14075200Y-16760619D01*
X14075200Y-16760619D02*
X14046629Y-16760619D01*
X14227581Y-16760619D02*
X14208533Y-16751096D01*
X14208533Y-16751096D02*
X14199010Y-16732048D01*
X14199010Y-16732048D02*
X14199010Y-16560619D01*
X14379962Y-16751096D02*
X14360914Y-16760619D01*
X14360914Y-16760619D02*
X14322819Y-16760619D01*
X14322819Y-16760619D02*
X14303771Y-16751096D01*
X14303771Y-16751096D02*
X14294248Y-16732048D01*
X14294248Y-16732048D02*
X14294248Y-16655858D01*
X14294248Y-16655858D02*
X14303771Y-16636810D01*
X14303771Y-16636810D02*
X14322819Y-16627286D01*
X14322819Y-16627286D02*
X14360914Y-16627286D01*
X14360914Y-16627286D02*
X14379962Y-16636810D01*
X14379962Y-16636810D02*
X14389486Y-16655858D01*
X14389486Y-16655858D02*
X14389486Y-16674905D01*
X14389486Y-16674905D02*
X14294248Y-16693953D01*
X14465676Y-16751096D02*
X14484724Y-16760619D01*
X14484724Y-16760619D02*
X14522819Y-16760619D01*
X14522819Y-16760619D02*
X14541867Y-16751096D01*
X14541867Y-16751096D02*
X14551391Y-16732048D01*
X14551391Y-16732048D02*
X14551391Y-16722524D01*
X14551391Y-16722524D02*
X14541867Y-16703477D01*
X14541867Y-16703477D02*
X14522819Y-16693953D01*
X14522819Y-16693953D02*
X14494248Y-16693953D01*
X14494248Y-16693953D02*
X14475200Y-16684429D01*
X14475200Y-16684429D02*
X14465676Y-16665381D01*
X14465676Y-16665381D02*
X14465676Y-16655858D01*
X14465676Y-16655858D02*
X14475200Y-16636810D01*
X14475200Y-16636810D02*
X14494248Y-16627286D01*
X14494248Y-16627286D02*
X14522819Y-16627286D01*
X14522819Y-16627286D02*
X14541867Y-16636810D01*
X14618057Y-16836810D02*
X14627581Y-16827286D01*
X14627581Y-16827286D02*
X14646629Y-16798715D01*
X14646629Y-16798715D02*
X14656152Y-16779667D01*
X14656152Y-16779667D02*
X14665676Y-16751096D01*
X14665676Y-16751096D02*
X14675200Y-16703477D01*
X14675200Y-16703477D02*
X14675200Y-16665381D01*
X14675200Y-16665381D02*
X14665676Y-16617762D01*
X14665676Y-16617762D02*
X14656152Y-16589191D01*
X14656152Y-16589191D02*
X14646629Y-16570143D01*
X14646629Y-16570143D02*
X14627581Y-16541572D01*
X14627581Y-16541572D02*
X14618057Y-16532048D01*
D12*
X9829604Y-16965465D02*
X9829604Y-16900807D01*
X9764945Y-16900807D01*
X9764945Y-16965465D01*
X9829604Y-16965465D01*
D11*
X10141866Y-16824620D02*
X10160914Y-16824620D01*
X10160914Y-16824620D02*
X10179962Y-16834143D01*
X10179962Y-16834143D02*
X10189485Y-16843667D01*
X10189485Y-16843667D02*
X10199009Y-16862715D01*
X10199009Y-16862715D02*
X10208533Y-16900810D01*
X10208533Y-16900810D02*
X10208533Y-16948429D01*
X10208533Y-16948429D02*
X10199009Y-16986524D01*
X10199009Y-16986524D02*
X10189485Y-17005572D01*
X10189485Y-17005572D02*
X10179962Y-17015096D01*
X10179962Y-17015096D02*
X10160914Y-17024620D01*
X10160914Y-17024620D02*
X10141866Y-17024620D01*
X10141866Y-17024620D02*
X10122819Y-17015096D01*
X10122819Y-17015096D02*
X10113295Y-17005572D01*
X10113295Y-17005572D02*
X10103771Y-16986524D01*
X10103771Y-16986524D02*
X10094247Y-16948429D01*
X10094247Y-16948429D02*
X10094247Y-16900810D01*
X10094247Y-16900810D02*
X10103771Y-16862715D01*
X10103771Y-16862715D02*
X10113295Y-16843667D01*
X10113295Y-16843667D02*
X10122819Y-16834143D01*
X10122819Y-16834143D02*
X10141866Y-16824620D01*
X10294247Y-17005572D02*
X10303771Y-17015096D01*
X10303771Y-17015096D02*
X10294247Y-17024620D01*
X10294247Y-17024620D02*
X10284724Y-17015096D01*
X10284724Y-17015096D02*
X10294247Y-17005572D01*
X10294247Y-17005572D02*
X10294247Y-17024620D01*
X10399009Y-17024620D02*
X10437104Y-17024620D01*
X10437104Y-17024620D02*
X10456152Y-17015096D01*
X10456152Y-17015096D02*
X10465676Y-17005572D01*
X10465676Y-17005572D02*
X10484724Y-16977000D01*
X10484724Y-16977000D02*
X10494247Y-16938905D01*
X10494247Y-16938905D02*
X10494247Y-16862715D01*
X10494247Y-16862715D02*
X10484724Y-16843667D01*
X10484724Y-16843667D02*
X10475200Y-16834143D01*
X10475200Y-16834143D02*
X10456152Y-16824620D01*
X10456152Y-16824620D02*
X10418057Y-16824620D01*
X10418057Y-16824620D02*
X10399009Y-16834143D01*
X10399009Y-16834143D02*
X10389485Y-16843667D01*
X10389485Y-16843667D02*
X10379962Y-16862715D01*
X10379962Y-16862715D02*
X10379962Y-16910334D01*
X10379962Y-16910334D02*
X10389485Y-16929381D01*
X10389485Y-16929381D02*
X10399009Y-16938905D01*
X10399009Y-16938905D02*
X10418057Y-16948429D01*
X10418057Y-16948429D02*
X10456152Y-16948429D01*
X10456152Y-16948429D02*
X10475200Y-16938905D01*
X10475200Y-16938905D02*
X10484724Y-16929381D01*
X10484724Y-16929381D02*
X10494247Y-16910334D01*
X10684724Y-17024620D02*
X10570438Y-17024620D01*
X10627581Y-17024620D02*
X10627581Y-16824620D01*
X10627581Y-16824620D02*
X10608533Y-16853191D01*
X10608533Y-16853191D02*
X10589485Y-16872239D01*
X10589485Y-16872239D02*
X10570438Y-16881762D01*
X10856152Y-16891286D02*
X10856152Y-17024620D01*
X10808533Y-16815096D02*
X10760914Y-16957953D01*
X10760914Y-16957953D02*
X10884724Y-16957953D01*
X10960914Y-17024620D02*
X10960914Y-16891286D01*
X10960914Y-16910334D02*
X10970438Y-16900810D01*
X10970438Y-16900810D02*
X10989485Y-16891286D01*
X10989485Y-16891286D02*
X11018057Y-16891286D01*
X11018057Y-16891286D02*
X11037105Y-16900810D01*
X11037105Y-16900810D02*
X11046628Y-16919858D01*
X11046628Y-16919858D02*
X11046628Y-17024620D01*
X11046628Y-16919858D02*
X11056152Y-16900810D01*
X11056152Y-16900810D02*
X11075200Y-16891286D01*
X11075200Y-16891286D02*
X11103771Y-16891286D01*
X11103771Y-16891286D02*
X11122819Y-16900810D01*
X11122819Y-16900810D02*
X11132343Y-16919858D01*
X11132343Y-16919858D02*
X11132343Y-17024620D01*
X11227581Y-17024620D02*
X11227581Y-16891286D01*
X11227581Y-16910334D02*
X11237104Y-16900810D01*
X11237104Y-16900810D02*
X11256152Y-16891286D01*
X11256152Y-16891286D02*
X11284724Y-16891286D01*
X11284724Y-16891286D02*
X11303771Y-16900810D01*
X11303771Y-16900810D02*
X11313295Y-16919858D01*
X11313295Y-16919858D02*
X11313295Y-17024620D01*
X11313295Y-16919858D02*
X11322819Y-16900810D01*
X11322819Y-16900810D02*
X11341866Y-16891286D01*
X11341866Y-16891286D02*
X11370438Y-16891286D01*
X11370438Y-16891286D02*
X11389485Y-16900810D01*
X11389485Y-16900810D02*
X11399009Y-16919858D01*
X11399009Y-16919858D02*
X11399009Y-17024620D01*
X11789485Y-16815096D02*
X11618057Y-17072239D01*
X12046628Y-16824620D02*
X12065676Y-16824620D01*
X12065676Y-16824620D02*
X12084724Y-16834143D01*
X12084724Y-16834143D02*
X12094247Y-16843667D01*
X12094247Y-16843667D02*
X12103771Y-16862715D01*
X12103771Y-16862715D02*
X12113295Y-16900810D01*
X12113295Y-16900810D02*
X12113295Y-16948429D01*
X12113295Y-16948429D02*
X12103771Y-16986524D01*
X12103771Y-16986524D02*
X12094247Y-17005572D01*
X12094247Y-17005572D02*
X12084724Y-17015096D01*
X12084724Y-17015096D02*
X12065676Y-17024620D01*
X12065676Y-17024620D02*
X12046628Y-17024620D01*
X12046628Y-17024620D02*
X12027581Y-17015096D01*
X12027581Y-17015096D02*
X12018057Y-17005572D01*
X12018057Y-17005572D02*
X12008533Y-16986524D01*
X12008533Y-16986524D02*
X11999009Y-16948429D01*
X11999009Y-16948429D02*
X11999009Y-16900810D01*
X11999009Y-16900810D02*
X12008533Y-16862715D01*
X12008533Y-16862715D02*
X12018057Y-16843667D01*
X12018057Y-16843667D02*
X12027581Y-16834143D01*
X12027581Y-16834143D02*
X12046628Y-16824620D01*
X12199009Y-17005572D02*
X12208533Y-17015096D01*
X12208533Y-17015096D02*
X12199009Y-17024620D01*
X12199009Y-17024620D02*
X12189486Y-17015096D01*
X12189486Y-17015096D02*
X12199009Y-17005572D01*
X12199009Y-17005572D02*
X12199009Y-17024620D01*
X12332343Y-16824620D02*
X12351390Y-16824620D01*
X12351390Y-16824620D02*
X12370438Y-16834143D01*
X12370438Y-16834143D02*
X12379962Y-16843667D01*
X12379962Y-16843667D02*
X12389486Y-16862715D01*
X12389486Y-16862715D02*
X12399009Y-16900810D01*
X12399009Y-16900810D02*
X12399009Y-16948429D01*
X12399009Y-16948429D02*
X12389486Y-16986524D01*
X12389486Y-16986524D02*
X12379962Y-17005572D01*
X12379962Y-17005572D02*
X12370438Y-17015096D01*
X12370438Y-17015096D02*
X12351390Y-17024620D01*
X12351390Y-17024620D02*
X12332343Y-17024620D01*
X12332343Y-17024620D02*
X12313295Y-17015096D01*
X12313295Y-17015096D02*
X12303771Y-17005572D01*
X12303771Y-17005572D02*
X12294247Y-16986524D01*
X12294247Y-16986524D02*
X12284724Y-16948429D01*
X12284724Y-16948429D02*
X12284724Y-16900810D01*
X12284724Y-16900810D02*
X12294247Y-16862715D01*
X12294247Y-16862715D02*
X12303771Y-16843667D01*
X12303771Y-16843667D02*
X12313295Y-16834143D01*
X12313295Y-16834143D02*
X12332343Y-16824620D01*
X12465676Y-16824620D02*
X12589486Y-16824620D01*
X12589486Y-16824620D02*
X12522819Y-16900810D01*
X12522819Y-16900810D02*
X12551390Y-16900810D01*
X12551390Y-16900810D02*
X12570438Y-16910334D01*
X12570438Y-16910334D02*
X12579962Y-16919858D01*
X12579962Y-16919858D02*
X12589486Y-16938905D01*
X12589486Y-16938905D02*
X12589486Y-16986524D01*
X12589486Y-16986524D02*
X12579962Y-17005572D01*
X12579962Y-17005572D02*
X12570438Y-17015096D01*
X12570438Y-17015096D02*
X12551390Y-17024620D01*
X12551390Y-17024620D02*
X12494247Y-17024620D01*
X12494247Y-17024620D02*
X12475200Y-17015096D01*
X12475200Y-17015096D02*
X12465676Y-17005572D01*
X12760914Y-16824620D02*
X12722819Y-16824620D01*
X12722819Y-16824620D02*
X12703771Y-16834143D01*
X12703771Y-16834143D02*
X12694247Y-16843667D01*
X12694247Y-16843667D02*
X12675200Y-16872239D01*
X12675200Y-16872239D02*
X12665676Y-16910334D01*
X12665676Y-16910334D02*
X12665676Y-16986524D01*
X12665676Y-16986524D02*
X12675200Y-17005572D01*
X12675200Y-17005572D02*
X12684724Y-17015096D01*
X12684724Y-17015096D02*
X12703771Y-17024620D01*
X12703771Y-17024620D02*
X12741867Y-17024620D01*
X12741867Y-17024620D02*
X12760914Y-17015096D01*
X12760914Y-17015096D02*
X12770438Y-17005572D01*
X12770438Y-17005572D02*
X12779962Y-16986524D01*
X12779962Y-16986524D02*
X12779962Y-16938905D01*
X12779962Y-16938905D02*
X12770438Y-16919858D01*
X12770438Y-16919858D02*
X12760914Y-16910334D01*
X12760914Y-16910334D02*
X12741867Y-16900810D01*
X12741867Y-16900810D02*
X12703771Y-16900810D01*
X12703771Y-16900810D02*
X12684724Y-16910334D01*
X12684724Y-16910334D02*
X12675200Y-16919858D01*
X12675200Y-16919858D02*
X12665676Y-16938905D01*
X12903771Y-16824620D02*
X12922819Y-16824620D01*
X12922819Y-16824620D02*
X12941867Y-16834143D01*
X12941867Y-16834143D02*
X12951390Y-16843667D01*
X12951390Y-16843667D02*
X12960914Y-16862715D01*
X12960914Y-16862715D02*
X12970438Y-16900810D01*
X12970438Y-16900810D02*
X12970438Y-16948429D01*
X12970438Y-16948429D02*
X12960914Y-16986524D01*
X12960914Y-16986524D02*
X12951390Y-17005572D01*
X12951390Y-17005572D02*
X12941867Y-17015096D01*
X12941867Y-17015096D02*
X12922819Y-17024620D01*
X12922819Y-17024620D02*
X12903771Y-17024620D01*
X12903771Y-17024620D02*
X12884724Y-17015096D01*
X12884724Y-17015096D02*
X12875200Y-17005572D01*
X12875200Y-17005572D02*
X12865676Y-16986524D01*
X12865676Y-16986524D02*
X12856152Y-16948429D01*
X12856152Y-16948429D02*
X12856152Y-16900810D01*
X12856152Y-16900810D02*
X12865676Y-16862715D01*
X12865676Y-16862715D02*
X12875200Y-16843667D01*
X12875200Y-16843667D02*
X12884724Y-16834143D01*
X12884724Y-16834143D02*
X12903771Y-16824620D01*
X13046628Y-16824620D02*
X13046628Y-16862715D01*
X13122819Y-16824620D02*
X13122819Y-16862715D01*
X13418057Y-17100810D02*
X13408533Y-17091286D01*
X13408533Y-17091286D02*
X13389486Y-17062715D01*
X13389486Y-17062715D02*
X13379962Y-17043667D01*
X13379962Y-17043667D02*
X13370438Y-17015096D01*
X13370438Y-17015096D02*
X13360914Y-16967477D01*
X13360914Y-16967477D02*
X13360914Y-16929381D01*
X13360914Y-16929381D02*
X13370438Y-16881762D01*
X13370438Y-16881762D02*
X13379962Y-16853191D01*
X13379962Y-16853191D02*
X13389486Y-16834143D01*
X13389486Y-16834143D02*
X13408533Y-16805572D01*
X13408533Y-16805572D02*
X13418057Y-16796048D01*
X13579962Y-16891286D02*
X13579962Y-17024620D01*
X13532343Y-16815096D02*
X13484724Y-16957953D01*
X13484724Y-16957953D02*
X13608533Y-16957953D01*
X13837105Y-17024620D02*
X13837105Y-16824620D01*
X13922819Y-17024620D02*
X13922819Y-16919858D01*
X13922819Y-16919858D02*
X13913295Y-16900810D01*
X13913295Y-16900810D02*
X13894248Y-16891286D01*
X13894248Y-16891286D02*
X13865676Y-16891286D01*
X13865676Y-16891286D02*
X13846629Y-16900810D01*
X13846629Y-16900810D02*
X13837105Y-16910334D01*
X14046629Y-17024620D02*
X14027581Y-17015096D01*
X14027581Y-17015096D02*
X14018057Y-17005572D01*
X14018057Y-17005572D02*
X14008533Y-16986524D01*
X14008533Y-16986524D02*
X14008533Y-16929381D01*
X14008533Y-16929381D02*
X14018057Y-16910334D01*
X14018057Y-16910334D02*
X14027581Y-16900810D01*
X14027581Y-16900810D02*
X14046629Y-16891286D01*
X14046629Y-16891286D02*
X14075200Y-16891286D01*
X14075200Y-16891286D02*
X14094248Y-16900810D01*
X14094248Y-16900810D02*
X14103771Y-16910334D01*
X14103771Y-16910334D02*
X14113295Y-16929381D01*
X14113295Y-16929381D02*
X14113295Y-16986524D01*
X14113295Y-16986524D02*
X14103771Y-17005572D01*
X14103771Y-17005572D02*
X14094248Y-17015096D01*
X14094248Y-17015096D02*
X14075200Y-17024620D01*
X14075200Y-17024620D02*
X14046629Y-17024620D01*
X14227581Y-17024620D02*
X14208533Y-17015096D01*
X14208533Y-17015096D02*
X14199010Y-16996048D01*
X14199010Y-16996048D02*
X14199010Y-16824620D01*
X14379962Y-17015096D02*
X14360914Y-17024620D01*
X14360914Y-17024620D02*
X14322819Y-17024620D01*
X14322819Y-17024620D02*
X14303771Y-17015096D01*
X14303771Y-17015096D02*
X14294248Y-16996048D01*
X14294248Y-16996048D02*
X14294248Y-16919858D01*
X14294248Y-16919858D02*
X14303771Y-16900810D01*
X14303771Y-16900810D02*
X14322819Y-16891286D01*
X14322819Y-16891286D02*
X14360914Y-16891286D01*
X14360914Y-16891286D02*
X14379962Y-16900810D01*
X14379962Y-16900810D02*
X14389486Y-16919858D01*
X14389486Y-16919858D02*
X14389486Y-16938905D01*
X14389486Y-16938905D02*
X14294248Y-16957953D01*
X14465676Y-17015096D02*
X14484724Y-17024620D01*
X14484724Y-17024620D02*
X14522819Y-17024620D01*
X14522819Y-17024620D02*
X14541867Y-17015096D01*
X14541867Y-17015096D02*
X14551391Y-16996048D01*
X14551391Y-16996048D02*
X14551391Y-16986524D01*
X14551391Y-16986524D02*
X14541867Y-16967477D01*
X14541867Y-16967477D02*
X14522819Y-16957953D01*
X14522819Y-16957953D02*
X14494248Y-16957953D01*
X14494248Y-16957953D02*
X14475200Y-16948429D01*
X14475200Y-16948429D02*
X14465676Y-16929381D01*
X14465676Y-16929381D02*
X14465676Y-16919858D01*
X14465676Y-16919858D02*
X14475200Y-16900810D01*
X14475200Y-16900810D02*
X14494248Y-16891286D01*
X14494248Y-16891286D02*
X14522819Y-16891286D01*
X14522819Y-16891286D02*
X14541867Y-16900810D01*
X14618057Y-17100810D02*
X14627581Y-17091286D01*
X14627581Y-17091286D02*
X14646629Y-17062715D01*
X14646629Y-17062715D02*
X14656152Y-17043667D01*
X14656152Y-17043667D02*
X14665676Y-17015096D01*
X14665676Y-17015096D02*
X14675200Y-16967477D01*
X14675200Y-16967477D02*
X14675200Y-16929381D01*
X14675200Y-16929381D02*
X14665676Y-16881762D01*
X14665676Y-16881762D02*
X14656152Y-16853191D01*
X14656152Y-16853191D02*
X14646629Y-16834143D01*
X14646629Y-16834143D02*
X14627581Y-16805572D01*
X14627581Y-16805572D02*
X14618057Y-16796048D01*
D12*
X9792994Y-17247136D02*
X9842994Y-17197136D01*
X9792994Y-17147136D01*
X9742994Y-17197136D01*
X9792994Y-17247136D01*
D11*
X10208533Y-17288620D02*
X10094247Y-17288620D01*
X10151390Y-17288620D02*
X10151390Y-17088620D01*
X10151390Y-17088620D02*
X10132343Y-17117191D01*
X10132343Y-17117191D02*
X10113295Y-17136239D01*
X10113295Y-17136239D02*
X10094247Y-17145762D01*
X10294247Y-17269572D02*
X10303771Y-17279096D01*
X10303771Y-17279096D02*
X10294247Y-17288620D01*
X10294247Y-17288620D02*
X10284724Y-17279096D01*
X10284724Y-17279096D02*
X10294247Y-17269572D01*
X10294247Y-17269572D02*
X10294247Y-17288620D01*
X10427581Y-17088620D02*
X10446628Y-17088620D01*
X10446628Y-17088620D02*
X10465676Y-17098143D01*
X10465676Y-17098143D02*
X10475200Y-17107667D01*
X10475200Y-17107667D02*
X10484724Y-17126715D01*
X10484724Y-17126715D02*
X10494247Y-17164810D01*
X10494247Y-17164810D02*
X10494247Y-17212429D01*
X10494247Y-17212429D02*
X10484724Y-17250524D01*
X10484724Y-17250524D02*
X10475200Y-17269572D01*
X10475200Y-17269572D02*
X10465676Y-17279096D01*
X10465676Y-17279096D02*
X10446628Y-17288620D01*
X10446628Y-17288620D02*
X10427581Y-17288620D01*
X10427581Y-17288620D02*
X10408533Y-17279096D01*
X10408533Y-17279096D02*
X10399009Y-17269572D01*
X10399009Y-17269572D02*
X10389485Y-17250524D01*
X10389485Y-17250524D02*
X10379962Y-17212429D01*
X10379962Y-17212429D02*
X10379962Y-17164810D01*
X10379962Y-17164810D02*
X10389485Y-17126715D01*
X10389485Y-17126715D02*
X10399009Y-17107667D01*
X10399009Y-17107667D02*
X10408533Y-17098143D01*
X10408533Y-17098143D02*
X10427581Y-17088620D01*
X10618057Y-17088620D02*
X10637105Y-17088620D01*
X10637105Y-17088620D02*
X10656152Y-17098143D01*
X10656152Y-17098143D02*
X10665676Y-17107667D01*
X10665676Y-17107667D02*
X10675200Y-17126715D01*
X10675200Y-17126715D02*
X10684724Y-17164810D01*
X10684724Y-17164810D02*
X10684724Y-17212429D01*
X10684724Y-17212429D02*
X10675200Y-17250524D01*
X10675200Y-17250524D02*
X10665676Y-17269572D01*
X10665676Y-17269572D02*
X10656152Y-17279096D01*
X10656152Y-17279096D02*
X10637105Y-17288620D01*
X10637105Y-17288620D02*
X10618057Y-17288620D01*
X10618057Y-17288620D02*
X10599009Y-17279096D01*
X10599009Y-17279096D02*
X10589485Y-17269572D01*
X10589485Y-17269572D02*
X10579962Y-17250524D01*
X10579962Y-17250524D02*
X10570438Y-17212429D01*
X10570438Y-17212429D02*
X10570438Y-17164810D01*
X10570438Y-17164810D02*
X10579962Y-17126715D01*
X10579962Y-17126715D02*
X10589485Y-17107667D01*
X10589485Y-17107667D02*
X10599009Y-17098143D01*
X10599009Y-17098143D02*
X10618057Y-17088620D01*
X10808533Y-17088620D02*
X10827581Y-17088620D01*
X10827581Y-17088620D02*
X10846628Y-17098143D01*
X10846628Y-17098143D02*
X10856152Y-17107667D01*
X10856152Y-17107667D02*
X10865676Y-17126715D01*
X10865676Y-17126715D02*
X10875200Y-17164810D01*
X10875200Y-17164810D02*
X10875200Y-17212429D01*
X10875200Y-17212429D02*
X10865676Y-17250524D01*
X10865676Y-17250524D02*
X10856152Y-17269572D01*
X10856152Y-17269572D02*
X10846628Y-17279096D01*
X10846628Y-17279096D02*
X10827581Y-17288620D01*
X10827581Y-17288620D02*
X10808533Y-17288620D01*
X10808533Y-17288620D02*
X10789485Y-17279096D01*
X10789485Y-17279096D02*
X10779962Y-17269572D01*
X10779962Y-17269572D02*
X10770438Y-17250524D01*
X10770438Y-17250524D02*
X10760914Y-17212429D01*
X10760914Y-17212429D02*
X10760914Y-17164810D01*
X10760914Y-17164810D02*
X10770438Y-17126715D01*
X10770438Y-17126715D02*
X10779962Y-17107667D01*
X10779962Y-17107667D02*
X10789485Y-17098143D01*
X10789485Y-17098143D02*
X10808533Y-17088620D01*
X10960914Y-17288620D02*
X10960914Y-17155286D01*
X10960914Y-17174334D02*
X10970438Y-17164810D01*
X10970438Y-17164810D02*
X10989485Y-17155286D01*
X10989485Y-17155286D02*
X11018057Y-17155286D01*
X11018057Y-17155286D02*
X11037105Y-17164810D01*
X11037105Y-17164810D02*
X11046628Y-17183858D01*
X11046628Y-17183858D02*
X11046628Y-17288620D01*
X11046628Y-17183858D02*
X11056152Y-17164810D01*
X11056152Y-17164810D02*
X11075200Y-17155286D01*
X11075200Y-17155286D02*
X11103771Y-17155286D01*
X11103771Y-17155286D02*
X11122819Y-17164810D01*
X11122819Y-17164810D02*
X11132343Y-17183858D01*
X11132343Y-17183858D02*
X11132343Y-17288620D01*
X11227581Y-17288620D02*
X11227581Y-17155286D01*
X11227581Y-17174334D02*
X11237104Y-17164810D01*
X11237104Y-17164810D02*
X11256152Y-17155286D01*
X11256152Y-17155286D02*
X11284724Y-17155286D01*
X11284724Y-17155286D02*
X11303771Y-17164810D01*
X11303771Y-17164810D02*
X11313295Y-17183858D01*
X11313295Y-17183858D02*
X11313295Y-17288620D01*
X11313295Y-17183858D02*
X11322819Y-17164810D01*
X11322819Y-17164810D02*
X11341866Y-17155286D01*
X11341866Y-17155286D02*
X11370438Y-17155286D01*
X11370438Y-17155286D02*
X11389485Y-17164810D01*
X11389485Y-17164810D02*
X11399009Y-17183858D01*
X11399009Y-17183858D02*
X11399009Y-17288620D01*
X11789485Y-17079096D02*
X11618057Y-17336239D01*
X12046628Y-17088620D02*
X12065676Y-17088620D01*
X12065676Y-17088620D02*
X12084724Y-17098143D01*
X12084724Y-17098143D02*
X12094247Y-17107667D01*
X12094247Y-17107667D02*
X12103771Y-17126715D01*
X12103771Y-17126715D02*
X12113295Y-17164810D01*
X12113295Y-17164810D02*
X12113295Y-17212429D01*
X12113295Y-17212429D02*
X12103771Y-17250524D01*
X12103771Y-17250524D02*
X12094247Y-17269572D01*
X12094247Y-17269572D02*
X12084724Y-17279096D01*
X12084724Y-17279096D02*
X12065676Y-17288620D01*
X12065676Y-17288620D02*
X12046628Y-17288620D01*
X12046628Y-17288620D02*
X12027581Y-17279096D01*
X12027581Y-17279096D02*
X12018057Y-17269572D01*
X12018057Y-17269572D02*
X12008533Y-17250524D01*
X12008533Y-17250524D02*
X11999009Y-17212429D01*
X11999009Y-17212429D02*
X11999009Y-17164810D01*
X11999009Y-17164810D02*
X12008533Y-17126715D01*
X12008533Y-17126715D02*
X12018057Y-17107667D01*
X12018057Y-17107667D02*
X12027581Y-17098143D01*
X12027581Y-17098143D02*
X12046628Y-17088620D01*
X12199009Y-17269572D02*
X12208533Y-17279096D01*
X12208533Y-17279096D02*
X12199009Y-17288620D01*
X12199009Y-17288620D02*
X12189486Y-17279096D01*
X12189486Y-17279096D02*
X12199009Y-17269572D01*
X12199009Y-17269572D02*
X12199009Y-17288620D01*
X12332343Y-17088620D02*
X12351390Y-17088620D01*
X12351390Y-17088620D02*
X12370438Y-17098143D01*
X12370438Y-17098143D02*
X12379962Y-17107667D01*
X12379962Y-17107667D02*
X12389486Y-17126715D01*
X12389486Y-17126715D02*
X12399009Y-17164810D01*
X12399009Y-17164810D02*
X12399009Y-17212429D01*
X12399009Y-17212429D02*
X12389486Y-17250524D01*
X12389486Y-17250524D02*
X12379962Y-17269572D01*
X12379962Y-17269572D02*
X12370438Y-17279096D01*
X12370438Y-17279096D02*
X12351390Y-17288620D01*
X12351390Y-17288620D02*
X12332343Y-17288620D01*
X12332343Y-17288620D02*
X12313295Y-17279096D01*
X12313295Y-17279096D02*
X12303771Y-17269572D01*
X12303771Y-17269572D02*
X12294247Y-17250524D01*
X12294247Y-17250524D02*
X12284724Y-17212429D01*
X12284724Y-17212429D02*
X12284724Y-17164810D01*
X12284724Y-17164810D02*
X12294247Y-17126715D01*
X12294247Y-17126715D02*
X12303771Y-17107667D01*
X12303771Y-17107667D02*
X12313295Y-17098143D01*
X12313295Y-17098143D02*
X12332343Y-17088620D01*
X12465676Y-17088620D02*
X12589486Y-17088620D01*
X12589486Y-17088620D02*
X12522819Y-17164810D01*
X12522819Y-17164810D02*
X12551390Y-17164810D01*
X12551390Y-17164810D02*
X12570438Y-17174334D01*
X12570438Y-17174334D02*
X12579962Y-17183858D01*
X12579962Y-17183858D02*
X12589486Y-17202905D01*
X12589486Y-17202905D02*
X12589486Y-17250524D01*
X12589486Y-17250524D02*
X12579962Y-17269572D01*
X12579962Y-17269572D02*
X12570438Y-17279096D01*
X12570438Y-17279096D02*
X12551390Y-17288620D01*
X12551390Y-17288620D02*
X12494247Y-17288620D01*
X12494247Y-17288620D02*
X12475200Y-17279096D01*
X12475200Y-17279096D02*
X12465676Y-17269572D01*
X12684724Y-17288620D02*
X12722819Y-17288620D01*
X12722819Y-17288620D02*
X12741867Y-17279096D01*
X12741867Y-17279096D02*
X12751390Y-17269572D01*
X12751390Y-17269572D02*
X12770438Y-17241000D01*
X12770438Y-17241000D02*
X12779962Y-17202905D01*
X12779962Y-17202905D02*
X12779962Y-17126715D01*
X12779962Y-17126715D02*
X12770438Y-17107667D01*
X12770438Y-17107667D02*
X12760914Y-17098143D01*
X12760914Y-17098143D02*
X12741867Y-17088620D01*
X12741867Y-17088620D02*
X12703771Y-17088620D01*
X12703771Y-17088620D02*
X12684724Y-17098143D01*
X12684724Y-17098143D02*
X12675200Y-17107667D01*
X12675200Y-17107667D02*
X12665676Y-17126715D01*
X12665676Y-17126715D02*
X12665676Y-17174334D01*
X12665676Y-17174334D02*
X12675200Y-17193381D01*
X12675200Y-17193381D02*
X12684724Y-17202905D01*
X12684724Y-17202905D02*
X12703771Y-17212429D01*
X12703771Y-17212429D02*
X12741867Y-17212429D01*
X12741867Y-17212429D02*
X12760914Y-17202905D01*
X12760914Y-17202905D02*
X12770438Y-17193381D01*
X12770438Y-17193381D02*
X12779962Y-17174334D01*
X12951390Y-17155286D02*
X12951390Y-17288620D01*
X12903771Y-17079096D02*
X12856152Y-17221953D01*
X12856152Y-17221953D02*
X12979962Y-17221953D01*
X13046628Y-17088620D02*
X13046628Y-17126715D01*
X13122819Y-17088620D02*
X13122819Y-17126715D01*
X13418057Y-17364810D02*
X13408533Y-17355286D01*
X13408533Y-17355286D02*
X13389486Y-17326715D01*
X13389486Y-17326715D02*
X13379962Y-17307667D01*
X13379962Y-17307667D02*
X13370438Y-17279096D01*
X13370438Y-17279096D02*
X13360914Y-17231477D01*
X13360914Y-17231477D02*
X13360914Y-17193381D01*
X13360914Y-17193381D02*
X13370438Y-17145762D01*
X13370438Y-17145762D02*
X13379962Y-17117191D01*
X13379962Y-17117191D02*
X13389486Y-17098143D01*
X13389486Y-17098143D02*
X13408533Y-17069572D01*
X13408533Y-17069572D02*
X13418057Y-17060048D01*
X13475200Y-17088620D02*
X13599009Y-17088620D01*
X13599009Y-17088620D02*
X13532343Y-17164810D01*
X13532343Y-17164810D02*
X13560914Y-17164810D01*
X13560914Y-17164810D02*
X13579962Y-17174334D01*
X13579962Y-17174334D02*
X13589486Y-17183858D01*
X13589486Y-17183858D02*
X13599009Y-17202905D01*
X13599009Y-17202905D02*
X13599009Y-17250524D01*
X13599009Y-17250524D02*
X13589486Y-17269572D01*
X13589486Y-17269572D02*
X13579962Y-17279096D01*
X13579962Y-17279096D02*
X13560914Y-17288620D01*
X13560914Y-17288620D02*
X13503771Y-17288620D01*
X13503771Y-17288620D02*
X13484724Y-17279096D01*
X13484724Y-17279096D02*
X13475200Y-17269572D01*
X13837105Y-17288620D02*
X13837105Y-17088620D01*
X13922819Y-17288620D02*
X13922819Y-17183858D01*
X13922819Y-17183858D02*
X13913295Y-17164810D01*
X13913295Y-17164810D02*
X13894248Y-17155286D01*
X13894248Y-17155286D02*
X13865676Y-17155286D01*
X13865676Y-17155286D02*
X13846629Y-17164810D01*
X13846629Y-17164810D02*
X13837105Y-17174334D01*
X14046629Y-17288620D02*
X14027581Y-17279096D01*
X14027581Y-17279096D02*
X14018057Y-17269572D01*
X14018057Y-17269572D02*
X14008533Y-17250524D01*
X14008533Y-17250524D02*
X14008533Y-17193381D01*
X14008533Y-17193381D02*
X14018057Y-17174334D01*
X14018057Y-17174334D02*
X14027581Y-17164810D01*
X14027581Y-17164810D02*
X14046629Y-17155286D01*
X14046629Y-17155286D02*
X14075200Y-17155286D01*
X14075200Y-17155286D02*
X14094248Y-17164810D01*
X14094248Y-17164810D02*
X14103771Y-17174334D01*
X14103771Y-17174334D02*
X14113295Y-17193381D01*
X14113295Y-17193381D02*
X14113295Y-17250524D01*
X14113295Y-17250524D02*
X14103771Y-17269572D01*
X14103771Y-17269572D02*
X14094248Y-17279096D01*
X14094248Y-17279096D02*
X14075200Y-17288620D01*
X14075200Y-17288620D02*
X14046629Y-17288620D01*
X14227581Y-17288620D02*
X14208533Y-17279096D01*
X14208533Y-17279096D02*
X14199010Y-17260048D01*
X14199010Y-17260048D02*
X14199010Y-17088620D01*
X14379962Y-17279096D02*
X14360914Y-17288620D01*
X14360914Y-17288620D02*
X14322819Y-17288620D01*
X14322819Y-17288620D02*
X14303771Y-17279096D01*
X14303771Y-17279096D02*
X14294248Y-17260048D01*
X14294248Y-17260048D02*
X14294248Y-17183858D01*
X14294248Y-17183858D02*
X14303771Y-17164810D01*
X14303771Y-17164810D02*
X14322819Y-17155286D01*
X14322819Y-17155286D02*
X14360914Y-17155286D01*
X14360914Y-17155286D02*
X14379962Y-17164810D01*
X14379962Y-17164810D02*
X14389486Y-17183858D01*
X14389486Y-17183858D02*
X14389486Y-17202905D01*
X14389486Y-17202905D02*
X14294248Y-17221953D01*
X14465676Y-17279096D02*
X14484724Y-17288620D01*
X14484724Y-17288620D02*
X14522819Y-17288620D01*
X14522819Y-17288620D02*
X14541867Y-17279096D01*
X14541867Y-17279096D02*
X14551391Y-17260048D01*
X14551391Y-17260048D02*
X14551391Y-17250524D01*
X14551391Y-17250524D02*
X14541867Y-17231477D01*
X14541867Y-17231477D02*
X14522819Y-17221953D01*
X14522819Y-17221953D02*
X14494248Y-17221953D01*
X14494248Y-17221953D02*
X14475200Y-17212429D01*
X14475200Y-17212429D02*
X14465676Y-17193381D01*
X14465676Y-17193381D02*
X14465676Y-17183858D01*
X14465676Y-17183858D02*
X14475200Y-17164810D01*
X14475200Y-17164810D02*
X14494248Y-17155286D01*
X14494248Y-17155286D02*
X14522819Y-17155286D01*
X14522819Y-17155286D02*
X14541867Y-17164810D01*
X14618057Y-17364810D02*
X14627581Y-17355286D01*
X14627581Y-17355286D02*
X14646629Y-17326715D01*
X14646629Y-17326715D02*
X14656152Y-17307667D01*
X14656152Y-17307667D02*
X14665676Y-17279096D01*
X14665676Y-17279096D02*
X14675200Y-17231477D01*
X14675200Y-17231477D02*
X14675200Y-17193381D01*
X14675200Y-17193381D02*
X14665676Y-17145762D01*
X14665676Y-17145762D02*
X14656152Y-17117191D01*
X14656152Y-17117191D02*
X14646629Y-17098143D01*
X14646629Y-17098143D02*
X14627581Y-17069572D01*
X14627581Y-17069572D02*
X14618057Y-17060048D01*
D13*
X9741394Y-17410336D02*
X9842994Y-17511936D01*
X9842994Y-17410336D02*
X9741394Y-17511936D01*
X9842994Y-17461136D02*
G75*
G02*
X9741394Y-17461136I-50800J0D01*
G01*
X9741394Y-17461136D02*
G75*
G02*
X9842994Y-17461136I50800J0D01*
G01*
D11*
X10208533Y-17552620D02*
X10094247Y-17552620D01*
X10151390Y-17552620D02*
X10151390Y-17352620D01*
X10151390Y-17352620D02*
X10132343Y-17381191D01*
X10132343Y-17381191D02*
X10113295Y-17400239D01*
X10113295Y-17400239D02*
X10094247Y-17409762D01*
X10294247Y-17533572D02*
X10303771Y-17543096D01*
X10303771Y-17543096D02*
X10294247Y-17552620D01*
X10294247Y-17552620D02*
X10284724Y-17543096D01*
X10284724Y-17543096D02*
X10294247Y-17533572D01*
X10294247Y-17533572D02*
X10294247Y-17552620D01*
X10427581Y-17352620D02*
X10446628Y-17352620D01*
X10446628Y-17352620D02*
X10465676Y-17362143D01*
X10465676Y-17362143D02*
X10475200Y-17371667D01*
X10475200Y-17371667D02*
X10484724Y-17390715D01*
X10484724Y-17390715D02*
X10494247Y-17428810D01*
X10494247Y-17428810D02*
X10494247Y-17476429D01*
X10494247Y-17476429D02*
X10484724Y-17514524D01*
X10484724Y-17514524D02*
X10475200Y-17533572D01*
X10475200Y-17533572D02*
X10465676Y-17543096D01*
X10465676Y-17543096D02*
X10446628Y-17552620D01*
X10446628Y-17552620D02*
X10427581Y-17552620D01*
X10427581Y-17552620D02*
X10408533Y-17543096D01*
X10408533Y-17543096D02*
X10399009Y-17533572D01*
X10399009Y-17533572D02*
X10389485Y-17514524D01*
X10389485Y-17514524D02*
X10379962Y-17476429D01*
X10379962Y-17476429D02*
X10379962Y-17428810D01*
X10379962Y-17428810D02*
X10389485Y-17390715D01*
X10389485Y-17390715D02*
X10399009Y-17371667D01*
X10399009Y-17371667D02*
X10408533Y-17362143D01*
X10408533Y-17362143D02*
X10427581Y-17352620D01*
X10684724Y-17552620D02*
X10570438Y-17552620D01*
X10627581Y-17552620D02*
X10627581Y-17352620D01*
X10627581Y-17352620D02*
X10608533Y-17381191D01*
X10608533Y-17381191D02*
X10589485Y-17400239D01*
X10589485Y-17400239D02*
X10570438Y-17409762D01*
X10856152Y-17352620D02*
X10818057Y-17352620D01*
X10818057Y-17352620D02*
X10799009Y-17362143D01*
X10799009Y-17362143D02*
X10789485Y-17371667D01*
X10789485Y-17371667D02*
X10770438Y-17400239D01*
X10770438Y-17400239D02*
X10760914Y-17438334D01*
X10760914Y-17438334D02*
X10760914Y-17514524D01*
X10760914Y-17514524D02*
X10770438Y-17533572D01*
X10770438Y-17533572D02*
X10779962Y-17543096D01*
X10779962Y-17543096D02*
X10799009Y-17552620D01*
X10799009Y-17552620D02*
X10837105Y-17552620D01*
X10837105Y-17552620D02*
X10856152Y-17543096D01*
X10856152Y-17543096D02*
X10865676Y-17533572D01*
X10865676Y-17533572D02*
X10875200Y-17514524D01*
X10875200Y-17514524D02*
X10875200Y-17466905D01*
X10875200Y-17466905D02*
X10865676Y-17447858D01*
X10865676Y-17447858D02*
X10856152Y-17438334D01*
X10856152Y-17438334D02*
X10837105Y-17428810D01*
X10837105Y-17428810D02*
X10799009Y-17428810D01*
X10799009Y-17428810D02*
X10779962Y-17438334D01*
X10779962Y-17438334D02*
X10770438Y-17447858D01*
X10770438Y-17447858D02*
X10760914Y-17466905D01*
X10960914Y-17552620D02*
X10960914Y-17419286D01*
X10960914Y-17438334D02*
X10970438Y-17428810D01*
X10970438Y-17428810D02*
X10989485Y-17419286D01*
X10989485Y-17419286D02*
X11018057Y-17419286D01*
X11018057Y-17419286D02*
X11037105Y-17428810D01*
X11037105Y-17428810D02*
X11046628Y-17447858D01*
X11046628Y-17447858D02*
X11046628Y-17552620D01*
X11046628Y-17447858D02*
X11056152Y-17428810D01*
X11056152Y-17428810D02*
X11075200Y-17419286D01*
X11075200Y-17419286D02*
X11103771Y-17419286D01*
X11103771Y-17419286D02*
X11122819Y-17428810D01*
X11122819Y-17428810D02*
X11132343Y-17447858D01*
X11132343Y-17447858D02*
X11132343Y-17552620D01*
X11227581Y-17552620D02*
X11227581Y-17419286D01*
X11227581Y-17438334D02*
X11237104Y-17428810D01*
X11237104Y-17428810D02*
X11256152Y-17419286D01*
X11256152Y-17419286D02*
X11284724Y-17419286D01*
X11284724Y-17419286D02*
X11303771Y-17428810D01*
X11303771Y-17428810D02*
X11313295Y-17447858D01*
X11313295Y-17447858D02*
X11313295Y-17552620D01*
X11313295Y-17447858D02*
X11322819Y-17428810D01*
X11322819Y-17428810D02*
X11341866Y-17419286D01*
X11341866Y-17419286D02*
X11370438Y-17419286D01*
X11370438Y-17419286D02*
X11389485Y-17428810D01*
X11389485Y-17428810D02*
X11399009Y-17447858D01*
X11399009Y-17447858D02*
X11399009Y-17552620D01*
X11789485Y-17343096D02*
X11618057Y-17600239D01*
X12046628Y-17352620D02*
X12065676Y-17352620D01*
X12065676Y-17352620D02*
X12084724Y-17362143D01*
X12084724Y-17362143D02*
X12094247Y-17371667D01*
X12094247Y-17371667D02*
X12103771Y-17390715D01*
X12103771Y-17390715D02*
X12113295Y-17428810D01*
X12113295Y-17428810D02*
X12113295Y-17476429D01*
X12113295Y-17476429D02*
X12103771Y-17514524D01*
X12103771Y-17514524D02*
X12094247Y-17533572D01*
X12094247Y-17533572D02*
X12084724Y-17543096D01*
X12084724Y-17543096D02*
X12065676Y-17552620D01*
X12065676Y-17552620D02*
X12046628Y-17552620D01*
X12046628Y-17552620D02*
X12027581Y-17543096D01*
X12027581Y-17543096D02*
X12018057Y-17533572D01*
X12018057Y-17533572D02*
X12008533Y-17514524D01*
X12008533Y-17514524D02*
X11999009Y-17476429D01*
X11999009Y-17476429D02*
X11999009Y-17428810D01*
X11999009Y-17428810D02*
X12008533Y-17390715D01*
X12008533Y-17390715D02*
X12018057Y-17371667D01*
X12018057Y-17371667D02*
X12027581Y-17362143D01*
X12027581Y-17362143D02*
X12046628Y-17352620D01*
X12199009Y-17533572D02*
X12208533Y-17543096D01*
X12208533Y-17543096D02*
X12199009Y-17552620D01*
X12199009Y-17552620D02*
X12189486Y-17543096D01*
X12189486Y-17543096D02*
X12199009Y-17533572D01*
X12199009Y-17533572D02*
X12199009Y-17552620D01*
X12332343Y-17352620D02*
X12351390Y-17352620D01*
X12351390Y-17352620D02*
X12370438Y-17362143D01*
X12370438Y-17362143D02*
X12379962Y-17371667D01*
X12379962Y-17371667D02*
X12389486Y-17390715D01*
X12389486Y-17390715D02*
X12399009Y-17428810D01*
X12399009Y-17428810D02*
X12399009Y-17476429D01*
X12399009Y-17476429D02*
X12389486Y-17514524D01*
X12389486Y-17514524D02*
X12379962Y-17533572D01*
X12379962Y-17533572D02*
X12370438Y-17543096D01*
X12370438Y-17543096D02*
X12351390Y-17552620D01*
X12351390Y-17552620D02*
X12332343Y-17552620D01*
X12332343Y-17552620D02*
X12313295Y-17543096D01*
X12313295Y-17543096D02*
X12303771Y-17533572D01*
X12303771Y-17533572D02*
X12294247Y-17514524D01*
X12294247Y-17514524D02*
X12284724Y-17476429D01*
X12284724Y-17476429D02*
X12284724Y-17428810D01*
X12284724Y-17428810D02*
X12294247Y-17390715D01*
X12294247Y-17390715D02*
X12303771Y-17371667D01*
X12303771Y-17371667D02*
X12313295Y-17362143D01*
X12313295Y-17362143D02*
X12332343Y-17352620D01*
X12570438Y-17419286D02*
X12570438Y-17552620D01*
X12522819Y-17343096D02*
X12475200Y-17485953D01*
X12475200Y-17485953D02*
X12599009Y-17485953D01*
X12713295Y-17352620D02*
X12732343Y-17352620D01*
X12732343Y-17352620D02*
X12751390Y-17362143D01*
X12751390Y-17362143D02*
X12760914Y-17371667D01*
X12760914Y-17371667D02*
X12770438Y-17390715D01*
X12770438Y-17390715D02*
X12779962Y-17428810D01*
X12779962Y-17428810D02*
X12779962Y-17476429D01*
X12779962Y-17476429D02*
X12770438Y-17514524D01*
X12770438Y-17514524D02*
X12760914Y-17533572D01*
X12760914Y-17533572D02*
X12751390Y-17543096D01*
X12751390Y-17543096D02*
X12732343Y-17552620D01*
X12732343Y-17552620D02*
X12713295Y-17552620D01*
X12713295Y-17552620D02*
X12694247Y-17543096D01*
X12694247Y-17543096D02*
X12684724Y-17533572D01*
X12684724Y-17533572D02*
X12675200Y-17514524D01*
X12675200Y-17514524D02*
X12665676Y-17476429D01*
X12665676Y-17476429D02*
X12665676Y-17428810D01*
X12665676Y-17428810D02*
X12675200Y-17390715D01*
X12675200Y-17390715D02*
X12684724Y-17371667D01*
X12684724Y-17371667D02*
X12694247Y-17362143D01*
X12694247Y-17362143D02*
X12713295Y-17352620D01*
X12903771Y-17352620D02*
X12922819Y-17352620D01*
X12922819Y-17352620D02*
X12941867Y-17362143D01*
X12941867Y-17362143D02*
X12951390Y-17371667D01*
X12951390Y-17371667D02*
X12960914Y-17390715D01*
X12960914Y-17390715D02*
X12970438Y-17428810D01*
X12970438Y-17428810D02*
X12970438Y-17476429D01*
X12970438Y-17476429D02*
X12960914Y-17514524D01*
X12960914Y-17514524D02*
X12951390Y-17533572D01*
X12951390Y-17533572D02*
X12941867Y-17543096D01*
X12941867Y-17543096D02*
X12922819Y-17552620D01*
X12922819Y-17552620D02*
X12903771Y-17552620D01*
X12903771Y-17552620D02*
X12884724Y-17543096D01*
X12884724Y-17543096D02*
X12875200Y-17533572D01*
X12875200Y-17533572D02*
X12865676Y-17514524D01*
X12865676Y-17514524D02*
X12856152Y-17476429D01*
X12856152Y-17476429D02*
X12856152Y-17428810D01*
X12856152Y-17428810D02*
X12865676Y-17390715D01*
X12865676Y-17390715D02*
X12875200Y-17371667D01*
X12875200Y-17371667D02*
X12884724Y-17362143D01*
X12884724Y-17362143D02*
X12903771Y-17352620D01*
X13046628Y-17352620D02*
X13046628Y-17390715D01*
X13122819Y-17352620D02*
X13122819Y-17390715D01*
X13418057Y-17628810D02*
X13408533Y-17619286D01*
X13408533Y-17619286D02*
X13389486Y-17590715D01*
X13389486Y-17590715D02*
X13379962Y-17571667D01*
X13379962Y-17571667D02*
X13370438Y-17543096D01*
X13370438Y-17543096D02*
X13360914Y-17495477D01*
X13360914Y-17495477D02*
X13360914Y-17457381D01*
X13360914Y-17457381D02*
X13370438Y-17409762D01*
X13370438Y-17409762D02*
X13379962Y-17381191D01*
X13379962Y-17381191D02*
X13389486Y-17362143D01*
X13389486Y-17362143D02*
X13408533Y-17333572D01*
X13408533Y-17333572D02*
X13418057Y-17324048D01*
X13484724Y-17371667D02*
X13494248Y-17362143D01*
X13494248Y-17362143D02*
X13513295Y-17352620D01*
X13513295Y-17352620D02*
X13560914Y-17352620D01*
X13560914Y-17352620D02*
X13579962Y-17362143D01*
X13579962Y-17362143D02*
X13589486Y-17371667D01*
X13589486Y-17371667D02*
X13599009Y-17390715D01*
X13599009Y-17390715D02*
X13599009Y-17409762D01*
X13599009Y-17409762D02*
X13589486Y-17438334D01*
X13589486Y-17438334D02*
X13475200Y-17552620D01*
X13475200Y-17552620D02*
X13599009Y-17552620D01*
X13837105Y-17552620D02*
X13837105Y-17352620D01*
X13922819Y-17552620D02*
X13922819Y-17447858D01*
X13922819Y-17447858D02*
X13913295Y-17428810D01*
X13913295Y-17428810D02*
X13894248Y-17419286D01*
X13894248Y-17419286D02*
X13865676Y-17419286D01*
X13865676Y-17419286D02*
X13846629Y-17428810D01*
X13846629Y-17428810D02*
X13837105Y-17438334D01*
X14046629Y-17552620D02*
X14027581Y-17543096D01*
X14027581Y-17543096D02*
X14018057Y-17533572D01*
X14018057Y-17533572D02*
X14008533Y-17514524D01*
X14008533Y-17514524D02*
X14008533Y-17457381D01*
X14008533Y-17457381D02*
X14018057Y-17438334D01*
X14018057Y-17438334D02*
X14027581Y-17428810D01*
X14027581Y-17428810D02*
X14046629Y-17419286D01*
X14046629Y-17419286D02*
X14075200Y-17419286D01*
X14075200Y-17419286D02*
X14094248Y-17428810D01*
X14094248Y-17428810D02*
X14103771Y-17438334D01*
X14103771Y-17438334D02*
X14113295Y-17457381D01*
X14113295Y-17457381D02*
X14113295Y-17514524D01*
X14113295Y-17514524D02*
X14103771Y-17533572D01*
X14103771Y-17533572D02*
X14094248Y-17543096D01*
X14094248Y-17543096D02*
X14075200Y-17552620D01*
X14075200Y-17552620D02*
X14046629Y-17552620D01*
X14227581Y-17552620D02*
X14208533Y-17543096D01*
X14208533Y-17543096D02*
X14199010Y-17524048D01*
X14199010Y-17524048D02*
X14199010Y-17352620D01*
X14379962Y-17543096D02*
X14360914Y-17552620D01*
X14360914Y-17552620D02*
X14322819Y-17552620D01*
X14322819Y-17552620D02*
X14303771Y-17543096D01*
X14303771Y-17543096D02*
X14294248Y-17524048D01*
X14294248Y-17524048D02*
X14294248Y-17447858D01*
X14294248Y-17447858D02*
X14303771Y-17428810D01*
X14303771Y-17428810D02*
X14322819Y-17419286D01*
X14322819Y-17419286D02*
X14360914Y-17419286D01*
X14360914Y-17419286D02*
X14379962Y-17428810D01*
X14379962Y-17428810D02*
X14389486Y-17447858D01*
X14389486Y-17447858D02*
X14389486Y-17466905D01*
X14389486Y-17466905D02*
X14294248Y-17485953D01*
X14465676Y-17543096D02*
X14484724Y-17552620D01*
X14484724Y-17552620D02*
X14522819Y-17552620D01*
X14522819Y-17552620D02*
X14541867Y-17543096D01*
X14541867Y-17543096D02*
X14551391Y-17524048D01*
X14551391Y-17524048D02*
X14551391Y-17514524D01*
X14551391Y-17514524D02*
X14541867Y-17495477D01*
X14541867Y-17495477D02*
X14522819Y-17485953D01*
X14522819Y-17485953D02*
X14494248Y-17485953D01*
X14494248Y-17485953D02*
X14475200Y-17476429D01*
X14475200Y-17476429D02*
X14465676Y-17457381D01*
X14465676Y-17457381D02*
X14465676Y-17447858D01*
X14465676Y-17447858D02*
X14475200Y-17428810D01*
X14475200Y-17428810D02*
X14494248Y-17419286D01*
X14494248Y-17419286D02*
X14522819Y-17419286D01*
X14522819Y-17419286D02*
X14541867Y-17428810D01*
X14618057Y-17628810D02*
X14627581Y-17619286D01*
X14627581Y-17619286D02*
X14646629Y-17590715D01*
X14646629Y-17590715D02*
X14656152Y-17571667D01*
X14656152Y-17571667D02*
X14665676Y-17543096D01*
X14665676Y-17543096D02*
X14675200Y-17495477D01*
X14675200Y-17495477D02*
X14675200Y-17457381D01*
X14675200Y-17457381D02*
X14665676Y-17409762D01*
X14665676Y-17409762D02*
X14656152Y-17381191D01*
X14656152Y-17381191D02*
X14646629Y-17362143D01*
X14646629Y-17362143D02*
X14627581Y-17333572D01*
X14627581Y-17333572D02*
X14618057Y-17324048D01*
D14*
X9732994Y-17670136D02*
X9842994Y-17780136D01*
X9842994Y-17670136D02*
X9732994Y-17780136D01*
X9787994Y-17670136D02*
X9787994Y-17780136D01*
X9732994Y-17725136D02*
X9842994Y-17725136D01*
D11*
X10208533Y-17816620D02*
X10094247Y-17816620D01*
X10151390Y-17816620D02*
X10151390Y-17616620D01*
X10151390Y-17616620D02*
X10132343Y-17645191D01*
X10132343Y-17645191D02*
X10113295Y-17664239D01*
X10113295Y-17664239D02*
X10094247Y-17673762D01*
X10294247Y-17797572D02*
X10303771Y-17807096D01*
X10303771Y-17807096D02*
X10294247Y-17816620D01*
X10294247Y-17816620D02*
X10284724Y-17807096D01*
X10284724Y-17807096D02*
X10294247Y-17797572D01*
X10294247Y-17797572D02*
X10294247Y-17816620D01*
X10494247Y-17816620D02*
X10379962Y-17816620D01*
X10437104Y-17816620D02*
X10437104Y-17616620D01*
X10437104Y-17616620D02*
X10418057Y-17645191D01*
X10418057Y-17645191D02*
X10399009Y-17664239D01*
X10399009Y-17664239D02*
X10379962Y-17673762D01*
X10618057Y-17616620D02*
X10637105Y-17616620D01*
X10637105Y-17616620D02*
X10656152Y-17626143D01*
X10656152Y-17626143D02*
X10665676Y-17635667D01*
X10665676Y-17635667D02*
X10675200Y-17654715D01*
X10675200Y-17654715D02*
X10684724Y-17692810D01*
X10684724Y-17692810D02*
X10684724Y-17740429D01*
X10684724Y-17740429D02*
X10675200Y-17778524D01*
X10675200Y-17778524D02*
X10665676Y-17797572D01*
X10665676Y-17797572D02*
X10656152Y-17807096D01*
X10656152Y-17807096D02*
X10637105Y-17816620D01*
X10637105Y-17816620D02*
X10618057Y-17816620D01*
X10618057Y-17816620D02*
X10599009Y-17807096D01*
X10599009Y-17807096D02*
X10589485Y-17797572D01*
X10589485Y-17797572D02*
X10579962Y-17778524D01*
X10579962Y-17778524D02*
X10570438Y-17740429D01*
X10570438Y-17740429D02*
X10570438Y-17692810D01*
X10570438Y-17692810D02*
X10579962Y-17654715D01*
X10579962Y-17654715D02*
X10589485Y-17635667D01*
X10589485Y-17635667D02*
X10599009Y-17626143D01*
X10599009Y-17626143D02*
X10618057Y-17616620D01*
X10808533Y-17616620D02*
X10827581Y-17616620D01*
X10827581Y-17616620D02*
X10846628Y-17626143D01*
X10846628Y-17626143D02*
X10856152Y-17635667D01*
X10856152Y-17635667D02*
X10865676Y-17654715D01*
X10865676Y-17654715D02*
X10875200Y-17692810D01*
X10875200Y-17692810D02*
X10875200Y-17740429D01*
X10875200Y-17740429D02*
X10865676Y-17778524D01*
X10865676Y-17778524D02*
X10856152Y-17797572D01*
X10856152Y-17797572D02*
X10846628Y-17807096D01*
X10846628Y-17807096D02*
X10827581Y-17816620D01*
X10827581Y-17816620D02*
X10808533Y-17816620D01*
X10808533Y-17816620D02*
X10789485Y-17807096D01*
X10789485Y-17807096D02*
X10779962Y-17797572D01*
X10779962Y-17797572D02*
X10770438Y-17778524D01*
X10770438Y-17778524D02*
X10760914Y-17740429D01*
X10760914Y-17740429D02*
X10760914Y-17692810D01*
X10760914Y-17692810D02*
X10770438Y-17654715D01*
X10770438Y-17654715D02*
X10779962Y-17635667D01*
X10779962Y-17635667D02*
X10789485Y-17626143D01*
X10789485Y-17626143D02*
X10808533Y-17616620D01*
X10960914Y-17816620D02*
X10960914Y-17683286D01*
X10960914Y-17702334D02*
X10970438Y-17692810D01*
X10970438Y-17692810D02*
X10989485Y-17683286D01*
X10989485Y-17683286D02*
X11018057Y-17683286D01*
X11018057Y-17683286D02*
X11037105Y-17692810D01*
X11037105Y-17692810D02*
X11046628Y-17711858D01*
X11046628Y-17711858D02*
X11046628Y-17816620D01*
X11046628Y-17711858D02*
X11056152Y-17692810D01*
X11056152Y-17692810D02*
X11075200Y-17683286D01*
X11075200Y-17683286D02*
X11103771Y-17683286D01*
X11103771Y-17683286D02*
X11122819Y-17692810D01*
X11122819Y-17692810D02*
X11132343Y-17711858D01*
X11132343Y-17711858D02*
X11132343Y-17816620D01*
X11227581Y-17816620D02*
X11227581Y-17683286D01*
X11227581Y-17702334D02*
X11237104Y-17692810D01*
X11237104Y-17692810D02*
X11256152Y-17683286D01*
X11256152Y-17683286D02*
X11284724Y-17683286D01*
X11284724Y-17683286D02*
X11303771Y-17692810D01*
X11303771Y-17692810D02*
X11313295Y-17711858D01*
X11313295Y-17711858D02*
X11313295Y-17816620D01*
X11313295Y-17711858D02*
X11322819Y-17692810D01*
X11322819Y-17692810D02*
X11341866Y-17683286D01*
X11341866Y-17683286D02*
X11370438Y-17683286D01*
X11370438Y-17683286D02*
X11389485Y-17692810D01*
X11389485Y-17692810D02*
X11399009Y-17711858D01*
X11399009Y-17711858D02*
X11399009Y-17816620D01*
X11789485Y-17607096D02*
X11618057Y-17864239D01*
X12046628Y-17616620D02*
X12065676Y-17616620D01*
X12065676Y-17616620D02*
X12084724Y-17626143D01*
X12084724Y-17626143D02*
X12094247Y-17635667D01*
X12094247Y-17635667D02*
X12103771Y-17654715D01*
X12103771Y-17654715D02*
X12113295Y-17692810D01*
X12113295Y-17692810D02*
X12113295Y-17740429D01*
X12113295Y-17740429D02*
X12103771Y-17778524D01*
X12103771Y-17778524D02*
X12094247Y-17797572D01*
X12094247Y-17797572D02*
X12084724Y-17807096D01*
X12084724Y-17807096D02*
X12065676Y-17816620D01*
X12065676Y-17816620D02*
X12046628Y-17816620D01*
X12046628Y-17816620D02*
X12027581Y-17807096D01*
X12027581Y-17807096D02*
X12018057Y-17797572D01*
X12018057Y-17797572D02*
X12008533Y-17778524D01*
X12008533Y-17778524D02*
X11999009Y-17740429D01*
X11999009Y-17740429D02*
X11999009Y-17692810D01*
X11999009Y-17692810D02*
X12008533Y-17654715D01*
X12008533Y-17654715D02*
X12018057Y-17635667D01*
X12018057Y-17635667D02*
X12027581Y-17626143D01*
X12027581Y-17626143D02*
X12046628Y-17616620D01*
X12199009Y-17797572D02*
X12208533Y-17807096D01*
X12208533Y-17807096D02*
X12199009Y-17816620D01*
X12199009Y-17816620D02*
X12189486Y-17807096D01*
X12189486Y-17807096D02*
X12199009Y-17797572D01*
X12199009Y-17797572D02*
X12199009Y-17816620D01*
X12332343Y-17616620D02*
X12351390Y-17616620D01*
X12351390Y-17616620D02*
X12370438Y-17626143D01*
X12370438Y-17626143D02*
X12379962Y-17635667D01*
X12379962Y-17635667D02*
X12389486Y-17654715D01*
X12389486Y-17654715D02*
X12399009Y-17692810D01*
X12399009Y-17692810D02*
X12399009Y-17740429D01*
X12399009Y-17740429D02*
X12389486Y-17778524D01*
X12389486Y-17778524D02*
X12379962Y-17797572D01*
X12379962Y-17797572D02*
X12370438Y-17807096D01*
X12370438Y-17807096D02*
X12351390Y-17816620D01*
X12351390Y-17816620D02*
X12332343Y-17816620D01*
X12332343Y-17816620D02*
X12313295Y-17807096D01*
X12313295Y-17807096D02*
X12303771Y-17797572D01*
X12303771Y-17797572D02*
X12294247Y-17778524D01*
X12294247Y-17778524D02*
X12284724Y-17740429D01*
X12284724Y-17740429D02*
X12284724Y-17692810D01*
X12284724Y-17692810D02*
X12294247Y-17654715D01*
X12294247Y-17654715D02*
X12303771Y-17635667D01*
X12303771Y-17635667D02*
X12313295Y-17626143D01*
X12313295Y-17626143D02*
X12332343Y-17616620D01*
X12570438Y-17683286D02*
X12570438Y-17816620D01*
X12522819Y-17607096D02*
X12475200Y-17749953D01*
X12475200Y-17749953D02*
X12599009Y-17749953D01*
X12656152Y-17616620D02*
X12779962Y-17616620D01*
X12779962Y-17616620D02*
X12713295Y-17692810D01*
X12713295Y-17692810D02*
X12741867Y-17692810D01*
X12741867Y-17692810D02*
X12760914Y-17702334D01*
X12760914Y-17702334D02*
X12770438Y-17711858D01*
X12770438Y-17711858D02*
X12779962Y-17730905D01*
X12779962Y-17730905D02*
X12779962Y-17778524D01*
X12779962Y-17778524D02*
X12770438Y-17797572D01*
X12770438Y-17797572D02*
X12760914Y-17807096D01*
X12760914Y-17807096D02*
X12741867Y-17816620D01*
X12741867Y-17816620D02*
X12684724Y-17816620D01*
X12684724Y-17816620D02*
X12665676Y-17807096D01*
X12665676Y-17807096D02*
X12656152Y-17797572D01*
X12846628Y-17616620D02*
X12970438Y-17616620D01*
X12970438Y-17616620D02*
X12903771Y-17692810D01*
X12903771Y-17692810D02*
X12932343Y-17692810D01*
X12932343Y-17692810D02*
X12951390Y-17702334D01*
X12951390Y-17702334D02*
X12960914Y-17711858D01*
X12960914Y-17711858D02*
X12970438Y-17730905D01*
X12970438Y-17730905D02*
X12970438Y-17778524D01*
X12970438Y-17778524D02*
X12960914Y-17797572D01*
X12960914Y-17797572D02*
X12951390Y-17807096D01*
X12951390Y-17807096D02*
X12932343Y-17816620D01*
X12932343Y-17816620D02*
X12875200Y-17816620D01*
X12875200Y-17816620D02*
X12856152Y-17807096D01*
X12856152Y-17807096D02*
X12846628Y-17797572D01*
X13046628Y-17616620D02*
X13046628Y-17654715D01*
X13122819Y-17616620D02*
X13122819Y-17654715D01*
X13418057Y-17892810D02*
X13408533Y-17883286D01*
X13408533Y-17883286D02*
X13389486Y-17854715D01*
X13389486Y-17854715D02*
X13379962Y-17835667D01*
X13379962Y-17835667D02*
X13370438Y-17807096D01*
X13370438Y-17807096D02*
X13360914Y-17759477D01*
X13360914Y-17759477D02*
X13360914Y-17721381D01*
X13360914Y-17721381D02*
X13370438Y-17673762D01*
X13370438Y-17673762D02*
X13379962Y-17645191D01*
X13379962Y-17645191D02*
X13389486Y-17626143D01*
X13389486Y-17626143D02*
X13408533Y-17597572D01*
X13408533Y-17597572D02*
X13418057Y-17588048D01*
X13599009Y-17816620D02*
X13484724Y-17816620D01*
X13541867Y-17816620D02*
X13541867Y-17616620D01*
X13541867Y-17616620D02*
X13522819Y-17645191D01*
X13522819Y-17645191D02*
X13503771Y-17664239D01*
X13503771Y-17664239D02*
X13484724Y-17673762D01*
X13770438Y-17616620D02*
X13732343Y-17616620D01*
X13732343Y-17616620D02*
X13713295Y-17626143D01*
X13713295Y-17626143D02*
X13703771Y-17635667D01*
X13703771Y-17635667D02*
X13684724Y-17664239D01*
X13684724Y-17664239D02*
X13675200Y-17702334D01*
X13675200Y-17702334D02*
X13675200Y-17778524D01*
X13675200Y-17778524D02*
X13684724Y-17797572D01*
X13684724Y-17797572D02*
X13694248Y-17807096D01*
X13694248Y-17807096D02*
X13713295Y-17816620D01*
X13713295Y-17816620D02*
X13751390Y-17816620D01*
X13751390Y-17816620D02*
X13770438Y-17807096D01*
X13770438Y-17807096D02*
X13779962Y-17797572D01*
X13779962Y-17797572D02*
X13789486Y-17778524D01*
X13789486Y-17778524D02*
X13789486Y-17730905D01*
X13789486Y-17730905D02*
X13779962Y-17711858D01*
X13779962Y-17711858D02*
X13770438Y-17702334D01*
X13770438Y-17702334D02*
X13751390Y-17692810D01*
X13751390Y-17692810D02*
X13713295Y-17692810D01*
X13713295Y-17692810D02*
X13694248Y-17702334D01*
X13694248Y-17702334D02*
X13684724Y-17711858D01*
X13684724Y-17711858D02*
X13675200Y-17730905D01*
X14027581Y-17816620D02*
X14027581Y-17616620D01*
X14113295Y-17816620D02*
X14113295Y-17711858D01*
X14113295Y-17711858D02*
X14103771Y-17692810D01*
X14103771Y-17692810D02*
X14084724Y-17683286D01*
X14084724Y-17683286D02*
X14056152Y-17683286D01*
X14056152Y-17683286D02*
X14037105Y-17692810D01*
X14037105Y-17692810D02*
X14027581Y-17702334D01*
X14237105Y-17816620D02*
X14218057Y-17807096D01*
X14218057Y-17807096D02*
X14208533Y-17797572D01*
X14208533Y-17797572D02*
X14199010Y-17778524D01*
X14199010Y-17778524D02*
X14199010Y-17721381D01*
X14199010Y-17721381D02*
X14208533Y-17702334D01*
X14208533Y-17702334D02*
X14218057Y-17692810D01*
X14218057Y-17692810D02*
X14237105Y-17683286D01*
X14237105Y-17683286D02*
X14265676Y-17683286D01*
X14265676Y-17683286D02*
X14284724Y-17692810D01*
X14284724Y-17692810D02*
X14294248Y-17702334D01*
X14294248Y-17702334D02*
X14303771Y-17721381D01*
X14303771Y-17721381D02*
X14303771Y-17778524D01*
X14303771Y-17778524D02*
X14294248Y-17797572D01*
X14294248Y-17797572D02*
X14284724Y-17807096D01*
X14284724Y-17807096D02*
X14265676Y-17816620D01*
X14265676Y-17816620D02*
X14237105Y-17816620D01*
X14418057Y-17816620D02*
X14399010Y-17807096D01*
X14399010Y-17807096D02*
X14389486Y-17788048D01*
X14389486Y-17788048D02*
X14389486Y-17616620D01*
X14570438Y-17807096D02*
X14551391Y-17816620D01*
X14551391Y-17816620D02*
X14513295Y-17816620D01*
X14513295Y-17816620D02*
X14494248Y-17807096D01*
X14494248Y-17807096D02*
X14484724Y-17788048D01*
X14484724Y-17788048D02*
X14484724Y-17711858D01*
X14484724Y-17711858D02*
X14494248Y-17692810D01*
X14494248Y-17692810D02*
X14513295Y-17683286D01*
X14513295Y-17683286D02*
X14551391Y-17683286D01*
X14551391Y-17683286D02*
X14570438Y-17692810D01*
X14570438Y-17692810D02*
X14579962Y-17711858D01*
X14579962Y-17711858D02*
X14579962Y-17730905D01*
X14579962Y-17730905D02*
X14484724Y-17749953D01*
X14656152Y-17807096D02*
X14675200Y-17816620D01*
X14675200Y-17816620D02*
X14713295Y-17816620D01*
X14713295Y-17816620D02*
X14732343Y-17807096D01*
X14732343Y-17807096D02*
X14741867Y-17788048D01*
X14741867Y-17788048D02*
X14741867Y-17778524D01*
X14741867Y-17778524D02*
X14732343Y-17759477D01*
X14732343Y-17759477D02*
X14713295Y-17749953D01*
X14713295Y-17749953D02*
X14684724Y-17749953D01*
X14684724Y-17749953D02*
X14665676Y-17740429D01*
X14665676Y-17740429D02*
X14656152Y-17721381D01*
X14656152Y-17721381D02*
X14656152Y-17711858D01*
X14656152Y-17711858D02*
X14665676Y-17692810D01*
X14665676Y-17692810D02*
X14684724Y-17683286D01*
X14684724Y-17683286D02*
X14713295Y-17683286D01*
X14713295Y-17683286D02*
X14732343Y-17692810D01*
X14808533Y-17892810D02*
X14818057Y-17883286D01*
X14818057Y-17883286D02*
X14837105Y-17854715D01*
X14837105Y-17854715D02*
X14846629Y-17835667D01*
X14846629Y-17835667D02*
X14856152Y-17807096D01*
X14856152Y-17807096D02*
X14865676Y-17759477D01*
X14865676Y-17759477D02*
X14865676Y-17721381D01*
X14865676Y-17721381D02*
X14856152Y-17673762D01*
X14856152Y-17673762D02*
X14846629Y-17645191D01*
X14846629Y-17645191D02*
X14837105Y-17626143D01*
X14837105Y-17626143D02*
X14818057Y-17597572D01*
X14818057Y-17597572D02*
X14808533Y-17588048D01*
D15*
X9715994Y-17925636D02*
X9842994Y-18052636D01*
X9842994Y-17925636D02*
X9715994Y-18052636D01*
X9824396Y-18034037D02*
X9824396Y-17944234D01*
X9734593Y-17944234D01*
X9734593Y-18034037D01*
X9824396Y-18034037D01*
D11*
X10208533Y-18080620D02*
X10094247Y-18080620D01*
X10151390Y-18080620D02*
X10151390Y-17880620D01*
X10151390Y-17880620D02*
X10132343Y-17909191D01*
X10132343Y-17909191D02*
X10113295Y-17928239D01*
X10113295Y-17928239D02*
X10094247Y-17937762D01*
X10294247Y-18061572D02*
X10303771Y-18071096D01*
X10303771Y-18071096D02*
X10294247Y-18080620D01*
X10294247Y-18080620D02*
X10284724Y-18071096D01*
X10284724Y-18071096D02*
X10294247Y-18061572D01*
X10294247Y-18061572D02*
X10294247Y-18080620D01*
X10379962Y-17899667D02*
X10389485Y-17890143D01*
X10389485Y-17890143D02*
X10408533Y-17880620D01*
X10408533Y-17880620D02*
X10456152Y-17880620D01*
X10456152Y-17880620D02*
X10475200Y-17890143D01*
X10475200Y-17890143D02*
X10484724Y-17899667D01*
X10484724Y-17899667D02*
X10494247Y-17918715D01*
X10494247Y-17918715D02*
X10494247Y-17937762D01*
X10494247Y-17937762D02*
X10484724Y-17966334D01*
X10484724Y-17966334D02*
X10370438Y-18080620D01*
X10370438Y-18080620D02*
X10494247Y-18080620D01*
X10560914Y-17880620D02*
X10694247Y-17880620D01*
X10694247Y-17880620D02*
X10608533Y-18080620D01*
X10808533Y-17880620D02*
X10827581Y-17880620D01*
X10827581Y-17880620D02*
X10846628Y-17890143D01*
X10846628Y-17890143D02*
X10856152Y-17899667D01*
X10856152Y-17899667D02*
X10865676Y-17918715D01*
X10865676Y-17918715D02*
X10875200Y-17956810D01*
X10875200Y-17956810D02*
X10875200Y-18004429D01*
X10875200Y-18004429D02*
X10865676Y-18042524D01*
X10865676Y-18042524D02*
X10856152Y-18061572D01*
X10856152Y-18061572D02*
X10846628Y-18071096D01*
X10846628Y-18071096D02*
X10827581Y-18080620D01*
X10827581Y-18080620D02*
X10808533Y-18080620D01*
X10808533Y-18080620D02*
X10789485Y-18071096D01*
X10789485Y-18071096D02*
X10779962Y-18061572D01*
X10779962Y-18061572D02*
X10770438Y-18042524D01*
X10770438Y-18042524D02*
X10760914Y-18004429D01*
X10760914Y-18004429D02*
X10760914Y-17956810D01*
X10760914Y-17956810D02*
X10770438Y-17918715D01*
X10770438Y-17918715D02*
X10779962Y-17899667D01*
X10779962Y-17899667D02*
X10789485Y-17890143D01*
X10789485Y-17890143D02*
X10808533Y-17880620D01*
X10960914Y-18080620D02*
X10960914Y-17947286D01*
X10960914Y-17966334D02*
X10970438Y-17956810D01*
X10970438Y-17956810D02*
X10989485Y-17947286D01*
X10989485Y-17947286D02*
X11018057Y-17947286D01*
X11018057Y-17947286D02*
X11037105Y-17956810D01*
X11037105Y-17956810D02*
X11046628Y-17975858D01*
X11046628Y-17975858D02*
X11046628Y-18080620D01*
X11046628Y-17975858D02*
X11056152Y-17956810D01*
X11056152Y-17956810D02*
X11075200Y-17947286D01*
X11075200Y-17947286D02*
X11103771Y-17947286D01*
X11103771Y-17947286D02*
X11122819Y-17956810D01*
X11122819Y-17956810D02*
X11132343Y-17975858D01*
X11132343Y-17975858D02*
X11132343Y-18080620D01*
X11227581Y-18080620D02*
X11227581Y-17947286D01*
X11227581Y-17966334D02*
X11237104Y-17956810D01*
X11237104Y-17956810D02*
X11256152Y-17947286D01*
X11256152Y-17947286D02*
X11284724Y-17947286D01*
X11284724Y-17947286D02*
X11303771Y-17956810D01*
X11303771Y-17956810D02*
X11313295Y-17975858D01*
X11313295Y-17975858D02*
X11313295Y-18080620D01*
X11313295Y-17975858D02*
X11322819Y-17956810D01*
X11322819Y-17956810D02*
X11341866Y-17947286D01*
X11341866Y-17947286D02*
X11370438Y-17947286D01*
X11370438Y-17947286D02*
X11389485Y-17956810D01*
X11389485Y-17956810D02*
X11399009Y-17975858D01*
X11399009Y-17975858D02*
X11399009Y-18080620D01*
X11789485Y-17871096D02*
X11618057Y-18128239D01*
X12046628Y-17880620D02*
X12065676Y-17880620D01*
X12065676Y-17880620D02*
X12084724Y-17890143D01*
X12084724Y-17890143D02*
X12094247Y-17899667D01*
X12094247Y-17899667D02*
X12103771Y-17918715D01*
X12103771Y-17918715D02*
X12113295Y-17956810D01*
X12113295Y-17956810D02*
X12113295Y-18004429D01*
X12113295Y-18004429D02*
X12103771Y-18042524D01*
X12103771Y-18042524D02*
X12094247Y-18061572D01*
X12094247Y-18061572D02*
X12084724Y-18071096D01*
X12084724Y-18071096D02*
X12065676Y-18080620D01*
X12065676Y-18080620D02*
X12046628Y-18080620D01*
X12046628Y-18080620D02*
X12027581Y-18071096D01*
X12027581Y-18071096D02*
X12018057Y-18061572D01*
X12018057Y-18061572D02*
X12008533Y-18042524D01*
X12008533Y-18042524D02*
X11999009Y-18004429D01*
X11999009Y-18004429D02*
X11999009Y-17956810D01*
X11999009Y-17956810D02*
X12008533Y-17918715D01*
X12008533Y-17918715D02*
X12018057Y-17899667D01*
X12018057Y-17899667D02*
X12027581Y-17890143D01*
X12027581Y-17890143D02*
X12046628Y-17880620D01*
X12199009Y-18061572D02*
X12208533Y-18071096D01*
X12208533Y-18071096D02*
X12199009Y-18080620D01*
X12199009Y-18080620D02*
X12189486Y-18071096D01*
X12189486Y-18071096D02*
X12199009Y-18061572D01*
X12199009Y-18061572D02*
X12199009Y-18080620D01*
X12332343Y-17880620D02*
X12351390Y-17880620D01*
X12351390Y-17880620D02*
X12370438Y-17890143D01*
X12370438Y-17890143D02*
X12379962Y-17899667D01*
X12379962Y-17899667D02*
X12389486Y-17918715D01*
X12389486Y-17918715D02*
X12399009Y-17956810D01*
X12399009Y-17956810D02*
X12399009Y-18004429D01*
X12399009Y-18004429D02*
X12389486Y-18042524D01*
X12389486Y-18042524D02*
X12379962Y-18061572D01*
X12379962Y-18061572D02*
X12370438Y-18071096D01*
X12370438Y-18071096D02*
X12351390Y-18080620D01*
X12351390Y-18080620D02*
X12332343Y-18080620D01*
X12332343Y-18080620D02*
X12313295Y-18071096D01*
X12313295Y-18071096D02*
X12303771Y-18061572D01*
X12303771Y-18061572D02*
X12294247Y-18042524D01*
X12294247Y-18042524D02*
X12284724Y-18004429D01*
X12284724Y-18004429D02*
X12284724Y-17956810D01*
X12284724Y-17956810D02*
X12294247Y-17918715D01*
X12294247Y-17918715D02*
X12303771Y-17899667D01*
X12303771Y-17899667D02*
X12313295Y-17890143D01*
X12313295Y-17890143D02*
X12332343Y-17880620D01*
X12579962Y-17880620D02*
X12484724Y-17880620D01*
X12484724Y-17880620D02*
X12475200Y-17975858D01*
X12475200Y-17975858D02*
X12484724Y-17966334D01*
X12484724Y-17966334D02*
X12503771Y-17956810D01*
X12503771Y-17956810D02*
X12551390Y-17956810D01*
X12551390Y-17956810D02*
X12570438Y-17966334D01*
X12570438Y-17966334D02*
X12579962Y-17975858D01*
X12579962Y-17975858D02*
X12589486Y-17994905D01*
X12589486Y-17994905D02*
X12589486Y-18042524D01*
X12589486Y-18042524D02*
X12579962Y-18061572D01*
X12579962Y-18061572D02*
X12570438Y-18071096D01*
X12570438Y-18071096D02*
X12551390Y-18080620D01*
X12551390Y-18080620D02*
X12503771Y-18080620D01*
X12503771Y-18080620D02*
X12484724Y-18071096D01*
X12484724Y-18071096D02*
X12475200Y-18061572D01*
X12713295Y-17880620D02*
X12732343Y-17880620D01*
X12732343Y-17880620D02*
X12751390Y-17890143D01*
X12751390Y-17890143D02*
X12760914Y-17899667D01*
X12760914Y-17899667D02*
X12770438Y-17918715D01*
X12770438Y-17918715D02*
X12779962Y-17956810D01*
X12779962Y-17956810D02*
X12779962Y-18004429D01*
X12779962Y-18004429D02*
X12770438Y-18042524D01*
X12770438Y-18042524D02*
X12760914Y-18061572D01*
X12760914Y-18061572D02*
X12751390Y-18071096D01*
X12751390Y-18071096D02*
X12732343Y-18080620D01*
X12732343Y-18080620D02*
X12713295Y-18080620D01*
X12713295Y-18080620D02*
X12694247Y-18071096D01*
X12694247Y-18071096D02*
X12684724Y-18061572D01*
X12684724Y-18061572D02*
X12675200Y-18042524D01*
X12675200Y-18042524D02*
X12665676Y-18004429D01*
X12665676Y-18004429D02*
X12665676Y-17956810D01*
X12665676Y-17956810D02*
X12675200Y-17918715D01*
X12675200Y-17918715D02*
X12684724Y-17899667D01*
X12684724Y-17899667D02*
X12694247Y-17890143D01*
X12694247Y-17890143D02*
X12713295Y-17880620D01*
X12903771Y-17880620D02*
X12922819Y-17880620D01*
X12922819Y-17880620D02*
X12941867Y-17890143D01*
X12941867Y-17890143D02*
X12951390Y-17899667D01*
X12951390Y-17899667D02*
X12960914Y-17918715D01*
X12960914Y-17918715D02*
X12970438Y-17956810D01*
X12970438Y-17956810D02*
X12970438Y-18004429D01*
X12970438Y-18004429D02*
X12960914Y-18042524D01*
X12960914Y-18042524D02*
X12951390Y-18061572D01*
X12951390Y-18061572D02*
X12941867Y-18071096D01*
X12941867Y-18071096D02*
X12922819Y-18080620D01*
X12922819Y-18080620D02*
X12903771Y-18080620D01*
X12903771Y-18080620D02*
X12884724Y-18071096D01*
X12884724Y-18071096D02*
X12875200Y-18061572D01*
X12875200Y-18061572D02*
X12865676Y-18042524D01*
X12865676Y-18042524D02*
X12856152Y-18004429D01*
X12856152Y-18004429D02*
X12856152Y-17956810D01*
X12856152Y-17956810D02*
X12865676Y-17918715D01*
X12865676Y-17918715D02*
X12875200Y-17899667D01*
X12875200Y-17899667D02*
X12884724Y-17890143D01*
X12884724Y-17890143D02*
X12903771Y-17880620D01*
X13046628Y-17880620D02*
X13046628Y-17918715D01*
X13122819Y-17880620D02*
X13122819Y-17918715D01*
X13418057Y-18156810D02*
X13408533Y-18147286D01*
X13408533Y-18147286D02*
X13389486Y-18118715D01*
X13389486Y-18118715D02*
X13379962Y-18099667D01*
X13379962Y-18099667D02*
X13370438Y-18071096D01*
X13370438Y-18071096D02*
X13360914Y-18023477D01*
X13360914Y-18023477D02*
X13360914Y-17985381D01*
X13360914Y-17985381D02*
X13370438Y-17937762D01*
X13370438Y-17937762D02*
X13379962Y-17909191D01*
X13379962Y-17909191D02*
X13389486Y-17890143D01*
X13389486Y-17890143D02*
X13408533Y-17861572D01*
X13408533Y-17861572D02*
X13418057Y-17852048D01*
X13532343Y-17880620D02*
X13551390Y-17880620D01*
X13551390Y-17880620D02*
X13570438Y-17890143D01*
X13570438Y-17890143D02*
X13579962Y-17899667D01*
X13579962Y-17899667D02*
X13589486Y-17918715D01*
X13589486Y-17918715D02*
X13599009Y-17956810D01*
X13599009Y-17956810D02*
X13599009Y-18004429D01*
X13599009Y-18004429D02*
X13589486Y-18042524D01*
X13589486Y-18042524D02*
X13579962Y-18061572D01*
X13579962Y-18061572D02*
X13570438Y-18071096D01*
X13570438Y-18071096D02*
X13551390Y-18080620D01*
X13551390Y-18080620D02*
X13532343Y-18080620D01*
X13532343Y-18080620D02*
X13513295Y-18071096D01*
X13513295Y-18071096D02*
X13503771Y-18061572D01*
X13503771Y-18061572D02*
X13494248Y-18042524D01*
X13494248Y-18042524D02*
X13484724Y-18004429D01*
X13484724Y-18004429D02*
X13484724Y-17956810D01*
X13484724Y-17956810D02*
X13494248Y-17918715D01*
X13494248Y-17918715D02*
X13503771Y-17899667D01*
X13503771Y-17899667D02*
X13513295Y-17890143D01*
X13513295Y-17890143D02*
X13532343Y-17880620D01*
X13837105Y-18080620D02*
X13837105Y-17880620D01*
X13922819Y-18080620D02*
X13922819Y-17975858D01*
X13922819Y-17975858D02*
X13913295Y-17956810D01*
X13913295Y-17956810D02*
X13894248Y-17947286D01*
X13894248Y-17947286D02*
X13865676Y-17947286D01*
X13865676Y-17947286D02*
X13846629Y-17956810D01*
X13846629Y-17956810D02*
X13837105Y-17966334D01*
X14046629Y-18080620D02*
X14027581Y-18071096D01*
X14027581Y-18071096D02*
X14018057Y-18061572D01*
X14018057Y-18061572D02*
X14008533Y-18042524D01*
X14008533Y-18042524D02*
X14008533Y-17985381D01*
X14008533Y-17985381D02*
X14018057Y-17966334D01*
X14018057Y-17966334D02*
X14027581Y-17956810D01*
X14027581Y-17956810D02*
X14046629Y-17947286D01*
X14046629Y-17947286D02*
X14075200Y-17947286D01*
X14075200Y-17947286D02*
X14094248Y-17956810D01*
X14094248Y-17956810D02*
X14103771Y-17966334D01*
X14103771Y-17966334D02*
X14113295Y-17985381D01*
X14113295Y-17985381D02*
X14113295Y-18042524D01*
X14113295Y-18042524D02*
X14103771Y-18061572D01*
X14103771Y-18061572D02*
X14094248Y-18071096D01*
X14094248Y-18071096D02*
X14075200Y-18080620D01*
X14075200Y-18080620D02*
X14046629Y-18080620D01*
X14227581Y-18080620D02*
X14208533Y-18071096D01*
X14208533Y-18071096D02*
X14199010Y-18052048D01*
X14199010Y-18052048D02*
X14199010Y-17880620D01*
X14379962Y-18071096D02*
X14360914Y-18080620D01*
X14360914Y-18080620D02*
X14322819Y-18080620D01*
X14322819Y-18080620D02*
X14303771Y-18071096D01*
X14303771Y-18071096D02*
X14294248Y-18052048D01*
X14294248Y-18052048D02*
X14294248Y-17975858D01*
X14294248Y-17975858D02*
X14303771Y-17956810D01*
X14303771Y-17956810D02*
X14322819Y-17947286D01*
X14322819Y-17947286D02*
X14360914Y-17947286D01*
X14360914Y-17947286D02*
X14379962Y-17956810D01*
X14379962Y-17956810D02*
X14389486Y-17975858D01*
X14389486Y-17975858D02*
X14389486Y-17994905D01*
X14389486Y-17994905D02*
X14294248Y-18013953D01*
X14465676Y-18071096D02*
X14484724Y-18080620D01*
X14484724Y-18080620D02*
X14522819Y-18080620D01*
X14522819Y-18080620D02*
X14541867Y-18071096D01*
X14541867Y-18071096D02*
X14551391Y-18052048D01*
X14551391Y-18052048D02*
X14551391Y-18042524D01*
X14551391Y-18042524D02*
X14541867Y-18023477D01*
X14541867Y-18023477D02*
X14522819Y-18013953D01*
X14522819Y-18013953D02*
X14494248Y-18013953D01*
X14494248Y-18013953D02*
X14475200Y-18004429D01*
X14475200Y-18004429D02*
X14465676Y-17985381D01*
X14465676Y-17985381D02*
X14465676Y-17975858D01*
X14465676Y-17975858D02*
X14475200Y-17956810D01*
X14475200Y-17956810D02*
X14494248Y-17947286D01*
X14494248Y-17947286D02*
X14522819Y-17947286D01*
X14522819Y-17947286D02*
X14541867Y-17956810D01*
X14789486Y-18004429D02*
X14941867Y-18004429D01*
X14865676Y-18080620D02*
X14865676Y-17928239D01*
X15170438Y-17880620D02*
X15294248Y-17880620D01*
X15294248Y-17880620D02*
X15227581Y-17956810D01*
X15227581Y-17956810D02*
X15256153Y-17956810D01*
X15256153Y-17956810D02*
X15275200Y-17966334D01*
X15275200Y-17966334D02*
X15284724Y-17975858D01*
X15284724Y-17975858D02*
X15294248Y-17994905D01*
X15294248Y-17994905D02*
X15294248Y-18042524D01*
X15294248Y-18042524D02*
X15284724Y-18061572D01*
X15284724Y-18061572D02*
X15275200Y-18071096D01*
X15275200Y-18071096D02*
X15256153Y-18080620D01*
X15256153Y-18080620D02*
X15199010Y-18080620D01*
X15199010Y-18080620D02*
X15179962Y-18071096D01*
X15179962Y-18071096D02*
X15170438Y-18061572D01*
X15522819Y-18071096D02*
X15541867Y-18080620D01*
X15541867Y-18080620D02*
X15579962Y-18080620D01*
X15579962Y-18080620D02*
X15599010Y-18071096D01*
X15599010Y-18071096D02*
X15608534Y-18052048D01*
X15608534Y-18052048D02*
X15608534Y-18042524D01*
X15608534Y-18042524D02*
X15599010Y-18023477D01*
X15599010Y-18023477D02*
X15579962Y-18013953D01*
X15579962Y-18013953D02*
X15551391Y-18013953D01*
X15551391Y-18013953D02*
X15532343Y-18004429D01*
X15532343Y-18004429D02*
X15522819Y-17985381D01*
X15522819Y-17985381D02*
X15522819Y-17975858D01*
X15522819Y-17975858D02*
X15532343Y-17956810D01*
X15532343Y-17956810D02*
X15551391Y-17947286D01*
X15551391Y-17947286D02*
X15579962Y-17947286D01*
X15579962Y-17947286D02*
X15599010Y-17956810D01*
X15722819Y-18080620D02*
X15703772Y-18071096D01*
X15703772Y-18071096D02*
X15694248Y-18052048D01*
X15694248Y-18052048D02*
X15694248Y-17880620D01*
X15827581Y-18080620D02*
X15808534Y-18071096D01*
X15808534Y-18071096D02*
X15799010Y-18061572D01*
X15799010Y-18061572D02*
X15789486Y-18042524D01*
X15789486Y-18042524D02*
X15789486Y-17985381D01*
X15789486Y-17985381D02*
X15799010Y-17966334D01*
X15799010Y-17966334D02*
X15808534Y-17956810D01*
X15808534Y-17956810D02*
X15827581Y-17947286D01*
X15827581Y-17947286D02*
X15856153Y-17947286D01*
X15856153Y-17947286D02*
X15875200Y-17956810D01*
X15875200Y-17956810D02*
X15884724Y-17966334D01*
X15884724Y-17966334D02*
X15894248Y-17985381D01*
X15894248Y-17985381D02*
X15894248Y-18042524D01*
X15894248Y-18042524D02*
X15884724Y-18061572D01*
X15884724Y-18061572D02*
X15875200Y-18071096D01*
X15875200Y-18071096D02*
X15856153Y-18080620D01*
X15856153Y-18080620D02*
X15827581Y-18080620D01*
X15951391Y-17947286D02*
X16027581Y-17947286D01*
X15979962Y-17880620D02*
X15979962Y-18052048D01*
X15979962Y-18052048D02*
X15989486Y-18071096D01*
X15989486Y-18071096D02*
X16008534Y-18080620D01*
X16008534Y-18080620D02*
X16027581Y-18080620D01*
X16084724Y-18071096D02*
X16103772Y-18080620D01*
X16103772Y-18080620D02*
X16141867Y-18080620D01*
X16141867Y-18080620D02*
X16160915Y-18071096D01*
X16160915Y-18071096D02*
X16170438Y-18052048D01*
X16170438Y-18052048D02*
X16170438Y-18042524D01*
X16170438Y-18042524D02*
X16160915Y-18023477D01*
X16160915Y-18023477D02*
X16141867Y-18013953D01*
X16141867Y-18013953D02*
X16113295Y-18013953D01*
X16113295Y-18013953D02*
X16094248Y-18004429D01*
X16094248Y-18004429D02*
X16084724Y-17985381D01*
X16084724Y-17985381D02*
X16084724Y-17975858D01*
X16084724Y-17975858D02*
X16094248Y-17956810D01*
X16094248Y-17956810D02*
X16113295Y-17947286D01*
X16113295Y-17947286D02*
X16141867Y-17947286D01*
X16141867Y-17947286D02*
X16160915Y-17956810D01*
X16237105Y-18156810D02*
X16246629Y-18147286D01*
X16246629Y-18147286D02*
X16265676Y-18118715D01*
X16265676Y-18118715D02*
X16275200Y-18099667D01*
X16275200Y-18099667D02*
X16284724Y-18071096D01*
X16284724Y-18071096D02*
X16294248Y-18023477D01*
X16294248Y-18023477D02*
X16294248Y-17985381D01*
X16294248Y-17985381D02*
X16284724Y-17937762D01*
X16284724Y-17937762D02*
X16275200Y-17909191D01*
X16275200Y-17909191D02*
X16265676Y-17890143D01*
X16265676Y-17890143D02*
X16246629Y-17861572D01*
X16246629Y-17861572D02*
X16237105Y-17852048D01*
X9642994Y-18153136D02*
X9842994Y-18353136D01*
X9842994Y-18153136D02*
X9642994Y-18353136D01*
X9742994Y-18353136D02*
X9842994Y-18253136D01*
X9742994Y-18153136D01*
X9642994Y-18253136D01*
X9742994Y-18353136D01*
X10084724Y-18144620D02*
X10208533Y-18144620D01*
X10208533Y-18144620D02*
X10141866Y-18220810D01*
X10141866Y-18220810D02*
X10170438Y-18220810D01*
X10170438Y-18220810D02*
X10189485Y-18230334D01*
X10189485Y-18230334D02*
X10199009Y-18239858D01*
X10199009Y-18239858D02*
X10208533Y-18258905D01*
X10208533Y-18258905D02*
X10208533Y-18306524D01*
X10208533Y-18306524D02*
X10199009Y-18325572D01*
X10199009Y-18325572D02*
X10189485Y-18335096D01*
X10189485Y-18335096D02*
X10170438Y-18344620D01*
X10170438Y-18344620D02*
X10113295Y-18344620D01*
X10113295Y-18344620D02*
X10094247Y-18335096D01*
X10094247Y-18335096D02*
X10084724Y-18325572D01*
X10294247Y-18325572D02*
X10303771Y-18335096D01*
X10303771Y-18335096D02*
X10294247Y-18344620D01*
X10294247Y-18344620D02*
X10284724Y-18335096D01*
X10284724Y-18335096D02*
X10294247Y-18325572D01*
X10294247Y-18325572D02*
X10294247Y-18344620D01*
X10484724Y-18144620D02*
X10389485Y-18144620D01*
X10389485Y-18144620D02*
X10379962Y-18239858D01*
X10379962Y-18239858D02*
X10389485Y-18230334D01*
X10389485Y-18230334D02*
X10408533Y-18220810D01*
X10408533Y-18220810D02*
X10456152Y-18220810D01*
X10456152Y-18220810D02*
X10475200Y-18230334D01*
X10475200Y-18230334D02*
X10484724Y-18239858D01*
X10484724Y-18239858D02*
X10494247Y-18258905D01*
X10494247Y-18258905D02*
X10494247Y-18306524D01*
X10494247Y-18306524D02*
X10484724Y-18325572D01*
X10484724Y-18325572D02*
X10475200Y-18335096D01*
X10475200Y-18335096D02*
X10456152Y-18344620D01*
X10456152Y-18344620D02*
X10408533Y-18344620D01*
X10408533Y-18344620D02*
X10389485Y-18335096D01*
X10389485Y-18335096D02*
X10379962Y-18325572D01*
X10618057Y-18144620D02*
X10637105Y-18144620D01*
X10637105Y-18144620D02*
X10656152Y-18154143D01*
X10656152Y-18154143D02*
X10665676Y-18163667D01*
X10665676Y-18163667D02*
X10675200Y-18182715D01*
X10675200Y-18182715D02*
X10684724Y-18220810D01*
X10684724Y-18220810D02*
X10684724Y-18268429D01*
X10684724Y-18268429D02*
X10675200Y-18306524D01*
X10675200Y-18306524D02*
X10665676Y-18325572D01*
X10665676Y-18325572D02*
X10656152Y-18335096D01*
X10656152Y-18335096D02*
X10637105Y-18344620D01*
X10637105Y-18344620D02*
X10618057Y-18344620D01*
X10618057Y-18344620D02*
X10599009Y-18335096D01*
X10599009Y-18335096D02*
X10589485Y-18325572D01*
X10589485Y-18325572D02*
X10579962Y-18306524D01*
X10579962Y-18306524D02*
X10570438Y-18268429D01*
X10570438Y-18268429D02*
X10570438Y-18220810D01*
X10570438Y-18220810D02*
X10579962Y-18182715D01*
X10579962Y-18182715D02*
X10589485Y-18163667D01*
X10589485Y-18163667D02*
X10599009Y-18154143D01*
X10599009Y-18154143D02*
X10618057Y-18144620D01*
X10808533Y-18144620D02*
X10827581Y-18144620D01*
X10827581Y-18144620D02*
X10846628Y-18154143D01*
X10846628Y-18154143D02*
X10856152Y-18163667D01*
X10856152Y-18163667D02*
X10865676Y-18182715D01*
X10865676Y-18182715D02*
X10875200Y-18220810D01*
X10875200Y-18220810D02*
X10875200Y-18268429D01*
X10875200Y-18268429D02*
X10865676Y-18306524D01*
X10865676Y-18306524D02*
X10856152Y-18325572D01*
X10856152Y-18325572D02*
X10846628Y-18335096D01*
X10846628Y-18335096D02*
X10827581Y-18344620D01*
X10827581Y-18344620D02*
X10808533Y-18344620D01*
X10808533Y-18344620D02*
X10789485Y-18335096D01*
X10789485Y-18335096D02*
X10779962Y-18325572D01*
X10779962Y-18325572D02*
X10770438Y-18306524D01*
X10770438Y-18306524D02*
X10760914Y-18268429D01*
X10760914Y-18268429D02*
X10760914Y-18220810D01*
X10760914Y-18220810D02*
X10770438Y-18182715D01*
X10770438Y-18182715D02*
X10779962Y-18163667D01*
X10779962Y-18163667D02*
X10789485Y-18154143D01*
X10789485Y-18154143D02*
X10808533Y-18144620D01*
X10960914Y-18344620D02*
X10960914Y-18211286D01*
X10960914Y-18230334D02*
X10970438Y-18220810D01*
X10970438Y-18220810D02*
X10989485Y-18211286D01*
X10989485Y-18211286D02*
X11018057Y-18211286D01*
X11018057Y-18211286D02*
X11037105Y-18220810D01*
X11037105Y-18220810D02*
X11046628Y-18239858D01*
X11046628Y-18239858D02*
X11046628Y-18344620D01*
X11046628Y-18239858D02*
X11056152Y-18220810D01*
X11056152Y-18220810D02*
X11075200Y-18211286D01*
X11075200Y-18211286D02*
X11103771Y-18211286D01*
X11103771Y-18211286D02*
X11122819Y-18220810D01*
X11122819Y-18220810D02*
X11132343Y-18239858D01*
X11132343Y-18239858D02*
X11132343Y-18344620D01*
X11227581Y-18344620D02*
X11227581Y-18211286D01*
X11227581Y-18230334D02*
X11237104Y-18220810D01*
X11237104Y-18220810D02*
X11256152Y-18211286D01*
X11256152Y-18211286D02*
X11284724Y-18211286D01*
X11284724Y-18211286D02*
X11303771Y-18220810D01*
X11303771Y-18220810D02*
X11313295Y-18239858D01*
X11313295Y-18239858D02*
X11313295Y-18344620D01*
X11313295Y-18239858D02*
X11322819Y-18220810D01*
X11322819Y-18220810D02*
X11341866Y-18211286D01*
X11341866Y-18211286D02*
X11370438Y-18211286D01*
X11370438Y-18211286D02*
X11389485Y-18220810D01*
X11389485Y-18220810D02*
X11399009Y-18239858D01*
X11399009Y-18239858D02*
X11399009Y-18344620D01*
X11789485Y-18135096D02*
X11618057Y-18392239D01*
X12046628Y-18144620D02*
X12065676Y-18144620D01*
X12065676Y-18144620D02*
X12084724Y-18154143D01*
X12084724Y-18154143D02*
X12094247Y-18163667D01*
X12094247Y-18163667D02*
X12103771Y-18182715D01*
X12103771Y-18182715D02*
X12113295Y-18220810D01*
X12113295Y-18220810D02*
X12113295Y-18268429D01*
X12113295Y-18268429D02*
X12103771Y-18306524D01*
X12103771Y-18306524D02*
X12094247Y-18325572D01*
X12094247Y-18325572D02*
X12084724Y-18335096D01*
X12084724Y-18335096D02*
X12065676Y-18344620D01*
X12065676Y-18344620D02*
X12046628Y-18344620D01*
X12046628Y-18344620D02*
X12027581Y-18335096D01*
X12027581Y-18335096D02*
X12018057Y-18325572D01*
X12018057Y-18325572D02*
X12008533Y-18306524D01*
X12008533Y-18306524D02*
X11999009Y-18268429D01*
X11999009Y-18268429D02*
X11999009Y-18220810D01*
X11999009Y-18220810D02*
X12008533Y-18182715D01*
X12008533Y-18182715D02*
X12018057Y-18163667D01*
X12018057Y-18163667D02*
X12027581Y-18154143D01*
X12027581Y-18154143D02*
X12046628Y-18144620D01*
X12199009Y-18325572D02*
X12208533Y-18335096D01*
X12208533Y-18335096D02*
X12199009Y-18344620D01*
X12199009Y-18344620D02*
X12189486Y-18335096D01*
X12189486Y-18335096D02*
X12199009Y-18325572D01*
X12199009Y-18325572D02*
X12199009Y-18344620D01*
X12399009Y-18344620D02*
X12284724Y-18344620D01*
X12341866Y-18344620D02*
X12341866Y-18144620D01*
X12341866Y-18144620D02*
X12322819Y-18173191D01*
X12322819Y-18173191D02*
X12303771Y-18192239D01*
X12303771Y-18192239D02*
X12284724Y-18201762D01*
X12465676Y-18144620D02*
X12589486Y-18144620D01*
X12589486Y-18144620D02*
X12522819Y-18220810D01*
X12522819Y-18220810D02*
X12551390Y-18220810D01*
X12551390Y-18220810D02*
X12570438Y-18230334D01*
X12570438Y-18230334D02*
X12579962Y-18239858D01*
X12579962Y-18239858D02*
X12589486Y-18258905D01*
X12589486Y-18258905D02*
X12589486Y-18306524D01*
X12589486Y-18306524D02*
X12579962Y-18325572D01*
X12579962Y-18325572D02*
X12570438Y-18335096D01*
X12570438Y-18335096D02*
X12551390Y-18344620D01*
X12551390Y-18344620D02*
X12494247Y-18344620D01*
X12494247Y-18344620D02*
X12475200Y-18335096D01*
X12475200Y-18335096D02*
X12465676Y-18325572D01*
X12656152Y-18144620D02*
X12789486Y-18144620D01*
X12789486Y-18144620D02*
X12703771Y-18344620D01*
X12894247Y-18230334D02*
X12875200Y-18220810D01*
X12875200Y-18220810D02*
X12865676Y-18211286D01*
X12865676Y-18211286D02*
X12856152Y-18192239D01*
X12856152Y-18192239D02*
X12856152Y-18182715D01*
X12856152Y-18182715D02*
X12865676Y-18163667D01*
X12865676Y-18163667D02*
X12875200Y-18154143D01*
X12875200Y-18154143D02*
X12894247Y-18144620D01*
X12894247Y-18144620D02*
X12932343Y-18144620D01*
X12932343Y-18144620D02*
X12951390Y-18154143D01*
X12951390Y-18154143D02*
X12960914Y-18163667D01*
X12960914Y-18163667D02*
X12970438Y-18182715D01*
X12970438Y-18182715D02*
X12970438Y-18192239D01*
X12970438Y-18192239D02*
X12960914Y-18211286D01*
X12960914Y-18211286D02*
X12951390Y-18220810D01*
X12951390Y-18220810D02*
X12932343Y-18230334D01*
X12932343Y-18230334D02*
X12894247Y-18230334D01*
X12894247Y-18230334D02*
X12875200Y-18239858D01*
X12875200Y-18239858D02*
X12865676Y-18249381D01*
X12865676Y-18249381D02*
X12856152Y-18268429D01*
X12856152Y-18268429D02*
X12856152Y-18306524D01*
X12856152Y-18306524D02*
X12865676Y-18325572D01*
X12865676Y-18325572D02*
X12875200Y-18335096D01*
X12875200Y-18335096D02*
X12894247Y-18344620D01*
X12894247Y-18344620D02*
X12932343Y-18344620D01*
X12932343Y-18344620D02*
X12951390Y-18335096D01*
X12951390Y-18335096D02*
X12960914Y-18325572D01*
X12960914Y-18325572D02*
X12970438Y-18306524D01*
X12970438Y-18306524D02*
X12970438Y-18268429D01*
X12970438Y-18268429D02*
X12960914Y-18249381D01*
X12960914Y-18249381D02*
X12951390Y-18239858D01*
X12951390Y-18239858D02*
X12932343Y-18230334D01*
X13046628Y-18144620D02*
X13046628Y-18182715D01*
X13122819Y-18144620D02*
X13122819Y-18182715D01*
X13418057Y-18420810D02*
X13408533Y-18411286D01*
X13408533Y-18411286D02*
X13389486Y-18382715D01*
X13389486Y-18382715D02*
X13379962Y-18363667D01*
X13379962Y-18363667D02*
X13370438Y-18335096D01*
X13370438Y-18335096D02*
X13360914Y-18287477D01*
X13360914Y-18287477D02*
X13360914Y-18249381D01*
X13360914Y-18249381D02*
X13370438Y-18201762D01*
X13370438Y-18201762D02*
X13379962Y-18173191D01*
X13379962Y-18173191D02*
X13389486Y-18154143D01*
X13389486Y-18154143D02*
X13408533Y-18125572D01*
X13408533Y-18125572D02*
X13418057Y-18116048D01*
X13484724Y-18163667D02*
X13494248Y-18154143D01*
X13494248Y-18154143D02*
X13513295Y-18144620D01*
X13513295Y-18144620D02*
X13560914Y-18144620D01*
X13560914Y-18144620D02*
X13579962Y-18154143D01*
X13579962Y-18154143D02*
X13589486Y-18163667D01*
X13589486Y-18163667D02*
X13599009Y-18182715D01*
X13599009Y-18182715D02*
X13599009Y-18201762D01*
X13599009Y-18201762D02*
X13589486Y-18230334D01*
X13589486Y-18230334D02*
X13475200Y-18344620D01*
X13475200Y-18344620D02*
X13599009Y-18344620D01*
X13837105Y-18344620D02*
X13837105Y-18144620D01*
X13922819Y-18344620D02*
X13922819Y-18239858D01*
X13922819Y-18239858D02*
X13913295Y-18220810D01*
X13913295Y-18220810D02*
X13894248Y-18211286D01*
X13894248Y-18211286D02*
X13865676Y-18211286D01*
X13865676Y-18211286D02*
X13846629Y-18220810D01*
X13846629Y-18220810D02*
X13837105Y-18230334D01*
X14046629Y-18344620D02*
X14027581Y-18335096D01*
X14027581Y-18335096D02*
X14018057Y-18325572D01*
X14018057Y-18325572D02*
X14008533Y-18306524D01*
X14008533Y-18306524D02*
X14008533Y-18249381D01*
X14008533Y-18249381D02*
X14018057Y-18230334D01*
X14018057Y-18230334D02*
X14027581Y-18220810D01*
X14027581Y-18220810D02*
X14046629Y-18211286D01*
X14046629Y-18211286D02*
X14075200Y-18211286D01*
X14075200Y-18211286D02*
X14094248Y-18220810D01*
X14094248Y-18220810D02*
X14103771Y-18230334D01*
X14103771Y-18230334D02*
X14113295Y-18249381D01*
X14113295Y-18249381D02*
X14113295Y-18306524D01*
X14113295Y-18306524D02*
X14103771Y-18325572D01*
X14103771Y-18325572D02*
X14094248Y-18335096D01*
X14094248Y-18335096D02*
X14075200Y-18344620D01*
X14075200Y-18344620D02*
X14046629Y-18344620D01*
X14227581Y-18344620D02*
X14208533Y-18335096D01*
X14208533Y-18335096D02*
X14199010Y-18316048D01*
X14199010Y-18316048D02*
X14199010Y-18144620D01*
X14379962Y-18335096D02*
X14360914Y-18344620D01*
X14360914Y-18344620D02*
X14322819Y-18344620D01*
X14322819Y-18344620D02*
X14303771Y-18335096D01*
X14303771Y-18335096D02*
X14294248Y-18316048D01*
X14294248Y-18316048D02*
X14294248Y-18239858D01*
X14294248Y-18239858D02*
X14303771Y-18220810D01*
X14303771Y-18220810D02*
X14322819Y-18211286D01*
X14322819Y-18211286D02*
X14360914Y-18211286D01*
X14360914Y-18211286D02*
X14379962Y-18220810D01*
X14379962Y-18220810D02*
X14389486Y-18239858D01*
X14389486Y-18239858D02*
X14389486Y-18258905D01*
X14389486Y-18258905D02*
X14294248Y-18277953D01*
X14465676Y-18335096D02*
X14484724Y-18344620D01*
X14484724Y-18344620D02*
X14522819Y-18344620D01*
X14522819Y-18344620D02*
X14541867Y-18335096D01*
X14541867Y-18335096D02*
X14551391Y-18316048D01*
X14551391Y-18316048D02*
X14551391Y-18306524D01*
X14551391Y-18306524D02*
X14541867Y-18287477D01*
X14541867Y-18287477D02*
X14522819Y-18277953D01*
X14522819Y-18277953D02*
X14494248Y-18277953D01*
X14494248Y-18277953D02*
X14475200Y-18268429D01*
X14475200Y-18268429D02*
X14465676Y-18249381D01*
X14465676Y-18249381D02*
X14465676Y-18239858D01*
X14465676Y-18239858D02*
X14475200Y-18220810D01*
X14475200Y-18220810D02*
X14494248Y-18211286D01*
X14494248Y-18211286D02*
X14522819Y-18211286D01*
X14522819Y-18211286D02*
X14541867Y-18220810D01*
X14618057Y-18420810D02*
X14627581Y-18411286D01*
X14627581Y-18411286D02*
X14646629Y-18382715D01*
X14646629Y-18382715D02*
X14656152Y-18363667D01*
X14656152Y-18363667D02*
X14665676Y-18335096D01*
X14665676Y-18335096D02*
X14675200Y-18287477D01*
X14675200Y-18287477D02*
X14675200Y-18249381D01*
X14675200Y-18249381D02*
X14665676Y-18201762D01*
X14665676Y-18201762D02*
X14656152Y-18173191D01*
X14656152Y-18173191D02*
X14646629Y-18154143D01*
X14646629Y-18154143D02*
X14627581Y-18125572D01*
X14627581Y-18125572D02*
X14618057Y-18116048D01*
X9742994Y-18473136D02*
X9742994Y-18673136D01*
X9642994Y-18573136D02*
X9842994Y-18573136D01*
X9842994Y-18573136D02*
G75*
G02*
X9642994Y-18573136I-100000J0D01*
G01*
X9642994Y-18573136D02*
G75*
G02*
X9842994Y-18573136I100000J0D01*
G01*
X10189485Y-18531286D02*
X10189485Y-18664620D01*
X10141866Y-18455096D02*
X10094247Y-18597953D01*
X10094247Y-18597953D02*
X10218057Y-18597953D01*
X10294247Y-18645572D02*
X10303771Y-18655096D01*
X10303771Y-18655096D02*
X10294247Y-18664620D01*
X10294247Y-18664620D02*
X10284724Y-18655096D01*
X10284724Y-18655096D02*
X10294247Y-18645572D01*
X10294247Y-18645572D02*
X10294247Y-18664620D01*
X10427581Y-18464620D02*
X10446628Y-18464620D01*
X10446628Y-18464620D02*
X10465676Y-18474143D01*
X10465676Y-18474143D02*
X10475200Y-18483667D01*
X10475200Y-18483667D02*
X10484724Y-18502715D01*
X10484724Y-18502715D02*
X10494247Y-18540810D01*
X10494247Y-18540810D02*
X10494247Y-18588429D01*
X10494247Y-18588429D02*
X10484724Y-18626524D01*
X10484724Y-18626524D02*
X10475200Y-18645572D01*
X10475200Y-18645572D02*
X10465676Y-18655096D01*
X10465676Y-18655096D02*
X10446628Y-18664620D01*
X10446628Y-18664620D02*
X10427581Y-18664620D01*
X10427581Y-18664620D02*
X10408533Y-18655096D01*
X10408533Y-18655096D02*
X10399009Y-18645572D01*
X10399009Y-18645572D02*
X10389485Y-18626524D01*
X10389485Y-18626524D02*
X10379962Y-18588429D01*
X10379962Y-18588429D02*
X10379962Y-18540810D01*
X10379962Y-18540810D02*
X10389485Y-18502715D01*
X10389485Y-18502715D02*
X10399009Y-18483667D01*
X10399009Y-18483667D02*
X10408533Y-18474143D01*
X10408533Y-18474143D02*
X10427581Y-18464620D01*
X10618057Y-18464620D02*
X10637105Y-18464620D01*
X10637105Y-18464620D02*
X10656152Y-18474143D01*
X10656152Y-18474143D02*
X10665676Y-18483667D01*
X10665676Y-18483667D02*
X10675200Y-18502715D01*
X10675200Y-18502715D02*
X10684724Y-18540810D01*
X10684724Y-18540810D02*
X10684724Y-18588429D01*
X10684724Y-18588429D02*
X10675200Y-18626524D01*
X10675200Y-18626524D02*
X10665676Y-18645572D01*
X10665676Y-18645572D02*
X10656152Y-18655096D01*
X10656152Y-18655096D02*
X10637105Y-18664620D01*
X10637105Y-18664620D02*
X10618057Y-18664620D01*
X10618057Y-18664620D02*
X10599009Y-18655096D01*
X10599009Y-18655096D02*
X10589485Y-18645572D01*
X10589485Y-18645572D02*
X10579962Y-18626524D01*
X10579962Y-18626524D02*
X10570438Y-18588429D01*
X10570438Y-18588429D02*
X10570438Y-18540810D01*
X10570438Y-18540810D02*
X10579962Y-18502715D01*
X10579962Y-18502715D02*
X10589485Y-18483667D01*
X10589485Y-18483667D02*
X10599009Y-18474143D01*
X10599009Y-18474143D02*
X10618057Y-18464620D01*
X10808533Y-18464620D02*
X10827581Y-18464620D01*
X10827581Y-18464620D02*
X10846628Y-18474143D01*
X10846628Y-18474143D02*
X10856152Y-18483667D01*
X10856152Y-18483667D02*
X10865676Y-18502715D01*
X10865676Y-18502715D02*
X10875200Y-18540810D01*
X10875200Y-18540810D02*
X10875200Y-18588429D01*
X10875200Y-18588429D02*
X10865676Y-18626524D01*
X10865676Y-18626524D02*
X10856152Y-18645572D01*
X10856152Y-18645572D02*
X10846628Y-18655096D01*
X10846628Y-18655096D02*
X10827581Y-18664620D01*
X10827581Y-18664620D02*
X10808533Y-18664620D01*
X10808533Y-18664620D02*
X10789485Y-18655096D01*
X10789485Y-18655096D02*
X10779962Y-18645572D01*
X10779962Y-18645572D02*
X10770438Y-18626524D01*
X10770438Y-18626524D02*
X10760914Y-18588429D01*
X10760914Y-18588429D02*
X10760914Y-18540810D01*
X10760914Y-18540810D02*
X10770438Y-18502715D01*
X10770438Y-18502715D02*
X10779962Y-18483667D01*
X10779962Y-18483667D02*
X10789485Y-18474143D01*
X10789485Y-18474143D02*
X10808533Y-18464620D01*
X10960914Y-18664620D02*
X10960914Y-18531286D01*
X10960914Y-18550334D02*
X10970438Y-18540810D01*
X10970438Y-18540810D02*
X10989485Y-18531286D01*
X10989485Y-18531286D02*
X11018057Y-18531286D01*
X11018057Y-18531286D02*
X11037105Y-18540810D01*
X11037105Y-18540810D02*
X11046628Y-18559858D01*
X11046628Y-18559858D02*
X11046628Y-18664620D01*
X11046628Y-18559858D02*
X11056152Y-18540810D01*
X11056152Y-18540810D02*
X11075200Y-18531286D01*
X11075200Y-18531286D02*
X11103771Y-18531286D01*
X11103771Y-18531286D02*
X11122819Y-18540810D01*
X11122819Y-18540810D02*
X11132343Y-18559858D01*
X11132343Y-18559858D02*
X11132343Y-18664620D01*
X11227581Y-18664620D02*
X11227581Y-18531286D01*
X11227581Y-18550334D02*
X11237104Y-18540810D01*
X11237104Y-18540810D02*
X11256152Y-18531286D01*
X11256152Y-18531286D02*
X11284724Y-18531286D01*
X11284724Y-18531286D02*
X11303771Y-18540810D01*
X11303771Y-18540810D02*
X11313295Y-18559858D01*
X11313295Y-18559858D02*
X11313295Y-18664620D01*
X11313295Y-18559858D02*
X11322819Y-18540810D01*
X11322819Y-18540810D02*
X11341866Y-18531286D01*
X11341866Y-18531286D02*
X11370438Y-18531286D01*
X11370438Y-18531286D02*
X11389485Y-18540810D01*
X11389485Y-18540810D02*
X11399009Y-18559858D01*
X11399009Y-18559858D02*
X11399009Y-18664620D01*
X11789485Y-18455096D02*
X11618057Y-18712239D01*
X12046628Y-18464620D02*
X12065676Y-18464620D01*
X12065676Y-18464620D02*
X12084724Y-18474143D01*
X12084724Y-18474143D02*
X12094247Y-18483667D01*
X12094247Y-18483667D02*
X12103771Y-18502715D01*
X12103771Y-18502715D02*
X12113295Y-18540810D01*
X12113295Y-18540810D02*
X12113295Y-18588429D01*
X12113295Y-18588429D02*
X12103771Y-18626524D01*
X12103771Y-18626524D02*
X12094247Y-18645572D01*
X12094247Y-18645572D02*
X12084724Y-18655096D01*
X12084724Y-18655096D02*
X12065676Y-18664620D01*
X12065676Y-18664620D02*
X12046628Y-18664620D01*
X12046628Y-18664620D02*
X12027581Y-18655096D01*
X12027581Y-18655096D02*
X12018057Y-18645572D01*
X12018057Y-18645572D02*
X12008533Y-18626524D01*
X12008533Y-18626524D02*
X11999009Y-18588429D01*
X11999009Y-18588429D02*
X11999009Y-18540810D01*
X11999009Y-18540810D02*
X12008533Y-18502715D01*
X12008533Y-18502715D02*
X12018057Y-18483667D01*
X12018057Y-18483667D02*
X12027581Y-18474143D01*
X12027581Y-18474143D02*
X12046628Y-18464620D01*
X12199009Y-18645572D02*
X12208533Y-18655096D01*
X12208533Y-18655096D02*
X12199009Y-18664620D01*
X12199009Y-18664620D02*
X12189486Y-18655096D01*
X12189486Y-18655096D02*
X12199009Y-18645572D01*
X12199009Y-18645572D02*
X12199009Y-18664620D01*
X12399009Y-18664620D02*
X12284724Y-18664620D01*
X12341866Y-18664620D02*
X12341866Y-18464620D01*
X12341866Y-18464620D02*
X12322819Y-18493191D01*
X12322819Y-18493191D02*
X12303771Y-18512239D01*
X12303771Y-18512239D02*
X12284724Y-18521762D01*
X12579962Y-18464620D02*
X12484724Y-18464620D01*
X12484724Y-18464620D02*
X12475200Y-18559858D01*
X12475200Y-18559858D02*
X12484724Y-18550334D01*
X12484724Y-18550334D02*
X12503771Y-18540810D01*
X12503771Y-18540810D02*
X12551390Y-18540810D01*
X12551390Y-18540810D02*
X12570438Y-18550334D01*
X12570438Y-18550334D02*
X12579962Y-18559858D01*
X12579962Y-18559858D02*
X12589486Y-18578905D01*
X12589486Y-18578905D02*
X12589486Y-18626524D01*
X12589486Y-18626524D02*
X12579962Y-18645572D01*
X12579962Y-18645572D02*
X12570438Y-18655096D01*
X12570438Y-18655096D02*
X12551390Y-18664620D01*
X12551390Y-18664620D02*
X12503771Y-18664620D01*
X12503771Y-18664620D02*
X12484724Y-18655096D01*
X12484724Y-18655096D02*
X12475200Y-18645572D01*
X12656152Y-18464620D02*
X12789486Y-18464620D01*
X12789486Y-18464620D02*
X12703771Y-18664620D01*
X12960914Y-18464620D02*
X12865676Y-18464620D01*
X12865676Y-18464620D02*
X12856152Y-18559858D01*
X12856152Y-18559858D02*
X12865676Y-18550334D01*
X12865676Y-18550334D02*
X12884724Y-18540810D01*
X12884724Y-18540810D02*
X12932343Y-18540810D01*
X12932343Y-18540810D02*
X12951390Y-18550334D01*
X12951390Y-18550334D02*
X12960914Y-18559858D01*
X12960914Y-18559858D02*
X12970438Y-18578905D01*
X12970438Y-18578905D02*
X12970438Y-18626524D01*
X12970438Y-18626524D02*
X12960914Y-18645572D01*
X12960914Y-18645572D02*
X12951390Y-18655096D01*
X12951390Y-18655096D02*
X12932343Y-18664620D01*
X12932343Y-18664620D02*
X12884724Y-18664620D01*
X12884724Y-18664620D02*
X12865676Y-18655096D01*
X12865676Y-18655096D02*
X12856152Y-18645572D01*
X13046628Y-18464620D02*
X13046628Y-18502715D01*
X13122819Y-18464620D02*
X13122819Y-18502715D01*
X13418057Y-18740810D02*
X13408533Y-18731286D01*
X13408533Y-18731286D02*
X13389486Y-18702715D01*
X13389486Y-18702715D02*
X13379962Y-18683667D01*
X13379962Y-18683667D02*
X13370438Y-18655096D01*
X13370438Y-18655096D02*
X13360914Y-18607477D01*
X13360914Y-18607477D02*
X13360914Y-18569381D01*
X13360914Y-18569381D02*
X13370438Y-18521762D01*
X13370438Y-18521762D02*
X13379962Y-18493191D01*
X13379962Y-18493191D02*
X13389486Y-18474143D01*
X13389486Y-18474143D02*
X13408533Y-18445572D01*
X13408533Y-18445572D02*
X13418057Y-18436048D01*
X13579962Y-18531286D02*
X13579962Y-18664620D01*
X13532343Y-18455096D02*
X13484724Y-18597953D01*
X13484724Y-18597953D02*
X13608533Y-18597953D01*
X13837105Y-18664620D02*
X13837105Y-18464620D01*
X13922819Y-18664620D02*
X13922819Y-18559858D01*
X13922819Y-18559858D02*
X13913295Y-18540810D01*
X13913295Y-18540810D02*
X13894248Y-18531286D01*
X13894248Y-18531286D02*
X13865676Y-18531286D01*
X13865676Y-18531286D02*
X13846629Y-18540810D01*
X13846629Y-18540810D02*
X13837105Y-18550334D01*
X14046629Y-18664620D02*
X14027581Y-18655096D01*
X14027581Y-18655096D02*
X14018057Y-18645572D01*
X14018057Y-18645572D02*
X14008533Y-18626524D01*
X14008533Y-18626524D02*
X14008533Y-18569381D01*
X14008533Y-18569381D02*
X14018057Y-18550334D01*
X14018057Y-18550334D02*
X14027581Y-18540810D01*
X14027581Y-18540810D02*
X14046629Y-18531286D01*
X14046629Y-18531286D02*
X14075200Y-18531286D01*
X14075200Y-18531286D02*
X14094248Y-18540810D01*
X14094248Y-18540810D02*
X14103771Y-18550334D01*
X14103771Y-18550334D02*
X14113295Y-18569381D01*
X14113295Y-18569381D02*
X14113295Y-18626524D01*
X14113295Y-18626524D02*
X14103771Y-18645572D01*
X14103771Y-18645572D02*
X14094248Y-18655096D01*
X14094248Y-18655096D02*
X14075200Y-18664620D01*
X14075200Y-18664620D02*
X14046629Y-18664620D01*
X14227581Y-18664620D02*
X14208533Y-18655096D01*
X14208533Y-18655096D02*
X14199010Y-18636048D01*
X14199010Y-18636048D02*
X14199010Y-18464620D01*
X14379962Y-18655096D02*
X14360914Y-18664620D01*
X14360914Y-18664620D02*
X14322819Y-18664620D01*
X14322819Y-18664620D02*
X14303771Y-18655096D01*
X14303771Y-18655096D02*
X14294248Y-18636048D01*
X14294248Y-18636048D02*
X14294248Y-18559858D01*
X14294248Y-18559858D02*
X14303771Y-18540810D01*
X14303771Y-18540810D02*
X14322819Y-18531286D01*
X14322819Y-18531286D02*
X14360914Y-18531286D01*
X14360914Y-18531286D02*
X14379962Y-18540810D01*
X14379962Y-18540810D02*
X14389486Y-18559858D01*
X14389486Y-18559858D02*
X14389486Y-18578905D01*
X14389486Y-18578905D02*
X14294248Y-18597953D01*
X14465676Y-18655096D02*
X14484724Y-18664620D01*
X14484724Y-18664620D02*
X14522819Y-18664620D01*
X14522819Y-18664620D02*
X14541867Y-18655096D01*
X14541867Y-18655096D02*
X14551391Y-18636048D01*
X14551391Y-18636048D02*
X14551391Y-18626524D01*
X14551391Y-18626524D02*
X14541867Y-18607477D01*
X14541867Y-18607477D02*
X14522819Y-18597953D01*
X14522819Y-18597953D02*
X14494248Y-18597953D01*
X14494248Y-18597953D02*
X14475200Y-18588429D01*
X14475200Y-18588429D02*
X14465676Y-18569381D01*
X14465676Y-18569381D02*
X14465676Y-18559858D01*
X14465676Y-18559858D02*
X14475200Y-18540810D01*
X14475200Y-18540810D02*
X14494248Y-18531286D01*
X14494248Y-18531286D02*
X14522819Y-18531286D01*
X14522819Y-18531286D02*
X14541867Y-18540810D01*
X14618057Y-18740810D02*
X14627581Y-18731286D01*
X14627581Y-18731286D02*
X14646629Y-18702715D01*
X14646629Y-18702715D02*
X14656152Y-18683667D01*
X14656152Y-18683667D02*
X14665676Y-18655096D01*
X14665676Y-18655096D02*
X14675200Y-18607477D01*
X14675200Y-18607477D02*
X14675200Y-18569381D01*
X14675200Y-18569381D02*
X14665676Y-18521762D01*
X14665676Y-18521762D02*
X14656152Y-18493191D01*
X14656152Y-18493191D02*
X14646629Y-18474143D01*
X14646629Y-18474143D02*
X14627581Y-18445572D01*
X14627581Y-18445572D02*
X14618057Y-18436048D01*
M02*
