%TF.GenerationSoftware,KiCad,Pcbnew,10.0.3*%
%TF.CreationDate,2026-07-28T14:48:49+07:00*%
%TF.ProjectId,RheoBoard_Adafruit_V9,5268656f-426f-4617-9264-5f4164616672,rev?*%
%TF.SameCoordinates,Original*%
%TF.FileFunction,Drillmap*%
%TF.FilePolarity,Positive*%
%FSLAX45Y45*%
G04 Gerber Fmt 4.5, Leading zero omitted, Abs format (unit mm)*
G04 Created by KiCad (PCBNEW 10.0.3) date 2026-07-28 14:48:49*
%MOMM*%
%LPD*%
G01*
G04 APERTURE LIST*
%ADD10C,0.050000*%
%ADD11C,0.200000*%
G04 APERTURE END LIST*
D10*
X9845586Y-15269200D02*
X9846310Y-5744221D01*
X9846310Y-5744221D02*
G75*
G02*
X10074931Y-5502196I222250J19051D01*
G01*
X10074931Y-5502197D02*
X10075634Y-5502900D01*
X10075634Y-5502900D02*
X19611886Y-5502900D01*
X10087610Y-15497821D02*
G75*
G02*
X9845585Y-15269200I-19050J222251D01*
G01*
X19611886Y-5502900D02*
G75*
G02*
X19853915Y-5731521I19054J-222250D01*
G01*
X19624565Y-15497821D02*
X10087610Y-15497821D01*
X19625289Y-15498545D02*
X19624565Y-15497821D01*
X19853910Y-5731521D02*
X19853910Y-15256521D01*
X19853910Y-15256521D02*
G75*
G02*
X19625289Y-15498544I-222250J-19049D01*
G01*
D11*
X10103771Y-15812619D02*
X10103771Y-15612619D01*
X10103771Y-15612619D02*
X10151390Y-15612619D01*
X10151390Y-15612619D02*
X10179962Y-15622143D01*
X10179962Y-15622143D02*
X10199009Y-15641191D01*
X10199009Y-15641191D02*
X10208533Y-15660238D01*
X10208533Y-15660238D02*
X10218057Y-15698334D01*
X10218057Y-15698334D02*
X10218057Y-15726905D01*
X10218057Y-15726905D02*
X10208533Y-15765000D01*
X10208533Y-15765000D02*
X10199009Y-15784048D01*
X10199009Y-15784048D02*
X10179962Y-15803096D01*
X10179962Y-15803096D02*
X10151390Y-15812619D01*
X10151390Y-15812619D02*
X10103771Y-15812619D01*
X10303771Y-15812619D02*
X10303771Y-15679286D01*
X10303771Y-15717381D02*
X10313295Y-15698334D01*
X10313295Y-15698334D02*
X10322819Y-15688810D01*
X10322819Y-15688810D02*
X10341866Y-15679286D01*
X10341866Y-15679286D02*
X10360914Y-15679286D01*
X10427581Y-15812619D02*
X10427581Y-15679286D01*
X10427581Y-15612619D02*
X10418057Y-15622143D01*
X10418057Y-15622143D02*
X10427581Y-15631667D01*
X10427581Y-15631667D02*
X10437104Y-15622143D01*
X10437104Y-15622143D02*
X10427581Y-15612619D01*
X10427581Y-15612619D02*
X10427581Y-15631667D01*
X10551390Y-15812619D02*
X10532343Y-15803096D01*
X10532343Y-15803096D02*
X10522819Y-15784048D01*
X10522819Y-15784048D02*
X10522819Y-15612619D01*
X10656152Y-15812619D02*
X10637104Y-15803096D01*
X10637104Y-15803096D02*
X10627581Y-15784048D01*
X10627581Y-15784048D02*
X10627581Y-15612619D01*
X10884724Y-15812619D02*
X10884724Y-15612619D01*
X10884724Y-15612619D02*
X10951390Y-15755477D01*
X10951390Y-15755477D02*
X11018057Y-15612619D01*
X11018057Y-15612619D02*
X11018057Y-15812619D01*
X11199009Y-15812619D02*
X11199009Y-15707858D01*
X11199009Y-15707858D02*
X11189485Y-15688810D01*
X11189485Y-15688810D02*
X11170438Y-15679286D01*
X11170438Y-15679286D02*
X11132343Y-15679286D01*
X11132343Y-15679286D02*
X11113295Y-15688810D01*
X11199009Y-15803096D02*
X11179962Y-15812619D01*
X11179962Y-15812619D02*
X11132343Y-15812619D01*
X11132343Y-15812619D02*
X11113295Y-15803096D01*
X11113295Y-15803096D02*
X11103771Y-15784048D01*
X11103771Y-15784048D02*
X11103771Y-15765000D01*
X11103771Y-15765000D02*
X11113295Y-15745953D01*
X11113295Y-15745953D02*
X11132343Y-15736429D01*
X11132343Y-15736429D02*
X11179962Y-15736429D01*
X11179962Y-15736429D02*
X11199009Y-15726905D01*
X11294247Y-15679286D02*
X11294247Y-15879286D01*
X11294247Y-15688810D02*
X11313295Y-15679286D01*
X11313295Y-15679286D02*
X11351390Y-15679286D01*
X11351390Y-15679286D02*
X11370438Y-15688810D01*
X11370438Y-15688810D02*
X11379962Y-15698334D01*
X11379962Y-15698334D02*
X11389485Y-15717381D01*
X11389485Y-15717381D02*
X11389485Y-15774524D01*
X11389485Y-15774524D02*
X11379962Y-15793572D01*
X11379962Y-15793572D02*
X11370438Y-15803096D01*
X11370438Y-15803096D02*
X11351390Y-15812619D01*
X11351390Y-15812619D02*
X11313295Y-15812619D01*
X11313295Y-15812619D02*
X11294247Y-15803096D01*
X11475200Y-15793572D02*
X11484723Y-15803096D01*
X11484723Y-15803096D02*
X11475200Y-15812619D01*
X11475200Y-15812619D02*
X11465676Y-15803096D01*
X11465676Y-15803096D02*
X11475200Y-15793572D01*
X11475200Y-15793572D02*
X11475200Y-15812619D01*
X11475200Y-15688810D02*
X11484723Y-15698334D01*
X11484723Y-15698334D02*
X11475200Y-15707858D01*
X11475200Y-15707858D02*
X11465676Y-15698334D01*
X11465676Y-15698334D02*
X11475200Y-15688810D01*
X11475200Y-15688810D02*
X11475200Y-15707858D01*
M02*
