%TF.GenerationSoftware,KiCad,Pcbnew,10.0.3*%
%TF.CreationDate,2026-07-28T14:48:46+07:00*%
%TF.ProjectId,RheoBoard_Adafruit_V9,5268656f-426f-4617-9264-5f4164616672,rev?*%
%TF.SameCoordinates,Original*%
%TF.FileFunction,Copper,L2,Bot*%
%TF.FilePolarity,Positive*%
%FSLAX46Y46*%
G04 Gerber Fmt 4.6, Leading zero omitted, Abs format (unit mm)*
G04 Created by KiCad (PCBNEW 10.0.3) date 2026-07-28 14:48:46*
%MOMM*%
%LPD*%
G01*
G04 APERTURE LIST*
G04 Aperture macros list*
%AMOutline5P*
0 Free polygon, 5 corners , with rotation*
0 The origin of the aperture is its center*
0 number of corners: always 5*
0 $1 to $10 corner X, Y*
0 $11 Rotation angle, in degrees counterclockwise*
0 create outline with 5 corners*
4,1,5,$1,$2,$3,$4,$5,$6,$7,$8,$9,$10,$1,$2,$11*%
%AMOutline6P*
0 Free polygon, 6 corners , with rotation*
0 The origin of the aperture is its center*
0 number of corners: always 6*
0 $1 to $12 corner X, Y*
0 $13 Rotation angle, in degrees counterclockwise*
0 create outline with 6 corners*
4,1,6,$1,$2,$3,$4,$5,$6,$7,$8,$9,$10,$11,$12,$1,$2,$13*%
%AMOutline7P*
0 Free polygon, 7 corners , with rotation*
0 The origin of the aperture is its center*
0 number of corners: always 7*
0 $1 to $14 corner X, Y*
0 $15 Rotation angle, in degrees counterclockwise*
0 create outline with 7 corners*
4,1,7,$1,$2,$3,$4,$5,$6,$7,$8,$9,$10,$11,$12,$13,$14,$1,$2,$15*%
%AMOutline8P*
0 Free polygon, 8 corners , with rotation*
0 The origin of the aperture is its center*
0 number of corners: always 8*
0 $1 to $16 corner X, Y*
0 $17 Rotation angle, in degrees counterclockwise*
0 create outline with 8 corners*
4,1,8,$1,$2,$3,$4,$5,$6,$7,$8,$9,$10,$11,$12,$13,$14,$15,$16,$1,$2,$17*%
G04 Aperture macros list end*
%TA.AperFunction,ComponentPad*%
%ADD10Outline8P,-1.500000X0.500000X-1.000000X1.000000X1.000000X1.000000X1.500000X0.500000X1.500000X-0.500000X1.000000X-1.000000X-1.000000X-1.000000X-1.500000X-0.500000X0.000000*%
%TD*%
%TA.AperFunction,ComponentPad*%
%ADD11R,1.651000X1.651000*%
%TD*%
%TA.AperFunction,ComponentPad*%
%ADD12C,1.651000*%
%TD*%
%TA.AperFunction,ComponentPad*%
%ADD13O,2.540000X4.064000*%
%TD*%
%TA.AperFunction,ComponentPad*%
%ADD14O,4.064000X2.540000*%
%TD*%
%TA.AperFunction,ComponentPad*%
%ADD15C,6.000000*%
%TD*%
%TA.AperFunction,ComponentPad*%
%ADD16R,2.286000X1.905000*%
%TD*%
%TA.AperFunction,ComponentPad*%
%ADD17O,2.286000X1.905000*%
%TD*%
%TA.AperFunction,ComponentPad*%
%ADD18C,1.778000*%
%TD*%
%TA.AperFunction,ComponentPad*%
%ADD19C,5.000000*%
%TD*%
%TA.AperFunction,ComponentPad*%
%ADD20O,1.905000X1.651000*%
%TD*%
%TA.AperFunction,ViaPad*%
%ADD21C,0.600000*%
%TD*%
%TA.AperFunction,ViaPad*%
%ADD22C,1.270000*%
%TD*%
%TA.AperFunction,Conductor*%
%ADD23C,0.800000*%
%TD*%
%TA.AperFunction,Conductor*%
%ADD24C,0.600000*%
%TD*%
%TA.AperFunction,Conductor*%
%ADD25C,0.400000*%
%TD*%
%TA.AperFunction,Conductor*%
%ADD26C,1.000000*%
%TD*%
%TA.AperFunction,Conductor*%
%ADD27C,0.200000*%
%TD*%
G04 APERTURE END LIST*
D10*
X116854110Y-137948217D03*
D11*
X136539110Y-147498617D03*
D12*
X143651110Y-147498617D03*
X136539110Y-152019817D03*
X143651110Y-152019817D03*
D13*
X189498110Y-139091217D03*
X195848110Y-139091217D03*
D14*
X192038110Y-134011217D03*
D11*
X138063110Y-60630617D03*
D12*
X145175110Y-60630617D03*
X138063110Y-65151817D03*
X145175110Y-65151817D03*
D10*
X107964110Y-141631217D03*
D15*
X122061110Y-62891217D03*
D16*
X110250110Y-65939217D03*
D17*
X110250110Y-68479217D03*
D18*
X101868120Y-130328217D03*
X101868110Y-127788217D03*
D11*
X155462110Y-59868617D03*
D12*
X162574110Y-59868617D03*
X155462110Y-64389817D03*
X162574110Y-64389817D03*
D19*
X117513110Y-87783217D03*
X135753110Y-87783217D03*
D10*
X111520110Y-141631217D03*
D19*
X158407110Y-88164217D03*
X176647110Y-88164217D03*
D11*
X112917110Y-147117617D03*
D12*
X120029110Y-147117617D03*
X112917110Y-151638817D03*
X120029110Y-151638817D03*
D20*
X101233110Y-65177217D03*
X101233110Y-67742617D03*
X101233110Y-70231817D03*
X101233110Y-72797217D03*
D15*
X186323110Y-63399217D03*
D16*
X174512110Y-66447217D03*
D17*
X174512110Y-68987217D03*
D21*
X141365110Y-136075217D03*
X177052110Y-120783217D03*
X134380110Y-138202217D03*
X109416610Y-113691217D03*
X133237110Y-124232217D03*
X115457110Y-113564217D03*
X119775110Y-124232217D03*
X181010210Y-82821727D03*
D22*
X181751110Y-98451217D03*
D21*
X119013110Y-109246217D03*
D22*
X109996110Y-83973217D03*
D21*
X150255110Y-78639217D03*
D22*
X176036110Y-110397217D03*
D21*
X140222110Y-137059217D03*
X182513110Y-108972217D03*
X138571110Y-76861217D03*
X134253110Y-110702017D03*
X179592110Y-151410217D03*
X185942110Y-130709217D03*
X191657110Y-84989217D03*
X195118110Y-84100217D03*
X102108110Y-98197217D03*
X102850280Y-122870207D03*
X194832110Y-95530217D03*
X102362110Y-87275217D03*
X127141110Y-140234217D03*
X196427510Y-83069067D03*
X125998110Y-138964217D03*
X101614110Y-99086217D03*
X101868110Y-118918097D03*
X100217110Y-88418217D03*
X195975110Y-94514217D03*
X142889110Y-134265217D03*
X139841110Y-138075217D03*
X121072820Y-118954497D03*
X160800710Y-145111417D03*
X178068110Y-143155217D03*
X190944100Y-142624207D03*
X194694100Y-110124207D03*
X144694100Y-100124207D03*
X178444100Y-112624207D03*
X165944100Y-72624207D03*
X169694100Y-75124207D03*
X129694100Y-75124207D03*
X197194100Y-125124207D03*
X119694100Y-145124207D03*
X159694100Y-65124207D03*
X128444100Y-152624207D03*
X122194100Y-75124207D03*
X112194100Y-70124207D03*
X123600930Y-109357397D03*
X145944100Y-112624207D03*
X174694100Y-125124207D03*
X168444100Y-117624207D03*
X150944100Y-117624207D03*
X190944100Y-147624207D03*
X173444100Y-97624207D03*
X174694100Y-95124207D03*
X119694100Y-80124207D03*
X194694100Y-125124207D03*
X129694100Y-95124207D03*
X162194100Y-85124207D03*
X189694100Y-80124207D03*
X108444100Y-87624207D03*
X135944100Y-67624207D03*
X169694100Y-150124207D03*
X165944100Y-97624207D03*
X139694100Y-90124207D03*
X115944100Y-62624207D03*
X179694100Y-125124207D03*
X150944100Y-127624207D03*
X145944100Y-107624207D03*
X113444100Y-72624207D03*
X165944100Y-122624207D03*
X173444100Y-72624207D03*
X167194100Y-140124207D03*
X102194100Y-150124207D03*
X132194100Y-110124207D03*
X165944100Y-147624207D03*
X117194100Y-125124207D03*
X113444100Y-102624207D03*
X124694100Y-100124207D03*
X194694100Y-105124207D03*
X159780110Y-68860217D03*
X114694100Y-80124207D03*
X169694100Y-115124207D03*
X150944100Y-87624207D03*
X132194100Y-135124207D03*
X134694100Y-80124207D03*
X170944100Y-152624207D03*
X167194100Y-145124207D03*
X160944100Y-112624207D03*
X183444100Y-92624207D03*
X155944100Y-97624207D03*
X168444100Y-72624207D03*
X195944100Y-112624207D03*
X108444100Y-97624207D03*
X132194100Y-140124207D03*
X184694100Y-90124207D03*
X165944100Y-112624207D03*
X159694100Y-130124207D03*
X163444100Y-107624207D03*
X110944100Y-152624207D03*
X159694100Y-120124207D03*
X194694100Y-100124207D03*
X169694100Y-120124207D03*
X127194100Y-135124207D03*
X139694100Y-120124207D03*
X159694100Y-115124207D03*
X158444100Y-97624207D03*
X152194100Y-60124207D03*
X158444100Y-117624207D03*
X149694100Y-90124207D03*
X164694100Y-100124207D03*
X157194100Y-140124207D03*
X129694100Y-80124207D03*
X157194100Y-100124207D03*
X179694100Y-110124207D03*
X128444100Y-77624207D03*
X119694100Y-135124207D03*
X114694100Y-90124207D03*
X197194100Y-120124207D03*
X164694100Y-125124207D03*
X168444100Y-152624207D03*
X172194100Y-75124207D03*
X158444100Y-127624207D03*
X195944100Y-107624207D03*
X178444100Y-92624207D03*
X127194100Y-115124207D03*
X120944100Y-97624207D03*
X149694100Y-125124207D03*
X120944100Y-82624207D03*
X158444100Y-122624207D03*
X113444100Y-77624207D03*
X160944100Y-92624207D03*
X129694100Y-100124207D03*
X132194100Y-90124207D03*
X190944100Y-67624207D03*
X129694100Y-110124207D03*
X124694100Y-150124207D03*
X165944100Y-117624207D03*
X152194100Y-105124207D03*
X179694100Y-115124207D03*
X124694100Y-115124207D03*
X167194100Y-60124207D03*
X127194100Y-110124207D03*
X168444100Y-82624207D03*
X195944100Y-102624207D03*
X168444100Y-102624207D03*
X154694100Y-85124207D03*
X135944100Y-62624207D03*
X108444100Y-152624207D03*
X184694100Y-75124207D03*
X113444100Y-62624207D03*
X118444100Y-97624207D03*
X143444100Y-117624207D03*
X168444100Y-122624207D03*
X105944100Y-62624207D03*
X170944100Y-67624207D03*
X128444100Y-62624207D03*
X118444100Y-67624207D03*
X99328110Y-77623217D03*
X189694100Y-145124207D03*
X125944100Y-77624207D03*
X123444100Y-112624207D03*
X125944100Y-92624207D03*
X125944100Y-112624207D03*
X122194100Y-90124207D03*
X133444100Y-97624207D03*
X163444100Y-82624207D03*
X172194100Y-100124207D03*
X127194100Y-105124207D03*
X197194100Y-115124207D03*
X150944100Y-152624207D03*
X108444100Y-147624207D03*
X194694100Y-130124207D03*
X184694100Y-95124207D03*
X168444100Y-112624207D03*
X147194100Y-115124207D03*
X129694100Y-105124207D03*
X152194100Y-100124207D03*
X163444100Y-87624207D03*
X130944100Y-67624207D03*
X130944100Y-77624207D03*
X164694100Y-115124207D03*
X132194100Y-100124207D03*
X132194100Y-65124207D03*
X183444100Y-87624207D03*
X105944100Y-147624207D03*
X167194100Y-65124207D03*
X133444100Y-82624207D03*
X155944100Y-127624207D03*
X128444100Y-82624207D03*
X150944100Y-92624207D03*
X115944100Y-72624207D03*
X184694100Y-110124207D03*
X147194100Y-120124207D03*
X188444100Y-127624207D03*
X174694100Y-105124207D03*
X174694100Y-75124207D03*
X189694100Y-70124207D03*
X172194100Y-95124207D03*
X164694100Y-120124207D03*
X183444100Y-97624207D03*
X167194100Y-150124207D03*
X135944100Y-77624207D03*
X165944100Y-82624207D03*
X157194100Y-125124207D03*
X197194100Y-150124207D03*
X149694100Y-130124207D03*
X127194100Y-75124207D03*
X144694100Y-75124207D03*
X114694100Y-95124207D03*
X108444100Y-127624207D03*
X122194100Y-115124207D03*
X157194100Y-130124207D03*
X163444100Y-147624207D03*
X165944100Y-92624207D03*
X163444100Y-112624207D03*
X185944100Y-67624207D03*
X160944100Y-127624207D03*
X154694100Y-95124207D03*
X133444100Y-92624207D03*
X100944100Y-57624207D03*
X176379110Y-153036207D03*
X172194100Y-115124207D03*
X128444100Y-87624207D03*
X153444100Y-102624207D03*
X159694100Y-100124207D03*
X107420310Y-131634007D03*
X127194100Y-65124207D03*
X190944100Y-72624207D03*
X179694100Y-95124207D03*
X170944100Y-117624207D03*
X115944100Y-92624207D03*
X169694100Y-110124207D03*
X124694100Y-90124207D03*
X110944100Y-127624207D03*
X155944100Y-112624207D03*
X179694100Y-70124207D03*
X188444100Y-147624207D03*
X132194100Y-75124207D03*
X170944100Y-112624207D03*
X133444100Y-132624207D03*
X160944100Y-122624207D03*
X150944100Y-107624207D03*
X120944100Y-67624207D03*
X167194100Y-95124207D03*
X102194100Y-145124207D03*
X112194100Y-75124207D03*
X169694100Y-125124207D03*
X127194100Y-85124207D03*
X173444100Y-112624207D03*
X167194100Y-75124207D03*
X124694100Y-95124207D03*
X163444100Y-122624207D03*
X167194100Y-105124207D03*
X108444100Y-102624207D03*
X120944100Y-92624207D03*
X128444100Y-112624207D03*
X132194100Y-85124207D03*
X129694100Y-115124207D03*
X170944100Y-107624207D03*
X164694100Y-85124207D03*
X169694100Y-70124207D03*
X164694100Y-95124207D03*
X145944100Y-102624207D03*
X103444100Y-147624207D03*
X113444100Y-67624207D03*
X167194100Y-125124207D03*
X155944100Y-122624207D03*
X147194100Y-95124207D03*
X150944100Y-112624207D03*
X167194100Y-90124207D03*
X148444100Y-62624207D03*
X153444100Y-82624207D03*
X178444100Y-107624207D03*
X125944100Y-67624207D03*
X114694100Y-65124207D03*
X189694100Y-100124207D03*
X160944100Y-142624207D03*
X188444100Y-67624207D03*
X140944100Y-62624207D03*
X157682310Y-142590217D03*
X117194100Y-65124207D03*
X164694100Y-75124207D03*
X172194100Y-85124207D03*
X103444100Y-57624207D03*
X163444100Y-117624207D03*
X197194100Y-130124207D03*
X162194100Y-70124207D03*
X123444100Y-92624207D03*
X142194100Y-65124207D03*
X114694100Y-105124207D03*
X114694100Y-75124207D03*
X177194100Y-125124207D03*
X184694100Y-105124207D03*
X132194100Y-80124207D03*
X147194100Y-105124207D03*
X162194100Y-115124207D03*
X104513790Y-83697127D03*
X183444100Y-147624207D03*
X195944100Y-127624207D03*
X195944100Y-122624207D03*
X122194100Y-80124207D03*
X150944100Y-102624207D03*
X178444100Y-97624207D03*
X167194100Y-135124207D03*
X157194100Y-120124207D03*
X148444100Y-112624207D03*
X130944100Y-152624207D03*
X197194100Y-110124207D03*
X173444100Y-92624207D03*
X192546110Y-99086217D03*
X105944100Y-127624207D03*
X117194100Y-135124207D03*
X130944100Y-82624207D03*
X128444100Y-97624207D03*
X117194100Y-95124207D03*
X180944100Y-147624207D03*
X163444100Y-97624207D03*
X148858110Y-109395207D03*
X150944100Y-82624207D03*
X189694100Y-105124207D03*
X162194100Y-95124207D03*
X115944100Y-67624207D03*
X168444100Y-92624207D03*
X164694100Y-60124207D03*
X125944100Y-97624207D03*
X162194100Y-120124207D03*
X139694100Y-85124207D03*
X165944100Y-87624207D03*
X125944100Y-82624207D03*
X174694100Y-130124207D03*
X158444100Y-112624207D03*
X103444100Y-152624207D03*
X119694100Y-100124207D03*
X143444100Y-62624207D03*
X178444100Y-122624207D03*
X158444100Y-132624207D03*
X133444100Y-62624207D03*
X114694100Y-85124207D03*
X175944100Y-127624207D03*
X130944100Y-112624207D03*
X139694100Y-80124207D03*
X128444100Y-67624207D03*
X100944100Y-142624207D03*
X144694100Y-120124207D03*
X153444100Y-97624207D03*
X114694100Y-70124207D03*
X139694100Y-130124207D03*
X170944100Y-72624207D03*
X160944100Y-82624207D03*
X122194100Y-100124207D03*
X119694100Y-105124207D03*
X105944100Y-102624207D03*
X185944100Y-147624207D03*
X149694100Y-150124207D03*
X154694100Y-100124207D03*
X115944100Y-97624207D03*
X138825110Y-116485217D03*
X130944100Y-87624207D03*
X155944100Y-107624207D03*
X179694100Y-85124207D03*
X105678110Y-117882217D03*
X117194100Y-105124207D03*
X148444100Y-122624207D03*
X145944100Y-152624207D03*
X149694100Y-140124207D03*
X163444100Y-127624207D03*
X117194100Y-70124207D03*
X127194100Y-95124207D03*
X140944100Y-82624207D03*
X105944100Y-152624207D03*
X142194100Y-95124207D03*
X104154110Y-95089217D03*
X123444100Y-82624207D03*
X119694100Y-95124207D03*
X115944100Y-82624207D03*
X120944100Y-77624207D03*
X102194100Y-140124207D03*
X147194100Y-65124207D03*
X134694100Y-75124207D03*
X133444100Y-77624207D03*
X180944100Y-62624207D03*
X108890910Y-105817217D03*
X123444100Y-152624207D03*
X123444100Y-97624207D03*
X137194100Y-75124207D03*
X108444100Y-92624207D03*
X143444100Y-102624207D03*
X140944100Y-87624207D03*
X119694100Y-75124207D03*
X128444100Y-92624207D03*
X170944100Y-122624207D03*
X122194100Y-105124207D03*
X162194100Y-125124207D03*
X164694100Y-150124207D03*
X187194100Y-145124207D03*
X185944100Y-137624207D03*
X160944100Y-117624207D03*
X158256110Y-109395207D03*
X162194100Y-100124207D03*
X168444100Y-147624207D03*
X167194100Y-85124207D03*
X109694100Y-110124207D03*
X167194100Y-120124207D03*
X172194100Y-110124207D03*
X115944100Y-77624207D03*
X123444100Y-77624207D03*
X147334110Y-139853217D03*
X134694100Y-65124207D03*
X152194100Y-90124207D03*
X165944100Y-152624207D03*
X158444100Y-92624207D03*
X109694100Y-150124207D03*
X123444100Y-67624207D03*
X169694100Y-145124207D03*
X155944100Y-82624207D03*
X129694100Y-85124207D03*
X130944100Y-62624207D03*
X197194100Y-145124207D03*
X133444100Y-67624207D03*
X163444100Y-92624207D03*
X184694100Y-85124207D03*
X117194100Y-100124207D03*
X167194100Y-115124207D03*
X122194100Y-150124207D03*
X118444100Y-92624207D03*
X129694100Y-65124207D03*
X197194100Y-105124207D03*
X178444100Y-127624207D03*
X177194100Y-75124207D03*
X124694100Y-85124207D03*
X160944100Y-97624207D03*
X172194100Y-90124207D03*
X189694100Y-130124207D03*
X184418110Y-101372217D03*
X145944100Y-97624207D03*
X175944100Y-132624207D03*
X190944100Y-62624207D03*
X187194100Y-135124207D03*
X144694100Y-105124207D03*
X117194100Y-145124207D03*
X122194100Y-95124207D03*
X100944100Y-152624207D03*
X164694100Y-90124207D03*
X177194100Y-130124207D03*
X174694100Y-85124207D03*
X165944100Y-127624207D03*
X138444100Y-92624207D03*
X122194100Y-85124207D03*
X173444100Y-107624207D03*
X127194100Y-80124207D03*
X124694100Y-75124207D03*
X110944100Y-147624207D03*
X179694100Y-90124207D03*
X133444100Y-152624207D03*
X168444100Y-87624207D03*
X172194100Y-120124207D03*
X177194100Y-140124207D03*
X173444100Y-82624207D03*
X149694100Y-145124207D03*
D22*
X192605710Y-87810227D03*
D21*
X155944100Y-117624207D03*
X159694100Y-95124207D03*
X104694100Y-150124207D03*
X164694100Y-145124207D03*
X157194100Y-95124207D03*
X162194100Y-75124207D03*
X172607110Y-144806217D03*
X127194100Y-100124207D03*
X157194100Y-115124207D03*
X107194100Y-150124207D03*
X167194100Y-110124207D03*
X100944100Y-137624207D03*
X159694100Y-125124207D03*
X148444100Y-152624207D03*
X149694100Y-115124207D03*
X178444100Y-82624207D03*
X172194100Y-70124207D03*
X173444100Y-117624207D03*
X172194100Y-105124207D03*
X100944100Y-147624207D03*
X104694100Y-145124207D03*
X143524110Y-109246217D03*
X173444100Y-127624207D03*
X163444100Y-152624207D03*
X147194100Y-100124207D03*
X130944100Y-97624207D03*
X160944100Y-107624207D03*
X120944100Y-142624207D03*
X162194100Y-90124207D03*
X125944100Y-152624207D03*
X124694100Y-80124207D03*
D23*
X176437110Y-120783217D02*
X177052110Y-120783217D01*
D24*
X146699110Y-135535217D02*
X161685110Y-135535217D01*
D25*
X141959230Y-135535217D02*
X146699110Y-135535217D01*
X141419230Y-136075217D02*
X141959230Y-135535217D01*
X141365110Y-136075217D02*
X141419230Y-136075217D01*
D23*
X161685110Y-135535217D02*
X176437110Y-120783217D01*
D26*
X118505110Y-119582917D02*
X123154410Y-124232217D01*
X123154410Y-124232217D02*
X133237110Y-124232217D01*
X109416610Y-113691217D02*
X111448610Y-111659217D01*
X118505110Y-119582917D02*
X118505110Y-113310217D01*
X111448610Y-111659217D02*
X116854110Y-111659217D01*
X116854110Y-111659217D02*
X118505110Y-113310217D01*
X115457110Y-119914217D02*
X119775110Y-124232217D01*
X115457110Y-119914217D02*
X115457110Y-113564217D01*
X174512110Y-68987217D02*
X180266260Y-74741357D01*
D23*
X181751110Y-98451217D02*
X181751110Y-84610427D01*
D26*
X181010210Y-82821727D02*
X181010210Y-76537417D01*
X180266261Y-74741366D02*
G75*
G02*
X181010195Y-76537417I-1796061J-1796034D01*
G01*
D23*
X181010208Y-82821730D02*
G75*
G02*
X181751088Y-84610427I-1788708J-1788670D01*
G01*
X116473110Y-109246217D02*
X119013110Y-109246217D01*
X110250110Y-83360007D02*
X110250110Y-68479217D01*
X109996110Y-102769217D02*
X116473110Y-109246217D01*
X109996110Y-102769217D02*
X109996110Y-83973217D01*
X110250110Y-83360007D02*
G75*
G02*
X109996107Y-83973214I-867210J7D01*
G01*
X150255110Y-78639217D02*
X174107110Y-78639217D01*
X176647110Y-88164217D02*
X176647110Y-81179217D01*
X176647110Y-108922127D02*
X176647110Y-88164217D01*
X174107110Y-78639217D02*
G75*
G02*
X176647083Y-81179217I-10J-2539983D01*
G01*
X176647110Y-108922127D02*
G75*
G02*
X176036104Y-110397201I-2086110J27D01*
G01*
D26*
X138063110Y-60630617D02*
X145175110Y-60630617D01*
X137809110Y-96800217D02*
X143143110Y-91466217D01*
X143143110Y-91466217D02*
X143143110Y-75845217D01*
X138063110Y-70765217D02*
X143143110Y-75845217D01*
X145175110Y-65151817D02*
X145175110Y-60630617D01*
X134761110Y-121692217D02*
X137491610Y-124422717D01*
X138063110Y-70765217D02*
X138063110Y-65151817D01*
D25*
X162447110Y-137059217D02*
X162701110Y-136805217D01*
D26*
X120042820Y-119381137D02*
X120042820Y-118471507D01*
X137809110Y-111151217D02*
X137809110Y-96800217D01*
D24*
X162701110Y-136805217D02*
X173079010Y-136805217D01*
D26*
X131078110Y-117882217D02*
X137809110Y-111151217D01*
X182513110Y-127371107D02*
X182513110Y-108972217D01*
X138063110Y-65151817D02*
X138063110Y-60630617D01*
X137491610Y-134328717D02*
X137491610Y-124422717D01*
X120042820Y-119381137D02*
X122353890Y-121692217D01*
X137491610Y-134328717D02*
X140222110Y-137059217D01*
X122353890Y-121692217D02*
X134761110Y-121692217D01*
X120632110Y-117882217D02*
X131078110Y-117882217D01*
X120042820Y-118471507D02*
X120632110Y-117882217D01*
D25*
X140222110Y-137059217D02*
X162447110Y-137059217D01*
D26*
X174875060Y-136061267D02*
X181769160Y-129167157D01*
X182513110Y-127371107D02*
G75*
G02*
X181769160Y-129167157I-2540010J7D01*
G01*
D24*
X174875061Y-136061268D02*
G75*
G02*
X173079010Y-136805219I-1796061J1796068D01*
G01*
D26*
X135753110Y-87783217D02*
X138571110Y-76861217D01*
X134253110Y-110702017D02*
X135753110Y-109202017D01*
X135753110Y-109202017D02*
X135753110Y-87783217D01*
X112917110Y-147117617D02*
X120029110Y-147117617D01*
X112917110Y-151638817D02*
X112917110Y-147117617D01*
X112917110Y-151638817D02*
X120029110Y-151638817D01*
D24*
X136539110Y-152019817D02*
X143651110Y-152019817D01*
X143651110Y-152019817D02*
X143651110Y-147498617D01*
X136539110Y-147498617D02*
X143651110Y-147498617D01*
D23*
X149602060Y-83828157D02*
X153194160Y-87420267D01*
X172734110Y-62764217D02*
X177143010Y-62764217D01*
X192666170Y-138493837D02*
X192666200Y-138492557D01*
X154990220Y-88164217D02*
X158407110Y-88164217D01*
X179592110Y-151410217D02*
X189879110Y-151410217D01*
X178939060Y-63508157D02*
X186849160Y-71418267D01*
X148858110Y-82032107D02*
X148858110Y-77913317D01*
X185942110Y-130709217D02*
X188828730Y-134599867D01*
X192419340Y-148860447D02*
X192666170Y-138493837D01*
X188905330Y-134685627D02*
X188906360Y-134686587D01*
X188906360Y-134686587D02*
X192459850Y-138003177D01*
X151434220Y-75337217D02*
X152632010Y-75337217D01*
X165484980Y-70013347D02*
X172734110Y-62764217D01*
X185942110Y-130709217D02*
X187593110Y-74194217D01*
X149602060Y-76117267D02*
X149638160Y-76081157D01*
X187593110Y-74194217D02*
X187593110Y-73214317D01*
X192419102Y-148876730D02*
G75*
G02*
X189879110Y-151410210I-2540002J6530D01*
G01*
X177143010Y-62764217D02*
G75*
G02*
X178939053Y-63508174I-10J-2539983D01*
G01*
X154990220Y-88164217D02*
G75*
G02*
X153194155Y-87420282I-20J2540017D01*
G01*
X148858110Y-77913317D02*
G75*
G02*
X149602052Y-76117259I2539990J17D01*
G01*
X192459854Y-138003174D02*
G75*
G02*
X192666207Y-138492558I-443554J-475226D01*
G01*
X192419112Y-148874503D02*
G75*
G02*
X192419348Y-148860439I650688J-3897D01*
G01*
X149638169Y-76081166D02*
G75*
G02*
X151434220Y-75337226I1796031J-1796034D01*
G01*
X165484991Y-70013343D02*
G75*
G02*
X152632010Y-75337240I-12852991J12852943D01*
G01*
X149602059Y-83828158D02*
G75*
G02*
X148858102Y-82032107I1796041J1796058D01*
G01*
X186849161Y-71418266D02*
G75*
G02*
X187593095Y-73214317I-1796061J-1796034D01*
G01*
X188905328Y-134685629D02*
G75*
G02*
X188828722Y-134599873I444572J474229D01*
G01*
D25*
X102850280Y-122870207D02*
X110884010Y-122870207D01*
D23*
X102362110Y-87275217D02*
X103011110Y-86626217D01*
X102516720Y-71515427D02*
X103011110Y-72009817D01*
X102108110Y-87529217D02*
X102362110Y-87275217D01*
D25*
X194832110Y-95476097D02*
X195079850Y-95228357D01*
X112680060Y-123614157D02*
X126397160Y-137331267D01*
X127141110Y-140234217D02*
X127141110Y-139127317D01*
X193689110Y-57557217D02*
X195218110Y-59086217D01*
D23*
X101233110Y-70231817D02*
X102516730Y-71515427D01*
D25*
X101639510Y-70231817D02*
X114314110Y-57557217D01*
D23*
X102108110Y-98197217D02*
X102108110Y-87529217D01*
D25*
X195218110Y-83946097D02*
X195218110Y-59086217D01*
X195079850Y-95228357D02*
X195079850Y-84138477D01*
X195079850Y-84138477D02*
X195118110Y-84100217D01*
D23*
X102108110Y-98197217D02*
X102850280Y-98939377D01*
D25*
X101233110Y-70231817D02*
X101639510Y-70231817D01*
X194832110Y-95530217D02*
X194832110Y-95476097D01*
D23*
X103011110Y-86626217D02*
X103011110Y-72009817D01*
D25*
X114314110Y-57557217D02*
X193689110Y-57557217D01*
D23*
X102850280Y-122870207D02*
X102850280Y-98939377D01*
D25*
X110884010Y-122870207D02*
G75*
G02*
X112680055Y-123614162I-10J-2539993D01*
G01*
X126397161Y-137331266D02*
G75*
G02*
X127141095Y-139127317I-1796061J-1796034D01*
G01*
X102619530Y-125883217D02*
X103682220Y-125883217D01*
X99455110Y-71146217D02*
X101106110Y-72797217D01*
X101614110Y-99140337D02*
X101868110Y-99394337D01*
X100217110Y-88418217D02*
X100217110Y-73813217D01*
X101868110Y-118918097D02*
X101868110Y-99394337D01*
X101106110Y-72797217D02*
X101233110Y-72797217D01*
X196427510Y-83044357D02*
X196737110Y-82734757D01*
X100217110Y-73813217D02*
X101233110Y-72797217D01*
X107202110Y-56287217D02*
X195213110Y-56287217D01*
X195975110Y-94514217D02*
X196427510Y-94061817D01*
X101868110Y-125131797D02*
X101868110Y-118918097D01*
X100217110Y-97689217D02*
X101614110Y-99086217D01*
X195213110Y-56287217D02*
X196737110Y-57811217D01*
X103682220Y-125883217D02*
X111865010Y-125883217D01*
X113661060Y-126627157D02*
X125998110Y-138964217D01*
X100217110Y-97689217D02*
X100217110Y-88418217D01*
X196427510Y-94061817D02*
X196427510Y-83069067D01*
X196737110Y-82734757D02*
X196737110Y-57811217D01*
X99455110Y-71146217D02*
X99455110Y-64034217D01*
X101614110Y-99140337D02*
X101614110Y-99086217D01*
X101868110Y-125131797D02*
X102619530Y-125883217D01*
X196427510Y-83069067D02*
X196427510Y-83044357D01*
X99455110Y-64034217D02*
X107202110Y-56287217D01*
X111865010Y-125883217D02*
G75*
G02*
X113661053Y-126627174I-10J-2539983D01*
G01*
D23*
X147207110Y-92820207D02*
X147207110Y-68741247D01*
X141619110Y-98408207D02*
X147207110Y-92820207D01*
D25*
X135523110Y-115977217D02*
X141619110Y-109881217D01*
D23*
X155462110Y-59868617D02*
X162574110Y-59868617D01*
D25*
X121172820Y-119195927D02*
X121510110Y-119533217D01*
X131967110Y-119533217D02*
X135523110Y-115977217D01*
X121172820Y-119195927D02*
X121172820Y-119108617D01*
X135523110Y-115977217D02*
X142889110Y-134265217D01*
X121510110Y-119533217D02*
X131967110Y-119533217D01*
D23*
X162574110Y-64389817D02*
X162574110Y-59868617D01*
D25*
X121072820Y-119008617D02*
X121172820Y-119108617D01*
X141619110Y-109881217D02*
X141619110Y-98408207D01*
X121072820Y-119008617D02*
X121072820Y-118954497D01*
D23*
X151110680Y-68741247D02*
X155462110Y-64389817D01*
X147207110Y-68741247D02*
X151110680Y-68741247D01*
X155462110Y-64389817D02*
X155462110Y-59868617D01*
D24*
X160800710Y-145111417D02*
X162756910Y-143155217D01*
X162756910Y-143155217D02*
X178068110Y-143155217D01*
D27*
X157682310Y-145375417D02*
X157682310Y-142590217D01*
D26*
X192038110Y-134011217D02*
X192494450Y-133554877D01*
D25*
X161304110Y-68860217D02*
X170728100Y-59436227D01*
X159780110Y-68860217D02*
X161304110Y-68860217D01*
X192575910Y-99056417D02*
X192575910Y-87840027D01*
D26*
X143524110Y-110770217D02*
X143524110Y-109246217D01*
X192494450Y-133554877D02*
X192494450Y-131598217D01*
D27*
X147334110Y-140615217D02*
X149309110Y-142590217D01*
X172607110Y-146584217D02*
X172607110Y-144806217D01*
X194705110Y-153315217D02*
X195848110Y-152172217D01*
X195848110Y-152172217D02*
X195848110Y-139091217D01*
D25*
X170728100Y-59462217D02*
X190192710Y-59462217D01*
D27*
X157682310Y-145375417D02*
X158637110Y-146330217D01*
D26*
X148709110Y-109246217D02*
X148858110Y-109395207D01*
X193597380Y-131598217D02*
X195848110Y-133848947D01*
D25*
X99328110Y-130709207D02*
X100979120Y-132360217D01*
D26*
X192494450Y-131598217D02*
X192494450Y-99137877D01*
X195848110Y-139091217D02*
X195848110Y-133848947D01*
D27*
X158637110Y-146330217D02*
X171083110Y-146330217D01*
D25*
X192546110Y-99086217D02*
X192575910Y-99056417D01*
D27*
X171083110Y-146330217D02*
X172607110Y-144806217D01*
X172607110Y-146584217D02*
X179338110Y-153315217D01*
D25*
X192605710Y-87810227D02*
X192605710Y-61875217D01*
D27*
X179338110Y-153315217D02*
X194705110Y-153315217D01*
D26*
X192038110Y-134011217D02*
X192258240Y-134231337D01*
X138825110Y-115469217D02*
X143524110Y-110770217D01*
D25*
X99328110Y-130709207D02*
X99328110Y-77623217D01*
D26*
X148858110Y-109395207D02*
X158256110Y-109395207D01*
D27*
X149309110Y-142590217D02*
X157682310Y-142590217D01*
X147334110Y-140615217D02*
X147334110Y-139853217D01*
D25*
X192575910Y-87840027D02*
X192605710Y-87810227D01*
D27*
X104154110Y-103277217D02*
X104154110Y-95089217D01*
D26*
X104513790Y-94729537D02*
X104513790Y-83697127D01*
D25*
X106694110Y-132360217D02*
X107420310Y-131634007D01*
D26*
X192494450Y-99137877D02*
X192546110Y-99086217D01*
D25*
X100979120Y-132360217D02*
X106694110Y-132360217D01*
D26*
X143524110Y-109246217D02*
X148709110Y-109246217D01*
X192494450Y-131598217D02*
X193597380Y-131598217D01*
D27*
X106694110Y-105817217D02*
X108890910Y-105817217D01*
D26*
X138825110Y-116485217D02*
X138825110Y-115469217D01*
D27*
X106694110Y-105817217D02*
G75*
G02*
X104154083Y-103277217I-10J2540017D01*
G01*
D26*
X104513790Y-94729537D02*
G75*
G02*
X104154110Y-95089190I-359690J37D01*
G01*
D25*
X190192710Y-59462217D02*
G75*
G02*
X192605683Y-61875217I-10J-2412983D01*
G01*
D26*
X189244110Y-139345217D02*
X189498110Y-139091217D01*
%TA.AperFunction,Conductor*%
G36*
X138697313Y-125769518D02*
G01*
X138731130Y-125816902D01*
X139310298Y-127254836D01*
X142079910Y-134131115D01*
X142086964Y-134180284D01*
X142088610Y-134180284D01*
X142088610Y-134344063D01*
X142119371Y-134498706D01*
X142119374Y-134498718D01*
X142179712Y-134644389D01*
X142182589Y-134649771D01*
X142180787Y-134650733D01*
X142198876Y-134708507D01*
X142180389Y-134775887D01*
X142128409Y-134822576D01*
X142074896Y-134834717D01*
X141890233Y-134834717D01*
X141789349Y-134854784D01*
X141789344Y-134854785D01*
X141781821Y-134856282D01*
X141754901Y-134861637D01*
X141704027Y-134882710D01*
X141699868Y-134884432D01*
X141699852Y-134884438D01*
X141627423Y-134914439D01*
X141627422Y-134914440D01*
X141519443Y-134986590D01*
X141519441Y-134986591D01*
X141512690Y-134991101D01*
X141241467Y-135262321D01*
X141180143Y-135295805D01*
X141177979Y-135296256D01*
X141131617Y-135305478D01*
X141131610Y-135305480D01*
X140985937Y-135365819D01*
X140985924Y-135365826D01*
X140854821Y-135453427D01*
X140854817Y-135453430D01*
X140743323Y-135564924D01*
X140743320Y-135564928D01*
X140655719Y-135696031D01*
X140655714Y-135696040D01*
X140614888Y-135794605D01*
X140571047Y-135849008D01*
X140504753Y-135871073D01*
X140437054Y-135853794D01*
X140412646Y-135834833D01*
X138528429Y-133950616D01*
X138494944Y-133889293D01*
X138492110Y-133862935D01*
X138492110Y-125863231D01*
X138511795Y-125796192D01*
X138564599Y-125750437D01*
X138633757Y-125740493D01*
X138697313Y-125769518D01*
G37*
%TD.AperFunction*%
%TA.AperFunction,Conductor*%
G36*
X196412937Y-55525039D02*
G01*
X196636478Y-55553152D01*
X196653535Y-55556527D01*
X196870927Y-55615641D01*
X196887349Y-55621371D01*
X197094336Y-55710331D01*
X197109786Y-55718298D01*
X197302287Y-55835349D01*
X197316473Y-55845402D01*
X197490701Y-55988242D01*
X197503339Y-56000180D01*
X197567901Y-56070369D01*
X197655856Y-56165990D01*
X197666706Y-56179588D01*
X197794519Y-56365110D01*
X197803359Y-56380093D01*
X197903947Y-56581671D01*
X197910603Y-56597742D01*
X197981994Y-56811415D01*
X197986336Y-56828261D01*
X198027121Y-57049820D01*
X198029063Y-57067107D01*
X198038493Y-57293445D01*
X198038600Y-57298607D01*
X198038600Y-57306293D01*
X198038549Y-57309836D01*
X198036921Y-57366774D01*
X198037752Y-57374861D01*
X198037025Y-57374935D01*
X198038600Y-57388368D01*
X198038600Y-152520972D01*
X198034802Y-152542298D01*
X198038600Y-152586613D01*
X198038600Y-152631100D01*
X198039661Y-152639154D01*
X198038941Y-152639248D01*
X198041151Y-152655098D01*
X198044010Y-152841921D01*
X198043056Y-152859291D01*
X198014944Y-153082822D01*
X198011568Y-153099886D01*
X197952455Y-153317272D01*
X197946724Y-153333698D01*
X197857768Y-153540677D01*
X197849795Y-153556138D01*
X197732749Y-153748631D01*
X197722691Y-153762824D01*
X197579858Y-153937044D01*
X197567912Y-153949690D01*
X197402106Y-154102203D01*
X197388508Y-154113053D01*
X197202986Y-154240866D01*
X197188003Y-154249706D01*
X196986425Y-154350294D01*
X196970354Y-154356950D01*
X196756681Y-154428341D01*
X196739835Y-154432683D01*
X196518276Y-154473468D01*
X196500988Y-154475410D01*
X196348556Y-154481760D01*
X196319625Y-154478563D01*
X196319599Y-154478768D01*
X196311542Y-154477707D01*
X196311541Y-154477707D01*
X100920334Y-154477707D01*
X100899009Y-154473909D01*
X100854693Y-154477707D01*
X100810209Y-154477707D01*
X100802156Y-154478768D01*
X100802061Y-154478048D01*
X100786210Y-154480258D01*
X100599385Y-154483117D01*
X100582015Y-154482163D01*
X100358484Y-154454051D01*
X100341420Y-154450675D01*
X100124034Y-154391562D01*
X100107608Y-154385831D01*
X99900629Y-154296875D01*
X99885168Y-154288902D01*
X99692675Y-154171856D01*
X99678482Y-154161798D01*
X99656706Y-154143945D01*
X99504258Y-154018961D01*
X99491620Y-154007023D01*
X99403250Y-153910952D01*
X99339103Y-153841213D01*
X99328253Y-153827615D01*
X99200440Y-153642093D01*
X99191600Y-153627110D01*
X99091012Y-153425532D01*
X99084356Y-153409461D01*
X99056367Y-153325689D01*
X99012963Y-153195782D01*
X99008623Y-153178942D01*
X98994070Y-153099886D01*
X98967837Y-152957382D01*
X98965896Y-152940096D01*
X98965566Y-152932166D01*
X98956464Y-152713717D01*
X98956358Y-152708565D01*
X98956358Y-152700875D01*
X98956408Y-152697454D01*
X98958038Y-152640427D01*
X98958038Y-152640426D01*
X98957208Y-152632345D01*
X98957937Y-152632270D01*
X98956365Y-152618849D01*
X98956849Y-146244252D01*
X111591110Y-146244252D01*
X111591110Y-147990987D01*
X111591111Y-147990993D01*
X111597518Y-148050600D01*
X111647812Y-148185445D01*
X111647816Y-148185452D01*
X111734062Y-148300661D01*
X111734065Y-148300664D01*
X111849273Y-148386909D01*
X111849275Y-148386910D01*
X111849279Y-148386913D01*
X111849283Y-148386914D01*
X111852034Y-148388417D01*
X111854259Y-148390642D01*
X111856379Y-148392229D01*
X111856150Y-148392533D01*
X111901441Y-148437821D01*
X111916610Y-148497251D01*
X111916610Y-150719671D01*
X111896925Y-150786710D01*
X111892928Y-150792556D01*
X111783015Y-150943838D01*
X111688259Y-151129805D01*
X111623760Y-151328310D01*
X111591110Y-151534459D01*
X111591110Y-151743174D01*
X111623760Y-151949323D01*
X111688259Y-152147828D01*
X111753623Y-152276111D01*
X111783013Y-152333792D01*
X111905694Y-152502648D01*
X112053279Y-152650233D01*
X112222135Y-152772914D01*
X112309998Y-152817682D01*
X112408098Y-152867667D01*
X112408100Y-152867667D01*
X112408103Y-152867669D01*
X112514504Y-152902241D01*
X112606603Y-152932166D01*
X112656671Y-152940096D01*
X112812752Y-152964817D01*
X112812753Y-152964817D01*
X113021467Y-152964817D01*
X113021468Y-152964817D01*
X113227616Y-152932166D01*
X113426117Y-152867669D01*
X113612085Y-152772914D01*
X113763371Y-152662998D01*
X113829176Y-152639519D01*
X113836255Y-152639317D01*
X119109965Y-152639317D01*
X119177004Y-152659002D01*
X119182832Y-152662986D01*
X119334135Y-152772914D01*
X119421998Y-152817682D01*
X119520098Y-152867667D01*
X119520100Y-152867667D01*
X119520103Y-152867669D01*
X119626504Y-152902241D01*
X119718603Y-152932166D01*
X119768671Y-152940096D01*
X119924752Y-152964817D01*
X119924753Y-152964817D01*
X120133467Y-152964817D01*
X120133468Y-152964817D01*
X120339616Y-152932166D01*
X120538117Y-152867669D01*
X120724085Y-152772914D01*
X120892941Y-152650233D01*
X121040526Y-152502648D01*
X121163207Y-152333792D01*
X121257962Y-152147824D01*
X121322459Y-151949323D01*
X121355110Y-151743175D01*
X121355110Y-151534459D01*
X121322459Y-151328311D01*
X121320254Y-151321526D01*
X121284300Y-151210869D01*
X121257962Y-151129810D01*
X121257960Y-151129807D01*
X121257960Y-151129805D01*
X121183500Y-150983670D01*
X121163207Y-150943842D01*
X121040526Y-150774986D01*
X120892941Y-150627401D01*
X120724085Y-150504720D01*
X120538121Y-150409966D01*
X120339616Y-150345467D01*
X120161653Y-150317281D01*
X120133468Y-150312817D01*
X119924752Y-150312817D01*
X119899956Y-150316744D01*
X119718603Y-150345467D01*
X119520098Y-150409966D01*
X119334134Y-150504720D01*
X119279630Y-150544320D01*
X119182848Y-150614635D01*
X119117044Y-150638115D01*
X119109965Y-150638317D01*
X114041610Y-150638317D01*
X113974571Y-150618632D01*
X113928816Y-150565828D01*
X113917610Y-150514317D01*
X113917610Y-148497251D01*
X113937295Y-148430212D01*
X113977943Y-148392366D01*
X113977841Y-148392229D01*
X113979120Y-148391271D01*
X113982186Y-148388417D01*
X113984933Y-148386915D01*
X113984941Y-148386913D01*
X114100156Y-148300663D01*
X114186406Y-148185448D01*
X114186407Y-148185446D01*
X114187916Y-148182685D01*
X114190140Y-148180460D01*
X114191722Y-148178348D01*
X114192025Y-148178575D01*
X114237323Y-148133282D01*
X114296745Y-148118117D01*
X119109965Y-148118117D01*
X119177004Y-148137802D01*
X119182832Y-148141786D01*
X119334135Y-148251714D01*
X119421998Y-148296482D01*
X119520098Y-148346467D01*
X119520100Y-148346467D01*
X119520103Y-148346469D01*
X119598658Y-148371993D01*
X119718603Y-148410966D01*
X119821678Y-148427291D01*
X119924752Y-148443617D01*
X119924753Y-148443617D01*
X120133467Y-148443617D01*
X120133468Y-148443617D01*
X120339616Y-148410966D01*
X120538117Y-148346469D01*
X120724085Y-148251714D01*
X120892941Y-148129033D01*
X121040526Y-147981448D01*
X121163207Y-147812592D01*
X121257962Y-147626624D01*
X121322459Y-147428123D01*
X121355110Y-147221975D01*
X121355110Y-147013259D01*
X121322459Y-146807111D01*
X121263369Y-146625252D01*
X135213110Y-146625252D01*
X135213110Y-148371987D01*
X135213111Y-148371993D01*
X135219518Y-148431600D01*
X135269812Y-148566445D01*
X135269816Y-148566452D01*
X135356062Y-148681661D01*
X135356065Y-148681664D01*
X135471274Y-148767910D01*
X135471281Y-148767914D01*
X135606127Y-148818208D01*
X135606126Y-148818208D01*
X135613054Y-148818952D01*
X135665737Y-148824617D01*
X137412482Y-148824616D01*
X137472093Y-148818208D01*
X137606941Y-148767913D01*
X137722156Y-148681663D01*
X137808406Y-148566448D01*
X137858701Y-148431600D01*
X137861038Y-148409859D01*
X137887775Y-148345312D01*
X137945167Y-148305463D01*
X137984327Y-148299117D01*
X142530500Y-148299117D01*
X142597539Y-148318802D01*
X142630814Y-148350226D01*
X142639694Y-148362448D01*
X142639696Y-148362450D01*
X142639697Y-148362451D01*
X142787282Y-148510036D01*
X142799492Y-148518906D01*
X142842160Y-148574234D01*
X142850610Y-148619226D01*
X142850610Y-150899207D01*
X142830925Y-150966246D01*
X142799500Y-150999521D01*
X142787279Y-151008401D01*
X142787275Y-151008404D01*
X142639697Y-151155982D01*
X142639694Y-151155985D01*
X142639694Y-151155986D01*
X142630815Y-151168206D01*
X142575486Y-151210869D01*
X142530500Y-151219317D01*
X137659720Y-151219317D01*
X137592681Y-151199632D01*
X137559405Y-151168207D01*
X137550526Y-151155986D01*
X137402941Y-151008401D01*
X137234085Y-150885720D01*
X137048121Y-150790966D01*
X136849616Y-150726467D01*
X136671653Y-150698281D01*
X136643468Y-150693817D01*
X136434752Y-150693817D01*
X136409956Y-150697744D01*
X136228603Y-150726467D01*
X136030098Y-150790966D01*
X135844134Y-150885720D01*
X135675276Y-151008403D01*
X135527696Y-151155983D01*
X135405013Y-151324841D01*
X135310259Y-151510805D01*
X135245760Y-151709310D01*
X135213110Y-151915459D01*
X135213110Y-152124174D01*
X135245760Y-152330323D01*
X135310259Y-152528828D01*
X135401840Y-152708565D01*
X135405013Y-152714792D01*
X135527694Y-152883648D01*
X135675279Y-153031233D01*
X135844135Y-153153914D01*
X135910085Y-153187517D01*
X136030098Y-153248667D01*
X136030100Y-153248667D01*
X136030103Y-153248669D01*
X136136504Y-153283241D01*
X136228603Y-153313166D01*
X136307670Y-153325689D01*
X136434752Y-153345817D01*
X136434753Y-153345817D01*
X136643467Y-153345817D01*
X136643468Y-153345817D01*
X136849616Y-153313166D01*
X137048117Y-153248669D01*
X137234085Y-153153914D01*
X137402941Y-153031233D01*
X137550526Y-152883648D01*
X137559404Y-152871427D01*
X137614734Y-152828765D01*
X137659720Y-152820317D01*
X142530500Y-152820317D01*
X142597539Y-152840002D01*
X142630814Y-152871426D01*
X142639694Y-152883648D01*
X142787279Y-153031233D01*
X142956135Y-153153914D01*
X143022085Y-153187517D01*
X143142098Y-153248667D01*
X143142100Y-153248667D01*
X143142103Y-153248669D01*
X143248504Y-153283241D01*
X143340603Y-153313166D01*
X143419670Y-153325689D01*
X143546752Y-153345817D01*
X143546753Y-153345817D01*
X143755467Y-153345817D01*
X143755468Y-153345817D01*
X143961616Y-153313166D01*
X144160117Y-153248669D01*
X144346085Y-153153914D01*
X144514941Y-153031233D01*
X144662526Y-152883648D01*
X144785207Y-152714792D01*
X144879962Y-152528824D01*
X144944459Y-152330323D01*
X144977110Y-152124175D01*
X144977110Y-151915459D01*
X144949823Y-151743175D01*
X144944459Y-151709310D01*
X144879960Y-151510805D01*
X144829975Y-151412705D01*
X144785207Y-151324842D01*
X144662526Y-151155986D01*
X144514941Y-151008401D01*
X144502720Y-150999522D01*
X144460058Y-150944193D01*
X144451610Y-150899207D01*
X144451610Y-148619226D01*
X144471295Y-148552187D01*
X144502728Y-148518906D01*
X144514937Y-148510036D01*
X144514937Y-148510035D01*
X144514941Y-148510033D01*
X144662526Y-148362448D01*
X144785207Y-148193592D01*
X144879962Y-148007624D01*
X144944459Y-147809123D01*
X144977110Y-147602975D01*
X144977110Y-147394259D01*
X144949823Y-147221975D01*
X144944459Y-147188110D01*
X144879960Y-146989605D01*
X144829975Y-146891505D01*
X144785207Y-146803642D01*
X144662526Y-146634786D01*
X144514941Y-146487201D01*
X144346085Y-146364520D01*
X144160121Y-146269766D01*
X143961616Y-146205267D01*
X143783653Y-146177081D01*
X143755468Y-146172617D01*
X143546752Y-146172617D01*
X143521956Y-146176544D01*
X143340603Y-146205267D01*
X143142098Y-146269766D01*
X142956134Y-146364520D01*
X142787276Y-146487203D01*
X142639697Y-146634782D01*
X142639694Y-146634785D01*
X142639694Y-146634786D01*
X142630815Y-146647006D01*
X142575486Y-146689669D01*
X142530500Y-146698117D01*
X137984328Y-146698117D01*
X137917289Y-146678432D01*
X137871534Y-146625628D01*
X137861038Y-146587372D01*
X137860556Y-146582893D01*
X137858701Y-146565634D01*
X137808406Y-146430786D01*
X137808405Y-146430785D01*
X137808403Y-146430781D01*
X137722157Y-146315572D01*
X137722154Y-146315569D01*
X137606945Y-146229323D01*
X137606938Y-146229319D01*
X137472092Y-146179025D01*
X137472093Y-146179025D01*
X137412493Y-146172618D01*
X137412491Y-146172617D01*
X137412483Y-146172617D01*
X137412474Y-146172617D01*
X135665739Y-146172617D01*
X135665733Y-146172618D01*
X135606126Y-146179025D01*
X135471281Y-146229319D01*
X135471274Y-146229323D01*
X135356065Y-146315569D01*
X135356062Y-146315572D01*
X135269816Y-146430781D01*
X135269812Y-146430788D01*
X135219518Y-146565634D01*
X135213111Y-146625233D01*
X135213110Y-146625252D01*
X121263369Y-146625252D01*
X121257962Y-146608610D01*
X121257960Y-146608607D01*
X121257960Y-146608605D01*
X121196101Y-146487201D01*
X121163207Y-146422642D01*
X121040526Y-146253786D01*
X120892941Y-146106201D01*
X120724085Y-145983520D01*
X120538121Y-145888766D01*
X120339616Y-145824267D01*
X120161653Y-145796081D01*
X120133468Y-145791617D01*
X119924752Y-145791617D01*
X119899956Y-145795544D01*
X119718603Y-145824267D01*
X119520098Y-145888766D01*
X119334134Y-145983520D01*
X119262062Y-146035883D01*
X119182848Y-146093435D01*
X119117044Y-146116915D01*
X119109965Y-146117117D01*
X114296745Y-146117117D01*
X114229706Y-146097432D01*
X114191858Y-146056783D01*
X114191722Y-146056886D01*
X114190769Y-146055613D01*
X114187916Y-146052549D01*
X114186407Y-146049787D01*
X114100157Y-145934572D01*
X114100154Y-145934569D01*
X113984945Y-145848323D01*
X113984938Y-145848319D01*
X113850092Y-145798025D01*
X113850093Y-145798025D01*
X113790493Y-145791618D01*
X113790491Y-145791617D01*
X113790483Y-145791617D01*
X113790474Y-145791617D01*
X112043739Y-145791617D01*
X112043733Y-145791618D01*
X111984126Y-145798025D01*
X111849281Y-145848319D01*
X111849274Y-145848323D01*
X111734065Y-145934569D01*
X111734062Y-145934572D01*
X111647816Y-146049781D01*
X111647812Y-146049788D01*
X111597518Y-146184634D01*
X111591111Y-146244233D01*
X111591110Y-146244252D01*
X98956849Y-146244252D01*
X98956941Y-145032570D01*
X160000210Y-145032570D01*
X160000210Y-145190263D01*
X160030971Y-145344906D01*
X160030974Y-145344918D01*
X160091312Y-145490589D01*
X160091319Y-145490602D01*
X160178920Y-145621705D01*
X160178923Y-145621709D01*
X160290417Y-145733203D01*
X160290421Y-145733206D01*
X160421524Y-145820807D01*
X160421537Y-145820814D01*
X160487951Y-145848323D01*
X160567213Y-145881154D01*
X160721863Y-145911916D01*
X160721866Y-145911917D01*
X160721868Y-145911917D01*
X160879554Y-145911917D01*
X160879555Y-145911916D01*
X161034207Y-145881154D01*
X161171543Y-145824268D01*
X161179882Y-145820814D01*
X161179882Y-145820813D01*
X161179889Y-145820811D01*
X161310999Y-145733206D01*
X163052169Y-143992036D01*
X163113492Y-143958551D01*
X163139850Y-143955717D01*
X178146954Y-143955717D01*
X178146955Y-143955716D01*
X178301607Y-143924954D01*
X178447289Y-143864611D01*
X178578399Y-143777006D01*
X178689899Y-143665506D01*
X178777504Y-143534396D01*
X178837847Y-143388714D01*
X178868610Y-143234059D01*
X178868610Y-143076375D01*
X178868610Y-143076372D01*
X178868609Y-143076370D01*
X178856222Y-143014096D01*
X178837847Y-142921720D01*
X178837845Y-142921715D01*
X178777507Y-142776044D01*
X178777500Y-142776031D01*
X178689899Y-142644928D01*
X178689896Y-142644924D01*
X178578402Y-142533430D01*
X178578398Y-142533427D01*
X178447295Y-142445826D01*
X178447282Y-142445819D01*
X178301611Y-142385481D01*
X178301599Y-142385478D01*
X178146955Y-142354717D01*
X178146952Y-142354717D01*
X162835753Y-142354717D01*
X162678068Y-142354717D01*
X162678063Y-142354717D01*
X162523420Y-142385477D01*
X162523412Y-142385479D01*
X162377734Y-142445821D01*
X162377724Y-142445826D01*
X162246621Y-142533427D01*
X162246617Y-142533430D01*
X160178923Y-144601124D01*
X160178920Y-144601128D01*
X160091319Y-144732231D01*
X160091312Y-144732244D01*
X160030974Y-144877915D01*
X160030971Y-144877927D01*
X160000210Y-145032570D01*
X98956941Y-145032570D01*
X98957241Y-141090236D01*
X105963610Y-141090236D01*
X105963610Y-142172187D01*
X105971504Y-142235046D01*
X105974170Y-142256267D01*
X105996983Y-142311343D01*
X106029246Y-142389232D01*
X106029247Y-142389233D01*
X106081231Y-142456152D01*
X106639179Y-143014101D01*
X106663299Y-143032837D01*
X106706092Y-143066081D01*
X106730945Y-143076375D01*
X106839060Y-143121157D01*
X106923133Y-143131717D01*
X109005085Y-143131716D01*
X109089160Y-143121157D01*
X109222126Y-143066080D01*
X109289045Y-143014096D01*
X109654430Y-142648710D01*
X109715751Y-142615227D01*
X109785442Y-142620211D01*
X109829790Y-142648712D01*
X110102793Y-142921715D01*
X110195179Y-143014101D01*
X110219299Y-143032837D01*
X110262092Y-143066081D01*
X110286945Y-143076375D01*
X110395060Y-143121157D01*
X110479133Y-143131717D01*
X112561085Y-143131716D01*
X112645160Y-143121157D01*
X112778126Y-143066080D01*
X112845045Y-143014096D01*
X113402994Y-142456148D01*
X113454974Y-142389234D01*
X113510050Y-142256267D01*
X113520610Y-142172194D01*
X113520609Y-141090242D01*
X113510050Y-141006167D01*
X113454973Y-140873201D01*
X113402989Y-140806282D01*
X112845041Y-140248333D01*
X112833214Y-140239145D01*
X112778127Y-140196352D01*
X112645163Y-140141278D01*
X112645161Y-140141277D01*
X112645160Y-140141277D01*
X112645159Y-140141276D01*
X112645156Y-140141276D01*
X112561087Y-140130717D01*
X110479139Y-140130717D01*
X110395060Y-140141277D01*
X110262094Y-140196353D01*
X110195175Y-140248338D01*
X110195168Y-140248344D01*
X109829790Y-140613721D01*
X109768467Y-140647206D01*
X109698775Y-140642222D01*
X109654428Y-140613721D01*
X109508425Y-140467718D01*
X109289041Y-140248333D01*
X109277214Y-140239145D01*
X109222127Y-140196352D01*
X109089163Y-140141278D01*
X109089161Y-140141277D01*
X109089160Y-140141277D01*
X109089159Y-140141276D01*
X109089156Y-140141276D01*
X109005087Y-140130717D01*
X106923139Y-140130717D01*
X106839060Y-140141277D01*
X106706094Y-140196353D01*
X106639175Y-140248338D01*
X106639168Y-140248344D01*
X106081231Y-140806280D01*
X106081220Y-140806293D01*
X106029245Y-140873199D01*
X105974171Y-141006163D01*
X105974169Y-141006170D01*
X105963610Y-141090236D01*
X98957241Y-141090236D01*
X98957521Y-137407236D01*
X114853610Y-137407236D01*
X114853610Y-138489187D01*
X114857046Y-138516546D01*
X114864170Y-138573267D01*
X114886983Y-138628343D01*
X114919246Y-138706232D01*
X114919247Y-138706233D01*
X114971231Y-138773152D01*
X115529179Y-139331101D01*
X115545014Y-139343402D01*
X115596092Y-139383081D01*
X115668809Y-139413200D01*
X115729060Y-139438157D01*
X115813133Y-139448717D01*
X117895085Y-139448716D01*
X117979160Y-139438157D01*
X118112126Y-139383080D01*
X118179045Y-139331096D01*
X118736994Y-138773148D01*
X118788974Y-138706234D01*
X118844050Y-138573267D01*
X118854610Y-138489194D01*
X118854609Y-137407242D01*
X118844050Y-137323167D01*
X118788973Y-137190201D01*
X118736989Y-137123282D01*
X118179041Y-136565333D01*
X118167214Y-136556145D01*
X118112127Y-136513352D01*
X117979163Y-136458278D01*
X117979161Y-136458277D01*
X117979160Y-136458277D01*
X117979159Y-136458276D01*
X117979156Y-136458276D01*
X117895087Y-136447717D01*
X115813139Y-136447717D01*
X115729060Y-136458277D01*
X115596094Y-136513353D01*
X115529175Y-136565338D01*
X115529168Y-136565344D01*
X114971231Y-137123280D01*
X114971220Y-137123293D01*
X114919245Y-137190199D01*
X114864171Y-137323163D01*
X114864169Y-137323170D01*
X114853610Y-137407236D01*
X98957521Y-137407236D01*
X98962496Y-71943612D01*
X98982186Y-71876575D01*
X99034993Y-71830824D01*
X99104152Y-71820885D01*
X99167706Y-71849915D01*
X99174177Y-71855941D01*
X99767016Y-72448780D01*
X99800501Y-72510103D01*
X99801808Y-72555859D01*
X99780110Y-72692853D01*
X99780110Y-72901574D01*
X99812760Y-73107721D01*
X99818508Y-73125410D01*
X99820503Y-73195251D01*
X99788259Y-73251410D01*
X99672995Y-73366675D01*
X99644715Y-73409000D01*
X99596333Y-73481408D01*
X99543531Y-73608884D01*
X99543528Y-73608894D01*
X99516610Y-73744221D01*
X99516610Y-87992901D01*
X99507171Y-88040353D01*
X99447374Y-88184715D01*
X99447371Y-88184727D01*
X99416610Y-88339370D01*
X99416610Y-88497063D01*
X99447371Y-88651706D01*
X99447374Y-88651718D01*
X99507171Y-88796081D01*
X99516610Y-88843533D01*
X99516610Y-97620223D01*
X99516610Y-97758211D01*
X99516610Y-97758213D01*
X99516609Y-97758213D01*
X99543528Y-97893539D01*
X99543531Y-97893549D01*
X99596332Y-98021024D01*
X99672997Y-98135762D01*
X99672998Y-98135763D01*
X100818037Y-99280801D01*
X100844917Y-99321029D01*
X100904714Y-99465393D01*
X100904719Y-99465402D01*
X100992320Y-99596505D01*
X100992323Y-99596509D01*
X101103817Y-99708003D01*
X101103820Y-99708005D01*
X101103821Y-99708006D01*
X101112499Y-99713804D01*
X101157305Y-99767414D01*
X101167610Y-99816907D01*
X101167610Y-118492781D01*
X101158171Y-118540233D01*
X101098374Y-118684595D01*
X101098371Y-118684607D01*
X101067610Y-118839250D01*
X101067610Y-118996943D01*
X101098371Y-119151586D01*
X101098374Y-119151598D01*
X101158171Y-119295961D01*
X101167610Y-119343413D01*
X101167610Y-125062803D01*
X101167610Y-125200791D01*
X101167610Y-125200793D01*
X101167609Y-125200793D01*
X101194528Y-125336119D01*
X101194531Y-125336129D01*
X101247332Y-125463604D01*
X101323997Y-125578342D01*
X101323998Y-125578343D01*
X101932693Y-126187036D01*
X101966178Y-126248359D01*
X101961194Y-126318050D01*
X101919323Y-126373984D01*
X101853858Y-126398401D01*
X101845012Y-126398717D01*
X101758749Y-126398717D01*
X101542733Y-126432931D01*
X101334729Y-126500514D01*
X101334726Y-126500515D01*
X101139849Y-126599812D01*
X100962916Y-126728359D01*
X100808252Y-126883023D01*
X100679705Y-127059956D01*
X100580408Y-127254833D01*
X100580407Y-127254836D01*
X100512824Y-127462840D01*
X100478610Y-127678855D01*
X100478610Y-127897578D01*
X100512824Y-128113593D01*
X100580407Y-128321597D01*
X100580408Y-128321600D01*
X100679705Y-128516477D01*
X100808252Y-128693410D01*
X100808258Y-128693416D01*
X100962911Y-128848069D01*
X101114085Y-128957902D01*
X101156750Y-129013231D01*
X101162729Y-129082844D01*
X101130124Y-129144640D01*
X101114084Y-129158538D01*
X100962927Y-129268359D01*
X100962922Y-129268363D01*
X100808262Y-129423023D01*
X100679715Y-129599956D01*
X100580418Y-129794833D01*
X100580417Y-129794836D01*
X100512834Y-130002840D01*
X100478620Y-130218855D01*
X100478620Y-130437578D01*
X100512834Y-130653593D01*
X100580417Y-130861597D01*
X100580418Y-130861600D01*
X100679715Y-131056477D01*
X100808262Y-131233410D01*
X100962926Y-131388074D01*
X101128494Y-131508364D01*
X101139863Y-131516624D01*
X101267252Y-131581532D01*
X101334736Y-131615918D01*
X101334739Y-131615919D01*
X101438741Y-131649710D01*
X101542745Y-131683503D01*
X101642792Y-131699349D01*
X101758759Y-131717717D01*
X101758764Y-131717717D01*
X101977481Y-131717717D01*
X102082202Y-131701129D01*
X102193495Y-131683503D01*
X102401503Y-131615918D01*
X102596377Y-131516624D01*
X102695721Y-131444446D01*
X102773313Y-131388074D01*
X102773315Y-131388071D01*
X102773319Y-131388069D01*
X102927972Y-131233416D01*
X102927974Y-131233412D01*
X102927977Y-131233410D01*
X102994091Y-131142410D01*
X103056527Y-131056474D01*
X103155821Y-130861600D01*
X103223406Y-130653592D01*
X103254395Y-130457938D01*
X103257620Y-130437578D01*
X103257620Y-130218855D01*
X103237715Y-130093188D01*
X103223406Y-130002842D01*
X103155821Y-129794834D01*
X103155821Y-129794833D01*
X103121435Y-129727349D01*
X103056527Y-129599960D01*
X103048267Y-129588591D01*
X102927977Y-129423023D01*
X102773319Y-129268365D01*
X102670252Y-129193483D01*
X102622143Y-129158530D01*
X102579479Y-129103202D01*
X102573500Y-129033588D01*
X102606105Y-128971793D01*
X102622141Y-128957897D01*
X102773309Y-128848069D01*
X102927962Y-128693416D01*
X102927964Y-128693412D01*
X102927967Y-128693410D01*
X103021040Y-128565304D01*
X103056517Y-128516474D01*
X103155811Y-128321600D01*
X103223396Y-128113592D01*
X103241022Y-128002299D01*
X103257610Y-127897578D01*
X103257610Y-127678855D01*
X103236414Y-127545036D01*
X103223396Y-127462842D01*
X103155811Y-127254834D01*
X103155811Y-127254833D01*
X103116817Y-127178304D01*
X103056517Y-127059960D01*
X103048257Y-127048591D01*
X102927967Y-126883023D01*
X102840342Y-126795398D01*
X102806857Y-126734075D01*
X102811841Y-126664383D01*
X102853713Y-126608450D01*
X102919177Y-126584033D01*
X102928023Y-126583717D01*
X103613227Y-126583717D01*
X111786083Y-126583717D01*
X111860943Y-126583717D01*
X111869052Y-126583982D01*
X111889471Y-126585320D01*
X112097019Y-126598923D01*
X112113079Y-126601038D01*
X112302283Y-126638673D01*
X112333134Y-126644810D01*
X112348802Y-126649008D01*
X112394095Y-126664383D01*
X112561270Y-126721132D01*
X112576235Y-126727330D01*
X112777473Y-126826569D01*
X112791515Y-126834676D01*
X112978072Y-126959330D01*
X112990932Y-126969198D01*
X113094426Y-127059960D01*
X113162683Y-127119820D01*
X113168599Y-127125361D01*
X113221543Y-127178304D01*
X113221559Y-127178313D01*
X113226772Y-127183526D01*
X113226772Y-127183527D01*
X113226778Y-127183532D01*
X125202038Y-139158801D01*
X125228918Y-139199030D01*
X125288712Y-139343389D01*
X125288719Y-139343402D01*
X125376320Y-139474505D01*
X125376323Y-139474509D01*
X125487817Y-139586003D01*
X125487821Y-139586006D01*
X125618924Y-139673607D01*
X125618937Y-139673614D01*
X125721060Y-139715914D01*
X125764613Y-139733954D01*
X125919263Y-139764716D01*
X125919266Y-139764717D01*
X125919268Y-139764717D01*
X126076954Y-139764717D01*
X126076955Y-139764716D01*
X126231607Y-139733954D01*
X126257128Y-139723382D01*
X126326596Y-139715914D01*
X126389076Y-139747189D01*
X126424728Y-139807278D01*
X126422234Y-139877103D01*
X126419141Y-139885396D01*
X126371374Y-140000715D01*
X126371371Y-140000727D01*
X126340610Y-140155370D01*
X126340610Y-140313063D01*
X126371371Y-140467706D01*
X126371374Y-140467718D01*
X126431712Y-140613389D01*
X126431719Y-140613402D01*
X126519320Y-140744505D01*
X126519323Y-140744509D01*
X126630817Y-140856003D01*
X126630821Y-140856006D01*
X126761924Y-140943607D01*
X126761937Y-140943614D01*
X126907608Y-141003952D01*
X126907613Y-141003954D01*
X127062263Y-141034716D01*
X127062266Y-141034717D01*
X127062268Y-141034717D01*
X127219954Y-141034717D01*
X127219955Y-141034716D01*
X127374607Y-141003954D01*
X127520289Y-140943611D01*
X127651399Y-140856006D01*
X127762899Y-140744506D01*
X127850504Y-140613396D01*
X127910847Y-140467714D01*
X127941610Y-140313059D01*
X127941610Y-140155375D01*
X127941610Y-140155372D01*
X127941609Y-140155370D01*
X127938806Y-140141277D01*
X127910847Y-140000720D01*
X127851049Y-139856353D01*
X127841610Y-139808901D01*
X127841610Y-138968125D01*
X127836043Y-138911607D01*
X127810402Y-138651264D01*
X127778165Y-138489197D01*
X127748292Y-138339010D01*
X127748289Y-138338999D01*
X127748288Y-138338996D01*
X127748287Y-138338990D01*
X127682879Y-138123370D01*
X133579610Y-138123370D01*
X133579610Y-138281063D01*
X133610371Y-138435706D01*
X133610374Y-138435718D01*
X133670712Y-138581389D01*
X133670719Y-138581402D01*
X133758320Y-138712505D01*
X133758323Y-138712509D01*
X133869817Y-138824003D01*
X133869821Y-138824006D01*
X134000924Y-138911607D01*
X134000937Y-138911614D01*
X134137369Y-138968125D01*
X134146613Y-138971954D01*
X134301263Y-139002716D01*
X134301266Y-139002717D01*
X134301268Y-139002717D01*
X134458954Y-139002717D01*
X134458955Y-139002716D01*
X134613607Y-138971954D01*
X134759289Y-138911611D01*
X134890399Y-138824006D01*
X135001899Y-138712506D01*
X135089504Y-138581396D01*
X135149847Y-138435714D01*
X135180610Y-138281059D01*
X135180610Y-138123375D01*
X135180610Y-138123372D01*
X135180609Y-138123370D01*
X135165713Y-138048485D01*
X135149847Y-137968720D01*
X135140180Y-137945382D01*
X135089507Y-137823044D01*
X135089500Y-137823031D01*
X135001899Y-137691928D01*
X135001896Y-137691924D01*
X134890402Y-137580430D01*
X134890398Y-137580427D01*
X134759295Y-137492826D01*
X134759282Y-137492819D01*
X134613611Y-137432481D01*
X134613599Y-137432478D01*
X134458955Y-137401717D01*
X134458952Y-137401717D01*
X134301268Y-137401717D01*
X134301265Y-137401717D01*
X134146620Y-137432478D01*
X134146608Y-137432481D01*
X134000937Y-137492819D01*
X134000924Y-137492826D01*
X133869821Y-137580427D01*
X133869817Y-137580430D01*
X133758323Y-137691924D01*
X133758320Y-137691928D01*
X133670719Y-137823031D01*
X133670712Y-137823044D01*
X133610374Y-137968715D01*
X133610371Y-137968727D01*
X133579610Y-138123370D01*
X127682879Y-138123370D01*
X127655863Y-138034309D01*
X127534020Y-137740154D01*
X127510439Y-137696038D01*
X127410741Y-137509516D01*
X127383931Y-137459358D01*
X127368906Y-137436872D01*
X127207048Y-137194633D01*
X127207043Y-137194625D01*
X127005057Y-136948506D01*
X127005056Y-136948505D01*
X127005052Y-136948500D01*
X126892489Y-136835937D01*
X126836679Y-136780128D01*
X126836676Y-136780126D01*
X126832348Y-136775797D01*
X126832342Y-136775792D01*
X113238270Y-123181710D01*
X113238267Y-123181706D01*
X113238267Y-123181707D01*
X113231199Y-123174639D01*
X113231199Y-123174638D01*
X113175390Y-123118828D01*
X113175389Y-123118827D01*
X113062826Y-123006264D01*
X112816707Y-122804278D01*
X112816706Y-122804277D01*
X112816702Y-122804274D01*
X112704100Y-122729036D01*
X112551982Y-122627394D01*
X112551964Y-122627383D01*
X112271180Y-122477300D01*
X112271175Y-122477298D01*
X111977019Y-122355454D01*
X111672327Y-122263027D01*
X111672316Y-122263024D01*
X111360069Y-122200916D01*
X111360052Y-122200913D01*
X111120443Y-122177314D01*
X111043205Y-122169707D01*
X111043202Y-122169707D01*
X103874780Y-122169707D01*
X103807741Y-122150022D01*
X103761986Y-122097218D01*
X103750780Y-122045707D01*
X103750780Y-113592672D01*
X108416110Y-113592672D01*
X108416110Y-113789761D01*
X108454557Y-113983045D01*
X108454559Y-113983053D01*
X108529977Y-114165127D01*
X108529982Y-114165137D01*
X108639470Y-114328997D01*
X108639473Y-114329001D01*
X108778825Y-114468353D01*
X108778829Y-114468356D01*
X108942689Y-114577844D01*
X108942693Y-114577846D01*
X108942696Y-114577848D01*
X109124774Y-114653268D01*
X109318065Y-114691716D01*
X109318068Y-114691717D01*
X109318070Y-114691717D01*
X109515152Y-114691717D01*
X109515153Y-114691716D01*
X109708446Y-114653268D01*
X109890524Y-114577848D01*
X110054391Y-114468356D01*
X111826711Y-112696036D01*
X111888034Y-112662551D01*
X111914392Y-112659717D01*
X114647326Y-112659717D01*
X114714365Y-112679402D01*
X114760120Y-112732206D01*
X114770064Y-112801364D01*
X114741039Y-112864920D01*
X114735007Y-112871398D01*
X114679973Y-112926431D01*
X114679970Y-112926435D01*
X114570481Y-113090296D01*
X114570474Y-113090309D01*
X114495060Y-113272377D01*
X114495057Y-113272387D01*
X114456610Y-113465673D01*
X114456610Y-120012761D01*
X114495057Y-120206047D01*
X114495060Y-120206058D01*
X114501125Y-120220698D01*
X114501124Y-120220698D01*
X114501127Y-120220702D01*
X114570474Y-120388124D01*
X114570481Y-120388137D01*
X114679970Y-120551998D01*
X114679973Y-120552002D01*
X114823647Y-120695676D01*
X114823669Y-120695696D01*
X119137325Y-125009353D01*
X119137329Y-125009356D01*
X119301189Y-125118844D01*
X119301193Y-125118846D01*
X119301196Y-125118848D01*
X119483274Y-125194268D01*
X119676565Y-125232716D01*
X119676568Y-125232717D01*
X119676570Y-125232717D01*
X119873652Y-125232717D01*
X119873653Y-125232716D01*
X120066946Y-125194268D01*
X120249024Y-125118848D01*
X120412891Y-125009356D01*
X120552249Y-124869998D01*
X120661741Y-124706131D01*
X120737161Y-124524053D01*
X120775610Y-124330757D01*
X120775610Y-124133677D01*
X120775610Y-124133676D01*
X120775610Y-124133674D01*
X120775609Y-124133672D01*
X120770263Y-124106795D01*
X120737161Y-123940381D01*
X120661741Y-123758303D01*
X120661739Y-123758300D01*
X120661737Y-123758296D01*
X120552249Y-123594436D01*
X120552246Y-123594432D01*
X116493929Y-119536115D01*
X116460444Y-119474792D01*
X116457610Y-119448434D01*
X116457610Y-113465673D01*
X116419162Y-113272387D01*
X116419161Y-113272386D01*
X116419161Y-113272382D01*
X116396344Y-113217296D01*
X116343745Y-113090309D01*
X116343738Y-113090296D01*
X116234249Y-112926435D01*
X116234246Y-112926431D01*
X116179213Y-112871398D01*
X116168600Y-112851961D01*
X116154100Y-112835228D01*
X116152183Y-112821896D01*
X116145728Y-112810075D01*
X116147307Y-112787988D01*
X116144156Y-112766070D01*
X116149751Y-112753818D01*
X116150712Y-112740383D01*
X116163982Y-112722656D01*
X116173181Y-112702514D01*
X116184512Y-112695231D01*
X116192584Y-112684450D01*
X116213329Y-112676712D01*
X116231959Y-112664740D01*
X116253877Y-112661588D01*
X116258048Y-112660033D01*
X116266894Y-112659717D01*
X116388328Y-112659717D01*
X116455367Y-112679402D01*
X116476009Y-112696036D01*
X117468291Y-113688318D01*
X117501776Y-113749641D01*
X117504610Y-113775999D01*
X117504610Y-119681458D01*
X117513119Y-119724234D01*
X117543059Y-119874753D01*
X117552037Y-119896427D01*
X117555883Y-119905712D01*
X117618474Y-120056824D01*
X117618481Y-120056837D01*
X117727970Y-120220698D01*
X117727973Y-120220702D01*
X117871647Y-120364376D01*
X117871669Y-120364396D01*
X122374145Y-124866872D01*
X122374174Y-124866903D01*
X122516624Y-125009353D01*
X122516628Y-125009356D01*
X122680489Y-125118845D01*
X122680502Y-125118852D01*
X122809243Y-125172178D01*
X122834687Y-125182717D01*
X122862574Y-125194268D01*
X122939839Y-125209637D01*
X122961386Y-125213923D01*
X123055866Y-125232717D01*
X123055869Y-125232717D01*
X133335653Y-125232717D01*
X133496152Y-125200791D01*
X133528945Y-125194268D01*
X133711024Y-125118849D01*
X133874892Y-125009356D01*
X134014249Y-124869999D01*
X134123742Y-124706131D01*
X134199161Y-124524052D01*
X134211742Y-124460799D01*
X134237610Y-124330760D01*
X134237610Y-124133673D01*
X134199162Y-123940387D01*
X134199161Y-123940386D01*
X134199161Y-123940382D01*
X134149988Y-123821666D01*
X134123745Y-123758309D01*
X134123738Y-123758296D01*
X134014249Y-123594435D01*
X134014246Y-123594431D01*
X133874895Y-123455080D01*
X133874891Y-123455077D01*
X133711030Y-123345588D01*
X133711017Y-123345581D01*
X133528949Y-123270167D01*
X133528939Y-123270164D01*
X133335653Y-123231717D01*
X133335651Y-123231717D01*
X123620192Y-123231717D01*
X123553153Y-123212032D01*
X123532511Y-123195398D01*
X123241511Y-122904398D01*
X123208026Y-122843075D01*
X123213010Y-122773383D01*
X123254882Y-122717450D01*
X123320346Y-122693033D01*
X123329192Y-122692717D01*
X134295328Y-122692717D01*
X134362367Y-122712402D01*
X134383009Y-122729036D01*
X136454791Y-124800818D01*
X136488276Y-124862141D01*
X136491110Y-124888499D01*
X136491110Y-134427258D01*
X136496413Y-134453918D01*
X136529557Y-134620545D01*
X136529559Y-134620552D01*
X136533050Y-134628981D01*
X136604976Y-134802628D01*
X136604981Y-134802637D01*
X136714470Y-134966498D01*
X136714473Y-134966502D01*
X136858147Y-135110176D01*
X136858169Y-135110196D01*
X139184845Y-137436872D01*
X139218330Y-137498195D01*
X139213346Y-137567887D01*
X139200266Y-137593443D01*
X139131722Y-137696026D01*
X139131712Y-137696044D01*
X139071374Y-137841715D01*
X139071371Y-137841727D01*
X139040610Y-137996370D01*
X139040610Y-138154063D01*
X139071371Y-138308706D01*
X139071374Y-138308718D01*
X139131712Y-138454389D01*
X139131719Y-138454402D01*
X139219320Y-138585505D01*
X139219323Y-138585509D01*
X139330817Y-138697003D01*
X139330821Y-138697006D01*
X139461924Y-138784607D01*
X139461937Y-138784614D01*
X139607608Y-138844952D01*
X139607613Y-138844954D01*
X139762263Y-138875716D01*
X139762266Y-138875717D01*
X139762268Y-138875717D01*
X139919954Y-138875717D01*
X139919955Y-138875716D01*
X140074607Y-138844954D01*
X140220289Y-138784611D01*
X140351399Y-138697006D01*
X140462899Y-138585506D01*
X140550504Y-138454396D01*
X140610847Y-138308714D01*
X140641610Y-138154059D01*
X140641610Y-138048485D01*
X140661295Y-137981446D01*
X140696717Y-137945384D01*
X140859891Y-137836356D01*
X140900210Y-137796037D01*
X140961533Y-137762551D01*
X140987892Y-137759717D01*
X162516106Y-137759717D01*
X162614467Y-137740151D01*
X162651438Y-137732797D01*
X162778921Y-137679992D01*
X162858806Y-137626614D01*
X162925482Y-137605737D01*
X162927696Y-137605717D01*
X173243115Y-137605717D01*
X173243118Y-137605717D01*
X173569754Y-137573547D01*
X173891664Y-137509515D01*
X174205748Y-137414238D01*
X174508981Y-137288635D01*
X174798442Y-137133915D01*
X174875143Y-137082665D01*
X174941821Y-137061787D01*
X174944034Y-137061767D01*
X174973603Y-137061767D01*
X174973604Y-137061766D01*
X175166896Y-137023318D01*
X175348975Y-136947898D01*
X175512842Y-136838406D01*
X182400853Y-129950383D01*
X182400858Y-129950380D01*
X182411063Y-129940174D01*
X182411065Y-129940174D01*
X182476621Y-129874619D01*
X182599611Y-129751629D01*
X182820296Y-129482724D01*
X183013560Y-129193483D01*
X183177544Y-128886692D01*
X183310667Y-128565304D01*
X183411648Y-128232416D01*
X183411650Y-128232406D01*
X183411653Y-128232395D01*
X183479513Y-127891232D01*
X183500430Y-127678855D01*
X183513610Y-127545040D01*
X183513610Y-127371107D01*
X183513610Y-127278397D01*
X183513610Y-108873676D01*
X183513610Y-108873673D01*
X183475162Y-108680387D01*
X183475161Y-108680386D01*
X183475161Y-108680382D01*
X183475159Y-108680377D01*
X183399745Y-108498309D01*
X183399738Y-108498296D01*
X183290249Y-108334435D01*
X183290246Y-108334431D01*
X183150895Y-108195080D01*
X183150891Y-108195077D01*
X182987030Y-108085588D01*
X182987017Y-108085581D01*
X182804949Y-108010167D01*
X182804939Y-108010164D01*
X182611653Y-107971717D01*
X182611651Y-107971717D01*
X182414569Y-107971717D01*
X182414567Y-107971717D01*
X182221280Y-108010164D01*
X182221270Y-108010167D01*
X182039202Y-108085581D01*
X182039189Y-108085588D01*
X181875328Y-108195077D01*
X181875324Y-108195080D01*
X181735973Y-108334431D01*
X181735970Y-108334435D01*
X181626481Y-108498296D01*
X181626474Y-108498309D01*
X181551060Y-108680377D01*
X181551057Y-108680387D01*
X181512610Y-108873673D01*
X181512610Y-127367055D01*
X181512344Y-127375166D01*
X181499970Y-127563942D01*
X181497853Y-127580022D01*
X181461738Y-127761588D01*
X181457540Y-127777256D01*
X181398036Y-127952549D01*
X181391829Y-127967534D01*
X181309948Y-128133571D01*
X181301838Y-128147618D01*
X181198998Y-128301529D01*
X181189124Y-128314397D01*
X181064380Y-128456639D01*
X181058833Y-128462561D01*
X174097922Y-135423482D01*
X174097919Y-135423486D01*
X173988431Y-135587346D01*
X173988426Y-135587356D01*
X173920526Y-135751280D01*
X173903721Y-135772133D01*
X173889920Y-135795082D01*
X173879435Y-135802270D01*
X173876684Y-135805684D01*
X173860810Y-135815039D01*
X173751972Y-135868713D01*
X173736985Y-135874920D01*
X173536922Y-135942832D01*
X173521255Y-135947030D01*
X173314030Y-135988249D01*
X173297950Y-135990366D01*
X173099525Y-136003372D01*
X173083067Y-136004451D01*
X173074958Y-136004717D01*
X162788471Y-136004717D01*
X162721432Y-135985032D01*
X162675677Y-135932228D01*
X162665733Y-135863070D01*
X162694758Y-135799514D01*
X162700790Y-135793036D01*
X176773790Y-121720036D01*
X176835113Y-121686551D01*
X176861471Y-121683717D01*
X177140803Y-121683717D01*
X177140804Y-121683716D01*
X177198792Y-121672181D01*
X177314768Y-121649113D01*
X177314771Y-121649111D01*
X177314776Y-121649111D01*
X177478657Y-121581230D01*
X177626145Y-121482681D01*
X177751574Y-121357252D01*
X177850123Y-121209764D01*
X177918004Y-121045883D01*
X177952610Y-120871908D01*
X177952610Y-120694526D01*
X177952610Y-120694523D01*
X177952609Y-120694521D01*
X177918006Y-120520558D01*
X177918003Y-120520549D01*
X177850126Y-120356676D01*
X177850119Y-120356663D01*
X177751574Y-120209182D01*
X177751571Y-120209178D01*
X177626147Y-120083754D01*
X177626144Y-120083752D01*
X177478663Y-119985207D01*
X177478650Y-119985200D01*
X177314777Y-119917323D01*
X177314768Y-119917320D01*
X177140804Y-119882717D01*
X177140801Y-119882717D01*
X176348419Y-119882717D01*
X176348416Y-119882717D01*
X176174451Y-119917320D01*
X176174442Y-119917323D01*
X176010569Y-119985200D01*
X176010556Y-119985207D01*
X175863076Y-120083751D01*
X175863074Y-120083754D01*
X161248429Y-134698398D01*
X161187106Y-134731883D01*
X161160748Y-134734717D01*
X146620265Y-134734717D01*
X146465620Y-134765478D01*
X146465608Y-134765481D01*
X146321246Y-134825278D01*
X146273794Y-134834717D01*
X143703324Y-134834717D01*
X143636285Y-134815032D01*
X143590530Y-134762228D01*
X143580586Y-134693070D01*
X143596914Y-134650456D01*
X143595631Y-134649771D01*
X143598500Y-134644401D01*
X143598504Y-134644396D01*
X143658847Y-134498714D01*
X143689610Y-134344059D01*
X143689610Y-134186375D01*
X143689610Y-134186372D01*
X143689609Y-134186370D01*
X143678618Y-134131115D01*
X143658847Y-134031720D01*
X143625253Y-133950616D01*
X143598507Y-133886044D01*
X143598500Y-133886031D01*
X143510900Y-133754929D01*
X143510899Y-133754928D01*
X143408000Y-133652029D01*
X143380663Y-133610679D01*
X136376532Y-116221115D01*
X136369746Y-116151579D01*
X136401632Y-116089409D01*
X136403834Y-116087148D01*
X142163224Y-110327760D01*
X142239885Y-110213028D01*
X142292690Y-110085545D01*
X142317397Y-109961336D01*
X142319610Y-109950213D01*
X142319610Y-99032568D01*
X142339295Y-98965529D01*
X142355929Y-98944887D01*
X147906573Y-93394243D01*
X147928573Y-93361318D01*
X148005123Y-93246754D01*
X148073004Y-93082873D01*
X148107610Y-92908898D01*
X148107610Y-83669573D01*
X148127295Y-83602534D01*
X148180099Y-83556779D01*
X148249257Y-83546835D01*
X148312813Y-83575860D01*
X148340968Y-83611120D01*
X148443529Y-83802999D01*
X148443540Y-83803017D01*
X148631336Y-84084073D01*
X148631346Y-84084087D01*
X148836203Y-84333706D01*
X148845794Y-84345392D01*
X148965310Y-84464908D01*
X149028024Y-84527622D01*
X149028029Y-84527625D01*
X149033413Y-84533009D01*
X152624410Y-88124017D01*
X152624504Y-88124102D01*
X152676929Y-88176528D01*
X152676934Y-88176532D01*
X152676935Y-88176533D01*
X152938245Y-88390985D01*
X153219316Y-88578791D01*
X153219325Y-88578796D01*
X153219327Y-88578797D01*
X153517435Y-88738139D01*
X153517437Y-88738139D01*
X153517443Y-88738143D01*
X153829753Y-88867506D01*
X154153239Y-88965634D01*
X154484785Y-89031583D01*
X154821199Y-89064717D01*
X154901529Y-89064717D01*
X155455337Y-89064717D01*
X155522376Y-89084402D01*
X155568131Y-89137206D01*
X155572369Y-89147739D01*
X155603569Y-89236900D01*
X155630644Y-89314276D01*
X155776862Y-89617900D01*
X155776864Y-89617903D01*
X155956164Y-89903256D01*
X156166285Y-90166740D01*
X156404587Y-90405042D01*
X156668071Y-90615163D01*
X156953424Y-90794463D01*
X157257059Y-90940686D01*
X157495958Y-91024280D01*
X157575144Y-91051989D01*
X157575156Y-91051993D01*
X157903716Y-91126984D01*
X158238602Y-91164716D01*
X158238603Y-91164717D01*
X158238606Y-91164717D01*
X158575617Y-91164717D01*
X158575617Y-91164716D01*
X158910504Y-91126984D01*
X159239064Y-91051993D01*
X159557161Y-90940686D01*
X159860796Y-90794463D01*
X160146149Y-90615163D01*
X160409633Y-90405042D01*
X160647935Y-90166740D01*
X160858056Y-89903256D01*
X161037356Y-89617903D01*
X161183579Y-89314268D01*
X161294886Y-88996171D01*
X161369877Y-88667611D01*
X161407610Y-88332721D01*
X161407610Y-87995713D01*
X161369877Y-87660823D01*
X161294886Y-87332263D01*
X161276536Y-87279823D01*
X161248693Y-87200252D01*
X161183579Y-87014166D01*
X161037356Y-86710531D01*
X160858056Y-86425178D01*
X160647935Y-86161694D01*
X160409633Y-85923392D01*
X160146149Y-85713271D01*
X159860796Y-85533971D01*
X159860793Y-85533969D01*
X159557164Y-85387749D01*
X159239075Y-85276444D01*
X159239063Y-85276440D01*
X158910507Y-85201450D01*
X158910491Y-85201448D01*
X158575618Y-85163717D01*
X158575614Y-85163717D01*
X158238606Y-85163717D01*
X158238601Y-85163717D01*
X157903728Y-85201448D01*
X157903712Y-85201450D01*
X157575156Y-85276440D01*
X157575144Y-85276444D01*
X157257055Y-85387749D01*
X156953426Y-85533969D01*
X156668072Y-85713270D01*
X156404587Y-85923391D01*
X156166284Y-86161694D01*
X155956163Y-86425179D01*
X155776862Y-86710533D01*
X155630644Y-87014157D01*
X155630641Y-87014166D01*
X155572376Y-87180675D01*
X155531657Y-87237448D01*
X155466704Y-87263195D01*
X155455337Y-87263717D01*
X154994287Y-87263717D01*
X154986177Y-87263452D01*
X154784326Y-87250222D01*
X154768245Y-87248104D01*
X154573855Y-87209437D01*
X154558188Y-87205239D01*
X154485815Y-87180672D01*
X154370509Y-87141531D01*
X154355523Y-87135324D01*
X154177759Y-87047660D01*
X154163712Y-87039550D01*
X153998913Y-86929435D01*
X153986045Y-86919561D01*
X153951063Y-86888883D01*
X153833975Y-86786199D01*
X153828053Y-86780652D01*
X153763920Y-86716519D01*
X153763825Y-86716433D01*
X153680554Y-86633162D01*
X150241645Y-83194243D01*
X150236129Y-83188354D01*
X150102761Y-83036276D01*
X150092891Y-83023413D01*
X149982776Y-82858614D01*
X149974666Y-82844567D01*
X149954537Y-82803750D01*
X149886999Y-82666796D01*
X149880798Y-82651824D01*
X149817084Y-82464127D01*
X149812891Y-82448480D01*
X149774220Y-82254072D01*
X149772105Y-82238009D01*
X149758875Y-82036149D01*
X149758610Y-82028040D01*
X149758610Y-79593832D01*
X149778295Y-79526793D01*
X149831099Y-79481038D01*
X149900257Y-79471094D01*
X149930054Y-79479268D01*
X149992444Y-79505111D01*
X149992447Y-79505111D01*
X149992451Y-79505113D01*
X150166414Y-79539716D01*
X150166417Y-79539717D01*
X150166419Y-79539717D01*
X174018418Y-79539717D01*
X174102682Y-79539717D01*
X174111528Y-79540033D01*
X174331595Y-79555772D01*
X174349096Y-79558289D01*
X174560348Y-79604243D01*
X174577307Y-79609222D01*
X174779883Y-79684780D01*
X174795963Y-79692124D01*
X174985707Y-79795732D01*
X175000590Y-79805297D01*
X175173654Y-79934851D01*
X175187025Y-79946437D01*
X175339889Y-80099301D01*
X175351475Y-80112672D01*
X175481029Y-80285736D01*
X175490594Y-80300619D01*
X175594199Y-80490357D01*
X175601549Y-80506450D01*
X175677101Y-80709011D01*
X175682085Y-80725987D01*
X175728036Y-80937224D01*
X175730554Y-80954735D01*
X175746294Y-81174797D01*
X175746610Y-81183644D01*
X175746610Y-85212443D01*
X175726925Y-85279482D01*
X175674121Y-85325237D01*
X175663565Y-85329484D01*
X175497065Y-85387745D01*
X175497051Y-85387751D01*
X175193426Y-85533969D01*
X174908072Y-85713270D01*
X174644587Y-85923391D01*
X174406284Y-86161694D01*
X174196163Y-86425179D01*
X174016862Y-86710533D01*
X173870642Y-87014162D01*
X173759337Y-87332251D01*
X173759333Y-87332263D01*
X173684343Y-87660819D01*
X173684341Y-87660835D01*
X173646610Y-87995708D01*
X173646610Y-88332725D01*
X173684341Y-88667598D01*
X173684343Y-88667614D01*
X173759333Y-88996170D01*
X173759337Y-88996182D01*
X173870642Y-89314271D01*
X174016862Y-89617900D01*
X174016864Y-89617903D01*
X174196164Y-89903256D01*
X174406285Y-90166740D01*
X174644587Y-90405042D01*
X174908071Y-90615163D01*
X175193424Y-90794463D01*
X175497059Y-90940686D01*
X175663564Y-90998948D01*
X175720340Y-91039670D01*
X175746088Y-91104622D01*
X175746610Y-91115990D01*
X175746610Y-108917252D01*
X175746228Y-108926981D01*
X175732779Y-109097865D01*
X175729735Y-109117083D01*
X175697580Y-109251019D01*
X175662789Y-109311611D01*
X175615326Y-109340002D01*
X175600235Y-109344905D01*
X175600225Y-109344909D01*
X175440977Y-109426050D01*
X175296380Y-109531107D01*
X175170000Y-109657487D01*
X175064943Y-109802084D01*
X174983801Y-109961335D01*
X174983799Y-109961338D01*
X174928570Y-110131315D01*
X174928570Y-110131318D01*
X174900610Y-110307851D01*
X174900610Y-110486582D01*
X174928570Y-110663115D01*
X174928570Y-110663118D01*
X174983799Y-110833095D01*
X174983801Y-110833098D01*
X175064943Y-110992349D01*
X175169999Y-111136945D01*
X175296382Y-111263328D01*
X175440978Y-111368384D01*
X175600229Y-111449526D01*
X175600231Y-111449527D01*
X175691421Y-111479156D01*
X175770213Y-111504757D01*
X175946744Y-111532717D01*
X175946745Y-111532717D01*
X176125475Y-111532717D01*
X176125476Y-111532717D01*
X176302007Y-111504757D01*
X176302010Y-111504756D01*
X176302011Y-111504756D01*
X176471988Y-111449527D01*
X176471988Y-111449526D01*
X176471991Y-111449526D01*
X176631242Y-111368384D01*
X176775838Y-111263328D01*
X176902221Y-111136945D01*
X177007277Y-110992349D01*
X177088419Y-110833098D01*
X177108081Y-110772585D01*
X177143649Y-110663118D01*
X177143649Y-110663117D01*
X177143650Y-110663114D01*
X177171610Y-110486583D01*
X177171610Y-110404733D01*
X177186251Y-110346280D01*
X177264123Y-110200595D01*
X177376418Y-109929489D01*
X177461600Y-109648682D01*
X177461602Y-109648672D01*
X177461605Y-109648661D01*
X177518848Y-109360876D01*
X177538876Y-109157523D01*
X177547610Y-109068848D01*
X177547610Y-108922126D01*
X177547610Y-108833435D01*
X177547610Y-91115990D01*
X177567295Y-91048951D01*
X177620099Y-91003196D01*
X177630656Y-90998948D01*
X177797161Y-90940686D01*
X178100796Y-90794463D01*
X178386149Y-90615163D01*
X178649633Y-90405042D01*
X178887935Y-90166740D01*
X179098056Y-89903256D01*
X179277356Y-89617903D01*
X179423579Y-89314268D01*
X179534886Y-88996171D01*
X179609877Y-88667611D01*
X179647610Y-88332721D01*
X179647610Y-87995713D01*
X179609877Y-87660823D01*
X179534886Y-87332263D01*
X179516536Y-87279823D01*
X179488693Y-87200252D01*
X179423579Y-87014166D01*
X179277356Y-86710531D01*
X179098056Y-86425178D01*
X178887935Y-86161694D01*
X178649633Y-85923392D01*
X178386149Y-85713271D01*
X178100796Y-85533971D01*
X178100793Y-85533969D01*
X177797168Y-85387751D01*
X177797154Y-85387745D01*
X177630655Y-85329484D01*
X177573879Y-85288762D01*
X177548132Y-85223810D01*
X177547610Y-85212443D01*
X177547610Y-81010199D01*
X177542147Y-80954735D01*
X177514476Y-80673782D01*
X177489883Y-80550146D01*
X177448532Y-80342255D01*
X177448529Y-80342244D01*
X177448528Y-80342241D01*
X177448527Y-80342235D01*
X177350399Y-80018750D01*
X177221036Y-79706440D01*
X177211113Y-79687876D01*
X177061690Y-79408325D01*
X177061689Y-79408323D01*
X177061684Y-79408314D01*
X176873878Y-79127242D01*
X176659426Y-78865932D01*
X176659425Y-78865931D01*
X176659421Y-78865926D01*
X176420400Y-78626905D01*
X176159090Y-78412453D01*
X176159089Y-78412452D01*
X176159085Y-78412449D01*
X175878013Y-78224643D01*
X175878008Y-78224640D01*
X175878001Y-78224636D01*
X175579894Y-78065294D01*
X175579889Y-78065292D01*
X175267578Y-77935928D01*
X174944082Y-77837797D01*
X174944071Y-77837794D01*
X174612551Y-77771852D01*
X174612534Y-77771849D01*
X174358136Y-77746793D01*
X174276131Y-77738717D01*
X174195801Y-77738717D01*
X150166419Y-77738717D01*
X150166416Y-77738717D01*
X149992451Y-77773320D01*
X149992443Y-77773323D01*
X149951183Y-77790413D01*
X149941079Y-77791498D01*
X149932250Y-77796527D01*
X149906927Y-77795169D01*
X149881714Y-77797880D01*
X149872628Y-77793331D01*
X149862480Y-77792788D01*
X149841908Y-77777954D01*
X149819235Y-77766604D01*
X149814050Y-77757865D01*
X149805808Y-77751922D01*
X149796523Y-77728322D01*
X149783584Y-77706514D01*
X149783265Y-77694627D01*
X149780227Y-77686904D01*
X149782116Y-77651660D01*
X149812892Y-77496939D01*
X149817082Y-77481300D01*
X149880800Y-77293593D01*
X149886996Y-77278633D01*
X149974669Y-77100850D01*
X149982772Y-77086815D01*
X150092899Y-76921998D01*
X150102765Y-76909143D01*
X150236059Y-76757149D01*
X150241576Y-76751256D01*
X150272075Y-76720758D01*
X150277951Y-76715255D01*
X150430055Y-76581863D01*
X150442901Y-76572006D01*
X150607718Y-76461879D01*
X150621753Y-76453776D01*
X150799536Y-76366103D01*
X150814496Y-76359907D01*
X151002203Y-76296189D01*
X151017842Y-76291999D01*
X151212256Y-76253327D01*
X151228315Y-76251212D01*
X151412071Y-76239168D01*
X151430178Y-76237982D01*
X151438287Y-76237717D01*
X152726815Y-76237717D01*
X152726835Y-76237716D01*
X153048279Y-76237716D01*
X153880025Y-76201402D01*
X154709396Y-76128842D01*
X155534813Y-76020174D01*
X156354703Y-75875606D01*
X157167508Y-75695412D01*
X157971679Y-75479936D01*
X158765685Y-75229587D01*
X159548016Y-74944842D01*
X160317182Y-74626243D01*
X160511139Y-74535800D01*
X161071715Y-74274400D01*
X161200475Y-74207372D01*
X161810190Y-73889974D01*
X162531190Y-73473705D01*
X163233346Y-73026382D01*
X163915322Y-72548858D01*
X164575820Y-72042040D01*
X165213582Y-71506895D01*
X165827394Y-70944440D01*
X166121741Y-70650093D01*
X166184455Y-70587378D01*
X166184456Y-70587375D01*
X166189300Y-70582532D01*
X166189351Y-70582474D01*
X171324974Y-65446852D01*
X172868610Y-65446852D01*
X172868610Y-67447587D01*
X172868611Y-67447593D01*
X172875018Y-67507200D01*
X172925312Y-67642045D01*
X172925316Y-67642052D01*
X173011562Y-67757261D01*
X173011565Y-67757264D01*
X173126774Y-67843510D01*
X173126779Y-67843513D01*
X173154649Y-67853907D01*
X173210583Y-67895778D01*
X173235001Y-67961241D01*
X173220150Y-68029515D01*
X173211635Y-68042976D01*
X173078893Y-68225678D01*
X172975060Y-68429461D01*
X172904388Y-68646967D01*
X172904388Y-68646970D01*
X172868610Y-68872863D01*
X172868610Y-69101570D01*
X172904388Y-69327463D01*
X172904388Y-69327466D01*
X172975060Y-69544972D01*
X173006738Y-69607143D01*
X173078893Y-69748755D01*
X173213324Y-69933783D01*
X173375044Y-70095503D01*
X173560072Y-70229934D01*
X173696476Y-70299435D01*
X173763854Y-70333766D01*
X173981361Y-70404438D01*
X173981362Y-70404438D01*
X173981365Y-70404439D01*
X174207256Y-70440217D01*
X174498828Y-70440217D01*
X174565867Y-70459902D01*
X174586509Y-70476536D01*
X176497786Y-72387809D01*
X179493228Y-75383246D01*
X179493245Y-75383271D01*
X179555927Y-75445953D01*
X179561474Y-75451875D01*
X179686226Y-75594126D01*
X179696085Y-75606975D01*
X179798942Y-75760911D01*
X179807048Y-75774952D01*
X179888929Y-75940989D01*
X179895136Y-75955974D01*
X179954640Y-76131267D01*
X179958838Y-76146935D01*
X179994953Y-76328501D01*
X179997070Y-76344581D01*
X180009444Y-76533357D01*
X180009710Y-76541468D01*
X180009710Y-82920268D01*
X180009710Y-82920270D01*
X180009709Y-82920270D01*
X180048157Y-83113556D01*
X180048160Y-83113566D01*
X180123574Y-83295634D01*
X180123581Y-83295647D01*
X180233070Y-83459508D01*
X180233073Y-83459512D01*
X180372427Y-83598866D01*
X180532173Y-83705604D01*
X180536296Y-83708359D01*
X180536302Y-83708361D01*
X180536303Y-83708362D01*
X180553502Y-83715486D01*
X180568227Y-83727351D01*
X180585568Y-83734900D01*
X180606466Y-83758165D01*
X180607906Y-83759326D01*
X180609138Y-83761135D01*
X180619055Y-83775976D01*
X180627837Y-83789120D01*
X180635946Y-83803166D01*
X180723007Y-83979707D01*
X180729214Y-83994693D01*
X180792487Y-84181091D01*
X180796685Y-84196757D01*
X180835086Y-84389807D01*
X180837204Y-84405889D01*
X180850345Y-84606383D01*
X180850610Y-84614493D01*
X180850610Y-97718530D01*
X180830925Y-97785569D01*
X180826928Y-97791416D01*
X180779943Y-97856084D01*
X180698801Y-98015335D01*
X180698799Y-98015338D01*
X180643570Y-98185315D01*
X180643570Y-98185318D01*
X180622316Y-98319510D01*
X180615610Y-98361851D01*
X180615610Y-98540583D01*
X180629590Y-98628848D01*
X180643570Y-98717115D01*
X180643570Y-98717118D01*
X180698799Y-98887095D01*
X180698801Y-98887098D01*
X180779943Y-99046349D01*
X180884999Y-99190945D01*
X181011382Y-99317328D01*
X181155978Y-99422384D01*
X181315229Y-99503526D01*
X181315231Y-99503527D01*
X181473780Y-99555042D01*
X181485213Y-99558757D01*
X181661744Y-99586717D01*
X181661745Y-99586717D01*
X181840475Y-99586717D01*
X181840476Y-99586717D01*
X182017007Y-99558757D01*
X182017010Y-99558756D01*
X182017011Y-99558756D01*
X182186988Y-99503527D01*
X182186988Y-99503526D01*
X182186991Y-99503526D01*
X182346242Y-99422384D01*
X182490838Y-99317328D01*
X182617221Y-99190945D01*
X182722277Y-99046349D01*
X182803419Y-98887098D01*
X182858650Y-98717114D01*
X182886610Y-98540583D01*
X182886610Y-98361851D01*
X182858650Y-98185320D01*
X182858649Y-98185316D01*
X182858649Y-98185315D01*
X182803420Y-98015338D01*
X182803418Y-98015335D01*
X182741366Y-97893549D01*
X182722277Y-97856085D01*
X182675292Y-97791416D01*
X182651812Y-97725609D01*
X182651610Y-97718530D01*
X182651610Y-84441920D01*
X182648377Y-84409098D01*
X182618577Y-84106520D01*
X182614112Y-84084073D01*
X182552833Y-83775996D01*
X182552830Y-83775985D01*
X182552829Y-83775982D01*
X182552828Y-83775976D01*
X182454996Y-83453468D01*
X182326024Y-83142102D01*
X182262583Y-83023413D01*
X182207451Y-82920268D01*
X182167154Y-82844877D01*
X182139675Y-82803752D01*
X182031608Y-82642017D01*
X182010730Y-82575339D01*
X182010710Y-82573126D01*
X182010710Y-76363487D01*
X182010614Y-76362516D01*
X181976613Y-76017291D01*
X181973687Y-76002579D01*
X181908753Y-75676128D01*
X181908750Y-75676117D01*
X181908749Y-75676114D01*
X181908748Y-75676108D01*
X181807767Y-75343220D01*
X181674644Y-75021832D01*
X181621622Y-74922636D01*
X181510666Y-74715052D01*
X181510664Y-74715050D01*
X181510660Y-74715041D01*
X181510649Y-74715024D01*
X181317408Y-74425817D01*
X181317401Y-74425807D01*
X181317396Y-74425800D01*
X181096711Y-74156895D01*
X181096710Y-74156894D01*
X181096706Y-74156889D01*
X181047771Y-74107955D01*
X181047686Y-74107861D01*
X176184667Y-69244851D01*
X176151182Y-69183528D01*
X176149875Y-69137777D01*
X176155610Y-69101571D01*
X176155610Y-68872863D01*
X176119832Y-68646972D01*
X176119831Y-68646968D01*
X176119831Y-68646967D01*
X176049159Y-68429461D01*
X175945326Y-68225678D01*
X175902845Y-68167208D01*
X175812582Y-68042972D01*
X175789104Y-67977170D01*
X175804929Y-67909116D01*
X175855035Y-67860421D01*
X175869565Y-67853909D01*
X175897441Y-67843513D01*
X176012656Y-67757263D01*
X176098906Y-67642048D01*
X176149201Y-67507200D01*
X176155610Y-67447590D01*
X176155609Y-65446845D01*
X176149201Y-65387234D01*
X176109792Y-65281574D01*
X176098907Y-65252388D01*
X176098903Y-65252381D01*
X176012657Y-65137172D01*
X176012654Y-65137169D01*
X175897445Y-65050923D01*
X175897438Y-65050919D01*
X175762592Y-65000625D01*
X175762593Y-65000625D01*
X175702993Y-64994218D01*
X175702991Y-64994217D01*
X175702983Y-64994217D01*
X175702974Y-64994217D01*
X173321239Y-64994217D01*
X173321233Y-64994218D01*
X173261626Y-65000625D01*
X173126781Y-65050919D01*
X173126774Y-65050923D01*
X173011565Y-65137169D01*
X173011562Y-65137172D01*
X172925316Y-65252381D01*
X172925312Y-65252388D01*
X172875018Y-65387234D01*
X172868611Y-65446833D01*
X172868611Y-65446840D01*
X172868610Y-65446852D01*
X171324974Y-65446852D01*
X173070791Y-63701036D01*
X173132114Y-63667551D01*
X173158472Y-63664717D01*
X177054319Y-63664717D01*
X177138943Y-63664717D01*
X177147052Y-63664982D01*
X177166664Y-63666267D01*
X177348912Y-63678212D01*
X177364975Y-63680327D01*
X177559383Y-63718998D01*
X177575030Y-63723191D01*
X177762727Y-63786905D01*
X177777699Y-63793106D01*
X177898653Y-63852754D01*
X177955470Y-63880773D01*
X177969518Y-63888883D01*
X178134320Y-63999001D01*
X178147181Y-64008869D01*
X178219080Y-64071923D01*
X178299254Y-64142234D01*
X178305176Y-64147781D01*
X178369508Y-64212113D01*
X178369597Y-64212193D01*
X179558632Y-65401230D01*
X186209551Y-72052157D01*
X186215098Y-72058079D01*
X186348454Y-72210142D01*
X186358328Y-72223010D01*
X186468443Y-72387809D01*
X186476553Y-72401856D01*
X186564217Y-72579620D01*
X186570424Y-72594606D01*
X186634132Y-72782285D01*
X186638330Y-72797952D01*
X186676997Y-72992342D01*
X186679115Y-73008423D01*
X186692345Y-73210273D01*
X186692610Y-73218383D01*
X186692610Y-74179263D01*
X186692557Y-74182884D01*
X185043758Y-130622503D01*
X185043544Y-130629820D01*
X185038335Y-130664985D01*
X185040960Y-130718244D01*
X185040818Y-130723123D01*
X185039403Y-130771568D01*
X185039404Y-130771579D01*
X185044101Y-130799422D01*
X185044102Y-130799422D01*
X185045319Y-130806637D01*
X185047071Y-130842153D01*
X185060040Y-130893890D01*
X185060848Y-130898676D01*
X185060850Y-130898685D01*
X185068916Y-130946491D01*
X185078954Y-130972879D01*
X185083333Y-130986810D01*
X185090202Y-131014208D01*
X185090204Y-131014212D01*
X185113016Y-131062422D01*
X185131982Y-131112279D01*
X185150863Y-131142405D01*
X185153995Y-131149024D01*
X185153995Y-131149025D01*
X185166070Y-131174542D01*
X185166075Y-131174551D01*
X185197857Y-131217388D01*
X185226182Y-131262582D01*
X185250577Y-131288445D01*
X185254939Y-131294324D01*
X188049067Y-135060313D01*
X188051573Y-135064051D01*
X188085970Y-135110196D01*
X188106733Y-135138050D01*
X188108597Y-135140551D01*
X188109166Y-135141315D01*
X188109320Y-135141523D01*
X188158385Y-135207654D01*
X188158389Y-135207658D01*
X188166435Y-135214948D01*
X188175640Y-135224216D01*
X188176878Y-135225601D01*
X188193056Y-135244824D01*
X188210547Y-135263278D01*
X188211760Y-135264635D01*
X188212093Y-135265336D01*
X188219915Y-135274786D01*
X188226478Y-135283897D01*
X188289770Y-135342888D01*
X188354162Y-135403252D01*
X188355024Y-135403789D01*
X189374342Y-136355152D01*
X189409921Y-136415284D01*
X189407341Y-136485106D01*
X189367422Y-136542449D01*
X189305921Y-136568741D01*
X189178746Y-136585484D01*
X189151961Y-136589011D01*
X189091893Y-136605106D01*
X188927781Y-136649079D01*
X188713364Y-136737894D01*
X188713347Y-136737902D01*
X188512366Y-136853937D01*
X188512364Y-136853938D01*
X188328234Y-136995226D01*
X188328227Y-136995232D01*
X188164125Y-137159334D01*
X188164119Y-137159341D01*
X188022831Y-137343471D01*
X188022830Y-137343473D01*
X187906795Y-137544454D01*
X187906787Y-137544471D01*
X187817972Y-137758888D01*
X187757904Y-137983068D01*
X187727610Y-138213164D01*
X187727610Y-139969269D01*
X187752112Y-140155370D01*
X187757507Y-140196354D01*
X187757904Y-140199365D01*
X187817972Y-140423545D01*
X187906787Y-140637962D01*
X187906795Y-140637979D01*
X188022830Y-140838960D01*
X188022831Y-140838962D01*
X188164119Y-141023092D01*
X188164125Y-141023099D01*
X188328227Y-141187201D01*
X188328234Y-141187207D01*
X188512364Y-141328495D01*
X188512366Y-141328496D01*
X188713347Y-141444531D01*
X188713350Y-141444532D01*
X188713358Y-141444537D01*
X188927780Y-141533354D01*
X189151961Y-141593423D01*
X189382065Y-141623717D01*
X189382072Y-141623717D01*
X189614148Y-141623717D01*
X189614155Y-141623717D01*
X189844259Y-141593423D01*
X190068440Y-141533354D01*
X190282862Y-141444537D01*
X190483858Y-141328493D01*
X190667987Y-141187206D01*
X190832099Y-141023094D01*
X190973386Y-140838965D01*
X191089430Y-140637969D01*
X191178247Y-140423547D01*
X191238316Y-140199366D01*
X191268610Y-139969262D01*
X191268610Y-138408484D01*
X191288295Y-138341445D01*
X191341099Y-138295690D01*
X191410257Y-138285746D01*
X191473813Y-138314771D01*
X191477166Y-138317787D01*
X191722567Y-138546827D01*
X191758144Y-138606958D01*
X191761923Y-138640428D01*
X191520826Y-148766243D01*
X191520567Y-148777122D01*
X191518833Y-148785730D01*
X191518647Y-148857781D01*
X191518615Y-148859128D01*
X191518615Y-148859135D01*
X191518157Y-148878358D01*
X191517854Y-148884552D01*
X191502027Y-149098491D01*
X191499473Y-149115969D01*
X191453128Y-149326768D01*
X191448116Y-149343706D01*
X191372288Y-149545783D01*
X191364920Y-149561836D01*
X191261153Y-149751083D01*
X191251580Y-149765926D01*
X191121976Y-149938512D01*
X191110390Y-149951845D01*
X190957579Y-150104265D01*
X190944216Y-150115817D01*
X190771300Y-150244977D01*
X190756432Y-150254513D01*
X190566913Y-150357798D01*
X190550841Y-150365124D01*
X190348572Y-150440432D01*
X190331622Y-150445400D01*
X190120711Y-150491204D01*
X190103227Y-150493714D01*
X189920905Y-150506732D01*
X189883520Y-150509402D01*
X189874691Y-150509717D01*
X179503416Y-150509717D01*
X179329451Y-150544320D01*
X179329442Y-150544323D01*
X179165569Y-150612200D01*
X179165556Y-150612207D01*
X179018075Y-150710752D01*
X179018071Y-150710755D01*
X178892648Y-150836178D01*
X178892645Y-150836182D01*
X178794100Y-150983663D01*
X178794093Y-150983676D01*
X178726216Y-151147549D01*
X178726213Y-151147558D01*
X178691610Y-151321521D01*
X178691610Y-151498912D01*
X178726213Y-151672875D01*
X178726216Y-151672884D01*
X178794093Y-151836757D01*
X178794100Y-151836770D01*
X178892645Y-151984251D01*
X178892648Y-151984255D01*
X179018071Y-152109678D01*
X179018075Y-152109681D01*
X179165556Y-152208226D01*
X179165569Y-152208233D01*
X179288473Y-152259140D01*
X179329444Y-152276111D01*
X179329446Y-152276111D01*
X179329451Y-152276113D01*
X179503414Y-152310716D01*
X179503417Y-152310717D01*
X179503419Y-152310717D01*
X189790418Y-152310717D01*
X189879109Y-152310717D01*
X189879122Y-152310717D01*
X190047855Y-152310730D01*
X190383726Y-152277704D01*
X190714753Y-152211969D01*
X191037758Y-152114156D01*
X191037772Y-152114149D01*
X191037778Y-152114148D01*
X191202540Y-152046024D01*
X191349641Y-151985204D01*
X191349645Y-151985201D01*
X191349649Y-151985200D01*
X191647400Y-151826356D01*
X191647401Y-151826355D01*
X191647409Y-151826351D01*
X191928202Y-151639121D01*
X192189326Y-151425312D01*
X192428273Y-151186977D01*
X192642751Y-150926402D01*
X192830700Y-150646090D01*
X192990317Y-150348731D01*
X193120068Y-150037179D01*
X193218709Y-149714426D01*
X193285293Y-149383569D01*
X193319180Y-149047784D01*
X193319587Y-148883688D01*
X193319622Y-148881083D01*
X193319630Y-148880715D01*
X193321952Y-148796621D01*
X193321657Y-148794895D01*
X193321839Y-148787218D01*
X193321839Y-148787194D01*
X193332360Y-148345312D01*
X193564155Y-138610149D01*
X193564209Y-138609422D01*
X193564233Y-138608392D01*
X193564445Y-138605444D01*
X193566385Y-138516546D01*
X193566388Y-138516397D01*
X193566389Y-138516365D01*
X193566429Y-138514613D01*
X193566459Y-138514519D01*
X193566432Y-138514519D01*
X193567035Y-138489187D01*
X193568526Y-138426606D01*
X193568524Y-138426598D01*
X193568577Y-138424399D01*
X193568569Y-138424139D01*
X193568585Y-138424073D01*
X193568643Y-138421646D01*
X193568524Y-138417183D01*
X193568823Y-138403316D01*
X193561460Y-138341445D01*
X193543078Y-138186976D01*
X193487336Y-137976364D01*
X193402693Y-137775614D01*
X193402693Y-137775613D01*
X193293667Y-137593443D01*
X193290812Y-137588672D01*
X193153891Y-137419209D01*
X193139185Y-137405474D01*
X193139115Y-137405377D01*
X193086356Y-137356135D01*
X193074280Y-137344857D01*
X193009441Y-137284341D01*
X193009439Y-137284340D01*
X193004843Y-137280050D01*
X193004764Y-137279983D01*
X189590059Y-134092925D01*
X189590021Y-134092890D01*
X189585389Y-134088563D01*
X189585212Y-134088317D01*
X189545931Y-134051705D01*
X189545630Y-134051424D01*
X189545597Y-134051368D01*
X189530691Y-134034693D01*
X187567064Y-131388074D01*
X186876960Y-130457937D01*
X186852824Y-130392370D01*
X186852598Y-130380442D01*
X188180938Y-84910370D01*
X190856610Y-84910370D01*
X190856610Y-85068063D01*
X190887371Y-85222706D01*
X190887374Y-85222718D01*
X190947712Y-85368389D01*
X190947719Y-85368402D01*
X191035320Y-85499505D01*
X191035323Y-85499509D01*
X191146817Y-85611003D01*
X191146821Y-85611006D01*
X191277924Y-85698607D01*
X191277937Y-85698614D01*
X191423608Y-85758952D01*
X191423613Y-85758954D01*
X191532907Y-85780694D01*
X191578263Y-85789716D01*
X191578266Y-85789717D01*
X191578268Y-85789717D01*
X191735954Y-85789717D01*
X191735955Y-85789716D01*
X191890607Y-85758954D01*
X192036289Y-85698611D01*
X192167399Y-85611006D01*
X192278899Y-85499506D01*
X192366504Y-85368396D01*
X192426847Y-85222714D01*
X192457610Y-85068059D01*
X192457610Y-84910375D01*
X192457610Y-84910372D01*
X192457609Y-84910370D01*
X192454639Y-84895440D01*
X192426847Y-84755720D01*
X192408137Y-84710549D01*
X192366507Y-84610044D01*
X192366500Y-84610031D01*
X192278899Y-84478928D01*
X192278896Y-84478924D01*
X192167402Y-84367430D01*
X192167398Y-84367427D01*
X192036295Y-84279826D01*
X192036282Y-84279819D01*
X191890611Y-84219481D01*
X191890599Y-84219478D01*
X191735955Y-84188717D01*
X191735952Y-84188717D01*
X191578268Y-84188717D01*
X191578265Y-84188717D01*
X191423620Y-84219478D01*
X191423608Y-84219481D01*
X191277937Y-84279819D01*
X191277924Y-84279826D01*
X191146821Y-84367427D01*
X191146817Y-84367430D01*
X191035323Y-84478924D01*
X191035320Y-84478928D01*
X190947719Y-84610031D01*
X190947712Y-84610044D01*
X190887374Y-84755715D01*
X190887371Y-84755727D01*
X190856610Y-84910370D01*
X188180938Y-84910370D01*
X188491023Y-74295911D01*
X188493610Y-74282908D01*
X188493610Y-74207372D01*
X188495816Y-74131859D01*
X188495336Y-74129017D01*
X188493610Y-74108397D01*
X188493610Y-73045299D01*
X188491746Y-73026376D01*
X188460476Y-72708882D01*
X188394527Y-72377336D01*
X188296399Y-72053850D01*
X188167036Y-71741540D01*
X188007684Y-71443413D01*
X187819878Y-71162342D01*
X187605426Y-70901032D01*
X187485910Y-70781516D01*
X187423196Y-70718802D01*
X187423190Y-70718798D01*
X179931649Y-63227248D01*
X182822610Y-63227248D01*
X182822610Y-63571186D01*
X182831822Y-63664717D01*
X182856320Y-63913466D01*
X182923418Y-64250789D01*
X183023260Y-64579923D01*
X183091381Y-64744381D01*
X183147238Y-64879233D01*
X183154880Y-64897681D01*
X183154882Y-64897686D01*
X183317003Y-65200992D01*
X183317014Y-65201010D01*
X183508085Y-65486968D01*
X183508095Y-65486982D01*
X183726286Y-65752849D01*
X183969477Y-65996040D01*
X183969482Y-65996044D01*
X183969483Y-65996045D01*
X184235350Y-66214236D01*
X184521323Y-66405317D01*
X184521332Y-66405322D01*
X184521334Y-66405323D01*
X184824640Y-66567444D01*
X184824642Y-66567444D01*
X184824648Y-66567448D01*
X185142405Y-66699067D01*
X185471532Y-66798907D01*
X185808860Y-66866006D01*
X186151141Y-66899717D01*
X186151144Y-66899717D01*
X186495076Y-66899717D01*
X186495079Y-66899717D01*
X186837360Y-66866006D01*
X187174688Y-66798907D01*
X187503815Y-66699067D01*
X187821572Y-66567448D01*
X188124897Y-66405317D01*
X188410870Y-66214236D01*
X188676737Y-65996045D01*
X188919938Y-65752844D01*
X189138129Y-65486977D01*
X189329210Y-65201004D01*
X189491341Y-64897679D01*
X189622960Y-64579922D01*
X189722800Y-64250795D01*
X189789899Y-63913467D01*
X189823610Y-63571186D01*
X189823610Y-63227248D01*
X189789899Y-62884967D01*
X189722800Y-62547639D01*
X189622960Y-62218512D01*
X189491341Y-61900755D01*
X189490039Y-61898320D01*
X189329216Y-61597441D01*
X189329215Y-61597439D01*
X189329210Y-61597430D01*
X189138129Y-61311457D01*
X188919938Y-61045590D01*
X188919937Y-61045589D01*
X188919933Y-61045584D01*
X188676742Y-60802393D01*
X188410875Y-60584202D01*
X188410874Y-60584201D01*
X188410870Y-60584198D01*
X188124897Y-60393117D01*
X188124892Y-60393114D01*
X188124885Y-60393110D01*
X187821579Y-60230989D01*
X187821574Y-60230987D01*
X187503816Y-60099367D01*
X187174682Y-59999525D01*
X186837358Y-59932427D01*
X186837359Y-59932427D01*
X186579566Y-59907038D01*
X186495079Y-59898717D01*
X186151141Y-59898717D01*
X186073076Y-59906405D01*
X185808860Y-59932427D01*
X185471537Y-59999525D01*
X185142403Y-60099367D01*
X184824645Y-60230987D01*
X184824640Y-60230989D01*
X184521334Y-60393110D01*
X184521316Y-60393121D01*
X184235358Y-60584192D01*
X184235344Y-60584202D01*
X183969477Y-60802393D01*
X183726286Y-61045584D01*
X183508095Y-61311451D01*
X183508085Y-61311465D01*
X183317014Y-61597423D01*
X183317003Y-61597441D01*
X183154882Y-61900747D01*
X183154880Y-61900752D01*
X183023260Y-62218510D01*
X182923418Y-62547644D01*
X182856320Y-62884967D01*
X182838768Y-63063186D01*
X182822610Y-63227248D01*
X179931649Y-63227248D01*
X179513096Y-62808694D01*
X179513095Y-62808693D01*
X179509009Y-62804607D01*
X179508921Y-62804526D01*
X179456300Y-62751905D01*
X179194990Y-62537453D01*
X179194989Y-62537452D01*
X179194985Y-62537449D01*
X178913914Y-62349643D01*
X178913909Y-62349640D01*
X178913902Y-62349636D01*
X178615794Y-62190294D01*
X178615789Y-62190292D01*
X178303478Y-62060928D01*
X177979985Y-61962798D01*
X177648451Y-61896852D01*
X177648434Y-61896849D01*
X177394036Y-61871793D01*
X177312031Y-61863717D01*
X177231701Y-61863717D01*
X172822802Y-61863717D01*
X172645418Y-61863717D01*
X172645413Y-61863717D01*
X172471451Y-61898320D01*
X172471439Y-61898323D01*
X172389502Y-61932262D01*
X172389503Y-61932263D01*
X172307565Y-61966202D01*
X172219150Y-62025280D01*
X172219149Y-62025281D01*
X172160071Y-62064754D01*
X164849115Y-69375710D01*
X164847067Y-69377712D01*
X164273081Y-69925776D01*
X164268847Y-69929635D01*
X163671125Y-70449766D01*
X163666718Y-70453426D01*
X163045590Y-70945413D01*
X163041019Y-70948865D01*
X162397829Y-71411645D01*
X162393103Y-71414882D01*
X161729251Y-71847447D01*
X161724381Y-71850463D01*
X161041230Y-72251926D01*
X161036226Y-72254713D01*
X160335272Y-72624192D01*
X160330144Y-72626745D01*
X159612893Y-72963447D01*
X159607653Y-72965761D01*
X158875588Y-73268993D01*
X158870246Y-73271062D01*
X158124997Y-73540146D01*
X158119566Y-73541967D01*
X157362633Y-73776361D01*
X157357123Y-73777928D01*
X156590225Y-73977101D01*
X156584649Y-73978413D01*
X155809323Y-74141966D01*
X155803692Y-74143018D01*
X155021690Y-74270581D01*
X155016017Y-74271373D01*
X154228906Y-74362690D01*
X154223202Y-74363218D01*
X153432760Y-74418082D01*
X153427038Y-74418347D01*
X152633439Y-74436683D01*
X152630576Y-74436716D01*
X152543319Y-74436716D01*
X152543314Y-74436716D01*
X152537186Y-74436717D01*
X152537185Y-74436716D01*
X152537185Y-74436717D01*
X151522912Y-74436717D01*
X151434220Y-74436717D01*
X151265199Y-74436717D01*
X151189356Y-74444186D01*
X150928795Y-74469849D01*
X150928778Y-74469852D01*
X150597244Y-74535798D01*
X150273751Y-74633928D01*
X149961440Y-74763292D01*
X149961435Y-74763294D01*
X149663327Y-74922636D01*
X149663309Y-74922647D01*
X149382253Y-75110443D01*
X149382239Y-75110453D01*
X149120940Y-75324896D01*
X149068413Y-75377422D01*
X149068410Y-75377424D01*
X149064130Y-75381703D01*
X149064027Y-75381773D01*
X148970710Y-75475115D01*
X148965310Y-75480516D01*
X148905551Y-75540274D01*
X148845793Y-75600032D01*
X148631346Y-75861336D01*
X148631336Y-75861350D01*
X148443540Y-76142406D01*
X148443529Y-76142424D01*
X148340968Y-76334303D01*
X148292006Y-76384148D01*
X148223868Y-76399608D01*
X148158188Y-76375776D01*
X148115820Y-76320219D01*
X148107610Y-76275850D01*
X148107610Y-69765747D01*
X148127295Y-69698708D01*
X148180099Y-69652953D01*
X148231610Y-69641747D01*
X151199373Y-69641747D01*
X151199374Y-69641746D01*
X151373346Y-69607142D01*
X151455286Y-69573200D01*
X151537227Y-69539260D01*
X151625639Y-69480183D01*
X151684716Y-69440711D01*
X155373290Y-65752135D01*
X155434613Y-65718651D01*
X155460971Y-65715817D01*
X155566467Y-65715817D01*
X155566468Y-65715817D01*
X155772616Y-65683166D01*
X155971117Y-65618669D01*
X156157085Y-65523914D01*
X156325941Y-65401233D01*
X156473526Y-65253648D01*
X156596207Y-65084792D01*
X156690962Y-64898824D01*
X156755459Y-64700323D01*
X156788110Y-64494175D01*
X156788110Y-64285459D01*
X156755459Y-64079311D01*
X156753058Y-64071923D01*
X156701573Y-63913467D01*
X156690962Y-63880810D01*
X156690960Y-63880807D01*
X156690960Y-63880805D01*
X156620637Y-63742789D01*
X156596207Y-63694842D01*
X156473526Y-63525986D01*
X156398929Y-63451389D01*
X156365444Y-63390066D01*
X156362610Y-63363708D01*
X156362610Y-61286418D01*
X156382295Y-61219379D01*
X156435099Y-61173624D01*
X156443278Y-61170236D01*
X156529936Y-61137915D01*
X156529936Y-61137914D01*
X156529941Y-61137913D01*
X156645156Y-61051663D01*
X156731406Y-60936448D01*
X156746967Y-60894726D01*
X156763730Y-60849784D01*
X156805601Y-60793850D01*
X156871065Y-60769433D01*
X156879912Y-60769117D01*
X161548001Y-60769117D01*
X161577441Y-60777761D01*
X161607428Y-60784285D01*
X161612443Y-60788039D01*
X161615040Y-60788802D01*
X161635682Y-60805436D01*
X161637291Y-60807045D01*
X161670776Y-60868368D01*
X161673610Y-60894726D01*
X161673610Y-63363708D01*
X161653925Y-63430747D01*
X161637291Y-63451389D01*
X161562696Y-63525983D01*
X161440013Y-63694841D01*
X161345259Y-63880805D01*
X161280760Y-64079310D01*
X161248110Y-64285459D01*
X161248110Y-64494174D01*
X161280760Y-64700323D01*
X161345259Y-64898828D01*
X161397128Y-65000626D01*
X161440013Y-65084792D01*
X161562694Y-65253648D01*
X161710279Y-65401233D01*
X161879135Y-65523914D01*
X161966998Y-65568682D01*
X162065098Y-65618667D01*
X162065100Y-65618667D01*
X162065103Y-65618669D01*
X162171504Y-65653241D01*
X162263603Y-65683166D01*
X162282936Y-65686228D01*
X162469752Y-65715817D01*
X162469753Y-65715817D01*
X162678467Y-65715817D01*
X162678468Y-65715817D01*
X162884616Y-65683166D01*
X163083117Y-65618669D01*
X163269085Y-65523914D01*
X163437941Y-65401233D01*
X163585526Y-65253648D01*
X163708207Y-65084792D01*
X163802962Y-64898824D01*
X163867459Y-64700323D01*
X163900110Y-64494175D01*
X163900110Y-64285459D01*
X163867459Y-64079311D01*
X163865058Y-64071923D01*
X163813573Y-63913467D01*
X163802962Y-63880810D01*
X163802960Y-63880807D01*
X163802960Y-63880805D01*
X163732637Y-63742789D01*
X163708207Y-63694842D01*
X163585526Y-63525986D01*
X163510929Y-63451389D01*
X163477444Y-63390066D01*
X163474610Y-63363708D01*
X163474610Y-60894726D01*
X163494295Y-60827687D01*
X163510929Y-60807045D01*
X163540213Y-60777761D01*
X163585526Y-60732448D01*
X163708207Y-60563592D01*
X163802962Y-60377624D01*
X163867459Y-60179123D01*
X163900110Y-59972975D01*
X163900110Y-59764259D01*
X163869308Y-59569783D01*
X163867459Y-59558110D01*
X163831542Y-59447569D01*
X163802962Y-59359610D01*
X163802960Y-59359607D01*
X163802960Y-59359605D01*
X163708206Y-59173641D01*
X163585526Y-59004786D01*
X163437941Y-58857201D01*
X163269085Y-58734520D01*
X163083121Y-58639766D01*
X162884616Y-58575267D01*
X162706653Y-58547081D01*
X162678468Y-58542617D01*
X162469752Y-58542617D01*
X162444956Y-58546544D01*
X162263603Y-58575267D01*
X162065098Y-58639766D01*
X161879134Y-58734520D01*
X161710276Y-58857203D01*
X161635682Y-58931798D01*
X161574359Y-58965283D01*
X161548001Y-58968117D01*
X156879912Y-58968117D01*
X156812873Y-58948432D01*
X156767118Y-58895628D01*
X156763730Y-58887450D01*
X156731407Y-58800788D01*
X156731403Y-58800781D01*
X156645156Y-58685571D01*
X156645154Y-58685569D01*
X156529945Y-58599323D01*
X156529938Y-58599319D01*
X156395092Y-58549025D01*
X156395093Y-58549025D01*
X156335493Y-58542618D01*
X156335491Y-58542617D01*
X156335483Y-58542617D01*
X156335474Y-58542617D01*
X154588739Y-58542617D01*
X154588733Y-58542618D01*
X154529126Y-58549025D01*
X154394281Y-58599319D01*
X154394274Y-58599323D01*
X154279065Y-58685569D01*
X154279064Y-58685571D01*
X154192816Y-58800781D01*
X154192812Y-58800788D01*
X154142518Y-58935634D01*
X154136111Y-58995233D01*
X154136110Y-58995252D01*
X154136110Y-60741987D01*
X154136111Y-60741993D01*
X154142518Y-60801600D01*
X154192812Y-60936445D01*
X154192816Y-60936452D01*
X154279062Y-61051661D01*
X154279065Y-61051664D01*
X154394274Y-61137910D01*
X154394283Y-61137915D01*
X154480942Y-61170236D01*
X154536876Y-61212106D01*
X154561294Y-61277570D01*
X154561610Y-61286418D01*
X154561610Y-63363708D01*
X154541925Y-63430747D01*
X154525291Y-63451389D01*
X154450696Y-63525983D01*
X154328013Y-63694841D01*
X154233259Y-63880805D01*
X154168760Y-64079310D01*
X154136110Y-64285459D01*
X154136110Y-64390955D01*
X154116425Y-64457994D01*
X154099791Y-64478636D01*
X150773999Y-67804428D01*
X150712676Y-67837913D01*
X150686318Y-67840747D01*
X147118416Y-67840747D01*
X146944451Y-67875350D01*
X146944442Y-67875353D01*
X146780569Y-67943230D01*
X146780556Y-67943237D01*
X146633075Y-68041782D01*
X146633071Y-68041785D01*
X146507648Y-68167208D01*
X146507645Y-68167212D01*
X146409100Y-68314693D01*
X146409093Y-68314706D01*
X146341216Y-68478579D01*
X146341213Y-68478588D01*
X146306610Y-68652551D01*
X146306610Y-92395844D01*
X146286925Y-92462883D01*
X146270291Y-92483525D01*
X140919650Y-97834165D01*
X140919644Y-97834172D01*
X140821098Y-97981658D01*
X140753215Y-98145540D01*
X140753213Y-98145548D01*
X140718610Y-98319510D01*
X140718610Y-98496903D01*
X140753213Y-98670865D01*
X140753215Y-98670873D01*
X140821096Y-98834750D01*
X140821101Y-98834760D01*
X140897712Y-98949415D01*
X140918590Y-99016092D01*
X140918610Y-99018306D01*
X140918610Y-109539697D01*
X140898925Y-109606736D01*
X140882291Y-109627378D01*
X138986844Y-111522825D01*
X138925521Y-111556310D01*
X138855829Y-111551326D01*
X138799896Y-111509454D01*
X138775479Y-111443990D01*
X138777546Y-111410952D01*
X138809610Y-111249760D01*
X138809610Y-97265998D01*
X138829295Y-97198959D01*
X138845924Y-97178322D01*
X143780888Y-92243358D01*
X143780892Y-92243356D01*
X143920249Y-92103999D01*
X144029742Y-91940131D01*
X144105161Y-91758052D01*
X144143610Y-91564758D01*
X144143610Y-75746676D01*
X144143610Y-75746673D01*
X144143609Y-75746671D01*
X144105163Y-75553390D01*
X144105161Y-75553384D01*
X144105161Y-75553382D01*
X144100956Y-75543231D01*
X144072740Y-75475112D01*
X144061853Y-75448827D01*
X144029745Y-75371310D01*
X144029744Y-75371309D01*
X144029742Y-75371303D01*
X143998734Y-75324896D01*
X143920249Y-75207434D01*
X143777796Y-75064981D01*
X143777765Y-75064952D01*
X139099929Y-70387116D01*
X139066444Y-70325793D01*
X139063610Y-70299435D01*
X139063610Y-66070962D01*
X139083295Y-66003923D01*
X139087279Y-65998094D01*
X139197207Y-65846792D01*
X139291962Y-65660824D01*
X139356459Y-65462323D01*
X139389110Y-65256175D01*
X139389110Y-65047459D01*
X139365387Y-64897679D01*
X139356459Y-64841310D01*
X139291960Y-64642805D01*
X139241065Y-64542919D01*
X139197207Y-64456842D01*
X139183423Y-64437870D01*
X139087292Y-64305556D01*
X139063812Y-64239750D01*
X139063610Y-64232671D01*
X139063610Y-62010251D01*
X139083295Y-61943212D01*
X139123943Y-61905366D01*
X139123841Y-61905229D01*
X139125120Y-61904271D01*
X139128186Y-61901417D01*
X139130933Y-61899915D01*
X139130941Y-61899913D01*
X139246156Y-61813663D01*
X139332406Y-61698448D01*
X139332407Y-61698446D01*
X139333916Y-61695685D01*
X139336140Y-61693460D01*
X139337722Y-61691348D01*
X139338025Y-61691575D01*
X139383323Y-61646282D01*
X139442745Y-61631117D01*
X144050610Y-61631117D01*
X144117649Y-61650802D01*
X144163404Y-61703606D01*
X144174610Y-61755117D01*
X144174610Y-64232671D01*
X144154925Y-64299710D01*
X144150928Y-64305556D01*
X144041015Y-64456838D01*
X143946259Y-64642805D01*
X143881760Y-64841310D01*
X143849110Y-65047459D01*
X143849110Y-65256174D01*
X143881760Y-65462323D01*
X143946259Y-65660828D01*
X144041013Y-65846792D01*
X144163694Y-66015648D01*
X144311279Y-66163233D01*
X144480135Y-66285914D01*
X144529984Y-66311313D01*
X144666098Y-66380667D01*
X144666100Y-66380667D01*
X144666103Y-66380669D01*
X144741962Y-66405317D01*
X144864603Y-66445166D01*
X144967678Y-66461491D01*
X145070752Y-66477817D01*
X145070753Y-66477817D01*
X145279467Y-66477817D01*
X145279468Y-66477817D01*
X145485616Y-66445166D01*
X145684117Y-66380669D01*
X145870085Y-66285914D01*
X146038941Y-66163233D01*
X146186526Y-66015648D01*
X146309207Y-65846792D01*
X146403962Y-65660824D01*
X146468459Y-65462323D01*
X146501110Y-65256175D01*
X146501110Y-65047459D01*
X146477387Y-64897679D01*
X146468459Y-64841310D01*
X146403960Y-64642805D01*
X146353065Y-64542919D01*
X146309207Y-64456842D01*
X146295423Y-64437870D01*
X146199292Y-64305556D01*
X146175812Y-64239750D01*
X146175610Y-64232671D01*
X146175610Y-61549762D01*
X146195295Y-61482723D01*
X146199279Y-61476894D01*
X146309207Y-61325592D01*
X146403962Y-61139624D01*
X146468459Y-60941123D01*
X146501110Y-60734975D01*
X146501110Y-60526259D01*
X146468459Y-60320111D01*
X146460101Y-60294389D01*
X146403960Y-60121605D01*
X146328229Y-59972975D01*
X146309207Y-59935642D01*
X146186526Y-59766786D01*
X146038941Y-59619201D01*
X145870085Y-59496520D01*
X145860282Y-59491525D01*
X145684121Y-59401766D01*
X145485616Y-59337267D01*
X145307653Y-59309081D01*
X145279468Y-59304617D01*
X145070752Y-59304617D01*
X145045956Y-59308544D01*
X144864603Y-59337267D01*
X144666098Y-59401766D01*
X144480134Y-59496520D01*
X144408062Y-59548883D01*
X144328848Y-59606435D01*
X144263044Y-59629915D01*
X144255965Y-59630117D01*
X139442745Y-59630117D01*
X139375706Y-59610432D01*
X139337858Y-59569783D01*
X139337722Y-59569886D01*
X139336769Y-59568613D01*
X139333916Y-59565549D01*
X139332407Y-59562787D01*
X139246157Y-59447572D01*
X139246154Y-59447569D01*
X139130945Y-59361323D01*
X139130938Y-59361319D01*
X138996092Y-59311025D01*
X138996093Y-59311025D01*
X138936493Y-59304618D01*
X138936491Y-59304617D01*
X138936483Y-59304617D01*
X138936474Y-59304617D01*
X137189739Y-59304617D01*
X137189733Y-59304618D01*
X137130126Y-59311025D01*
X136995281Y-59361319D01*
X136995274Y-59361323D01*
X136880065Y-59447569D01*
X136880062Y-59447572D01*
X136793816Y-59562781D01*
X136793812Y-59562788D01*
X136743518Y-59697634D01*
X136737111Y-59757233D01*
X136737110Y-59757252D01*
X136737110Y-61503987D01*
X136737111Y-61503993D01*
X136743518Y-61563600D01*
X136793812Y-61698445D01*
X136793816Y-61698452D01*
X136880062Y-61813661D01*
X136880065Y-61813664D01*
X136995273Y-61899909D01*
X136995275Y-61899910D01*
X136995279Y-61899913D01*
X136995283Y-61899914D01*
X136998034Y-61901417D01*
X137000259Y-61903642D01*
X137002379Y-61905229D01*
X137002150Y-61905533D01*
X137047441Y-61950821D01*
X137062610Y-62010251D01*
X137062610Y-64232671D01*
X137042925Y-64299710D01*
X137038928Y-64305556D01*
X136929015Y-64456838D01*
X136834259Y-64642805D01*
X136769760Y-64841310D01*
X136737110Y-65047459D01*
X136737110Y-65256174D01*
X136769760Y-65462323D01*
X136834259Y-65660828D01*
X136929013Y-65846792D01*
X137038928Y-65998078D01*
X137062408Y-66063883D01*
X137062610Y-66070962D01*
X137062610Y-70863759D01*
X137075148Y-70926791D01*
X137075148Y-70926792D01*
X137101057Y-71057045D01*
X137101060Y-71057057D01*
X137114241Y-71088878D01*
X137176474Y-71239124D01*
X137176481Y-71239137D01*
X137285970Y-71402998D01*
X137285973Y-71403002D01*
X137429647Y-71546676D01*
X137429669Y-71546696D01*
X142106291Y-76223318D01*
X142139776Y-76284641D01*
X142142610Y-76310999D01*
X142142610Y-91000434D01*
X142122925Y-91067473D01*
X142106291Y-91088115D01*
X139063596Y-94130810D01*
X137171331Y-96023075D01*
X137171328Y-96023078D01*
X137101648Y-96092757D01*
X137031969Y-96162436D01*
X136980712Y-96239148D01*
X136927099Y-96283953D01*
X136857774Y-96292660D01*
X136794747Y-96262505D01*
X136758028Y-96203062D01*
X136753610Y-96170257D01*
X136753610Y-90699998D01*
X136773295Y-90632959D01*
X136826099Y-90587204D01*
X136836636Y-90582963D01*
X136903161Y-90559686D01*
X137206796Y-90413463D01*
X137492149Y-90234163D01*
X137755633Y-90024042D01*
X137993935Y-89785740D01*
X138204056Y-89522256D01*
X138383356Y-89236903D01*
X138529579Y-88933268D01*
X138640886Y-88615171D01*
X138715877Y-88286611D01*
X138753610Y-87951721D01*
X138753610Y-87614713D01*
X138715877Y-87279823D01*
X138640886Y-86951263D01*
X138619055Y-86888875D01*
X138613173Y-86872065D01*
X138529579Y-86633166D01*
X138383356Y-86329531D01*
X138204056Y-86044178D01*
X137993935Y-85780694D01*
X137755633Y-85542392D01*
X137745073Y-85533971D01*
X137494104Y-85333830D01*
X137453964Y-85276642D01*
X137451114Y-85206830D01*
X137451278Y-85206181D01*
X139564502Y-77015756D01*
X139575563Y-76818985D01*
X139548024Y-76623838D01*
X139482943Y-76437812D01*
X139382820Y-76268058D01*
X139251503Y-76121098D01*
X139251502Y-76121097D01*
X139251501Y-76121096D01*
X139251496Y-76121092D01*
X139094048Y-76002587D01*
X139094042Y-76002583D01*
X139094040Y-76002582D01*
X139094034Y-76002579D01*
X138916483Y-75917062D01*
X138725648Y-75867825D01*
X138528878Y-75856764D01*
X138528875Y-75856764D01*
X138528870Y-75856764D01*
X138528868Y-75856764D01*
X138333735Y-75884302D01*
X138333732Y-75884302D01*
X138333731Y-75884303D01*
X138262940Y-75909069D01*
X138147706Y-75949384D01*
X137977951Y-76049507D01*
X137830989Y-76180825D01*
X137830985Y-76180830D01*
X137712480Y-76338278D01*
X137712472Y-76338292D01*
X137626955Y-76515843D01*
X137626955Y-76515844D01*
X135512627Y-84710549D01*
X135476818Y-84770545D01*
X135414258Y-84801657D01*
X135406443Y-84802790D01*
X135249728Y-84820448D01*
X135249712Y-84820450D01*
X134921156Y-84895440D01*
X134921144Y-84895444D01*
X134603055Y-85006749D01*
X134299426Y-85152969D01*
X134014072Y-85332270D01*
X133750587Y-85542391D01*
X133512284Y-85780694D01*
X133302163Y-86044179D01*
X133122862Y-86329533D01*
X132976642Y-86633162D01*
X132865337Y-86951251D01*
X132865333Y-86951263D01*
X132790343Y-87279819D01*
X132790341Y-87279835D01*
X132752610Y-87614708D01*
X132752610Y-87951725D01*
X132790341Y-88286598D01*
X132790343Y-88286614D01*
X132865333Y-88615170D01*
X132865337Y-88615182D01*
X132976642Y-88933271D01*
X133122862Y-89236900D01*
X133122864Y-89236903D01*
X133302164Y-89522256D01*
X133512285Y-89785740D01*
X133750587Y-90024042D01*
X134014071Y-90234163D01*
X134299424Y-90413463D01*
X134299426Y-90413464D01*
X134603050Y-90559682D01*
X134603052Y-90559682D01*
X134603059Y-90559686D01*
X134669566Y-90582958D01*
X134726340Y-90623678D01*
X134752088Y-90688630D01*
X134752610Y-90699998D01*
X134752610Y-108736234D01*
X134732925Y-108803273D01*
X134716291Y-108823915D01*
X133475973Y-110064232D01*
X133475970Y-110064236D01*
X133366482Y-110228096D01*
X133366477Y-110228106D01*
X133291059Y-110410180D01*
X133291057Y-110410188D01*
X133252610Y-110603472D01*
X133252610Y-110800561D01*
X133291057Y-110993845D01*
X133291059Y-110993853D01*
X133366477Y-111175927D01*
X133366482Y-111175937D01*
X133475970Y-111339797D01*
X133475973Y-111339801D01*
X133615325Y-111479153D01*
X133615329Y-111479156D01*
X133779189Y-111588644D01*
X133779193Y-111588646D01*
X133779196Y-111588648D01*
X133961274Y-111664068D01*
X134154565Y-111702516D01*
X134154568Y-111702517D01*
X134154570Y-111702517D01*
X134351652Y-111702517D01*
X134351653Y-111702516D01*
X134544946Y-111664068D01*
X134727024Y-111588648D01*
X134890891Y-111479156D01*
X136530249Y-109839799D01*
X136575072Y-109772717D01*
X136581506Y-109763086D01*
X136635115Y-109718281D01*
X136704440Y-109709571D01*
X136767469Y-109739723D01*
X136804190Y-109799165D01*
X136808610Y-109831975D01*
X136808610Y-110685434D01*
X136788925Y-110752473D01*
X136772291Y-110773115D01*
X130700009Y-116845398D01*
X130638686Y-116878883D01*
X130612328Y-116881717D01*
X120533565Y-116881717D01*
X120436922Y-116900941D01*
X120340277Y-116920164D01*
X120340271Y-116920166D01*
X120286944Y-116942254D01*
X120286944Y-116942255D01*
X120241425Y-116961109D01*
X120158199Y-116995583D01*
X120158189Y-116995588D01*
X119994329Y-117105076D01*
X119924650Y-117174755D01*
X119854971Y-117244435D01*
X119717291Y-117382115D01*
X119655968Y-117415600D01*
X119586276Y-117410616D01*
X119530343Y-117368744D01*
X119505926Y-117303280D01*
X119505610Y-117294434D01*
X119505610Y-113414892D01*
X119505611Y-113414871D01*
X119505611Y-113211674D01*
X119505610Y-113211672D01*
X119481468Y-113090303D01*
X119467162Y-113018382D01*
X119391742Y-112836303D01*
X119391741Y-112836302D01*
X119391738Y-112836296D01*
X119282250Y-112672436D01*
X119282247Y-112672432D01*
X117638319Y-111028506D01*
X117638316Y-111028502D01*
X117638316Y-111028503D01*
X117631249Y-111021436D01*
X117631249Y-111021435D01*
X117491892Y-110882078D01*
X117491891Y-110882077D01*
X117491890Y-110882076D01*
X117328030Y-110772588D01*
X117328021Y-110772583D01*
X117241622Y-110736796D01*
X117199275Y-110719255D01*
X117145946Y-110697166D01*
X117046088Y-110677303D01*
X117041557Y-110676401D01*
X117041551Y-110676400D01*
X116952653Y-110658717D01*
X116952651Y-110658717D01*
X111350069Y-110658717D01*
X111350067Y-110658717D01*
X111287777Y-110671107D01*
X111256632Y-110677303D01*
X111156777Y-110697164D01*
X111156769Y-110697167D01*
X111103444Y-110719254D01*
X111103444Y-110719255D01*
X111061097Y-110736796D01*
X110974699Y-110772583D01*
X110974689Y-110772588D01*
X110810829Y-110882076D01*
X110741150Y-110951755D01*
X110671471Y-111021435D01*
X108639473Y-113053432D01*
X108639470Y-113053436D01*
X108529982Y-113217296D01*
X108529977Y-113217306D01*
X108454559Y-113399380D01*
X108454557Y-113399388D01*
X108416110Y-113592672D01*
X103750780Y-113592672D01*
X103750780Y-99028068D01*
X103750781Y-99028063D01*
X103750780Y-98896473D01*
X103750780Y-98850686D01*
X103750189Y-98847717D01*
X103716173Y-98676705D01*
X103660418Y-98542103D01*
X103648293Y-98512830D01*
X103646236Y-98509752D01*
X103641255Y-98502298D01*
X103641254Y-98502295D01*
X103593424Y-98430714D01*
X103593423Y-98430713D01*
X103549741Y-98365338D01*
X103445692Y-98261289D01*
X103445687Y-98261285D01*
X103424313Y-98239911D01*
X103044929Y-97860531D01*
X103011444Y-97799208D01*
X103008610Y-97772849D01*
X103008610Y-87953578D01*
X103028295Y-87886539D01*
X103044929Y-87865897D01*
X103710571Y-87200255D01*
X103710574Y-87200252D01*
X103739072Y-87157602D01*
X103809123Y-87052764D01*
X103844610Y-86967090D01*
X103877005Y-86888883D01*
X103911610Y-86714908D01*
X103911610Y-86537525D01*
X103911610Y-71921126D01*
X103897267Y-71849018D01*
X103877005Y-71747151D01*
X103837529Y-71651849D01*
X103809123Y-71583270D01*
X103809122Y-71583268D01*
X103809121Y-71583266D01*
X103715676Y-71443418D01*
X103715675Y-71443415D01*
X103710573Y-71435779D01*
X103220572Y-70945779D01*
X103220477Y-70945674D01*
X102857265Y-70582465D01*
X102720511Y-70445712D01*
X102687027Y-70384390D01*
X102684206Y-70356214D01*
X102684335Y-70347377D01*
X102686110Y-70336175D01*
X102686110Y-70226305D01*
X102686123Y-70225419D01*
X102696207Y-70192846D01*
X102705795Y-70160197D01*
X102706642Y-70159145D01*
X102706788Y-70158675D01*
X102707512Y-70158065D01*
X102722429Y-70139555D01*
X107923132Y-64938852D01*
X108606610Y-64938852D01*
X108606610Y-66939587D01*
X108606611Y-66939593D01*
X108613018Y-66999200D01*
X108663312Y-67134045D01*
X108663316Y-67134052D01*
X108749562Y-67249261D01*
X108749565Y-67249264D01*
X108864774Y-67335510D01*
X108864779Y-67335513D01*
X108892649Y-67345907D01*
X108948583Y-67387778D01*
X108973001Y-67453241D01*
X108958150Y-67521515D01*
X108949635Y-67534976D01*
X108816893Y-67717678D01*
X108713060Y-67921461D01*
X108642388Y-68138967D01*
X108642388Y-68138970D01*
X108606610Y-68364863D01*
X108606610Y-68593570D01*
X108642388Y-68819463D01*
X108642388Y-68819466D01*
X108713060Y-69036972D01*
X108745975Y-69101571D01*
X108816893Y-69240755D01*
X108951324Y-69425783D01*
X109113044Y-69587503D01*
X109266104Y-69698708D01*
X109298496Y-69722242D01*
X109341161Y-69777572D01*
X109349610Y-69822560D01*
X109349610Y-82976190D01*
X109329925Y-83043229D01*
X109298497Y-83076507D01*
X109256382Y-83107105D01*
X109130000Y-83233487D01*
X109024943Y-83378084D01*
X108943801Y-83537335D01*
X108943799Y-83537338D01*
X108888570Y-83707315D01*
X108888570Y-83707318D01*
X108860610Y-83883851D01*
X108860610Y-84062582D01*
X108888570Y-84239115D01*
X108888570Y-84239118D01*
X108943799Y-84409095D01*
X108943801Y-84409098D01*
X109024943Y-84568349D01*
X109071928Y-84633017D01*
X109095408Y-84698820D01*
X109095610Y-84705901D01*
X109095610Y-102857913D01*
X109130213Y-103031875D01*
X109130215Y-103031883D01*
X109161636Y-103107741D01*
X109161639Y-103107746D01*
X109164156Y-103113823D01*
X109198097Y-103195764D01*
X109257173Y-103284176D01*
X109260279Y-103288824D01*
X109260282Y-103288830D01*
X109296644Y-103343251D01*
X109296645Y-103343252D01*
X109296646Y-103343253D01*
X115773646Y-109820252D01*
X115882883Y-109929489D01*
X115899076Y-109945682D01*
X116046556Y-110044226D01*
X116046563Y-110044230D01*
X116124509Y-110076516D01*
X116210444Y-110112112D01*
X116384413Y-110146716D01*
X116384417Y-110146717D01*
X116384418Y-110146717D01*
X119101803Y-110146717D01*
X119101804Y-110146716D01*
X119159792Y-110135181D01*
X119275768Y-110112113D01*
X119275771Y-110112111D01*
X119275776Y-110112111D01*
X119439657Y-110044230D01*
X119587145Y-109945681D01*
X119712574Y-109820252D01*
X119811123Y-109672764D01*
X119879004Y-109508883D01*
X119913610Y-109334908D01*
X119913610Y-109157526D01*
X119913610Y-109157523D01*
X119913609Y-109157521D01*
X119879006Y-108983558D01*
X119879003Y-108983549D01*
X119811126Y-108819676D01*
X119811119Y-108819663D01*
X119712574Y-108672182D01*
X119712571Y-108672178D01*
X119587148Y-108546755D01*
X119587144Y-108546752D01*
X119439663Y-108448207D01*
X119439650Y-108448200D01*
X119275777Y-108380323D01*
X119275768Y-108380320D01*
X119101804Y-108345717D01*
X119101801Y-108345717D01*
X116897471Y-108345717D01*
X116830432Y-108326032D01*
X116809790Y-108309398D01*
X110932929Y-102432536D01*
X110899444Y-102371213D01*
X110896610Y-102344855D01*
X110896610Y-87614708D01*
X114512610Y-87614708D01*
X114512610Y-87951725D01*
X114550341Y-88286598D01*
X114550343Y-88286614D01*
X114625333Y-88615170D01*
X114625337Y-88615182D01*
X114736642Y-88933271D01*
X114882862Y-89236900D01*
X114882864Y-89236903D01*
X115062164Y-89522256D01*
X115272285Y-89785740D01*
X115510587Y-90024042D01*
X115774071Y-90234163D01*
X116059424Y-90413463D01*
X116363059Y-90559686D01*
X116545938Y-90623678D01*
X116681144Y-90670989D01*
X116681156Y-90670993D01*
X117009716Y-90745984D01*
X117344602Y-90783716D01*
X117344603Y-90783717D01*
X117344606Y-90783717D01*
X117681617Y-90783717D01*
X117681617Y-90783716D01*
X118016504Y-90745984D01*
X118345064Y-90670993D01*
X118663161Y-90559686D01*
X118966796Y-90413463D01*
X119252149Y-90234163D01*
X119515633Y-90024042D01*
X119753935Y-89785740D01*
X119964056Y-89522256D01*
X120143356Y-89236903D01*
X120289579Y-88933268D01*
X120400886Y-88615171D01*
X120475877Y-88286611D01*
X120513610Y-87951721D01*
X120513610Y-87614713D01*
X120475877Y-87279823D01*
X120400886Y-86951263D01*
X120379055Y-86888875D01*
X120373173Y-86872065D01*
X120289579Y-86633166D01*
X120143356Y-86329531D01*
X119964056Y-86044178D01*
X119753935Y-85780694D01*
X119515633Y-85542392D01*
X119505073Y-85533971D01*
X119448716Y-85489028D01*
X119252149Y-85332271D01*
X118966796Y-85152971D01*
X118966793Y-85152969D01*
X118663164Y-85006749D01*
X118345075Y-84895444D01*
X118345063Y-84895440D01*
X118016507Y-84820450D01*
X118016491Y-84820448D01*
X117681618Y-84782717D01*
X117681614Y-84782717D01*
X117344606Y-84782717D01*
X117344601Y-84782717D01*
X117009728Y-84820448D01*
X117009712Y-84820450D01*
X116681156Y-84895440D01*
X116681144Y-84895444D01*
X116363055Y-85006749D01*
X116059426Y-85152969D01*
X115774072Y-85332270D01*
X115510587Y-85542391D01*
X115272284Y-85780694D01*
X115062163Y-86044179D01*
X114882862Y-86329533D01*
X114736642Y-86633162D01*
X114625337Y-86951251D01*
X114625333Y-86951263D01*
X114550343Y-87279819D01*
X114550341Y-87279835D01*
X114512610Y-87614708D01*
X110896610Y-87614708D01*
X110896610Y-84705901D01*
X110916295Y-84638862D01*
X110920272Y-84633043D01*
X110967277Y-84568349D01*
X111048419Y-84409098D01*
X111049462Y-84405889D01*
X111103649Y-84239118D01*
X111103649Y-84239117D01*
X111103650Y-84239114D01*
X111131610Y-84062583D01*
X111131610Y-83883851D01*
X111113812Y-83771481D01*
X111116511Y-83719988D01*
X111120365Y-83705609D01*
X111150610Y-83475867D01*
X111150610Y-83360005D01*
X111150610Y-83271313D01*
X111150610Y-69822560D01*
X111170295Y-69755521D01*
X111201724Y-69722242D01*
X111202148Y-69721934D01*
X111387176Y-69587503D01*
X111548896Y-69425783D01*
X111683327Y-69240755D01*
X111787158Y-69036975D01*
X111798208Y-69002966D01*
X111857831Y-68819466D01*
X111857831Y-68819465D01*
X111857832Y-68819462D01*
X111893610Y-68593571D01*
X111893610Y-68364863D01*
X111857832Y-68138972D01*
X111857831Y-68138968D01*
X111857831Y-68138967D01*
X111787159Y-67921461D01*
X111763664Y-67875350D01*
X111683327Y-67717679D01*
X111550582Y-67534972D01*
X111527104Y-67469170D01*
X111542929Y-67401116D01*
X111593035Y-67352421D01*
X111607565Y-67345909D01*
X111635441Y-67335513D01*
X111750656Y-67249263D01*
X111836906Y-67134048D01*
X111887201Y-66999200D01*
X111893610Y-66939590D01*
X111893609Y-64938845D01*
X111887201Y-64879234D01*
X111882530Y-64866711D01*
X111836907Y-64744388D01*
X111836903Y-64744381D01*
X111750657Y-64629172D01*
X111750654Y-64629169D01*
X111635445Y-64542923D01*
X111635438Y-64542919D01*
X111500592Y-64492625D01*
X111500593Y-64492625D01*
X111440993Y-64486218D01*
X111440991Y-64486217D01*
X111440983Y-64486217D01*
X111440974Y-64486217D01*
X109059239Y-64486217D01*
X109059233Y-64486218D01*
X108999626Y-64492625D01*
X108864781Y-64542919D01*
X108864774Y-64542923D01*
X108749565Y-64629169D01*
X108749562Y-64629172D01*
X108663316Y-64744381D01*
X108663312Y-64744388D01*
X108613018Y-64879234D01*
X108610912Y-64898828D01*
X108606611Y-64938840D01*
X108606610Y-64938852D01*
X107923132Y-64938852D01*
X110142733Y-62719251D01*
X118560610Y-62719251D01*
X118560610Y-63063182D01*
X118594320Y-63405466D01*
X118661418Y-63742789D01*
X118761260Y-64071923D01*
X118892880Y-64389681D01*
X118892882Y-64389686D01*
X119055003Y-64692992D01*
X119055014Y-64693010D01*
X119246085Y-64978968D01*
X119246095Y-64978982D01*
X119464286Y-65244849D01*
X119707477Y-65488040D01*
X119707482Y-65488044D01*
X119707483Y-65488045D01*
X119973350Y-65706236D01*
X120259323Y-65897317D01*
X120259332Y-65897322D01*
X120259334Y-65897323D01*
X120562640Y-66059444D01*
X120562642Y-66059444D01*
X120562648Y-66059448D01*
X120880405Y-66191067D01*
X121209532Y-66290907D01*
X121546860Y-66358006D01*
X121889141Y-66391717D01*
X121889144Y-66391717D01*
X122233076Y-66391717D01*
X122233079Y-66391717D01*
X122575360Y-66358006D01*
X122912688Y-66290907D01*
X123241815Y-66191067D01*
X123559572Y-66059448D01*
X123862897Y-65897317D01*
X124148870Y-65706236D01*
X124414737Y-65488045D01*
X124657938Y-65244844D01*
X124876129Y-64978977D01*
X125067210Y-64693004D01*
X125229341Y-64389679D01*
X125360960Y-64071922D01*
X125460800Y-63742795D01*
X125527899Y-63405467D01*
X125561610Y-63063186D01*
X125561610Y-62719248D01*
X125527899Y-62376967D01*
X125460800Y-62039639D01*
X125360960Y-61710512D01*
X125229341Y-61392755D01*
X125185890Y-61311465D01*
X125067216Y-61089441D01*
X125067215Y-61089439D01*
X125067210Y-61089430D01*
X124876129Y-60803457D01*
X124657938Y-60537590D01*
X124657937Y-60537589D01*
X124657933Y-60537584D01*
X124414742Y-60294393D01*
X124148875Y-60076202D01*
X124148874Y-60076201D01*
X124148870Y-60076198D01*
X123862897Y-59885117D01*
X123862892Y-59885114D01*
X123862885Y-59885110D01*
X123559579Y-59722989D01*
X123559574Y-59722987D01*
X123241816Y-59591367D01*
X122912682Y-59491525D01*
X122575358Y-59424427D01*
X122575359Y-59424427D01*
X122317566Y-59399038D01*
X122233079Y-59390717D01*
X121889141Y-59390717D01*
X121811076Y-59398405D01*
X121546860Y-59424427D01*
X121209537Y-59491525D01*
X120880403Y-59591367D01*
X120562645Y-59722987D01*
X120562640Y-59722989D01*
X120259334Y-59885110D01*
X120259316Y-59885121D01*
X119973358Y-60076192D01*
X119973344Y-60076202D01*
X119707477Y-60294393D01*
X119464286Y-60537584D01*
X119246095Y-60803451D01*
X119246085Y-60803465D01*
X119055014Y-61089423D01*
X119055003Y-61089441D01*
X118892882Y-61392747D01*
X118892880Y-61392752D01*
X118761260Y-61710510D01*
X118661418Y-62039644D01*
X118594320Y-62376967D01*
X118560610Y-62719251D01*
X110142733Y-62719251D01*
X114567948Y-58294036D01*
X114629271Y-58260551D01*
X114655629Y-58257717D01*
X193347591Y-58257717D01*
X193414630Y-58277402D01*
X193435272Y-58294036D01*
X194481291Y-59340055D01*
X194514776Y-59401378D01*
X194517610Y-59427736D01*
X194517610Y-83520451D01*
X194497925Y-83587490D01*
X194496712Y-83589342D01*
X194408719Y-83721031D01*
X194408712Y-83721044D01*
X194348374Y-83866715D01*
X194348371Y-83866727D01*
X194317610Y-84021370D01*
X194317610Y-84179063D01*
X194348371Y-84333706D01*
X194348373Y-84333714D01*
X194369911Y-84385711D01*
X194379350Y-84433164D01*
X194379350Y-94803708D01*
X194359665Y-94870747D01*
X194326492Y-94904519D01*
X194326529Y-94904564D01*
X194326117Y-94904901D01*
X194324247Y-94906806D01*
X194321823Y-94908425D01*
X194321817Y-94908430D01*
X194210323Y-95019924D01*
X194210320Y-95019928D01*
X194122719Y-95151031D01*
X194122712Y-95151044D01*
X194062374Y-95296715D01*
X194062371Y-95296727D01*
X194031610Y-95451370D01*
X194031610Y-95609063D01*
X194062371Y-95763706D01*
X194062374Y-95763718D01*
X194122712Y-95909389D01*
X194122719Y-95909402D01*
X194210320Y-96040505D01*
X194210323Y-96040509D01*
X194321817Y-96152003D01*
X194321821Y-96152006D01*
X194452924Y-96239607D01*
X194452937Y-96239614D01*
X194598608Y-96299952D01*
X194598613Y-96299954D01*
X194753263Y-96330716D01*
X194753266Y-96330717D01*
X194753268Y-96330717D01*
X194910954Y-96330717D01*
X194910955Y-96330716D01*
X195065607Y-96299954D01*
X195211289Y-96239611D01*
X195342399Y-96152006D01*
X195453899Y-96040506D01*
X195541504Y-95909396D01*
X195601847Y-95763714D01*
X195612815Y-95708573D01*
X195631327Y-95663879D01*
X195700625Y-95560168D01*
X195753430Y-95432686D01*
X195757262Y-95413416D01*
X195789644Y-95351506D01*
X195850358Y-95316929D01*
X195891039Y-95314202D01*
X195896266Y-95314717D01*
X195896268Y-95314717D01*
X196053954Y-95314717D01*
X196053955Y-95314716D01*
X196208607Y-95283954D01*
X196354289Y-95223611D01*
X196485399Y-95136006D01*
X196596899Y-95024506D01*
X196684504Y-94893396D01*
X196684505Y-94893393D01*
X196684507Y-94893390D01*
X196744302Y-94749029D01*
X196771177Y-94708805D01*
X196971624Y-94508360D01*
X197048285Y-94393628D01*
X197101090Y-94266146D01*
X197113036Y-94206090D01*
X197128010Y-94130810D01*
X197128010Y-83494383D01*
X197129242Y-83487798D01*
X197128452Y-83483922D01*
X197135029Y-83456878D01*
X197136404Y-83449535D01*
X197136904Y-83448244D01*
X197197247Y-83302564D01*
X197201274Y-83282315D01*
X197205178Y-83272253D01*
X197220161Y-83252774D01*
X197231549Y-83231002D01*
X197233104Y-83229419D01*
X197281224Y-83181300D01*
X197357885Y-83066568D01*
X197367553Y-83043229D01*
X197410688Y-82939089D01*
X197410690Y-82939085D01*
X197428041Y-82851857D01*
X197437610Y-82803752D01*
X197437610Y-57742221D01*
X197410691Y-57606894D01*
X197410690Y-57606893D01*
X197410690Y-57606889D01*
X197410688Y-57606884D01*
X197357888Y-57479412D01*
X197357881Y-57479399D01*
X197281225Y-57364676D01*
X197238894Y-57322345D01*
X197183652Y-57267103D01*
X196824076Y-56907527D01*
X195657728Y-55741177D01*
X195624243Y-55679854D01*
X195629227Y-55610162D01*
X195671099Y-55554229D01*
X195736563Y-55529812D01*
X195745409Y-55529496D01*
X196074625Y-55529496D01*
X196095951Y-55533295D01*
X196140266Y-55529496D01*
X196184751Y-55529496D01*
X196184754Y-55529496D01*
X196192810Y-55528435D01*
X196192905Y-55529159D01*
X196208749Y-55526945D01*
X196395580Y-55524086D01*
X196412937Y-55525039D01*
G37*
%TD.AperFunction*%
%TA.AperFunction,Conductor*%
G36*
X113660629Y-57007402D02*
G01*
X113706384Y-57060206D01*
X113716328Y-57129364D01*
X113687303Y-57192920D01*
X113681271Y-57199398D01*
X101929329Y-68951339D01*
X101868006Y-68984824D01*
X101803330Y-68981589D01*
X101670618Y-68938468D01*
X101533184Y-68916700D01*
X101464468Y-68905817D01*
X101001752Y-68905817D01*
X100976956Y-68909744D01*
X100795603Y-68938467D01*
X100597098Y-69002966D01*
X100411135Y-69097719D01*
X100352495Y-69140324D01*
X100286688Y-69163803D01*
X100218634Y-69147977D01*
X100169940Y-69097871D01*
X100155610Y-69040005D01*
X100155610Y-66369028D01*
X100175295Y-66301989D01*
X100228099Y-66256234D01*
X100297257Y-66246290D01*
X100352495Y-66268709D01*
X100411135Y-66311314D01*
X100498998Y-66356082D01*
X100597098Y-66406067D01*
X100597100Y-66406067D01*
X100597103Y-66406069D01*
X100703504Y-66440641D01*
X100795603Y-66470566D01*
X100898678Y-66486891D01*
X101001752Y-66503217D01*
X101001753Y-66503217D01*
X101464467Y-66503217D01*
X101464468Y-66503217D01*
X101670616Y-66470566D01*
X101869117Y-66406069D01*
X102055085Y-66311314D01*
X102223941Y-66188633D01*
X102371526Y-66041048D01*
X102494207Y-65872192D01*
X102588962Y-65686224D01*
X102653459Y-65487723D01*
X102686110Y-65281575D01*
X102686110Y-65072859D01*
X102658364Y-64897679D01*
X102653459Y-64866710D01*
X102613713Y-64744386D01*
X102588962Y-64668210D01*
X102588960Y-64668207D01*
X102588960Y-64668205D01*
X102500287Y-64494175D01*
X102494207Y-64482242D01*
X102371526Y-64313386D01*
X102223941Y-64165801D01*
X102055085Y-64043120D01*
X101869121Y-63948366D01*
X101670616Y-63883867D01*
X101492653Y-63855681D01*
X101464468Y-63851217D01*
X101001752Y-63851217D01*
X100935503Y-63861709D01*
X100866210Y-63852754D01*
X100812759Y-63807757D01*
X100792120Y-63741006D01*
X100810845Y-63673692D01*
X100828421Y-63651560D01*
X107455947Y-57024036D01*
X107517270Y-56990551D01*
X107543628Y-56987717D01*
X113593590Y-56987717D01*
X113660629Y-57007402D01*
G37*
%TD.AperFunction*%
%TA.AperFunction,Conductor*%
G36*
X100676750Y-55525826D02*
G01*
X100690448Y-55529497D01*
X100822233Y-55529497D01*
X100822233Y-55529496D01*
X106669812Y-55529496D01*
X106736851Y-55549181D01*
X106782606Y-55601985D01*
X106792550Y-55671143D01*
X106763525Y-55734699D01*
X106757493Y-55741177D01*
X99174838Y-63323830D01*
X99113515Y-63357315D01*
X99043823Y-63352331D01*
X98987890Y-63310459D01*
X98963473Y-63244995D01*
X98963157Y-63236161D01*
X98963595Y-57486460D01*
X98967398Y-57465116D01*
X98963600Y-57420819D01*
X98963604Y-57376354D01*
X98963603Y-57376352D01*
X98962543Y-57368294D01*
X98963263Y-57368199D01*
X98961048Y-57352337D01*
X98958189Y-57165486D01*
X98959143Y-57148123D01*
X98961503Y-57129364D01*
X98987256Y-56924585D01*
X98990629Y-56907534D01*
X99049746Y-56690134D01*
X99055472Y-56673722D01*
X99144436Y-56466724D01*
X99152398Y-56451285D01*
X99269457Y-56258772D01*
X99279500Y-56244599D01*
X99422351Y-56070357D01*
X99434276Y-56057734D01*
X99600097Y-55905206D01*
X99613686Y-55894363D01*
X99799221Y-55766541D01*
X99814187Y-55757711D01*
X100015776Y-55657117D01*
X100031842Y-55650464D01*
X100245528Y-55579069D01*
X100262354Y-55574732D01*
X100483926Y-55533944D01*
X100501208Y-55532003D01*
X100654139Y-55525632D01*
X100657730Y-55526028D01*
X100661597Y-55525546D01*
X100676750Y-55525826D01*
G37*
%TD.AperFunction*%
M02*
