M48
;Layer_Color=9474304
;FILE_FORMAT=4:4
METRIC,LZ
;TYPE=PLATED
T01F00S00C0.3000
T02F00S00C0.4000
T03F00S00C0.6000
T04F00S00C0.7112
T05F00S00C0.8636
T06F00S00C0.9144
T07F00S00C1.0000
T08F00S00C1.0160
T09F00S00C1.1000
T11F00S00C4.0000
%
T01
X0001243Y0001207
X0004243
X0007243
X0010243
X0013243
X0011743Y0004207
X0005743
X0002743
X0004243Y0007207
X0001243
X0002743Y0010207
X0005743
X0008743
X0007243Y0013207
X0004243
X0001243
X0016243
X0017743Y0010207
X0019243Y0007207
X0020743Y0004207
X0023743
X0025243Y0001207
X0028243
X0031243
X0034243
X0037243
X0040243
X0041743Y0004207
X0038743
X0035743
X0037243Y0007207
X0040243
X0041743Y0010207
X0038743
X0035743
X0032743
X0029743
X0028243Y0007207
X0025243Y0013207
X0037243
X0040243
X0022243Y0001207
X0019243
X0016243
X0055243
X0058243
X0056743Y0004207
Y0010207
X0053743
X0064243Y0007207
X0067243Y0013207
X0079243
X0082243
X0085243
X0088243
X0092743Y0010207
Y0004207
X0089743
X0086743
X0083743
X0080743
X0077743
X0074743
X0076243Y0007207
Y0001207
X0079243
X0082243
X0085243
X0088243
X0091243
X0094243
X0097243
X0095743Y0004207
X0094243Y0007207
X0097243Y0013207
X0095743Y0016207
X0097243Y0019207
X0094243
X0095743Y0022207
X0097243Y0025207
X0094243
X0095743Y0028207
X0097243Y0031207
X0094243
X0095743Y0034207
X0097243Y0037207
X0094243
X0095743Y0040207
X0097243Y0043207
X0094243
X0092743Y0046207
Y0040207
Y0034207
X0089743
X0091243Y0031207
X0088243
X0085243
X0086743Y0028207
X0089743
X0092743
X0091243Y0025207
X0088243
X0085243
X0082243
X0079243
X0076243Y0025148
X0077743Y0022207
X0080743
X0083743
X0086743
X0089743
X0092743
X0091243Y0019207
X0088243
X0085243
X0082243
X0079243
X0080743Y0016207
X0083743
X0086743
X0089743
X0077743
X0067243Y0019207
X0068743Y0022207
X0079243Y0043207
Y0049207
X0085243
X0088243
X0086743Y0052207
X0083743
Y0046207
X0086743
X0088243Y0043207
X0041743Y0040207
X0038743
Y0046207
X0040243Y0049207
X0034243
X0031243
X0028243
X0025243
X0026743Y0046207
X0029743
X0028243Y0037207
X0025243
X0026743Y0034207
X0028243Y0031207
X0025243
X0026743Y0028207
X0029743
X0035743
X0037243Y0031207
X0034243
X0035743Y0034207
X0038743
X0034243Y0037207
X0023743Y0052207
X0016243Y0049207
X0017743Y0046207
X0014743
Y0022207
X0017743
X0016243Y0019207
X0049243
X0013243
X0010243
X0007243
X0004243
X0001243
X0002743Y0022207
X0005743
X0008743
X0011743
X0013243Y0025207
X0010243
X0007243
X0004243
X0008743Y0028207
X0011743
X0005743Y0034207
X0002743
X0004243Y0037207
X0001243
X0002743Y0040207
Y0046207
X0008743
X0011743
X0013243Y0049207
X0010243
X0007243
X0008743Y0052207
X0011743
X0005743
X0007243Y0043207
X0005743Y0016207
X0002743
X0004243Y0055207
X0007243
X0010243
X0005743Y0058207
X0004243Y0061207
X0005743Y0070207
X0004243Y0073207
X0010243Y0067207
X0019243
X0022243
X0025243
X0026743Y0070207
X0023743
X0020743
X0017743
X0019243Y0073207
X0022243
X0025243
X0028243
X0031243
X0029743Y0076207
X0026743
X0023743
X0020743
X0025243Y0079207
X0028243
X0031243
X0029743Y0082207
X0026743
X0031243Y0085207
X0034243
X0037243
X0040243
X0043243
X0044743Y0088207
X0047743
X0050743
X0052243Y0091207
X0049243
X0046243
X0043243
X0040243
X0037243
X0038743Y0088207
X0041743
Y0082207
X0044743
X0047743
X0050743
X0052243Y0085207
X0049243
Y0079207
X0046243
X0043243
X0044743Y0076207
X0047743
X0050743
X0049243Y0073207
X0046243
X0047743Y0070207
X0044743
X0046243Y0067207
X0044743Y0064207
X0043243Y0061207
X0044743Y0058207
X0043243Y0055207
X0037243
X0034243
X0031243
X0028243
X0029743Y0058207
X0026743
X0028243Y0061207
X0031243
X0034243
X0035743Y0064207
X0038743
X0040243Y0067207
X0037243
X0034243
X0031243
X0029743Y0064207
X0025243Y0061207
X0020743Y0064207
X0017743
X0022243Y0055207
X0035743Y0070207
X0038743
X0040243Y0073207
X0037243
X0035743Y0088207
X0029743
X0053743
X0056743
X0058243Y0085207
X0061243
X0062743Y0088207
X0061243Y0091207
X0055243
X0058243Y0079207
X0062743Y0082207
X0070243Y0085207
X0073243
X0076243
X0074743Y0088207
X0071743
X0068743
X0080743
X0083743
X0085243Y0091207
X0088243
X0091243
X0082243
X0079243
X0085243Y0085207
X0086743Y0082207
X0083743
X0085243Y0079207
X0088243
X0091243
X0092743Y0082207
Y0076207
X0089743
X0086743
X0083743
X0085243Y0073207
X0088243
X0091243
X0092743Y0070207
X0089743
X0086743
X0083743
X0085243Y0067207
X0088243
X0091243
X0089743Y0064207
X0086743
X0083743
Y0058207
X0086743
X0088243Y0055207
X0085243
X0079243
Y0067207
Y0073207
X0092743Y0058207
X0094243Y0055207
X0097243
Y0061207
Y0067207
X0094243
X0095743Y0070207
X0097243Y0073207
X0094243
X0095743Y0076207
X0097243Y0079207
X0094243
X0095743Y0082207
X0097243Y0085207
X0094243
X0095743Y0088207
X0097243Y0091207
X0094243
X0095743Y0094207
X0097243Y0097207
X0094243
X0091243
X0088243
X0085243
X0082243
X0079243
X0076243
X0077743Y0094207
X0080743
X0083743
X0086743
X0089743
X0092743
X0074743
X0068743
X0067243Y0097207
X0061243
X0058243
X0055243
X0056743Y0094207
X0059743
X0062743
X0050743
X0047743
X0044743
X0041743
X0038743
X0035743
X0029743
T02
X00484963Y0005114
T03
X00692124Y00052379
X0072541Y0006211
T04
X0011581Y0013069
X004549Y0010656
X0051205Y0006973
X0054761Y0008243
X0054126Y0002909
X0067715Y0009771
X0076732Y0009005
X0075819Y0029083
X008255
X0084987Y004266
X0088162Y0044819
X0066699Y0036564
X0054507Y0028055
X0043077Y0028436
X0032028
X002263Y002742
X002009Y0028055
X0017169Y0017387
X0028853Y0020404
X00305259Y00191776
X0035203Y0018022
X003406Y001472
X0031901Y0014339
X004168Y0018022
X0038632Y0037326
X0034568Y0039993
X0039394Y0043549
X0049681Y0036691
X00132845Y00408971
X0005612Y0032754
X0025297Y00833
X0046379Y0086348
X0066064Y0082919
T05
X0002056Y0079998
Y0082538
X0077748Y0082919
Y0080379
T06
X0001929Y0061202
Y00637674
Y00662566
Y0068822
T07
X0016915Y0033262
X0029361Y0023737
X0012978Y0033262
T08
X0007644Y0036945
X0007644Y0039485
T09
X0008914Y00035694
Y00080906
X0016026
Y00035694
X0025932Y00030614
Y00075826
X0033044
Y00030614
X003279Y00922154
X0025678
X006454
X0071652
Y00967366
X006454
X003279
X0025678
T11
X0020749Y0059424
X0038989
X0054023Y0058916
X0072263
M30
