ISO-10303-21;
HEADER;
FILE_DESCRIPTION (( 'STEP AP214' ),
    '1' );
FILE_NAME ('hop dien 03.STEP',
    '2026-09-28T04:53:19',
    ( '' ),
    ( '' ),
    'SwSTEP 2.0',
    'SolidWorks 2022',
    '' );
FILE_SCHEMA (( 'AUTOMOTIVE_DESIGN' ));
ENDSEC;

DATA;
#1 = CARTESIAN_POINT ( 'NONE',  ( 14.26339999999999897, 0.000000000000000000, -11.26339999999999897 ) ) ;
#2 = ORIENTED_EDGE ( 'NONE', *, *, #22, .T. ) ;
#3 = CARTESIAN_POINT ( 'NONE',  ( -8.250000000000008882, 6.000000000000000000, 1.741672753700888533E-15 ) ) ;
#4 = CARTESIAN_POINT ( 'NONE',  ( -3.736599999999999699, 12.00000000000000000, 4.576015229693999500E-16 ) ) ;
#5 = DIRECTION ( 'NONE',  ( 0.000000000000000000, 0.000000000000000000, -1.000000000000000000 ) ) ;
#6 = ADVANCED_FACE ( 'NONE', ( #285 ), #1266, .F. ) ;
#7 = LINE ( 'NONE', #1103, #1083 ) ;
#8 = AXIS2_PLACEMENT_3D ( 'NONE', #1027, #433, #529 ) ;
#9 = VECTOR ( 'NONE', #44, 1000.000000000000000 ) ;
#10 = VERTEX_POINT ( 'NONE', #483 ) ;
#11 = LINE ( 'NONE', #401, #706 ) ;
#12 = LINE ( 'NONE', #501, #136 ) ;
#13 = CARTESIAN_POINT ( 'NONE',  ( 27.00000000000000000, 3.000000000000000000, -3.000000000000001776 ) ) ;
#14 = DIRECTION ( 'NONE',  ( 0.000000000000000000, 0.000000000000000000, -1.000000000000000000 ) ) ;
#15 = ORIENTED_EDGE ( 'NONE', *, *, #839, .F. ) ;
#16 = FACE_OUTER_BOUND ( 'NONE', #334, .T. ) ;
#17 = DIRECTION ( 'NONE',  ( -0.000000000000000000, -1.000000000000000000, -0.000000000000000000 ) ) ;
#18 = CARTESIAN_POINT ( 'NONE',  ( 14.26339999999999897, 0.000000000000000000, -15.00000000000000000 ) ) ;
#19 = AXIS2_PLACEMENT_3D ( 'NONE', #127, #516, #600 ) ;
#20 = DIRECTION ( 'NONE',  ( -0.000000000000000000, -1.000000000000000000, -0.000000000000000000 ) ) ;
#21 = UNCERTAINTY_MEASURE_WITH_UNIT (LENGTH_MEASURE( 1.000000000000000082E-05 ), #982, 'distance_accuracy_value', 'NONE');
#22 = EDGE_CURVE ( 'NONE', #1120, #43, #1237, .T. ) ;
#23 = EDGE_CURVE ( 'NONE', #836, #948, #482, .T. ) ;
#24 = LINE ( 'NONE', #690, #535 ) ;
#25 = FACE_OUTER_BOUND ( 'NONE', #962, .T. ) ;
#26 = PLANE ( 'NONE',  #88 ) ;
#27 = DIRECTION ( 'NONE',  ( -0.000000000000000000, -1.000000000000000000, -0.000000000000000000 ) ) ;
#28 = AXIS2_PLACEMENT_3D ( 'NONE', #165, #952, #171 ) ;
#29 = ORIENTED_EDGE ( 'NONE', *, *, #749, .F. ) ;
#30 = FACE_OUTER_BOUND ( 'NONE', #582, .T. ) ;
#31 = EDGE_CURVE ( 'NONE', #1078, #86, #547, .T. ) ;
#32 = FACE_OUTER_BOUND ( 'NONE', #631, .T. ) ;
#33 =( LENGTH_UNIT ( ) NAMED_UNIT ( * ) SI_UNIT ( .MILLI., .METRE. ) );
#34 = CYLINDRICAL_SURFACE ( 'NONE', #885, 1.749999999999986011 ) ;
#35 = ORIENTED_EDGE ( 'NONE', *, *, #990, .F. ) ;
#36 = LINE ( 'NONE', #821, #1156 ) ;
#37 = FACE_OUTER_BOUND ( 'NONE', #209, .T. ) ;
#38 = EDGE_CURVE ( 'NONE', #1059, #827, #291, .T. ) ;
#39 = VECTOR ( 'NONE', #763, 1000.000000000000000 ) ;
#40 = EDGE_LOOP ( 'NONE', ( #107, #57, #439, #1227 ) ) ;
#41 = DIRECTION ( 'NONE',  ( 1.000000000000000000, 0.000000000000000000, 0.000000000000000000 ) ) ;
#42 = CIRCLE ( 'NONE', #369, 3.736600000000000144 ) ;
#43 = VERTEX_POINT ( 'NONE', #593 ) ;
#44 = DIRECTION ( 'NONE',  ( -1.000000000000000000, 0.000000000000000000, -3.971015842332216479E-18 ) ) ;
#45 = PLANE ( 'NONE',  #1118 ) ;
#46 = ORIENTED_EDGE ( 'NONE', *, *, #847, .F. ) ;
#47 = CARTESIAN_POINT ( 'NONE',  ( 23.25000000000000711, 6.000000000000000000, 1.727774198252725655E-15 ) ) ;
#48 = EDGE_CURVE ( 'NONE', #1142, #487, #1022, .T. ) ;
#49 = ORIENTED_EDGE ( 'NONE', *, *, #714, .T. ) ;
#50 = VECTOR ( 'NONE', #586, 1000.000000000000000 ) ;
#51 = CARTESIAN_POINT ( 'NONE',  ( -3.673940397442059868E-16, 12.00000000000000000, -3.000000000000000000 ) ) ;
#52 = ORIENTED_EDGE ( 'NONE', *, *, #97, .F. ) ;
#53 = DIRECTION ( 'NONE',  ( -3.971015842332216479E-18, 0.000000000000000000, 1.000000000000000000 ) ) ;
#54 = EDGE_CURVE ( 'NONE', #86, #487, #211, .T. ) ;
#55 = ORIENTED_EDGE ( 'NONE', *, *, #681, .F. ) ;
#56 = FACE_OUTER_BOUND ( 'NONE', #184, .T. ) ;
#57 = ORIENTED_EDGE ( 'NONE', *, *, #310, .F. ) ;
#58 = CARTESIAN_POINT ( 'NONE',  ( 30.00000000000000000, 9.000000000000001776, -1.836970198721029589E-15 ) ) ;
#59 = ORIENTED_EDGE ( 'NONE', *, *, #295, .T. ) ;
#60 = LINE ( 'NONE', #773, #144 ) ;
#61 = ORIENTED_EDGE ( 'NONE', *, *, #1101, .T. ) ;
#62 = CARTESIAN_POINT ( 'NONE',  ( -11.74999999999998046, 6.000000000000000000, 1.727774198252725655E-15 ) ) ;
#63 = DIRECTION ( 'NONE',  ( 1.224646799147353207E-16, -0.000000000000000000, 1.000000000000000000 ) ) ;
#64 = ORIENTED_EDGE ( 'NONE', *, *, #598, .F. ) ;
#65 = AXIS2_PLACEMENT_3D ( 'NONE', #13, #801, #694 ) ;
#66 = CARTESIAN_POINT ( 'NONE',  ( -3.000000000000000000, 0.000000000000000000, -11.26339999999999897 ) ) ;
#67 = AXIS2_PLACEMENT_3D ( 'NONE', #1222, #333, #1231 ) ;
#68 = EDGE_CURVE ( 'NONE', #142, #703, #106, .T. ) ;
#69 = VECTOR ( 'NONE', #491, 1000.000000000000000 ) ;
#70 = ORIENTED_EDGE ( 'NONE', *, *, #1257, .F. ) ;
#71 = CARTESIAN_POINT ( 'NONE',  ( 18.73659999999999926, 12.00000000000000000, -3.736600000000001476 ) ) ;
#72 = CARTESIAN_POINT ( 'NONE',  ( 27.00000000000000000, 3.000000000000000000, -3.736600000000001476 ) ) ;
#73 = ORIENTED_EDGE ( 'NONE', *, *, #998, .T. ) ;
#74 = DIRECTION ( 'NONE',  ( 1.000000000000000000, 0.000000000000000000, 0.000000000000000000 ) ) ;
#75 = VERTEX_POINT ( 'NONE', #1007 ) ;
#76 = LINE ( 'NONE', #674, #249 ) ;
#77 = EDGE_CURVE ( 'NONE', #247, #1078, #1100, .T. ) ;
#78 = EDGE_CURVE ( 'NONE', #525, #550, #207, .T. ) ;
#79 = CARTESIAN_POINT ( 'NONE',  ( 0.7366000000000000325, 12.00000000000000000, -11.26339999999999897 ) ) ;
#80 = VERTEX_POINT ( 'NONE', #495 ) ;
#81 = DIRECTION ( 'NONE',  ( -0.000000000000000000, -1.000000000000000000, -0.000000000000000000 ) ) ;
#82 = ORIENTED_EDGE ( 'NONE', *, *, #1163, .F. ) ;
#83 = CARTESIAN_POINT ( 'NONE',  ( 30.00000000000000000, 2.999999999999999112, -1.836970198721029589E-15 ) ) ;
#84 = LINE ( 'NONE', #294, #517 ) ;
#85 = EDGE_CURVE ( 'NONE', #1120, #624, #404, .T. ) ;
#86 = VERTEX_POINT ( 'NONE', #784 ) ;
#87 = EDGE_LOOP ( 'NONE', ( #1050, #1134, #953, #752 ) ) ;
#88 = AXIS2_PLACEMENT_3D ( 'NONE', #508, #700, #5 ) ;
#89 = AXIS2_PLACEMENT_3D ( 'NONE', #877, #1265, #556 ) ;
#90 = DIRECTION ( 'NONE',  ( -1.000000000000000000, 0.000000000000000000, -0.000000000000000000 ) ) ;
#91 = AXIS2_PLACEMENT_3D ( 'NONE', #569, #879, #1076 ) ;
#92 = VECTOR ( 'NONE', #1216, 1000.000000000000000 ) ;
#93 = ORIENTED_EDGE ( 'NONE', *, *, #839, .T. ) ;
#94 = DIRECTION ( 'NONE',  ( 1.224646799147353207E-16, -0.000000000000000000, 1.000000000000000000 ) ) ;
#95 = AXIS2_PLACEMENT_3D ( 'NONE', #415, #1106, #223 ) ;
#96 = DIRECTION ( 'NONE',  ( 1.000000000000000000, 0.000000000000000000, 3.971015842332230345E-18 ) ) ;
#97 = EDGE_CURVE ( 'NONE', #124, #43, #795, .T. ) ;
#98 = DIRECTION ( 'NONE',  ( 3.971015842332216479E-18, 0.000000000000000000, -1.000000000000000000 ) ) ;
#99 = ORIENTED_EDGE ( 'NONE', *, *, #139, .F. ) ;
#100 = DIRECTION ( 'NONE',  ( 0.000000000000000000, 0.000000000000000000, 1.000000000000000000 ) ) ;
#101 = LINE ( 'NONE', #967, #1181 ) ;
#102 = ORIENTED_EDGE ( 'NONE', *, *, #440, .T. ) ;
#103 = MECHANICAL_DESIGN_GEOMETRIC_PRESENTATION_REPRESENTATION (  '', ( #918 ), #259 ) ;
#104 = DIRECTION ( 'NONE',  ( -0.000000000000000000, 0.000000000000000000, -1.000000000000000000 ) ) ;
#105 = ADVANCED_FACE ( 'NONE', ( #693 ), #996, .F. ) ;
#106 = LINE ( 'NONE', #126, #361 ) ;
#107 = ORIENTED_EDGE ( 'NONE', *, *, #749, .T. ) ;
#108 = LINE ( 'NONE', #896, #215 ) ;
#109 = CYLINDRICAL_SURFACE ( 'NONE', #179, 0.7366000000000004766 ) ;
#110 = ADVANCED_FACE ( 'NONE', ( #1196, #608 ), #318, .F. ) ;
#111 = PRODUCT_CONTEXT ( 'NONE', #519, 'mechanical' ) ;
#112 = AXIS2_PLACEMENT_3D ( 'NONE', #168, #1111, #137 ) ;
#113 = DIRECTION ( 'NONE',  ( -1.000000000000000000, 0.000000000000000000, 0.000000000000000000 ) ) ;
#114 = VERTEX_POINT ( 'NONE', #200 ) ;
#115 = DIRECTION ( 'NONE',  ( 1.000000000000000000, 0.000000000000000000, 0.000000000000000000 ) ) ;
#116 = DIRECTION ( 'NONE',  ( -0.000000000000000000, -1.000000000000000000, -0.000000000000000000 ) ) ;
#117 = PRODUCT ( 'hop dien 03', 'hop dien 03', '', ( #111 ) ) ;
#118 = CARTESIAN_POINT ( 'NONE',  ( 0.7366000000000002546, 12.00000000000000000, -15.00000000000000000 ) ) ;
#119 = ORIENTED_EDGE ( 'NONE', *, *, #590, .T. ) ;
#120 = DIRECTION ( 'NONE',  ( 1.000000000000000000, 0.000000000000000000, 0.000000000000000000 ) ) ;
#121 = DIRECTION ( 'NONE',  ( -0.000000000000000000, -1.000000000000000000, -0.000000000000000000 ) ) ;
#122 = FACE_OUTER_BOUND ( 'NONE', #1023, .T. ) ;
#123 = FACE_OUTER_BOUND ( 'NONE', #957, .T. ) ;
#124 = VERTEX_POINT ( 'NONE', #312 ) ;
#125 = FACE_OUTER_BOUND ( 'NONE', #964, .T. ) ;
#126 = CARTESIAN_POINT ( 'NONE',  ( 0.7366000000000000325, 0.000000000000000000, -12.00000000000000000 ) ) ;
#127 = CARTESIAN_POINT ( 'NONE',  ( -3.000000000000000000, 12.00000000000000000, -3.736599999999999699 ) ) ;
#128 = AXIS2_PLACEMENT_3D ( 'NONE', #916, #349, #646 ) ;
#129 = ORIENTED_EDGE ( 'NONE', *, *, #319, .T. ) ;
#130 = ADVANCED_FACE ( 'NONE', ( #298 ), #109, .F. ) ;
#131 = PLANE ( 'NONE',  #112 ) ;
#132 = FACE_OUTER_BOUND ( 'NONE', #580, .T. ) ;
#133 = VERTEX_POINT ( 'NONE', #813 ) ;
#134 = DIRECTION ( 'NONE',  ( 1.000000000000000000, 0.000000000000000000, 0.000000000000000000 ) ) ;
#135 = ORIENTED_EDGE ( 'NONE', *, *, #337, .F. ) ;
#136 = VECTOR ( 'NONE', #890, 1000.000000000000000 ) ;
#137 = DIRECTION ( 'NONE',  ( 0.000000000000000000, -0.000000000000000000, 1.000000000000000000 ) ) ;
#138 = CARTESIAN_POINT ( 'NONE',  ( 14.26339999999999897, 0.000000000000000000, -15.00000000000000000 ) ) ;
#139 = EDGE_CURVE ( 'NONE', #1059, #487, #12, .T. ) ;
#140 = EDGE_LOOP ( 'NONE', ( #601, #647, #667, #2 ) ) ;
#141 = CARTESIAN_POINT ( 'NONE',  ( 18.73659999999999926, 12.00000000000000000, -1.881697338559554457E-15 ) ) ;
#142 = VERTEX_POINT ( 'NONE', #219 ) ;
#143 = CARTESIAN_POINT ( 'NONE',  ( 25.00000000000000711, 6.000000000000000000, 1.734723475976807094E-15 ) ) ;
#144 = VECTOR ( 'NONE', #90, 1000.000000000000000 ) ;
#145 = ORIENTED_EDGE ( 'NONE', *, *, #464, .F. ) ;
#146 = DIRECTION ( 'NONE',  ( -0.000000000000000000, -1.000000000000000000, -0.000000000000000000 ) ) ;
#147 = VECTOR ( 'NONE', #1055, 1000.000000000000000 ) ;
#148 = ORIENTED_EDGE ( 'NONE', *, *, #1070, .T. ) ;
#149 = AXIS2_PLACEMENT_3D ( 'NONE', #980, #210, #120 ) ;
#150 = CARTESIAN_POINT ( 'NONE',  ( -3.736600000000000144, 0.000000000000000000, -2.999999999999999556 ) ) ;
#151 = ORIENTED_EDGE ( 'NONE', *, *, #1211, .T. ) ;
#152 = CYLINDRICAL_SURFACE ( 'NONE', #822, 2.999999999999999112 ) ;
#153 = ADVANCED_FACE ( 'NONE', ( #25 ), #397, .F. ) ;
#154 = ORIENTED_EDGE ( 'NONE', *, *, #554, .F. ) ;
#155 = EDGE_CURVE ( 'NONE', #827, #504, #172, .T. ) ;
#156 = DIRECTION ( 'NONE',  ( 1.000000000000000000, 0.000000000000000000, 0.000000000000000000 ) ) ;
#157 = ORIENTED_EDGE ( 'NONE', *, *, #987, .F. ) ;
#158 = CARTESIAN_POINT ( 'NONE',  ( -8.250000000000008882, 6.000000000000000000, -2.999999999999998668 ) ) ;
#159 = AXIS2_PLACEMENT_3D ( 'NONE', #1205, #27, #134 ) ;
#160 = CIRCLE ( 'NONE', #576, 0.7366000000000004766 ) ;
#161 = DIRECTION ( 'NONE',  ( 1.000000000000000000, 0.000000000000000000, 0.000000000000000000 ) ) ;
#162 = VERTEX_POINT ( 'NONE', #614 ) ;
#163 = VECTOR ( 'NONE', #931, 1000.000000000000000 ) ;
#164 = EDGE_CURVE ( 'NONE', #442, #1073, #745, .T. ) ;
#165 = CARTESIAN_POINT ( 'NONE',  ( 14.26339999999999897, 12.00000000000000000, -11.26339999999999897 ) ) ;
#166 = CARTESIAN_POINT ( 'NONE',  ( -9.999999999999994671, 6.000000000000000000, -2.999999999999998668 ) ) ;
#167 = CARTESIAN_POINT ( 'NONE',  ( 18.73659999999999926, 12.00000000000000000, -1.881697338559554457E-15 ) ) ;
#168 = CARTESIAN_POINT ( 'NONE',  ( 0.000000000000000000, 12.00000000000000000, -11.26339999999999897 ) ) ;
#169 = ORIENTED_EDGE ( 'NONE', *, *, #164, .T. ) ;
#170 = APPLICATION_CONTEXT ( 'automotive_design' ) ;
#171 = DIRECTION ( 'NONE',  ( 0.000000000000000000, 0.000000000000000000, -1.000000000000000000 ) ) ;
#172 = CIRCLE ( 'NONE', #95, 2.999999999999999112 ) ;
#173 = AXIS2_PLACEMENT_3D ( 'NONE', #570, #973, #96 ) ;
#174 = ORIENTED_EDGE ( 'NONE', *, *, #295, .F. ) ;
#175 = CARTESIAN_POINT ( 'NONE',  ( 25.00000000000000711, 6.000000000000000000, 1.734723475976807094E-15 ) ) ;
#176 = CARTESIAN_POINT ( 'NONE',  ( -3.000000000000000000, 12.00000000000000000, -3.736599999999999699 ) ) ;
#177 = ORIENTED_EDGE ( 'NONE', *, *, #181, .F. ) ;
#178 = DIRECTION ( 'NONE',  ( 0.000000000000000000, 0.000000000000000000, -1.000000000000000000 ) ) ;
#179 = AXIS2_PLACEMENT_3D ( 'NONE', #711, #116, #897 ) ;
#180 = EDGE_LOOP ( 'NONE', ( #64, #721, #383, #993 ) ) ;
#181 = EDGE_CURVE ( 'NONE', #852, #876, #1208, .T. ) ;
#182 = CARTESIAN_POINT ( 'NONE',  ( 18.73659999999999926, 12.00000000000000000, -3.000000000000001332 ) ) ;
#183 = DIRECTION ( 'NONE',  ( 0.000000000000000000, -1.000000000000000000, -0.000000000000000000 ) ) ;
#184 = EDGE_LOOP ( 'NONE', ( #82, #395, #1206, #338 ) ) ;
#185 = FACE_OUTER_BOUND ( 'NONE', #709, .T. ) ;
#186 = VECTOR ( 'NONE', #533, 1000.000000000000000 ) ;
#187 = ORIENTED_EDGE ( 'NONE', *, *, #941, .T. ) ;
#188 = FACE_OUTER_BOUND ( 'NONE', #331, .T. ) ;
#189 = ADVANCED_FACE ( 'NONE', ( #56 ), #741, .T. ) ;
#190 = FACE_OUTER_BOUND ( 'NONE', #364, .T. ) ;
#191 = CIRCLE ( 'NONE', #932, 1.749999999999986011 ) ;
#192 = CARTESIAN_POINT ( 'NONE',  ( 0.7366000000000002546, 12.00000000000000000, -15.00000000000000000 ) ) ;
#193 = AXIS2_PLACEMENT_3D ( 'NONE', #1261, #1057, #1274 ) ;
#194 = ORIENTED_EDGE ( 'NONE', *, *, #665, .F. ) ;
#195 = FACE_OUTER_BOUND ( 'NONE', #510, .T. ) ;
#196 = COLOUR_RGB ( '',1.000000000000000000, 0.5019607843137254832, 0.5019607843137254832 ) ;
#197 = LINE ( 'NONE', #368, #716 ) ;
#198 = EDGE_CURVE ( 'NONE', #236, #1062, #792, .T. ) ;
#199 = CARTESIAN_POINT ( 'NONE',  ( 27.00000000000000000, 9.000000000000001776, -1.734723475976807094E-15 ) ) ;
#200 = CARTESIAN_POINT ( 'NONE',  ( 0.000000000000000000, 12.00000000000000000, -11.26339999999999897 ) ) ;
#201 = SURFACE_SIDE_STYLE ('',( #1003 ) ) ;
#202 = FILL_AREA_STYLE_COLOUR ( '', #196 ) ;
#203 = ORIENTED_EDGE ( 'NONE', *, *, #732, .T. ) ;
#204 = CIRCLE ( 'NONE', #527, 1.750000000000001554 ) ;
#205 = ADVANCED_FACE ( 'NONE', ( #32 ), #233, .F. ) ;
#206 = PLANE ( 'NONE',  #475 ) ;
#207 = LINE ( 'NONE', #686, #572 ) ;
#208 = PLANE ( 'NONE',  #19 ) ;
#209 = EDGE_LOOP ( 'NONE', ( #459, #1263, #255, #531, #968, #356 ) ) ;
#210 = DIRECTION ( 'NONE',  ( 0.000000000000000000, -0.000000000000000000, 1.000000000000000000 ) ) ;
#211 = LINE ( 'NONE', #4, #461 ) ;
#212 = APPLICATION_PROTOCOL_DEFINITION ( 'draft international standard', 'automotive_design', 1998, #170 ) ;
#213 = ADVANCED_FACE ( 'NONE', ( #628 ), #835, .T. ) ;
#214 = ADVANCED_FACE ( 'NONE', ( #1130 ), #633, .F. ) ;
#215 = VECTOR ( 'NONE', #391, 1000.000000000000000 ) ;
#216 = DIRECTION ( 'NONE',  ( 0.000000000000000000, 1.000000000000000000, 0.000000000000000000 ) ) ;
#217 = ORIENTED_EDGE ( 'NONE', *, *, #805, .T. ) ;
#218 = CARTESIAN_POINT ( 'NONE',  ( 30.00000000000000000, 12.00000000000000000, -1.836970198721029589E-15 ) ) ;
#219 = CARTESIAN_POINT ( 'NONE',  ( 0.7366000000000000325, 0.000000000000000000, -12.00000000000000000 ) ) ;
#220 = CARTESIAN_POINT ( 'NONE',  ( 14.26339999999999897, 12.00000000000000000, -15.00000000000000000 ) ) ;
#221 = ORIENTED_EDGE ( 'NONE', *, *, #270, .T. ) ;
#222 = DIRECTION ( 'NONE',  ( -0.000000000000000000, -1.000000000000000000, -0.000000000000000000 ) ) ;
#223 = DIRECTION ( 'NONE',  ( 1.000000000000000000, 0.000000000000000000, -1.445602896647339656E-16 ) ) ;
#224 = FACE_OUTER_BOUND ( 'NONE', #1215, .T. ) ;
#225 = EDGE_LOOP ( 'NONE', ( #296, #1039, #177, #1150 ) ) ;
#226 = LINE ( 'NONE', #232, #1236 ) ;
#227 = CARTESIAN_POINT ( 'NONE',  ( 15.00000000000000000, 12.00000000000000000, -3.736600000000001476 ) ) ;
#228 = VERTEX_POINT ( 'NONE', #138 ) ;
#229 = DIRECTION ( 'NONE',  ( -1.000000000000000000, 0.000000000000000000, -3.971015842332234968E-18 ) ) ;
#230 = ORIENTED_EDGE ( 'NONE', *, *, #812, .T. ) ;
#231 = CIRCLE ( 'NONE', #956, 0.7366000000000004766 ) ;
#232 = CARTESIAN_POINT ( 'NONE',  ( -3.736600000000000144, 12.00000000000000000, -2.999999999999999556 ) ) ;
#233 = CYLINDRICAL_SURFACE ( 'NONE', #315, 1.750000000000001554 ) ;
#234 = ORIENTED_EDGE ( 'NONE', *, *, #567, .F. ) ;
#235 = CARTESIAN_POINT ( 'NONE',  ( -3.000000000000000000, 12.00000000000000000, -11.26339999999999897 ) ) ;
#236 = VERTEX_POINT ( 'NONE', #522 ) ;
#237 = DIRECTION ( 'NONE',  ( -0.000000000000000000, -0.000000000000000000, 1.000000000000000000 ) ) ;
#238 = ADVANCED_FACE ( 'NONE', ( #441 ), #45, .T. ) ;
#239 = DIRECTION ( 'NONE',  ( 3.971015842332217249E-18, -0.000000000000000000, -1.000000000000000000 ) ) ;
#240 = ORIENTED_EDGE ( 'NONE', *, *, #1145, .T. ) ;
#241 = LINE ( 'NONE', #1030, #595 ) ;
#242 = VERTEX_POINT ( 'NONE', #325 ) ;
#243 = DIRECTION ( 'NONE',  ( -3.971015842332216479E-18, 0.000000000000000000, 1.000000000000000000 ) ) ;
#244 = ORIENTED_EDGE ( 'NONE', *, *, #665, .T. ) ;
#245 = DIRECTION ( 'NONE',  ( 1.000000000000000000, 0.000000000000000000, 0.000000000000000000 ) ) ;
#246 = VECTOR ( 'NONE', #1258, 1000.000000000000000 ) ;
#247 = VERTEX_POINT ( 'NONE', #735 ) ;
#248 = VECTOR ( 'NONE', #762, 1000.000000000000000 ) ;
#249 = VECTOR ( 'NONE', #1063, 1000.000000000000000 ) ;
#250 = VECTOR ( 'NONE', #1119, 1000.000000000000000 ) ;
#251 = CARTESIAN_POINT ( 'NONE',  ( -12.00000000000000000, 9.000000000000001776, 1.836970198721029589E-15 ) ) ;
#252 = ORIENTED_EDGE ( 'NONE', *, *, #901, .F. ) ;
#253 = CARTESIAN_POINT ( 'NONE',  ( 0.000000000000000000, 12.00000000000000000, -12.00000000000000000 ) ) ;
#254 = ORIENTED_EDGE ( 'NONE', *, *, #545, .F. ) ;
#255 = ORIENTED_EDGE ( 'NONE', *, *, #577, .F. ) ;
#256 = LINE ( 'NONE', #676, #640 ) ;
#257 = ORIENTED_EDGE ( 'NONE', *, *, #1204, .F. ) ;
#258 = CARTESIAN_POINT ( 'NONE',  ( 15.00000000000000000, 0.000000000000000000, -1.896535436356012731E-15 ) ) ;
#259 =( GEOMETRIC_REPRESENTATION_CONTEXT ( 3 ) GLOBAL_UNCERTAINTY_ASSIGNED_CONTEXT ( ( #717 ) ) GLOBAL_UNIT_ASSIGNED_CONTEXT ( ( #1268, #776, #984 ) ) REPRESENTATION_CONTEXT ( 'NONE', 'WORKASPACE' ) );
#260 = FACE_OUTER_BOUND ( 'NONE', #1232, .T. ) ;
#261 = PRODUCT_DEFINITION ( 'UNKNOWN', '', #1167, #492 ) ;
#262 = ORIENTED_EDGE ( 'NONE', *, *, #330, .F. ) ;
#263 = ADVANCED_FACE ( 'NONE', ( #638 ), #1217, .T. ) ;
#264 = LINE ( 'NONE', #384, #1091 ) ;
#265 = VERTEX_POINT ( 'NONE', #817 ) ;
#266 = DIRECTION ( 'NONE',  ( 0.000000000000000000, 0.000000000000000000, 1.000000000000000000 ) ) ;
#267 = DIRECTION ( 'NONE',  ( 1.000000000000000000, 0.000000000000000000, 0.000000000000000000 ) ) ;
#268 = ORIENTED_EDGE ( 'NONE', *, *, #344, .F. ) ;
#269 = AXIS2_PLACEMENT_3D ( 'NONE', #199, #799, #1188 ) ;
#270 = EDGE_CURVE ( 'NONE', #142, #951, #1052, .T. ) ;
#271 = CIRCLE ( 'NONE', #91, 2.999999999999999112 ) ;
#272 = ADVANCED_FACE ( 'NONE', ( #841, #37 ), #1112, .T. ) ;
#273 = PLANE ( 'NONE',  #585 ) ;
#274 = ORIENTED_EDGE ( 'NONE', *, *, #733, .F. ) ;
#275 = CARTESIAN_POINT ( 'NONE',  ( 15.00000000000000000, 0.000000000000000000, -12.00000000000000000 ) ) ;
#276 = DIRECTION ( 'NONE',  ( 1.000000000000000000, 0.000000000000000000, 0.000000000000000000 ) ) ;
#277 = ORIENTED_EDGE ( 'NONE', *, *, #566, .F. ) ;
#278 = ADVANCED_BREP_SHAPE_REPRESENTATION ( 'hop dien 03', ( #781, #672 ), #1010 ) ;
#279 = LINE ( 'NONE', #958, #246 ) ;
#280 = EDGE_CURVE ( 'NONE', #228, #703, #720, .T. ) ;
#281 = CYLINDRICAL_SURFACE ( 'NONE', #790, 0.7366000000000004766 ) ;
#282 = ORIENTED_EDGE ( 'NONE', *, *, #1239, .F. ) ;
#283 = CIRCLE ( 'NONE', #1088, 1.750000000000001554 ) ;
#284 = LINE ( 'NONE', #573, #870 ) ;
#285 = FACE_OUTER_BOUND ( 'NONE', #40, .T. ) ;
#286 = DIRECTION ( 'NONE',  ( 0.000000000000000000, 0.000000000000000000, -1.000000000000000000 ) ) ;
#287 = ORIENTED_EDGE ( 'NONE', *, *, #539, .F. ) ;
#288 = CARTESIAN_POINT ( 'NONE',  ( -3.673940397442059868E-16, 12.00000000000000000, -3.000000000000000000 ) ) ;
#289 = VECTOR ( 'NONE', #668, 1000.000000000000000 ) ;
#290 = AXIS2_PLACEMENT_3D ( 'NONE', #929, #243, #830 ) ;
#291 = LINE ( 'NONE', #604, #321 ) ;
#292 = LINE ( 'NONE', #775, #305 ) ;
#293 = AXIS2_PLACEMENT_3D ( 'NONE', #1058, #1053, #470 ) ;
#294 = CARTESIAN_POINT ( 'NONE',  ( 18.00000000000000000, 0.000000000000000000, -12.00000000000000000 ) ) ;
#295 = EDGE_CURVE ( 'NONE', #1056, #1098, #541, .T. ) ;
#296 = ORIENTED_EDGE ( 'NONE', *, *, #280, .T. ) ;
#297 = CARTESIAN_POINT ( 'NONE',  ( 30.00000000000000000, 9.000000000000001776, -3.000000000000001776 ) ) ;
#298 = FACE_OUTER_BOUND ( 'NONE', #1270, .T. ) ;
#299 = DIRECTION ( 'NONE',  ( -0.000000000000000000, -1.000000000000000000, -0.000000000000000000 ) ) ;
#300 = ORIENTED_EDGE ( 'NONE', *, *, #31, .T. ) ;
#301 = EDGE_CURVE ( 'NONE', #859, #798, #621, .T. ) ;
#302 = ADVANCED_FACE ( 'NONE', ( #132 ), #921, .F. ) ;
#303 = DIRECTION ( 'NONE',  ( 0.000000000000000000, -0.000000000000000000, 1.000000000000000000 ) ) ;
#304 = DIRECTION ( 'NONE',  ( 0.000000000000000000, 0.000000000000000000, -1.000000000000000000 ) ) ;
#305 = VECTOR ( 'NONE', #373, 1000.000000000000000 ) ;
#306 = CARTESIAN_POINT ( 'NONE',  ( 0.000000000000000000, 12.00000000000000000, -11.26339999999999897 ) ) ;
#307 = LINE ( 'NONE', #1213, #983 ) ;
#308 = ORIENTED_EDGE ( 'NONE', *, *, #385, .T. ) ;
#309 = DIRECTION ( 'NONE',  ( 0.000000000000000000, -0.000000000000000000, 1.000000000000000000 ) ) ;
#310 = EDGE_CURVE ( 'NONE', #861, #550, #1049, .T. ) ;
#311 = AXIS2_PLACEMENT_3D ( 'NONE', #1066, #909, #811 ) ;
#312 = CARTESIAN_POINT ( 'NONE',  ( 27.00000000000000000, 0.000000000000000000, -3.000000000000001776 ) ) ;
#313 = AXIS2_PLACEMENT_3D ( 'NONE', #192, #684, #303 ) ;
#314 = CARTESIAN_POINT ( 'NONE',  ( 27.00000000000000000, 0.000000000000000000, -3.736600000000001476 ) ) ;
#315 = AXIS2_PLACEMENT_3D ( 'NONE', #143, #239, #345 ) ;
#316 = ORIENTED_EDGE ( 'NONE', *, *, #38, .T. ) ;
#317 = CARTESIAN_POINT ( 'NONE',  ( 0.7366000000000000325, 12.00000000000000000, -11.26339999999999897 ) ) ;
#318 = PLANE ( 'NONE',  #712 ) ;
#319 = EDGE_CURVE ( 'NONE', #703, #419, #438, .T. ) ;
#320 = DIRECTION ( 'NONE',  ( 0.000000000000000000, 0.000000000000000000, -1.000000000000000000 ) ) ;
#321 = VECTOR ( 'NONE', #1093, 1000.000000000000000 ) ;
#322 = ORIENTED_EDGE ( 'NONE', *, *, #1211, .F. ) ;
#323 = CARTESIAN_POINT ( 'NONE',  ( 15.00000000000000000, 12.00000000000000000, -1.896535436356012731E-15 ) ) ;
#324 = VECTOR ( 'NONE', #14, 1000.000000000000000 ) ;
#325 = CARTESIAN_POINT ( 'NONE',  ( -15.00000000000000000, 9.000000000000001776, 1.836970198721029589E-15 ) ) ;
#326 = LINE ( 'NONE', #306, #512 ) ;
#327 = ORIENTED_EDGE ( 'NONE', *, *, #473, .F. ) ;
#328 = DIRECTION ( 'NONE',  ( -7.228014483236698281E-17, 0.000000000000000000, 1.000000000000000000 ) ) ;
#329 = EDGE_CURVE ( 'NONE', #265, #504, #867, .T. ) ;
#330 = EDGE_CURVE ( 'NONE', #951, #1142, #264, .T. ) ;
#331 = EDGE_LOOP ( 'NONE', ( #612, #1164, #959, #387 ) ) ;
#332 = CARTESIAN_POINT ( 'NONE',  ( 26.75000000000001066, 6.000000000000000000, -3.000000000000001776 ) ) ;
#333 = DIRECTION ( 'NONE',  ( 3.971015842332216479E-18, 0.000000000000000000, -1.000000000000000000 ) ) ;
#334 = EDGE_LOOP ( 'NONE', ( #316, #381, #985, #979, #1019, #375 ) ) ;
#335 = CARTESIAN_POINT ( 'NONE',  ( 0.000000000000000000, 0.000000000000000000, -11.26339999999999897 ) ) ;
#336 = AXIS2_PLACEMENT_3D ( 'NONE', #484, #388, #266 ) ;
#337 = EDGE_CURVE ( 'NONE', #1148, #660, #279, .T. ) ;
#338 = ORIENTED_EDGE ( 'NONE', *, *, #881, .F. ) ;
#339 = DIRECTION ( 'NONE',  ( 0.000000000000000000, -1.000000000000000000, -0.000000000000000000 ) ) ;
#340 = CARTESIAN_POINT ( 'NONE',  ( -3.000000000000000000, 12.00000000000000000, 0.000000000000000000 ) ) ;
#341 = ORIENTED_EDGE ( 'NONE', *, *, #1012, .F. ) ;
#342 = DIRECTION ( 'NONE',  ( 0.000000000000000000, 0.000000000000000000, -1.000000000000000000 ) ) ;
#343 = ORIENTED_EDGE ( 'NONE', *, *, #1246, .T. ) ;
#344 = EDGE_CURVE ( 'NONE', #442, #660, #947, .T. ) ;
#345 = DIRECTION ( 'NONE',  ( -1.000000000000000000, 0.000000000000000000, -3.971015842332234968E-18 ) ) ;
#346 = ORIENTED_EDGE ( 'NONE', *, *, #181, .T. ) ;
#347 = LINE ( 'NONE', #167, #163 ) ;
#348 = ORIENTED_EDGE ( 'NONE', *, *, #567, .T. ) ;
#349 = DIRECTION ( 'NONE',  ( 1.000000000000000000, 0.000000000000000000, 0.000000000000000000 ) ) ;
#350 = ORIENTED_EDGE ( 'NONE', *, *, #998, .F. ) ;
#351 = DIRECTION ( 'NONE',  ( -1.000000000000000000, 0.000000000000000000, 0.000000000000000000 ) ) ;
#352 = ORIENTED_EDGE ( 'NONE', *, *, #733, .T. ) ;
#353 = VECTOR ( 'NONE', #100, 1000.000000000000000 ) ;
#354 = DIRECTION ( 'NONE',  ( -0.000000000000000000, -1.000000000000000000, -0.000000000000000000 ) ) ;
#355 = ADVANCED_FACE ( 'NONE', ( #671 ), #664, .T. ) ;
#356 = ORIENTED_EDGE ( 'NONE', *, *, #1048, .T. ) ;
#357 = DIRECTION ( 'NONE',  ( 1.000000000000000000, 0.000000000000000000, 0.000000000000000000 ) ) ;
#358 = DIRECTION ( 'NONE',  ( 0.000000000000000000, 0.000000000000000000, -1.000000000000000000 ) ) ;
#359 = PRODUCT_DEFINITION_SHAPE ( 'NONE', 'NONE',  #261 ) ;
#360 = ORIENTED_EDGE ( 'NONE', *, *, #1115, .F. ) ;
#361 = VECTOR ( 'NONE', #988, 1000.000000000000000 ) ;
#362 = CARTESIAN_POINT ( 'NONE',  ( -9.999999999999994671, 6.000000000000000000, 1.734723475976807094E-15 ) ) ;
#363 = AXIS2_PLACEMENT_3D ( 'NONE', #779, #1067, #587 ) ;
#364 = EDGE_LOOP ( 'NONE', ( #744, #1260, #244, #682 ) ) ;
#365 = CARTESIAN_POINT ( 'NONE',  ( 14.26339999999999897, 12.00000000000000000, -15.00000000000000000 ) ) ;
#366 = CIRCLE ( 'NONE', #159, 0.7366000000000004766 ) ;
#367 = VECTOR ( 'NONE', #1128, 1000.000000000000000 ) ;
#368 = CARTESIAN_POINT ( 'NONE',  ( -3.736599999999999699, 12.00000000000000000, 4.576015229693999500E-16 ) ) ;
#369 = AXIS2_PLACEMENT_3D ( 'NONE', #849, #1040, #843 ) ;
#370 = CARTESIAN_POINT ( 'NONE',  ( 0.7366000000000000325, 0.000000000000000000, -11.26339999999999897 ) ) ;
#371 = CIRCLE ( 'NONE', #311, 0.7366000000000000325 ) ;
#372 = ORIENTED_EDGE ( 'NONE', *, *, #826, .F. ) ;
#373 = DIRECTION ( 'NONE',  ( -1.000000000000000000, 0.000000000000000000, 0.000000000000000000 ) ) ;
#374 = DIRECTION ( 'NONE',  ( -1.445602896647339163E-16, 0.000000000000000000, -1.000000000000000000 ) ) ;
#375 = ORIENTED_EDGE ( 'NONE', *, *, #641, .T. ) ;
#376 = PRESENTATION_LAYER_ASSIGNMENT (  '', '', ( #934 ) ) ;
#377 = EDGE_CURVE ( 'NONE', #75, #142, #60, .T. ) ;
#378 = EDGE_LOOP ( 'NONE', ( #656, #234, #408, #102 ) ) ;
#379 = AXIS2_PLACEMENT_3D ( 'NONE', #317, #1074, #995 ) ;
#380 = CARTESIAN_POINT ( 'NONE',  ( 30.00000000000000000, 12.00000000000000000, -3.000000000000001776 ) ) ;
#381 = ORIENTED_EDGE ( 'NONE', *, *, #155, .T. ) ;
#382 = CARTESIAN_POINT ( 'NONE',  ( 27.00000000000000000, 12.00000000000000000, -1.848883246248026060E-15 ) ) ;
#383 = ORIENTED_EDGE ( 'NONE', *, *, #406, .T. ) ;
#384 = CARTESIAN_POINT ( 'NONE',  ( 0.000000000000000000, 0.000000000000000000, 0.000000000000000000 ) ) ;
#385 = EDGE_CURVE ( 'NONE', #86, #1225, #256, .T. ) ;
#386 = CLOSED_SHELL ( 'NONE', ( #679, #205, #856, #697, #238, #355, #497, #875, #666, #723, #626, #489, #399, #657, #428, #892, #1264, #263, #521, #1210, #1124, #891, #213, #153, #914, #130, #857, #1125, #272, #618, #110, #1186, #6, #427, #1256, #902, #214, #105, #740, #302, #1238, #899, #688, #1036, #555, #189 ) ) ;
#387 = ORIENTED_EDGE ( 'NONE', *, *, #881, .T. ) ;
#388 = DIRECTION ( 'NONE',  ( -0.000000000000000000, -1.000000000000000000, -0.000000000000000000 ) ) ;
#389 = AXIS2_PLACEMENT_3D ( 'NONE', #1009, #20, #1109 ) ;
#390 = VECTOR ( 'NONE', #551, 1000.000000000000000 ) ;
#391 = DIRECTION ( 'NONE',  ( -1.000000000000000000, 0.000000000000000000, 0.000000000000000000 ) ) ;
#392 = DIRECTION ( 'NONE',  ( -0.000000000000000000, -1.000000000000000000, -0.000000000000000000 ) ) ;
#393 = EDGE_CURVE ( 'NONE', #265, #798, #414, .T. ) ;
#394 = DIRECTION ( 'NONE',  ( 0.000000000000000000, 0.000000000000000000, -1.000000000000000000 ) ) ;
#395 = ORIENTED_EDGE ( 'NONE', *, *, #1070, .F. ) ;
#396 = CARTESIAN_POINT ( 'NONE',  ( -3.736599999999999699, 0.000000000000000000, 4.576015229693999500E-16 ) ) ;
#397 = CYLINDRICAL_SURFACE ( 'NONE', #874, 0.7366000000000004766 ) ;
#398 = CARTESIAN_POINT ( 'NONE',  ( 18.00000000000000000, 12.00000000000000000, -11.26339999999999897 ) ) ;
#399 = ADVANCED_FACE ( 'NONE', ( #1243 ), #476, .T. ) ;
#400 = EDGE_LOOP ( 'NONE', ( #673, #670, #29, #1229 ) ) ;
#401 = CARTESIAN_POINT ( 'NONE',  ( 0.000000000000000000, 12.00000000000000000, -12.00000000000000000 ) ) ;
#402 = DIRECTION ( 'NONE',  ( 1.000000000000000000, 0.000000000000000000, 0.000000000000000000 ) ) ;
#403 = CARTESIAN_POINT ( 'NONE',  ( 0.000000000000000000, 12.00000000000000000, -15.00000000000000000 ) ) ;
#404 = CIRCLE ( 'NONE', #544, 0.7366000000000004766 ) ;
#405 = DIRECTION ( 'NONE',  ( -0.000000000000000000, 1.000000000000000000, -0.000000000000000000 ) ) ;
#406 = EDGE_CURVE ( 'NONE', #624, #861, #1155, .T. ) ;
#407 = EDGE_CURVE ( 'NONE', #468, #162, #472, .T. ) ;
#408 = ORIENTED_EDGE ( 'NONE', *, *, #539, .T. ) ;
#409 = CARTESIAN_POINT ( 'NONE',  ( 18.73659999999999926, 0.000000000000000000, -1.881697338559554457E-15 ) ) ;
#410 = CARTESIAN_POINT ( 'NONE',  ( -3.736600000000000144, 12.00000000000000000, -3.736599999999999699 ) ) ;
#411 = LINE ( 'NONE', #1018, #882 ) ;
#412 = ORIENTED_EDGE ( 'NONE', *, *, #578, .F. ) ;
#413 = CARTESIAN_POINT ( 'NONE',  ( -15.00000000000000000, 3.000000000000000000, 1.734723475976807094E-15 ) ) ;
#414 = CIRCLE ( 'NONE', #704, 2.999999999999999112 ) ;
#415 = CARTESIAN_POINT ( 'NONE',  ( -12.00000000000000000, 3.000000000000000000, -2.999999999999998224 ) ) ;
#416 = PRESENTATION_STYLE_ASSIGNMENT (( #1008 ) ) ;
#417 = AXIS2_PLACEMENT_3D ( 'NONE', #780, #661, #678 ) ;
#418 = PLANE ( 'NONE',  #652 ) ;
#419 = VERTEX_POINT ( 'NONE', #66 ) ;
#420 = CARTESIAN_POINT ( 'NONE',  ( 15.00000000000000000, 12.00000000000000000, -12.00000000000000000 ) ) ;
#421 = DIRECTION ( 'NONE',  ( -0.000000000000000000, 0.000000000000000000, -1.000000000000000000 ) ) ;
#422 = DIRECTION ( 'NONE',  ( 0.000000000000000000, 0.000000000000000000, 1.000000000000000000 ) ) ;
#423 = CARTESIAN_POINT ( 'NONE',  ( -9.999999999999994671, 6.000000000000000000, 1.734723475976807094E-15 ) ) ;
#424 = VERTEX_POINT ( 'NONE', #659 ) ;
#425 = DIRECTION ( 'NONE',  ( 1.000000000000000000, 0.000000000000000000, 0.000000000000000000 ) ) ;
#426 = CARTESIAN_POINT ( 'NONE',  ( 18.73659999999999926, 0.000000000000000000, -1.881697338559554457E-15 ) ) ;
#427 = ADVANCED_FACE ( 'NONE', ( #1060 ), #1235, .T. ) ;
#428 = ADVANCED_FACE ( 'NONE', ( #185 ), #273, .T. ) ;
#429 = ORIENTED_EDGE ( 'NONE', *, *, #437, .F. ) ;
#430 = DIRECTION ( 'NONE',  ( -1.000000000000000000, 0.000000000000000000, 1.224646799147353207E-16 ) ) ;
#431 = ORIENTED_EDGE ( 'NONE', *, *, #922, .F. ) ;
#432 = LINE ( 'NONE', #323, #1032 ) ;
#433 = DIRECTION ( 'NONE',  ( -0.000000000000000000, 1.000000000000000000, -0.000000000000000000 ) ) ;
#434 = EDGE_LOOP ( 'NONE', ( #557, #574, #300, #663 ) ) ;
#435 = CARTESIAN_POINT ( 'NONE',  ( -3.000000000000000000, 12.00000000000000000, 0.000000000000000000 ) ) ;
#436 = AXIS2_PLACEMENT_3D ( 'NONE', #719, #920, #358 ) ;
#437 = EDGE_CURVE ( 'NONE', #861, #943, #860, .T. ) ;
#438 = CIRCLE ( 'NONE', #1159, 3.736600000000000144 ) ;
#439 = ORIENTED_EDGE ( 'NONE', *, *, #406, .F. ) ;
#440 = EDGE_CURVE ( 'NONE', #1220, #142, #284, .T. ) ;
#441 = FACE_OUTER_BOUND ( 'NONE', #1252, .T. ) ;
#442 = VERTEX_POINT ( 'NONE', #297 ) ;
#443 = LINE ( 'NONE', #435, #186 ) ;
#444 = ORIENTED_EDGE ( 'NONE', *, *, #1081, .T. ) ;
#445 = EDGE_CURVE ( 'NONE', #424, #1059, #371, .T. ) ;
#446 = DIRECTION ( 'NONE',  ( -1.000000000000000000, 0.000000000000000000, 0.000000000000000000 ) ) ;
#447 = ORIENTED_EDGE ( 'NONE', *, *, #598, .T. ) ;
#448 = CARTESIAN_POINT ( 'NONE',  ( 0.000000000000000000, 12.00000000000000000, -3.736599999999999699 ) ) ;
#449 = DIRECTION ( 'NONE',  ( -0.000000000000000000, 1.000000000000000000, 0.000000000000000000 ) ) ;
#450 = ORIENTED_EDGE ( 'NONE', *, *, #864, .T. ) ;
#451 = DIRECTION ( 'NONE',  ( 0.000000000000000000, 0.000000000000000000, -1.000000000000000000 ) ) ;
#452 = DIRECTION ( 'NONE',  ( 0.000000000000000000, 0.000000000000000000, -1.000000000000000000 ) ) ;
#453 = ORIENTED_EDGE ( 'NONE', *, *, #1163, .T. ) ;
#454 = AXIS2_PLACEMENT_3D ( 'NONE', #1152, #183, #788 ) ;
#455 = CARTESIAN_POINT ( 'NONE',  ( -3.736600000000000144, 0.000000000000000000, -3.736599999999999699 ) ) ;
#456 = VERTEX_POINT ( 'NONE', #409 ) ;
#457 = CARTESIAN_POINT ( 'NONE',  ( 0.7366000000000000325, 12.00000000000000000, -12.00000000000000000 ) ) ;
#458 = DIRECTION ( 'NONE',  ( 0.000000000000000000, 0.000000000000000000, 1.000000000000000000 ) ) ;
#459 = ORIENTED_EDGE ( 'NONE', *, *, #1092, .F. ) ;
#460 = DIRECTION ( 'NONE',  ( 1.000000000000000000, 0.000000000000000000, -1.445602896647339656E-16 ) ) ;
#461 = VECTOR ( 'NONE', #1189, 1000.000000000000000 ) ;
#462 = ORIENTED_EDGE ( 'NONE', *, *, #310, .T. ) ;
#463 = DIRECTION ( 'NONE',  ( 1.000000000000000000, 0.000000000000000000, -1.224646799147353207E-16 ) ) ;
#464 = EDGE_CURVE ( 'NONE', #1170, #553, #1202, .T. ) ;
#465 = SURFACE_SIDE_STYLE ('',( #863 ) ) ;
#466 = ORIENTED_EDGE ( 'NONE', *, *, #198, .T. ) ;
#467 = DIRECTION ( 'NONE',  ( 0.000000000000000000, 1.000000000000000000, 0.000000000000000000 ) ) ;
#468 = VERTEX_POINT ( 'NONE', #3 ) ;
#469 = DIRECTION ( 'NONE',  ( -0.000000000000000000, -1.000000000000000000, -0.000000000000000000 ) ) ;
#470 = DIRECTION ( 'NONE',  ( 0.000000000000000000, -0.000000000000000000, 1.000000000000000000 ) ) ;
#471 = ORIENTED_EDGE ( 'NONE', *, *, #1080, .T. ) ;
#472 = CIRCLE ( 'NONE', #810, 1.749999999999986011 ) ;
#473 = EDGE_CURVE ( 'NONE', #162, #468, #191, .T. ) ;
#474 = EDGE_LOOP ( 'NONE', ( #642, #477, #1047, #352 ) ) ;
#475 = AXIS2_PLACEMENT_3D ( 'NONE', #288, #597, #1174 ) ;
#476 = PLANE ( 'NONE',  #89 ) ;
#477 = ORIENTED_EDGE ( 'NONE', *, *, #641, .F. ) ;
#478 = CYLINDRICAL_SURFACE ( 'NONE', #562, 3.736599999999999699 ) ;
#479 = PRESENTATION_STYLE_ASSIGNMENT (( #1065 ) ) ;
#480 = EDGE_CURVE ( 'NONE', #242, #1248, #24, .T. ) ;
#481 = DIRECTION ( 'NONE',  ( -0.000000000000000000, -1.000000000000000000, -0.000000000000000000 ) ) ;
#482 = CIRCLE ( 'NONE', #945, 1.749999999999986011 ) ;
#483 = CARTESIAN_POINT ( 'NONE',  ( 14.26339999999999897, 12.00000000000000000, -12.00000000000000000 ) ) ;
#484 = CARTESIAN_POINT ( 'NONE',  ( 18.73659999999999926, 12.00000000000000000, -3.736600000000001476 ) ) ;
#485 = PRESENTATION_LAYER_ASSIGNMENT (  '', '', ( #918 ) ) ;
#486 = CARTESIAN_POINT ( 'NONE',  ( 18.73659999999999926, 12.00000000000000000, -3.000000000000001332 ) ) ;
#487 = VERTEX_POINT ( 'NONE', #396 ) ;
#488 = DIRECTION ( 'NONE',  ( 1.000000000000000000, 0.000000000000000000, 3.971015842332270405E-18 ) ) ;
#489 = ADVANCED_FACE ( 'NONE', ( #1272 ), #974, .T. ) ;
#490 = CARTESIAN_POINT ( 'NONE',  ( 15.00000000000000000, 12.00000000000000000, -3.000000000000001776 ) ) ;
#491 = DIRECTION ( 'NONE',  ( -0.000000000000000000, -1.000000000000000000, -0.000000000000000000 ) ) ;
#492 = PRODUCT_DEFINITION_CONTEXT ( 'detailed design', #170, 'design' ) ;
#493 = EDGE_LOOP ( 'NONE', ( #93, #466 ) ) ;
#494 = PLANE ( 'NONE',  #1259 ) ;
#495 = CARTESIAN_POINT ( 'NONE',  ( 27.00000000000000000, 0.000000000000000000, -1.848883246248026060E-15 ) ) ;
#496 = SHAPE_DEFINITION_REPRESENTATION ( #359, #278 ) ;
#497 = ADVANCED_FACE ( 'NONE', ( #889 ), #494, .T. ) ;
#498 = LINE ( 'NONE', #605, #324 ) ;
#499 = ORIENTED_EDGE ( 'NONE', *, *, #941, .F. ) ;
#500 = LINE ( 'NONE', #806, #992 ) ;
#501 = CARTESIAN_POINT ( 'NONE',  ( -3.736600000000000144, 0.000000000000000000, -2.999999999999999556 ) ) ;
#502 = DIRECTION ( 'NONE',  ( -1.000000000000000000, 0.000000000000000000, -3.971015842332234968E-18 ) ) ;
#503 = CARTESIAN_POINT ( 'NONE',  ( 25.00000000000000711, 6.000000000000000000, 1.734723475976807094E-15 ) ) ;
#504 = VERTEX_POINT ( 'NONE', #1183 ) ;
#505 = AXIS2_PLACEMENT_3D ( 'NONE', #939, #949, #451 ) ;
#506 = DIRECTION ( 'NONE',  ( 0.000000000000000000, 1.000000000000000000, 0.000000000000000000 ) ) ;
#507 = DIRECTION ( 'NONE',  ( 1.000000000000000000, 0.000000000000000000, 3.971015842332216479E-18 ) ) ;
#508 = CARTESIAN_POINT ( 'NONE',  ( 0.000000000000000000, 0.000000000000000000, -3.736599999999999699 ) ) ;
#509 = CARTESIAN_POINT ( 'NONE',  ( -11.74999999999998046, 6.000000000000000000, -2.999999999999998668 ) ) ;
#510 = EDGE_LOOP ( 'NONE', ( #724, #803, #747, #1116, #308, #453 ) ) ;
#511 = CARTESIAN_POINT ( 'NONE',  ( 18.00000000000000000, 0.000000000000000000, -3.736600000000001476 ) ) ;
#512 = VECTOR ( 'NONE', #997, 1000.000000000000000 ) ;
#513 = CARTESIAN_POINT ( 'NONE',  ( 30.00000000000000000, 9.000000000000001776, -3.000000000000001776 ) ) ;
#514 = CIRCLE ( 'NONE', #336, 3.736600000000000144 ) ;
#515 = AXIS2_PLACEMENT_3D ( 'NONE', #175, #960, #502 ) ;
#516 = DIRECTION ( 'NONE',  ( 0.000000000000000000, 1.000000000000000000, 0.000000000000000000 ) ) ;
#517 = VECTOR ( 'NONE', #872, 1000.000000000000000 ) ;
#518 = ORIENTED_EDGE ( 'NONE', *, *, #805, .F. ) ;
#519 = APPLICATION_CONTEXT ( 'automotive_design' ) ;
#520 = DIRECTION ( 'NONE',  ( 0.000000000000000000, -1.000000000000000000, -0.000000000000000000 ) ) ;
#521 = ADVANCED_FACE ( 'NONE', ( #1082, #16 ), #206, .F. ) ;
#522 = CARTESIAN_POINT ( 'NONE',  ( 26.75000000000001066, 6.000000000000000000, 1.741672753700888533E-15 ) ) ;
#523 = ORIENTED_EDGE ( 'NONE', *, *, #407, .F. ) ;
#524 = CARTESIAN_POINT ( 'NONE',  ( -3.736600000000000144, 12.00000000000000000, -2.999999999999999556 ) ) ;
#525 = VERTEX_POINT ( 'NONE', #986 ) ;
#526 = DIRECTION ( 'NONE',  ( 0.000000000000000000, 0.000000000000000000, -1.000000000000000000 ) ) ;
#527 = AXIS2_PLACEMENT_3D ( 'NONE', #503, #796, #229 ) ;
#528 = CIRCLE ( 'NONE', #1108, 0.7366000000000000325 ) ;
#529 = DIRECTION ( 'NONE',  ( 0.000000000000000000, 0.000000000000000000, -1.000000000000000000 ) ) ;
#530 = VECTOR ( 'NONE', #351, 1000.000000000000000 ) ;
#531 = ORIENTED_EDGE ( 'NONE', *, *, #554, .T. ) ;
#532 = EDGE_CURVE ( 'NONE', #653, #1098, #108, .T. ) ;
#533 = DIRECTION ( 'NONE',  ( -0.000000000000000000, -0.000000000000000000, 1.000000000000000000 ) ) ;
#534 = ORIENTED_EDGE ( 'NONE', *, *, #1029, .F. ) ;
#535 = VECTOR ( 'NONE', #481, 1000.000000000000000 ) ;
#536 = CARTESIAN_POINT ( 'NONE',  ( 0.000000000000000000, 0.000000000000000000, -15.00000000000000000 ) ) ;
#537 = EDGE_LOOP ( 'NONE', ( #873, #412, #1104, #1017 ) ) ;
#538 = PLANE ( 'NONE',  #926 ) ;
#539 = EDGE_CURVE ( 'NONE', #10, #1220, #11, .T. ) ;
#540 = ORIENTED_EDGE ( 'NONE', *, *, #1092, .T. ) ;
#541 = LINE ( 'NONE', #227, #727 ) ;
#542 = EDGE_LOOP ( 'NONE', ( #1054, #135, #606, #637 ) ) ;
#543 = FACE_OUTER_BOUND ( 'NONE', #933, .T. ) ;
#544 = AXIS2_PLACEMENT_3D ( 'NONE', #807, #17, #1273 ) ;
#545 = EDGE_CURVE ( 'NONE', #876, #1132, #936, .T. ) ;
#546 = ORIENTED_EDGE ( 'NONE', *, *, #1137, .F. ) ;
#547 = CIRCLE ( 'NONE', #1269, 3.736600000000000144 ) ;
#548 = CIRCLE ( 'NONE', #758, 3.736599999999999699 ) ;
#549 = DIRECTION ( 'NONE',  ( 0.000000000000000000, 0.000000000000000000, 1.000000000000000000 ) ) ;
#550 = VERTEX_POINT ( 'NONE', #698 ) ;
#551 = DIRECTION ( 'NONE',  ( -0.000000000000000000, -1.000000000000000000, -0.000000000000000000 ) ) ;
#552 = FACE_OUTER_BOUND ( 'NONE', #542, .T. ) ;
#553 = VERTEX_POINT ( 'NONE', #904 ) ;
#554 = EDGE_CURVE ( 'NONE', #1073, #1170, #603, .T. ) ;
#555 = ADVANCED_FACE ( 'NONE', ( #592 ), #1090, .T. ) ;
#556 = DIRECTION ( 'NONE',  ( 0.000000000000000000, 0.000000000000000000, -1.000000000000000000 ) ) ;
#557 = ORIENTED_EDGE ( 'NONE', *, *, #48, .F. ) ;
#558 = CARTESIAN_POINT ( 'NONE',  ( 18.73659999999999926, 12.00000000000000000, -3.736600000000001476 ) ) ;
#559 = CIRCLE ( 'NONE', #65, 2.999999999999999112 ) ;
#560 = DIRECTION ( 'NONE',  ( 3.971015842332217249E-18, -0.000000000000000000, -1.000000000000000000 ) ) ;
#561 = ORIENTED_EDGE ( 'NONE', *, *, #445, .F. ) ;
#562 = AXIS2_PLACEMENT_3D ( 'NONE', #71, #469, #394 ) ;
#563 = AXIS2_PLACEMENT_3D ( 'NONE', #150, #1126, #1226 ) ;
#564 = AXIS2_PLACEMENT_3D ( 'NONE', #72, #458, #1247 ) ;
#565 = DIRECTION ( 'NONE',  ( 0.000000000000000000, 1.000000000000000000, 0.000000000000000000 ) ) ;
#566 = EDGE_CURVE ( 'NONE', #1056, #624, #602, .T. ) ;
#567 = EDGE_CURVE ( 'NONE', #10, #75, #500, .T. ) ;
#568 = ORIENTED_EDGE ( 'NONE', *, *, #1080, .F. ) ;
#569 = CARTESIAN_POINT ( 'NONE',  ( -12.00000000000000000, 3.000000000000000000, 1.301042606982605321E-15 ) ) ;
#570 = CARTESIAN_POINT ( 'NONE',  ( 27.00000000000000000, 3.000000000000000000, -1.734723475976807094E-15 ) ) ;
#571 = ORIENTED_EDGE ( 'NONE', *, *, #139, .T. ) ;
#572 = VECTOR ( 'NONE', #402, 1000.000000000000000 ) ;
#573 = CARTESIAN_POINT ( 'NONE',  ( 0.7366000000000000325, 12.00000000000000000, -12.00000000000000000 ) ) ;
#574 = ORIENTED_EDGE ( 'NONE', *, *, #732, .F. ) ;
#575 = CARTESIAN_POINT ( 'NONE',  ( 0.000000000000000000, 0.000000000000000000, -3.736599999999999699 ) ) ;
#576 = AXIS2_PLACEMENT_3D ( 'NONE', #1185, #405, #912 ) ;
#577 = EDGE_CURVE ( 'NONE', #1073, #1148, #1099, .T. ) ;
#578 = EDGE_CURVE ( 'NONE', #504, #1248, #1001, .T. ) ;
#579 = FACE_OUTER_BOUND ( 'NONE', #400, .T. ) ;
#580 = EDGE_LOOP ( 'NONE', ( #1201, #596, #1255, #571 ) ) ;
#581 = CARTESIAN_POINT ( 'NONE',  ( -15.00000000000000000, 12.00000000000000000, -2.999999999999998224 ) ) ;
#582 = EDGE_LOOP ( 'NONE', ( #658, #1037, #252, #865 ) ) ;
#583 = CARTESIAN_POINT ( 'NONE',  ( 15.00000000000000000, 0.000000000000000000, -3.736600000000001476 ) ) ;
#584 = DIRECTION ( 'NONE',  ( -0.000000000000000000, 1.000000000000000000, -0.000000000000000000 ) ) ;
#585 = AXIS2_PLACEMENT_3D ( 'NONE', #778, #565, #1169 ) ;
#586 = DIRECTION ( 'NONE',  ( -0.000000000000000000, -1.000000000000000000, -0.000000000000000000 ) ) ;
#587 = DIRECTION ( 'NONE',  ( 0.000000000000000000, 0.000000000000000000, 1.000000000000000000 ) ) ;
#588 = CARTESIAN_POINT ( 'NONE',  ( 0.000000000000000000, 12.00000000000000000, 0.000000000000000000 ) ) ;
#589 = LINE ( 'NONE', #977, #39 ) ;
#590 = EDGE_CURVE ( 'NONE', #948, #836, #769, .T. ) ;
#591 = EDGE_LOOP ( 'NONE', ( #568, #913, #731, #59 ) ) ;
#592 = FACE_OUTER_BOUND ( 'NONE', #537, .T. ) ;
#593 = CARTESIAN_POINT ( 'NONE',  ( 18.73659999999999926, 0.000000000000000000, -3.000000000000001332 ) ) ;
#594 = CARTESIAN_POINT ( 'NONE',  ( -3.736600000000000144, 12.00000000000000000, -3.736599999999999699 ) ) ;
#595 = VECTOR ( 'NONE', #430, 1000.000000000000000 ) ;
#596 = ORIENTED_EDGE ( 'NONE', *, *, #846, .T. ) ;
#597 = DIRECTION ( 'NONE',  ( 1.224646799147353207E-16, -0.000000000000000000, 1.000000000000000000 ) ) ;
#598 = EDGE_CURVE ( 'NONE', #1056, #943, #1207, .T. ) ;
#599 = DIRECTION ( 'NONE',  ( 1.000000000000000000, 0.000000000000000000, 0.000000000000000000 ) ) ;
#600 = DIRECTION ( 'NONE',  ( 0.000000000000000000, -0.000000000000000000, 1.000000000000000000 ) ) ;
#601 = ORIENTED_EDGE ( 'NONE', *, *, #840, .T. ) ;
#602 = LINE ( 'NONE', #705, #1200 ) ;
#603 = CIRCLE ( 'NONE', #269, 2.999999999999999112 ) ;
#604 = CARTESIAN_POINT ( 'NONE',  ( -3.673940397442059868E-16, 0.000000000000000000, -3.000000000000000000 ) ) ;
#605 = CARTESIAN_POINT ( 'NONE',  ( 14.26339999999999897, 12.00000000000000000, -12.00000000000000000 ) ) ;
#606 = ORIENTED_EDGE ( 'NONE', *, *, #765, .F. ) ;
#607 = CARTESIAN_POINT ( 'NONE',  ( 27.00000000000000000, 12.00000000000000000, -3.736599999999999699 ) ) ;
#608 = FACE_OUTER_BOUND ( 'NONE', #1127, .T. ) ;
#609 = FILL_AREA_STYLE ('',( #1102 ) ) ;
#610 = PLANE ( 'NONE',  #1271 ) ;
#611 = EDGE_CURVE ( 'NONE', #236, #635, #828, .T. ) ;
#612 = ORIENTED_EDGE ( 'NONE', *, *, #329, .T. ) ;
#613 = DIRECTION ( 'NONE',  ( -1.000000000000000000, 0.000000000000000000, -3.971015842332216479E-18 ) ) ;
#614 = CARTESIAN_POINT ( 'NONE',  ( -11.74999999999998046, 6.000000000000000000, 1.727774198252725655E-15 ) ) ;
#615 =( NAMED_UNIT ( * ) SI_UNIT ( $, .STERADIAN. ) SOLID_ANGLE_UNIT ( ) );
#616 = DIRECTION ( 'NONE',  ( 0.000000000000000000, 0.000000000000000000, 1.000000000000000000 ) ) ;
#617 = EDGE_CURVE ( 'NONE', #1170, #1005, #432, .T. ) ;
#618 = ADVANCED_FACE ( 'NONE', ( #850 ), #1045, .T. ) ;
#619 = ORIENTED_EDGE ( 'NONE', *, *, #22, .F. ) ;
#620 = LINE ( 'NONE', #858, #9 ) ;
#621 = LINE ( 'NONE', #51, #772 ) ;
#622 = ORIENTED_EDGE ( 'NONE', *, *, #987, .T. ) ;
#623 = FACE_OUTER_BOUND ( 'NONE', #757, .T. ) ;
#624 = VERTEX_POINT ( 'NONE', #1026 ) ;
#625 = CARTESIAN_POINT ( 'NONE',  ( 26.75000000000001066, 6.000000000000000000, 1.741672753700888533E-15 ) ) ;
#626 = ADVANCED_FACE ( 'NONE', ( #30 ), #131, .T. ) ;
#627 = EDGE_CURVE ( 'NONE', #876, #703, #36, .T. ) ;
#628 = FACE_OUTER_BOUND ( 'NONE', #718, .T. ) ;
#629 = EDGE_LOOP ( 'NONE', ( #277, #767, #927, #815 ) ) ;
#630 = CARTESIAN_POINT ( 'NONE',  ( 0.7366000000000000325, 12.00000000000000000, -11.26339999999999897 ) ) ;
#631 = EDGE_LOOP ( 'NONE', ( #970, #774, #1168, #257 ) ) ;
#632 = DIRECTION ( 'NONE',  ( 0.000000000000000000, 1.000000000000000000, 0.000000000000000000 ) ) ;
#633 = PLANE ( 'NONE',  #994 ) ;
#634 = EDGE_CURVE ( 'NONE', #419, #951, #1006, .T. ) ;
#635 = VERTEX_POINT ( 'NONE', #332 ) ;
#636 = LINE ( 'NONE', #62, #367 ) ;
#637 = ORIENTED_EDGE ( 'NONE', *, *, #812, .F. ) ;
#638 = FACE_OUTER_BOUND ( 'NONE', #696, .T. ) ;
#639 =( GEOMETRIC_REPRESENTATION_CONTEXT ( 3 ) GLOBAL_UNCERTAINTY_ASSIGNED_CONTEXT ( ( #21 ) ) GLOBAL_UNIT_ASSIGNED_CONTEXT ( ( #982, #1107, #615 ) ) REPRESENTATION_CONTEXT ( 'NONE', 'WORKASPACE' ) );
#640 = VECTOR ( 'NONE', #1149, 1000.000000000000000 ) ;
#641 = EDGE_CURVE ( 'NONE', #859, #1059, #226, .T. ) ;
#642 = ORIENTED_EDGE ( 'NONE', *, *, #445, .T. ) ;
#643 = CARTESIAN_POINT ( 'NONE',  ( 27.00000000000000000, 9.000000000000001776, -3.000000000000001776 ) ) ;
#644 = VECTOR ( 'NONE', #237, 1000.000000000000000 ) ;
#645 = ORIENTED_EDGE ( 'NONE', *, *, #23, .F. ) ;
#646 = DIRECTION ( 'NONE',  ( 0.000000000000000000, 0.000000000000000000, -1.000000000000000000 ) ) ;
#647 = ORIENTED_EDGE ( 'NONE', *, *, #797, .F. ) ;
#648 = LINE ( 'NONE', #1121, #886 ) ;
#649 = ORIENTED_EDGE ( 'NONE', *, *, #901, .T. ) ;
#650 = ORIENTED_EDGE ( 'NONE', *, *, #1154, .F. ) ;
#651 = CARTESIAN_POINT ( 'NONE',  ( -12.00000000000000000, 9.000000000000001776, -2.999999999999998668 ) ) ;
#652 = AXIS2_PLACEMENT_3D ( 'NONE', #695, #1114, #1004 ) ;
#653 = VERTEX_POINT ( 'NONE', #511 ) ;
#654 = CARTESIAN_POINT ( 'NONE',  ( 15.00000000000000000, 12.00000000000000000, -11.26339999999999897 ) ) ;
#655 = CARTESIAN_POINT ( 'NONE',  ( -9.999999999999994671, 6.000000000000000000, 1.734723475976807094E-15 ) ) ;
#656 = ORIENTED_EDGE ( 'NONE', *, *, #377, .F. ) ;
#657 = ADVANCED_FACE ( 'NONE', ( #1117 ), #756, .T. ) ;
#658 = ORIENTED_EDGE ( 'NONE', *, *, #1081, .F. ) ;
#659 = CARTESIAN_POINT ( 'NONE',  ( -3.000000000000000000, 0.000000000000000000, -3.736599999999999699 ) ) ;
#660 = VERTEX_POINT ( 'NONE', #1144 ) ;
#661 = DIRECTION ( 'NONE',  ( -1.000000000000000000, 0.000000000000000000, 0.000000000000000000 ) ) ;
#662 = CARTESIAN_POINT ( 'NONE',  ( 23.25000000000000711, 6.000000000000000000, -3.000000000000001776 ) ) ;
#663 = ORIENTED_EDGE ( 'NONE', *, *, #54, .T. ) ;
#664 = PLANE ( 'NONE',  #1254 ) ;
#665 = EDGE_CURVE ( 'NONE', #553, #1120, #620, .T. ) ;
#666 = ADVANCED_FACE ( 'NONE', ( #125 ), #1221, .T. ) ;
#667 = ORIENTED_EDGE ( 'NONE', *, *, #85, .F. ) ;
#668 = DIRECTION ( 'NONE',  ( -0.000000000000000000, -1.000000000000000000, -0.000000000000000000 ) ) ;
#669 = PLANE ( 'NONE',  #454 ) ;
#670 = ORIENTED_EDGE ( 'NONE', *, *, #78, .T. ) ;
#671 = FACE_OUTER_BOUND ( 'NONE', #771, .T. ) ;
#672 = AXIS2_PLACEMENT_3D ( 'NONE', #917, #422, #818 ) ;
#673 = ORIENTED_EDGE ( 'NONE', *, *, #1115, .T. ) ;
#674 = CARTESIAN_POINT ( 'NONE',  ( 23.25000000000000711, 6.000000000000000000, 1.727774198252725655E-15 ) ) ;
#675 = CARTESIAN_POINT ( 'NONE',  ( 0.7366000000000002546, 0.000000000000000000, -15.00000000000000000 ) ) ;
#676 = CARTESIAN_POINT ( 'NONE',  ( 0.000000000000000000, 12.00000000000000000, 0.000000000000000000 ) ) ;
#677 = ORIENTED_EDGE ( 'NONE', *, *, #164, .F. ) ;
#678 = DIRECTION ( 'NONE',  ( 0.000000000000000000, 0.000000000000000000, 1.000000000000000000 ) ) ;
#679 = ADVANCED_FACE ( 'NONE', ( #260 ), #915, .F. ) ;
#680 = DIRECTION ( 'NONE',  ( 3.971015842332217249E-18, -0.000000000000000000, -1.000000000000000000 ) ) ;
#681 = EDGE_CURVE ( 'NONE', #861, #852, #851, .T. ) ;
#682 = ORIENTED_EDGE ( 'NONE', *, *, #804, .T. ) ;
#683 = AXIS2_PLACEMENT_3D ( 'NONE', #251, #823, #446 ) ;
#684 = DIRECTION ( 'NONE',  ( 0.000000000000000000, 1.000000000000000000, 0.000000000000000000 ) ) ;
#685 = AXIS2_PLACEMENT_3D ( 'NONE', #1013, #339, #734 ) ;
#686 = CARTESIAN_POINT ( 'NONE',  ( 15.00000000000000000, 0.000000000000000000, -11.26339999999999897 ) ) ;
#687 = FACE_BOUND ( 'NONE', #1110, .T. ) ;
#688 = ADVANCED_FACE ( 'NONE', ( #552 ), #950, .T. ) ;
#689 = ORIENTED_EDGE ( 'NONE', *, *, #840, .F. ) ;
#690 = CARTESIAN_POINT ( 'NONE',  ( -15.00000000000000000, 12.00000000000000000, 1.836970198721029589E-15 ) ) ;
#691 = VECTOR ( 'NONE', #1075, 1000.000000000000000 ) ;
#692 = AXIS2_PLACEMENT_3D ( 'NONE', #905, #1203, #981 ) ;
#693 = FACE_OUTER_BOUND ( 'NONE', #474, .T. ) ;
#694 = DIRECTION ( 'NONE',  ( 1.000000000000000000, 0.000000000000000000, 0.000000000000000000 ) ) ;
#695 = CARTESIAN_POINT ( 'NONE',  ( 18.00000000000000000, 12.00000000000000000, -11.26339999999999897 ) ) ;
#696 = EDGE_LOOP ( 'NONE', ( #1025, #61, #157, #824 ) ) ;
#697 = ADVANCED_FACE ( 'NONE', ( #710 ), #1105, .T. ) ;
#698 = CARTESIAN_POINT ( 'NONE',  ( 18.00000000000000000, 0.000000000000000000, -11.26339999999999897 ) ) ;
#699 = CARTESIAN_POINT ( 'NONE',  ( 15.00000000000000000, 0.000000000000000000, -3.000000000000001776 ) ) ;
#700 = DIRECTION ( 'NONE',  ( 0.000000000000000000, -1.000000000000000000, -0.000000000000000000 ) ) ;
#701 = VECTOR ( 'NONE', #969, 1000.000000000000000 ) ;
#702 = DIRECTION ( 'NONE',  ( 0.000000000000000000, 0.000000000000000000, 1.000000000000000000 ) ) ;
#703 = VERTEX_POINT ( 'NONE', #675 ) ;
#704 = AXIS2_PLACEMENT_3D ( 'NONE', #651, #753, #460 ) ;
#705 = CARTESIAN_POINT ( 'NONE',  ( 15.00000000000000000, 12.00000000000000000, -3.736600000000001476 ) ) ;
#706 = VECTOR ( 'NONE', #880, 1000.000000000000000 ) ;
#707 = CARTESIAN_POINT ( 'NONE',  ( -3.736600000000000144, 12.00000000000000000, -3.736599999999999699 ) ) ;
#708 = LINE ( 'NONE', #314, #925 ) ;
#709 = EDGE_LOOP ( 'NONE', ( #975, #1140, #1157, #761 ) ) ;
#710 = FACE_OUTER_BOUND ( 'NONE', #180, .T. ) ;
#711 = CARTESIAN_POINT ( 'NONE',  ( 14.26339999999999897, 12.00000000000000000, -11.26339999999999897 ) ) ;
#712 = AXIS2_PLACEMENT_3D ( 'NONE', #490, #1084, #507 ) ;
#713 = PLANE ( 'NONE',  #789 ) ;
#714 = EDGE_CURVE ( 'NONE', #1220, #114, #231, .T. ) ;
#715 = FACE_OUTER_BOUND ( 'NONE', #629, .T. ) ;
#716 = VECTOR ( 'NONE', #374, 1000.000000000000000 ) ;
#717 = UNCERTAINTY_MEASURE_WITH_UNIT (LENGTH_MEASURE( 1.000000000000000082E-05 ), #1268, 'distance_accuracy_value', 'NONE');
#718 = EDGE_LOOP ( 'NONE', ( #262, #70, #151, #203 ) ) ;
#719 = CARTESIAN_POINT ( 'NONE',  ( 30.00000000000000000, 12.00000000000000000, -3.000000000000001776 ) ) ;
#720 = LINE ( 'NONE', #536, #1014 ) ;
#721 = ORIENTED_EDGE ( 'NONE', *, *, #566, .T. ) ;
#722 = FACE_OUTER_BOUND ( 'NONE', #820, .T. ) ;
#723 = ADVANCED_FACE ( 'NONE', ( #579 ), #669, .T. ) ;
#724 = ORIENTED_EDGE ( 'NONE', *, *, #480, .T. ) ;
#725 = DIRECTION ( 'NONE',  ( -0.000000000000000000, -1.000000000000000000, -0.000000000000000000 ) ) ;
#726 = DIRECTION ( 'NONE',  ( -0.000000000000000000, -1.000000000000000000, -0.000000000000000000 ) ) ;
#727 = VECTOR ( 'NONE', #726, 1000.000000000000000 ) ;
#728 = ORIENTED_EDGE ( 'NONE', *, *, #786, .F. ) ;
#729 = CARTESIAN_POINT ( 'NONE',  ( -3.736600000000000144, 12.00000000000000000, -3.736599999999999699 ) ) ;
#730 = AXIS2_PLACEMENT_3D ( 'NONE', #1123, #632, #161 ) ;
#731 = ORIENTED_EDGE ( 'NONE', *, *, #1194, .T. ) ;
#732 = EDGE_CURVE ( 'NONE', #1078, #1142, #101, .T. ) ;
#733 = EDGE_CURVE ( 'NONE', #247, #424, #1166, .T. ) ;
#734 = DIRECTION ( 'NONE',  ( 0.000000000000000000, 0.000000000000000000, -1.000000000000000000 ) ) ;
#735 = CARTESIAN_POINT ( 'NONE',  ( -3.000000000000000000, 12.00000000000000000, -3.736599999999999699 ) ) ;
#736 = ORIENTED_EDGE ( 'NONE', *, *, #68, .F. ) ;
#737 = FACE_OUTER_BOUND ( 'NONE', #378, .T. ) ;
#738 = EDGE_LOOP ( 'NONE', ( #742, #1242, #268, #169 ) ) ;
#739 = PRODUCT_RELATED_PRODUCT_CATEGORY ( 'part', '', ( #117 ) ) ;
#740 = ADVANCED_FACE ( 'NONE', ( #190 ), #1069, .T. ) ;
#741 = CYLINDRICAL_SURFACE ( 'NONE', #683, 2.999999999999999112 ) ;
#742 = ORIENTED_EDGE ( 'NONE', *, *, #577, .T. ) ;
#743 = CARTESIAN_POINT ( 'NONE',  ( 15.00000000000000000, 12.00000000000000000, -3.736600000000001476 ) ) ;
#744 = ORIENTED_EDGE ( 'NONE', *, *, #617, .F. ) ;
#745 = LINE ( 'NONE', #513, #250 ) ;
#746 = VECTOR ( 'NONE', #104, 1000.000000000000000 ) ;
#747 = ORIENTED_EDGE ( 'NONE', *, *, #908, .F. ) ;
#748 = CIRCLE ( 'NONE', #935, 1.750000000000001554 ) ;
#749 = EDGE_CURVE ( 'NONE', #653, #550, #84, .T. ) ;
#750 = LINE ( 'NONE', #258, #1251 ) ;
#751 = CIRCLE ( 'NONE', #173, 2.999999999999999112 ) ;
#752 = ORIENTED_EDGE ( 'NONE', *, *, #1239, .T. ) ;
#753 = DIRECTION ( 'NONE',  ( -1.224646799147353207E-16, 0.000000000000000000, -1.000000000000000000 ) ) ;
#754 = CARTESIAN_POINT ( 'NONE',  ( 18.73659999999999926, 12.00000000000000000, -3.000000000000001332 ) ) ;
#755 = CARTESIAN_POINT ( 'NONE',  ( -12.00000000000000000, 12.00000000000000000, -3.736599999999999699 ) ) ;
#756 = PLANE ( 'NONE',  #1071 ) ;
#757 = EDGE_LOOP ( 'NONE', ( #129, #35, #254, #1218 ) ) ;
#758 = AXIS2_PLACEMENT_3D ( 'NONE', #1, #1160, #276 ) ;
#759 = CARTESIAN_POINT ( 'NONE',  ( 18.00000000000000000, 0.000000000000000000, -3.736600000000001476 ) ) ;
#760 = VECTOR ( 'NONE', #808, 1000.000000000000000 ) ;
#761 = ORIENTED_EDGE ( 'NONE', *, *, #966, .T. ) ;
#762 = DIRECTION ( 'NONE',  ( 0.000000000000000000, 0.000000000000000000, -1.000000000000000000 ) ) ;
#763 = DIRECTION ( 'NONE',  ( -0.000000000000000000, -1.000000000000000000, -0.000000000000000000 ) ) ;
#764 = VERTEX_POINT ( 'NONE', #662 ) ;
#765 = EDGE_CURVE ( 'NONE', #80, #1148, #751, .T. ) ;
#766 = DIRECTION ( 'NONE',  ( 0.000000000000000000, -1.000000000000000000, -0.000000000000000000 ) ) ;
#767 = ORIENTED_EDGE ( 'NONE', *, *, #1194, .F. ) ;
#768 = PLANE ( 'NONE',  #1230 ) ;
#769 = CIRCLE ( 'NONE', #871, 1.749999999999986011 ) ;
#770 = LINE ( 'NONE', #486, #1041 ) ;
#771 = EDGE_LOOP ( 'NONE', ( #52, #230, #540, #1028 ) ) ;
#772 = VECTOR ( 'NONE', #1015, 1000.000000000000000 ) ;
#773 = CARTESIAN_POINT ( 'NONE',  ( 0.000000000000000000, 0.000000000000000000, -12.00000000000000000 ) ) ;
#774 = ORIENTED_EDGE ( 'NONE', *, *, #611, .T. ) ;
#775 = CARTESIAN_POINT ( 'NONE',  ( 0.000000000000000000, 0.000000000000000000, -3.736599999999999699 ) ) ;
#776 =( NAMED_UNIT ( * ) PLANE_ANGLE_UNIT ( ) SI_UNIT ( $, .RADIAN. ) );
#777 = VECTOR ( 'NONE', #1184, 1000.000000000000000 ) ;
#778 = CARTESIAN_POINT ( 'NONE',  ( -3.736599999999999699, 12.00000000000000000, 4.576015229693999500E-16 ) ) ;
#779 = CARTESIAN_POINT ( 'NONE',  ( 18.00000000000000000, 12.00000000000000000, -12.00000000000000000 ) ) ;
#780 = CARTESIAN_POINT ( 'NONE',  ( -15.00000000000000000, 12.00000000000000000, 1.836970198721029589E-15 ) ) ;
#781 = MANIFOLD_SOLID_BREP ( 'Fillet1', #386 ) ;
#782 = CARTESIAN_POINT ( 'NONE',  ( -8.250000000000008882, 6.000000000000000000, 1.741672753700888533E-15 ) ) ;
#783 = CARTESIAN_POINT ( 'NONE',  ( -9.999999999999994671, 6.000000000000000000, 1.734723475976807094E-15 ) ) ;
#784 = CARTESIAN_POINT ( 'NONE',  ( -3.736599999999999699, 12.00000000000000000, 4.576015229693999500E-16 ) ) ;
#785 = PLANE ( 'NONE',  #417 ) ;
#786 = EDGE_CURVE ( 'NONE', #468, #948, #893, .T. ) ;
#787 = EDGE_CURVE ( 'NONE', #86, #859, #197, .T. ) ;
#788 = DIRECTION ( 'NONE',  ( 0.000000000000000000, 0.000000000000000000, -1.000000000000000000 ) ) ;
#789 = AXIS2_PLACEMENT_3D ( 'NONE', #403, #1190, #1085 ) ;
#790 = AXIS2_PLACEMENT_3D ( 'NONE', #558, #965, #286 ) ;
#791 = ORIENTED_EDGE ( 'NONE', *, *, #611, .F. ) ;
#792 = CIRCLE ( 'NONE', #67, 1.750000000000001554 ) ;
#793 = CARTESIAN_POINT ( 'NONE',  ( 14.26339999999999897, 12.00000000000000000, -12.00000000000000000 ) ) ;
#794 = AXIS2_PLACEMENT_3D ( 'NONE', #594, #1172, #267 ) ;
#795 = LINE ( 'NONE', #699, #691 ) ;
#796 = DIRECTION ( 'NONE',  ( 3.971015842332216479E-18, 0.000000000000000000, -1.000000000000000000 ) ) ;
#797 = EDGE_CURVE ( 'NONE', #624, #653, #589, .T. ) ;
#798 = VERTEX_POINT ( 'NONE', #961 ) ;
#799 = DIRECTION ( 'NONE',  ( -3.971015842332216479E-18, 0.000000000000000000, 1.000000000000000000 ) ) ;
#800 = DIRECTION ( 'NONE',  ( -9.285037071010047285E-16, 0.000000000000000000, 1.000000000000000000 ) ) ;
#801 = DIRECTION ( 'NONE',  ( 3.971015842332216479E-18, -0.000000000000000000, -1.000000000000000000 ) ) ;
#802 = CYLINDRICAL_SURFACE ( 'NONE', #389, 3.736599999999999699 ) ;
#803 = ORIENTED_EDGE ( 'NONE', *, *, #1131, .T. ) ;
#804 = EDGE_CURVE ( 'NONE', #1120, #1005, #770, .T. ) ;
#805 = EDGE_CURVE ( 'NONE', #550, #228, #548, .T. ) ;
#806 = CARTESIAN_POINT ( 'NONE',  ( 14.26339999999999897, 12.00000000000000000, -12.00000000000000000 ) ) ;
#807 = CARTESIAN_POINT ( 'NONE',  ( 18.73659999999999926, 12.00000000000000000, -3.736600000000001476 ) ) ;
#808 = DIRECTION ( 'NONE',  ( 0.000000000000000000, 0.000000000000000000, -1.000000000000000000 ) ) ;
#809 = ORIENTED_EDGE ( 'NONE', *, *, #922, .T. ) ;
#810 = AXIS2_PLACEMENT_3D ( 'NONE', #362, #1042, #1162 ) ;
#811 = DIRECTION ( 'NONE',  ( 1.000000000000000000, 0.000000000000000000, 0.000000000000000000 ) ) ;
#812 = EDGE_CURVE ( 'NONE', #124, #80, #708, .T. ) ;
#813 = CARTESIAN_POINT ( 'NONE',  ( -12.00000000000000000, 0.000000000000000000, 1.469576158976823947E-15 ) ) ;
#814 = LINE ( 'NONE', #907, #760 ) ;
#815 = ORIENTED_EDGE ( 'NONE', *, *, #85, .T. ) ;
#816 = CARTESIAN_POINT ( 'NONE',  ( -9.999999999999994671, 6.000000000000000000, -2.999999999999998668 ) ) ;
#817 = CARTESIAN_POINT ( 'NONE',  ( -15.00000000000000000, 9.000000000000001776, -2.999999999999998224 ) ) ;
#818 = DIRECTION ( 'NONE',  ( 1.000000000000000000, 0.000000000000000000, 0.000000000000000000 ) ) ;
#819 = DIRECTION ( 'NONE',  ( 3.971015842332217249E-18, -0.000000000000000000, -1.000000000000000000 ) ) ;
#820 = EDGE_LOOP ( 'NONE', ( #287, #1129, #346, #649 ) ) ;
#821 = CARTESIAN_POINT ( 'NONE',  ( 0.7366000000000002546, 12.00000000000000000, -15.00000000000000000 ) ) ;
#822 = AXIS2_PLACEMENT_3D ( 'NONE', #643, #837, #1228 ) ;
#823 = DIRECTION ( 'NONE',  ( 0.000000000000000000, 0.000000000000000000, -1.000000000000000000 ) ) ;
#824 = ORIENTED_EDGE ( 'NONE', *, *, #634, .T. ) ;
#825 = DIRECTION ( 'NONE',  ( 1.000000000000000000, 0.000000000000000000, 0.000000000000000000 ) ) ;
#826 = EDGE_CURVE ( 'NONE', #10, #852, #498, .T. ) ;
#827 = VERTEX_POINT ( 'NONE', #1096 ) ;
#828 = LINE ( 'NONE', #625, #92 ) ;
#829 = VECTOR ( 'NONE', #452, 1000.000000000000000 ) ;
#830 = DIRECTION ( 'NONE',  ( 1.000000000000000000, 0.000000000000000000, 3.971015842332216479E-18 ) ) ;
#831 = VECTOR ( 'NONE', #81, 1000.000000000000000 ) ;
#832 = ORIENTED_EDGE ( 'NONE', *, *, #301, .T. ) ;
#833 = DIRECTION ( 'NONE',  ( -0.000000000000000000, -0.000000000000000000, 1.000000000000000000 ) ) ;
#834 = ORIENTED_EDGE ( 'NONE', *, *, #78, .F. ) ;
#835 = PLANE ( 'NONE',  #128 ) ;
#836 = VERTEX_POINT ( 'NONE', #509 ) ;
#837 = DIRECTION ( 'NONE',  ( 0.000000000000000000, 0.000000000000000000, 1.000000000000000000 ) ) ;
#838 = ORIENTED_EDGE ( 'NONE', *, *, #847, .T. ) ;
#839 = EDGE_CURVE ( 'NONE', #1062, #236, #204, .T. ) ;
#840 = EDGE_CURVE ( 'NONE', #43, #653, #366, .T. ) ;
#841 = FACE_BOUND ( 'NONE', #493, .T. ) ;
#842 = EDGE_LOOP ( 'NONE', ( #322, #444, #1122, #923 ) ) ;
#843 = DIRECTION ( 'NONE',  ( 0.000000000000000000, 0.000000000000000000, 1.000000000000000000 ) ) ;
#844 = ORIENTED_EDGE ( 'NONE', *, *, #344, .T. ) ;
#845 = CARTESIAN_POINT ( 'NONE',  ( 18.00000000000000000, 12.00000000000000000, -12.00000000000000000 ) ) ;
#846 = EDGE_CURVE ( 'NONE', #133, #827, #411, .T. ) ;
#847 = EDGE_CURVE ( 'NONE', #943, #525, #7, .T. ) ;
#848 = ORIENTED_EDGE ( 'NONE', *, *, #97, .T. ) ;
#849 = CARTESIAN_POINT ( 'NONE',  ( 18.73659999999999926, 0.000000000000000000, -3.736600000000001476 ) ) ;
#850 = FACE_OUTER_BOUND ( 'NONE', #738, .T. ) ;
#851 = CIRCLE ( 'NONE', #730, 3.736599999999999699 ) ;
#852 = VERTEX_POINT ( 'NONE', #220 ) ;
#853 = CARTESIAN_POINT ( 'NONE',  ( 18.00000000000000000, 12.00000000000000000, -11.26339999999999897 ) ) ;
#854 = EDGE_LOOP ( 'NONE', ( #372, #431, #429, #868 ) ) ;
#855 = FACE_OUTER_BOUND ( 'NONE', #1113, .T. ) ;
#856 = ADVANCED_FACE ( 'NONE', ( #715 ), #610, .T. ) ;
#857 = ADVANCED_FACE ( 'NONE', ( #123 ), #900, .T. ) ;
#858 = CARTESIAN_POINT ( 'NONE',  ( 15.00000000000000000, 12.00000000000000000, -3.000000000000001776 ) ) ;
#859 = VERTEX_POINT ( 'NONE', #524 ) ;
#860 = LINE ( 'NONE', #1250, #147 ) ;
#861 = VERTEX_POINT ( 'NONE', #398 ) ;
#862 = LINE ( 'NONE', #275, #1064 ) ;
#863 = SURFACE_STYLE_FILL_AREA ( #1262 ) ;
#864 = EDGE_CURVE ( 'NONE', #525, #75, #160, .T. ) ;
#865 = ORIENTED_EDGE ( 'NONE', *, *, #545, .T. ) ;
#866 = ORIENTED_EDGE ( 'NONE', *, *, #864, .F. ) ;
#867 = LINE ( 'NONE', #581, #1199 ) ;
#868 = ORIENTED_EDGE ( 'NONE', *, *, #681, .T. ) ;
#869 = DIRECTION ( 'NONE',  ( -3.971015842332216479E-18, 0.000000000000000000, 1.000000000000000000 ) ) ;
#870 = VECTOR ( 'NONE', #963, 1000.000000000000000 ) ;
#871 = AXIS2_PLACEMENT_3D ( 'NONE', #816, #63, #425 ) ;
#872 = DIRECTION ( 'NONE',  ( 0.000000000000000000, 0.000000000000000000, -1.000000000000000000 ) ) ;
#873 = ORIENTED_EDGE ( 'NONE', *, *, #1131, .F. ) ;
#874 = AXIS2_PLACEMENT_3D ( 'NONE', #1002, #121, #910 ) ;
#875 = ADVANCED_FACE ( 'NONE', ( #722 ), #418, .T. ) ;
#876 = VERTEX_POINT ( 'NONE', #118 ) ;
#877 = CARTESIAN_POINT ( 'NONE',  ( 0.7366000000000000325, 0.000000000000000000, -12.00000000000000000 ) ) ;
#878 = ORIENTED_EDGE ( 'NONE', *, *, #319, .F. ) ;
#879 = DIRECTION ( 'NONE',  ( 1.224646799147353207E-16, -0.000000000000000000, 1.000000000000000000 ) ) ;
#880 = DIRECTION ( 'NONE',  ( -1.000000000000000000, 0.000000000000000000, -0.000000000000000000 ) ) ;
#881 = EDGE_CURVE ( 'NONE', #242, #265, #814, .T. ) ;
#882 = VECTOR ( 'NONE', #320, 1000.000000000000000 ) ;
#883 = CARTESIAN_POINT ( 'NONE',  ( -3.000000000000000000, 12.00000000000000000, -3.736599999999999699 ) ) ;
#884 = DIRECTION ( 'NONE',  ( 1.000000000000000000, 0.000000000000000000, 0.000000000000000000 ) ) ;
#885 = AXIS2_PLACEMENT_3D ( 'NONE', #423, #819, #1192 ) ;
#886 = VECTOR ( 'NONE', #1240, 1000.000000000000000 ) ;
#887 = DIRECTION ( 'NONE',  ( 0.000000000000000000, 0.000000000000000000, 1.000000000000000000 ) ) ;
#888 = ORIENTED_EDGE ( 'NONE', *, *, #23, .T. ) ;
#889 = FACE_OUTER_BOUND ( 'NONE', #854, .T. ) ;
#890 = DIRECTION ( 'NONE',  ( 1.445602896647339163E-16, 0.000000000000000000, 1.000000000000000000 ) ) ;
#891 = ADVANCED_FACE ( 'NONE', ( #1198 ), #802, .T. ) ;
#892 = ADVANCED_FACE ( 'NONE', ( #224 ), #208, .T. ) ;
#893 = LINE ( 'NONE', #782, #1147 ) ;
#894 = ORIENTED_EDGE ( 'NONE', *, *, #590, .F. ) ;
#895 = AXIS2_PLACEMENT_3D ( 'NONE', #455, #449, #74 ) ;
#896 = CARTESIAN_POINT ( 'NONE',  ( 18.00000000000000000, 0.000000000000000000, -3.736600000000001476 ) ) ;
#897 = DIRECTION ( 'NONE',  ( 0.000000000000000000, 0.000000000000000000, -1.000000000000000000 ) ) ;
#898 = DIRECTION ( 'NONE',  ( 0.000000000000000000, 0.000000000000000000, 1.000000000000000000 ) ) ;
#899 = ADVANCED_FACE ( 'NONE', ( #991 ), #34, .F. ) ;
#900 = PLANE ( 'NONE',  #1212 ) ;
#901 = EDGE_CURVE ( 'NONE', #876, #1220, #307, .T. ) ;
#902 = ADVANCED_FACE ( 'NONE', ( #623 ), #924, .T. ) ;
#903 = ORIENTED_EDGE ( 'NONE', *, *, #990, .T. ) ;
#904 = CARTESIAN_POINT ( 'NONE',  ( 27.00000000000000000, 12.00000000000000000, -3.000000000000001776 ) ) ;
#905 = CARTESIAN_POINT ( 'NONE',  ( -3.736600000000000144, 0.000000000000000000, -3.736599999999999699 ) ) ;
#906 = LINE ( 'NONE', #18, #1180 ) ;
#907 = CARTESIAN_POINT ( 'NONE',  ( -15.00000000000000000, 9.000000000000001776, 1.836970198721029589E-15 ) ) ;
#908 = EDGE_CURVE ( 'NONE', #487, #133, #241, .T. ) ;
#909 = DIRECTION ( 'NONE',  ( -0.000000000000000000, -1.000000000000000000, -0.000000000000000000 ) ) ;
#910 = DIRECTION ( 'NONE',  ( 0.000000000000000000, 0.000000000000000000, -1.000000000000000000 ) ) ;
#911 =( NAMED_UNIT ( * ) PLANE_ANGLE_UNIT ( ) SI_UNIT ( $, .RADIAN. ) );
#912 = DIRECTION ( 'NONE',  ( 0.000000000000000000, 0.000000000000000000, -1.000000000000000000 ) ) ;
#913 = ORIENTED_EDGE ( 'NONE', *, *, #1048, .F. ) ;
#914 = ADVANCED_FACE ( 'NONE', ( #737 ), #538, .T. ) ;
#915 = CYLINDRICAL_SURFACE ( 'NONE', #1016, 1.749999999999986011 ) ;
#916 = CARTESIAN_POINT ( 'NONE',  ( 0.000000000000000000, 12.00000000000000000, 0.000000000000000000 ) ) ;
#917 = CARTESIAN_POINT ( 'NONE',  ( 0.000000000000000000, 0.000000000000000000, 0.000000000000000000 ) ) ;
#918 = STYLED_ITEM ( 'NONE', ( #479 ), #781 ) ;
#919 = CARTESIAN_POINT ( 'NONE',  ( 15.00000000000000000, 12.00000000000000000, -3.736600000000001476 ) ) ;
#920 = DIRECTION ( 'NONE',  ( 1.000000000000000000, 0.000000000000000000, 0.000000000000000000 ) ) ;
#921 = PLANE ( 'NONE',  #895 ) ;
#922 = EDGE_CURVE ( 'NONE', #943, #10, #1061, .T. ) ;
#923 = ORIENTED_EDGE ( 'NONE', *, *, #77, .T. ) ;
#924 = CYLINDRICAL_SURFACE ( 'NONE', #1086, 3.736599999999999699 ) ;
#925 = VECTOR ( 'NONE', #702, 1000.000000000000000 ) ;
#926 = AXIS2_PLACEMENT_3D ( 'NONE', #253, #1133, #825 ) ;
#927 = ORIENTED_EDGE ( 'NONE', *, *, #804, .F. ) ;
#928 = DIRECTION ( 'NONE',  ( 1.000000000000000000, 0.000000000000000000, 0.000000000000000000 ) ) ;
#929 = CARTESIAN_POINT ( 'NONE',  ( 15.00000000000000000, 12.00000000000000000, -1.896535436356012731E-15 ) ) ;
#930 = ORIENTED_EDGE ( 'NONE', *, *, #532, .F. ) ;
#931 = DIRECTION ( 'NONE',  ( -0.000000000000000000, -1.000000000000000000, -0.000000000000000000 ) ) ;
#932 = AXIS2_PLACEMENT_3D ( 'NONE', #783, #98, #488 ) ;
#933 = EDGE_LOOP ( 'NONE', ( #350, #145, #154, #677 ) ) ;
#934 = STYLED_ITEM ( 'NONE', ( #416 ), #278 ) ;
#935 = AXIS2_PLACEMENT_3D ( 'NONE', #1171, #869, #884 ) ;
#936 = CIRCLE ( 'NONE', #379, 3.736600000000000144 ) ;
#937 = DIRECTION ( 'NONE',  ( -1.000000000000000000, -0.000000000000000000, -0.000000000000000000 ) ) ;
#938 = ORIENTED_EDGE ( 'NONE', *, *, #1101, .F. ) ;
#939 = CARTESIAN_POINT ( 'NONE',  ( 14.26339999999999897, 12.00000000000000000, -11.26339999999999897 ) ) ;
#940 = ORIENTED_EDGE ( 'NONE', *, *, #787, .T. ) ;
#941 = EDGE_CURVE ( 'NONE', #162, #836, #636, .T. ) ;
#942 = DIRECTION ( 'NONE',  ( -1.000000000000000000, -0.000000000000000000, -0.000000000000000000 ) ) ;
#943 = VERTEX_POINT ( 'NONE', #654 ) ;
#944 = CARTESIAN_POINT ( 'NONE',  ( -3.736600000000000144, 0.000000000000000000, -2.999999999999999556 ) ) ;
#945 = AXIS2_PLACEMENT_3D ( 'NONE', #166, #1244, #599 ) ;
#946 = EDGE_LOOP ( 'NONE', ( #728, #327, #187, #894 ) ) ;
#947 = LINE ( 'NONE', #380, #701 ) ;
#948 = VERTEX_POINT ( 'NONE', #158 ) ;
#949 = DIRECTION ( 'NONE',  ( -0.000000000000000000, 1.000000000000000000, -0.000000000000000000 ) ) ;
#950 = CYLINDRICAL_SURFACE ( 'NONE', #564, 2.999999999999999112 ) ;
#951 = VERTEX_POINT ( 'NONE', #335 ) ;
#952 = DIRECTION ( 'NONE',  ( -0.000000000000000000, -1.000000000000000000, -0.000000000000000000 ) ) ;
#953 = ORIENTED_EDGE ( 'NONE', *, *, #280, .F. ) ;
#954 = LINE ( 'NONE', #971, #353 ) ;
#955 = DIRECTION ( 'NONE',  ( -1.000000000000000000, 0.000000000000000000, -3.971015842332270405E-18 ) ) ;
#956 = AXIS2_PLACEMENT_3D ( 'NONE', #79, #584, #1077 ) ;
#957 = EDGE_LOOP ( 'NONE', ( #360, #174, #447, #838 ) ) ;
#958 = CARTESIAN_POINT ( 'NONE',  ( 30.00000000000000000, 2.999999999999999112, -3.000000000000001776 ) ) ;
#959 = ORIENTED_EDGE ( 'NONE', *, *, #480, .F. ) ;
#960 = DIRECTION ( 'NONE',  ( 3.971015842332217249E-18, -0.000000000000000000, -1.000000000000000000 ) ) ;
#961 = CARTESIAN_POINT ( 'NONE',  ( -12.00000000000000000, 12.00000000000000000, -2.999999999999998668 ) ) ;
#962 = EDGE_LOOP ( 'NONE', ( #1173, #1000, #49, #1223 ) ) ;
#963 = DIRECTION ( 'NONE',  ( -0.000000000000000000, -1.000000000000000000, -0.000000000000000000 ) ) ;
#964 = EDGE_LOOP ( 'NONE', ( #834, #450, #282, #518 ) ) ;
#965 = DIRECTION ( 'NONE',  ( -0.000000000000000000, -1.000000000000000000, -0.000000000000000000 ) ) ;
#966 = EDGE_CURVE ( 'NONE', #247, #859, #528, .T. ) ;
#967 = CARTESIAN_POINT ( 'NONE',  ( 0.000000000000000000, 12.00000000000000000, -3.736599999999999699 ) ) ;
#968 = ORIENTED_EDGE ( 'NONE', *, *, #617, .T. ) ;
#969 = DIRECTION ( 'NONE',  ( -0.000000000000000000, -1.000000000000000000, -0.000000000000000000 ) ) ;
#970 = ORIENTED_EDGE ( 'NONE', *, *, #198, .F. ) ;
#971 = CARTESIAN_POINT ( 'NONE',  ( 0.000000000000000000, 12.00000000000000000, 0.000000000000000000 ) ) ;
#972 = CIRCLE ( 'NONE', #193, 2.999999999999999112 ) ;
#973 = DIRECTION ( 'NONE',  ( -3.971015842332216479E-18, 0.000000000000000000, 1.000000000000000000 ) ) ;
#974 = PLANE ( 'NONE',  #313 ) ;
#975 = ORIENTED_EDGE ( 'NONE', *, *, #787, .F. ) ;
#976 = CARTESIAN_POINT ( 'NONE',  ( 18.73659999999999926, 0.000000000000000000, -1.881697338559554457E-15 ) ) ;
#977 = CARTESIAN_POINT ( 'NONE',  ( 18.00000000000000000, 12.00000000000000000, -3.736600000000001476 ) ) ;
#978 = AXIS2_PLACEMENT_3D ( 'NONE', #707, #1175, #304 ) ;
#979 = ORIENTED_EDGE ( 'NONE', *, *, #393, .T. ) ;
#980 = CARTESIAN_POINT ( 'NONE',  ( -12.00000000000000000, 3.000000000000000000, -3.736599999999999699 ) ) ;
#981 = DIRECTION ( 'NONE',  ( -9.285037071010047285E-16, 0.000000000000000000, 1.000000000000000000 ) ) ;
#982 =( LENGTH_UNIT ( ) NAMED_UNIT ( * ) SI_UNIT ( .MILLI., .METRE. ) );
#983 = VECTOR ( 'NONE', #328, 1000.000000000000000 ) ;
#984 =( NAMED_UNIT ( * ) SI_UNIT ( $, .STERADIAN. ) SOLID_ANGLE_UNIT ( ) );
#985 = ORIENTED_EDGE ( 'NONE', *, *, #329, .F. ) ;
#986 = CARTESIAN_POINT ( 'NONE',  ( 15.00000000000000000, 0.000000000000000000, -11.26339999999999897 ) ) ;
#987 = EDGE_CURVE ( 'NONE', #419, #424, #648, .T. ) ;
#988 = DIRECTION ( 'NONE',  ( 7.228014483236698281E-17, 0.000000000000000000, -1.000000000000000000 ) ) ;
#989 = APPLICATION_PROTOCOL_DEFINITION ( 'draft international standard', 'automotive_design', 1998, #519 ) ;
#990 = EDGE_CURVE ( 'NONE', #1132, #419, #1224, .T. ) ;
#991 = FACE_OUTER_BOUND ( 'NONE', #946, .T. ) ;
#992 = VECTOR ( 'NONE', #1195, 1000.000000000000000 ) ;
#993 = ORIENTED_EDGE ( 'NONE', *, *, #437, .T. ) ;
#994 = AXIS2_PLACEMENT_3D ( 'NONE', #340, #1021, #421 ) ;
#995 = DIRECTION ( 'NONE',  ( 1.000000000000000000, 0.000000000000000000, 0.000000000000000000 ) ) ;
#996 = CYLINDRICAL_SURFACE ( 'NONE', #978, 0.7366000000000004766 ) ;
#997 = DIRECTION ( 'NONE',  ( -0.000000000000000000, -1.000000000000000000, -0.000000000000000000 ) ) ;
#998 = EDGE_CURVE ( 'NONE', #553, #442, #1249, .T. ) ;
#999 = CARTESIAN_POINT ( 'NONE',  ( 15.00000000000000000, 12.00000000000000000, -12.00000000000000000 ) ) ;
#1000 = ORIENTED_EDGE ( 'NONE', *, *, #440, .F. ) ;
#1001 = LINE ( 'NONE', #413, #644 ) ;
#1002 = CARTESIAN_POINT ( 'NONE',  ( 0.7366000000000000325, 12.00000000000000000, -11.26339999999999897 ) ) ;
#1003 = SURFACE_STYLE_FILL_AREA ( #609 ) ;
#1004 = DIRECTION ( 'NONE',  ( 0.000000000000000000, -0.000000000000000000, 1.000000000000000000 ) ) ;
#1005 = VERTEX_POINT ( 'NONE', #141 ) ;
#1006 = LINE ( 'NONE', #1241, #1097 ) ;
#1007 = CARTESIAN_POINT ( 'NONE',  ( 14.26339999999999897, 0.000000000000000000, -12.00000000000000000 ) ) ;
#1008 = SURFACE_STYLE_USAGE ( .BOTH. , #201 ) ;
#1009 = CARTESIAN_POINT ( 'NONE',  ( -3.736600000000000144, 12.00000000000000000, -3.736599999999999699 ) ) ;
#1010 =( GEOMETRIC_REPRESENTATION_CONTEXT ( 3 ) GLOBAL_UNCERTAINTY_ASSIGNED_CONTEXT ( ( #1072 ) ) GLOBAL_UNIT_ASSIGNED_CONTEXT ( ( #33, #911, #1197 ) ) REPRESENTATION_CONTEXT ( 'NONE', 'WORKASPACE' ) );
#1011 = ORIENTED_EDGE ( 'NONE', *, *, #48, .T. ) ;
#1012 = EDGE_CURVE ( 'NONE', #635, #764, #283, .T. ) ;
#1013 = CARTESIAN_POINT ( 'NONE',  ( 15.00000000000000000, 0.000000000000000000, -11.26339999999999897 ) ) ;
#1014 = VECTOR ( 'NONE', #937, 1000.000000000000000 ) ;
#1015 = DIRECTION ( 'NONE',  ( -1.000000000000000000, 0.000000000000000000, 1.224646799147353207E-16 ) ) ;
#1016 = AXIS2_PLACEMENT_3D ( 'NONE', #655, #560, #955 ) ;
#1017 = ORIENTED_EDGE ( 'NONE', *, *, #846, .F. ) ;
#1018 = CARTESIAN_POINT ( 'NONE',  ( -12.00000000000000000, 0.000000000000000000, -2.999999999999998224 ) ) ;
#1019 = ORIENTED_EDGE ( 'NONE', *, *, #301, .F. ) ;
#1020 = CARTESIAN_POINT ( 'NONE',  ( -3.000000000000000000, 0.000000000000000000, -11.26339999999999897 ) ) ;
#1021 = DIRECTION ( 'NONE',  ( 1.000000000000000000, 0.000000000000000000, -0.000000000000000000 ) ) ;
#1022 = CIRCLE ( 'NONE', #692, 3.736600000000000144 ) ;
#1023 = EDGE_LOOP ( 'NONE', ( #938, #1011, #99, #561 ) ) ;
#1024 = DIRECTION ( 'NONE',  ( 3.971015842332216479E-18, -0.000000000000000000, -1.000000000000000000 ) ) ;
#1025 = ORIENTED_EDGE ( 'NONE', *, *, #330, .T. ) ;
#1026 = CARTESIAN_POINT ( 'NONE',  ( 18.00000000000000000, 12.00000000000000000, -3.736600000000001476 ) ) ;
#1027 = CARTESIAN_POINT ( 'NONE',  ( 0.7366000000000000325, 0.000000000000000000, -11.26339999999999897 ) ) ;
#1028 = ORIENTED_EDGE ( 'NONE', *, *, #1137, .T. ) ;
#1029 = EDGE_CURVE ( 'NONE', #1132, #247, #443, .T. ) ;
#1030 = CARTESIAN_POINT ( 'NONE',  ( 0.000000000000000000, 0.000000000000000000, 0.000000000000000000 ) ) ;
#1031 = ORIENTED_EDGE ( 'NONE', *, *, #1204, .T. ) ;
#1032 = VECTOR ( 'NONE', #613, 1000.000000000000000 ) ;
#1033 = DIRECTION ( 'NONE',  ( 0.000000000000000000, 0.000000000000000000, -1.000000000000000000 ) ) ;
#1034 = ORIENTED_EDGE ( 'NONE', *, *, #385, .F. ) ;
#1035 = LINE ( 'NONE', #755, #1214 ) ;
#1036 = ADVANCED_FACE ( 'NONE', ( #543 ), #152, .T. ) ;
#1037 = ORIENTED_EDGE ( 'NONE', *, *, #714, .F. ) ;
#1038 = DIRECTION ( 'NONE',  ( 0.000000000000000000, -1.000000000000000000, -0.000000000000000000 ) ) ;
#1039 = ORIENTED_EDGE ( 'NONE', *, *, #627, .F. ) ;
#1040 = DIRECTION ( 'NONE',  ( -0.000000000000000000, -1.000000000000000000, -0.000000000000000000 ) ) ;
#1041 = VECTOR ( 'NONE', #887, 1000.000000000000000 ) ;
#1042 = DIRECTION ( 'NONE',  ( 3.971015842332216479E-18, 0.000000000000000000, -1.000000000000000000 ) ) ;
#1043 = DIRECTION ( 'NONE',  ( -0.000000000000000000, -1.000000000000000000, -0.000000000000000000 ) ) ;
#1044 = CARTESIAN_POINT ( 'NONE',  ( 25.00000000000000711, 6.000000000000000000, -3.000000000000001776 ) ) ;
#1045 = PLANE ( 'NONE',  #436 ) ;
#1046 = EDGE_LOOP ( 'NONE', ( #736, #221, #1234, #878 ) ) ;
#1047 = ORIENTED_EDGE ( 'NONE', *, *, #966, .F. ) ;
#1048 = EDGE_CURVE ( 'NONE', #1005, #456, #347, .T. ) ;
#1049 = LINE ( 'NONE', #853, #831 ) ;
#1050 = ORIENTED_EDGE ( 'NONE', *, *, #377, .T. ) ;
#1051 = LINE ( 'NONE', #365, #289 ) ;
#1052 = CIRCLE ( 'NONE', #8, 0.7366000000000004766 ) ;
#1053 = DIRECTION ( 'NONE',  ( 0.000000000000000000, 1.000000000000000000, 0.000000000000000000 ) ) ;
#1054 = ORIENTED_EDGE ( 'NONE', *, *, #1246, .F. ) ;
#1055 = DIRECTION ( 'NONE',  ( -1.000000000000000000, 0.000000000000000000, 0.000000000000000000 ) ) ;
#1056 = VERTEX_POINT ( 'NONE', #743 ) ;
#1057 = DIRECTION ( 'NONE',  ( 1.224646799147353207E-16, -0.000000000000000000, 1.000000000000000000 ) ) ;
#1058 = CARTESIAN_POINT ( 'NONE',  ( 18.73659999999999926, 12.00000000000000000, -3.000000000000001332 ) ) ;
#1059 = VERTEX_POINT ( 'NONE', #944 ) ;
#1060 = FACE_OUTER_BOUND ( 'NONE', #1153, .T. ) ;
#1061 = CIRCLE ( 'NONE', #505, 0.7366000000000004766 ) ;
#1062 = VERTEX_POINT ( 'NONE', #47 ) ;
#1063 = DIRECTION ( 'NONE',  ( 3.971015842332217249E-18, -0.000000000000000000, -1.000000000000000000 ) ) ;
#1064 = VECTOR ( 'NONE', #1253, 1000.000000000000000 ) ;
#1065 = SURFACE_STYLE_USAGE ( .BOTH. , #465 ) ;
#1066 = CARTESIAN_POINT ( 'NONE',  ( -3.736600000000000144, 0.000000000000000000, -3.736599999999999699 ) ) ;
#1067 = DIRECTION ( 'NONE',  ( -1.000000000000000000, 0.000000000000000000, 0.000000000000000000 ) ) ;
#1068 = DIRECTION ( 'NONE',  ( -1.000000000000000000, 0.000000000000000000, -3.971015842332216479E-18 ) ) ;
#1069 = PLANE ( 'NONE',  #794 ) ;
#1070 = EDGE_CURVE ( 'NONE', #798, #1225, #1035, .T. ) ;
#1071 = AXIS2_PLACEMENT_3D ( 'NONE', #1020, #520, #526 ) ;
#1072 = UNCERTAINTY_MEASURE_WITH_UNIT (LENGTH_MEASURE( 1.000000000000000082E-05 ), #33, 'distance_accuracy_value', 'NONE');
#1073 = VERTEX_POINT ( 'NONE', #58 ) ;
#1074 = DIRECTION ( 'NONE',  ( 0.000000000000000000, 1.000000000000000000, 0.000000000000000000 ) ) ;
#1075 = DIRECTION ( 'NONE',  ( -1.000000000000000000, 0.000000000000000000, -3.971015842332216479E-18 ) ) ;
#1076 = DIRECTION ( 'NONE',  ( 1.000000000000000000, 0.000000000000000000, -1.224646799147353454E-16 ) ) ;
#1077 = DIRECTION ( 'NONE',  ( 0.000000000000000000, 0.000000000000000000, -1.000000000000000000 ) ) ;
#1078 = VERTEX_POINT ( 'NONE', #448 ) ;
#1079 = VECTOR ( 'NONE', #1043, 1000.000000000000000 ) ;
#1080 = EDGE_CURVE ( 'NONE', #456, #1098, #42, .T. ) ;
#1081 = EDGE_CURVE ( 'NONE', #114, #1132, #1143, .T. ) ;
#1082 = FACE_BOUND ( 'NONE', #1187, .T. ) ;
#1083 = VECTOR ( 'NONE', #299, 1000.000000000000000 ) ;
#1084 = DIRECTION ( 'NONE',  ( -3.971015842332216479E-18, 0.000000000000000000, 1.000000000000000000 ) ) ;
#1085 = DIRECTION ( 'NONE',  ( 1.000000000000000000, 0.000000000000000000, 0.000000000000000000 ) ) ;
#1086 = AXIS2_PLACEMENT_3D ( 'NONE', #630, #1219, #342 ) ;
#1087 = DIRECTION ( 'NONE',  ( 0.000000000000000000, -0.000000000000000000, 1.000000000000000000 ) ) ;
#1088 = AXIS2_PLACEMENT_3D ( 'NONE', #1044, #53, #357 ) ;
#1089 = ORIENTED_EDGE ( 'NONE', *, *, #407, .T. ) ;
#1090 = CYLINDRICAL_SURFACE ( 'NONE', #149, 2.999999999999999112 ) ;
#1091 = VECTOR ( 'NONE', #549, 1000.000000000000000 ) ;
#1092 = EDGE_CURVE ( 'NONE', #80, #456, #750, .T. ) ;
#1093 = DIRECTION ( 'NONE',  ( -1.000000000000000000, 0.000000000000000000, 1.224646799147353207E-16 ) ) ;
#1094 = CARTESIAN_POINT ( 'NONE',  ( -15.00000000000000000, 2.999999999999999112, 1.836970198721029589E-15 ) ) ;
#1095 = MECHANICAL_DESIGN_GEOMETRIC_PRESENTATION_REPRESENTATION (  '', ( #934 ), #639 ) ;
#1096 = CARTESIAN_POINT ( 'NONE',  ( -12.00000000000000000, 0.000000000000000000, -2.999999999999998668 ) ) ;
#1097 = VECTOR ( 'NONE', #928, 1000.000000000000000 ) ;
#1098 = VERTEX_POINT ( 'NONE', #583 ) ;
#1099 = LINE ( 'NONE', #218, #50 ) ;
#1100 = LINE ( 'NONE', #883, #777 ) ;
#1101 = EDGE_CURVE ( 'NONE', #1142, #424, #292, .T. ) ;
#1102 = FILL_AREA_STYLE_COLOUR ( '', #1177 ) ;
#1103 = CARTESIAN_POINT ( 'NONE',  ( 15.00000000000000000, 12.00000000000000000, -11.26339999999999897 ) ) ;
#1104 = ORIENTED_EDGE ( 'NONE', *, *, #155, .F. ) ;
#1105 = PLANE ( 'NONE',  #293 ) ;
#1106 = DIRECTION ( 'NONE',  ( -1.224646799147353207E-16, 0.000000000000000000, -1.000000000000000000 ) ) ;
#1107 =( NAMED_UNIT ( * ) PLANE_ANGLE_UNIT ( ) SI_UNIT ( $, .RADIAN. ) );
#1108 = AXIS2_PLACEMENT_3D ( 'NONE', #729, #146, #41 ) ;
#1109 = DIRECTION ( 'NONE',  ( 0.000000000000000000, 0.000000000000000000, -1.000000000000000000 ) ) ;
#1110 = EDGE_LOOP ( 'NONE', ( #1146, #1089 ) ) ;
#1111 = DIRECTION ( 'NONE',  ( 0.000000000000000000, 1.000000000000000000, 0.000000000000000000 ) ) ;
#1112 = PLANE ( 'NONE',  #290 ) ;
#1113 = EDGE_LOOP ( 'NONE', ( #791, #15, #1031, #341 ) ) ;
#1114 = DIRECTION ( 'NONE',  ( 0.000000000000000000, 1.000000000000000000, 0.000000000000000000 ) ) ;
#1115 = EDGE_CURVE ( 'NONE', #1098, #525, #862, .T. ) ;
#1116 = ORIENTED_EDGE ( 'NONE', *, *, #54, .F. ) ;
#1117 = FACE_OUTER_BOUND ( 'NONE', #87, .T. ) ;
#1118 = AXIS2_PLACEMENT_3D ( 'NONE', #426, #1038, #1033 ) ;
#1119 = DIRECTION ( 'NONE',  ( 0.000000000000000000, 0.000000000000000000, 1.000000000000000000 ) ) ;
#1120 = VERTEX_POINT ( 'NONE', #182 ) ;
#1121 = CARTESIAN_POINT ( 'NONE',  ( -3.000000000000000000, 0.000000000000000000, 0.000000000000000000 ) ) ;
#1122 = ORIENTED_EDGE ( 'NONE', *, *, #1029, .T. ) ;
#1123 = CARTESIAN_POINT ( 'NONE',  ( 14.26339999999999897, 12.00000000000000000, -11.26339999999999897 ) ) ;
#1124 = ADVANCED_FACE ( 'NONE', ( #687, #195 ), #768, .T. ) ;
#1125 = ADVANCED_FACE ( 'NONE', ( #1158 ), #478, .T. ) ;
#1126 = DIRECTION ( 'NONE',  ( 0.000000000000000000, -1.000000000000000000, -0.000000000000000000 ) ) ;
#1127 = EDGE_LOOP ( 'NONE', ( #844, #343, #848, #619, #194, #73 ) ) ;
#1128 = DIRECTION ( 'NONE',  ( 3.971015842332217249E-18, -0.000000000000000000, -1.000000000000000000 ) ) ;
#1129 = ORIENTED_EDGE ( 'NONE', *, *, #826, .T. ) ;
#1130 = FACE_OUTER_BOUND ( 'NONE', #1161, .T. ) ;
#1131 = EDGE_CURVE ( 'NONE', #1248, #133, #271, .T. ) ;
#1132 = VERTEX_POINT ( 'NONE', #1151 ) ;
#1133 = DIRECTION ( 'NONE',  ( -0.000000000000000000, 0.000000000000000000, 1.000000000000000000 ) ) ;
#1134 = ORIENTED_EDGE ( 'NONE', *, *, #68, .T. ) ;
#1135 = VECTOR ( 'NONE', #178, 1000.000000000000000 ) ;
#1136 = CARTESIAN_POINT ( 'NONE',  ( 0.000000000000000000, 12.00000000000000000, -15.00000000000000000 ) ) ;
#1137 = EDGE_CURVE ( 'NONE', #456, #43, #1267, .T. ) ;
#1138 = ORIENTED_EDGE ( 'NONE', *, *, #1012, .T. ) ;
#1139 = CARTESIAN_POINT ( 'NONE',  ( 27.00000000000000000, 9.000000000000001776, -3.000000000000001776 ) ) ;
#1140 = ORIENTED_EDGE ( 'NONE', *, *, #31, .F. ) ;
#1141 = DIRECTION ( 'NONE',  ( 0.000000000000000000, 0.000000000000000000, -1.000000000000000000 ) ) ;
#1142 = VERTEX_POINT ( 'NONE', #575 ) ;
#1143 = LINE ( 'NONE', #1233, #530 ) ;
#1144 = CARTESIAN_POINT ( 'NONE',  ( 30.00000000000000000, 2.999999999999999112, -3.000000000000001776 ) ) ;
#1145 = EDGE_CURVE ( 'NONE', #764, #635, #748, .T. ) ;
#1146 = ORIENTED_EDGE ( 'NONE', *, *, #473, .T. ) ;
#1147 = VECTOR ( 'NONE', #680, 1000.000000000000000 ) ;
#1148 = VERTEX_POINT ( 'NONE', #83 ) ;
#1149 = DIRECTION ( 'NONE',  ( -1.000000000000000000, 0.000000000000000000, 1.224646799147353207E-16 ) ) ;
#1150 = ORIENTED_EDGE ( 'NONE', *, *, #1154, .T. ) ;
#1151 = CARTESIAN_POINT ( 'NONE',  ( -3.000000000000000000, 12.00000000000000000, -11.26339999999999897 ) ) ;
#1152 = CARTESIAN_POINT ( 'NONE',  ( 14.26339999999999897, 0.000000000000000000, -15.00000000000000000 ) ) ;
#1153 = EDGE_LOOP ( 'NONE', ( #217, #650, #55, #462 ) ) ;
#1154 = EDGE_CURVE ( 'NONE', #852, #228, #1051, .T. ) ;
#1155 = LINE ( 'NONE', #845, #1135 ) ;
#1156 = VECTOR ( 'NONE', #222, 1000.000000000000000 ) ;
#1157 = ORIENTED_EDGE ( 'NONE', *, *, #77, .F. ) ;
#1158 = FACE_OUTER_BOUND ( 'NONE', #591, .T. ) ;
#1159 = AXIS2_PLACEMENT_3D ( 'NONE', #370, #467, #156 ) ;
#1160 = DIRECTION ( 'NONE',  ( 0.000000000000000000, 1.000000000000000000, 0.000000000000000000 ) ) ;
#1161 = EDGE_LOOP ( 'NONE', ( #622, #274, #534, #903 ) ) ;
#1162 = DIRECTION ( 'NONE',  ( 1.000000000000000000, 0.000000000000000000, 3.971015842332270405E-18 ) ) ;
#1163 = EDGE_CURVE ( 'NONE', #1225, #242, #972, .T. ) ;
#1164 = ORIENTED_EDGE ( 'NONE', *, *, #578, .T. ) ;
#1165 = FACE_OUTER_BOUND ( 'NONE', #140, .T. ) ;
#1166 = LINE ( 'NONE', #176, #69 ) ;
#1167 = PRODUCT_DEFINITION_FORMATION_WITH_SPECIFIED_SOURCE ( 'ANY', '', #117, .NOT_KNOWN. ) ;
#1168 = ORIENTED_EDGE ( 'NONE', *, *, #1145, .F. ) ;
#1169 = DIRECTION ( 'NONE',  ( 0.000000000000000000, -0.000000000000000000, 1.000000000000000000 ) ) ;
#1170 = VERTEX_POINT ( 'NONE', #382 ) ;
#1171 = CARTESIAN_POINT ( 'NONE',  ( 25.00000000000000711, 6.000000000000000000, -3.000000000000001776 ) ) ;
#1172 = DIRECTION ( 'NONE',  ( -0.000000000000000000, 1.000000000000000000, 0.000000000000000000 ) ) ;
#1173 = ORIENTED_EDGE ( 'NONE', *, *, #270, .F. ) ;
#1174 = DIRECTION ( 'NONE',  ( 1.000000000000000000, 0.000000000000000000, -1.224646799147353207E-16 ) ) ;
#1175 = DIRECTION ( 'NONE',  ( -0.000000000000000000, -1.000000000000000000, -0.000000000000000000 ) ) ;
#1176 = CARTESIAN_POINT ( 'NONE',  ( -12.00000000000000000, 12.00000000000000000, 1.469576158976823947E-15 ) ) ;
#1177 = COLOUR_RGB ( '',0.7921568627450980005, 0.8196078431372548767, 0.9333333333333333481 ) ;
#1178 = DIRECTION ( 'NONE',  ( -0.000000000000000000, -1.000000000000000000, -0.000000000000000000 ) ) ;
#1179 = VECTOR ( 'NONE', #942, 1000.000000000000000 ) ;
#1180 = VECTOR ( 'NONE', #898, 1000.000000000000000 ) ;
#1181 = VECTOR ( 'NONE', #1178, 1000.000000000000000 ) ;
#1182 = ORIENTED_EDGE ( 'NONE', *, *, #786, .T. ) ;
#1183 = CARTESIAN_POINT ( 'NONE',  ( -15.00000000000000000, 2.999999999999999112, -2.999999999999998224 ) ) ;
#1184 = DIRECTION ( 'NONE',  ( 1.000000000000000000, 0.000000000000000000, 0.000000000000000000 ) ) ;
#1185 = CARTESIAN_POINT ( 'NONE',  ( 14.26339999999999897, 0.000000000000000000, -11.26339999999999897 ) ) ;
#1186 = ADVANCED_FACE ( 'NONE', ( #1165 ), #281, .F. ) ;
#1187 = EDGE_LOOP ( 'NONE', ( #888, #119 ) ) ;
#1188 = DIRECTION ( 'NONE',  ( 1.000000000000000000, 0.000000000000000000, 3.971015842332230345E-18 ) ) ;
#1189 = DIRECTION ( 'NONE',  ( -0.000000000000000000, -1.000000000000000000, -0.000000000000000000 ) ) ;
#1190 = DIRECTION ( 'NONE',  ( 0.000000000000000000, -0.000000000000000000, 1.000000000000000000 ) ) ;
#1191 = AXIS2_PLACEMENT_3D ( 'NONE', #1139, #1024, #245 ) ;
#1192 = DIRECTION ( 'NONE',  ( -1.000000000000000000, 0.000000000000000000, -3.971015842332270405E-18 ) ) ;
#1193 = EDGE_LOOP ( 'NONE', ( #240, #1138 ) ) ;
#1194 = EDGE_CURVE ( 'NONE', #1005, #1056, #514, .T. ) ;
#1195 = DIRECTION ( 'NONE',  ( -0.000000000000000000, -1.000000000000000000, -0.000000000000000000 ) ) ;
#1196 = FACE_BOUND ( 'NONE', #1193, .T. ) ;
#1197 =( NAMED_UNIT ( * ) SI_UNIT ( $, .STERADIAN. ) SOLID_ANGLE_UNIT ( ) );
#1198 = FACE_OUTER_BOUND ( 'NONE', #434, .T. ) ;
#1199 = VECTOR ( 'NONE', #354, 1000.000000000000000 ) ;
#1200 = VECTOR ( 'NONE', #115, 1000.000000000000000 ) ;
#1201 = ORIENTED_EDGE ( 'NONE', *, *, #908, .T. ) ;
#1202 = LINE ( 'NONE', #607, #746 ) ;
#1203 = DIRECTION ( 'NONE',  ( -0.000000000000000000, -1.000000000000000000, -0.000000000000000000 ) ) ;
#1204 = EDGE_CURVE ( 'NONE', #1062, #764, #76, .T. ) ;
#1205 = CARTESIAN_POINT ( 'NONE',  ( 18.73659999999999926, 0.000000000000000000, -3.736600000000001476 ) ) ;
#1206 = ORIENTED_EDGE ( 'NONE', *, *, #393, .F. ) ;
#1207 = LINE ( 'NONE', #420, #829 ) ;
#1208 = LINE ( 'NONE', #1136, #1179 ) ;
#1209 = FACE_OUTER_BOUND ( 'NONE', #225, .T. ) ;
#1210 = ADVANCED_FACE ( 'NONE', ( #188 ), #785, .T. ) ;
#1211 = EDGE_CURVE ( 'NONE', #114, #1078, #954, .T. ) ;
#1212 = AXIS2_PLACEMENT_3D ( 'NONE', #999, #113, #616 ) ;
#1213 = CARTESIAN_POINT ( 'NONE',  ( 0.7366000000000002546, 12.00000000000000000, -15.00000000000000000 ) ) ;
#1214 = VECTOR ( 'NONE', #833, 1000.000000000000000 ) ;
#1215 = EDGE_LOOP ( 'NONE', ( #832, #148, #1034, #940 ) ) ;
#1216 = DIRECTION ( 'NONE',  ( 3.971015842332217249E-18, -0.000000000000000000, -1.000000000000000000 ) ) ;
#1217 = PLANE ( 'NONE',  #563 ) ;
#1218 = ORIENTED_EDGE ( 'NONE', *, *, #627, .T. ) ;
#1219 = DIRECTION ( 'NONE',  ( -0.000000000000000000, -1.000000000000000000, -0.000000000000000000 ) ) ;
#1220 = VERTEX_POINT ( 'NONE', #457 ) ;
#1221 = PLANE ( 'NONE',  #685 ) ;
#1222 = CARTESIAN_POINT ( 'NONE',  ( 25.00000000000000711, 6.000000000000000000, 1.734723475976807094E-15 ) ) ;
#1223 = ORIENTED_EDGE ( 'NONE', *, *, #1257, .T. ) ;
#1224 = LINE ( 'NONE', #235, #390 ) ;
#1225 = VERTEX_POINT ( 'NONE', #1176 ) ;
#1226 = DIRECTION ( 'NONE',  ( 0.000000000000000000, 0.000000000000000000, -1.000000000000000000 ) ) ;
#1227 = ORIENTED_EDGE ( 'NONE', *, *, #797, .T. ) ;
#1228 = DIRECTION ( 'NONE',  ( 1.000000000000000000, 0.000000000000000000, 0.000000000000000000 ) ) ;
#1229 = ORIENTED_EDGE ( 'NONE', *, *, #532, .T. ) ;
#1230 = AXIS2_PLACEMENT_3D ( 'NONE', #588, #94, #463 ) ;
#1231 = DIRECTION ( 'NONE',  ( -1.000000000000000000, 0.000000000000000000, -3.971015842332234968E-18 ) ) ;
#1232 = EDGE_LOOP ( 'NONE', ( #523, #1182, #645, #499 ) ) ;
#1233 = CARTESIAN_POINT ( 'NONE',  ( 0.000000000000000000, 12.00000000000000000, -11.26339999999999897 ) ) ;
#1234 = ORIENTED_EDGE ( 'NONE', *, *, #634, .F. ) ;
#1235 = CYLINDRICAL_SURFACE ( 'NONE', #28, 3.736599999999999699 ) ;
#1236 = VECTOR ( 'NONE', #725, 1000.000000000000000 ) ;
#1237 = LINE ( 'NONE', #754, #1079 ) ;
#1238 = ADVANCED_FACE ( 'NONE', ( #855 ), #1245, .F. ) ;
#1239 = EDGE_CURVE ( 'NONE', #228, #75, #906, .T. ) ;
#1240 = DIRECTION ( 'NONE',  ( -0.000000000000000000, -0.000000000000000000, 1.000000000000000000 ) ) ;
#1241 = CARTESIAN_POINT ( 'NONE',  ( -3.000000000000000000, 0.000000000000000000, -11.26339999999999897 ) ) ;
#1242 = ORIENTED_EDGE ( 'NONE', *, *, #337, .T. ) ;
#1243 = FACE_OUTER_BOUND ( 'NONE', #1046, .T. ) ;
#1244 = DIRECTION ( 'NONE',  ( 1.224646799147353207E-16, -0.000000000000000000, 1.000000000000000000 ) ) ;
#1245 = CYLINDRICAL_SURFACE ( 'NONE', #515, 1.750000000000001554 ) ;
#1246 = EDGE_CURVE ( 'NONE', #660, #124, #559, .T. ) ;
#1247 = DIRECTION ( 'NONE',  ( 1.000000000000000000, 0.000000000000000000, 0.000000000000000000 ) ) ;
#1248 = VERTEX_POINT ( 'NONE', #1094 ) ;
#1249 = CIRCLE ( 'NONE', #1191, 2.999999999999999112 ) ;
#1250 = CARTESIAN_POINT ( 'NONE',  ( 18.00000000000000000, 12.00000000000000000, -11.26339999999999897 ) ) ;
#1251 = VECTOR ( 'NONE', #1068, 1000.000000000000000 ) ;
#1252 = EDGE_LOOP ( 'NONE', ( #546, #471, #930, #689 ) ) ;
#1253 = DIRECTION ( 'NONE',  ( 0.000000000000000000, 0.000000000000000000, -1.000000000000000000 ) ) ;
#1254 = AXIS2_PLACEMENT_3D ( 'NONE', #759, #766, #1141 ) ;
#1255 = ORIENTED_EDGE ( 'NONE', *, *, #38, .F. ) ;
#1256 = ADVANCED_FACE ( 'NONE', ( #1209 ), #713, .F. ) ;
#1257 = EDGE_CURVE ( 'NONE', #114, #951, #326, .T. ) ;
#1258 = DIRECTION ( 'NONE',  ( -0.000000000000000000, -0.000000000000000000, -1.000000000000000000 ) ) ;
#1259 = AXIS2_PLACEMENT_3D ( 'NONE', #793, #506, #309 ) ;
#1260 = ORIENTED_EDGE ( 'NONE', *, *, #464, .T. ) ;
#1261 = CARTESIAN_POINT ( 'NONE',  ( -12.00000000000000000, 9.000000000000001776, 1.469576158976823947E-15 ) ) ;
#1262 = FILL_AREA_STYLE ('',( #202 ) ) ;
#1263 = ORIENTED_EDGE ( 'NONE', *, *, #765, .T. ) ;
#1264 = ADVANCED_FACE ( 'NONE', ( #122 ), #26, .T. ) ;
#1265 = DIRECTION ( 'NONE',  ( 0.000000000000000000, -1.000000000000000000, -0.000000000000000000 ) ) ;
#1266 = PLANE ( 'NONE',  #363 ) ;
#1267 = LINE ( 'NONE', #976, #248 ) ;
#1268 =( LENGTH_UNIT ( ) NAMED_UNIT ( * ) SI_UNIT ( .MILLI., .METRE. ) );
#1269 = AXIS2_PLACEMENT_3D ( 'NONE', #410, #392, #800 ) ;
#1270 = EDGE_LOOP ( 'NONE', ( #866, #46, #809, #348 ) ) ;
#1271 = AXIS2_PLACEMENT_3D ( 'NONE', #919, #216, #1087 ) ;
#1272 = FACE_OUTER_BOUND ( 'NONE', #842, .T. ) ;
#1273 = DIRECTION ( 'NONE',  ( 1.000000000000000000, 0.000000000000000000, 0.000000000000000000 ) ) ;
#1274 = DIRECTION ( 'NONE',  ( 1.000000000000000000, 0.000000000000000000, -1.224646799147353454E-16 ) ) ;
ENDSEC;
END-ISO-10303-21;
